<?xml version="1.0" encoding="utf-8" standalone="no"?>
<!DOCTYPE svg PUBLIC "-//W3C//DTD SVG 1.1//EN"
  "http://www.w3.org/Graphics/SVG/1.1/DTD/svg11.dtd">
<svg xmlns:xlink="http://www.w3.org/1999/xlink" width="285.9036pt" height="244.24pt" viewBox="0 0 285.9036 244.24" xmlns="http://www.w3.org/2000/svg" version="1.1">
 <metadata>
  <rdf:RDF xmlns:dc="http://purl.org/dc/elements/1.1/" xmlns:cc="http://creativecommons.org/ns#" xmlns:rdf="http://www.w3.org/1999/02/22-rdf-syntax-ns#">
   <cc:Work>
    <dc:type rdf:resource="http://purl.org/dc/dcmitype/StillImage"/>
    <dc:date>2022-09-19T00:07:54.747423</dc:date>
    <dc:format>image/svg+xml</dc:format>
    <dc:creator>
     <cc:Agent>
      <dc:title>Matplotlib v3.5.2, https://matplotlib.org/</dc:title>
     </cc:Agent>
    </dc:creator>
   </cc:Work>
  </rdf:RDF>
 </metadata>
 <defs>
  <style type="text/css">*{stroke-linejoin: round; stroke-linecap: butt}</style>
 </defs>
 <g id="figure_1">
  <g id="patch_1">
   <path d="M 0 244.24 
L 285.9036 244.24 
L 285.9036 0 
L 0 0 
L 0 244.24 
z
" style="fill: none"/>
  </g>
  <g id="axes_1">
   <g id="patch_2">
    <path d="M 48.0918 103.93 
C 52.149407 103.93 56.041372 102.317895 58.910534 99.448734 
C 61.779695 96.579572 63.3918 92.687607 63.3918 88.63 
C 63.3918 84.572393 61.779695 80.680428 58.910534 77.811266 
C 56.041372 74.942105 52.149407 73.33 48.0918 73.33 
C 44.034193 73.33 40.142228 74.942105 37.273066 77.811266 
C 34.403905 80.680428 32.7918 84.572393 32.7918 88.63 
C 32.7918 92.687607 34.403905 96.579572 37.273066 99.448734 
C 40.142228 102.317895 44.034193 103.93 48.0918 103.93 
L 48.0918 103.93 
z
" clip-path="url(#pe289ceb3b6)" style="fill: none; stroke: #000000; stroke-width: 2; stroke-linejoin: miter"/>
   </g>
   <g id="patch_3">
    <path d="M 231.6918 103.93 
C 235.749407 103.93 239.641372 102.317895 242.510534 99.448734 
C 245.379695 96.579572 246.9918 92.687607 246.9918 88.63 
C 246.9918 84.572393 245.379695 80.680428 242.510534 77.811266 
C 239.641372 74.942105 235.749407 73.33 231.6918 73.33 
C 227.634193 73.33 223.742228 74.942105 220.873066 77.811266 
C 218.003905 80.680428 216.3918 84.572393 216.3918 88.63 
C 216.3918 92.687607 218.003905 96.579572 220.873066 99.448734 
C 223.742228 102.317895 227.634193 103.93 231.6918 103.93 
L 231.6918 103.93 
z
" clip-path="url(#pe289ceb3b6)" style="fill: none; stroke: #000000; stroke-width: 2; stroke-linejoin: miter"/>
   </g>
   <g id="patch_4">
    <path d="M 106.524826 76.794281 
C 105.597528 75.469962 104.466159 74.30095 103.17289 73.330818 
C 101.879621 72.360686 100.440721 71.601639 98.909824 71.081969 
C 97.378927 70.5623 95.775292 70.288545 94.158694 70.27091 
C 92.542095 70.253275 90.932871 70.491981 89.391001 70.978131 
C 87.849132 71.46428 86.394016 72.191757 85.079891 73.133446 
C 83.765766 74.075134 82.609165 75.219188 81.653198 76.522962 
C 80.69723 77.826737 79.953924 79.273831 79.450985 80.810306 
C 78.948045 82.34678 78.6918 83.953305 78.6918 85.57 
C 78.6918 87.186695 78.948045 88.79322 79.450985 90.329694 
C 79.953924 91.866169 80.69723 93.313263 81.653198 94.617038 
C 82.609165 95.920812 83.765766 97.064866 85.079891 98.006554 
C 86.394016 98.948243 87.849132 99.67572 89.391001 100.161869 
C 90.932871 100.648019 92.542095 100.886725 94.158694 100.86909 
C 95.775292 100.851455 97.378927 100.5777 98.909824 100.058031 
C 100.440721 99.538361 101.879621 98.779314 103.17289 97.809182 
C 104.466159 96.83905 105.597528 95.670038 106.524826 94.345719 
" clip-path="url(#pe289ceb3b6)" style="fill: none; stroke: #00cd6c; stroke-width: 2; stroke-linejoin: miter"/>
   </g>
   <g id="patch_5">
    <path d="M 111.0882 83.311454 
L 104.820387 78.361299 
L 106.687808 77.053717 
L 106.512293 76.803056 
L 106.537359 76.785505 
L 106.712874 77.036165 
L 108.580295 75.728583 
z
" clip-path="url(#pe289ceb3b6)" style="fill: #00cd6c; stroke: #00cd6c; stroke-linejoin: miter"/>
   </g>
   <g id="patch_6">
    <path d="M 173.258774 94.345719 
C 174.186072 95.670038 175.317441 96.83905 176.61071 97.809182 
C 177.903979 98.779314 179.342879 99.538361 180.873776 100.058031 
C 182.404673 100.5777 184.008308 100.851455 185.624906 100.86909 
C 187.241505 100.886725 188.850729 100.648019 190.392599 100.161869 
C 191.934468 99.67572 193.389584 98.948243 194.703709 98.006554 
C 196.017834 97.064866 197.174435 95.920812 198.130402 94.617038 
C 199.08637 93.313263 199.829676 91.866169 200.332615 90.329694 
C 200.835555 88.79322 201.0918 87.186695 201.0918 85.57 
C 201.0918 83.953305 200.835555 82.34678 200.332615 80.810306 
C 199.829676 79.273831 199.08637 77.826737 198.130402 76.522962 
C 197.174435 75.219188 196.017834 74.075134 194.703709 73.133446 
C 193.389584 72.191757 191.934468 71.46428 190.392599 70.978131 
C 188.850729 70.491981 187.241505 70.253275 185.624906 70.27091 
C 184.008308 70.288545 182.404673 70.5623 180.873776 71.081969 
C 179.342879 71.601639 177.903979 72.360686 176.61071 73.330818 
C 175.317441 74.30095 174.186072 75.469962 173.258774 76.794281 
" clip-path="url(#pe289ceb3b6)" style="fill: none; stroke: #009ade; stroke-width: 2; stroke-linejoin: miter"/>
   </g>
   <g id="patch_7">
    <path d="M 168.6954 83.311454 
L 171.203305 75.728583 
L 173.070726 77.036165 
L 173.246241 76.785505 
L 173.271307 76.803056 
L 173.095792 77.053717 
L 174.963213 78.361299 
z
" clip-path="url(#pe289ceb3b6)" style="fill: #009ade; stroke: #009ade; stroke-linejoin: miter"/>
   </g>
   <g id="patch_8">
    <path d="M 127.358774 186.145719 
C 128.286072 187.470038 129.417441 188.63905 130.71071 189.609182 
C 132.003979 190.579314 133.442879 191.338361 134.973776 191.858031 
C 136.504673 192.3777 138.108308 192.651455 139.724906 192.66909 
C 141.341505 192.686725 142.950729 192.448019 144.492599 191.961869 
C 146.034468 191.47572 147.489584 190.748243 148.803709 189.806554 
C 150.117834 188.864866 151.274435 187.720812 152.230402 186.417038 
C 153.18637 185.113263 153.929676 183.666169 154.432615 182.129694 
C 154.935555 180.59322 155.1918 178.986695 155.1918 177.37 
C 155.1918 175.753305 154.935555 174.14678 154.432615 172.610306 
C 153.929676 171.073831 153.18637 169.626737 152.230402 168.322962 
C 151.274435 167.019188 150.117834 165.875134 148.803709 164.933446 
C 147.489584 163.991757 146.034468 163.26428 144.492599 162.778131 
C 142.950729 162.291981 141.341505 162.053275 139.724906 162.07091 
C 138.108308 162.088545 136.504673 162.3623 134.973776 162.881969 
C 133.442879 163.401639 132.003979 164.160686 130.71071 165.130818 
C 129.417441 166.10095 128.286072 167.269962 127.358774 168.594281 
" clip-path="url(#pe289ceb3b6)" style="fill: none; stroke: #af58ba; stroke-width: 2; stroke-linejoin: miter"/>
   </g>
   <g id="patch_9">
    <path d="M 122.7954 175.111454 
L 125.303305 167.528583 
L 127.170726 168.836165 
L 127.346241 168.585505 
L 127.371307 168.603056 
L 127.195792 168.853717 
L 129.063213 170.161299 
z
" clip-path="url(#pe289ceb3b6)" style="fill: #af58ba; stroke: #af58ba; stroke-linejoin: miter"/>
   </g>
   <g id="line2d_1">
    <path d="M 231.6918 226.33 
L 231.6918 180.43 
L 231.6918 134.53 
" clip-path="url(#pe289ceb3b6)" style="fill: none; stroke: #000000; stroke-width: 2; stroke-linecap: round"/>
   </g>
   <g id="line2d_2">
    <path d="M 231.6918 134.53 
L 201.0918 134.53 
L 198.5418 142.18 
L 193.4418 126.88 
L 188.3418 142.18 
L 183.2418 126.88 
L 178.1418 142.18 
L 173.0418 126.88 
L 170.4918 134.53 
L 139.8918 134.53 
" clip-path="url(#pe289ceb3b6)" style="fill: none; stroke: #000000; stroke-width: 2; stroke-linecap: round"/>
   </g>
   <g id="line2d_3">
    <path d="M 139.8918 134.53 
L 109.2918 134.53 
L 106.7418 142.18 
L 101.6418 126.88 
L 96.5418 142.18 
L 91.4418 126.88 
L 86.3418 142.18 
L 81.2418 126.88 
L 78.6918 134.53 
L 48.0918 134.53 
" clip-path="url(#pe289ceb3b6)" style="fill: none; stroke: #000000; stroke-width: 2; stroke-linecap: round"/>
   </g>
   <g id="line2d_4">
    <path d="M 48.0918 134.53 
L 48.0918 180.43 
L 48.0918 226.33 
" clip-path="url(#pe289ceb3b6)" style="fill: none; stroke: #000000; stroke-width: 2; stroke-linecap: round"/>
   </g>
   <g id="line2d_5">
    <path d="M 48.0918 226.33 
L 124.5918 226.33 
L 127.1418 218.68 
L 132.2418 233.98 
L 137.3418 218.68 
L 142.4418 233.98 
L 147.5418 218.68 
L 152.6418 233.98 
L 155.1918 226.33 
L 231.6918 226.33 
" clip-path="url(#pe289ceb3b6)" style="fill: none; stroke: #000000; stroke-width: 2; stroke-linecap: round"/>
   </g>
   <g id="line2d_6">
    <path d="M 139.8918 134.53 
L 139.8918 103.93 
L 132.2418 101.38 
L 147.5418 96.28 
L 132.2418 91.18 
L 147.5418 86.08 
L 132.2418 80.98 
L 147.5418 75.88 
L 139.8918 73.33 
L 139.8918 42.73 
" clip-path="url(#pe289ceb3b6)" style="fill: none; stroke: #000000; stroke-width: 2; stroke-linecap: round"/>
   </g>
   <g id="line2d_7">
    <path d="M 48.0918 134.53 
L 48.0918 103.93 
L 48.0918 103.93 
M 48.0918 73.33 
L 48.0918 73.33 
L 48.0918 42.73 
" clip-path="url(#pe289ceb3b6)" style="fill: none; stroke: #000000; stroke-width: 2; stroke-linecap: round"/>
   </g>
   <g id="line2d_8">
    <path d="M 51.1518 96.28 
L 45.0318 96.28 
" clip-path="url(#pe289ceb3b6)" style="fill: none; stroke: #000000; stroke-width: 2; stroke-linecap: round"/>
   </g>
   <g id="line2d_9">
    <path d="M 48.0918 84.04 
L 48.0918 77.92 
" clip-path="url(#pe289ceb3b6)" style="fill: none; stroke: #000000; stroke-width: 2; stroke-linecap: round"/>
   </g>
   <g id="line2d_10">
    <path d="M 51.1518 80.98 
L 45.0318 80.98 
" clip-path="url(#pe289ceb3b6)" style="fill: none; stroke: #000000; stroke-width: 2; stroke-linecap: round"/>
   </g>
   <g id="line2d_11">
    <path d="M 231.6918 134.53 
L 231.6918 103.93 
L 231.6918 103.93 
M 231.6918 73.33 
L 231.6918 73.33 
L 231.6918 42.73 
" clip-path="url(#pe289ceb3b6)" style="fill: none; stroke: #000000; stroke-width: 2; stroke-linecap: round"/>
   </g>
   <g id="line2d_12">
    <path d="M 234.7518 96.28 
L 228.6318 96.28 
" clip-path="url(#pe289ceb3b6)" style="fill: none; stroke: #000000; stroke-width: 2; stroke-linecap: round"/>
   </g>
   <g id="line2d_13">
    <path d="M 231.6918 84.04 
L 231.6918 77.92 
" clip-path="url(#pe289ceb3b6)" style="fill: none; stroke: #000000; stroke-width: 2; stroke-linecap: round"/>
   </g>
   <g id="line2d_14">
    <path d="M 234.7518 80.98 
L 228.6318 80.98 
" clip-path="url(#pe289ceb3b6)" style="fill: none; stroke: #000000; stroke-width: 2; stroke-linecap: round"/>
   </g>
   <g id="line2d_15">
    <path d="M 48.0918 42.73 
L 78.6918 42.73 
L 81.2418 35.08 
L 86.3418 50.38 
L 91.4418 35.08 
L 96.5418 50.38 
L 101.6418 35.08 
L 106.7418 50.38 
L 109.2918 42.73 
L 139.8918 42.73 
" clip-path="url(#pe289ceb3b6)" style="fill: none; stroke: #000000; stroke-width: 2; stroke-linecap: round"/>
   </g>
   <g id="line2d_16">
    <path d="M 231.6918 42.73 
L 201.0918 42.73 
L 198.5418 50.38 
L 193.4418 35.08 
L 188.3418 50.38 
L 183.2418 35.08 
L 178.1418 50.38 
L 173.0418 35.08 
L 170.4918 42.73 
L 139.8918 42.73 
" clip-path="url(#pe289ceb3b6)" style="fill: none; stroke: #000000; stroke-width: 2; stroke-linecap: round"/>
   </g>
   <g id="text_1">
    <g clip-path="url(#pe289ceb3b6)">
     <!-- $R_5$ -->
     <g transform="translate(178.4793 121.220391)scale(0.125 -0.125)">
      <defs>
       <path id="DejaVuSans-Oblique-52" d="M 1613 4147 
L 1294 2491 
L 2106 2491 
Q 2584 2491 2879 2755 
Q 3175 3019 3175 3444 
Q 3175 3784 2976 3965 
Q 2778 4147 2406 4147 
L 1613 4147 
z
M 2772 2241 
Q 2972 2194 3105 2009 
Q 3238 1825 3413 1275 
L 3809 0 
L 3144 0 
L 2778 1197 
Q 2638 1659 2453 1815 
Q 2269 1972 1888 1972 
L 1191 1972 
L 806 0 
L 172 0 
L 1081 4666 
L 2503 4666 
Q 3150 4666 3495 4373 
Q 3841 4081 3841 3531 
Q 3841 3044 3547 2687 
Q 3253 2331 2772 2241 
z
" transform="scale(0.015625)"/>
       <path id="DejaVuSans-35" d="M 691 4666 
L 3169 4666 
L 3169 4134 
L 1269 4134 
L 1269 2991 
Q 1406 3038 1543 3061 
Q 1681 3084 1819 3084 
Q 2600 3084 3056 2656 
Q 3513 2228 3513 1497 
Q 3513 744 3044 326 
Q 2575 -91 1722 -91 
Q 1428 -91 1123 -41 
Q 819 9 494 109 
L 494 744 
Q 775 591 1075 516 
Q 1375 441 1709 441 
Q 2250 441 2565 725 
Q 2881 1009 2881 1497 
Q 2881 1984 2565 2268 
Q 2250 2553 1709 2553 
Q 1456 2553 1204 2497 
Q 953 2441 691 2322 
L 691 4666 
z
" transform="scale(0.015625)"/>
      </defs>
      <use xlink:href="#DejaVuSans-Oblique-52" transform="translate(0 0.09375)"/>
      <use xlink:href="#DejaVuSans-35" transform="translate(69.482422 -16.3125)scale(0.7)"/>
     </g>
    </g>
   </g>
   <g id="text_2">
    <g clip-path="url(#pe289ceb3b6)">
     <!-- $R_4$ -->
     <g transform="translate(86.6793 121.220391)scale(0.125 -0.125)">
      <defs>
       <path id="DejaVuSans-34" d="M 2419 4116 
L 825 1625 
L 2419 1625 
L 2419 4116 
z
M 2253 4666 
L 3047 4666 
L 3047 1625 
L 3713 1625 
L 3713 1100 
L 3047 1100 
L 3047 0 
L 2419 0 
L 2419 1100 
L 313 1100 
L 313 1709 
L 2253 4666 
z
" transform="scale(0.015625)"/>
      </defs>
      <use xlink:href="#DejaVuSans-Oblique-52" transform="translate(0 0.09375)"/>
      <use xlink:href="#DejaVuSans-34" transform="translate(69.482422 -16.3125)scale(0.7)"/>
     </g>
    </g>
   </g>
   <g id="text_3">
    <g clip-path="url(#pe289ceb3b6)">
     <!-- $R_6$ -->
     <g transform="translate(132.5793 213.020391)scale(0.125 -0.125)">
      <defs>
       <path id="DejaVuSans-36" d="M 2113 2584 
Q 1688 2584 1439 2293 
Q 1191 2003 1191 1497 
Q 1191 994 1439 701 
Q 1688 409 2113 409 
Q 2538 409 2786 701 
Q 3034 994 3034 1497 
Q 3034 2003 2786 2293 
Q 2538 2584 2113 2584 
z
M 3366 4563 
L 3366 3988 
Q 3128 4100 2886 4159 
Q 2644 4219 2406 4219 
Q 1781 4219 1451 3797 
Q 1122 3375 1075 2522 
Q 1259 2794 1537 2939 
Q 1816 3084 2150 3084 
Q 2853 3084 3261 2657 
Q 3669 2231 3669 1497 
Q 3669 778 3244 343 
Q 2819 -91 2113 -91 
Q 1303 -91 875 529 
Q 447 1150 447 2328 
Q 447 3434 972 4092 
Q 1497 4750 2381 4750 
Q 2619 4750 2861 4703 
Q 3103 4656 3366 4563 
z
" transform="scale(0.015625)"/>
      </defs>
      <use xlink:href="#DejaVuSans-Oblique-52" transform="translate(0 0.09375)"/>
      <use xlink:href="#DejaVuSans-36" transform="translate(69.482422 -16.3125)scale(0.7)"/>
     </g>
    </g>
   </g>
   <g id="text_4">
    <g clip-path="url(#pe289ceb3b6)">
     <!-- $R_3$ -->
     <g transform="translate(144.4818 70.659219)scale(0.125 -0.125)">
      <defs>
       <path id="DejaVuSans-33" d="M 2597 2516 
Q 3050 2419 3304 2112 
Q 3559 1806 3559 1356 
Q 3559 666 3084 287 
Q 2609 -91 1734 -91 
Q 1441 -91 1130 -33 
Q 819 25 488 141 
L 488 750 
Q 750 597 1062 519 
Q 1375 441 1716 441 
Q 2309 441 2620 675 
Q 2931 909 2931 1356 
Q 2931 1769 2642 2001 
Q 2353 2234 1838 2234 
L 1294 2234 
L 1294 2753 
L 1863 2753 
Q 2328 2753 2575 2939 
Q 2822 3125 2822 3475 
Q 2822 3834 2567 4026 
Q 2313 4219 1838 4219 
Q 1578 4219 1281 4162 
Q 984 4106 628 3988 
L 628 4550 
Q 988 4650 1302 4700 
Q 1616 4750 1894 4750 
Q 2613 4750 3031 4423 
Q 3450 4097 3450 3541 
Q 3450 3153 3228 2886 
Q 3006 2619 2597 2516 
z
" transform="scale(0.015625)"/>
      </defs>
      <use xlink:href="#DejaVuSans-Oblique-52" transform="translate(0 0.09375)"/>
      <use xlink:href="#DejaVuSans-33" transform="translate(69.482422 -16.3125)scale(0.7)"/>
     </g>
    </g>
   </g>
   <g id="text_5">
    <g clip-path="url(#pe289ceb3b6)">
     <!-- $V_1$ -->
     <g transform="translate(15.2318 92.079219)scale(0.125 -0.125)">
      <defs>
       <path id="DejaVuSans-Oblique-56" d="M 1319 0 
L 500 4666 
L 1119 4666 
L 1797 653 
L 4063 4666 
L 4750 4666 
L 2053 0 
L 1319 0 
z
" transform="scale(0.015625)"/>
       <path id="DejaVuSans-31" d="M 794 531 
L 1825 531 
L 1825 4091 
L 703 3866 
L 703 4441 
L 1819 4666 
L 2450 4666 
L 2450 531 
L 3481 531 
L 3481 0 
L 794 0 
L 794 531 
z
" transform="scale(0.015625)"/>
      </defs>
      <use xlink:href="#DejaVuSans-Oblique-56" transform="translate(0 0.09375)"/>
      <use xlink:href="#DejaVuSans-31" transform="translate(68.408203 -16.3125)scale(0.7)"/>
     </g>
    </g>
   </g>
   <g id="text_6">
    <g clip-path="url(#pe289ceb3b6)">
     <!-- $V_2$ -->
     <g transform="translate(250.0518 92.079219)scale(0.125 -0.125)">
      <defs>
       <path id="DejaVuSans-32" d="M 1228 531 
L 3431 531 
L 3431 0 
L 469 0 
L 469 531 
Q 828 903 1448 1529 
Q 2069 2156 2228 2338 
Q 2531 2678 2651 2914 
Q 2772 3150 2772 3378 
Q 2772 3750 2511 3984 
Q 2250 4219 1831 4219 
Q 1534 4219 1204 4116 
Q 875 4013 500 3803 
L 500 4441 
Q 881 4594 1212 4672 
Q 1544 4750 1819 4750 
Q 2544 4750 2975 4387 
Q 3406 4025 3406 3419 
Q 3406 3131 3298 2873 
Q 3191 2616 2906 2266 
Q 2828 2175 2409 1742 
Q 1991 1309 1228 531 
z
" transform="scale(0.015625)"/>
      </defs>
      <use xlink:href="#DejaVuSans-Oblique-56" transform="translate(0 0.09375)"/>
      <use xlink:href="#DejaVuSans-32" transform="translate(68.408203 -16.3125)scale(0.7)"/>
     </g>
    </g>
   </g>
   <g id="text_7">
    <g clip-path="url(#pe289ceb3b6)">
     <!-- $R_1$ -->
     <g transform="translate(86.6793 29.420391)scale(0.125 -0.125)">
      <use xlink:href="#DejaVuSans-Oblique-52" transform="translate(0 0.09375)"/>
      <use xlink:href="#DejaVuSans-31" transform="translate(69.482422 -16.3125)scale(0.7)"/>
     </g>
    </g>
   </g>
   <g id="text_8">
    <g clip-path="url(#pe289ceb3b6)">
     <!-- $R_2$ -->
     <g transform="translate(178.4793 29.420391)scale(0.125 -0.125)">
      <use xlink:href="#DejaVuSans-Oblique-52" transform="translate(0 0.09375)"/>
      <use xlink:href="#DejaVuSans-32" transform="translate(69.482422 -16.3125)scale(0.7)"/>
     </g>
    </g>
   </g>
   <g id="text_9">
    <g clip-path="url(#pe289ceb3b6)">
     <!-- $I_1$ -->
     <g style="fill: #00cd6c" transform="translate(89.1793 89.019219)scale(0.125 -0.125)">
      <defs>
       <path id="DejaVuSans-Oblique-49" d="M 1081 4666 
L 1716 4666 
L 806 0 
L 172 0 
L 1081 4666 
z
" transform="scale(0.015625)"/>
      </defs>
      <use xlink:href="#DejaVuSans-Oblique-49" transform="translate(0 0.09375)"/>
      <use xlink:href="#DejaVuSans-31" transform="translate(29.492188 -16.3125)scale(0.7)"/>
     </g>
    </g>
   </g>
   <g id="text_10">
    <g clip-path="url(#pe289ceb3b6)">
     <!-- $I_2$ -->
     <g style="fill: #009ade" transform="translate(180.9793 89.019219)scale(0.125 -0.125)">
      <use xlink:href="#DejaVuSans-Oblique-49" transform="translate(0 0.09375)"/>
      <use xlink:href="#DejaVuSans-32" transform="translate(29.492188 -16.3125)scale(0.7)"/>
     </g>
    </g>
   </g>
   <g id="text_11">
    <g clip-path="url(#pe289ceb3b6)">
     <!-- $I_3$ -->
     <g style="fill: #af58ba" transform="translate(135.0793 180.819219)scale(0.125 -0.125)">
      <use xlink:href="#DejaVuSans-Oblique-49" transform="translate(0 0.09375)"/>
      <use xlink:href="#DejaVuSans-33" transform="translate(29.492188 -16.3125)scale(0.7)"/>
     </g>
    </g>
   </g>
   <g id="patch_10">
    <path d="M 139.8918 136.825 
C 140.500441 136.825 141.084236 136.583184 141.51461 136.15281 
C 141.944984 135.722436 142.1868 135.138641 142.1868 134.53 
C 142.1868 133.921359 141.944984 133.337564 141.51461 132.90719 
C 141.084236 132.476816 140.500441 132.235 139.8918 132.235 
C 139.283159 132.235 138.699364 132.476816 138.26899 132.90719 
C 137.838616 133.337564 137.5968 133.921359 137.5968 134.53 
C 137.5968 135.138641 137.838616 135.722436 138.26899 136.15281 
C 138.699364 136.583184 139.283159 136.825 139.8918 136.825 
z
" clip-path="url(#pe289ceb3b6)" style="stroke: #000000; stroke-width: 2; stroke-linejoin: miter"/>
   </g>
   <g id="patch_11">
    <path d="M 139.8918 45.025 
C 140.500441 45.025 141.084236 44.783184 141.51461 44.35281 
C 141.944984 43.922436 142.1868 43.338641 142.1868 42.73 
C 142.1868 42.121359 141.944984 41.537564 141.51461 41.10719 
C 141.084236 40.676816 140.500441 40.435 139.8918 40.435 
C 139.283159 40.435 138.699364 40.676816 138.26899 41.10719 
C 137.838616 41.537564 137.5968 42.121359 137.5968 42.73 
C 137.5968 43.338641 137.838616 43.922436 138.26899 44.35281 
C 138.699364 44.783184 139.283159 45.025 139.8918 45.025 
z
" clip-path="url(#pe289ceb3b6)" style="stroke: #000000; stroke-width: 2; stroke-linejoin: miter"/>
   </g>
  </g>
 </g>
 <defs>
  <clipPath id="pe289ceb3b6">
   <rect x="7.2" y="7.2" width="271.5036" height="229.84"/>
  </clipPath>
 </defs>
</svg>
