<?xml version="1.0" encoding="utf-8" standalone="no"?>
<!DOCTYPE svg PUBLIC "-//W3C//DTD SVG 1.1//EN"
  "http://www.w3.org/Graphics/SVG/1.1/DTD/svg11.dtd">
<svg xmlns:xlink="http://www.w3.org/1999/xlink" width="122.491256pt" height="97.56pt" viewBox="0 0 122.491256 97.56" xmlns="http://www.w3.org/2000/svg" version="1.1">
 <metadata>
  <rdf:RDF xmlns:dc="http://purl.org/dc/elements/1.1/" xmlns:cc="http://creativecommons.org/ns#" xmlns:rdf="http://www.w3.org/1999/02/22-rdf-syntax-ns#">
   <cc:Work>
    <dc:type rdf:resource="http://purl.org/dc/dcmitype/StillImage"/>
    <dc:format>image/svg+xml</dc:format>
    <dc:creator>
     <cc:Agent>
      <dc:title>Matplotlib v3.5.2, https://matplotlib.org/</dc:title>
     </cc:Agent>
    </dc:creator>
   </cc:Work>
  </rdf:RDF>
 </metadata>
 <defs>
  <style type="text/css">*{stroke-linejoin: round; stroke-linecap: butt}</style>
 </defs>
 <g id="figure_1">
  <g id="patch_1">
   <path d="M 0 97.56 
L 122.491256 97.56 
L 122.491256 0 
L 0 0 
L 0 97.56 
z
" style="fill: none"/>
  </g>
  <g id="axes_1">
   <g id="line2d_1">
    <path d="M 59.909348 90.36 
L 59.909348 7.2 
" clip-path="url(#p1b645cc1db)" style="fill: none; stroke: #000000; stroke-width: 0.5; stroke-linecap: square"/>
   </g>
   <g id="line2d_2">
    <path d="M 18.329348 48.78 
L 101.489348 48.78 
" clip-path="url(#p1b645cc1db)" style="fill: none; stroke: #000000; stroke-width: 0.5; stroke-linecap: square"/>
   </g>
   <g id="patch_2">
    <path d="M 93.718696 48.78 
L 89.609965 45.453709 
L 91.407925 45.515634 
L 74.817127 18.671159 
L 75.241568 18.408841 
L 91.832366 45.253315 
L 92.58105 43.617477 
z
" clip-path="url(#p1b645cc1db)"/>
   </g>
   <g id="patch_3">
    <path d="M 26.1 48.78 
L 29.426291 44.671269 
L 29.364366 46.469229 
L 74.898188 18.32778 
L 75.160507 18.75222 
L 29.626685 46.89367 
L 31.262523 47.642355 
z
" clip-path="url(#p1b645cc1db)"/>
   </g>
   <g id="line2d_3">
    <path d="M 86.920666 32.086087 
L 85.346753 29.539443 
L 82.800109 31.113356 
" clip-path="url(#p1b645cc1db)" style="fill: none; stroke: #000000; stroke-width: 0.5; stroke-linecap: square"/>
   </g>
   <g id="line2d_4">
    <path d="M -1 86.424047 
L 123.491256 9.484219 
" clip-path="url(#p1b645cc1db)" style="fill: none; stroke-dasharray: 1.85,0.8; stroke-dashoffset: 0; stroke: #000000; stroke-width: 0.5"/>
   </g>
   <g id="line2d_5">
    <path d="M 52.138587 36.206644 
L 54.685231 34.632732 
L 53.111318 32.086087 
" clip-path="url(#p1b645cc1db)" style="fill: none; stroke: #000000; stroke-width: 0.5; stroke-linecap: square"/>
   </g>
   <g id="line2d_6">
    <path d="M 29.143616 -1 
L 90.67508 98.56 
" clip-path="url(#p1b645cc1db)" style="fill: none; stroke-dasharray: 1.85,0.8; stroke-dashoffset: 0; stroke: #000000; stroke-width: 0.5"/>
   </g>
   <g id="text_1">
    <!-- $x$ -->
    <g transform="translate(74.273348 15.516)scale(0.08 -0.08)">
     <defs>
      <path id="CMMI12-78" d="M 3034 2624 
C 2829 2585 2752 2431 2752 2310 
C 2752 2156 2874 2105 2963 2105 
C 3155 2105 3290 2271 3290 2444 
C 3290 2694 2982 2816 2714 2816 
C 2323 2816 2106 2451 2048 2329 
C 1901 2790 1504 2816 1389 2816 
C 736 2816 390 1993 390 1849 
C 390 1823 416 1790 461 1790 
C 512 1790 525 1829 538 1855 
C 755 2572 1184 2687 1370 2687 
C 1658 2687 1715 2438 1715 2284 
C 1715 2143 1677 1993 1600 1678 
L 1382 778 
C 1286 390 1101 64 762 64 
C 730 64 570 64 435 126 
C 666 166 717 358 717 435 
C 717 563 621 640 499 640 
C 346 640 179 505 179 300 
C 179 57 480 -64 755 -64 
C 1062 -64 1280 153 1414 415 
C 1517 64 1837 -64 2074 -64 
C 2726 -64 3072 751 3072 896 
C 3072 929 3046 955 3008 955 
C 2950 955 2944 922 2925 870 
C 2752 300 2381 64 2093 64 
C 1869 64 1747 204 1747 467 
C 1747 607 1773 712 1875 1146 
L 2099 2039 
C 2195 2425 2413 2687 2707 2687 
C 2720 2687 2899 2687 3034 2624 
z
" transform="scale(0.015625)"/>
     </defs>
     <use xlink:href="#CMMI12-78" transform="scale(0.996264)"/>
    </g>
   </g>
   <g id="text_2">
    <!-- $\|x\| e_1$ -->
    <g transform="translate(94.474696 56.34)scale(0.08 -0.08)">
     <defs>
      <path id="CMSY10-6b" d="M 1101 4582 
C 1101 4684 1101 4800 973 4800 
C 845 4800 845 4659 845 4563 
L 845 -1364 
C 845 -1466 845 -1600 973 -1600 
C 1101 -1600 1101 -1485 1101 -1383 
L 1101 4582 
z
M 2349 4563 
C 2349 4665 2349 4800 2221 4800 
C 2093 4800 2093 4684 2093 4582 
L 2093 -1383 
C 2093 -1485 2093 -1600 2221 -1600 
C 2349 -1600 2349 -1460 2349 -1364 
L 2349 4563 
z
" transform="scale(0.015625)"/>
      <path id="CMMI12-65" d="M 1146 1472 
C 1318 1472 1754 1484 2061 1600 
C 2547 1786 2592 2160 2592 2275 
C 2592 2559 2349 2816 1926 2816 
C 1254 2816 288 2205 288 1066 
C 288 400 672 -64 1254 -64 
C 2125 -64 2675 609 2675 691 
C 2675 729 2637 761 2611 761 
C 2592 761 2586 755 2528 698 
C 2118 159 1510 64 1267 64 
C 902 64 710 349 710 818 
C 710 907 710 1066 806 1472 
L 1146 1472 
z
M 838 1600 
C 1114 2591 1722 2687 1926 2687 
C 2208 2687 2400 2520 2400 2275 
C 2400 1600 1376 1600 1107 1600 
L 838 1600 
z
" transform="scale(0.015625)"/>
      <path id="CMR17-31" d="M 1702 4083 
C 1702 4217 1696 4224 1606 4224 
C 1357 3927 979 3833 621 3820 
C 602 3820 570 3820 563 3808 
C 557 3795 557 3782 557 3648 
C 755 3648 1088 3686 1344 3839 
L 1344 467 
C 1344 243 1331 166 781 166 
L 589 166 
L 589 0 
C 896 6 1216 12 1523 12 
C 1830 12 2150 6 2458 0 
L 2458 166 
L 2266 166 
C 1715 166 1702 236 1702 467 
L 1702 4083 
z
" transform="scale(0.015625)"/>
     </defs>
     <use xlink:href="#CMSY10-6b" transform="scale(0.996264)"/>
     <use xlink:href="#CMMI12-78" transform="translate(49.813383 0)scale(0.996264)"/>
     <use xlink:href="#CMSY10-6b" transform="translate(105.247442 0)scale(0.996264)"/>
     <use xlink:href="#CMMI12-65" transform="translate(155.060825 0)scale(0.996264)"/>
     <use xlink:href="#CMR17-31" transform="translate(200.272826 -14.943915)scale(0.697382)"/>
    </g>
   </g>
   <g id="text_3">
    <!-- $v$ -->
    <g transform="translate(94.096696 41.22)scale(0.08 -0.08)">
     <defs>
      <path id="CMMI12-76" d="M 2925 2388 
C 2925 2790 2720 2816 2669 2816 
C 2515 2816 2374 2662 2374 2534 
C 2374 2458 2419 2413 2445 2388 
C 2509 2330 2675 2158 2675 1826 
C 2675 1558 2291 64 1523 64 
C 1133 64 1056 389 1056 625 
C 1056 945 1203 1392 1376 1851 
C 1478 2113 1504 2177 1504 2305 
C 1504 2573 1312 2816 998 2816 
C 410 2816 173 1890 173 1838 
C 173 1813 198 1781 243 1781 
C 301 1781 307 1807 333 1896 
C 486 2445 736 2687 979 2687 
C 1037 2687 1146 2687 1146 2477 
C 1146 2311 1075 2126 979 1883 
C 672 1066 672 868 672 715 
C 672 574 691 313 890 134 
C 1120 -64 1440 -64 1498 -64 
C 2560 -64 2925 2024 2925 2388 
z
" transform="scale(0.015625)"/>
     </defs>
     <use xlink:href="#CMMI12-76" transform="scale(0.996264)"/>
    </g>
   </g>
   <g id="text_4">
    <!-- $H$ -->
    <g transform="translate(38.726587 68.263582)scale(0.08 -0.08)">
     <defs>
      <path id="CMMI12-48" d="M 4787 3886 
C 4845 4102 4858 4166 5312 4166 
C 5427 4166 5491 4166 5491 4281 
C 5491 4352 5434 4352 5395 4352 
C 5280 4352 5146 4339 5024 4339 
L 4269 4339 
C 4147 4339 4013 4352 3891 4352 
C 3846 4352 3770 4352 3770 4230 
C 3770 4166 3814 4166 3936 4166 
C 4320 4166 4320 4115 4320 4045 
C 4320 4032 4320 3994 4294 3899 
L 3904 2361 
L 1971 2361 
L 2355 3886 
C 2413 4102 2426 4166 2880 4166 
C 2995 4166 3059 4166 3059 4281 
C 3059 4352 3002 4352 2963 4352 
C 2848 4352 2714 4339 2592 4339 
L 1837 4339 
C 1715 4339 1581 4352 1459 4352 
C 1414 4352 1338 4352 1338 4230 
C 1338 4166 1382 4166 1504 4166 
C 1888 4166 1888 4115 1888 4045 
C 1888 4032 1888 3994 1862 3899 
L 998 472 
C 941 249 928 185 486 185 
C 339 185 294 185 294 64 
C 294 0 365 0 384 0 
C 499 0 634 12 755 12 
L 1510 12 
C 1632 12 1766 0 1888 0 
C 1939 0 2010 0 2010 121 
C 2010 185 1952 185 1856 185 
C 1466 185 1466 236 1466 300 
C 1466 306 1466 351 1478 402 
L 1920 2176 
L 3859 2176 
C 3750 1755 3424 421 3411 383 
C 3341 191 3238 191 2861 185 
C 2784 185 2726 185 2726 64 
C 2726 0 2797 0 2816 0 
C 2931 0 3066 12 3187 12 
L 3942 12 
C 4064 12 4198 0 4320 0 
C 4371 0 4442 0 4442 121 
C 4442 185 4384 185 4288 185 
C 3898 185 3898 236 3898 300 
C 3898 306 3898 351 3910 402 
L 4787 3886 
z
" transform="scale(0.015625)"/>
     </defs>
     <use xlink:href="#CMMI12-48" transform="scale(0.996264)"/>
    </g>
   </g>
   <g id="text_5">
    <!-- $-\|x\| e_1$ -->
    <g transform="translate(7.2 56.34)scale(0.08 -0.08)">
     <defs>
      <path id="CMSY10-0" d="M 4218 1472 
C 4326 1472 4442 1472 4442 1600 
C 4442 1728 4326 1728 4218 1728 
L 755 1728 
C 646 1728 531 1728 531 1600 
C 531 1472 646 1472 755 1472 
L 4218 1472 
z
" transform="scale(0.015625)"/>
     </defs>
     <use xlink:href="#CMSY10-0" transform="scale(0.996264)"/>
     <use xlink:href="#CMSY10-6b" transform="translate(77.487468 0)scale(0.996264)"/>
     <use xlink:href="#CMMI12-78" transform="translate(127.300851 0)scale(0.996264)"/>
     <use xlink:href="#CMSY10-6b" transform="translate(182.73491 0)scale(0.996264)"/>
     <use xlink:href="#CMMI12-65" transform="translate(232.548293 0)scale(0.996264)"/>
     <use xlink:href="#CMR17-31" transform="translate(277.760294 -14.943915)scale(0.697382)"/>
    </g>
   </g>
   <g id="text_6">
    <!-- $v^-$ -->
    <g transform="translate(25.344 43.11)scale(0.08 -0.08)">
     <use xlink:href="#CMMI12-76" transform="scale(0.996264)"/>
     <use xlink:href="#CMSY10-0" transform="translate(50.735173 36.153639)scale(0.697382)"/>
    </g>
   </g>
   <g id="text_7">
    <!-- $H^-$ -->
    <g transform="translate(77.502929 75.63276)scale(0.08 -0.08)">
     <use xlink:href="#CMMI12-48" transform="scale(0.996264)"/>
     <use xlink:href="#CMSY10-0" transform="translate(88.521773 36.153639)scale(0.697382)"/>
    </g>
   </g>
   <g id="PathCollection_1">
    <path d="M 75.029348 19.658034 
C 75.325854 19.658034 75.610256 19.540231 75.819917 19.330569 
C 76.029579 19.120908 76.147382 18.836506 76.147382 18.54 
C 76.147382 18.243494 76.029579 17.959092 75.819917 17.749431 
C 75.610256 17.539769 75.325854 17.421966 75.029348 17.421966 
C 74.732842 17.421966 74.44844 17.539769 74.238778 17.749431 
C 74.029117 17.959092 73.911314 18.243494 73.911314 18.54 
C 73.911314 18.836506 74.029117 19.120908 74.238778 19.330569 
C 74.44844 19.540231 74.732842 19.658034 75.029348 19.658034 
z
" clip-path="url(#p1b645cc1db)" style="fill: #ff1f5b"/>
   </g>
   <g id="PathCollection_2">
    <path d="M 93.718696 49.898034 
C 94.015202 49.898034 94.299604 49.780231 94.509265 49.570569 
C 94.718927 49.360908 94.83673 49.076506 94.83673 48.78 
C 94.83673 48.483494 94.718927 48.199092 94.509265 47.989431 
C 94.299604 47.779769 94.015202 47.661966 93.718696 47.661966 
C 93.42219 47.661966 93.137788 47.779769 92.928126 47.989431 
C 92.718465 48.199092 92.600662 48.483494 92.600662 48.78 
C 92.600662 49.076506 92.718465 49.360908 92.928126 49.570569 
C 93.137788 49.780231 93.42219 49.898034 93.718696 49.898034 
z
" clip-path="url(#p1b645cc1db)" style="fill: #00cd6c"/>
   </g>
   <g id="PathCollection_3">
    <path d="M 26.1 49.898034 
C 26.396506 49.898034 26.680908 49.780231 26.890569 49.570569 
C 27.100231 49.360908 27.218034 49.076506 27.218034 48.78 
C 27.218034 48.483494 27.100231 48.199092 26.890569 47.989431 
C 26.680908 47.779769 26.396506 47.661966 26.1 47.661966 
C 25.803494 47.661966 25.519092 47.779769 25.309431 47.989431 
C 25.099769 48.199092 24.981966 48.483494 24.981966 48.78 
C 24.981966 49.076506 25.099769 49.360908 25.309431 49.570569 
C 25.519092 49.780231 25.803494 49.898034 26.1 49.898034 
z
" clip-path="url(#p1b645cc1db)" style="fill: #009ade"/>
   </g>
  </g>
 </g>
 <defs>
  <clipPath id="p1b645cc1db">
   <rect x="18.329348" y="7.2" width="83.16" height="83.16"/>
  </clipPath>
 </defs>
</svg>
