<?xml version="1.0" encoding="utf-8" standalone="no"?>
<!DOCTYPE svg PUBLIC "-//W3C//DTD SVG 1.1//EN"
  "http://www.w3.org/Graphics/SVG/1.1/DTD/svg11.dtd">
<svg xmlns:xlink="http://www.w3.org/1999/xlink" width="190.8pt" height="190.8pt" viewBox="0 0 190.8 190.8" xmlns="http://www.w3.org/2000/svg" version="1.1">
 <metadata>
  <rdf:RDF xmlns:dc="http://purl.org/dc/elements/1.1/" xmlns:cc="http://creativecommons.org/ns#" xmlns:rdf="http://www.w3.org/1999/02/22-rdf-syntax-ns#">
   <cc:Work>
    <dc:type rdf:resource="http://purl.org/dc/dcmitype/StillImage"/>
    <dc:format>image/svg+xml</dc:format>
    <dc:creator>
     <cc:Agent>
      <dc:title>Matplotlib v3.5.2, https://matplotlib.org/</dc:title>
     </cc:Agent>
    </dc:creator>
   </cc:Work>
  </rdf:RDF>
 </metadata>
 <defs>
  <style type="text/css">*{stroke-linejoin: round; stroke-linecap: butt}</style>
 </defs>
 <g id="figure_1">
  <g id="patch_1">
   <path d="M 0 190.8 
L 190.8 190.8 
L 190.8 0 
L 0 0 
L 0 190.8 
z
" style="fill: none"/>
  </g>
  <g id="patch_2">
   <path style="fill: none"/>
  </g>
  <g id="axes_1">
   <g id="Poly3DCollection_1">
    <path d="M 41.940076 53.355529 
L 38.51687 53.315931 
L 38.51687 56.940935 
L 41.940076 56.980533 
z
" clip-path="url(#p842560dc8d)" style="fill: #e61c52"/>
    <path d="M 38.51687 53.315931 
L 35.18704 53.433644 
L 35.18704 57.058648 
L 38.51687 56.940935 
z
" clip-path="url(#p842560dc8d)" style="fill: #d1194b"/>
    <path d="M 41.940076 56.980533 
L 38.51687 56.940935 
L 38.620801 60.522418 
L 41.631118 60.557239 
z
" clip-path="url(#p842560dc8d)" style="fill: #ec1d54"/>
    <path d="M 41.631118 50.119455 
L 38.620801 50.084633 
L 38.51687 53.315931 
L 41.940076 53.355529 
z
" clip-path="url(#p842560dc8d)" style="fill: #d81a4d"/>
    <path d="M 45.085701 53.548146 
L 41.940076 53.355529 
L 41.940076 56.980533 
L 45.085701 57.17315 
z
" clip-path="url(#p842560dc8d)" style="fill: #f41e57"/>
    <path d="M 38.51687 56.940935 
L 35.18704 57.058648 
L 35.692598 60.625933 
L 38.620801 60.522418 
z
" clip-path="url(#p842560dc8d)" style="fill: #d81a4d"/>
    <path d="M 38.620801 50.084633 
L 35.692598 50.188148 
L 35.18704 53.433644 
L 38.51687 53.315931 
z
" clip-path="url(#p842560dc8d)" style="fill: #c41846"/>
    <path d="M 45.085701 57.17315 
L 41.940076 56.980533 
L 41.631118 60.557239 
L 44.397334 60.726624 
z
" clip-path="url(#p842560dc8d)" style="fill: #fa1e59"/>
    <path d="M 44.397334 50.28884 
L 41.631118 50.119455 
L 41.940076 53.355529 
L 45.085701 53.548146 
z
" clip-path="url(#p842560dc8d)" style="fill: #e51c52"/>
    <path d="M 35.18704 53.433644 
L 32.311425 53.695911 
L 32.311425 57.320916 
L 35.18704 57.058648 
z
" clip-path="url(#p842560dc8d)" style="fill: #b71641"/>
    <path d="M 35.18704 57.058648 
L 32.311425 57.320916 
L 33.163824 60.856567 
L 35.692598 60.625933 
z
" clip-path="url(#p842560dc8d)" style="fill: #c01745"/>
    <path d="M 35.692598 50.188148 
L 33.163824 50.418782 
L 32.311425 53.695911 
L 35.18704 53.433644 
z
" clip-path="url(#p842560dc8d)" style="fill: #ac153d"/>
    <path d="M 41.631118 60.557239 
L 38.620801 60.522418 
L 38.816127 63.628398 
L 41.050466 63.654244 
z
" clip-path="url(#p842560dc8d)" style="fill: #ea1c54"/>
    <path d="M 41.050466 47.66263 
L 38.816127 47.636785 
L 38.620801 50.084633 
L 41.631118 50.119455 
z
" clip-path="url(#p842560dc8d)" style="fill: #c41846"/>
    <path d="M 38.620801 60.522418 
L 35.692598 60.625933 
L 36.642735 63.70523 
L 38.816127 63.628398 
z
" clip-path="url(#p842560dc8d)" style="fill: #da1a4e"/>
    <path d="M 38.816127 47.636785 
L 36.642735 47.713616 
L 35.692598 50.188148 
L 38.620801 50.084633 
z
" clip-path="url(#p842560dc8d)" style="fill: #b41640"/>
    <path d="M 47.612867 53.872909 
L 45.085701 53.548146 
L 45.085701 57.17315 
L 47.612867 57.497914 
z
" clip-path="url(#p842560dc8d)" style="fill: #fa1e59"/>
    <path d="M 44.397334 60.726624 
L 41.631118 60.557239 
L 41.050466 63.654244 
L 43.103627 63.779965 
z
" clip-path="url(#p842560dc8d)" style="fill: #f51e57"/>
    <path d="M 43.103627 47.788352 
L 41.050466 47.66263 
L 41.631118 50.119455 
L 44.397334 50.28884 
z
" clip-path="url(#p842560dc8d)" style="fill: #cf194a"/>
    <path d="M 47.612867 57.497914 
L 45.085701 57.17315 
L 44.397334 60.726624 
L 46.619686 61.012216 
z
" clip-path="url(#p842560dc8d)" style="fill: #ff1f5b"/>
    <path d="M 46.619686 50.574432 
L 44.397334 50.28884 
L 45.085701 53.548146 
L 47.612867 53.872909 
z
" clip-path="url(#p842560dc8d)" style="fill: #eb1d54"/>
    <path d="M 35.692598 60.625933 
L 33.163824 60.856567 
L 34.765811 63.876412 
L 36.642735 63.70523 
z
" clip-path="url(#p842560dc8d)" style="fill: #c61847"/>
    <path d="M 36.642735 47.713616 
L 34.765811 47.884799 
L 33.163824 50.418782 
L 35.692598 50.188148 
z
" clip-path="url(#p842560dc8d)" style="fill: #a01339"/>
    <path d="M 32.311425 53.695911 
L 30.201642 54.074312 
L 30.201642 57.699317 
L 32.311425 57.320916 
z
" clip-path="url(#p842560dc8d)" style="fill: #9b1337"/>
    <path d="M 32.311425 57.320916 
L 30.201642 57.699317 
L 31.308512 61.189327 
L 33.163824 60.856567 
z
" clip-path="url(#p842560dc8d)" style="fill: #a6143b"/>
    <path d="M 33.163824 50.418782 
L 31.308512 50.751543 
L 30.201642 54.074312 
L 32.311425 53.695911 
z
" clip-path="url(#p842560dc8d)" style="fill: #921234"/>
    <path d="M 46.619686 61.012216 
L 44.397334 60.726624 
L 43.103627 63.779965 
L 44.753118 63.99194 
z
" clip-path="url(#p842560dc8d)" style="fill: #f91e59"/>
    <path d="M 44.753118 48.000327 
L 43.103627 47.788352 
L 44.397334 50.28884 
L 46.619686 50.574432 
z
" clip-path="url(#p842560dc8d)" style="fill: #d41a4b"/>
    <path d="M 41.050466 63.654244 
L 38.816127 63.628398 
L 39.07929 65.88425 
L 40.268157 65.898002 
z
" clip-path="url(#p842560dc8d)" style="fill: #e01b50"/>
    <path d="M 38.816127 63.628398 
L 36.642735 63.70523 
L 37.922852 65.925131 
L 39.07929 65.88425 
z
" clip-path="url(#p842560dc8d)" style="fill: #d51a4c"/>
    <path d="M 40.268157 46.281384 
L 39.07929 46.267632 
L 38.816127 47.636785 
L 41.050466 47.66263 
z
" clip-path="url(#p842560dc8d)" style="fill: #ad153e"/>
    <path d="M 39.07929 46.267632 
L 37.922852 46.308513 
L 36.642735 47.713616 
L 38.816127 47.636785 
z
" clip-path="url(#p842560dc8d)" style="fill: #a2143a"/>
    <path d="M 33.163824 60.856567 
L 31.308512 61.189327 
L 33.388748 64.123396 
L 34.765811 63.876412 
z
" clip-path="url(#p842560dc8d)" style="fill: #b1153f"/>
    <path d="M 49.247717 54.294626 
L 47.612867 53.872909 
L 47.612867 57.497914 
L 49.247717 57.919631 
z
" clip-path="url(#p842560dc8d)" style="fill: #f61e58"/>
    <path d="M 43.103627 63.779965 
L 41.050466 63.654244 
L 40.268157 65.898002 
L 41.360621 65.964897 
z
" clip-path="url(#p842560dc8d)" style="fill: #e71c52"/>
    <path d="M 34.765811 47.884799 
L 33.388748 48.131783 
L 31.308512 50.751543 
L 33.163824 50.418782 
z
" clip-path="url(#p842560dc8d)" style="fill: #8b1132"/>
    <path d="M 41.360621 46.348279 
L 40.268157 46.281384 
L 41.050466 47.66263 
L 43.103627 47.788352 
z
" clip-path="url(#p842560dc8d)" style="fill: #b41640"/>
    <path d="M 49.247717 57.919631 
L 47.612867 57.497914 
L 46.619686 61.012216 
L 48.057349 61.383068 
z
" clip-path="url(#p842560dc8d)" style="fill: #fc1f5a"/>
    <path d="M 48.057349 50.945283 
L 46.619686 50.574432 
L 47.612867 53.872909 
L 49.247717 54.294626 
z
" clip-path="url(#p842560dc8d)" style="fill: #e81c53"/>
    <path d="M 36.642735 63.70523 
L 34.765811 63.876412 
L 36.924161 66.016215 
L 37.922852 65.925131 
z
" clip-path="url(#p842560dc8d)" style="fill: #c81847"/>
    <path d="M 37.922852 46.308513 
L 36.924161 46.399598 
L 34.765811 47.884799 
L 36.642735 47.713616 
z
" clip-path="url(#p842560dc8d)" style="fill: #951235"/>
    <path d="M 44.753118 63.99194 
L 43.103627 63.779965 
L 41.360621 65.964897 
L 42.238296 66.077686 
z
" clip-path="url(#p842560dc8d)" style="fill: #ea1c53"/>
    <path d="M 48.057349 61.383068 
L 46.619686 61.012216 
L 44.753118 63.99194 
L 45.82019 64.267196 
z
" clip-path="url(#p842560dc8d)" style="fill: #f71e58"/>
    <path d="M 42.238296 46.461068 
L 41.360621 46.348279 
L 43.103627 47.788352 
L 44.753118 48.000327 
z
" clip-path="url(#p842560dc8d)" style="fill: #b71641"/>
    <path d="M 45.82019 48.275583 
L 44.753118 48.000327 
L 46.619686 50.574432 
L 48.057349 50.945283 
z
" clip-path="url(#p842560dc8d)" style="fill: #d1194b"/>
    <path d="M 30.201642 54.074312 
L 29.08632 54.527841 
L 29.08632 58.152846 
L 30.201642 57.699317 
z
" clip-path="url(#p842560dc8d)" style="fill: #81102e"/>
    <path d="M 34.765811 63.876412 
L 33.388748 64.123396 
L 36.191442 66.147633 
L 36.924161 66.016215 
z
" clip-path="url(#p842560dc8d)" style="fill: #ba1742"/>
    <path d="M 30.201642 57.699317 
L 29.08632 58.152846 
L 30.327714 61.588154 
L 31.308512 61.189327 
z
" clip-path="url(#p842560dc8d)" style="fill: #8d1132"/>
    <path d="M 31.308512 50.751543 
L 30.327714 51.15037 
L 29.08632 54.527841 
L 30.201642 54.074312 
z
" clip-path="url(#p842560dc8d)" style="fill: #790f2b"/>
    <path d="M 36.924161 46.399598 
L 36.191442 46.531015 
L 33.388748 48.131783 
L 34.765811 47.884799 
z
" clip-path="url(#p842560dc8d)" style="fill: #871030"/>
    <path d="M 31.308512 61.189327 
L 30.327714 61.588154 
L 32.660773 64.419416 
L 33.388748 64.123396 
z
" clip-path="url(#p842560dc8d)" style="fill: #9c1338"/>
    <path d="M 45.82019 64.267196 
L 44.753118 63.99194 
L 42.238296 66.077686 
L 42.806074 66.224147 
z
" clip-path="url(#p842560dc8d)" style="fill: #e81c53"/>
    <path d="M 33.388748 48.131783 
L 32.660773 48.427803 
L 30.327714 51.15037 
L 31.308512 50.751543 
z
" clip-path="url(#p842560dc8d)" style="fill: #760e2a"/>
    <path d="M 42.806074 46.607529 
L 42.238296 46.461068 
L 44.753118 48.000327 
L 45.82019 48.275583 
z
" clip-path="url(#p842560dc8d)" style="fill: #b51641"/>
    <path d="M 40.268157 65.898002 
L 39.07929 65.88425 
L 39.378547 67.017883 
L 39.378547 67.017883 
z
" clip-path="url(#p842560dc8d)" style="fill: #ce194a"/>
    <path d="M 39.07929 65.88425 
L 37.922852 65.925131 
L 39.378547 67.017883 
L 39.378547 67.017883 
z
" clip-path="url(#p842560dc8d)" style="fill: #cb1948"/>
    <path d="M 33.388748 64.123396 
L 32.660773 64.419416 
L 35.804094 66.305142 
L 36.191442 66.147633 
z
" clip-path="url(#p842560dc8d)" style="fill: #ad153e"/>
    <path d="M 41.360621 65.964897 
L 40.268157 65.898002 
L 39.378547 67.017883 
L 39.378547 67.017883 
z
" clip-path="url(#p842560dc8d)" style="fill: #d1194b"/>
    <path d="M 49.813089 54.767597 
L 49.247717 54.294626 
L 49.247717 57.919631 
L 49.813089 58.392601 
z
" clip-path="url(#p842560dc8d)" style="fill: #ea1c54"/>
    <path d="M 39.378547 46.142315 
L 39.378547 46.142315 
L 39.07929 46.267632 
L 40.268157 46.281384 
z
" clip-path="url(#p842560dc8d)" style="fill: #a6143b"/>
    <path d="M 39.378547 46.142315 
L 39.378547 46.142315 
L 37.922852 46.308513 
L 39.07929 46.267632 
z
" clip-path="url(#p842560dc8d)" style="fill: #a6143b"/>
    <path d="M 49.813089 58.392601 
L 49.247717 57.919631 
L 48.057349 61.383068 
L 48.554529 61.798991 
z
" clip-path="url(#p842560dc8d)" style="fill: #f01d56"/>
    <path d="M 36.191442 46.531015 
L 35.804094 46.688524 
L 32.660773 48.427803 
L 33.388748 48.131783 
z
" clip-path="url(#p842560dc8d)" style="fill: #790f2b"/>
    <path d="M 37.922852 65.925131 
L 36.924161 66.016215 
L 39.378547 67.017883 
L 39.378547 67.017883 
z
" clip-path="url(#p842560dc8d)" style="fill: #c61847"/>
    <path d="M 48.554529 51.361207 
L 48.057349 50.945283 
L 49.247717 54.294626 
L 49.813089 54.767597 
z
" clip-path="url(#p842560dc8d)" style="fill: #dc1b4f"/>
    <path d="M 39.378547 46.142315 
L 39.378547 46.142315 
L 40.268157 46.281384 
L 41.360621 46.348279 
z
" clip-path="url(#p842560dc8d)" style="fill: #a6143b"/>
    <path d="M 39.378547 46.142315 
L 39.378547 46.142315 
L 36.924161 46.399598 
L 37.922852 46.308513 
z
" clip-path="url(#p842560dc8d)" style="fill: #a6143b"/>
    <path d="M 42.238296 66.077686 
L 41.360621 65.964897 
L 39.378547 67.017883 
L 39.378547 67.017883 
z
" clip-path="url(#p842560dc8d)" style="fill: #d21a4b"/>
    <path d="M 48.554529 61.798991 
L 48.057349 61.383068 
L 45.82019 64.267196 
L 46.189211 64.575906 
z
" clip-path="url(#p842560dc8d)" style="fill: #ed1d55"/>
    <path d="M 46.189211 48.584292 
L 45.82019 48.275583 
L 48.057349 50.945283 
L 48.554529 51.361207 
z
" clip-path="url(#p842560dc8d)" style="fill: #c81847"/>
    <path d="M 39.378547 46.142315 
L 39.378547 46.142315 
L 41.360621 46.348279 
L 42.238296 46.461068 
z
" clip-path="url(#p842560dc8d)" style="fill: #a6143b"/>
    <path d="M 36.924161 66.016215 
L 36.191442 66.147633 
L 39.378547 67.017883 
L 39.378547 67.017883 
z
" clip-path="url(#p842560dc8d)" style="fill: #c11745"/>
    <path d="M 39.378547 46.142315 
L 39.378547 46.142315 
L 36.191442 46.531015 
L 36.924161 46.399598 
z
" clip-path="url(#p842560dc8d)" style="fill: #a6143b"/>
    <path d="M 42.806074 66.224147 
L 42.238296 66.077686 
L 39.378547 67.017883 
L 39.378547 67.017883 
z
" clip-path="url(#p842560dc8d)" style="fill: #d1194b"/>
    <path d="M 46.189211 64.575906 
L 45.82019 64.267196 
L 42.806074 66.224147 
L 43.002426 66.388408 
z
" clip-path="url(#p842560dc8d)" style="fill: #e21b51"/>
    <path d="M 43.002426 46.77179 
L 42.806074 46.607529 
L 45.82019 48.275583 
L 46.189211 48.584292 
z
" clip-path="url(#p842560dc8d)" style="fill: #af153e"/>
    <path d="M 39.378547 46.142315 
L 39.378547 46.142315 
L 42.238296 46.461068 
L 42.806074 46.607529 
z
" clip-path="url(#p842560dc8d)" style="fill: #a6143b"/>
    <path d="M 36.191442 66.147633 
L 35.804094 66.305142 
L 39.378547 67.017883 
L 39.378547 67.017883 
z
" clip-path="url(#p842560dc8d)" style="fill: #bd1743"/>
    <path d="M 39.378547 46.142315 
L 39.378547 46.142315 
L 35.804094 46.688524 
L 36.191442 46.531015 
z
" clip-path="url(#p842560dc8d)" style="fill: #a6143b"/>
    <path d="M 43.002426 66.388408 
L 42.806074 66.224147 
L 39.378547 67.017883 
L 39.378547 67.017883 
z
" clip-path="url(#p842560dc8d)" style="fill: #cf194a"/>
    <path d="M 39.378547 46.142315 
L 39.378547 46.142315 
L 42.806074 46.607529 
L 43.002426 46.77179 
z
" clip-path="url(#p842560dc8d)" style="fill: #a6143b"/>
    <path d="M 35.804094 66.305142 
L 35.804094 66.471674 
L 39.378547 67.017883 
L 39.378547 67.017883 
z
" clip-path="url(#p842560dc8d)" style="fill: #b91642"/>
    <path d="M 32.660773 64.419416 
L 32.660773 64.732395 
L 35.804094 66.471674 
L 35.804094 66.305142 
z
" clip-path="url(#p842560dc8d)" style="fill: #a1143a"/>
    <path d="M 30.327714 61.588154 
L 30.327714 62.009828 
L 32.660773 64.732395 
L 32.660773 64.419416 
z
" clip-path="url(#p842560dc8d)" style="fill: #8b1132"/>
    <path d="M 29.08632 58.152846 
L 29.08632 58.632356 
L 30.327714 62.009828 
L 30.327714 61.588154 
z
" clip-path="url(#p842560dc8d)" style="fill: #780f2b"/>
    <path d="M 29.08632 54.527841 
L 29.08632 55.007352 
L 29.08632 58.632356 
L 29.08632 58.152846 
z
" clip-path="url(#p842560dc8d)" style="fill: #6a0d26"/>
    <path d="M 30.327714 51.15037 
L 30.327714 51.572044 
L 29.08632 55.007352 
L 29.08632 54.527841 
z
" clip-path="url(#p842560dc8d)" style="fill: #640c24"/>
    <path d="M 32.660773 48.427803 
L 32.660773 48.740781 
L 30.327714 51.572044 
L 30.327714 51.15037 
z
" clip-path="url(#p842560dc8d)" style="fill: #650c24"/>
    <path d="M 35.804094 46.688524 
L 35.804094 46.855056 
L 32.660773 48.740781 
L 32.660773 48.427803 
z
" clip-path="url(#p842560dc8d)" style="fill: #6e0d27"/>
    <path d="M 39.378547 46.142315 
L 39.378547 46.142315 
L 35.804094 46.855056 
L 35.804094 46.688524 
z
" clip-path="url(#p842560dc8d)" style="fill: #a6143b"/>
    <path d="M 42.806074 66.552669 
L 43.002426 66.388408 
L 39.378547 67.017883 
L 39.378547 67.017883 
z
" clip-path="url(#p842560dc8d)" style="fill: #cc1949"/>
    <path d="M 39.378547 46.142315 
L 39.378547 46.142315 
L 43.002426 46.77179 
L 42.806074 46.936051 
z
" clip-path="url(#p842560dc8d)" style="fill: #a6143b"/>
    <path d="M 35.804094 66.471674 
L 36.191442 66.629183 
L 39.378547 67.017883 
L 39.378547 67.017883 
z
" clip-path="url(#p842560dc8d)" style="fill: #b61641"/>
    <path d="M 39.378547 46.142315 
L 39.378547 46.142315 
L 36.191442 47.012565 
L 35.804094 46.855056 
z
" clip-path="url(#p842560dc8d)" style="fill: #a6143b"/>
    <path d="M 42.238296 66.699129 
L 42.806074 66.552669 
L 39.378547 67.017883 
L 39.378547 67.017883 
z
" clip-path="url(#p842560dc8d)" style="fill: #c71847"/>
    <path d="M 45.82019 64.884615 
L 46.189211 64.575906 
L 43.002426 66.388408 
L 42.806074 66.552669 
z
" clip-path="url(#p842560dc8d)" style="fill: #d81a4d"/>
    <path d="M 42.806074 46.936051 
L 43.002426 46.77179 
L 46.189211 48.584292 
L 45.82019 48.893002 
z
" clip-path="url(#p842560dc8d)" style="fill: #a5143b"/>
    <path d="M 39.378547 46.142315 
L 39.378547 46.142315 
L 42.806074 46.936051 
L 42.238296 47.082512 
z
" clip-path="url(#p842560dc8d)" style="fill: #a6143b"/>
    <path d="M 36.191442 66.629183 
L 36.924161 66.7606 
L 39.378547 67.017883 
L 39.378547 67.017883 
z
" clip-path="url(#p842560dc8d)" style="fill: #b41640"/>
    <path d="M 39.378547 46.142315 
L 39.378547 46.142315 
L 36.924161 47.143983 
L 36.191442 47.012565 
z
" clip-path="url(#p842560dc8d)" style="fill: #a6143b"/>
    <path d="M 41.360621 66.811919 
L 42.238296 66.699129 
L 39.378547 67.017883 
L 39.378547 67.017883 
z
" clip-path="url(#p842560dc8d)" style="fill: #c21845"/>
    <path d="M 48.057349 62.214914 
L 48.554529 61.798991 
L 46.189211 64.575906 
L 45.82019 64.884615 
z
" clip-path="url(#p842560dc8d)" style="fill: #de1b4f"/>
    <path d="M 45.82019 48.893002 
L 46.189211 48.584292 
L 48.554529 51.361207 
L 48.057349 51.77713 
z
" clip-path="url(#p842560dc8d)" style="fill: #b81642"/>
    <path d="M 39.378547 46.142315 
L 39.378547 46.142315 
L 42.238296 47.082512 
L 41.360621 47.195301 
z
" clip-path="url(#p842560dc8d)" style="fill: #a6143b"/>
    <path d="M 36.924161 66.7606 
L 37.922852 66.851685 
L 39.378547 67.017883 
L 39.378547 67.017883 
z
" clip-path="url(#p842560dc8d)" style="fill: #b51640"/>
    <path d="M 40.268157 66.878814 
L 41.360621 66.811919 
L 39.378547 67.017883 
L 39.378547 67.017883 
z
" clip-path="url(#p842560dc8d)" style="fill: #be1744"/>
    <path d="M 49.247717 58.865572 
L 49.813089 58.392601 
L 48.554529 61.798991 
L 48.057349 62.214914 
z
" clip-path="url(#p842560dc8d)" style="fill: #de1b4f"/>
    <path d="M 39.378547 46.142315 
L 39.378547 46.142315 
L 37.922852 47.235067 
L 36.924161 47.143983 
z
" clip-path="url(#p842560dc8d)" style="fill: #a6143b"/>
    <path d="M 32.660773 64.732395 
L 33.388748 65.028415 
L 36.191442 66.629183 
L 35.804094 66.471674 
z
" clip-path="url(#p842560dc8d)" style="fill: #991337"/>
    <path d="M 48.057349 51.77713 
L 48.554529 51.361207 
L 49.813089 54.767597 
L 49.247717 55.240567 
z
" clip-path="url(#p842560dc8d)" style="fill: #ca1948"/>
    <path d="M 37.922852 66.851685 
L 39.07929 66.892566 
L 39.378547 67.017883 
L 39.378547 67.017883 
z
" clip-path="url(#p842560dc8d)" style="fill: #b61641"/>
    <path d="M 39.07929 66.892566 
L 40.268157 66.878814 
L 39.378547 67.017883 
L 39.378547 67.017883 
z
" clip-path="url(#p842560dc8d)" style="fill: #b91742"/>
    <path d="M 49.247717 55.240567 
L 49.813089 54.767597 
L 49.813089 58.392601 
L 49.247717 58.865572 
z
" clip-path="url(#p842560dc8d)" style="fill: #d71a4d"/>
    <path d="M 39.378547 46.142315 
L 39.378547 46.142315 
L 41.360621 47.195301 
L 40.268157 47.262196 
z
" clip-path="url(#p842560dc8d)" style="fill: #a6143b"/>
    <path d="M 35.804094 46.855056 
L 36.191442 47.012565 
L 33.388748 49.036802 
L 32.660773 48.740781 
z
" clip-path="url(#p842560dc8d)" style="fill: #660c24"/>
    <path d="M 39.378547 46.142315 
L 39.378547 46.142315 
L 39.07929 47.275948 
L 37.922852 47.235067 
z
" clip-path="url(#p842560dc8d)" style="fill: #a6143b"/>
    <path d="M 39.378547 46.142315 
L 39.378547 46.142315 
L 40.268157 47.262196 
L 39.07929 47.275948 
z
" clip-path="url(#p842560dc8d)" style="fill: #a6143b"/>
    <path d="M 44.753118 65.159871 
L 45.82019 64.884615 
L 42.806074 66.552669 
L 42.238296 66.699129 
z
" clip-path="url(#p842560dc8d)" style="fill: #cc1949"/>
    <path d="M 30.327714 62.009828 
L 31.308512 62.408655 
L 33.388748 65.028415 
L 32.660773 64.732395 
z
" clip-path="url(#p842560dc8d)" style="fill: #7e0f2d"/>
    <path d="M 42.238296 47.082512 
L 42.806074 46.936051 
L 45.82019 48.893002 
L 44.753118 49.168258 
z
" clip-path="url(#p842560dc8d)" style="fill: #981336"/>
    <path d="M 32.660773 48.740781 
L 33.388748 49.036802 
L 31.308512 51.970871 
L 30.327714 51.572044 
z
" clip-path="url(#p842560dc8d)" style="fill: #590b20"/>
    <path d="M 33.388748 65.028415 
L 34.765811 65.275399 
L 36.924161 66.7606 
L 36.191442 66.629183 
z
" clip-path="url(#p842560dc8d)" style="fill: #951235"/>
    <path d="M 29.08632 58.632356 
L 30.201642 59.085886 
L 31.308512 62.408655 
L 30.327714 62.009828 
z
" clip-path="url(#p842560dc8d)" style="fill: #690d25"/>
    <path d="M 30.327714 51.572044 
L 31.308512 51.970871 
L 30.201642 55.460881 
L 29.08632 55.007352 
z
" clip-path="url(#p842560dc8d)" style="fill: #550a1e"/>
    <path d="M 36.191442 47.012565 
L 36.924161 47.143983 
L 34.765811 49.283785 
L 33.388748 49.036802 
z
" clip-path="url(#p842560dc8d)" style="fill: #620c23"/>
    <path d="M 29.08632 55.007352 
L 30.201642 55.460881 
L 30.201642 59.085886 
L 29.08632 58.632356 
z
" clip-path="url(#p842560dc8d)" style="fill: #5a0b20"/>
    <path d="M 46.619686 62.585766 
L 48.057349 62.214914 
L 45.82019 64.884615 
L 44.753118 65.159871 
z
" clip-path="url(#p842560dc8d)" style="fill: #cb1949"/>
    <path d="M 43.103627 65.371846 
L 44.753118 65.159871 
L 42.238296 66.699129 
L 41.360621 66.811919 
z
" clip-path="url(#p842560dc8d)" style="fill: #be1744"/>
    <path d="M 44.753118 49.168258 
L 45.82019 48.893002 
L 48.057349 51.77713 
L 46.619686 52.147982 
z
" clip-path="url(#p842560dc8d)" style="fill: #a5143b"/>
    <path d="M 41.360621 47.195301 
L 42.238296 47.082512 
L 44.753118 49.168258 
L 43.103627 49.380232 
z
" clip-path="url(#p842560dc8d)" style="fill: #8a1131"/>
    <path d="M 34.765811 65.275399 
L 36.642735 65.446581 
L 37.922852 66.851685 
L 36.924161 66.7606 
z
" clip-path="url(#p842560dc8d)" style="fill: #961235"/>
    <path d="M 36.924161 47.143983 
L 37.922852 47.235067 
L 36.642735 49.454968 
L 34.765811 49.283785 
z
" clip-path="url(#p842560dc8d)" style="fill: #620c23"/>
    <path d="M 47.612867 59.287289 
L 49.247717 58.865572 
L 48.057349 62.214914 
L 46.619686 62.585766 
z
" clip-path="url(#p842560dc8d)" style="fill: #c61847"/>
    <path d="M 46.619686 52.147982 
L 48.057349 51.77713 
L 49.247717 55.240567 
L 47.612867 55.662284 
z
" clip-path="url(#p842560dc8d)" style="fill: #b21640"/>
    <path d="M 41.050466 65.497568 
L 43.103627 65.371846 
L 41.360621 66.811919 
L 40.268157 66.878814 
z
" clip-path="url(#p842560dc8d)" style="fill: #b0153f"/>
    <path d="M 31.308512 62.408655 
L 33.163824 62.741416 
L 34.765811 65.275399 
L 33.388748 65.028415 
z
" clip-path="url(#p842560dc8d)" style="fill: #780f2b"/>
    <path d="M 40.268157 47.262196 
L 41.360621 47.195301 
L 43.103627 49.380232 
L 41.050466 49.505954 
z
" clip-path="url(#p842560dc8d)" style="fill: #7d0f2c"/>
    <path d="M 47.612867 55.662284 
L 49.247717 55.240567 
L 49.247717 58.865572 
L 47.612867 59.287289 
z
" clip-path="url(#p842560dc8d)" style="fill: #be1744"/>
    <path d="M 33.388748 49.036802 
L 34.765811 49.283785 
L 33.163824 52.303631 
L 31.308512 51.970871 
z
" clip-path="url(#p842560dc8d)" style="fill: #520a1d"/>
    <path d="M 36.642735 65.446581 
L 38.816127 65.523413 
L 39.07929 66.892566 
L 37.922852 66.851685 
z
" clip-path="url(#p842560dc8d)" style="fill: #9b1337"/>
    <path d="M 38.816127 65.523413 
L 41.050466 65.497568 
L 40.268157 66.878814 
L 39.07929 66.892566 
z
" clip-path="url(#p842560dc8d)" style="fill: #a4143b"/>
    <path d="M 37.922852 47.235067 
L 39.07929 47.275948 
L 38.816127 49.5318 
L 36.642735 49.454968 
z
" clip-path="url(#p842560dc8d)" style="fill: #680d25"/>
    <path d="M 39.07929 47.275948 
L 40.268157 47.262196 
L 41.050466 49.505954 
L 38.816127 49.5318 
z
" clip-path="url(#p842560dc8d)" style="fill: #710e28"/>
    <path d="M 44.397334 62.871358 
L 46.619686 62.585766 
L 44.753118 65.159871 
L 43.103627 65.371846 
z
" clip-path="url(#p842560dc8d)" style="fill: #b61641"/>
    <path d="M 43.103627 49.380232 
L 44.753118 49.168258 
L 46.619686 52.147982 
L 44.397334 52.433574 
z
" clip-path="url(#p842560dc8d)" style="fill: #901233"/>
    <path d="M 30.201642 59.085886 
L 32.311425 59.464287 
L 33.163824 62.741416 
L 31.308512 62.408655 
z
" clip-path="url(#p842560dc8d)" style="fill: #610c23"/>
    <path d="M 31.308512 51.970871 
L 33.163824 52.303631 
L 32.311425 55.839282 
L 30.201642 55.460881 
z
" clip-path="url(#p842560dc8d)" style="fill: #4d091c"/>
    <path d="M 30.201642 55.460881 
L 32.311425 55.839282 
L 32.311425 59.464287 
L 30.201642 59.085886 
z
" clip-path="url(#p842560dc8d)" style="fill: #520a1d"/>
    <path d="M 33.163824 62.741416 
L 35.692598 62.97205 
L 36.642735 65.446581 
L 34.765811 65.275399 
z
" clip-path="url(#p842560dc8d)" style="fill: #790f2b"/>
    <path d="M 34.765811 49.283785 
L 36.642735 49.454968 
L 35.692598 52.534265 
L 33.163824 52.303631 
z
" clip-path="url(#p842560dc8d)" style="fill: #530a1e"/>
    <path d="M 45.085701 59.612052 
L 47.612867 59.287289 
L 46.619686 62.585766 
L 44.397334 62.871358 
z
" clip-path="url(#p842560dc8d)" style="fill: #ad153e"/>
    <path d="M 44.397334 52.433574 
L 46.619686 52.147982 
L 47.612867 55.662284 
L 45.085701 55.987048 
z
" clip-path="url(#p842560dc8d)" style="fill: #981336"/>
    <path d="M 41.631118 63.040743 
L 44.397334 62.871358 
L 43.103627 65.371846 
L 41.050466 65.497568 
z
" clip-path="url(#p842560dc8d)" style="fill: #a1143a"/>
    <path d="M 41.050466 49.505954 
L 43.103627 49.380232 
L 44.397334 52.433574 
L 41.631118 52.602959 
z
" clip-path="url(#p842560dc8d)" style="fill: #7b0f2c"/>
    <path d="M 45.085701 55.987048 
L 47.612867 55.662284 
L 47.612867 59.287289 
L 45.085701 59.612052 
z
" clip-path="url(#p842560dc8d)" style="fill: #a2143a"/>
    <path d="M 35.692598 62.97205 
L 38.620801 63.075565 
L 38.816127 65.523413 
L 36.642735 65.446581 
z
" clip-path="url(#p842560dc8d)" style="fill: #81102e"/>
    <path d="M 36.642735 49.454968 
L 38.816127 49.5318 
L 38.620801 52.63778 
L 35.692598 52.534265 
z
" clip-path="url(#p842560dc8d)" style="fill: #5b0b21"/>
    <path d="M 38.620801 63.075565 
L 41.631118 63.040743 
L 41.050466 65.497568 
L 38.816127 65.523413 
z
" clip-path="url(#p842560dc8d)" style="fill: #8f1133"/>
    <path d="M 38.816127 49.5318 
L 41.050466 49.505954 
L 41.631118 52.602959 
L 38.620801 52.63778 
z
" clip-path="url(#p842560dc8d)" style="fill: #690d25"/>
    <path d="M 32.311425 59.464287 
L 35.18704 59.726554 
L 35.692598 62.97205 
L 33.163824 62.741416 
z
" clip-path="url(#p842560dc8d)" style="fill: #620c23"/>
    <path d="M 33.163824 52.303631 
L 35.692598 52.534265 
L 35.18704 56.10155 
L 32.311425 55.839282 
z
" clip-path="url(#p842560dc8d)" style="fill: #4e0a1c"/>
    <path d="M 32.311425 55.839282 
L 35.18704 56.10155 
L 35.18704 59.726554 
L 32.311425 59.464287 
z
" clip-path="url(#p842560dc8d)" style="fill: #530a1e"/>
    <path d="M 41.940076 59.804669 
L 45.085701 59.612052 
L 44.397334 62.871358 
L 41.631118 63.040743 
z
" clip-path="url(#p842560dc8d)" style="fill: #931234"/>
    <path d="M 41.631118 52.602959 
L 44.397334 52.433574 
L 45.085701 55.987048 
L 41.940076 56.179665 
z
" clip-path="url(#p842560dc8d)" style="fill: #7f0f2d"/>
    <path d="M 35.18704 59.726554 
L 38.51687 59.844267 
L 38.620801 63.075565 
L 35.692598 62.97205 
z
" clip-path="url(#p842560dc8d)" style="fill: #6c0d26"/>
    <path d="M 35.692598 52.534265 
L 38.620801 52.63778 
L 38.51687 56.219263 
L 35.18704 56.10155 
z
" clip-path="url(#p842560dc8d)" style="fill: #580b1f"/>
    <path d="M 41.940076 56.179665 
L 45.085701 55.987048 
L 45.085701 59.612052 
L 41.940076 59.804669 
z
" clip-path="url(#p842560dc8d)" style="fill: #871030"/>
    <path d="M 38.51687 59.844267 
L 41.940076 59.804669 
L 41.631118 63.040743 
L 38.620801 63.075565 
z
" clip-path="url(#p842560dc8d)" style="fill: #7d0f2c"/>
    <path d="M 38.620801 52.63778 
L 41.631118 52.602959 
L 41.940076 56.179665 
L 38.51687 56.219263 
z
" clip-path="url(#p842560dc8d)" style="fill: #690d25"/>
    <path d="M 35.18704 56.10155 
L 38.51687 56.219263 
L 38.51687 59.844267 
L 35.18704 59.726554 
z
" clip-path="url(#p842560dc8d)" style="fill: #5d0b21"/>
    <path d="M 38.51687 56.219263 
L 41.940076 56.179665 
L 41.940076 59.804669 
L 38.51687 59.844267 
z
" clip-path="url(#p842560dc8d)" style="fill: #6f0e28"/>
   </g>
   <g id="Poly3DCollection_2">
    <path d="M 103.151648 85.052635 
L 98.838679 85.002745 
L 98.838679 89.569965 
L 103.151648 89.619855 
z
" clip-path="url(#p842560dc8d)" style="fill: #e61c52"/>
    <path d="M 98.838679 85.002745 
L 94.643356 85.151054 
L 94.643356 89.718274 
L 98.838679 89.569965 
z
" clip-path="url(#p842560dc8d)" style="fill: #d1194b"/>
    <path d="M 103.151648 89.619855 
L 98.838679 89.569965 
L 98.969623 94.08235 
L 102.762385 94.126222 
z
" clip-path="url(#p842560dc8d)" style="fill: #ec1d54"/>
    <path d="M 102.762385 80.975438 
L 98.969623 80.931566 
L 98.838679 85.002745 
L 103.151648 85.052635 
z
" clip-path="url(#p842560dc8d)" style="fill: #d81a4d"/>
    <path d="M 107.114887 85.295318 
L 103.151648 85.052635 
L 103.151648 89.619855 
L 107.114887 89.862537 
z
" clip-path="url(#p842560dc8d)" style="fill: #f41e57"/>
    <path d="M 98.838679 89.569965 
L 94.643356 89.718274 
L 95.280319 94.21277 
L 98.969623 94.08235 
z
" clip-path="url(#p842560dc8d)" style="fill: #d81a4d"/>
    <path d="M 98.969623 80.931566 
L 95.280319 81.061986 
L 94.643356 85.151054 
L 98.838679 85.002745 
z
" clip-path="url(#p842560dc8d)" style="fill: #c41846"/>
    <path d="M 107.114887 89.862537 
L 103.151648 89.619855 
L 102.762385 94.126222 
L 106.247599 94.339633 
z
" clip-path="url(#p842560dc8d)" style="fill: #fa1e59"/>
    <path d="M 106.247599 81.188849 
L 102.762385 80.975438 
L 103.151648 85.052635 
L 107.114887 85.295318 
z
" clip-path="url(#p842560dc8d)" style="fill: #e51c52"/>
    <path d="M 94.643356 85.151054 
L 91.020308 85.48149 
L 91.020308 90.04871 
L 94.643356 89.718274 
z
" clip-path="url(#p842560dc8d)" style="fill: #b71641"/>
    <path d="M 94.643356 89.718274 
L 91.020308 90.04871 
L 92.094264 94.503351 
L 95.280319 94.21277 
z
" clip-path="url(#p842560dc8d)" style="fill: #c01745"/>
    <path d="M 95.280319 81.061986 
L 92.094264 81.352567 
L 91.020308 85.48149 
L 94.643356 85.151054 
z
" clip-path="url(#p842560dc8d)" style="fill: #ac153d"/>
    <path d="M 102.762385 94.126222 
L 98.969623 94.08235 
L 99.215719 97.99564 
L 102.03081 98.028203 
z
" clip-path="url(#p842560dc8d)" style="fill: #ea1c54"/>
    <path d="M 102.03081 77.880033 
L 99.215719 77.84747 
L 98.969623 80.931566 
L 102.762385 80.975438 
z
" clip-path="url(#p842560dc8d)" style="fill: #c41846"/>
    <path d="M 98.969623 94.08235 
L 95.280319 94.21277 
L 96.477417 98.092442 
L 99.215719 97.99564 
z
" clip-path="url(#p842560dc8d)" style="fill: #da1a4e"/>
    <path d="M 99.215719 77.84747 
L 96.477417 77.944271 
L 95.280319 81.061986 
L 98.969623 80.931566 
z
" clip-path="url(#p842560dc8d)" style="fill: #b41640"/>
    <path d="M 110.298917 85.704494 
L 107.114887 85.295318 
L 107.114887 89.862537 
L 110.298917 90.271714 
z
" clip-path="url(#p842560dc8d)" style="fill: #fa1e59"/>
    <path d="M 106.247599 94.339633 
L 102.762385 94.126222 
L 102.03081 98.028203 
L 104.617631 98.186603 
z
" clip-path="url(#p842560dc8d)" style="fill: #f51e57"/>
    <path d="M 104.617631 78.038433 
L 102.03081 77.880033 
L 102.762385 80.975438 
L 106.247599 81.188849 
z
" clip-path="url(#p842560dc8d)" style="fill: #cf194a"/>
    <path d="M 110.298917 90.271714 
L 107.114887 89.862537 
L 106.247599 94.339633 
L 109.047588 94.699457 
z
" clip-path="url(#p842560dc8d)" style="fill: #ff1f5b"/>
    <path d="M 109.047588 81.548673 
L 106.247599 81.188849 
L 107.114887 85.295318 
L 110.298917 85.704494 
z
" clip-path="url(#p842560dc8d)" style="fill: #eb1d54"/>
    <path d="M 95.280319 94.21277 
L 92.094264 94.503351 
L 94.11264 98.308118 
L 96.477417 98.092442 
z
" clip-path="url(#p842560dc8d)" style="fill: #c61847"/>
    <path d="M 96.477417 77.944271 
L 94.11264 78.159948 
L 92.094264 81.352567 
L 95.280319 81.061986 
z
" clip-path="url(#p842560dc8d)" style="fill: #a01339"/>
    <path d="M 91.020308 85.48149 
L 88.362148 85.958246 
L 88.362148 90.525465 
L 91.020308 90.04871 
z
" clip-path="url(#p842560dc8d)" style="fill: #9b1337"/>
    <path d="M 91.020308 90.04871 
L 88.362148 90.525465 
L 89.756717 94.922603 
L 92.094264 94.503351 
z
" clip-path="url(#p842560dc8d)" style="fill: #a6143b"/>
    <path d="M 92.094264 81.352567 
L 89.756717 81.771819 
L 88.362148 85.958246 
L 91.020308 85.48149 
z
" clip-path="url(#p842560dc8d)" style="fill: #921234"/>
    <path d="M 109.047588 94.699457 
L 106.247599 94.339633 
L 104.617631 98.186603 
L 106.695858 98.453674 
z
" clip-path="url(#p842560dc8d)" style="fill: #f91e59"/>
    <path d="M 106.695858 78.305504 
L 104.617631 78.038433 
L 106.247599 81.188849 
L 109.047588 81.548673 
z
" clip-path="url(#p842560dc8d)" style="fill: #d41a4b"/>
    <path d="M 102.03081 98.028203 
L 99.215719 97.99564 
L 99.547284 100.837835 
L 101.045162 100.855161 
z
" clip-path="url(#p842560dc8d)" style="fill: #e01b50"/>
    <path d="M 99.215719 97.99564 
L 96.477417 98.092442 
L 98.090263 100.889342 
L 99.547284 100.837835 
z
" clip-path="url(#p842560dc8d)" style="fill: #d51a4c"/>
    <path d="M 101.045162 76.139772 
L 99.547284 76.122445 
L 99.215719 77.84747 
L 102.03081 77.880033 
z
" clip-path="url(#p842560dc8d)" style="fill: #ad153e"/>
    <path d="M 99.547284 76.122445 
L 98.090263 76.173952 
L 96.477417 77.944271 
L 99.215719 77.84747 
z
" clip-path="url(#p842560dc8d)" style="fill: #a2143a"/>
    <path d="M 92.094264 94.503351 
L 89.756717 94.922603 
L 92.37765 98.619298 
L 94.11264 98.308118 
z
" clip-path="url(#p842560dc8d)" style="fill: #b1153f"/>
    <path d="M 112.358698 86.235824 
L 110.298917 85.704494 
L 110.298917 90.271714 
L 112.358698 90.803044 
z
" clip-path="url(#p842560dc8d)" style="fill: #f61e58"/>
    <path d="M 104.617631 98.186603 
L 102.03081 98.028203 
L 101.045162 100.855161 
L 102.42158 100.939444 
z
" clip-path="url(#p842560dc8d)" style="fill: #e71c52"/>
    <path d="M 94.11264 78.159948 
L 92.37765 78.471128 
L 89.756717 81.771819 
L 92.094264 81.352567 
z
" clip-path="url(#p842560dc8d)" style="fill: #8b1132"/>
    <path d="M 102.42158 76.224054 
L 101.045162 76.139772 
L 102.03081 77.880033 
L 104.617631 78.038433 
z
" clip-path="url(#p842560dc8d)" style="fill: #b41640"/>
    <path d="M 112.358698 90.803044 
L 110.298917 90.271714 
L 109.047588 94.699457 
L 110.858929 95.166701 
z
" clip-path="url(#p842560dc8d)" style="fill: #fc1f5a"/>
    <path d="M 110.858929 82.015917 
L 109.047588 81.548673 
L 110.298917 85.704494 
L 112.358698 86.235824 
z
" clip-path="url(#p842560dc8d)" style="fill: #e81c53"/>
    <path d="M 96.477417 98.092442 
L 94.11264 98.308118 
L 96.831992 101.004101 
L 98.090263 100.889342 
z
" clip-path="url(#p842560dc8d)" style="fill: #c81847"/>
    <path d="M 98.090263 76.173952 
L 96.831992 76.288712 
L 94.11264 78.159948 
L 96.477417 77.944271 
z
" clip-path="url(#p842560dc8d)" style="fill: #951235"/>
    <path d="M 106.695858 98.453674 
L 104.617631 98.186603 
L 102.42158 100.939444 
L 103.527382 101.081549 
z
" clip-path="url(#p842560dc8d)" style="fill: #ea1c53"/>
    <path d="M 110.858929 95.166701 
L 109.047588 94.699457 
L 106.695858 98.453674 
L 108.040285 98.800475 
z
" clip-path="url(#p842560dc8d)" style="fill: #f71e58"/>
    <path d="M 103.527382 76.36616 
L 102.42158 76.224054 
L 104.617631 78.038433 
L 106.695858 78.305504 
z
" clip-path="url(#p842560dc8d)" style="fill: #b71641"/>
    <path d="M 108.040285 78.652305 
L 106.695858 78.305504 
L 109.047588 81.548673 
L 110.858929 82.015917 
z
" clip-path="url(#p842560dc8d)" style="fill: #d1194b"/>
    <path d="M 88.362148 85.958246 
L 86.95693 86.529657 
L 86.95693 91.096876 
L 88.362148 90.525465 
z
" clip-path="url(#p842560dc8d)" style="fill: #81102e"/>
    <path d="M 94.11264 98.308118 
L 92.37765 98.619298 
L 95.908823 101.169676 
L 96.831992 101.004101 
z
" clip-path="url(#p842560dc8d)" style="fill: #ba1742"/>
    <path d="M 88.362148 90.525465 
L 86.95693 91.096876 
L 88.520989 95.425093 
L 89.756717 94.922603 
z
" clip-path="url(#p842560dc8d)" style="fill: #8d1132"/>
    <path d="M 89.756717 81.771819 
L 88.520989 82.274309 
L 86.95693 86.529657 
L 88.362148 85.958246 
z
" clip-path="url(#p842560dc8d)" style="fill: #790f2b"/>
    <path d="M 96.831992 76.288712 
L 95.908823 76.454287 
L 92.37765 78.471128 
L 94.11264 78.159948 
z
" clip-path="url(#p842560dc8d)" style="fill: #871030"/>
    <path d="M 89.756717 94.922603 
L 88.520989 95.425093 
L 91.460459 98.992261 
L 92.37765 98.619298 
z
" clip-path="url(#p842560dc8d)" style="fill: #9c1338"/>
    <path d="M 108.040285 98.800475 
L 106.695858 98.453674 
L 103.527382 101.081549 
L 104.242737 101.266078 
z
" clip-path="url(#p842560dc8d)" style="fill: #e81c53"/>
    <path d="M 92.37765 78.471128 
L 91.460459 78.84409 
L 88.520989 82.274309 
L 89.756717 81.771819 
z
" clip-path="url(#p842560dc8d)" style="fill: #760e2a"/>
    <path d="M 104.242737 76.550689 
L 103.527382 76.36616 
L 106.695858 78.305504 
L 108.040285 78.652305 
z
" clip-path="url(#p842560dc8d)" style="fill: #b51641"/>
    <path d="M 101.045162 100.855161 
L 99.547284 100.837835 
L 99.924324 102.266123 
L 99.924324 102.266123 
z
" clip-path="url(#p842560dc8d)" style="fill: #ce194a"/>
    <path d="M 99.547284 100.837835 
L 98.090263 100.889342 
L 99.924324 102.266123 
L 99.924324 102.266123 
z
" clip-path="url(#p842560dc8d)" style="fill: #cb1948"/>
    <path d="M 92.37765 98.619298 
L 91.460459 98.992261 
L 95.420795 101.368125 
L 95.908823 101.169676 
z
" clip-path="url(#p842560dc8d)" style="fill: #ad153e"/>
    <path d="M 102.42158 100.939444 
L 101.045162 100.855161 
L 99.924324 102.266123 
L 99.924324 102.266123 
z
" clip-path="url(#p842560dc8d)" style="fill: #d1194b"/>
    <path d="M 113.071023 86.83173 
L 112.358698 86.235824 
L 112.358698 90.803044 
L 113.071023 91.398949 
z
" clip-path="url(#p842560dc8d)" style="fill: #ea1c54"/>
    <path d="M 99.924324 75.964555 
L 99.924324 75.964555 
L 99.547284 76.122445 
L 101.045162 76.139772 
z
" clip-path="url(#p842560dc8d)" style="fill: #a6143b"/>
    <path d="M 99.924324 75.964555 
L 99.924324 75.964555 
L 98.090263 76.173952 
L 99.547284 76.122445 
z
" clip-path="url(#p842560dc8d)" style="fill: #a6143b"/>
    <path d="M 113.071023 91.398949 
L 112.358698 90.803044 
L 110.858929 95.166701 
L 111.485337 95.690731 
z
" clip-path="url(#p842560dc8d)" style="fill: #f01d56"/>
    <path d="M 95.908823 76.454287 
L 95.420795 76.652736 
L 91.460459 78.84409 
L 92.37765 78.471128 
z
" clip-path="url(#p842560dc8d)" style="fill: #790f2b"/>
    <path d="M 98.090263 100.889342 
L 96.831992 101.004101 
L 99.924324 102.266123 
L 99.924324 102.266123 
z
" clip-path="url(#p842560dc8d)" style="fill: #c61847"/>
    <path d="M 111.485337 82.539947 
L 110.858929 82.015917 
L 112.358698 86.235824 
L 113.071023 86.83173 
z
" clip-path="url(#p842560dc8d)" style="fill: #dc1b4f"/>
    <path d="M 99.924324 75.964555 
L 99.924324 75.964555 
L 101.045162 76.139772 
L 102.42158 76.224054 
z
" clip-path="url(#p842560dc8d)" style="fill: #a6143b"/>
    <path d="M 99.924324 75.964555 
L 99.924324 75.964555 
L 96.831992 76.288712 
L 98.090263 76.173952 
z
" clip-path="url(#p842560dc8d)" style="fill: #a6143b"/>
    <path d="M 103.527382 101.081549 
L 102.42158 100.939444 
L 99.924324 102.266123 
L 99.924324 102.266123 
z
" clip-path="url(#p842560dc8d)" style="fill: #d21a4b"/>
    <path d="M 111.485337 95.690731 
L 110.858929 95.166701 
L 108.040285 98.800475 
L 108.505222 99.189424 
z
" clip-path="url(#p842560dc8d)" style="fill: #ed1d55"/>
    <path d="M 108.505222 79.041254 
L 108.040285 78.652305 
L 110.858929 82.015917 
L 111.485337 82.539947 
z
" clip-path="url(#p842560dc8d)" style="fill: #c81847"/>
    <path d="M 99.924324 75.964555 
L 99.924324 75.964555 
L 102.42158 76.224054 
L 103.527382 76.36616 
z
" clip-path="url(#p842560dc8d)" style="fill: #a6143b"/>
    <path d="M 96.831992 101.004101 
L 95.908823 101.169676 
L 99.924324 102.266123 
L 99.924324 102.266123 
z
" clip-path="url(#p842560dc8d)" style="fill: #c11745"/>
    <path d="M 99.924324 75.964555 
L 99.924324 75.964555 
L 95.908823 76.454287 
L 96.831992 76.288712 
z
" clip-path="url(#p842560dc8d)" style="fill: #a6143b"/>
    <path d="M 104.242737 101.266078 
L 103.527382 101.081549 
L 99.924324 102.266123 
L 99.924324 102.266123 
z
" clip-path="url(#p842560dc8d)" style="fill: #d1194b"/>
    <path d="M 108.505222 99.189424 
L 108.040285 98.800475 
L 104.242737 101.266078 
L 104.490125 101.473034 
z
" clip-path="url(#p842560dc8d)" style="fill: #e21b51"/>
    <path d="M 104.490125 76.757645 
L 104.242737 76.550689 
L 108.040285 78.652305 
L 108.505222 79.041254 
z
" clip-path="url(#p842560dc8d)" style="fill: #af153e"/>
    <path d="M 99.924324 75.964555 
L 99.924324 75.964555 
L 103.527382 76.36616 
L 104.242737 76.550689 
z
" clip-path="url(#p842560dc8d)" style="fill: #a6143b"/>
    <path d="M 95.908823 101.169676 
L 95.420795 101.368125 
L 99.924324 102.266123 
L 99.924324 102.266123 
z
" clip-path="url(#p842560dc8d)" style="fill: #bd1743"/>
    <path d="M 99.924324 75.964555 
L 99.924324 75.964555 
L 95.420795 76.652736 
L 95.908823 76.454287 
z
" clip-path="url(#p842560dc8d)" style="fill: #a6143b"/>
    <path d="M 104.490125 101.473034 
L 104.242737 101.266078 
L 99.924324 102.266123 
L 99.924324 102.266123 
z
" clip-path="url(#p842560dc8d)" style="fill: #cf194a"/>
    <path d="M 99.924324 75.964555 
L 99.924324 75.964555 
L 104.242737 76.550689 
L 104.490125 76.757645 
z
" clip-path="url(#p842560dc8d)" style="fill: #a6143b"/>
    <path d="M 95.420795 101.368125 
L 95.420795 101.577943 
L 99.924324 102.266123 
L 99.924324 102.266123 
z
" clip-path="url(#p842560dc8d)" style="fill: #b91642"/>
    <path d="M 91.460459 98.992261 
L 91.460459 99.386588 
L 95.420795 101.577943 
L 95.420795 101.368125 
z
" clip-path="url(#p842560dc8d)" style="fill: #a1143a"/>
    <path d="M 88.520989 95.425093 
L 88.520989 95.95637 
L 91.460459 99.386588 
L 91.460459 98.992261 
z
" clip-path="url(#p842560dc8d)" style="fill: #8b1132"/>
    <path d="M 86.95693 91.096876 
L 86.95693 91.701022 
L 88.520989 95.95637 
L 88.520989 95.425093 
z
" clip-path="url(#p842560dc8d)" style="fill: #780f2b"/>
    <path d="M 86.95693 86.529657 
L 86.95693 87.133802 
L 86.95693 91.701022 
L 86.95693 91.096876 
z
" clip-path="url(#p842560dc8d)" style="fill: #6a0d26"/>
    <path d="M 88.520989 82.274309 
L 88.520989 82.805586 
L 86.95693 87.133802 
L 86.95693 86.529657 
z
" clip-path="url(#p842560dc8d)" style="fill: #640c24"/>
    <path d="M 91.460459 78.84409 
L 91.460459 79.238418 
L 88.520989 82.805586 
L 88.520989 82.274309 
z
" clip-path="url(#p842560dc8d)" style="fill: #650c24"/>
    <path d="M 95.420795 76.652736 
L 95.420795 76.862553 
L 91.460459 79.238418 
L 91.460459 78.84409 
z
" clip-path="url(#p842560dc8d)" style="fill: #6e0d27"/>
    <path d="M 99.924324 75.964555 
L 99.924324 75.964555 
L 95.420795 76.862553 
L 95.420795 76.652736 
z
" clip-path="url(#p842560dc8d)" style="fill: #a6143b"/>
    <path d="M 104.242737 101.67999 
L 104.490125 101.473034 
L 99.924324 102.266123 
L 99.924324 102.266123 
z
" clip-path="url(#p842560dc8d)" style="fill: #cc1949"/>
    <path d="M 99.924324 75.964555 
L 99.924324 75.964555 
L 104.490125 76.757645 
L 104.242737 76.9646 
z
" clip-path="url(#p842560dc8d)" style="fill: #a6143b"/>
    <path d="M 95.420795 101.577943 
L 95.908823 101.776392 
L 99.924324 102.266123 
L 99.924324 102.266123 
z
" clip-path="url(#p842560dc8d)" style="fill: #b61641"/>
    <path d="M 99.924324 75.964555 
L 99.924324 75.964555 
L 95.908823 77.061002 
L 95.420795 76.862553 
z
" clip-path="url(#p842560dc8d)" style="fill: #a6143b"/>
    <path d="M 103.527382 101.864519 
L 104.242737 101.67999 
L 99.924324 102.266123 
L 99.924324 102.266123 
z
" clip-path="url(#p842560dc8d)" style="fill: #c71847"/>
    <path d="M 108.040285 99.578374 
L 108.505222 99.189424 
L 104.490125 101.473034 
L 104.242737 101.67999 
z
" clip-path="url(#p842560dc8d)" style="fill: #d81a4d"/>
    <path d="M 104.242737 76.9646 
L 104.490125 76.757645 
L 108.505222 79.041254 
L 108.040285 79.430204 
z
" clip-path="url(#p842560dc8d)" style="fill: #a5143b"/>
    <path d="M 99.924324 75.964555 
L 99.924324 75.964555 
L 104.242737 76.9646 
L 103.527382 77.149129 
z
" clip-path="url(#p842560dc8d)" style="fill: #a6143b"/>
    <path d="M 95.908823 101.776392 
L 96.831992 101.941967 
L 99.924324 102.266123 
L 99.924324 102.266123 
z
" clip-path="url(#p842560dc8d)" style="fill: #b41640"/>
    <path d="M 99.924324 75.964555 
L 99.924324 75.964555 
L 96.831992 77.226578 
L 95.908823 77.061002 
z
" clip-path="url(#p842560dc8d)" style="fill: #a6143b"/>
    <path d="M 102.42158 102.006624 
L 103.527382 101.864519 
L 99.924324 102.266123 
L 99.924324 102.266123 
z
" clip-path="url(#p842560dc8d)" style="fill: #c21845"/>
    <path d="M 110.858929 96.214762 
L 111.485337 95.690731 
L 108.505222 99.189424 
L 108.040285 99.578374 
z
" clip-path="url(#p842560dc8d)" style="fill: #de1b4f"/>
    <path d="M 108.040285 79.430204 
L 108.505222 79.041254 
L 111.485337 82.539947 
L 110.858929 83.063978 
z
" clip-path="url(#p842560dc8d)" style="fill: #b81642"/>
    <path d="M 99.924324 75.964555 
L 99.924324 75.964555 
L 103.527382 77.149129 
L 102.42158 77.291235 
z
" clip-path="url(#p842560dc8d)" style="fill: #a6143b"/>
    <path d="M 96.831992 101.941967 
L 98.090263 102.056727 
L 99.924324 102.266123 
L 99.924324 102.266123 
z
" clip-path="url(#p842560dc8d)" style="fill: #b51640"/>
    <path d="M 101.045162 102.090907 
L 102.42158 102.006624 
L 99.924324 102.266123 
L 99.924324 102.266123 
z
" clip-path="url(#p842560dc8d)" style="fill: #be1744"/>
    <path d="M 112.358698 91.994855 
L 113.071023 91.398949 
L 111.485337 95.690731 
L 110.858929 96.214762 
z
" clip-path="url(#p842560dc8d)" style="fill: #de1b4f"/>
    <path d="M 99.924324 75.964555 
L 99.924324 75.964555 
L 98.090263 77.341337 
L 96.831992 77.226578 
z
" clip-path="url(#p842560dc8d)" style="fill: #a6143b"/>
    <path d="M 91.460459 99.386588 
L 92.37765 99.75955 
L 95.908823 101.776392 
L 95.420795 101.577943 
z
" clip-path="url(#p842560dc8d)" style="fill: #991337"/>
    <path d="M 110.858929 83.063978 
L 111.485337 82.539947 
L 113.071023 86.83173 
L 112.358698 87.427635 
z
" clip-path="url(#p842560dc8d)" style="fill: #ca1948"/>
    <path d="M 98.090263 102.056727 
L 99.547284 102.108234 
L 99.924324 102.266123 
L 99.924324 102.266123 
z
" clip-path="url(#p842560dc8d)" style="fill: #b61641"/>
    <path d="M 99.547284 102.108234 
L 101.045162 102.090907 
L 99.924324 102.266123 
L 99.924324 102.266123 
z
" clip-path="url(#p842560dc8d)" style="fill: #b91742"/>
    <path d="M 112.358698 87.427635 
L 113.071023 86.83173 
L 113.071023 91.398949 
L 112.358698 91.994855 
z
" clip-path="url(#p842560dc8d)" style="fill: #d71a4d"/>
    <path d="M 99.924324 75.964555 
L 99.924324 75.964555 
L 102.42158 77.291235 
L 101.045162 77.375518 
z
" clip-path="url(#p842560dc8d)" style="fill: #a6143b"/>
    <path d="M 95.420795 76.862553 
L 95.908823 77.061002 
L 92.37765 79.61138 
L 91.460459 79.238418 
z
" clip-path="url(#p842560dc8d)" style="fill: #660c24"/>
    <path d="M 99.924324 75.964555 
L 99.924324 75.964555 
L 99.547284 77.392844 
L 98.090263 77.341337 
z
" clip-path="url(#p842560dc8d)" style="fill: #a6143b"/>
    <path d="M 99.924324 75.964555 
L 99.924324 75.964555 
L 101.045162 77.375518 
L 99.547284 77.392844 
z
" clip-path="url(#p842560dc8d)" style="fill: #a6143b"/>
    <path d="M 106.695858 99.925175 
L 108.040285 99.578374 
L 104.242737 101.67999 
L 103.527382 101.864519 
z
" clip-path="url(#p842560dc8d)" style="fill: #cc1949"/>
    <path d="M 88.520989 95.95637 
L 89.756717 96.45886 
L 92.37765 99.75955 
L 91.460459 99.386588 
z
" clip-path="url(#p842560dc8d)" style="fill: #7e0f2d"/>
    <path d="M 103.527382 77.149129 
L 104.242737 76.9646 
L 108.040285 79.430204 
L 106.695858 79.777005 
z
" clip-path="url(#p842560dc8d)" style="fill: #981336"/>
    <path d="M 91.460459 79.238418 
L 92.37765 79.61138 
L 89.756717 83.308076 
L 88.520989 82.805586 
z
" clip-path="url(#p842560dc8d)" style="fill: #590b20"/>
    <path d="M 92.37765 99.75955 
L 94.11264 100.070731 
L 96.831992 101.941967 
L 95.908823 101.776392 
z
" clip-path="url(#p842560dc8d)" style="fill: #951235"/>
    <path d="M 86.95693 91.701022 
L 88.362148 92.272433 
L 89.756717 96.45886 
L 88.520989 95.95637 
z
" clip-path="url(#p842560dc8d)" style="fill: #690d25"/>
    <path d="M 88.520989 82.805586 
L 89.756717 83.308076 
L 88.362148 87.705213 
L 86.95693 87.133802 
z
" clip-path="url(#p842560dc8d)" style="fill: #550a1e"/>
    <path d="M 95.908823 77.061002 
L 96.831992 77.226578 
L 94.11264 79.92256 
L 92.37765 79.61138 
z
" clip-path="url(#p842560dc8d)" style="fill: #620c23"/>
    <path d="M 86.95693 87.133802 
L 88.362148 87.705213 
L 88.362148 92.272433 
L 86.95693 91.701022 
z
" clip-path="url(#p842560dc8d)" style="fill: #5a0b20"/>
    <path d="M 109.047588 96.682006 
L 110.858929 96.214762 
L 108.040285 99.578374 
L 106.695858 99.925175 
z
" clip-path="url(#p842560dc8d)" style="fill: #cb1949"/>
    <path d="M 104.617631 100.192246 
L 106.695858 99.925175 
L 103.527382 101.864519 
L 102.42158 102.006624 
z
" clip-path="url(#p842560dc8d)" style="fill: #be1744"/>
    <path d="M 106.695858 79.777005 
L 108.040285 79.430204 
L 110.858929 83.063978 
L 109.047588 83.531222 
z
" clip-path="url(#p842560dc8d)" style="fill: #a5143b"/>
    <path d="M 102.42158 77.291235 
L 103.527382 77.149129 
L 106.695858 79.777005 
L 104.617631 80.044076 
z
" clip-path="url(#p842560dc8d)" style="fill: #8a1131"/>
    <path d="M 94.11264 100.070731 
L 96.477417 100.286407 
L 98.090263 102.056727 
L 96.831992 101.941967 
z
" clip-path="url(#p842560dc8d)" style="fill: #961235"/>
    <path d="M 96.831992 77.226578 
L 98.090263 77.341337 
L 96.477417 80.138237 
L 94.11264 79.92256 
z
" clip-path="url(#p842560dc8d)" style="fill: #620c23"/>
    <path d="M 110.298917 92.526185 
L 112.358698 91.994855 
L 110.858929 96.214762 
L 109.047588 96.682006 
z
" clip-path="url(#p842560dc8d)" style="fill: #c61847"/>
    <path d="M 109.047588 83.531222 
L 110.858929 83.063978 
L 112.358698 87.427635 
L 110.298917 87.958965 
z
" clip-path="url(#p842560dc8d)" style="fill: #b21640"/>
    <path d="M 102.03081 100.350646 
L 104.617631 100.192246 
L 102.42158 102.006624 
L 101.045162 102.090907 
z
" clip-path="url(#p842560dc8d)" style="fill: #b0153f"/>
    <path d="M 89.756717 96.45886 
L 92.094264 96.878112 
L 94.11264 100.070731 
L 92.37765 99.75955 
z
" clip-path="url(#p842560dc8d)" style="fill: #780f2b"/>
    <path d="M 101.045162 77.375518 
L 102.42158 77.291235 
L 104.617631 80.044076 
L 102.03081 80.202476 
z
" clip-path="url(#p842560dc8d)" style="fill: #7d0f2c"/>
    <path d="M 110.298917 87.958965 
L 112.358698 87.427635 
L 112.358698 91.994855 
L 110.298917 92.526185 
z
" clip-path="url(#p842560dc8d)" style="fill: #be1744"/>
    <path d="M 92.37765 79.61138 
L 94.11264 79.92256 
L 92.094264 83.727328 
L 89.756717 83.308076 
z
" clip-path="url(#p842560dc8d)" style="fill: #520a1d"/>
    <path d="M 96.477417 100.286407 
L 99.215719 100.383209 
L 99.547284 102.108234 
L 98.090263 102.056727 
z
" clip-path="url(#p842560dc8d)" style="fill: #9b1337"/>
    <path d="M 99.215719 100.383209 
L 102.03081 100.350646 
L 101.045162 102.090907 
L 99.547284 102.108234 
z
" clip-path="url(#p842560dc8d)" style="fill: #a4143b"/>
    <path d="M 98.090263 77.341337 
L 99.547284 77.392844 
L 99.215719 80.235039 
L 96.477417 80.138237 
z
" clip-path="url(#p842560dc8d)" style="fill: #680d25"/>
    <path d="M 99.547284 77.392844 
L 101.045162 77.375518 
L 102.03081 80.202476 
L 99.215719 80.235039 
z
" clip-path="url(#p842560dc8d)" style="fill: #710e28"/>
    <path d="M 106.247599 97.041829 
L 109.047588 96.682006 
L 106.695858 99.925175 
L 104.617631 100.192246 
z
" clip-path="url(#p842560dc8d)" style="fill: #b61641"/>
    <path d="M 104.617631 80.044076 
L 106.695858 79.777005 
L 109.047588 83.531222 
L 106.247599 83.891045 
z
" clip-path="url(#p842560dc8d)" style="fill: #901233"/>
    <path d="M 88.362148 92.272433 
L 91.020308 92.749188 
L 92.094264 96.878112 
L 89.756717 96.45886 
z
" clip-path="url(#p842560dc8d)" style="fill: #610c23"/>
    <path d="M 89.756717 83.308076 
L 92.094264 83.727328 
L 91.020308 88.181969 
L 88.362148 87.705213 
z
" clip-path="url(#p842560dc8d)" style="fill: #4d091c"/>
    <path d="M 88.362148 87.705213 
L 91.020308 88.181969 
L 91.020308 92.749188 
L 88.362148 92.272433 
z
" clip-path="url(#p842560dc8d)" style="fill: #520a1d"/>
    <path d="M 92.094264 96.878112 
L 95.280319 97.168693 
L 96.477417 100.286407 
L 94.11264 100.070731 
z
" clip-path="url(#p842560dc8d)" style="fill: #790f2b"/>
    <path d="M 94.11264 79.92256 
L 96.477417 80.138237 
L 95.280319 84.017909 
L 92.094264 83.727328 
z
" clip-path="url(#p842560dc8d)" style="fill: #530a1e"/>
    <path d="M 107.114887 92.935361 
L 110.298917 92.526185 
L 109.047588 96.682006 
L 106.247599 97.041829 
z
" clip-path="url(#p842560dc8d)" style="fill: #ad153e"/>
    <path d="M 106.247599 83.891045 
L 109.047588 83.531222 
L 110.298917 87.958965 
L 107.114887 88.368142 
z
" clip-path="url(#p842560dc8d)" style="fill: #981336"/>
    <path d="M 102.762385 97.255241 
L 106.247599 97.041829 
L 104.617631 100.192246 
L 102.03081 100.350646 
z
" clip-path="url(#p842560dc8d)" style="fill: #a1143a"/>
    <path d="M 102.03081 80.202476 
L 104.617631 80.044076 
L 106.247599 83.891045 
L 102.762385 84.104457 
z
" clip-path="url(#p842560dc8d)" style="fill: #7b0f2c"/>
    <path d="M 107.114887 88.368142 
L 110.298917 87.958965 
L 110.298917 92.526185 
L 107.114887 92.935361 
z
" clip-path="url(#p842560dc8d)" style="fill: #a2143a"/>
    <path d="M 95.280319 97.168693 
L 98.969623 97.299113 
L 99.215719 100.383209 
L 96.477417 100.286407 
z
" clip-path="url(#p842560dc8d)" style="fill: #81102e"/>
    <path d="M 96.477417 80.138237 
L 99.215719 80.235039 
L 98.969623 84.148329 
L 95.280319 84.017909 
z
" clip-path="url(#p842560dc8d)" style="fill: #5b0b21"/>
    <path d="M 98.969623 97.299113 
L 102.762385 97.255241 
L 102.03081 100.350646 
L 99.215719 100.383209 
z
" clip-path="url(#p842560dc8d)" style="fill: #8f1133"/>
    <path d="M 99.215719 80.235039 
L 102.03081 80.202476 
L 102.762385 84.104457 
L 98.969623 84.148329 
z
" clip-path="url(#p842560dc8d)" style="fill: #690d25"/>
    <path d="M 91.020308 92.749188 
L 94.643356 93.079624 
L 95.280319 97.168693 
L 92.094264 96.878112 
z
" clip-path="url(#p842560dc8d)" style="fill: #620c23"/>
    <path d="M 92.094264 83.727328 
L 95.280319 84.017909 
L 94.643356 88.512405 
L 91.020308 88.181969 
z
" clip-path="url(#p842560dc8d)" style="fill: #4e0a1c"/>
    <path d="M 91.020308 88.181969 
L 94.643356 88.512405 
L 94.643356 93.079624 
L 91.020308 92.749188 
z
" clip-path="url(#p842560dc8d)" style="fill: #530a1e"/>
    <path d="M 103.151648 93.178043 
L 107.114887 92.935361 
L 106.247599 97.041829 
L 102.762385 97.255241 
z
" clip-path="url(#p842560dc8d)" style="fill: #931234"/>
    <path d="M 102.762385 84.104457 
L 106.247599 83.891045 
L 107.114887 88.368142 
L 103.151648 88.610824 
z
" clip-path="url(#p842560dc8d)" style="fill: #7f0f2d"/>
    <path d="M 94.643356 93.079624 
L 98.838679 93.227933 
L 98.969623 97.299113 
L 95.280319 97.168693 
z
" clip-path="url(#p842560dc8d)" style="fill: #6c0d26"/>
    <path d="M 95.280319 84.017909 
L 98.969623 84.148329 
L 98.838679 88.660714 
L 94.643356 88.512405 
z
" clip-path="url(#p842560dc8d)" style="fill: #580b1f"/>
    <path d="M 103.151648 88.610824 
L 107.114887 88.368142 
L 107.114887 92.935361 
L 103.151648 93.178043 
z
" clip-path="url(#p842560dc8d)" style="fill: #871030"/>
    <path d="M 98.838679 93.227933 
L 103.151648 93.178043 
L 102.762385 97.255241 
L 98.969623 97.299113 
z
" clip-path="url(#p842560dc8d)" style="fill: #7d0f2c"/>
    <path d="M 98.969623 84.148329 
L 102.762385 84.104457 
L 103.151648 88.610824 
L 98.838679 88.660714 
z
" clip-path="url(#p842560dc8d)" style="fill: #690d25"/>
    <path d="M 94.643356 88.512405 
L 98.838679 88.660714 
L 98.838679 93.227933 
L 94.643356 93.079624 
z
" clip-path="url(#p842560dc8d)" style="fill: #5d0b21"/>
    <path d="M 98.838679 88.660714 
L 103.151648 88.610824 
L 103.151648 93.178043 
L 98.838679 93.227933 
z
" clip-path="url(#p842560dc8d)" style="fill: #6f0e28"/>
   </g>
   <g id="Poly3DCollection_3">
    <path d="M 164.536274 147.0593 
L 159.102273 146.996443 
L 159.102273 152.750778 
L 164.536274 152.813636 
z
" clip-path="url(#p842560dc8d)" style="fill: #e61c52"/>
    <path d="M 159.102273 146.996443 
L 153.816498 147.1833 
L 153.816498 152.937636 
L 159.102273 152.750778 
z
" clip-path="url(#p842560dc8d)" style="fill: #d1194b"/>
    <path d="M 164.536274 152.813636 
L 159.102273 152.750778 
L 159.267254 158.436027 
L 164.045834 158.491303 
z
" clip-path="url(#p842560dc8d)" style="fill: #ec1d54"/>
    <path d="M 164.045834 141.922353 
L 159.267254 141.867077 
L 159.102273 146.996443 
L 164.536274 147.0593 
z
" clip-path="url(#p842560dc8d)" style="fill: #d81a4d"/>
    <path d="M 169.529642 147.365061 
L 164.536274 147.0593 
L 164.536274 152.813636 
L 169.529642 153.119396 
z
" clip-path="url(#p842560dc8d)" style="fill: #f41e57"/>
    <path d="M 159.102273 152.750778 
L 153.816498 152.937636 
L 154.619021 158.600347 
L 159.267254 158.436027 
z
" clip-path="url(#p842560dc8d)" style="fill: #d81a4d"/>
    <path d="M 159.267254 141.867077 
L 154.619021 142.031397 
L 153.816498 147.1833 
L 159.102273 146.996443 
z
" clip-path="url(#p842560dc8d)" style="fill: #c41846"/>
    <path d="M 169.529642 153.119396 
L 164.536274 152.813636 
L 164.045834 158.491303 
L 168.436928 158.760184 
z
" clip-path="url(#p842560dc8d)" style="fill: #fa1e59"/>
    <path d="M 168.436928 142.191235 
L 164.045834 141.922353 
L 164.536274 147.0593 
L 169.529642 147.365061 
z
" clip-path="url(#p842560dc8d)" style="fill: #e51c52"/>
    <path d="M 153.816498 147.1833 
L 149.251743 147.599624 
L 149.251743 153.353959 
L 153.816498 152.937636 
z
" clip-path="url(#p842560dc8d)" style="fill: #b71641"/>
    <path d="M 153.816498 152.937636 
L 149.251743 153.353959 
L 150.604843 158.966456 
L 154.619021 158.600347 
z
" clip-path="url(#p842560dc8d)" style="fill: #c01745"/>
    <path d="M 154.619021 142.031397 
L 150.604843 142.397506 
L 149.251743 147.599624 
L 153.816498 147.1833 
z
" clip-path="url(#p842560dc8d)" style="fill: #ac153d"/>
    <path d="M 164.045834 158.491303 
L 159.267254 158.436027 
L 159.577315 163.366464 
L 163.124107 163.407491 
z
" clip-path="url(#p842560dc8d)" style="fill: #ea1c54"/>
    <path d="M 163.124107 138.022387 
L 159.577315 137.98136 
L 159.267254 141.867077 
L 164.045834 141.922353 
z
" clip-path="url(#p842560dc8d)" style="fill: #c41846"/>
    <path d="M 159.267254 158.436027 
L 154.619021 158.600347 
L 156.12727 163.488426 
L 159.577315 163.366464 
z
" clip-path="url(#p842560dc8d)" style="fill: #da1a4e"/>
    <path d="M 159.577315 137.98136 
L 156.12727 138.103323 
L 154.619021 142.031397 
L 159.267254 141.867077 
z
" clip-path="url(#p842560dc8d)" style="fill: #b41640"/>
    <path d="M 173.541268 147.880591 
L 169.529642 147.365061 
L 169.529642 153.119396 
L 173.541268 153.634927 
z
" clip-path="url(#p842560dc8d)" style="fill: #fa1e59"/>
    <path d="M 168.436928 158.760184 
L 164.045834 158.491303 
L 163.124107 163.407491 
L 166.383297 163.607062 
z
" clip-path="url(#p842560dc8d)" style="fill: #f51e57"/>
    <path d="M 166.383297 138.221958 
L 163.124107 138.022387 
L 164.045834 141.922353 
L 168.436928 142.191235 
z
" clip-path="url(#p842560dc8d)" style="fill: #cf194a"/>
    <path d="M 173.541268 153.634927 
L 169.529642 153.119396 
L 168.436928 158.760184 
L 171.964693 159.213534 
z
" clip-path="url(#p842560dc8d)" style="fill: #ff1f5b"/>
    <path d="M 171.964693 142.644584 
L 168.436928 142.191235 
L 169.529642 147.365061 
L 173.541268 147.880591 
z
" clip-path="url(#p842560dc8d)" style="fill: #eb1d54"/>
    <path d="M 154.619021 158.600347 
L 150.604843 158.966456 
L 153.147838 163.760162 
L 156.12727 163.488426 
z
" clip-path="url(#p842560dc8d)" style="fill: #c61847"/>
    <path d="M 156.12727 138.103323 
L 153.147838 138.375058 
L 150.604843 142.397506 
L 154.619021 142.031397 
z
" clip-path="url(#p842560dc8d)" style="fill: #a01339"/>
    <path d="M 149.251743 147.599624 
L 145.902672 148.200298 
L 145.902672 153.954634 
L 149.251743 153.353959 
z
" clip-path="url(#p842560dc8d)" style="fill: #9b1337"/>
    <path d="M 149.251743 153.353959 
L 145.902672 153.954634 
L 147.659719 159.49468 
L 150.604843 158.966456 
z
" clip-path="url(#p842560dc8d)" style="fill: #a6143b"/>
    <path d="M 150.604843 142.397506 
L 147.659719 142.92573 
L 145.902672 148.200298 
L 149.251743 147.599624 
z
" clip-path="url(#p842560dc8d)" style="fill: #921234"/>
    <path d="M 171.964693 159.213534 
L 168.436928 158.760184 
L 166.383297 163.607062 
L 169.0017 163.94355 
z
" clip-path="url(#p842560dc8d)" style="fill: #f91e59"/>
    <path d="M 169.0017 138.558447 
L 166.383297 138.221958 
L 168.436928 142.191235 
L 171.964693 142.644584 
z
" clip-path="url(#p842560dc8d)" style="fill: #d41a4b"/>
    <path d="M 163.124107 163.407491 
L 159.577315 163.366464 
L 159.99506 166.947405 
L 161.882268 166.969235 
z
" clip-path="url(#p842560dc8d)" style="fill: #e01b50"/>
    <path d="M 159.577315 163.366464 
L 156.12727 163.488426 
L 158.159329 167.0123 
L 159.99506 166.947405 
z
" clip-path="url(#p842560dc8d)" style="fill: #d51a4c"/>
    <path d="M 161.882268 135.829795 
L 159.99506 135.807965 
L 159.577315 137.98136 
L 163.124107 138.022387 
z
" clip-path="url(#p842560dc8d)" style="fill: #ad153e"/>
    <path d="M 159.99506 135.807965 
L 158.159329 135.87286 
L 156.12727 138.103323 
L 159.577315 137.98136 
z
" clip-path="url(#p842560dc8d)" style="fill: #a2143a"/>
    <path d="M 150.604843 158.966456 
L 147.659719 159.49468 
L 150.961887 164.152224 
L 153.147838 163.760162 
z
" clip-path="url(#p842560dc8d)" style="fill: #b1153f"/>
    <path d="M 176.136431 148.550024 
L 173.541268 147.880591 
L 173.541268 153.634927 
L 176.136431 154.30436 
z
" clip-path="url(#p842560dc8d)" style="fill: #f61e58"/>
    <path d="M 166.383297 163.607062 
L 163.124107 163.407491 
L 161.882268 166.969235 
L 163.616447 167.075424 
z
" clip-path="url(#p842560dc8d)" style="fill: #e71c52"/>
    <path d="M 153.147838 138.375058 
L 150.961887 138.767121 
L 147.659719 142.92573 
L 150.604843 142.397506 
z
" clip-path="url(#p842560dc8d)" style="fill: #8b1132"/>
    <path d="M 163.616447 135.935985 
L 161.882268 135.829795 
L 163.124107 138.022387 
L 166.383297 138.221958 
z
" clip-path="url(#p842560dc8d)" style="fill: #b41640"/>
    <path d="M 176.136431 154.30436 
L 173.541268 153.634927 
L 171.964693 159.213534 
L 174.24684 159.802224 
z
" clip-path="url(#p842560dc8d)" style="fill: #fc1f5a"/>
    <path d="M 174.24684 143.233274 
L 171.964693 142.644584 
L 173.541268 147.880591 
L 176.136431 148.550024 
z
" clip-path="url(#p842560dc8d)" style="fill: #e81c53"/>
    <path d="M 156.12727 163.488426 
L 153.147838 163.760162 
L 156.574006 167.156887 
L 158.159329 167.0123 
z
" clip-path="url(#p842560dc8d)" style="fill: #c81847"/>
    <path d="M 158.159329 135.87286 
L 156.574006 136.017448 
L 153.147838 138.375058 
L 156.12727 138.103323 
z
" clip-path="url(#p842560dc8d)" style="fill: #951235"/>
    <path d="M 169.0017 163.94355 
L 166.383297 163.607062 
L 163.616447 167.075424 
L 165.00967 167.254466 
z
" clip-path="url(#p842560dc8d)" style="fill: #ea1c53"/>
    <path d="M 174.24684 159.802224 
L 171.964693 159.213534 
L 169.0017 163.94355 
L 170.695572 164.380492 
z
" clip-path="url(#p842560dc8d)" style="fill: #f71e58"/>
    <path d="M 165.00967 136.115027 
L 163.616447 135.935985 
L 166.383297 138.221958 
L 169.0017 138.558447 
z
" clip-path="url(#p842560dc8d)" style="fill: #b71641"/>
    <path d="M 170.695572 138.995389 
L 169.0017 138.558447 
L 171.964693 142.644584 
L 174.24684 143.233274 
z
" clip-path="url(#p842560dc8d)" style="fill: #d1194b"/>
    <path d="M 145.902672 148.200298 
L 144.132208 148.920231 
L 144.132208 154.674567 
L 145.902672 153.954634 
z
" clip-path="url(#p842560dc8d)" style="fill: #81102e"/>
    <path d="M 153.147838 163.760162 
L 150.961887 164.152224 
L 155.410886 167.365499 
L 156.574006 167.156887 
z
" clip-path="url(#p842560dc8d)" style="fill: #ba1742"/>
    <path d="M 145.902672 153.954634 
L 144.132208 154.674567 
L 146.102799 160.127778 
L 147.659719 159.49468 
z
" clip-path="url(#p842560dc8d)" style="fill: #8d1132"/>
    <path d="M 147.659719 142.92573 
L 146.102799 143.558828 
L 144.132208 148.920231 
L 145.902672 148.200298 
z
" clip-path="url(#p842560dc8d)" style="fill: #790f2b"/>
    <path d="M 156.574006 136.017448 
L 155.410886 136.22606 
L 150.961887 138.767121 
L 153.147838 138.375058 
z
" clip-path="url(#p842560dc8d)" style="fill: #871030"/>
    <path d="M 147.659719 159.49468 
L 146.102799 160.127778 
L 149.806299 164.622127 
L 150.961887 164.152224 
z
" clip-path="url(#p842560dc8d)" style="fill: #9c1338"/>
    <path d="M 170.695572 164.380492 
L 169.0017 163.94355 
L 165.00967 167.254466 
L 165.91096 167.486958 
z
" clip-path="url(#p842560dc8d)" style="fill: #e81c53"/>
    <path d="M 150.961887 138.767121 
L 149.806299 139.237024 
L 146.102799 143.558828 
L 147.659719 142.92573 
z
" clip-path="url(#p842560dc8d)" style="fill: #760e2a"/>
    <path d="M 165.91096 136.347519 
L 165.00967 136.115027 
L 169.0017 138.558447 
L 170.695572 138.995389 
z
" clip-path="url(#p842560dc8d)" style="fill: #b51641"/>
    <path d="M 161.882268 166.969235 
L 159.99506 166.947405 
L 160.470101 168.746936 
L 160.470101 168.746936 
z
" clip-path="url(#p842560dc8d)" style="fill: #ce194a"/>
    <path d="M 159.99506 166.947405 
L 158.159329 167.0123 
L 160.470101 168.746936 
L 160.470101 168.746936 
z
" clip-path="url(#p842560dc8d)" style="fill: #cb1948"/>
    <path d="M 150.961887 164.152224 
L 149.806299 164.622127 
L 154.79601 167.615529 
L 155.410886 167.365499 
z
" clip-path="url(#p842560dc8d)" style="fill: #ad153e"/>
    <path d="M 163.616447 167.075424 
L 161.882268 166.969235 
L 160.470101 168.746936 
L 160.470101 168.746936 
z
" clip-path="url(#p842560dc8d)" style="fill: #d1194b"/>
    <path d="M 177.033903 149.300818 
L 176.136431 148.550024 
L 176.136431 154.30436 
L 177.033903 155.055154 
z
" clip-path="url(#p842560dc8d)" style="fill: #ea1c54"/>
    <path d="M 160.470101 135.609037 
L 160.470101 135.609037 
L 159.99506 135.807965 
L 161.882268 135.829795 
z
" clip-path="url(#p842560dc8d)" style="fill: #a6143b"/>
    <path d="M 160.470101 135.609037 
L 160.470101 135.609037 
L 158.159329 135.87286 
L 159.99506 135.807965 
z
" clip-path="url(#p842560dc8d)" style="fill: #a6143b"/>
    <path d="M 177.033903 155.055154 
L 176.136431 154.30436 
L 174.24684 159.802224 
L 175.036064 160.462461 
z
" clip-path="url(#p842560dc8d)" style="fill: #f01d56"/>
    <path d="M 155.410886 136.22606 
L 154.79601 136.47609 
L 149.806299 139.237024 
L 150.961887 138.767121 
z
" clip-path="url(#p842560dc8d)" style="fill: #790f2b"/>
    <path d="M 158.159329 167.0123 
L 156.574006 167.156887 
L 160.470101 168.746936 
L 160.470101 168.746936 
z
" clip-path="url(#p842560dc8d)" style="fill: #c61847"/>
    <path d="M 175.036064 143.893511 
L 174.24684 143.233274 
L 176.136431 148.550024 
L 177.033903 149.300818 
z
" clip-path="url(#p842560dc8d)" style="fill: #dc1b4f"/>
    <path d="M 160.470101 135.609037 
L 160.470101 135.609037 
L 161.882268 135.829795 
L 163.616447 135.935985 
z
" clip-path="url(#p842560dc8d)" style="fill: #a6143b"/>
    <path d="M 160.470101 135.609037 
L 160.470101 135.609037 
L 156.574006 136.017448 
L 158.159329 135.87286 
z
" clip-path="url(#p842560dc8d)" style="fill: #a6143b"/>
    <path d="M 165.00967 167.254466 
L 163.616447 167.075424 
L 160.470101 168.746936 
L 160.470101 168.746936 
z
" clip-path="url(#p842560dc8d)" style="fill: #d21a4b"/>
    <path d="M 175.036064 160.462461 
L 174.24684 159.802224 
L 170.695572 164.380492 
L 171.281355 164.870538 
z
" clip-path="url(#p842560dc8d)" style="fill: #ed1d55"/>
    <path d="M 171.281355 139.485434 
L 170.695572 138.995389 
L 174.24684 143.233274 
L 175.036064 143.893511 
z
" clip-path="url(#p842560dc8d)" style="fill: #c81847"/>
    <path d="M 160.470101 135.609037 
L 160.470101 135.609037 
L 163.616447 135.935985 
L 165.00967 136.115027 
z
" clip-path="url(#p842560dc8d)" style="fill: #a6143b"/>
    <path d="M 156.574006 167.156887 
L 155.410886 167.365499 
L 160.470101 168.746936 
L 160.470101 168.746936 
z
" clip-path="url(#p842560dc8d)" style="fill: #c11745"/>
    <path d="M 160.470101 135.609037 
L 160.470101 135.609037 
L 155.410886 136.22606 
L 156.574006 136.017448 
z
" clip-path="url(#p842560dc8d)" style="fill: #a6143b"/>
    <path d="M 165.91096 167.486958 
L 165.00967 167.254466 
L 160.470101 168.746936 
L 160.470101 168.746936 
z
" clip-path="url(#p842560dc8d)" style="fill: #d1194b"/>
    <path d="M 171.281355 164.870538 
L 170.695572 164.380492 
L 165.91096 167.486958 
L 166.222649 167.747706 
z
" clip-path="url(#p842560dc8d)" style="fill: #e21b51"/>
    <path d="M 166.222649 136.608267 
L 165.91096 136.347519 
L 170.695572 138.995389 
L 171.281355 139.485434 
z
" clip-path="url(#p842560dc8d)" style="fill: #af153e"/>
    <path d="M 160.470101 135.609037 
L 160.470101 135.609037 
L 165.00967 136.115027 
L 165.91096 136.347519 
z
" clip-path="url(#p842560dc8d)" style="fill: #a6143b"/>
    <path d="M 155.410886 167.365499 
L 154.79601 167.615529 
L 160.470101 168.746936 
L 160.470101 168.746936 
z
" clip-path="url(#p842560dc8d)" style="fill: #bd1743"/>
    <path d="M 160.470101 135.609037 
L 160.470101 135.609037 
L 154.79601 136.47609 
L 155.410886 136.22606 
z
" clip-path="url(#p842560dc8d)" style="fill: #a6143b"/>
    <path d="M 166.222649 167.747706 
L 165.91096 167.486958 
L 160.470101 168.746936 
L 160.470101 168.746936 
z
" clip-path="url(#p842560dc8d)" style="fill: #cf194a"/>
    <path d="M 160.470101 135.609037 
L 160.470101 135.609037 
L 165.91096 136.347519 
L 166.222649 136.608267 
z
" clip-path="url(#p842560dc8d)" style="fill: #a6143b"/>
    <path d="M 154.79601 167.615529 
L 154.79601 167.879883 
L 160.470101 168.746936 
L 160.470101 168.746936 
z
" clip-path="url(#p842560dc8d)" style="fill: #b91642"/>
    <path d="M 149.806299 164.622127 
L 149.806299 165.118949 
L 154.79601 167.879883 
L 154.79601 167.615529 
z
" clip-path="url(#p842560dc8d)" style="fill: #a1143a"/>
    <path d="M 146.102799 160.127778 
L 146.102799 160.797144 
L 149.806299 165.118949 
L 149.806299 164.622127 
z
" clip-path="url(#p842560dc8d)" style="fill: #8b1132"/>
    <path d="M 144.132208 154.674567 
L 144.132208 155.435742 
L 146.102799 160.797144 
L 146.102799 160.127778 
z
" clip-path="url(#p842560dc8d)" style="fill: #780f2b"/>
    <path d="M 144.132208 148.920231 
L 144.132208 149.681406 
L 144.132208 155.435742 
L 144.132208 154.674567 
z
" clip-path="url(#p842560dc8d)" style="fill: #6a0d26"/>
    <path d="M 146.102799 143.558828 
L 146.102799 144.228195 
L 144.132208 149.681406 
L 144.132208 148.920231 
z
" clip-path="url(#p842560dc8d)" style="fill: #640c24"/>
    <path d="M 149.806299 139.237024 
L 149.806299 139.733845 
L 146.102799 144.228195 
L 146.102799 143.558828 
z
" clip-path="url(#p842560dc8d)" style="fill: #650c24"/>
    <path d="M 154.79601 136.47609 
L 154.79601 136.740443 
L 149.806299 139.733845 
L 149.806299 139.237024 
z
" clip-path="url(#p842560dc8d)" style="fill: #6e0d27"/>
    <path d="M 160.470101 135.609037 
L 160.470101 135.609037 
L 154.79601 136.740443 
L 154.79601 136.47609 
z
" clip-path="url(#p842560dc8d)" style="fill: #a6143b"/>
    <path d="M 165.91096 168.008454 
L 166.222649 167.747706 
L 160.470101 168.746936 
L 160.470101 168.746936 
z
" clip-path="url(#p842560dc8d)" style="fill: #cc1949"/>
    <path d="M 160.470101 135.609037 
L 160.470101 135.609037 
L 166.222649 136.608267 
L 165.91096 136.869015 
z
" clip-path="url(#p842560dc8d)" style="fill: #a6143b"/>
    <path d="M 154.79601 167.879883 
L 155.410886 168.129913 
L 160.470101 168.746936 
L 160.470101 168.746936 
z
" clip-path="url(#p842560dc8d)" style="fill: #b61641"/>
    <path d="M 160.470101 135.609037 
L 160.470101 135.609037 
L 155.410886 136.990473 
L 154.79601 136.740443 
z
" clip-path="url(#p842560dc8d)" style="fill: #a6143b"/>
    <path d="M 165.00967 168.240946 
L 165.91096 168.008454 
L 160.470101 168.746936 
L 160.470101 168.746936 
z
" clip-path="url(#p842560dc8d)" style="fill: #c71847"/>
    <path d="M 170.695572 165.360584 
L 171.281355 164.870538 
L 166.222649 167.747706 
L 165.91096 168.008454 
z
" clip-path="url(#p842560dc8d)" style="fill: #d81a4d"/>
    <path d="M 165.91096 136.869015 
L 166.222649 136.608267 
L 171.281355 139.485434 
L 170.695572 139.97548 
z
" clip-path="url(#p842560dc8d)" style="fill: #a5143b"/>
    <path d="M 160.470101 135.609037 
L 160.470101 135.609037 
L 165.91096 136.869015 
L 165.00967 137.101506 
z
" clip-path="url(#p842560dc8d)" style="fill: #a6143b"/>
    <path d="M 155.410886 168.129913 
L 156.574006 168.338525 
L 160.470101 168.746936 
L 160.470101 168.746936 
z
" clip-path="url(#p842560dc8d)" style="fill: #b41640"/>
    <path d="M 160.470101 135.609037 
L 160.470101 135.609037 
L 156.574006 137.199085 
L 155.410886 136.990473 
z
" clip-path="url(#p842560dc8d)" style="fill: #a6143b"/>
    <path d="M 163.616447 168.419988 
L 165.00967 168.240946 
L 160.470101 168.746936 
L 160.470101 168.746936 
z
" clip-path="url(#p842560dc8d)" style="fill: #c21845"/>
    <path d="M 174.24684 161.122698 
L 175.036064 160.462461 
L 171.281355 164.870538 
L 170.695572 165.360584 
z
" clip-path="url(#p842560dc8d)" style="fill: #de1b4f"/>
    <path d="M 170.695572 139.97548 
L 171.281355 139.485434 
L 175.036064 143.893511 
L 174.24684 144.553749 
z
" clip-path="url(#p842560dc8d)" style="fill: #b81642"/>
    <path d="M 160.470101 135.609037 
L 160.470101 135.609037 
L 165.00967 137.101506 
L 163.616447 137.280548 
z
" clip-path="url(#p842560dc8d)" style="fill: #a6143b"/>
    <path d="M 156.574006 168.338525 
L 158.159329 168.483112 
L 160.470101 168.746936 
L 160.470101 168.746936 
z
" clip-path="url(#p842560dc8d)" style="fill: #b51640"/>
    <path d="M 161.882268 168.526177 
L 163.616447 168.419988 
L 160.470101 168.746936 
L 160.470101 168.746936 
z
" clip-path="url(#p842560dc8d)" style="fill: #be1744"/>
    <path d="M 176.136431 155.805948 
L 177.033903 155.055154 
L 175.036064 160.462461 
L 174.24684 161.122698 
z
" clip-path="url(#p842560dc8d)" style="fill: #de1b4f"/>
    <path d="M 160.470101 135.609037 
L 160.470101 135.609037 
L 158.159329 137.343673 
L 156.574006 137.199085 
z
" clip-path="url(#p842560dc8d)" style="fill: #a6143b"/>
    <path d="M 149.806299 165.118949 
L 150.961887 165.588852 
L 155.410886 168.129913 
L 154.79601 167.879883 
z
" clip-path="url(#p842560dc8d)" style="fill: #991337"/>
    <path d="M 174.24684 144.553749 
L 175.036064 143.893511 
L 177.033903 149.300818 
L 176.136431 150.051612 
z
" clip-path="url(#p842560dc8d)" style="fill: #ca1948"/>
    <path d="M 158.159329 168.483112 
L 159.99506 168.548007 
L 160.470101 168.746936 
L 160.470101 168.746936 
z
" clip-path="url(#p842560dc8d)" style="fill: #b61641"/>
    <path d="M 159.99506 168.548007 
L 161.882268 168.526177 
L 160.470101 168.746936 
L 160.470101 168.746936 
z
" clip-path="url(#p842560dc8d)" style="fill: #b91742"/>
    <path d="M 176.136431 150.051612 
L 177.033903 149.300818 
L 177.033903 155.055154 
L 176.136431 155.805948 
z
" clip-path="url(#p842560dc8d)" style="fill: #d71a4d"/>
    <path d="M 160.470101 135.609037 
L 160.470101 135.609037 
L 163.616447 137.280548 
L 161.882268 137.386738 
z
" clip-path="url(#p842560dc8d)" style="fill: #a6143b"/>
    <path d="M 154.79601 136.740443 
L 155.410886 136.990473 
L 150.961887 140.203748 
L 149.806299 139.733845 
z
" clip-path="url(#p842560dc8d)" style="fill: #660c24"/>
    <path d="M 160.470101 135.609037 
L 160.470101 135.609037 
L 159.99506 137.408568 
L 158.159329 137.343673 
z
" clip-path="url(#p842560dc8d)" style="fill: #a6143b"/>
    <path d="M 160.470101 135.609037 
L 160.470101 135.609037 
L 161.882268 137.386738 
L 159.99506 137.408568 
z
" clip-path="url(#p842560dc8d)" style="fill: #a6143b"/>
    <path d="M 169.0017 165.797526 
L 170.695572 165.360584 
L 165.91096 168.008454 
L 165.00967 168.240946 
z
" clip-path="url(#p842560dc8d)" style="fill: #cc1949"/>
    <path d="M 146.102799 160.797144 
L 147.659719 161.430243 
L 150.961887 165.588852 
L 149.806299 165.118949 
z
" clip-path="url(#p842560dc8d)" style="fill: #7e0f2d"/>
    <path d="M 165.00967 137.101506 
L 165.91096 136.869015 
L 170.695572 139.97548 
L 169.0017 140.412422 
z
" clip-path="url(#p842560dc8d)" style="fill: #981336"/>
    <path d="M 149.806299 139.733845 
L 150.961887 140.203748 
L 147.659719 144.861293 
L 146.102799 144.228195 
z
" clip-path="url(#p842560dc8d)" style="fill: #590b20"/>
    <path d="M 150.961887 165.588852 
L 153.147838 165.980914 
L 156.574006 168.338525 
L 155.410886 168.129913 
z
" clip-path="url(#p842560dc8d)" style="fill: #951235"/>
    <path d="M 144.132208 155.435742 
L 145.902672 156.155675 
L 147.659719 161.430243 
L 146.102799 160.797144 
z
" clip-path="url(#p842560dc8d)" style="fill: #690d25"/>
    <path d="M 146.102799 144.228195 
L 147.659719 144.861293 
L 145.902672 150.401339 
L 144.132208 149.681406 
z
" clip-path="url(#p842560dc8d)" style="fill: #550a1e"/>
    <path d="M 155.410886 136.990473 
L 156.574006 137.199085 
L 153.147838 140.595811 
L 150.961887 140.203748 
z
" clip-path="url(#p842560dc8d)" style="fill: #620c23"/>
    <path d="M 144.132208 149.681406 
L 145.902672 150.401339 
L 145.902672 156.155675 
L 144.132208 155.435742 
z
" clip-path="url(#p842560dc8d)" style="fill: #5a0b20"/>
    <path d="M 171.964693 161.711388 
L 174.24684 161.122698 
L 170.695572 165.360584 
L 169.0017 165.797526 
z
" clip-path="url(#p842560dc8d)" style="fill: #cb1949"/>
    <path d="M 166.383297 166.134014 
L 169.0017 165.797526 
L 165.00967 168.240946 
L 163.616447 168.419988 
z
" clip-path="url(#p842560dc8d)" style="fill: #be1744"/>
    <path d="M 169.0017 140.412422 
L 170.695572 139.97548 
L 174.24684 144.553749 
L 171.964693 145.142439 
z
" clip-path="url(#p842560dc8d)" style="fill: #a5143b"/>
    <path d="M 163.616447 137.280548 
L 165.00967 137.101506 
L 169.0017 140.412422 
L 166.383297 140.748911 
z
" clip-path="url(#p842560dc8d)" style="fill: #8a1131"/>
    <path d="M 153.147838 165.980914 
L 156.12727 166.25265 
L 158.159329 168.483112 
L 156.574006 168.338525 
z
" clip-path="url(#p842560dc8d)" style="fill: #961235"/>
    <path d="M 156.574006 137.199085 
L 158.159329 137.343673 
L 156.12727 140.867546 
L 153.147838 140.595811 
z
" clip-path="url(#p842560dc8d)" style="fill: #620c23"/>
    <path d="M 173.541268 156.475382 
L 176.136431 155.805948 
L 174.24684 161.122698 
L 171.964693 161.711388 
z
" clip-path="url(#p842560dc8d)" style="fill: #c61847"/>
    <path d="M 171.964693 145.142439 
L 174.24684 144.553749 
L 176.136431 150.051612 
L 173.541268 150.721046 
z
" clip-path="url(#p842560dc8d)" style="fill: #b21640"/>
    <path d="M 163.124107 166.333585 
L 166.383297 166.134014 
L 163.616447 168.419988 
L 161.882268 168.526177 
z
" clip-path="url(#p842560dc8d)" style="fill: #b0153f"/>
    <path d="M 147.659719 161.430243 
L 150.604843 161.958467 
L 153.147838 165.980914 
L 150.961887 165.588852 
z
" clip-path="url(#p842560dc8d)" style="fill: #780f2b"/>
    <path d="M 161.882268 137.386738 
L 163.616447 137.280548 
L 166.383297 140.748911 
L 163.124107 140.948482 
z
" clip-path="url(#p842560dc8d)" style="fill: #7d0f2c"/>
    <path d="M 173.541268 150.721046 
L 176.136431 150.051612 
L 176.136431 155.805948 
L 173.541268 156.475382 
z
" clip-path="url(#p842560dc8d)" style="fill: #be1744"/>
    <path d="M 150.961887 140.203748 
L 153.147838 140.595811 
L 150.604843 145.389517 
L 147.659719 144.861293 
z
" clip-path="url(#p842560dc8d)" style="fill: #520a1d"/>
    <path d="M 156.12727 166.25265 
L 159.577315 166.374613 
L 159.99506 168.548007 
L 158.159329 168.483112 
z
" clip-path="url(#p842560dc8d)" style="fill: #9b1337"/>
    <path d="M 159.577315 166.374613 
L 163.124107 166.333585 
L 161.882268 168.526177 
L 159.99506 168.548007 
z
" clip-path="url(#p842560dc8d)" style="fill: #a4143b"/>
    <path d="M 158.159329 137.343673 
L 159.99506 137.408568 
L 159.577315 140.989509 
L 156.12727 140.867546 
z
" clip-path="url(#p842560dc8d)" style="fill: #680d25"/>
    <path d="M 159.99506 137.408568 
L 161.882268 137.386738 
L 163.124107 140.948482 
L 159.577315 140.989509 
z
" clip-path="url(#p842560dc8d)" style="fill: #710e28"/>
    <path d="M 168.436928 162.164738 
L 171.964693 161.711388 
L 169.0017 165.797526 
L 166.383297 166.134014 
z
" clip-path="url(#p842560dc8d)" style="fill: #b61641"/>
    <path d="M 166.383297 140.748911 
L 169.0017 140.412422 
L 171.964693 145.142439 
L 168.436928 145.595788 
z
" clip-path="url(#p842560dc8d)" style="fill: #901233"/>
    <path d="M 145.902672 156.155675 
L 149.251743 156.756349 
L 150.604843 161.958467 
L 147.659719 161.430243 
z
" clip-path="url(#p842560dc8d)" style="fill: #610c23"/>
    <path d="M 147.659719 144.861293 
L 150.604843 145.389517 
L 149.251743 151.002013 
L 145.902672 150.401339 
z
" clip-path="url(#p842560dc8d)" style="fill: #4d091c"/>
    <path d="M 145.902672 150.401339 
L 149.251743 151.002013 
L 149.251743 156.756349 
L 145.902672 156.155675 
z
" clip-path="url(#p842560dc8d)" style="fill: #520a1d"/>
    <path d="M 150.604843 161.958467 
L 154.619021 162.324575 
L 156.12727 166.25265 
L 153.147838 165.980914 
z
" clip-path="url(#p842560dc8d)" style="fill: #790f2b"/>
    <path d="M 153.147838 140.595811 
L 156.12727 140.867546 
L 154.619021 145.755626 
L 150.604843 145.389517 
z
" clip-path="url(#p842560dc8d)" style="fill: #530a1e"/>
    <path d="M 169.529642 156.990912 
L 173.541268 156.475382 
L 171.964693 161.711388 
L 168.436928 162.164738 
z
" clip-path="url(#p842560dc8d)" style="fill: #ad153e"/>
    <path d="M 168.436928 145.595788 
L 171.964693 145.142439 
L 173.541268 150.721046 
L 169.529642 151.236576 
z
" clip-path="url(#p842560dc8d)" style="fill: #981336"/>
    <path d="M 164.045834 162.433619 
L 168.436928 162.164738 
L 166.383297 166.134014 
L 163.124107 166.333585 
z
" clip-path="url(#p842560dc8d)" style="fill: #a1143a"/>
    <path d="M 163.124107 140.948482 
L 166.383297 140.748911 
L 168.436928 145.595788 
L 164.045834 145.86467 
z
" clip-path="url(#p842560dc8d)" style="fill: #7b0f2c"/>
    <path d="M 169.529642 151.236576 
L 173.541268 150.721046 
L 173.541268 156.475382 
L 169.529642 156.990912 
z
" clip-path="url(#p842560dc8d)" style="fill: #a2143a"/>
    <path d="M 154.619021 162.324575 
L 159.267254 162.488895 
L 159.577315 166.374613 
L 156.12727 166.25265 
z
" clip-path="url(#p842560dc8d)" style="fill: #81102e"/>
    <path d="M 156.12727 140.867546 
L 159.577315 140.989509 
L 159.267254 145.919946 
L 154.619021 145.755626 
z
" clip-path="url(#p842560dc8d)" style="fill: #5b0b21"/>
    <path d="M 159.267254 162.488895 
L 164.045834 162.433619 
L 163.124107 166.333585 
L 159.577315 166.374613 
z
" clip-path="url(#p842560dc8d)" style="fill: #8f1133"/>
    <path d="M 159.577315 140.989509 
L 163.124107 140.948482 
L 164.045834 145.86467 
L 159.267254 145.919946 
z
" clip-path="url(#p842560dc8d)" style="fill: #690d25"/>
    <path d="M 149.251743 156.756349 
L 153.816498 157.172673 
L 154.619021 162.324575 
L 150.604843 161.958467 
z
" clip-path="url(#p842560dc8d)" style="fill: #620c23"/>
    <path d="M 150.604843 145.389517 
L 154.619021 145.755626 
L 153.816498 151.418337 
L 149.251743 151.002013 
z
" clip-path="url(#p842560dc8d)" style="fill: #4e0a1c"/>
    <path d="M 149.251743 151.002013 
L 153.816498 151.418337 
L 153.816498 157.172673 
L 149.251743 156.756349 
z
" clip-path="url(#p842560dc8d)" style="fill: #530a1e"/>
    <path d="M 164.536274 157.296673 
L 169.529642 156.990912 
L 168.436928 162.164738 
L 164.045834 162.433619 
z
" clip-path="url(#p842560dc8d)" style="fill: #931234"/>
    <path d="M 164.045834 145.86467 
L 168.436928 145.595788 
L 169.529642 151.236576 
L 164.536274 151.542337 
z
" clip-path="url(#p842560dc8d)" style="fill: #7f0f2d"/>
    <path d="M 153.816498 157.172673 
L 159.102273 157.35953 
L 159.267254 162.488895 
L 154.619021 162.324575 
z
" clip-path="url(#p842560dc8d)" style="fill: #6c0d26"/>
    <path d="M 154.619021 145.755626 
L 159.267254 145.919946 
L 159.102273 151.605194 
L 153.816498 151.418337 
z
" clip-path="url(#p842560dc8d)" style="fill: #580b1f"/>
    <path d="M 164.536274 151.542337 
L 169.529642 151.236576 
L 169.529642 156.990912 
L 164.536274 157.296673 
z
" clip-path="url(#p842560dc8d)" style="fill: #871030"/>
    <path d="M 159.102273 157.35953 
L 164.536274 157.296673 
L 164.045834 162.433619 
L 159.267254 162.488895 
z
" clip-path="url(#p842560dc8d)" style="fill: #7d0f2c"/>
    <path d="M 159.267254 145.919946 
L 164.045834 145.86467 
L 164.536274 151.542337 
L 159.102273 151.605194 
z
" clip-path="url(#p842560dc8d)" style="fill: #690d25"/>
    <path d="M 153.816498 151.418337 
L 159.102273 151.605194 
L 159.102273 157.35953 
L 153.816498 157.172673 
z
" clip-path="url(#p842560dc8d)" style="fill: #5d0b21"/>
    <path d="M 159.102273 151.605194 
L 164.536274 151.542337 
L 164.536274 157.296673 
L 159.102273 157.35953 
z
" clip-path="url(#p842560dc8d)" style="fill: #6f0e28"/>
   </g>
   <g id="line2d_1">
    <path d="M 39.378547 16.320074 
L 39.490506 16.480404 
L 39.728894 16.631243 
L 39.551652 16.649147 
L 32.250068 16.780387 
L 28.431752 17.104179 
L 27.606848 17.579747 
L 27.30125 17.972847 
L 27.299916 18.319764 
L 27.54713 18.664213 
L 28.127248 19.048517 
L 29.274811 19.504497 
L 31.205456 19.999095 
L 34.070573 20.480019 
L 37.861739 20.87646 
L 42.299172 21.108403 
L 46.544728 21.113966 
L 49.715715 20.915205 
L 51.196768 20.641817 
L 51.487487 20.427521 
L 51.352569 20.290196 
L 50.734177 20.10422 
L 49.078351 19.888157 
L 46.018102 19.740041 
L 41.916508 19.76936 
L 37.472908 20.021413 
L 33.502008 20.466367 
L 30.571748 21.007965 
L 28.693137 21.566836 
L 27.689538 22.084784 
L 27.330022 22.476605 
L 27.280826 22.823425 
L 27.480571 23.168734 
L 28.008171 23.555169 
L 29.094743 24.015446 
L 30.785581 24.478081 
L 33.337245 24.946002 
L 36.798882 25.356381 
L 40.996261 25.633648 
L 45.434079 25.705704 
L 48.96387 25.558254 
L 50.915157 25.292551 
L 51.476971 25.044003 
L 51.42542 24.906052 
L 50.995624 24.734556 
L 49.684815 24.518053 
L 47.085905 24.340396 
L 43.196353 24.308522 
L 38.792327 24.492823 
L 34.695333 24.875997 
L 31.346103 25.408596 
L 29.24236 25.942687 
L 28.017224 26.446767 
L 27.441273 26.882077 
L 27.273212 27.227857 
L 27.354247 27.57451 
L 27.682712 27.917053 
L 28.457145 28.343559 
L 29.751271 28.787954 
L 31.830943 29.263526 
L 34.821769 29.716667 
L 38.680906 30.076811 
L 43.090304 30.266781 
L 47.19091 30.232746 
L 50.120052 30.005043 
L 51.348632 29.7188 
L 51.481154 29.542023 
L 51.29966 29.405293 
L 50.616853 29.221762 
L 48.879676 29.012076 
L 45.743059 28.875608 
L 41.596817 28.920428 
L 37.151649 29.189188 
L 33.21909 29.648996 
L 30.351186 30.201493 
L 28.543636 30.767291 
L 27.669491 31.240352 
L 27.322505 31.632489 
L 27.284451 31.979348 
L 27.495262 32.324473 
L 28.035126 32.71043 
L 29.135973 33.169728 
L 31.018397 33.669952 
L 33.841674 34.159271 
L 37.608105 34.566865 
L 42.050088 34.811911 
L 46.336777 34.830066 
L 49.58008 34.64077 
L 51.195099 34.353034 
L 51.487531 34.138763 
L 51.353706 34.001427 
L 50.73683 33.815396 
L 49.082926 33.599187 
L 46.024496 33.450802 
L 41.923984 33.479759 
L 37.480459 33.73142 
L 33.508695 34.176024 
L 30.576998 34.717364 
L 28.696736 35.276068 
L 27.691537 35.793929 
L 27.330789 36.185718 
L 27.280496 36.532533 
L 27.479152 36.87786 
L 28.005544 37.264341 
L 29.090708 37.724714 
L 30.780196 38.187498 
L 33.33062 38.655644 
L 36.791412 39.066328 
L 40.988683 39.343965 
L 45.427456 39.416412 
L 48.959196 39.269274 
L 50.912832 39.003743 
L 51.476647 38.755244 
L 51.426192 38.617289 
L 50.997779 38.445755 
L 49.688827 38.229137 
L 47.091801 38.05125 
L 43.203608 38.019033 
L 38.799965 38.202947 
L 34.702386 38.58576 
L 31.351826 39.118063 
L 29.246546 39.651968 
L 28.019872 40.155941 
L 27.442559 40.5912 
L 27.273406 40.936965 
L 27.353346 41.283625 
L 27.680734 41.626197 
L 28.453844 42.052771 
L 29.746635 42.49728 
L 31.824965 42.973035 
L 34.814685 43.426439 
L 38.673272 43.786924 
L 43.083025 43.977283 
L 47.185066 43.94361 
L 50.11652 43.716165 
L 51.347474 43.43003 
L 51.481403 43.253264 
L 51.301 43.116518 
L 50.619698 42.932928 
L 48.884415 42.723088 
L 45.749563 42.586344 
L 41.604333 42.630799 
L 37.159165 42.899166 
L 35.404224 43.152835 
L 34.564211 43.605122 
L 34.284846 43.980376 
L 34.328781 44.27974 
L 34.643461 44.597487 
L 35.344115 44.950778 
L 36.742494 45.375559 
L 39.377675 46.127514 
L 39.378547 46.142315 
L 39.378547 46.142315 
" clip-path="url(#p842560dc8d)" style="fill: none; stroke: #000000; stroke-linecap: square"/>
   </g>
   <g id="line2d_2">
    <path d="M 99.924324 16.320074 
L 100.036283 16.659426 
L 100.24274 17.179467 
L 99.972225 17.32016 
L 99.039519 17.485082 
L 94.687253 17.901397 
L 89.086001 18.54993 
L 88.278944 19.108978 
L 87.893184 19.619447 
L 87.820617 20.070582 
L 87.997114 20.520675 
L 88.419042 20.96476 
L 89.190412 21.458731 
L 90.556928 22.045885 
L 92.708851 22.690257 
L 95.52612 23.295569 
L 99.397135 23.886805 
L 104.032642 24.355052 
L 108.760354 24.607008 
L 111.919011 24.578151 
L 112.033264 24.545049 
L 111.764755 24.499356 
L 109.913235 24.464867 
L 105.92861 24.608853 
L 101.23685 24.993114 
L 96.804509 25.577291 
L 93.407852 26.233425 
L 90.948929 26.911343 
L 89.357996 27.548598 
L 88.374821 28.164694 
L 87.935565 28.673575 
L 87.815205 29.12434 
L 87.94402 29.57502 
L 88.319359 30.020639 
L 89.040051 30.517479 
L 90.349047 31.10978 
L 92.249924 31.710787 
L 94.9891 32.334745 
L 98.56939 32.918452 
L 103.002893 33.410594 
L 107.801693 33.715976 
L 111.533969 33.748086 
L 112.033473 33.687132 
L 111.671752 33.633261 
L 109.525661 33.610031 
L 105.347051 33.785069 
L 100.579365 34.205312 
L 96.408886 34.782871 
L 93.064939 35.454991 
L 90.678007 36.144402 
L 89.163188 36.789022 
L 88.32688 37.346453 
L 87.91372 37.856136 
L 87.8167 38.307105 
L 87.968824 38.757521 
L 88.366962 39.202413 
L 89.112483 39.697875 
L 90.449707 40.287689 
L 92.37672 40.885099 
L 95.138414 41.503888 
L 98.73151 42.080854 
L 103.160278 42.564668 
L 107.92479 42.861064 
L 111.579256 42.886231 
L 112.033079 42.829216 
L 111.692162 42.774999 
L 109.577422 42.749673 
L 105.423217 42.920612 
L 100.664559 43.336169 
L 96.490634 43.909624 
L 93.135434 44.578448 
L 90.733339 45.265503 
L 89.202585 45.908625 
L 88.281042 46.528301 
L 87.894053 47.038735 
L 87.82039 47.489865 
L 87.995795 47.939973 
L 88.41666 48.384095 
L 89.186875 48.878133 
L 90.552085 49.465408 
L 92.702712 50.10997 
L 95.518996 50.71553 
L 99.389496 51.307108 
L 104.025448 51.775763 
L 108.755124 52.028136 
L 111.91796 51.999558 
L 112.033308 51.966466 
L 111.766354 51.920749 
L 109.917555 51.886097 
L 105.935249 52.029732 
L 101.244451 52.413579 
L 96.811898 52.997365 
L 93.414298 53.6532 
L 90.954064 54.330902 
L 89.361733 54.968016 
L 88.377121 55.584025 
L 87.936643 56.092868 
L 87.815189 56.543622 
L 87.94291 56.994313 
L 88.317178 57.439965 
L 89.036702 57.936869 
L 90.344369 58.529285 
L 92.244011 59.130459 
L 94.982118 59.754659 
L 98.561792 60.338682 
L 102.995497 60.831214 
L 107.795884 61.13702 
L 111.531793 61.169458 
L 112.033462 61.108549 
L 111.673605 61.054646 
L 109.530318 61.031227 
L 105.353887 61.205896 
L 100.587 61.625719 
L 96.416204 62.202911 
L 93.071242 62.874736 
L 90.682946 63.563936 
L 89.166697 64.208423 
L 88.329082 64.76578 
L 87.914696 65.275427 
L 87.816581 65.726387 
L 87.967612 66.176816 
L 88.364683 66.621743 
L 89.109042 67.117271 
L 90.444948 67.707203 
L 92.370742 68.304783 
L 95.131391 68.923815 
L 98.723901 69.501098 
L 103.152909 69.985302 
L 107.919048 70.282118 
L 111.577179 70.307608 
L 112.033015 70.250632 
L 111.693963 70.196386 
L 109.582036 70.170873 
L 105.430028 70.341446 
L 100.672191 70.756584 
L 96.497967 71.329671 
L 95.950001 71.513054 
L 95.182856 72.014327 
L 94.871264 72.429881 
L 94.834035 72.826214 
L 95.024203 73.198919 
L 95.546482 73.654178 
L 96.569125 74.198164 
L 99.876828 75.760674 
L 99.924324 75.964555 
L 99.924324 75.964555 
" clip-path="url(#p842560dc8d)" style="fill: none; stroke: #000000; stroke-linecap: square"/>
   </g>
   <g id="line2d_3">
    <path d="M 160.470101 16.320074 
L 160.58206 17.017472 
L 160.810151 18.159241 
L 160.643206 18.528888 
L 160.218768 18.882221 
L 159.354303 19.272806 
L 157.65789 19.766974 
L 153.341621 20.718892 
L 149.523305 21.624509 
L 148.824721 22.361228 
L 148.469636 23.016315 
L 148.361491 23.676052 
L 148.50251 24.33546 
L 148.889792 24.989563 
L 149.623497 25.724386 
L 150.7959 26.526605 
L 152.481973 27.377092 
L 154.720258 28.250771 
L 157.731391 29.185458 
L 161.67926 30.1756 
L 167.434588 31.368342 
L 171.875076 32.343772 
L 172.544231 32.679967 
L 172.551686 32.855202 
L 172.256012 33.058633 
L 171.335607 33.356825 
L 168.674625 33.933894 
L 160.295046 35.694871 
L 156.401946 36.747735 
L 153.540563 37.729398 
L 151.494706 38.637347 
L 150.0273 39.513059 
L 149.079536 40.332238 
L 148.561279 41.077075 
L 148.369957 41.735807 
L 148.427625 42.395881 
L 148.733097 43.05231 
L 149.280088 43.700181 
L 150.186297 44.424063 
L 151.534481 45.209467 
L 153.589106 46.11602 
L 156.224183 47.024233 
L 159.857671 48.024507 
L 164.731398 49.112029 
L 172.211135 50.748074 
L 172.576434 51.027353 
L 172.489285 51.202891 
L 172.014658 51.435491 
L 170.643825 51.804652 
L 165.892828 52.761502 
L 160.132058 54.015369 
L 156.248769 55.075541 
L 153.407501 56.062562 
L 151.386088 56.974333 
L 149.945718 57.852778 
L 149.025246 58.673712 
L 148.532827 59.419499 
L 148.364765 60.078569 
L 148.445801 60.738513 
L 148.774266 61.394346 
L 149.343402 62.041168 
L 150.273301 62.763325 
L 151.645311 63.546173 
L 153.723872 64.448841 
L 156.377238 65.352085 
L 160.020538 66.34552 
L 164.883605 67.423893 
L 172.125033 68.993746 
L 172.564633 69.274573 
L 172.525319 69.449868 
L 172.176916 69.654509 
L 171.069918 69.985446 
L 167.657419 70.69544 
L 160.714057 72.156046 
L 156.563097 73.260572 
L 153.68121 74.236585 
L 151.44274 75.225766 
L 149.988185 76.102786 
L 149.053406 76.922809 
L 148.547451 77.668104 
L 148.367209 78.327003 
L 148.436015 78.98702 
L 148.752451 79.64317 
L 149.310008 80.290547 
L 150.227527 81.013612 
L 151.587096 81.797804 
L 153.653175 82.702511 
L 156.297027 83.608361 
L 159.935273 84.605378 
L 164.80403 85.688537 
L 172.168207 87.291816 
L 172.571546 87.571851 
L 172.508857 87.747242 
L 172.134182 87.952563 
L 170.99014 88.285615 
L 167.525568 89.002072 
L 160.551047 90.475757 
L 156.643966 91.51711 
L 153.752042 92.490282 
L 151.499841 93.477255 
L 150.031173 94.352837 
L 149.082133 95.171933 
L 148.562666 95.916724 
L 148.370254 96.575439 
L 148.426826 97.235518 
L 148.731219 97.891974 
L 149.277168 98.539893 
L 150.182262 99.263855 
L 151.529322 100.049378 
L 153.582815 100.956112 
L 156.217023 101.864557 
L 159.850034 102.865151 
L 164.72424 103.953103 
L 172.209262 105.589807 
L 172.576266 105.869119 
L 172.490213 106.044649 
L 172.016963 106.277208 
L 170.64797 106.646248 
L 165.899664 107.602679 
L 160.139701 108.856039 
L 156.255937 109.915868 
L 153.413714 110.902639 
L 151.391146 111.814231 
L 149.949502 112.692549 
L 149.027746 113.513402 
L 148.534113 114.259146 
L 148.36496 114.918201 
L 148.4449 115.578152 
L 148.772288 116.234013 
L 149.340387 116.880886 
L 150.269178 117.603125 
L 151.640077 118.386094 
L 153.717524 119.288945 
L 156.370043 120.192423 
L 160.012897 121.186179 
L 164.876484 122.26498 
L 172.122956 123.835472 
L 172.564255 124.116338 
L 172.526037 124.291629 
L 172.178869 124.49624 
L 171.073613 124.827079 
L 167.663571 125.536773 
L 160.473358 127.056076 
L 156.806269 128.030424 
L 156.000921 128.640894 
L 155.535744 129.242987 
L 155.366993 129.828593 
L 155.449514 130.392596 
L 155.798856 131.018455 
L 156.52767 131.76746 
L 157.834048 132.738761 
L 159.802151 134.205224 
L 160.292429 134.847504 
L 160.461944 135.431025 
L 160.470101 135.609037 
L 160.470101 135.609037 
" clip-path="url(#p842560dc8d)" style="fill: none; stroke: #000000; stroke-linecap: square"/>
   </g>
   <g id="Poly3DCollection_4">
    <defs>
     <path id="m8855527a3e" d="M 25.808593 -171.771645 
L 10.277687 -175.742818 
L 52.948502 -177.188207 
L 68.479408 -173.217034 
z
" style="stroke: #000000; stroke-width: 0.5"/>
    </defs>
    <g clip-path="url(#p842560dc8d)">
     <use xlink:href="#m8855527a3e" x="0" y="190.8" style="fill: #a0b1ba; stroke: #000000; stroke-width: 0.5"/>
    </g>
   </g>
   <g id="Poly3DCollection_5">
    <defs>
     <path id="m98c5c2622d" d="M 86.35437 -171.771645 
L 70.823464 -175.742818 
L 113.494279 -177.188207 
L 129.025185 -173.217034 
z
" style="stroke: #000000; stroke-width: 0.5"/>
    </defs>
    <g clip-path="url(#p842560dc8d)">
     <use xlink:href="#m98c5c2622d" x="0" y="190.8" style="fill: #a0b1ba; stroke: #000000; stroke-width: 0.5"/>
    </g>
   </g>
   <g id="Poly3DCollection_6">
    <defs>
     <path id="m760489ef9a" d="M 146.900147 -171.771645 
L 131.369241 -175.742818 
L 174.040055 -177.188207 
L 189.570962 -173.217034 
z
" style="stroke: #000000; stroke-width: 0.5"/>
    </defs>
    <g clip-path="url(#p842560dc8d)">
     <use xlink:href="#m760489ef9a" x="0" y="190.8" style="fill: #a0b1ba; stroke: #000000; stroke-width: 0.5"/>
    </g>
   </g>
  </g>
 </g>
 <defs>
  <clipPath id="p842560dc8d">
   <rect x="-72" y="-72" width="334.8" height="334.8"/>
  </clipPath>
 </defs>
</svg>
