<?xml version="1.0" encoding="utf-8" standalone="no"?>
<!DOCTYPE svg PUBLIC "-//W3C//DTD SVG 1.1//EN"
  "http://www.w3.org/Graphics/SVG/1.1/DTD/svg11.dtd">
<svg xmlns:xlink="http://www.w3.org/1999/xlink" width="221.80322pt" height="97.56pt" viewBox="0 0 221.80322 97.56" xmlns="http://www.w3.org/2000/svg" version="1.1">
 <metadata>
  <rdf:RDF xmlns:dc="http://purl.org/dc/elements/1.1/" xmlns:cc="http://creativecommons.org/ns#" xmlns:rdf="http://www.w3.org/1999/02/22-rdf-syntax-ns#">
   <cc:Work>
    <dc:type rdf:resource="http://purl.org/dc/dcmitype/StillImage"/>
    <dc:date>2022-10-03T11:27:57.024958</dc:date>
    <dc:format>image/svg+xml</dc:format>
    <dc:creator>
     <cc:Agent>
      <dc:title>Matplotlib v3.5.2, https://matplotlib.org/</dc:title>
     </cc:Agent>
    </dc:creator>
   </cc:Work>
  </rdf:RDF>
 </metadata>
 <defs>
  <style type="text/css">*{stroke-linejoin: round; stroke-linecap: butt}</style>
 </defs>
 <g id="figure_1">
  <g id="patch_1">
   <path d="M 0 97.56 
L 221.80322 97.56 
L 221.80322 0 
L 0 0 
L 0 97.56 
z
" style="fill: none"/>
  </g>
  <g id="axes_1">
   <g id="line2d_1">
    <path d="M 48.78 90.36 
L 48.78 7.2 
" clip-path="url(#p1cf2ed05d8)" style="fill: none; stroke: #000000; stroke-width: 0.5; stroke-linecap: square"/>
   </g>
   <g id="line2d_2">
    <path d="M 7.2 48.78 
L 90.36 48.78 
" clip-path="url(#p1cf2ed05d8)" style="fill: none; stroke: #000000; stroke-width: 0.5; stroke-linecap: square"/>
   </g>
   <g id="line2d_3">
    <path d="M 50.11885 46.1023 
L 47.44115 44.763449 
L 46.1023 47.44115 
" clip-path="url(#p1cf2ed05d8)" style="fill: none; stroke: #000000; stroke-width: 0.5; stroke-linecap: square"/>
   </g>
   <g id="patch_2">
    <path d="M 58.077571 30.184859 
L 57.408146 35.428689 
L 56.515579 33.866697 
L 49.003142 48.891571 
L 48.556858 48.668429 
L 56.069295 33.643555 
L 54.284162 33.866697 
z
" clip-path="url(#p1cf2ed05d8)" style="fill: #ff1f5b"/>
   </g>
   <g id="patch_3">
    <path d="M 30.184859 39.482429 
L 35.428689 40.151854 
L 33.866697 41.044421 
L 48.891571 48.556858 
L 48.668429 49.003142 
L 33.643555 41.490705 
L 33.866697 43.275838 
z
" clip-path="url(#p1cf2ed05d8)" style="fill: #00cd6c"/>
   </g>
   <g id="line2d_4">
    <path d="M 69.57 48.78 
L 69.455348 46.599612 
L 69.112656 44.443273 
L 68.545704 42.334765 
L 67.760745 40.297346 
L 66.766437 38.353487 
L 65.573747 36.524627 
L 64.195829 34.830939 
L 62.647882 33.291102 
L 60.946978 31.922101 
L 59.111878 30.739036 
L 57.162822 29.754953 
L 55.121307 28.980709 
L 53.009851 28.424842 
L 50.851741 28.093483 
L 48.67078 27.990287 
L 46.491025 28.116392 
L 44.336515 28.470408 
L 42.231016 29.048429 
L 40.197748 29.84408 
L 38.259139 30.848586 
L 36.436571 32.050868 
L 34.750145 33.437664 
L 33.218462 34.99368 
L 31.858415 36.701752 
L 30.685006 38.543042 
L 29.711177 40.497241 
L 28.947668 42.542795 
L 28.402901 44.657143 
L 28.082884 46.816964 
L 27.991148 48.998436 
L 28.128702 51.1775 
L 28.494032 53.330119 
L 29.083106 55.432553 
L 29.889428 57.461613 
L 30.904105 59.394918 
L 32.115945 61.211145 
L 33.511582 62.890262 
L 35.075622 64.41375 
L 36.790816 65.764804 
L 38.638245 66.928524 
L 40.597533 67.892073 
L 42.64707 68.644825 
L 44.764251 69.178477 
L 46.925723 69.487143 
L 49.107647 69.567418 
L 51.285958 69.418417 
L 53.436628 69.041785 
L 55.535939 68.441673 
L 57.560734 67.624702 
L 59.488682 66.599883 
L 61.298518 65.378519 
L 62.97028 63.97408 
L 64.48553 62.402057 
L 65.827555 60.679789 
L 66.981553 58.826272 
L 67.934796 56.861949 
L 68.67677 54.808486 
L 69.199292 52.688531 
L 69.496598 50.525467 
L 69.57 48.78 
L 69.57 48.78 
" clip-path="url(#p1cf2ed05d8)" style="fill: none; stroke: #000000; stroke-width: 0.5; stroke-linecap: square"/>
   </g>
   <g id="text_1">
    <!-- $S$ -->
    <g transform="translate(27.99 71.649)scale(0.08 -0.08)">
     <defs>
      <path id="CMMI12-53" d="M 4064 4422 
C 4064 4480 4019 4480 4006 4480 
C 3981 4480 3974 4473 3898 4377 
C 3859 4332 3597 4002 3590 3996 
C 3379 4409 2957 4480 2688 4480 
C 1875 4480 1139 3742 1139 3024 
C 1139 2547 1427 2268 1741 2160 
C 1811 2134 2189 2033 2381 1988 
C 2707 1899 2790 1874 2925 1734 
C 2950 1702 3078 1556 3078 1258 
C 3078 667 2528 57 1888 57 
C 1363 57 781 279 781 991 
C 781 1112 806 1264 826 1328 
C 826 1347 832 1378 832 1391 
C 832 1417 819 1448 768 1448 
C 710 1448 704 1436 678 1328 
L 352 25 
C 352 19 326 -64 326 -71 
C 326 -128 378 -128 390 -128 
C 416 -128 422 -122 499 -26 
L 794 356 
C 947 127 1280 -128 1875 -128 
C 2701 -128 3456 667 3456 1461 
C 3456 1728 3392 1963 3149 2198 
C 3014 2331 2899 2363 2310 2516 
C 1882 2630 1824 2649 1709 2751 
C 1600 2859 1517 3011 1517 3227 
C 1517 3761 2061 4307 2669 4307 
C 3296 4307 3590 3926 3590 3322 
C 3590 3157 3558 2986 3558 2960 
C 3558 2903 3610 2903 3629 2903 
C 3686 2903 3693 2922 3718 3024 
L 4064 4422 
z
" transform="scale(0.015625)"/>
     </defs>
     <use xlink:href="#CMMI12-53" transform="scale(0.996264)"/>
    </g>
   </g>
   <g id="text_2">
    <!-- $v_1$ -->
    <g transform="translate(56.606741 27.34265)scale(0.08 -0.08)">
     <defs>
      <path id="CMMI12-76" d="M 2925 2388 
C 2925 2790 2720 2816 2669 2816 
C 2515 2816 2374 2662 2374 2534 
C 2374 2458 2419 2413 2445 2388 
C 2509 2330 2675 2158 2675 1826 
C 2675 1558 2291 64 1523 64 
C 1133 64 1056 389 1056 625 
C 1056 945 1203 1392 1376 1851 
C 1478 2113 1504 2177 1504 2305 
C 1504 2573 1312 2816 998 2816 
C 410 2816 173 1890 173 1838 
C 173 1813 198 1781 243 1781 
C 301 1781 307 1807 333 1896 
C 486 2445 736 2687 979 2687 
C 1037 2687 1146 2687 1146 2477 
C 1146 2311 1075 2126 979 1883 
C 672 1066 672 868 672 715 
C 672 574 691 313 890 134 
C 1120 -64 1440 -64 1498 -64 
C 2560 -64 2925 2024 2925 2388 
z
" transform="scale(0.015625)"/>
      <path id="CMR17-31" d="M 1702 4083 
C 1702 4217 1696 4224 1606 4224 
C 1357 3927 979 3833 621 3820 
C 602 3820 570 3820 563 3808 
C 557 3795 557 3782 557 3648 
C 755 3648 1088 3686 1344 3839 
L 1344 467 
C 1344 243 1331 166 781 166 
L 589 166 
L 589 0 
C 896 6 1216 12 1523 12 
C 1830 12 2150 6 2458 0 
L 2458 166 
L 2266 166 
C 1715 166 1702 236 1702 467 
L 1702 4083 
z
" transform="scale(0.015625)"/>
     </defs>
     <use xlink:href="#CMMI12-76" transform="scale(0.996264)"/>
     <use xlink:href="#CMR17-31" transform="translate(47.160581 -14.943915)scale(0.697382)"/>
    </g>
   </g>
   <g id="text_3">
    <!-- $v_2$ -->
    <g transform="translate(21.461924 39.057589)scale(0.08 -0.08)">
     <defs>
      <path id="CMR17-32" d="M 2669 990 
L 2554 990 
C 2490 537 2438 460 2413 422 
C 2381 371 1920 371 1830 371 
L 602 371 
C 832 620 1280 1073 1824 1596 
C 2214 1966 2669 2400 2669 3033 
C 2669 3788 2067 4224 1395 4224 
C 691 4224 262 3603 262 3027 
C 262 2777 448 2745 525 2745 
C 589 2745 781 2783 781 3007 
C 781 3206 614 3264 525 3264 
C 486 3264 448 3257 422 3244 
C 544 3788 915 4057 1306 4057 
C 1862 4057 2227 3616 2227 3033 
C 2227 2477 1901 1998 1536 1583 
L 262 147 
L 262 0 
L 2515 0 
L 2669 990 
z
" transform="scale(0.015625)"/>
     </defs>
     <use xlink:href="#CMMI12-76" transform="scale(0.996264)"/>
     <use xlink:href="#CMR17-32" transform="translate(47.160581 -14.943915)scale(0.697382)"/>
    </g>
   </g>
   <g id="PathCollection_1">
    <path d="M 48.78 49.646025 
C 49.009673 49.646025 49.229969 49.554776 49.392372 49.392372 
C 49.554776 49.229969 49.646025 49.009673 49.646025 48.78 
C 49.646025 48.550327 49.554776 48.330031 49.392372 48.167628 
C 49.229969 48.005224 49.009673 47.913975 48.78 47.913975 
C 48.550327 47.913975 48.330031 48.005224 48.167628 48.167628 
C 48.005224 48.330031 47.913975 48.550327 47.913975 48.78 
C 47.913975 49.009673 48.005224 49.229969 48.167628 49.392372 
C 48.330031 49.554776 48.550327 49.646025 48.78 49.646025 
z
"/>
   </g>
  </g>
  <g id="axes_2">
   <g id="line2d_5">
    <path d="M 158.387143 90.36 
L 158.387143 7.2 
" clip-path="url(#pd05b62e8f9)" style="fill: none; stroke: #000000; stroke-width: 0.5; stroke-linecap: square"/>
   </g>
   <g id="line2d_6">
    <path d="M 116.807143 48.78 
L 199.967143 48.78 
" clip-path="url(#pd05b62e8f9)" style="fill: none; stroke: #000000; stroke-width: 0.5; stroke-linecap: square"/>
   </g>
   <g id="line2d_7">
    <path d="M 161.064843 47.44115 
L 159.725993 44.763449 
L 157.048293 46.1023 
" clip-path="url(#pd05b62e8f9)" style="fill: none; stroke: #000000; stroke-width: 0.5; stroke-linecap: square"/>
   </g>
   <g id="patch_4">
    <path d="M 195.577425 30.184859 
L 191.895587 33.978268 
L 192.118729 32.193134 
L 158.498714 49.003142 
L 158.275572 48.556858 
L 191.895587 31.746851 
L 190.333596 30.854284 
z
" clip-path="url(#pd05b62e8f9)" style="fill: #ff1f5b"/>
   </g>
   <g id="patch_5">
    <path d="M 153.738358 39.482429 
L 157.531766 43.164267 
L 155.746633 42.941126 
L 158.610285 48.668429 
L 158.164001 48.891571 
L 155.300349 43.164267 
L 154.407783 44.726259 
z
" clip-path="url(#pd05b62e8f9)" style="fill: #00cd6c"/>
   </g>
   <g id="line2d_8">
    <path d="M 179.177143 48.78 
L 183.523349 45.73285 
L 186.819806 43.170925 
L 189.664862 40.698051 
L 192.01335 38.353487 
L 193.563949 36.524627 
L 194.726564 34.830939 
L 195.488371 33.291102 
L 195.803438 32.181481 
L 195.854299 31.189067 
L 195.640596 30.320866 
L 195.163836 29.58301 
L 194.427386 28.980709 
L 193.436448 28.518215 
L 192.198018 28.198795 
L 190.72084 28.024705 
L 188.554676 28.013234 
L 186.055777 28.230812 
L 182.656936 28.790693 
L 178.872786 29.667927 
L 174.763403 30.848586 
L 170.394028 32.313927 
L 165.060548 34.352026 
L 159.58293 36.701752 
L 154.079484 39.312354 
L 148.669079 42.127447 
L 143.468572 45.086226 
L 138.59029 48.124787 
L 134.139596 51.1775 
L 130.738203 53.755373 
L 127.775769 56.254256 
L 125.299325 58.634477 
L 123.635475 60.500017 
L 122.354921 62.23629 
L 121.471785 63.824147 
L 121.058115 64.975742 
L 120.908034 66.012976 
L 121.022603 66.928524 
L 121.401012 67.71592 
L 122.040589 68.369605 
L 122.936818 68.884962 
L 124.083371 69.258354 
L 125.472152 69.487143 
L 127.533663 69.567418 
L 129.935474 69.418417 
L 132.651094 69.041785 
L 136.28167 68.295373 
L 140.263194 67.239134 
L 144.532457 65.889835 
L 149.786303 63.97408 
L 155.225917 61.73015 
L 160.73381 59.206513 
L 166.191018 56.457675 
L 171.479671 53.543009 
L 176.485541 50.525467 
L 179.177143 48.78 
L 179.177143 48.78 
" clip-path="url(#pd05b62e8f9)" style="fill: none; stroke: #000000; stroke-width: 0.5; stroke-linecap: square"/>
   </g>
   <g id="text_4">
    <!-- $AS$ -->
    <g transform="translate(168.782143 61.254)scale(0.08 -0.08)">
     <defs>
      <path id="CMMI12-41" d="M 1088 720 
C 864 335 646 205 339 185 
C 269 179 218 179 218 64 
C 218 25 250 0 294 0 
C 410 0 698 12 813 12 
C 998 12 1203 0 1382 0 
C 1421 0 1498 0 1498 121 
C 1498 179 1446 185 1408 185 
C 1261 198 1139 250 1139 407 
C 1139 498 1178 570 1261 714 
L 1747 1536 
L 3379 1536 
C 3386 1477 3386 1425 3392 1366 
C 3411 1196 3488 518 3488 394 
C 3488 198 3162 185 3059 185 
C 2989 185 2918 185 2918 70 
C 2918 0 2976 0 3014 0 
C 3123 0 3251 12 3360 12 
L 3725 12 
C 4115 12 4397 0 4403 0 
C 4448 0 4518 0 4518 121 
C 4518 185 4461 185 4365 185 
C 4013 185 4006 244 3987 440 
L 3597 4403 
C 3584 4531 3558 4544 3488 4544 
C 3424 4544 3386 4531 3328 4435 
L 1088 720 
z
M 1856 1721 
L 3142 3831 
L 3360 1721 
L 1856 1721 
z
" transform="scale(0.015625)"/>
     </defs>
     <use xlink:href="#CMMI12-41" transform="scale(0.996264)"/>
     <use xlink:href="#CMMI12-53" transform="translate(73.127885 0)scale(0.996264)"/>
    </g>
   </g>
   <g id="text_5">
    <!-- $\sigma_1 u_1$ -->
    <g transform="translate(197.056958 28.0701)scale(0.08 -0.08)">
     <defs>
      <path id="CMMI12-1b" d="M 3251 2406 
C 3334 2406 3546 2406 3546 2611 
C 3546 2752 3424 2752 3309 2752 
L 1894 2752 
C 934 2752 243 1685 243 932 
C 243 389 595 -64 1171 -64 
C 1926 -64 2752 746 2752 1704 
C 2752 1953 2694 2195 2541 2406 
L 3251 2406 
z
M 1178 64 
C 851 64 614 312 614 753 
C 614 1136 845 2406 1786 2406 
C 2061 2406 2368 2272 2368 1780 
C 2368 1557 2266 1021 2042 651 
C 1811 274 1466 64 1178 64 
z
" transform="scale(0.015625)"/>
      <path id="CMMI12-75" d="M 2182 370 
C 2266 12 2573 -64 2726 -64 
C 2931 -64 3085 70 3187 287 
C 3296 517 3379 893 3379 913 
C 3379 944 3354 970 3315 970 
C 3258 970 3251 938 3226 842 
C 3110 402 2995 64 2739 64 
C 2547 64 2547 274 2547 357 
C 2547 504 2566 568 2630 836 
C 2675 1008 2720 1181 2758 1359 
L 3021 2400 
C 3066 2560 3066 2572 3066 2591 
C 3066 2687 2989 2752 2893 2752 
C 2707 2752 2662 2591 2624 2432 
C 2560 2183 2214 810 2170 587 
C 2163 587 1914 64 1446 64 
C 1114 64 1050 351 1050 587 
C 1050 951 1229 1462 1395 1890 
C 1472 2094 1504 2177 1504 2305 
C 1504 2579 1306 2816 998 2816 
C 410 2816 173 1890 173 1838 
C 173 1813 198 1781 243 1781 
C 301 1781 307 1807 333 1896 
C 486 2445 736 2687 979 2687 
C 1043 2687 1146 2681 1146 2477 
C 1146 2311 1075 2126 979 1883 
C 698 1123 666 881 666 689 
C 666 38 1158 -64 1421 -64 
C 1830 -64 2054 217 2182 370 
z
" transform="scale(0.015625)"/>
     </defs>
     <use xlink:href="#CMMI12-1b" transform="scale(0.996264)"/>
     <use xlink:href="#CMR17-31" transform="translate(55.445461 -14.943915)scale(0.697382)"/>
     <use xlink:href="#CMMI12-75" transform="translate(87.926775 0)scale(0.996264)"/>
     <use xlink:href="#CMR17-31" transform="translate(143.447104 -14.943915)scale(0.697382)"/>
    </g>
   </g>
   <g id="text_6">
    <!-- $\sigma_2 u_2$ -->
    <g transform="translate(138.794273 35.372607)scale(0.08 -0.08)">
     <use xlink:href="#CMMI12-1b" transform="scale(0.996264)"/>
     <use xlink:href="#CMR17-32" transform="translate(55.445461 -14.943915)scale(0.697382)"/>
     <use xlink:href="#CMMI12-75" transform="translate(87.926775 0)scale(0.996264)"/>
     <use xlink:href="#CMR17-32" transform="translate(143.447104 -14.943915)scale(0.697382)"/>
    </g>
   </g>
   <g id="text_7">
    <!-- \  -->
    <g transform="translate(214.520143 48.78)scale(0.08 -0.08)"/>
   </g>
   <g id="PathCollection_2">
    <path d="M 158.387143 49.646025 
C 158.616815 49.646025 158.837112 49.554776 158.999515 49.392372 
C 159.161918 49.229969 159.253168 49.009673 159.253168 48.78 
C 159.253168 48.550327 159.161918 48.330031 158.999515 48.167628 
C 158.837112 48.005224 158.616815 47.913975 158.387143 47.913975 
C 158.15747 47.913975 157.937173 48.005224 157.77477 48.167628 
C 157.612367 48.330031 157.521117 48.550327 157.521117 48.78 
C 157.521117 49.009673 157.612367 49.229969 157.77477 49.392372 
C 157.937173 49.554776 158.15747 49.646025 158.387143 49.646025 
z
"/>
   </g>
  </g>
 </g>
 <defs>
  <clipPath id="p1cf2ed05d8">
   <rect x="7.2" y="7.2" width="83.16" height="83.16"/>
  </clipPath>
  <clipPath id="pd05b62e8f9">
   <rect x="116.807143" y="7.2" width="83.16" height="83.16"/>
  </clipPath>
 </defs>
</svg>
