<?xml version="1.0" encoding="utf-8" standalone="no"?>
<!DOCTYPE svg PUBLIC "-//W3C//DTD SVG 1.1//EN"
  "http://www.w3.org/Graphics/SVG/1.1/DTD/svg11.dtd">
<svg xmlns:xlink="http://www.w3.org/1999/xlink" width="112.19075pt" height="111.957pt" viewBox="0 0 112.19075 111.957" xmlns="http://www.w3.org/2000/svg" version="1.1">
 <metadata>
  <rdf:RDF xmlns:dc="http://purl.org/dc/elements/1.1/" xmlns:cc="http://creativecommons.org/ns#" xmlns:rdf="http://www.w3.org/1999/02/22-rdf-syntax-ns#">
   <cc:Work>
    <dc:type rdf:resource="http://purl.org/dc/dcmitype/StillImage"/>
    <dc:format>image/svg+xml</dc:format>
    <dc:creator>
     <cc:Agent>
      <dc:title>Matplotlib v3.5.2, https://matplotlib.org/</dc:title>
     </cc:Agent>
    </dc:creator>
   </cc:Work>
  </rdf:RDF>
 </metadata>
 <defs>
  <style type="text/css">*{stroke-linejoin: round; stroke-linecap: butt}</style>
 </defs>
 <g id="figure_1">
  <g id="patch_1">
   <path d="M -0 111.957 
L 112.19075 111.957 
L 112.19075 0 
L -0 0 
L -0 111.957 
z
" style="fill: none"/>
  </g>
  <g id="axes_1">
   <g id="patch_2">
    <path d="M 32.91875 79.272 
L 104.99075 79.272 
L 104.99075 7.2 
L 32.91875 7.2 
L 32.91875 79.272 
z
" style="fill: none"/>
   </g>
   <g id="matplotlib.axis_1">
    <g id="xtick_1">
     <g id="line2d_1">
      <defs>
       <path id="m4cd371f86f" d="M 0 0 
L 0 2.5 
" style="stroke: #000000; stroke-width: 0.6"/>
      </defs>
      <g>
       <use xlink:href="#m4cd371f86f" x="38.92475" y="79.272" style="stroke: #000000; stroke-width: 0.6"/>
      </g>
     </g>
     <g id="text_1">
      <!-- -1 -->
      <g transform="translate(34.936625 91.35075)scale(0.08 -0.08)">
       <defs>
        <path id="DejaVuSans-2d" d="M 313 2009 
L 1997 2009 
L 1997 1497 
L 313 1497 
L 313 2009 
z
" transform="scale(0.015625)"/>
        <path id="DejaVuSans-31" d="M 794 531 
L 1825 531 
L 1825 4091 
L 703 3866 
L 703 4441 
L 1819 4666 
L 2450 4666 
L 2450 531 
L 3481 531 
L 3481 0 
L 794 0 
L 794 531 
z
" transform="scale(0.015625)"/>
       </defs>
       <use xlink:href="#DejaVuSans-2d"/>
       <use xlink:href="#DejaVuSans-31" x="36.083984"/>
      </g>
     </g>
    </g>
    <g id="xtick_2">
     <g id="line2d_2">
      <g>
       <use xlink:href="#m4cd371f86f" x="68.95475" y="79.272" style="stroke: #000000; stroke-width: 0.6"/>
      </g>
     </g>
     <g id="text_2">
      <!-- 0 -->
      <g transform="translate(66.40975 91.35075)scale(0.08 -0.08)">
       <defs>
        <path id="DejaVuSans-30" d="M 2034 4250 
Q 1547 4250 1301 3770 
Q 1056 3291 1056 2328 
Q 1056 1369 1301 889 
Q 1547 409 2034 409 
Q 2525 409 2770 889 
Q 3016 1369 3016 2328 
Q 3016 3291 2770 3770 
Q 2525 4250 2034 4250 
z
M 2034 4750 
Q 2819 4750 3233 4129 
Q 3647 3509 3647 2328 
Q 3647 1150 3233 529 
Q 2819 -91 2034 -91 
Q 1250 -91 836 529 
Q 422 1150 422 2328 
Q 422 3509 836 4129 
Q 1250 4750 2034 4750 
z
" transform="scale(0.015625)"/>
       </defs>
       <use xlink:href="#DejaVuSans-30"/>
      </g>
     </g>
    </g>
    <g id="xtick_3">
     <g id="line2d_3">
      <g>
       <use xlink:href="#m4cd371f86f" x="98.98475" y="79.272" style="stroke: #000000; stroke-width: 0.6"/>
      </g>
     </g>
     <g id="text_3">
      <!-- 1 -->
      <g transform="translate(96.43975 91.35075)scale(0.08 -0.08)">
       <use xlink:href="#DejaVuSans-31"/>
      </g>
     </g>
    </g>
    <g id="text_4">
     <!-- $x_1$ -->
     <g transform="translate(64.67475 103.09325)scale(0.08 -0.08)">
      <defs>
       <path id="DejaVuSans-Oblique-78" d="M 3841 3500 
L 2234 1784 
L 3219 0 
L 2559 0 
L 1819 1388 
L 531 0 
L -166 0 
L 1556 1844 
L 641 3500 
L 1300 3500 
L 1972 2234 
L 3144 3500 
L 3841 3500 
z
" transform="scale(0.015625)"/>
      </defs>
      <use xlink:href="#DejaVuSans-Oblique-78" transform="translate(0 0.3125)"/>
      <use xlink:href="#DejaVuSans-31" transform="translate(59.179688 -16.09375)scale(0.7)"/>
     </g>
    </g>
   </g>
   <g id="matplotlib.axis_2">
    <g id="ytick_1">
     <g id="line2d_4">
      <defs>
       <path id="m56f3a9ced1" d="M 0 0 
L -2.5 0 
" style="stroke: #000000; stroke-width: 0.6"/>
      </defs>
      <g>
       <use xlink:href="#m56f3a9ced1" x="32.91875" y="73.266" style="stroke: #000000; stroke-width: 0.6"/>
      </g>
     </g>
     <g id="text_5">
      <!-- -1 -->
      <g transform="translate(18.9425 76.305375)scale(0.08 -0.08)">
       <use xlink:href="#DejaVuSans-2d"/>
       <use xlink:href="#DejaVuSans-31" x="36.083984"/>
      </g>
     </g>
    </g>
    <g id="ytick_2">
     <g id="line2d_5">
      <g>
       <use xlink:href="#m56f3a9ced1" x="32.91875" y="43.236" style="stroke: #000000; stroke-width: 0.6"/>
      </g>
     </g>
     <g id="text_6">
      <!-- 0 -->
      <g transform="translate(21.82875 46.275375)scale(0.08 -0.08)">
       <use xlink:href="#DejaVuSans-30"/>
      </g>
     </g>
    </g>
    <g id="ytick_3">
     <g id="line2d_6">
      <g>
       <use xlink:href="#m56f3a9ced1" x="32.91875" y="13.206" style="stroke: #000000; stroke-width: 0.6"/>
      </g>
     </g>
     <g id="text_7">
      <!-- 1 -->
      <g transform="translate(21.82875 16.245375)scale(0.08 -0.08)">
       <use xlink:href="#DejaVuSans-31"/>
      </g>
     </g>
    </g>
    <g id="text_8">
     <!-- $x_2$ -->
     <g transform="translate(13.27875 47.516)rotate(-90)scale(0.08 -0.08)">
      <defs>
       <path id="DejaVuSans-32" d="M 1228 531 
L 3431 531 
L 3431 0 
L 469 0 
L 469 531 
Q 828 903 1448 1529 
Q 2069 2156 2228 2338 
Q 2531 2678 2651 2914 
Q 2772 3150 2772 3378 
Q 2772 3750 2511 3984 
Q 2250 4219 1831 4219 
Q 1534 4219 1204 4116 
Q 875 4013 500 3803 
L 500 4441 
Q 881 4594 1212 4672 
Q 1544 4750 1819 4750 
Q 2544 4750 2975 4387 
Q 3406 4025 3406 3419 
Q 3406 3131 3298 2873 
Q 3191 2616 2906 2266 
Q 2828 2175 2409 1742 
Q 1991 1309 1228 531 
z
" transform="scale(0.015625)"/>
      </defs>
      <use xlink:href="#DejaVuSans-Oblique-78" transform="translate(0 0.3125)"/>
      <use xlink:href="#DejaVuSans-32" transform="translate(59.179688 -16.09375)scale(0.7)"/>
     </g>
    </g>
   </g>
   <g id="PathCollection_1">
    <path d="M 68.788755 73.100005 
L 68.637851 72.949101 
L 68.456765 72.768015 
L 68.305861 72.617111 
L 68.124775 72.436025 
L 67.973871 72.285121 
L 67.792785 72.104035 
L 67.641881 71.953131 
L 67.460795 71.772045 
L 67.309891 71.621141 
L 67.128805 71.440055 
L 66.977901 71.289151 
L 66.796815 71.108065 
L 66.645911 70.957161 
L 66.464825 70.776075 
L 66.313921 70.625171 
L 66.132835 70.444085 
L 65.981931 70.293181 
L 65.800845 70.112095 
L 65.649941 69.961191 
L 65.468856 69.780106 
L 65.317951 69.629201 
L 65.136866 69.448116 
L 64.985961 69.297211 
L 64.804876 69.116126 
L 64.653971 68.965221 
L 64.472886 68.784136 
L 64.321981 68.633231 
L 64.140896 68.452146 
L 63.989991 68.301241 
L 63.808906 68.120156 
L 63.658001 67.969251 
L 63.476916 67.788166 
L 63.326011 67.637261 
L 63.144926 67.456176 
L 62.994021 67.305271 
L 62.812936 67.124186 
L 62.662031 66.973281 
L 62.480946 66.792196 
L 62.330041 66.641291 
L 62.148956 66.460206 
L 61.998052 66.309302 
L 61.816966 66.128216 
L 61.666062 65.977312 
L 61.484976 65.796226 
L 61.334072 65.645322 
L 61.152986 65.464236 
L 61.002082 65.313332 
L 60.820996 65.132246 
L 60.670092 64.981342 
L 60.489006 64.800256 
L 60.338102 64.649352 
L 60.157016 64.468266 
L 60.006112 64.317362 
L 59.825026 64.136276 
L 59.674122 63.985372 
L 59.493036 63.804286 
L 59.342132 63.653382 
L 59.161046 63.472296 
L 59.010142 63.321392 
L 58.829057 63.140307 
L 58.678152 62.989402 
L 58.497067 62.808317 
L 58.346162 62.657412 
L 58.165077 62.476327 
L 58.014172 62.325422 
L 57.833087 62.144337 
L 57.682182 61.993432 
L 57.501097 61.812347 
L 57.350192 61.661442 
L 57.169107 61.480357 
L 57.018202 61.329452 
L 56.837117 61.148367 
L 56.686212 60.997462 
L 56.505127 60.816377 
L 56.354222 60.665472 
L 56.173137 60.484387 
L 56.022232 60.333482 
L 55.841147 60.152397 
L 55.690242 60.001492 
L 55.509157 59.820407 
L 55.358253 59.669503 
L 55.177167 59.488417 
L 55.026263 59.337513 
L 54.845177 59.156427 
L 54.694273 59.005523 
L 54.513187 58.824437 
L 54.362283 58.673533 
L 54.181197 58.492447 
L 54.030293 58.341543 
L 53.849207 58.160457 
L 53.698303 58.009553 
L 53.517217 57.828467 
L 53.366313 57.677563 
L 53.185227 57.496477 
L 53.034323 57.345573 
L 52.853237 57.164487 
L 52.702333 57.013583 
L 52.521247 56.832497 
L 52.370343 56.681593 
L 52.189258 56.500508 
L 52.038353 56.349603 
L 51.857268 56.168518 
L 51.706363 56.017613 
L 51.525278 55.836528 
L 51.374373 55.685623 
L 51.193288 55.504538 
L 51.042383 55.353633 
L 50.861298 55.172548 
L 50.710393 55.021643 
L 50.529308 54.840558 
L 50.378403 54.689653 
L 50.197318 54.508568 
L 50.046413 54.357663 
L 49.865328 54.176578 
L 49.714423 54.025673 
L 49.533338 53.844588 
L 49.382433 53.693683 
L 49.201348 53.512598 
L 49.050443 53.361693 
L 48.869358 53.180608 
L 48.718454 53.029704 
L 48.537368 52.848618 
L 48.386464 52.697714 
L 48.205378 52.516628 
L 48.054474 52.365724 
L 47.873388 52.184638 
L 47.722484 52.033734 
L 47.541398 51.852648 
L 47.390494 51.701744 
L 47.209408 51.520658 
L 47.058504 51.369754 
L 46.877418 51.188668 
L 46.726514 51.037764 
L 46.545428 50.856678 
L 46.394524 50.705774 
L 46.213438 50.524688 
L 46.062534 50.373784 
L 45.881448 50.192698 
L 45.730544 50.041794 
L 45.549459 49.860709 
L 45.398554 49.709804 
L 45.217469 49.528719 
L 45.066564 49.377814 
L 44.885479 49.196729 
L 44.734574 49.045824 
L 44.553489 48.864739 
L 44.402584 48.713834 
L 44.221499 48.532749 
L 44.070594 48.381844 
L 43.889509 48.200759 
L 43.738604 48.049854 
L 43.557519 47.868769 
L 43.406614 47.717864 
L 43.225529 47.536779 
L 43.074624 47.385874 
L 42.893539 47.204789 
L 42.742634 47.053884 
L 42.561549 46.872799 
L 42.410644 46.721894 
L 42.229559 46.540809 
L 42.078655 46.389905 
L 41.897569 46.208819 
L 41.746665 46.057915 
L 41.565579 45.876829 
L 41.414675 45.725925 
L 41.233589 45.544839 
L 41.082685 45.393935 
L 40.901599 45.212849 
L 40.750695 45.061945 
L 40.569609 44.880859 
L 40.418705 44.729955 
L 40.237619 44.548869 
L 40.086715 44.397965 
L 39.905629 44.216879 
L 39.754725 44.065975 
L 39.573639 43.884889 
L 39.422735 43.733985 
L 39.241649 43.552899 
L 39.090745 43.401995 
L 39.090745 43.070005 
L 39.241649 42.919101 
L 39.422735 42.738015 
L 39.573639 42.587111 
L 39.754725 42.406025 
L 39.905629 42.255121 
L 40.086715 42.074035 
L 40.237619 41.923131 
L 40.418705 41.742045 
L 40.569609 41.591141 
L 40.750695 41.410055 
L 40.901599 41.259151 
L 41.082685 41.078065 
L 41.233589 40.927161 
L 41.414675 40.746075 
L 41.565579 40.595171 
L 41.746665 40.414085 
L 41.897569 40.263181 
L 42.078655 40.082095 
L 42.229559 39.931191 
L 42.410644 39.750106 
L 42.561549 39.599201 
L 42.742634 39.418116 
L 42.893539 39.267211 
L 43.074624 39.086126 
L 43.225529 38.935221 
L 43.406614 38.754136 
L 43.557519 38.603231 
L 43.738604 38.422146 
L 43.889509 38.271241 
L 44.070594 38.090156 
L 44.221499 37.939251 
L 44.402584 37.758166 
L 44.553489 37.607261 
L 44.734574 37.426176 
L 44.885479 37.275271 
L 45.066564 37.094186 
L 45.217469 36.943281 
L 45.398554 36.762196 
L 45.549459 36.611291 
L 45.730544 36.430206 
L 45.881448 36.279302 
L 46.062534 36.098216 
L 46.213438 35.947312 
L 46.394524 35.766226 
L 46.545428 35.615322 
L 46.726514 35.434236 
L 46.877418 35.283332 
L 47.058504 35.102246 
L 47.209408 34.951342 
L 47.390494 34.770256 
L 47.541398 34.619352 
L 47.722484 34.438266 
L 47.873388 34.287362 
L 48.054474 34.106276 
L 48.205378 33.955372 
L 48.386464 33.774286 
L 48.537368 33.623382 
L 48.718454 33.442296 
L 48.869358 33.291392 
L 49.050443 33.110307 
L 49.201348 32.959402 
L 49.382433 32.778317 
L 49.533338 32.627412 
L 49.714423 32.446327 
L 49.865328 32.295422 
L 50.046413 32.114337 
L 50.197318 31.963432 
L 50.378403 31.782347 
L 50.529308 31.631442 
L 50.710393 31.450357 
L 50.861298 31.299452 
L 51.042383 31.118367 
L 51.193288 30.967462 
L 51.374373 30.786377 
L 51.525278 30.635472 
L 51.706363 30.454387 
L 51.857268 30.303482 
L 52.038353 30.122397 
L 52.189258 29.971492 
L 52.370343 29.790407 
L 52.521247 29.639503 
L 52.702333 29.458417 
L 52.853237 29.307513 
L 53.034323 29.126427 
L 53.185227 28.975523 
L 53.366313 28.794437 
L 53.517217 28.643533 
L 53.698303 28.462447 
L 53.849207 28.311543 
L 54.030293 28.130457 
L 54.181197 27.979553 
L 54.362283 27.798467 
L 54.513187 27.647563 
L 54.694273 27.466477 
L 54.845177 27.315573 
L 55.026263 27.134487 
L 55.177167 26.983583 
L 55.358253 26.802497 
L 55.509157 26.651593 
L 55.690242 26.470508 
L 55.841147 26.319603 
L 56.022232 26.138518 
L 56.173137 25.987613 
L 56.354222 25.806528 
L 56.505127 25.655623 
L 56.686212 25.474538 
L 56.837117 25.323633 
L 57.018202 25.142548 
L 57.169107 24.991643 
L 57.350192 24.810558 
L 57.501097 24.659653 
L 57.682182 24.478568 
L 57.833087 24.327663 
L 58.014172 24.146578 
L 58.165077 23.995673 
L 58.346162 23.814588 
L 58.497067 23.663683 
L 58.678152 23.482598 
L 58.829057 23.331693 
L 59.010142 23.150608 
L 59.161046 22.999704 
L 59.342132 22.818618 
L 59.493036 22.667714 
L 59.674122 22.486628 
L 59.825026 22.335724 
L 60.006112 22.154638 
L 60.157016 22.003734 
L 60.338102 21.822648 
L 60.489006 21.671744 
L 60.670092 21.490658 
L 60.820996 21.339754 
L 61.002082 21.158668 
L 61.152986 21.007764 
L 61.334072 20.826678 
L 61.484976 20.675774 
L 61.666062 20.494688 
L 61.816966 20.343784 
L 61.998052 20.162698 
L 62.148956 20.011794 
L 62.330041 19.830709 
L 62.480946 19.679804 
L 62.662031 19.498719 
L 62.812936 19.347814 
L 62.994021 19.166729 
L 63.144926 19.015824 
L 63.326011 18.834739 
L 63.476916 18.683834 
L 63.658001 18.502749 
L 63.808906 18.351844 
L 63.989991 18.170759 
L 64.140896 18.019854 
L 64.321981 17.838769 
L 64.472886 17.687864 
L 64.653971 17.506779 
L 64.804876 17.355874 
L 64.985961 17.174789 
L 65.136866 17.023884 
L 65.317951 16.842799 
L 65.468856 16.691894 
L 65.649941 16.510809 
L 65.800845 16.359905 
L 65.981931 16.178819 
L 66.132835 16.027915 
L 66.313921 15.846829 
L 66.464825 15.695925 
L 66.645911 15.514839 
L 66.796815 15.363935 
L 66.977901 15.182849 
L 67.128805 15.031945 
L 67.309891 14.850859 
L 67.460795 14.699955 
L 67.641881 14.518869 
L 67.792785 14.367965 
L 67.973871 14.186879 
L 68.124775 14.035975 
L 68.305861 13.854889 
L 68.456765 13.703985 
L 68.637851 13.522899 
L 68.788755 13.371995 
L 69.120745 13.371995 
L 69.271649 13.522899 
L 69.452735 13.703985 
L 69.603639 13.854889 
L 69.784725 14.035975 
L 69.935629 14.186879 
L 70.116715 14.367965 
L 70.267619 14.518869 
L 70.448705 14.699955 
L 70.599609 14.850859 
L 70.780695 15.031945 
L 70.931599 15.182849 
L 71.112685 15.363935 
L 71.263589 15.514839 
L 71.444675 15.695925 
L 71.595579 15.846829 
L 71.776665 16.027915 
L 71.927569 16.178819 
L 72.108655 16.359905 
L 72.259559 16.510809 
L 72.440644 16.691894 
L 72.591549 16.842799 
L 72.772634 17.023884 
L 72.923539 17.174789 
L 73.104624 17.355874 
L 73.255529 17.506779 
L 73.436614 17.687864 
L 73.587519 17.838769 
L 73.768604 18.019854 
L 73.919509 18.170759 
L 74.100594 18.351844 
L 74.251499 18.502749 
L 74.432584 18.683834 
L 74.583489 18.834739 
L 74.764574 19.015824 
L 74.915479 19.166729 
L 75.096564 19.347814 
L 75.247469 19.498719 
L 75.428554 19.679804 
L 75.579459 19.830709 
L 75.760544 20.011794 
L 75.911448 20.162698 
L 76.092534 20.343784 
L 76.243438 20.494688 
L 76.424524 20.675774 
L 76.575428 20.826678 
L 76.756514 21.007764 
L 76.907418 21.158668 
L 77.088504 21.339754 
L 77.239408 21.490658 
L 77.420494 21.671744 
L 77.571398 21.822648 
L 77.752484 22.003734 
L 77.903388 22.154638 
L 78.084474 22.335724 
L 78.235378 22.486628 
L 78.416464 22.667714 
L 78.567368 22.818618 
L 78.748454 22.999704 
L 78.899358 23.150608 
L 79.080443 23.331693 
L 79.231348 23.482598 
L 79.412433 23.663683 
L 79.563338 23.814588 
L 79.744423 23.995673 
L 79.895328 24.146578 
L 80.076413 24.327663 
L 80.227318 24.478568 
L 80.408403 24.659653 
L 80.559308 24.810558 
L 80.740393 24.991643 
L 80.891298 25.142548 
L 81.072383 25.323633 
L 81.223288 25.474538 
L 81.404373 25.655623 
L 81.555278 25.806528 
L 81.736363 25.987613 
L 81.887268 26.138518 
L 82.068353 26.319603 
L 82.219258 26.470508 
L 82.400343 26.651593 
L 82.551247 26.802497 
L 82.732333 26.983583 
L 82.883237 27.134487 
L 83.064323 27.315573 
L 83.215227 27.466477 
L 83.396313 27.647563 
L 83.547217 27.798467 
L 83.728303 27.979553 
L 83.879207 28.130457 
L 84.060293 28.311543 
L 84.211197 28.462447 
L 84.392283 28.643533 
L 84.543187 28.794437 
L 84.724273 28.975523 
L 84.875177 29.126427 
L 85.056263 29.307513 
L 85.207167 29.458417 
L 85.388253 29.639503 
L 85.539157 29.790407 
L 85.720242 29.971492 
L 85.871147 30.122397 
L 86.052232 30.303482 
L 86.203137 30.454387 
L 86.384222 30.635472 
L 86.535127 30.786377 
L 86.716212 30.967462 
L 86.867117 31.118367 
L 87.048202 31.299452 
L 87.199107 31.450357 
L 87.380192 31.631442 
L 87.531097 31.782347 
L 87.712182 31.963432 
L 87.863087 32.114337 
L 88.044172 32.295422 
L 88.195077 32.446327 
L 88.376162 32.627412 
L 88.527067 32.778317 
L 88.708152 32.959402 
L 88.859057 33.110307 
L 89.040142 33.291392 
L 89.191046 33.442296 
L 89.372132 33.623382 
L 89.523036 33.774286 
L 89.704122 33.955372 
L 89.855026 34.106276 
L 90.036112 34.287362 
L 90.187016 34.438266 
L 90.368102 34.619352 
L 90.519006 34.770256 
L 90.700092 34.951342 
L 90.850996 35.102246 
L 91.032082 35.283332 
L 91.182986 35.434236 
L 91.364072 35.615322 
L 91.514976 35.766226 
L 91.696062 35.947312 
L 91.846966 36.098216 
L 92.028052 36.279302 
L 92.178956 36.430206 
L 92.360041 36.611291 
L 92.510946 36.762196 
L 92.692031 36.943281 
L 92.842936 37.094186 
L 93.024021 37.275271 
L 93.174926 37.426176 
L 93.356011 37.607261 
L 93.506916 37.758166 
L 93.688001 37.939251 
L 93.838906 38.090156 
L 94.019991 38.271241 
L 94.170896 38.422146 
L 94.351981 38.603231 
L 94.502886 38.754136 
L 94.683971 38.935221 
L 94.834876 39.086126 
L 95.015961 39.267211 
L 95.166866 39.418116 
L 95.347951 39.599201 
L 95.498856 39.750106 
L 95.679941 39.931191 
L 95.830845 40.082095 
L 96.011931 40.263181 
L 96.162835 40.414085 
L 96.343921 40.595171 
L 96.494825 40.746075 
L 96.675911 40.927161 
L 96.826815 41.078065 
L 97.007901 41.259151 
L 97.158805 41.410055 
L 97.339891 41.591141 
L 97.490795 41.742045 
L 97.671881 41.923131 
L 97.822785 42.074035 
L 98.003871 42.255121 
L 98.154775 42.406025 
L 98.335861 42.587111 
L 98.486765 42.738015 
L 98.667851 42.919101 
L 98.818755 43.070005 
L 98.818755 43.401995 
L 98.667851 43.552899 
L 98.486765 43.733985 
L 98.335861 43.884889 
L 98.154775 44.065975 
L 98.003871 44.216879 
L 97.822785 44.397965 
L 97.671881 44.548869 
L 97.490795 44.729955 
L 97.339891 44.880859 
L 97.158805 45.061945 
L 97.007901 45.212849 
L 96.826815 45.393935 
L 96.675911 45.544839 
L 96.494825 45.725925 
L 96.343921 45.876829 
L 96.162835 46.057915 
L 96.011931 46.208819 
L 95.830845 46.389905 
L 95.679941 46.540809 
L 95.498856 46.721894 
L 95.347951 46.872799 
L 95.166866 47.053884 
L 95.015961 47.204789 
L 94.834876 47.385874 
L 94.683971 47.536779 
L 94.502886 47.717864 
L 94.351981 47.868769 
L 94.170896 48.049854 
L 94.019991 48.200759 
L 93.838906 48.381844 
L 93.688001 48.532749 
L 93.506916 48.713834 
L 93.356011 48.864739 
L 93.174926 49.045824 
L 93.024021 49.196729 
L 92.842936 49.377814 
L 92.692031 49.528719 
L 92.510946 49.709804 
L 92.360041 49.860709 
L 92.178956 50.041794 
L 92.028052 50.192698 
L 91.846966 50.373784 
L 91.696062 50.524688 
L 91.514976 50.705774 
L 91.364072 50.856678 
L 91.182986 51.037764 
L 91.032082 51.188668 
L 90.850996 51.369754 
L 90.700092 51.520658 
L 90.519006 51.701744 
L 90.368102 51.852648 
L 90.187016 52.033734 
L 90.036112 52.184638 
L 89.855026 52.365724 
L 89.704122 52.516628 
L 89.523036 52.697714 
L 89.372132 52.848618 
L 89.191046 53.029704 
L 89.040142 53.180608 
L 88.859057 53.361693 
L 88.708152 53.512598 
L 88.527067 53.693683 
L 88.376162 53.844588 
L 88.195077 54.025673 
L 88.044172 54.176578 
L 87.863087 54.357663 
L 87.712182 54.508568 
L 87.531097 54.689653 
L 87.380192 54.840558 
L 87.199107 55.021643 
L 87.048202 55.172548 
L 86.867117 55.353633 
L 86.716212 55.504538 
L 86.535127 55.685623 
L 86.384222 55.836528 
L 86.203137 56.017613 
L 86.052232 56.168518 
L 85.871147 56.349603 
L 85.720242 56.500508 
L 85.539157 56.681593 
L 85.388253 56.832497 
L 85.207167 57.013583 
L 85.056263 57.164487 
L 84.875177 57.345573 
L 84.724273 57.496477 
L 84.543187 57.677563 
L 84.392283 57.828467 
L 84.211197 58.009553 
L 84.060293 58.160457 
L 83.879207 58.341543 
L 83.728303 58.492447 
L 83.547217 58.673533 
L 83.396313 58.824437 
L 83.215227 59.005523 
L 83.064323 59.156427 
L 82.883237 59.337513 
L 82.732333 59.488417 
L 82.551247 59.669503 
L 82.400343 59.820407 
L 82.219258 60.001492 
L 82.068353 60.152397 
L 81.887268 60.333482 
L 81.736363 60.484387 
L 81.555278 60.665472 
L 81.404373 60.816377 
L 81.223288 60.997462 
L 81.072383 61.148367 
L 80.891298 61.329452 
L 80.740393 61.480357 
L 80.559308 61.661442 
L 80.408403 61.812347 
L 80.227318 61.993432 
L 80.076413 62.144337 
L 79.895328 62.325422 
L 79.744423 62.476327 
L 79.563338 62.657412 
L 79.412433 62.808317 
L 79.231348 62.989402 
L 79.080443 63.140307 
L 78.899358 63.321392 
L 78.748454 63.472296 
L 78.567368 63.653382 
L 78.416464 63.804286 
L 78.235378 63.985372 
L 78.084474 64.136276 
L 77.903388 64.317362 
L 77.752484 64.468266 
L 77.571398 64.649352 
L 77.420494 64.800256 
L 77.239408 64.981342 
L 77.088504 65.132246 
L 76.907418 65.313332 
L 76.756514 65.464236 
L 76.575428 65.645322 
L 76.424524 65.796226 
L 76.243438 65.977312 
L 76.092534 66.128216 
L 75.911448 66.309302 
L 75.760544 66.460206 
L 75.579459 66.641291 
L 75.428554 66.792196 
L 75.247469 66.973281 
L 75.096564 67.124186 
L 74.915479 67.305271 
L 74.764574 67.456176 
L 74.583489 67.637261 
L 74.432584 67.788166 
L 74.251499 67.969251 
L 74.100594 68.120156 
L 73.919509 68.301241 
L 73.768604 68.452146 
L 73.587519 68.633231 
L 73.436614 68.784136 
L 73.255529 68.965221 
L 73.104624 69.116126 
L 72.923539 69.297211 
L 72.772634 69.448116 
L 72.591549 69.629201 
L 72.440644 69.780106 
L 72.259559 69.961191 
L 72.108655 70.112095 
L 71.927569 70.293181 
L 71.776665 70.444085 
L 71.595579 70.625171 
L 71.444675 70.776075 
L 71.263589 70.957161 
L 71.112685 71.108065 
L 70.931599 71.289151 
L 70.780695 71.440055 
L 70.599609 71.621141 
L 70.448705 71.772045 
L 70.267619 71.953131 
L 70.116715 72.104035 
L 69.935629 72.285121 
L 69.784725 72.436025 
L 69.603639 72.617111 
L 69.452735 72.768015 
L 69.271649 72.949101 
L 69.120745 73.100005 
L 68.788755 73.100005 
z
" clip-path="url(#p562673c1d3)" style="fill: none; stroke: #ff1f5b"/>
   </g>
   <g id="patch_3">
    <path d="M 32.91875 79.272 
L 32.91875 7.2 
" style="fill: none; stroke: #000000; stroke-width: 0.6; stroke-linejoin: miter; stroke-linecap: square"/>
   </g>
   <g id="patch_4">
    <path d="M 32.91875 79.272 
L 104.99075 79.272 
" style="fill: none; stroke: #000000; stroke-width: 0.6; stroke-linejoin: miter; stroke-linecap: square"/>
   </g>
  </g>
 </g>
 <defs>
  <clipPath id="p562673c1d3">
   <rect x="32.91875" y="7.2" width="72.072" height="72.072"/>
  </clipPath>
 </defs>
</svg>
