<?xml version="1.0" encoding="utf-8" standalone="no"?>
<!DOCTYPE svg PUBLIC "-//W3C//DTD SVG 1.1//EN"
  "http://www.w3.org/Graphics/SVG/1.1/DTD/svg11.dtd">
<svg xmlns:xlink="http://www.w3.org/1999/xlink" width="112.19075pt" height="111.957pt" viewBox="0 0 112.19075 111.957" xmlns="http://www.w3.org/2000/svg" version="1.1">
 <metadata>
  <rdf:RDF xmlns:dc="http://purl.org/dc/elements/1.1/" xmlns:cc="http://creativecommons.org/ns#" xmlns:rdf="http://www.w3.org/1999/02/22-rdf-syntax-ns#">
   <cc:Work>
    <dc:type rdf:resource="http://purl.org/dc/dcmitype/StillImage"/>
    <dc:format>image/svg+xml</dc:format>
    <dc:creator>
     <cc:Agent>
      <dc:title>Matplotlib v3.5.2, https://matplotlib.org/</dc:title>
     </cc:Agent>
    </dc:creator>
   </cc:Work>
  </rdf:RDF>
 </metadata>
 <defs>
  <style type="text/css">*{stroke-linejoin: round; stroke-linecap: butt}</style>
 </defs>
 <g id="figure_1">
  <g id="patch_1">
   <path d="M -0 111.957 
L 112.19075 111.957 
L 112.19075 0 
L -0 0 
L -0 111.957 
z
" style="fill: none"/>
  </g>
  <g id="axes_1">
   <g id="patch_2">
    <path d="M 32.91875 79.272 
L 104.99075 79.272 
L 104.99075 7.2 
L 32.91875 7.2 
L 32.91875 79.272 
z
" style="fill: none"/>
   </g>
   <g id="matplotlib.axis_1">
    <g id="xtick_1">
     <g id="line2d_1">
      <defs>
       <path id="m4cd371f86f" d="M 0 0 
L 0 2.5 
" style="stroke: #000000; stroke-width: 0.6"/>
      </defs>
      <g>
       <use xlink:href="#m4cd371f86f" x="38.92475" y="79.272" style="stroke: #000000; stroke-width: 0.6"/>
      </g>
     </g>
     <g id="text_1">
      <!-- -1 -->
      <g transform="translate(34.936625 91.35075)scale(0.08 -0.08)">
       <defs>
        <path id="DejaVuSans-2d" d="M 313 2009 
L 1997 2009 
L 1997 1497 
L 313 1497 
L 313 2009 
z
" transform="scale(0.015625)"/>
        <path id="DejaVuSans-31" d="M 794 531 
L 1825 531 
L 1825 4091 
L 703 3866 
L 703 4441 
L 1819 4666 
L 2450 4666 
L 2450 531 
L 3481 531 
L 3481 0 
L 794 0 
L 794 531 
z
" transform="scale(0.015625)"/>
       </defs>
       <use xlink:href="#DejaVuSans-2d"/>
       <use xlink:href="#DejaVuSans-31" x="36.083984"/>
      </g>
     </g>
    </g>
    <g id="xtick_2">
     <g id="line2d_2">
      <g>
       <use xlink:href="#m4cd371f86f" x="68.95475" y="79.272" style="stroke: #000000; stroke-width: 0.6"/>
      </g>
     </g>
     <g id="text_2">
      <!-- 0 -->
      <g transform="translate(66.40975 91.35075)scale(0.08 -0.08)">
       <defs>
        <path id="DejaVuSans-30" d="M 2034 4250 
Q 1547 4250 1301 3770 
Q 1056 3291 1056 2328 
Q 1056 1369 1301 889 
Q 1547 409 2034 409 
Q 2525 409 2770 889 
Q 3016 1369 3016 2328 
Q 3016 3291 2770 3770 
Q 2525 4250 2034 4250 
z
M 2034 4750 
Q 2819 4750 3233 4129 
Q 3647 3509 3647 2328 
Q 3647 1150 3233 529 
Q 2819 -91 2034 -91 
Q 1250 -91 836 529 
Q 422 1150 422 2328 
Q 422 3509 836 4129 
Q 1250 4750 2034 4750 
z
" transform="scale(0.015625)"/>
       </defs>
       <use xlink:href="#DejaVuSans-30"/>
      </g>
     </g>
    </g>
    <g id="xtick_3">
     <g id="line2d_3">
      <g>
       <use xlink:href="#m4cd371f86f" x="98.98475" y="79.272" style="stroke: #000000; stroke-width: 0.6"/>
      </g>
     </g>
     <g id="text_3">
      <!-- 1 -->
      <g transform="translate(96.43975 91.35075)scale(0.08 -0.08)">
       <use xlink:href="#DejaVuSans-31"/>
      </g>
     </g>
    </g>
    <g id="text_4">
     <!-- $x_1$ -->
     <g transform="translate(64.67475 103.09325)scale(0.08 -0.08)">
      <defs>
       <path id="DejaVuSans-Oblique-78" d="M 3841 3500 
L 2234 1784 
L 3219 0 
L 2559 0 
L 1819 1388 
L 531 0 
L -166 0 
L 1556 1844 
L 641 3500 
L 1300 3500 
L 1972 2234 
L 3144 3500 
L 3841 3500 
z
" transform="scale(0.015625)"/>
      </defs>
      <use xlink:href="#DejaVuSans-Oblique-78" transform="translate(0 0.3125)"/>
      <use xlink:href="#DejaVuSans-31" transform="translate(59.179688 -16.09375)scale(0.7)"/>
     </g>
    </g>
   </g>
   <g id="matplotlib.axis_2">
    <g id="ytick_1">
     <g id="line2d_4">
      <defs>
       <path id="m56f3a9ced1" d="M 0 0 
L -2.5 0 
" style="stroke: #000000; stroke-width: 0.6"/>
      </defs>
      <g>
       <use xlink:href="#m56f3a9ced1" x="32.91875" y="73.266" style="stroke: #000000; stroke-width: 0.6"/>
      </g>
     </g>
     <g id="text_5">
      <!-- -1 -->
      <g transform="translate(18.9425 76.305375)scale(0.08 -0.08)">
       <use xlink:href="#DejaVuSans-2d"/>
       <use xlink:href="#DejaVuSans-31" x="36.083984"/>
      </g>
     </g>
    </g>
    <g id="ytick_2">
     <g id="line2d_5">
      <g>
       <use xlink:href="#m56f3a9ced1" x="32.91875" y="43.236" style="stroke: #000000; stroke-width: 0.6"/>
      </g>
     </g>
     <g id="text_6">
      <!-- 0 -->
      <g transform="translate(21.82875 46.275375)scale(0.08 -0.08)">
       <use xlink:href="#DejaVuSans-30"/>
      </g>
     </g>
    </g>
    <g id="ytick_3">
     <g id="line2d_6">
      <g>
       <use xlink:href="#m56f3a9ced1" x="32.91875" y="13.206" style="stroke: #000000; stroke-width: 0.6"/>
      </g>
     </g>
     <g id="text_7">
      <!-- 1 -->
      <g transform="translate(21.82875 16.245375)scale(0.08 -0.08)">
       <use xlink:href="#DejaVuSans-31"/>
      </g>
     </g>
    </g>
    <g id="text_8">
     <!-- $x_2$ -->
     <g transform="translate(13.27875 47.516)rotate(-90)scale(0.08 -0.08)">
      <defs>
       <path id="DejaVuSans-32" d="M 1228 531 
L 3431 531 
L 3431 0 
L 469 0 
L 469 531 
Q 828 903 1448 1529 
Q 2069 2156 2228 2338 
Q 2531 2678 2651 2914 
Q 2772 3150 2772 3378 
Q 2772 3750 2511 3984 
Q 2250 4219 1831 4219 
Q 1534 4219 1204 4116 
Q 875 4013 500 3803 
L 500 4441 
Q 881 4594 1212 4672 
Q 1544 4750 1819 4750 
Q 2544 4750 2975 4387 
Q 3406 4025 3406 3419 
Q 3406 3131 3298 2873 
Q 3191 2616 2906 2266 
Q 2828 2175 2409 1742 
Q 1991 1309 1228 531 
z
" transform="scale(0.015625)"/>
      </defs>
      <use xlink:href="#DejaVuSans-Oblique-78" transform="translate(0 0.3125)"/>
      <use xlink:href="#DejaVuSans-32" transform="translate(59.179688 -16.09375)scale(0.7)"/>
     </g>
    </g>
   </g>
   <g id="PathCollection_1">
    <path d="M 55.509157 72.959624 
L 55.399469 72.949101 
L 55.177167 72.927677 
L 54.845177 72.893206 
L 54.513187 72.856083 
L 54.181197 72.816159 
L 53.849207 72.773281 
L 53.517217 72.727288 
L 53.185227 72.678011 
L 52.853237 72.625275 
L 52.804944 72.617111 
L 52.521247 72.568753 
L 52.189258 72.508337 
L 51.857268 72.443848 
L 51.525278 72.375071 
L 51.193288 72.301785 
L 51.121998 72.285121 
L 50.861298 72.223482 
L 50.529308 72.140056 
L 50.197318 72.051315 
L 49.865328 71.956989 
L 49.852439 71.953131 
L 49.533338 71.856212 
L 49.201348 71.749138 
L 48.869358 71.635469 
L 48.829567 71.621141 
L 48.537368 71.514081 
L 48.205378 71.385164 
L 47.97147 71.289151 
L 47.873388 71.248093 
L 47.541398 71.101851 
L 47.231338 70.957161 
L 47.209408 70.946699 
L 46.877418 70.780696 
L 46.583534 70.625171 
L 46.545428 70.604503 
L 46.213438 70.415881 
L 46.008519 70.293181 
L 45.881448 70.214992 
L 45.549459 70.000406 
L 45.491454 69.961191 
L 45.217469 69.770323 
L 45.024483 69.629201 
L 44.885479 69.524254 
L 44.598397 69.297211 
L 44.553489 69.260469 
L 44.221499 68.976743 
L 44.208553 68.965221 
L 43.889509 68.670625 
L 43.850635 68.633231 
L 43.557519 68.340115 
L 43.520125 68.301241 
L 43.225529 67.982197 
L 43.214007 67.969251 
L 42.930281 67.637261 
L 42.893539 67.592353 
L 42.666496 67.305271 
L 42.561549 67.166267 
L 42.420427 66.973281 
L 42.229559 66.699296 
L 42.190344 66.641291 
L 41.975758 66.309302 
L 41.897569 66.182231 
L 41.774869 65.977312 
L 41.586247 65.645322 
L 41.565579 65.607216 
L 41.410054 65.313332 
L 41.244051 64.981342 
L 41.233589 64.959412 
L 41.088899 64.649352 
L 40.942657 64.317362 
L 40.901599 64.21928 
L 40.805586 63.985372 
L 40.676669 63.653382 
L 40.569609 63.361183 
L 40.555281 63.321392 
L 40.441612 62.989402 
L 40.334538 62.657412 
L 40.237619 62.338311 
L 40.233761 62.325422 
L 40.139435 61.993432 
L 40.050694 61.661442 
L 39.967268 61.329452 
L 39.905629 61.068752 
L 39.888965 60.997462 
L 39.815679 60.665472 
L 39.746902 60.333482 
L 39.682413 60.001492 
L 39.621997 59.669503 
L 39.573639 59.385806 
L 39.565475 59.337513 
L 39.512739 59.005523 
L 39.463462 58.673533 
L 39.417469 58.341543 
L 39.374591 58.009553 
L 39.334667 57.677563 
L 39.297544 57.345573 
L 39.263073 57.013583 
L 39.241649 56.791281 
L 39.231126 56.681593 
L 39.201575 56.349603 
L 39.174257 56.017613 
L 39.14905 55.685623 
L 39.125836 55.353633 
L 39.104498 55.021643 
L 39.084929 54.689653 
L 39.067022 54.357663 
L 39.050677 54.025673 
L 39.035795 53.693683 
L 39.022285 53.361693 
L 39.010056 53.029704 
L 38.999022 52.697714 
L 38.989102 52.365724 
L 38.980214 52.033734 
L 38.972285 51.701744 
L 38.965241 51.369754 
L 38.959013 51.037764 
L 38.953535 50.705774 
L 38.948743 50.373784 
L 38.944577 50.041794 
L 38.940979 49.709804 
L 38.937895 49.377814 
L 38.935274 49.045824 
L 38.933066 48.713834 
L 38.931225 48.381844 
L 38.929709 48.049854 
L 38.928476 47.717864 
L 38.927488 47.385874 
L 38.926712 47.053884 
L 38.926113 46.721894 
L 38.925663 46.389905 
L 38.925335 46.057915 
L 38.925105 45.725925 
L 38.92495 45.393935 
L 38.924853 45.061945 
L 38.924796 44.729955 
L 38.924767 44.397965 
L 38.924754 44.065975 
L 38.924751 43.733985 
L 38.92475 43.401995 
L 38.92475 43.070005 
L 38.924751 42.738015 
L 38.924754 42.406025 
L 38.924767 42.074035 
L 38.924796 41.742045 
L 38.924853 41.410055 
L 38.92495 41.078065 
L 38.925105 40.746075 
L 38.925335 40.414085 
L 38.925663 40.082095 
L 38.926113 39.750106 
L 38.926712 39.418116 
L 38.927488 39.086126 
L 38.928476 38.754136 
L 38.929709 38.422146 
L 38.931225 38.090156 
L 38.933066 37.758166 
L 38.935274 37.426176 
L 38.937895 37.094186 
L 38.940979 36.762196 
L 38.944577 36.430206 
L 38.948743 36.098216 
L 38.953535 35.766226 
L 38.959013 35.434236 
L 38.965241 35.102246 
L 38.972285 34.770256 
L 38.980214 34.438266 
L 38.989102 34.106276 
L 38.999022 33.774286 
L 39.010056 33.442296 
L 39.022285 33.110307 
L 39.035795 32.778317 
L 39.050677 32.446327 
L 39.067022 32.114337 
L 39.084929 31.782347 
L 39.104498 31.450357 
L 39.125836 31.118367 
L 39.14905 30.786377 
L 39.174257 30.454387 
L 39.201575 30.122397 
L 39.231126 29.790407 
L 39.241649 29.680719 
L 39.263073 29.458417 
L 39.297544 29.126427 
L 39.334667 28.794437 
L 39.374591 28.462447 
L 39.417469 28.130457 
L 39.463462 27.798467 
L 39.512739 27.466477 
L 39.565475 27.134487 
L 39.573639 27.086194 
L 39.621997 26.802497 
L 39.682413 26.470508 
L 39.746902 26.138518 
L 39.815679 25.806528 
L 39.888965 25.474538 
L 39.905629 25.403248 
L 39.967268 25.142548 
L 40.050694 24.810558 
L 40.139435 24.478568 
L 40.233761 24.146578 
L 40.237619 24.133689 
L 40.334538 23.814588 
L 40.441612 23.482598 
L 40.555281 23.150608 
L 40.569609 23.110817 
L 40.676669 22.818618 
L 40.805586 22.486628 
L 40.901599 22.25272 
L 40.942657 22.154638 
L 41.088899 21.822648 
L 41.233589 21.512588 
L 41.244051 21.490658 
L 41.410054 21.158668 
L 41.565579 20.864784 
L 41.586247 20.826678 
L 41.774869 20.494688 
L 41.897569 20.289769 
L 41.975758 20.162698 
L 42.190344 19.830709 
L 42.229559 19.772704 
L 42.420427 19.498719 
L 42.561549 19.305733 
L 42.666496 19.166729 
L 42.893539 18.879647 
L 42.930281 18.834739 
L 43.214007 18.502749 
L 43.225529 18.489803 
L 43.520125 18.170759 
L 43.557519 18.131885 
L 43.850635 17.838769 
L 43.889509 17.801375 
L 44.208553 17.506779 
L 44.221499 17.495257 
L 44.553489 17.211531 
L 44.598397 17.174789 
L 44.885479 16.947746 
L 45.024483 16.842799 
L 45.217469 16.701677 
L 45.491454 16.510809 
L 45.549459 16.471594 
L 45.881448 16.257008 
L 46.008519 16.178819 
L 46.213438 16.056119 
L 46.545428 15.867497 
L 46.583534 15.846829 
L 46.877418 15.691304 
L 47.209408 15.525301 
L 47.231338 15.514839 
L 47.541398 15.370149 
L 47.873388 15.223907 
L 47.97147 15.182849 
L 48.205378 15.086836 
L 48.537368 14.957919 
L 48.829567 14.850859 
L 48.869358 14.836531 
L 49.201348 14.722862 
L 49.533338 14.615788 
L 49.852439 14.518869 
L 49.865328 14.515011 
L 50.197318 14.420685 
L 50.529308 14.331944 
L 50.861298 14.248518 
L 51.121998 14.186879 
L 51.193288 14.170215 
L 51.525278 14.096929 
L 51.857268 14.028152 
L 52.189258 13.963663 
L 52.521247 13.903247 
L 52.804944 13.854889 
L 52.853237 13.846725 
L 53.185227 13.793989 
L 53.517217 13.744712 
L 53.849207 13.698719 
L 54.181197 13.655841 
L 54.513187 13.615917 
L 54.845177 13.578794 
L 55.177167 13.544323 
L 55.399469 13.522899 
L 55.509157 13.512376 
L 55.841147 13.482825 
L 56.173137 13.455507 
L 56.505127 13.4303 
L 56.837117 13.407086 
L 57.169107 13.385748 
L 57.501097 13.366179 
L 57.833087 13.348272 
L 58.165077 13.331927 
L 58.497067 13.317045 
L 58.829057 13.303535 
L 59.161046 13.291306 
L 59.493036 13.280272 
L 59.825026 13.270352 
L 60.157016 13.261464 
L 60.489006 13.253535 
L 60.820996 13.246491 
L 61.152986 13.240263 
L 61.484976 13.234785 
L 61.816966 13.229993 
L 62.148956 13.225827 
L 62.480946 13.222229 
L 62.812936 13.219145 
L 63.144926 13.216524 
L 63.476916 13.214316 
L 63.808906 13.212475 
L 64.140896 13.210959 
L 64.472886 13.209726 
L 64.804876 13.208738 
L 65.136866 13.207962 
L 65.468856 13.207363 
L 65.800845 13.206913 
L 66.132835 13.206585 
L 66.464825 13.206355 
L 66.796815 13.2062 
L 67.128805 13.206103 
L 67.460795 13.206046 
L 67.792785 13.206017 
L 68.124775 13.206004 
L 68.456765 13.206001 
L 68.788755 13.206 
L 69.120745 13.206 
L 69.452735 13.206001 
L 69.784725 13.206004 
L 70.116715 13.206017 
L 70.448705 13.206046 
L 70.780695 13.206103 
L 71.112685 13.2062 
L 71.444675 13.206355 
L 71.776665 13.206585 
L 72.108655 13.206913 
L 72.440644 13.207363 
L 72.772634 13.207962 
L 73.104624 13.208738 
L 73.436614 13.209726 
L 73.768604 13.210959 
L 74.100594 13.212475 
L 74.432584 13.214316 
L 74.764574 13.216524 
L 75.096564 13.219145 
L 75.428554 13.222229 
L 75.760544 13.225827 
L 76.092534 13.229993 
L 76.424524 13.234785 
L 76.756514 13.240263 
L 77.088504 13.246491 
L 77.420494 13.253535 
L 77.752484 13.261464 
L 78.084474 13.270352 
L 78.416464 13.280272 
L 78.748454 13.291306 
L 79.080443 13.303535 
L 79.412433 13.317045 
L 79.744423 13.331927 
L 80.076413 13.348272 
L 80.408403 13.366179 
L 80.740393 13.385748 
L 81.072383 13.407086 
L 81.404373 13.4303 
L 81.736363 13.455507 
L 82.068353 13.482825 
L 82.400343 13.512376 
L 82.510031 13.522899 
L 82.732333 13.544323 
L 83.064323 13.578794 
L 83.396313 13.615917 
L 83.728303 13.655841 
L 84.060293 13.698719 
L 84.392283 13.744712 
L 84.724273 13.793989 
L 85.056263 13.846725 
L 85.104556 13.854889 
L 85.388253 13.903247 
L 85.720242 13.963663 
L 86.052232 14.028152 
L 86.384222 14.096929 
L 86.716212 14.170215 
L 86.787502 14.186879 
L 87.048202 14.248518 
L 87.380192 14.331944 
L 87.712182 14.420685 
L 88.044172 14.515011 
L 88.057061 14.518869 
L 88.376162 14.615788 
L 88.708152 14.722862 
L 89.040142 14.836531 
L 89.079933 14.850859 
L 89.372132 14.957919 
L 89.704122 15.086836 
L 89.93803 15.182849 
L 90.036112 15.223907 
L 90.368102 15.370149 
L 90.678162 15.514839 
L 90.700092 15.525301 
L 91.032082 15.691304 
L 91.325966 15.846829 
L 91.364072 15.867497 
L 91.696062 16.056119 
L 91.900981 16.178819 
L 92.028052 16.257008 
L 92.360041 16.471594 
L 92.418046 16.510809 
L 92.692031 16.701677 
L 92.885017 16.842799 
L 93.024021 16.947746 
L 93.311103 17.174789 
L 93.356011 17.211531 
L 93.688001 17.495257 
L 93.700947 17.506779 
L 94.019991 17.801375 
L 94.058865 17.838769 
L 94.351981 18.131885 
L 94.389375 18.170759 
L 94.683971 18.489803 
L 94.695493 18.502749 
L 94.979219 18.834739 
L 95.015961 18.879647 
L 95.243004 19.166729 
L 95.347951 19.305733 
L 95.489073 19.498719 
L 95.679941 19.772704 
L 95.719156 19.830709 
L 95.933742 20.162698 
L 96.011931 20.289769 
L 96.134631 20.494688 
L 96.323253 20.826678 
L 96.343921 20.864784 
L 96.499446 21.158668 
L 96.665449 21.490658 
L 96.675911 21.512588 
L 96.820601 21.822648 
L 96.966843 22.154638 
L 97.007901 22.25272 
L 97.103914 22.486628 
L 97.232831 22.818618 
L 97.339891 23.110817 
L 97.354219 23.150608 
L 97.467888 23.482598 
L 97.574962 23.814588 
L 97.671881 24.133689 
L 97.675739 24.146578 
L 97.770065 24.478568 
L 97.858806 24.810558 
L 97.942232 25.142548 
L 98.003871 25.403248 
L 98.020535 25.474538 
L 98.093821 25.806528 
L 98.162598 26.138518 
L 98.227087 26.470508 
L 98.287503 26.802497 
L 98.335861 27.086194 
L 98.344025 27.134487 
L 98.396761 27.466477 
L 98.446038 27.798467 
L 98.492031 28.130457 
L 98.534909 28.462447 
L 98.574833 28.794437 
L 98.611956 29.126427 
L 98.646427 29.458417 
L 98.667851 29.680719 
L 98.678374 29.790407 
L 98.707925 30.122397 
L 98.735243 30.454387 
L 98.76045 30.786377 
L 98.783664 31.118367 
L 98.805002 31.450357 
L 98.824571 31.782347 
L 98.842478 32.114337 
L 98.858823 32.446327 
L 98.873705 32.778317 
L 98.887215 33.110307 
L 98.899444 33.442296 
L 98.910478 33.774286 
L 98.920398 34.106276 
L 98.929286 34.438266 
L 98.937215 34.770256 
L 98.944259 35.102246 
L 98.950487 35.434236 
L 98.955965 35.766226 
L 98.960757 36.098216 
L 98.964923 36.430206 
L 98.968521 36.762196 
L 98.971605 37.094186 
L 98.974226 37.426176 
L 98.976434 37.758166 
L 98.978275 38.090156 
L 98.979791 38.422146 
L 98.981024 38.754136 
L 98.982012 39.086126 
L 98.982788 39.418116 
L 98.983387 39.750106 
L 98.983837 40.082095 
L 98.984165 40.414085 
L 98.984395 40.746075 
L 98.98455 41.078065 
L 98.984647 41.410055 
L 98.984704 41.742045 
L 98.984733 42.074035 
L 98.984746 42.406025 
L 98.984749 42.738015 
L 98.98475 43.070005 
L 98.98475 43.401995 
L 98.984749 43.733985 
L 98.984746 44.065975 
L 98.984733 44.397965 
L 98.984704 44.729955 
L 98.984647 45.061945 
L 98.98455 45.393935 
L 98.984395 45.725925 
L 98.984165 46.057915 
L 98.983837 46.389905 
L 98.983387 46.721894 
L 98.982788 47.053884 
L 98.982012 47.385874 
L 98.981024 47.717864 
L 98.979791 48.049854 
L 98.978275 48.381844 
L 98.976434 48.713834 
L 98.974226 49.045824 
L 98.971605 49.377814 
L 98.968521 49.709804 
L 98.964923 50.041794 
L 98.960757 50.373784 
L 98.955965 50.705774 
L 98.950487 51.037764 
L 98.944259 51.369754 
L 98.937215 51.701744 
L 98.929286 52.033734 
L 98.920398 52.365724 
L 98.910478 52.697714 
L 98.899444 53.029704 
L 98.887215 53.361693 
L 98.873705 53.693683 
L 98.858823 54.025673 
L 98.842478 54.357663 
L 98.824571 54.689653 
L 98.805002 55.021643 
L 98.783664 55.353633 
L 98.76045 55.685623 
L 98.735243 56.017613 
L 98.707925 56.349603 
L 98.678374 56.681593 
L 98.667851 56.791281 
L 98.646427 57.013583 
L 98.611956 57.345573 
L 98.574833 57.677563 
L 98.534909 58.009553 
L 98.492031 58.341543 
L 98.446038 58.673533 
L 98.396761 59.005523 
L 98.344025 59.337513 
L 98.335861 59.385806 
L 98.287503 59.669503 
L 98.227087 60.001492 
L 98.162598 60.333482 
L 98.093821 60.665472 
L 98.020535 60.997462 
L 98.003871 61.068752 
L 97.942232 61.329452 
L 97.858806 61.661442 
L 97.770065 61.993432 
L 97.675739 62.325422 
L 97.671881 62.338311 
L 97.574962 62.657412 
L 97.467888 62.989402 
L 97.354219 63.321392 
L 97.339891 63.361183 
L 97.232831 63.653382 
L 97.103914 63.985372 
L 97.007901 64.21928 
L 96.966843 64.317362 
L 96.820601 64.649352 
L 96.675911 64.959412 
L 96.665449 64.981342 
L 96.499446 65.313332 
L 96.343921 65.607216 
L 96.323253 65.645322 
L 96.134631 65.977312 
L 96.011931 66.182231 
L 95.933742 66.309302 
L 95.719156 66.641291 
L 95.679941 66.699296 
L 95.489073 66.973281 
L 95.347951 67.166267 
L 95.243004 67.305271 
L 95.015961 67.592353 
L 94.979219 67.637261 
L 94.695493 67.969251 
L 94.683971 67.982197 
L 94.389375 68.301241 
L 94.351981 68.340115 
L 94.058865 68.633231 
L 94.019991 68.670625 
L 93.700947 68.965221 
L 93.688001 68.976743 
L 93.356011 69.260469 
L 93.311103 69.297211 
L 93.024021 69.524254 
L 92.885017 69.629201 
L 92.692031 69.770323 
L 92.418046 69.961191 
L 92.360041 70.000406 
L 92.028052 70.214992 
L 91.900981 70.293181 
L 91.696062 70.415881 
L 91.364072 70.604503 
L 91.325966 70.625171 
L 91.032082 70.780696 
L 90.700092 70.946699 
L 90.678162 70.957161 
L 90.368102 71.101851 
L 90.036112 71.248093 
L 89.93803 71.289151 
L 89.704122 71.385164 
L 89.372132 71.514081 
L 89.079933 71.621141 
L 89.040142 71.635469 
L 88.708152 71.749138 
L 88.376162 71.856212 
L 88.057061 71.953131 
L 88.044172 71.956989 
L 87.712182 72.051315 
L 87.380192 72.140056 
L 87.048202 72.223482 
L 86.787502 72.285121 
L 86.716212 72.301785 
L 86.384222 72.375071 
L 86.052232 72.443848 
L 85.720242 72.508337 
L 85.388253 72.568753 
L 85.104556 72.617111 
L 85.056263 72.625275 
L 84.724273 72.678011 
L 84.392283 72.727288 
L 84.060293 72.773281 
L 83.728303 72.816159 
L 83.396313 72.856083 
L 83.064323 72.893206 
L 82.732333 72.927677 
L 82.510031 72.949101 
L 82.400343 72.959624 
L 82.068353 72.989175 
L 81.736363 73.016493 
L 81.404373 73.0417 
L 81.072383 73.064914 
L 80.740393 73.086252 
L 80.408403 73.105821 
L 80.076413 73.123728 
L 79.744423 73.140073 
L 79.412433 73.154955 
L 79.080443 73.168465 
L 78.748454 73.180694 
L 78.416464 73.191728 
L 78.084474 73.201648 
L 77.752484 73.210536 
L 77.420494 73.218465 
L 77.088504 73.225509 
L 76.756514 73.231737 
L 76.424524 73.237215 
L 76.092534 73.242007 
L 75.760544 73.246173 
L 75.428554 73.249771 
L 75.096564 73.252855 
L 74.764574 73.255476 
L 74.432584 73.257684 
L 74.100594 73.259525 
L 73.768604 73.261041 
L 73.436614 73.262274 
L 73.104624 73.263262 
L 72.772634 73.264038 
L 72.440644 73.264637 
L 72.108655 73.265087 
L 71.776665 73.265415 
L 71.444675 73.265645 
L 71.112685 73.2658 
L 70.780695 73.265897 
L 70.448705 73.265954 
L 70.116715 73.265983 
L 69.784725 73.265996 
L 69.452735 73.265999 
L 69.120745 73.266 
L 68.788755 73.266 
L 68.456765 73.265999 
L 68.124775 73.265996 
L 67.792785 73.265983 
L 67.460795 73.265954 
L 67.128805 73.265897 
L 66.796815 73.2658 
L 66.464825 73.265645 
L 66.132835 73.265415 
L 65.800845 73.265087 
L 65.468856 73.264637 
L 65.136866 73.264038 
L 64.804876 73.263262 
L 64.472886 73.262274 
L 64.140896 73.261041 
L 63.808906 73.259525 
L 63.476916 73.257684 
L 63.144926 73.255476 
L 62.812936 73.252855 
L 62.480946 73.249771 
L 62.148956 73.246173 
L 61.816966 73.242007 
L 61.484976 73.237215 
L 61.152986 73.231737 
L 60.820996 73.225509 
L 60.489006 73.218465 
L 60.157016 73.210536 
L 59.825026 73.201648 
L 59.493036 73.191728 
L 59.161046 73.180694 
L 58.829057 73.168465 
L 58.497067 73.154955 
L 58.165077 73.140073 
L 57.833087 73.123728 
L 57.501097 73.105821 
L 57.169107 73.086252 
L 56.837117 73.064914 
L 56.505127 73.0417 
L 56.173137 73.016493 
L 55.841147 72.989175 
L 55.509157 72.959624 
z
" clip-path="url(#p562673c1d3)" style="fill: none; stroke: #ff1f5b"/>
   </g>
   <g id="patch_3">
    <path d="M 32.91875 79.272 
L 32.91875 7.2 
" style="fill: none; stroke: #000000; stroke-width: 0.6; stroke-linejoin: miter; stroke-linecap: square"/>
   </g>
   <g id="patch_4">
    <path d="M 32.91875 79.272 
L 104.99075 79.272 
" style="fill: none; stroke: #000000; stroke-width: 0.6; stroke-linejoin: miter; stroke-linecap: square"/>
   </g>
  </g>
 </g>
 <defs>
  <clipPath id="p562673c1d3">
   <rect x="32.91875" y="7.2" width="72.072" height="72.072"/>
  </clipPath>
 </defs>
</svg>
