<?xml version="1.0" encoding="utf-8" standalone="no"?>
<!DOCTYPE svg PUBLIC "-//W3C//DTD SVG 1.1//EN"
  "http://www.w3.org/Graphics/SVG/1.1/DTD/svg11.dtd">
<svg xmlns:xlink="http://www.w3.org/1999/xlink" width="112.19075pt" height="111.957pt" viewBox="0 0 112.19075 111.957" xmlns="http://www.w3.org/2000/svg" version="1.1">
 <metadata>
  <rdf:RDF xmlns:dc="http://purl.org/dc/elements/1.1/" xmlns:cc="http://creativecommons.org/ns#" xmlns:rdf="http://www.w3.org/1999/02/22-rdf-syntax-ns#">
   <cc:Work>
    <dc:type rdf:resource="http://purl.org/dc/dcmitype/StillImage"/>
    <dc:format>image/svg+xml</dc:format>
    <dc:creator>
     <cc:Agent>
      <dc:title>Matplotlib v3.5.2, https://matplotlib.org/</dc:title>
     </cc:Agent>
    </dc:creator>
   </cc:Work>
  </rdf:RDF>
 </metadata>
 <defs>
  <style type="text/css">*{stroke-linejoin: round; stroke-linecap: butt}</style>
 </defs>
 <g id="figure_1">
  <g id="patch_1">
   <path d="M -0 111.957 
L 112.19075 111.957 
L 112.19075 0 
L -0 0 
L -0 111.957 
z
" style="fill: none"/>
  </g>
  <g id="axes_1">
   <g id="patch_2">
    <path d="M 32.91875 79.272 
L 104.99075 79.272 
L 104.99075 7.2 
L 32.91875 7.2 
L 32.91875 79.272 
z
" style="fill: none"/>
   </g>
   <g id="matplotlib.axis_1">
    <g id="xtick_1">
     <g id="line2d_1">
      <defs>
       <path id="m4cd371f86f" d="M 0 0 
L 0 2.5 
" style="stroke: #000000; stroke-width: 0.6"/>
      </defs>
      <g>
       <use xlink:href="#m4cd371f86f" x="38.92475" y="79.272" style="stroke: #000000; stroke-width: 0.6"/>
      </g>
     </g>
     <g id="text_1">
      <!-- -1 -->
      <g transform="translate(34.936625 91.35075)scale(0.08 -0.08)">
       <defs>
        <path id="DejaVuSans-2d" d="M 313 2009 
L 1997 2009 
L 1997 1497 
L 313 1497 
L 313 2009 
z
" transform="scale(0.015625)"/>
        <path id="DejaVuSans-31" d="M 794 531 
L 1825 531 
L 1825 4091 
L 703 3866 
L 703 4441 
L 1819 4666 
L 2450 4666 
L 2450 531 
L 3481 531 
L 3481 0 
L 794 0 
L 794 531 
z
" transform="scale(0.015625)"/>
       </defs>
       <use xlink:href="#DejaVuSans-2d"/>
       <use xlink:href="#DejaVuSans-31" x="36.083984"/>
      </g>
     </g>
    </g>
    <g id="xtick_2">
     <g id="line2d_2">
      <g>
       <use xlink:href="#m4cd371f86f" x="68.95475" y="79.272" style="stroke: #000000; stroke-width: 0.6"/>
      </g>
     </g>
     <g id="text_2">
      <!-- 0 -->
      <g transform="translate(66.40975 91.35075)scale(0.08 -0.08)">
       <defs>
        <path id="DejaVuSans-30" d="M 2034 4250 
Q 1547 4250 1301 3770 
Q 1056 3291 1056 2328 
Q 1056 1369 1301 889 
Q 1547 409 2034 409 
Q 2525 409 2770 889 
Q 3016 1369 3016 2328 
Q 3016 3291 2770 3770 
Q 2525 4250 2034 4250 
z
M 2034 4750 
Q 2819 4750 3233 4129 
Q 3647 3509 3647 2328 
Q 3647 1150 3233 529 
Q 2819 -91 2034 -91 
Q 1250 -91 836 529 
Q 422 1150 422 2328 
Q 422 3509 836 4129 
Q 1250 4750 2034 4750 
z
" transform="scale(0.015625)"/>
       </defs>
       <use xlink:href="#DejaVuSans-30"/>
      </g>
     </g>
    </g>
    <g id="xtick_3">
     <g id="line2d_3">
      <g>
       <use xlink:href="#m4cd371f86f" x="98.98475" y="79.272" style="stroke: #000000; stroke-width: 0.6"/>
      </g>
     </g>
     <g id="text_3">
      <!-- 1 -->
      <g transform="translate(96.43975 91.35075)scale(0.08 -0.08)">
       <use xlink:href="#DejaVuSans-31"/>
      </g>
     </g>
    </g>
    <g id="text_4">
     <!-- $x_1$ -->
     <g transform="translate(64.67475 103.09325)scale(0.08 -0.08)">
      <defs>
       <path id="DejaVuSans-Oblique-78" d="M 3841 3500 
L 2234 1784 
L 3219 0 
L 2559 0 
L 1819 1388 
L 531 0 
L -166 0 
L 1556 1844 
L 641 3500 
L 1300 3500 
L 1972 2234 
L 3144 3500 
L 3841 3500 
z
" transform="scale(0.015625)"/>
      </defs>
      <use xlink:href="#DejaVuSans-Oblique-78" transform="translate(0 0.3125)"/>
      <use xlink:href="#DejaVuSans-31" transform="translate(59.179688 -16.09375)scale(0.7)"/>
     </g>
    </g>
   </g>
   <g id="matplotlib.axis_2">
    <g id="ytick_1">
     <g id="line2d_4">
      <defs>
       <path id="m56f3a9ced1" d="M 0 0 
L -2.5 0 
" style="stroke: #000000; stroke-width: 0.6"/>
      </defs>
      <g>
       <use xlink:href="#m56f3a9ced1" x="32.91875" y="73.266" style="stroke: #000000; stroke-width: 0.6"/>
      </g>
     </g>
     <g id="text_5">
      <!-- -1 -->
      <g transform="translate(18.9425 76.305375)scale(0.08 -0.08)">
       <use xlink:href="#DejaVuSans-2d"/>
       <use xlink:href="#DejaVuSans-31" x="36.083984"/>
      </g>
     </g>
    </g>
    <g id="ytick_2">
     <g id="line2d_5">
      <g>
       <use xlink:href="#m56f3a9ced1" x="32.91875" y="43.236" style="stroke: #000000; stroke-width: 0.6"/>
      </g>
     </g>
     <g id="text_6">
      <!-- 0 -->
      <g transform="translate(21.82875 46.275375)scale(0.08 -0.08)">
       <use xlink:href="#DejaVuSans-30"/>
      </g>
     </g>
    </g>
    <g id="ytick_3">
     <g id="line2d_6">
      <g>
       <use xlink:href="#m56f3a9ced1" x="32.91875" y="13.206" style="stroke: #000000; stroke-width: 0.6"/>
      </g>
     </g>
     <g id="text_7">
      <!-- 1 -->
      <g transform="translate(21.82875 16.245375)scale(0.08 -0.08)">
       <use xlink:href="#DejaVuSans-31"/>
      </g>
     </g>
    </g>
    <g id="text_8">
     <!-- $x_2$ -->
     <g transform="translate(13.27875 47.516)rotate(-90)scale(0.08 -0.08)">
      <defs>
       <path id="DejaVuSans-32" d="M 1228 531 
L 3431 531 
L 3431 0 
L 469 0 
L 469 531 
Q 828 903 1448 1529 
Q 2069 2156 2228 2338 
Q 2531 2678 2651 2914 
Q 2772 3150 2772 3378 
Q 2772 3750 2511 3984 
Q 2250 4219 1831 4219 
Q 1534 4219 1204 4116 
Q 875 4013 500 3803 
L 500 4441 
Q 881 4594 1212 4672 
Q 1544 4750 1819 4750 
Q 2544 4750 2975 4387 
Q 3406 4025 3406 3419 
Q 3406 3131 3298 2873 
Q 3191 2616 2906 2266 
Q 2828 2175 2409 1742 
Q 1991 1309 1228 531 
z
" transform="scale(0.015625)"/>
      </defs>
      <use xlink:href="#DejaVuSans-Oblique-78" transform="translate(0 0.3125)"/>
      <use xlink:href="#DejaVuSans-32" transform="translate(59.179688 -16.09375)scale(0.7)"/>
     </g>
    </g>
   </g>
   <g id="PathCollection_1">
    <path d="M 39.241649 73.266 
L 38.92475 72.949101 
L 38.92475 72.617111 
L 38.92475 72.285121 
L 38.92475 71.953131 
L 38.92475 71.621141 
L 38.92475 71.289151 
L 38.92475 70.957161 
L 38.92475 70.625171 
L 38.92475 70.293181 
L 38.92475 69.961191 
L 38.92475 69.629201 
L 38.92475 69.297211 
L 38.92475 68.965221 
L 38.92475 68.633231 
L 38.92475 68.301241 
L 38.92475 67.969251 
L 38.92475 67.637261 
L 38.92475 67.305271 
L 38.92475 66.973281 
L 38.92475 66.641291 
L 38.92475 66.309302 
L 38.92475 65.977312 
L 38.92475 65.645322 
L 38.92475 65.313332 
L 38.92475 64.981342 
L 38.92475 64.649352 
L 38.92475 64.317362 
L 38.92475 63.985372 
L 38.92475 63.653382 
L 38.92475 63.321392 
L 38.92475 62.989402 
L 38.92475 62.657412 
L 38.92475 62.325422 
L 38.92475 61.993432 
L 38.92475 61.661442 
L 38.92475 61.329452 
L 38.92475 60.997462 
L 38.92475 60.665472 
L 38.92475 60.333482 
L 38.92475 60.001492 
L 38.92475 59.669503 
L 38.92475 59.337513 
L 38.92475 59.005523 
L 38.92475 58.673533 
L 38.92475 58.341543 
L 38.92475 58.009553 
L 38.92475 57.677563 
L 38.92475 57.345573 
L 38.92475 57.013583 
L 38.92475 56.681593 
L 38.92475 56.349603 
L 38.92475 56.017613 
L 38.92475 55.685623 
L 38.92475 55.353633 
L 38.92475 55.021643 
L 38.92475 54.689653 
L 38.92475 54.357663 
L 38.92475 54.025673 
L 38.92475 53.693683 
L 38.92475 53.361693 
L 38.92475 53.029704 
L 38.92475 52.697714 
L 38.92475 52.365724 
L 38.92475 52.033734 
L 38.92475 51.701744 
L 38.92475 51.369754 
L 38.92475 51.037764 
L 38.92475 50.705774 
L 38.92475 50.373784 
L 38.92475 50.041794 
L 38.92475 49.709804 
L 38.92475 49.377814 
L 38.92475 49.045824 
L 38.92475 48.713834 
L 38.92475 48.381844 
L 38.92475 48.049854 
L 38.92475 47.717864 
L 38.92475 47.385874 
L 38.92475 47.053884 
L 38.92475 46.721894 
L 38.92475 46.389905 
L 38.92475 46.057915 
L 38.92475 45.725925 
L 38.92475 45.393935 
L 38.92475 45.061945 
L 38.92475 44.729955 
L 38.92475 44.397965 
L 38.92475 44.065975 
L 38.92475 43.733985 
L 38.92475 43.401995 
L 38.92475 43.070005 
L 38.92475 42.738015 
L 38.92475 42.406025 
L 38.92475 42.074035 
L 38.92475 41.742045 
L 38.92475 41.410055 
L 38.92475 41.078065 
L 38.92475 40.746075 
L 38.92475 40.414085 
L 38.92475 40.082095 
L 38.92475 39.750106 
L 38.92475 39.418116 
L 38.92475 39.086126 
L 38.92475 38.754136 
L 38.92475 38.422146 
L 38.92475 38.090156 
L 38.92475 37.758166 
L 38.92475 37.426176 
L 38.92475 37.094186 
L 38.92475 36.762196 
L 38.92475 36.430206 
L 38.92475 36.098216 
L 38.92475 35.766226 
L 38.92475 35.434236 
L 38.92475 35.102246 
L 38.92475 34.770256 
L 38.92475 34.438266 
L 38.92475 34.106276 
L 38.92475 33.774286 
L 38.92475 33.442296 
L 38.92475 33.110307 
L 38.92475 32.778317 
L 38.92475 32.446327 
L 38.92475 32.114337 
L 38.92475 31.782347 
L 38.92475 31.450357 
L 38.92475 31.118367 
L 38.92475 30.786377 
L 38.92475 30.454387 
L 38.92475 30.122397 
L 38.92475 29.790407 
L 38.92475 29.458417 
L 38.92475 29.126427 
L 38.92475 28.794437 
L 38.92475 28.462447 
L 38.92475 28.130457 
L 38.92475 27.798467 
L 38.92475 27.466477 
L 38.92475 27.134487 
L 38.92475 26.802497 
L 38.92475 26.470508 
L 38.92475 26.138518 
L 38.92475 25.806528 
L 38.92475 25.474538 
L 38.92475 25.142548 
L 38.92475 24.810558 
L 38.92475 24.478568 
L 38.92475 24.146578 
L 38.92475 23.814588 
L 38.92475 23.482598 
L 38.92475 23.150608 
L 38.92475 22.818618 
L 38.92475 22.486628 
L 38.92475 22.154638 
L 38.92475 21.822648 
L 38.92475 21.490658 
L 38.92475 21.158668 
L 38.92475 20.826678 
L 38.92475 20.494688 
L 38.92475 20.162698 
L 38.92475 19.830709 
L 38.92475 19.498719 
L 38.92475 19.166729 
L 38.92475 18.834739 
L 38.92475 18.502749 
L 38.92475 18.170759 
L 38.92475 17.838769 
L 38.92475 17.506779 
L 38.92475 17.174789 
L 38.92475 16.842799 
L 38.92475 16.510809 
L 38.92475 16.178819 
L 38.92475 15.846829 
L 38.92475 15.514839 
L 38.92475 15.182849 
L 38.92475 14.850859 
L 38.92475 14.518869 
L 38.92475 14.186879 
L 38.92475 13.854889 
L 38.92475 13.522899 
L 39.241649 13.206 
L 39.573639 13.206 
L 39.905629 13.206 
L 40.237619 13.206 
L 40.569609 13.206 
L 40.901599 13.206 
L 41.233589 13.206 
L 41.565579 13.206 
L 41.897569 13.206 
L 42.229559 13.206 
L 42.561549 13.206 
L 42.893539 13.206 
L 43.225529 13.206 
L 43.557519 13.206 
L 43.889509 13.206 
L 44.221499 13.206 
L 44.553489 13.206 
L 44.885479 13.206 
L 45.217469 13.206 
L 45.549459 13.206 
L 45.881448 13.206 
L 46.213438 13.206 
L 46.545428 13.206 
L 46.877418 13.206 
L 47.209408 13.206 
L 47.541398 13.206 
L 47.873388 13.206 
L 48.205378 13.206 
L 48.537368 13.206 
L 48.869358 13.206 
L 49.201348 13.206 
L 49.533338 13.206 
L 49.865328 13.206 
L 50.197318 13.206 
L 50.529308 13.206 
L 50.861298 13.206 
L 51.193288 13.206 
L 51.525278 13.206 
L 51.857268 13.206 
L 52.189258 13.206 
L 52.521247 13.206 
L 52.853237 13.206 
L 53.185227 13.206 
L 53.517217 13.206 
L 53.849207 13.206 
L 54.181197 13.206 
L 54.513187 13.206 
L 54.845177 13.206 
L 55.177167 13.206 
L 55.509157 13.206 
L 55.841147 13.206 
L 56.173137 13.206 
L 56.505127 13.206 
L 56.837117 13.206 
L 57.169107 13.206 
L 57.501097 13.206 
L 57.833087 13.206 
L 58.165077 13.206 
L 58.497067 13.206 
L 58.829057 13.206 
L 59.161046 13.206 
L 59.493036 13.206 
L 59.825026 13.206 
L 60.157016 13.206 
L 60.489006 13.206 
L 60.820996 13.206 
L 61.152986 13.206 
L 61.484976 13.206 
L 61.816966 13.206 
L 62.148956 13.206 
L 62.480946 13.206 
L 62.812936 13.206 
L 63.144926 13.206 
L 63.476916 13.206 
L 63.808906 13.206 
L 64.140896 13.206 
L 64.472886 13.206 
L 64.804876 13.206 
L 65.136866 13.206 
L 65.468856 13.206 
L 65.800845 13.206 
L 66.132835 13.206 
L 66.464825 13.206 
L 66.796815 13.206 
L 67.128805 13.206 
L 67.460795 13.206 
L 67.792785 13.206 
L 68.124775 13.206 
L 68.456765 13.206 
L 68.788755 13.206 
L 69.120745 13.206 
L 69.452735 13.206 
L 69.784725 13.206 
L 70.116715 13.206 
L 70.448705 13.206 
L 70.780695 13.206 
L 71.112685 13.206 
L 71.444675 13.206 
L 71.776665 13.206 
L 72.108655 13.206 
L 72.440644 13.206 
L 72.772634 13.206 
L 73.104624 13.206 
L 73.436614 13.206 
L 73.768604 13.206 
L 74.100594 13.206 
L 74.432584 13.206 
L 74.764574 13.206 
L 75.096564 13.206 
L 75.428554 13.206 
L 75.760544 13.206 
L 76.092534 13.206 
L 76.424524 13.206 
L 76.756514 13.206 
L 77.088504 13.206 
L 77.420494 13.206 
L 77.752484 13.206 
L 78.084474 13.206 
L 78.416464 13.206 
L 78.748454 13.206 
L 79.080443 13.206 
L 79.412433 13.206 
L 79.744423 13.206 
L 80.076413 13.206 
L 80.408403 13.206 
L 80.740393 13.206 
L 81.072383 13.206 
L 81.404373 13.206 
L 81.736363 13.206 
L 82.068353 13.206 
L 82.400343 13.206 
L 82.732333 13.206 
L 83.064323 13.206 
L 83.396313 13.206 
L 83.728303 13.206 
L 84.060293 13.206 
L 84.392283 13.206 
L 84.724273 13.206 
L 85.056263 13.206 
L 85.388253 13.206 
L 85.720242 13.206 
L 86.052232 13.206 
L 86.384222 13.206 
L 86.716212 13.206 
L 87.048202 13.206 
L 87.380192 13.206 
L 87.712182 13.206 
L 88.044172 13.206 
L 88.376162 13.206 
L 88.708152 13.206 
L 89.040142 13.206 
L 89.372132 13.206 
L 89.704122 13.206 
L 90.036112 13.206 
L 90.368102 13.206 
L 90.700092 13.206 
L 91.032082 13.206 
L 91.364072 13.206 
L 91.696062 13.206 
L 92.028052 13.206 
L 92.360041 13.206 
L 92.692031 13.206 
L 93.024021 13.206 
L 93.356011 13.206 
L 93.688001 13.206 
L 94.019991 13.206 
L 94.351981 13.206 
L 94.683971 13.206 
L 95.015961 13.206 
L 95.347951 13.206 
L 95.679941 13.206 
L 96.011931 13.206 
L 96.343921 13.206 
L 96.675911 13.206 
L 97.007901 13.206 
L 97.339891 13.206 
L 97.671881 13.206 
L 98.003871 13.206 
L 98.335861 13.206 
L 98.667851 13.206 
L 98.98475 13.522899 
L 98.98475 13.854889 
L 98.98475 14.186879 
L 98.98475 14.518869 
L 98.98475 14.850859 
L 98.98475 15.182849 
L 98.98475 15.514839 
L 98.98475 15.846829 
L 98.98475 16.178819 
L 98.98475 16.510809 
L 98.98475 16.842799 
L 98.98475 17.174789 
L 98.98475 17.506779 
L 98.98475 17.838769 
L 98.98475 18.170759 
L 98.98475 18.502749 
L 98.98475 18.834739 
L 98.98475 19.166729 
L 98.98475 19.498719 
L 98.98475 19.830709 
L 98.98475 20.162698 
L 98.98475 20.494688 
L 98.98475 20.826678 
L 98.98475 21.158668 
L 98.98475 21.490658 
L 98.98475 21.822648 
L 98.98475 22.154638 
L 98.98475 22.486628 
L 98.98475 22.818618 
L 98.98475 23.150608 
L 98.98475 23.482598 
L 98.98475 23.814588 
L 98.98475 24.146578 
L 98.98475 24.478568 
L 98.98475 24.810558 
L 98.98475 25.142548 
L 98.98475 25.474538 
L 98.98475 25.806528 
L 98.98475 26.138518 
L 98.98475 26.470508 
L 98.98475 26.802497 
L 98.98475 27.134487 
L 98.98475 27.466477 
L 98.98475 27.798467 
L 98.98475 28.130457 
L 98.98475 28.462447 
L 98.98475 28.794437 
L 98.98475 29.126427 
L 98.98475 29.458417 
L 98.98475 29.790407 
L 98.98475 30.122397 
L 98.98475 30.454387 
L 98.98475 30.786377 
L 98.98475 31.118367 
L 98.98475 31.450357 
L 98.98475 31.782347 
L 98.98475 32.114337 
L 98.98475 32.446327 
L 98.98475 32.778317 
L 98.98475 33.110307 
L 98.98475 33.442296 
L 98.98475 33.774286 
L 98.98475 34.106276 
L 98.98475 34.438266 
L 98.98475 34.770256 
L 98.98475 35.102246 
L 98.98475 35.434236 
L 98.98475 35.766226 
L 98.98475 36.098216 
L 98.98475 36.430206 
L 98.98475 36.762196 
L 98.98475 37.094186 
L 98.98475 37.426176 
L 98.98475 37.758166 
L 98.98475 38.090156 
L 98.98475 38.422146 
L 98.98475 38.754136 
L 98.98475 39.086126 
L 98.98475 39.418116 
L 98.98475 39.750106 
L 98.98475 40.082095 
L 98.98475 40.414085 
L 98.98475 40.746075 
L 98.98475 41.078065 
L 98.98475 41.410055 
L 98.98475 41.742045 
L 98.98475 42.074035 
L 98.98475 42.406025 
L 98.98475 42.738015 
L 98.98475 43.070005 
L 98.98475 43.401995 
L 98.98475 43.733985 
L 98.98475 44.065975 
L 98.98475 44.397965 
L 98.98475 44.729955 
L 98.98475 45.061945 
L 98.98475 45.393935 
L 98.98475 45.725925 
L 98.98475 46.057915 
L 98.98475 46.389905 
L 98.98475 46.721894 
L 98.98475 47.053884 
L 98.98475 47.385874 
L 98.98475 47.717864 
L 98.98475 48.049854 
L 98.98475 48.381844 
L 98.98475 48.713834 
L 98.98475 49.045824 
L 98.98475 49.377814 
L 98.98475 49.709804 
L 98.98475 50.041794 
L 98.98475 50.373784 
L 98.98475 50.705774 
L 98.98475 51.037764 
L 98.98475 51.369754 
L 98.98475 51.701744 
L 98.98475 52.033734 
L 98.98475 52.365724 
L 98.98475 52.697714 
L 98.98475 53.029704 
L 98.98475 53.361693 
L 98.98475 53.693683 
L 98.98475 54.025673 
L 98.98475 54.357663 
L 98.98475 54.689653 
L 98.98475 55.021643 
L 98.98475 55.353633 
L 98.98475 55.685623 
L 98.98475 56.017613 
L 98.98475 56.349603 
L 98.98475 56.681593 
L 98.98475 57.013583 
L 98.98475 57.345573 
L 98.98475 57.677563 
L 98.98475 58.009553 
L 98.98475 58.341543 
L 98.98475 58.673533 
L 98.98475 59.005523 
L 98.98475 59.337513 
L 98.98475 59.669503 
L 98.98475 60.001492 
L 98.98475 60.333482 
L 98.98475 60.665472 
L 98.98475 60.997462 
L 98.98475 61.329452 
L 98.98475 61.661442 
L 98.98475 61.993432 
L 98.98475 62.325422 
L 98.98475 62.657412 
L 98.98475 62.989402 
L 98.98475 63.321392 
L 98.98475 63.653382 
L 98.98475 63.985372 
L 98.98475 64.317362 
L 98.98475 64.649352 
L 98.98475 64.981342 
L 98.98475 65.313332 
L 98.98475 65.645322 
L 98.98475 65.977312 
L 98.98475 66.309302 
L 98.98475 66.641291 
L 98.98475 66.973281 
L 98.98475 67.305271 
L 98.98475 67.637261 
L 98.98475 67.969251 
L 98.98475 68.301241 
L 98.98475 68.633231 
L 98.98475 68.965221 
L 98.98475 69.297211 
L 98.98475 69.629201 
L 98.98475 69.961191 
L 98.98475 70.293181 
L 98.98475 70.625171 
L 98.98475 70.957161 
L 98.98475 71.289151 
L 98.98475 71.621141 
L 98.98475 71.953131 
L 98.98475 72.285121 
L 98.98475 72.617111 
L 98.98475 72.949101 
L 98.667851 73.266 
L 98.335861 73.266 
L 98.003871 73.266 
L 97.671881 73.266 
L 97.339891 73.266 
L 97.007901 73.266 
L 96.675911 73.266 
L 96.343921 73.266 
L 96.011931 73.266 
L 95.679941 73.266 
L 95.347951 73.266 
L 95.015961 73.266 
L 94.683971 73.266 
L 94.351981 73.266 
L 94.019991 73.266 
L 93.688001 73.266 
L 93.356011 73.266 
L 93.024021 73.266 
L 92.692031 73.266 
L 92.360041 73.266 
L 92.028052 73.266 
L 91.696062 73.266 
L 91.364072 73.266 
L 91.032082 73.266 
L 90.700092 73.266 
L 90.368102 73.266 
L 90.036112 73.266 
L 89.704122 73.266 
L 89.372132 73.266 
L 89.040142 73.266 
L 88.708152 73.266 
L 88.376162 73.266 
L 88.044172 73.266 
L 87.712182 73.266 
L 87.380192 73.266 
L 87.048202 73.266 
L 86.716212 73.266 
L 86.384222 73.266 
L 86.052232 73.266 
L 85.720242 73.266 
L 85.388253 73.266 
L 85.056263 73.266 
L 84.724273 73.266 
L 84.392283 73.266 
L 84.060293 73.266 
L 83.728303 73.266 
L 83.396313 73.266 
L 83.064323 73.266 
L 82.732333 73.266 
L 82.400343 73.266 
L 82.068353 73.266 
L 81.736363 73.266 
L 81.404373 73.266 
L 81.072383 73.266 
L 80.740393 73.266 
L 80.408403 73.266 
L 80.076413 73.266 
L 79.744423 73.266 
L 79.412433 73.266 
L 79.080443 73.266 
L 78.748454 73.266 
L 78.416464 73.266 
L 78.084474 73.266 
L 77.752484 73.266 
L 77.420494 73.266 
L 77.088504 73.266 
L 76.756514 73.266 
L 76.424524 73.266 
L 76.092534 73.266 
L 75.760544 73.266 
L 75.428554 73.266 
L 75.096564 73.266 
L 74.764574 73.266 
L 74.432584 73.266 
L 74.100594 73.266 
L 73.768604 73.266 
L 73.436614 73.266 
L 73.104624 73.266 
L 72.772634 73.266 
L 72.440644 73.266 
L 72.108655 73.266 
L 71.776665 73.266 
L 71.444675 73.266 
L 71.112685 73.266 
L 70.780695 73.266 
L 70.448705 73.266 
L 70.116715 73.266 
L 69.784725 73.266 
L 69.452735 73.266 
L 69.120745 73.266 
L 68.788755 73.266 
L 68.456765 73.266 
L 68.124775 73.266 
L 67.792785 73.266 
L 67.460795 73.266 
L 67.128805 73.266 
L 66.796815 73.266 
L 66.464825 73.266 
L 66.132835 73.266 
L 65.800845 73.266 
L 65.468856 73.266 
L 65.136866 73.266 
L 64.804876 73.266 
L 64.472886 73.266 
L 64.140896 73.266 
L 63.808906 73.266 
L 63.476916 73.266 
L 63.144926 73.266 
L 62.812936 73.266 
L 62.480946 73.266 
L 62.148956 73.266 
L 61.816966 73.266 
L 61.484976 73.266 
L 61.152986 73.266 
L 60.820996 73.266 
L 60.489006 73.266 
L 60.157016 73.266 
L 59.825026 73.266 
L 59.493036 73.266 
L 59.161046 73.266 
L 58.829057 73.266 
L 58.497067 73.266 
L 58.165077 73.266 
L 57.833087 73.266 
L 57.501097 73.266 
L 57.169107 73.266 
L 56.837117 73.266 
L 56.505127 73.266 
L 56.173137 73.266 
L 55.841147 73.266 
L 55.509157 73.266 
L 55.177167 73.266 
L 54.845177 73.266 
L 54.513187 73.266 
L 54.181197 73.266 
L 53.849207 73.266 
L 53.517217 73.266 
L 53.185227 73.266 
L 52.853237 73.266 
L 52.521247 73.266 
L 52.189258 73.266 
L 51.857268 73.266 
L 51.525278 73.266 
L 51.193288 73.266 
L 50.861298 73.266 
L 50.529308 73.266 
L 50.197318 73.266 
L 49.865328 73.266 
L 49.533338 73.266 
L 49.201348 73.266 
L 48.869358 73.266 
L 48.537368 73.266 
L 48.205378 73.266 
L 47.873388 73.266 
L 47.541398 73.266 
L 47.209408 73.266 
L 46.877418 73.266 
L 46.545428 73.266 
L 46.213438 73.266 
L 45.881448 73.266 
L 45.549459 73.266 
L 45.217469 73.266 
L 44.885479 73.266 
L 44.553489 73.266 
L 44.221499 73.266 
L 43.889509 73.266 
L 43.557519 73.266 
L 43.225529 73.266 
L 42.893539 73.266 
L 42.561549 73.266 
L 42.229559 73.266 
L 41.897569 73.266 
L 41.565579 73.266 
L 41.233589 73.266 
L 40.901599 73.266 
L 40.569609 73.266 
L 40.237619 73.266 
L 39.905629 73.266 
L 39.573639 73.266 
L 39.241649 73.266 
z
" clip-path="url(#p562673c1d3)" style="fill: none; stroke: #ff1f5b"/>
   </g>
   <g id="patch_3">
    <path d="M 32.91875 79.272 
L 32.91875 7.2 
" style="fill: none; stroke: #000000; stroke-width: 0.6; stroke-linejoin: miter; stroke-linecap: square"/>
   </g>
   <g id="patch_4">
    <path d="M 32.91875 79.272 
L 104.99075 79.272 
" style="fill: none; stroke: #000000; stroke-width: 0.6; stroke-linejoin: miter; stroke-linecap: square"/>
   </g>
  </g>
 </g>
 <defs>
  <clipPath id="p562673c1d3">
   <rect x="32.91875" y="7.2" width="72.072" height="72.072"/>
  </clipPath>
 </defs>
</svg>
