<?xml version="1.0" encoding="utf-8" standalone="no"?>
<!DOCTYPE svg PUBLIC "-//W3C//DTD SVG 1.1//EN"
  "http://www.w3.org/Graphics/SVG/1.1/DTD/svg11.dtd">
<svg xmlns:xlink="http://www.w3.org/1999/xlink" width="259.93525pt" height="164.892375pt" viewBox="0 0 259.93525 164.892375" xmlns="http://www.w3.org/2000/svg" version="1.1">
 <metadata>
  <rdf:RDF xmlns:dc="http://purl.org/dc/elements/1.1/" xmlns:cc="http://creativecommons.org/ns#" xmlns:rdf="http://www.w3.org/1999/02/22-rdf-syntax-ns#">
   <cc:Work>
    <dc:type rdf:resource="http://purl.org/dc/dcmitype/StillImage"/>
    <dc:format>image/svg+xml</dc:format>
    <dc:creator>
     <cc:Agent>
      <dc:title>Matplotlib v3.5.2, https://matplotlib.org/</dc:title>
     </cc:Agent>
    </dc:creator>
   </cc:Work>
  </rdf:RDF>
 </metadata>
 <defs>
  <style type="text/css">*{stroke-linejoin: round; stroke-linecap: butt}</style>
 </defs>
 <g id="figure_1">
  <g id="patch_1">
   <path d="M 0 164.892375 
L 259.93525 164.892375 
L 259.93525 -0 
L 0 -0 
L 0 164.892375 
z
" style="fill: none"/>
  </g>
  <g id="axes_1">
   <g id="patch_2">
    <path d="M 40.55125 132.207375 
L 196.79125 132.207375 
L 196.79125 10.239375 
L 40.55125 10.239375 
L 40.55125 132.207375 
z
" style="fill: none"/>
   </g>
   <g id="matplotlib.axis_1">
    <g id="xtick_1">
     <g id="line2d_1">
      <defs>
       <path id="m4cd371f86f" d="M 0 0 
L 0 2.5 
" style="stroke: #000000; stroke-width: 0.6"/>
      </defs>
      <g>
       <use xlink:href="#m4cd371f86f" x="40.55125" y="132.207375" style="stroke: #000000; stroke-width: 0.6"/>
      </g>
     </g>
     <g id="text_1">
      <!-- -1.0 -->
      <g transform="translate(32.746875 144.286125)scale(0.08 -0.08)">
       <defs>
        <path id="DejaVuSans-2d" d="M 313 2009 
L 1997 2009 
L 1997 1497 
L 313 1497 
L 313 2009 
z
" transform="scale(0.015625)"/>
        <path id="DejaVuSans-31" d="M 794 531 
L 1825 531 
L 1825 4091 
L 703 3866 
L 703 4441 
L 1819 4666 
L 2450 4666 
L 2450 531 
L 3481 531 
L 3481 0 
L 794 0 
L 794 531 
z
" transform="scale(0.015625)"/>
        <path id="DejaVuSans-2e" d="M 684 794 
L 1344 794 
L 1344 0 
L 684 0 
L 684 794 
z
" transform="scale(0.015625)"/>
        <path id="DejaVuSans-30" d="M 2034 4250 
Q 1547 4250 1301 3770 
Q 1056 3291 1056 2328 
Q 1056 1369 1301 889 
Q 1547 409 2034 409 
Q 2525 409 2770 889 
Q 3016 1369 3016 2328 
Q 3016 3291 2770 3770 
Q 2525 4250 2034 4250 
z
M 2034 4750 
Q 2819 4750 3233 4129 
Q 3647 3509 3647 2328 
Q 3647 1150 3233 529 
Q 2819 -91 2034 -91 
Q 1250 -91 836 529 
Q 422 1150 422 2328 
Q 422 3509 836 4129 
Q 1250 4750 2034 4750 
z
" transform="scale(0.015625)"/>
       </defs>
       <use xlink:href="#DejaVuSans-2d"/>
       <use xlink:href="#DejaVuSans-31" x="36.083984"/>
       <use xlink:href="#DejaVuSans-2e" x="99.707031"/>
       <use xlink:href="#DejaVuSans-30" x="131.494141"/>
      </g>
     </g>
    </g>
    <g id="xtick_2">
     <g id="line2d_2">
      <g>
       <use xlink:href="#m4cd371f86f" x="79.61125" y="132.207375" style="stroke: #000000; stroke-width: 0.6"/>
      </g>
     </g>
     <g id="text_2">
      <!-- -0.5 -->
      <g transform="translate(71.806875 144.286125)scale(0.08 -0.08)">
       <defs>
        <path id="DejaVuSans-35" d="M 691 4666 
L 3169 4666 
L 3169 4134 
L 1269 4134 
L 1269 2991 
Q 1406 3038 1543 3061 
Q 1681 3084 1819 3084 
Q 2600 3084 3056 2656 
Q 3513 2228 3513 1497 
Q 3513 744 3044 326 
Q 2575 -91 1722 -91 
Q 1428 -91 1123 -41 
Q 819 9 494 109 
L 494 744 
Q 775 591 1075 516 
Q 1375 441 1709 441 
Q 2250 441 2565 725 
Q 2881 1009 2881 1497 
Q 2881 1984 2565 2268 
Q 2250 2553 1709 2553 
Q 1456 2553 1204 2497 
Q 953 2441 691 2322 
L 691 4666 
z
" transform="scale(0.015625)"/>
       </defs>
       <use xlink:href="#DejaVuSans-2d"/>
       <use xlink:href="#DejaVuSans-30" x="36.083984"/>
       <use xlink:href="#DejaVuSans-2e" x="99.707031"/>
       <use xlink:href="#DejaVuSans-35" x="131.494141"/>
      </g>
     </g>
    </g>
    <g id="xtick_3">
     <g id="line2d_3">
      <g>
       <use xlink:href="#m4cd371f86f" x="118.67125" y="132.207375" style="stroke: #000000; stroke-width: 0.6"/>
      </g>
     </g>
     <g id="text_3">
      <!-- 0.0 -->
      <g transform="translate(112.31 144.286125)scale(0.08 -0.08)">
       <use xlink:href="#DejaVuSans-30"/>
       <use xlink:href="#DejaVuSans-2e" x="63.623047"/>
       <use xlink:href="#DejaVuSans-30" x="95.410156"/>
      </g>
     </g>
    </g>
    <g id="xtick_4">
     <g id="line2d_4">
      <g>
       <use xlink:href="#m4cd371f86f" x="157.73125" y="132.207375" style="stroke: #000000; stroke-width: 0.6"/>
      </g>
     </g>
     <g id="text_4">
      <!-- 0.5 -->
      <g transform="translate(151.37 144.286125)scale(0.08 -0.08)">
       <use xlink:href="#DejaVuSans-30"/>
       <use xlink:href="#DejaVuSans-2e" x="63.623047"/>
       <use xlink:href="#DejaVuSans-35" x="95.410156"/>
      </g>
     </g>
    </g>
    <g id="xtick_5">
     <g id="line2d_5">
      <g>
       <use xlink:href="#m4cd371f86f" x="196.79125" y="132.207375" style="stroke: #000000; stroke-width: 0.6"/>
      </g>
     </g>
     <g id="text_5">
      <!-- 1.0 -->
      <g transform="translate(190.43 144.286125)scale(0.08 -0.08)">
       <use xlink:href="#DejaVuSans-31"/>
       <use xlink:href="#DejaVuSans-2e" x="63.623047"/>
       <use xlink:href="#DejaVuSans-30" x="95.410156"/>
      </g>
     </g>
    </g>
    <g id="text_6">
     <!-- x -->
     <g transform="translate(116.30375 156.028625)scale(0.08 -0.08)">
      <defs>
       <path id="DejaVuSans-78" d="M 3513 3500 
L 2247 1797 
L 3578 0 
L 2900 0 
L 1881 1375 
L 863 0 
L 184 0 
L 1544 1831 
L 300 3500 
L 978 3500 
L 1906 2253 
L 2834 3500 
L 3513 3500 
z
" transform="scale(0.015625)"/>
      </defs>
      <use xlink:href="#DejaVuSans-78"/>
     </g>
    </g>
   </g>
   <g id="matplotlib.axis_2">
    <g id="ytick_1">
     <g id="line2d_6">
      <defs>
       <path id="m56f3a9ced1" d="M 0 0 
L -2.5 0 
" style="stroke: #000000; stroke-width: 0.6"/>
      </defs>
      <g>
       <use xlink:href="#m56f3a9ced1" x="40.55125" y="132.207375" style="stroke: #000000; stroke-width: 0.6"/>
      </g>
     </g>
     <g id="text_7">
      <!-- -1.5 -->
      <g transform="translate(18.9425 135.24675)scale(0.08 -0.08)">
       <use xlink:href="#DejaVuSans-2d"/>
       <use xlink:href="#DejaVuSans-31" x="36.083984"/>
       <use xlink:href="#DejaVuSans-2e" x="99.707031"/>
       <use xlink:href="#DejaVuSans-35" x="131.494141"/>
      </g>
     </g>
    </g>
    <g id="ytick_2">
     <g id="line2d_7">
      <g>
       <use xlink:href="#m56f3a9ced1" x="40.55125" y="111.879375" style="stroke: #000000; stroke-width: 0.6"/>
      </g>
     </g>
     <g id="text_8">
      <!-- -1.0 -->
      <g transform="translate(18.9425 114.91875)scale(0.08 -0.08)">
       <use xlink:href="#DejaVuSans-2d"/>
       <use xlink:href="#DejaVuSans-31" x="36.083984"/>
       <use xlink:href="#DejaVuSans-2e" x="99.707031"/>
       <use xlink:href="#DejaVuSans-30" x="131.494141"/>
      </g>
     </g>
    </g>
    <g id="ytick_3">
     <g id="line2d_8">
      <g>
       <use xlink:href="#m56f3a9ced1" x="40.55125" y="91.551375" style="stroke: #000000; stroke-width: 0.6"/>
      </g>
     </g>
     <g id="text_9">
      <!-- -0.5 -->
      <g transform="translate(18.9425 94.59075)scale(0.08 -0.08)">
       <use xlink:href="#DejaVuSans-2d"/>
       <use xlink:href="#DejaVuSans-30" x="36.083984"/>
       <use xlink:href="#DejaVuSans-2e" x="99.707031"/>
       <use xlink:href="#DejaVuSans-35" x="131.494141"/>
      </g>
     </g>
    </g>
    <g id="ytick_4">
     <g id="line2d_9">
      <g>
       <use xlink:href="#m56f3a9ced1" x="40.55125" y="71.223375" style="stroke: #000000; stroke-width: 0.6"/>
      </g>
     </g>
     <g id="text_10">
      <!-- 0.0 -->
      <g transform="translate(21.82875 74.26275)scale(0.08 -0.08)">
       <use xlink:href="#DejaVuSans-30"/>
       <use xlink:href="#DejaVuSans-2e" x="63.623047"/>
       <use xlink:href="#DejaVuSans-30" x="95.410156"/>
      </g>
     </g>
    </g>
    <g id="ytick_5">
     <g id="line2d_10">
      <g>
       <use xlink:href="#m56f3a9ced1" x="40.55125" y="50.895375" style="stroke: #000000; stroke-width: 0.6"/>
      </g>
     </g>
     <g id="text_11">
      <!-- 0.5 -->
      <g transform="translate(21.82875 53.93475)scale(0.08 -0.08)">
       <use xlink:href="#DejaVuSans-30"/>
       <use xlink:href="#DejaVuSans-2e" x="63.623047"/>
       <use xlink:href="#DejaVuSans-35" x="95.410156"/>
      </g>
     </g>
    </g>
    <g id="ytick_6">
     <g id="line2d_11">
      <g>
       <use xlink:href="#m56f3a9ced1" x="40.55125" y="30.567375" style="stroke: #000000; stroke-width: 0.6"/>
      </g>
     </g>
     <g id="text_12">
      <!-- 1.0 -->
      <g transform="translate(21.82875 33.60675)scale(0.08 -0.08)">
       <use xlink:href="#DejaVuSans-31"/>
       <use xlink:href="#DejaVuSans-2e" x="63.623047"/>
       <use xlink:href="#DejaVuSans-30" x="95.410156"/>
      </g>
     </g>
    </g>
    <g id="ytick_7">
     <g id="line2d_12">
      <g>
       <use xlink:href="#m56f3a9ced1" x="40.55125" y="10.239375" style="stroke: #000000; stroke-width: 0.6"/>
      </g>
     </g>
     <g id="text_13">
      <!-- 1.5 -->
      <g transform="translate(21.82875 13.27875)scale(0.08 -0.08)">
       <use xlink:href="#DejaVuSans-31"/>
       <use xlink:href="#DejaVuSans-2e" x="63.623047"/>
       <use xlink:href="#DejaVuSans-35" x="95.410156"/>
      </g>
     </g>
    </g>
    <g id="text_14">
     <!-- y -->
     <g transform="translate(13.27875 73.590875)rotate(-90)scale(0.08 -0.08)">
      <defs>
       <path id="DejaVuSans-79" d="M 2059 -325 
Q 1816 -950 1584 -1140 
Q 1353 -1331 966 -1331 
L 506 -1331 
L 506 -850 
L 844 -850 
Q 1081 -850 1212 -737 
Q 1344 -625 1503 -206 
L 1606 56 
L 191 3500 
L 800 3500 
L 1894 763 
L 2988 3500 
L 3597 3500 
L 2059 -325 
z
" transform="scale(0.015625)"/>
      </defs>
      <use xlink:href="#DejaVuSans-79"/>
     </g>
    </g>
   </g>
   <g id="line2d_13">
    <path d="M 40.55125 30.567375 
L 196.79125 30.567375 
L 196.79125 30.567375 
" clip-path="url(#paac121f90f)" style="fill: none; stroke: #ff1f5b; stroke-linecap: square"/>
   </g>
   <g id="line2d_14">
    <path d="M 40.55125 111.879375 
L 196.79125 30.567375 
L 196.79125 30.567375 
" clip-path="url(#paac121f90f)" style="fill: none; stroke: #00cd6c; stroke-linecap: square"/>
   </g>
   <g id="line2d_15">
    <path d="M 40.55125 30.567375 
L 44.934737 39.436552 
L 49.318224 47.793694 
L 53.388605 55.095417 
L 57.458985 61.95564 
L 61.529366 68.374364 
L 65.286641 73.907477 
L 69.043915 79.0644 
L 72.80119 83.845135 
L 76.558464 88.24968 
L 80.002633 91.956709 
L 83.446801 95.347634 
L 86.890969 98.422456 
L 90.335138 101.181175 
L 93.4662 103.414797 
L 96.597262 105.387177 
L 99.728324 107.098314 
L 102.859386 108.548209 
L 105.990448 109.736861 
L 108.808404 110.583287 
L 111.62636 111.218105 
L 114.444316 111.641318 
L 117.262272 111.852924 
L 120.080228 111.852924 
L 122.898184 111.641318 
L 125.71614 111.218105 
L 128.534096 110.583287 
L 131.352052 109.736861 
L 134.170008 108.67883 
L 137.30107 107.255059 
L 140.432132 105.570046 
L 143.563194 103.623791 
L 146.694256 101.416293 
L 149.825318 98.947553 
L 153.269486 95.930205 
L 156.713655 92.596752 
L 160.157823 88.947197 
L 163.601991 84.981539 
L 167.359266 80.294851 
L 171.116541 75.231975 
L 174.873815 69.79291 
L 178.63109 63.977656 
L 182.70147 57.253278 
L 186.771851 50.087401 
L 190.842232 42.480025 
L 195.225719 33.793718 
L 196.79125 30.567375 
L 196.79125 30.567375 
" clip-path="url(#paac121f90f)" style="fill: none; stroke: #009ade; stroke-linecap: square"/>
   </g>
   <g id="line2d_16">
    <path d="M 40.55125 111.879375 
L 43.0561 100.643207 
L 45.560949 90.378043 
L 48.065799 81.051718 
L 50.570649 72.632066 
L 52.762392 65.98334 
L 54.954136 59.98261 
L 57.145879 54.608327 
L 59.337623 49.838943 
L 61.529366 45.65291 
L 63.408004 42.512847 
L 65.286641 39.771966 
L 67.165278 37.416697 
L 69.043915 35.433471 
L 70.922553 33.808718 
L 72.488084 32.7188 
L 74.053615 31.860545 
L 75.619146 31.2261 
L 77.184677 30.807612 
L 78.750208 30.597227 
L 80.315739 30.587094 
L 81.88127 30.769358 
L 83.759907 31.230984 
L 85.638545 31.944784 
L 87.517182 32.897189 
L 89.708925 34.291794 
L 91.900669 35.971148 
L 94.092412 37.913703 
L 96.597262 40.428409 
L 99.415218 43.594676 
L 102.54628 47.477809 
L 105.990448 52.120528 
L 110.060829 57.997765 
L 115.383635 66.102574 
L 128.220989 85.836211 
L 132.29137 91.626469 
L 135.735539 96.170712 
L 138.866601 99.944531 
L 141.684557 102.996302 
L 144.189406 105.396417 
L 146.38115 107.22881 
L 148.572893 108.788768 
L 150.764637 110.054741 
L 152.643274 110.88954 
L 154.521911 111.478949 
L 156.400549 111.809398 
L 157.96608 111.877166 
L 159.531611 111.747825 
L 161.097142 111.41352 
L 162.662673 110.8664 
L 164.228204 110.098611 
L 165.793735 109.102301 
L 167.359266 107.869616 
L 168.924797 106.392704 
L 170.803434 104.286972 
L 172.682072 101.804673 
L 174.560709 98.932239 
L 176.439346 95.6561 
L 178.317983 91.962684 
L 180.509727 87.108206 
L 182.70147 81.64575 
L 184.893214 75.553768 
L 187.084957 68.810711 
L 189.276701 61.395032 
L 191.781551 52.068707 
L 194.2864 41.803543 
L 196.79125 30.567375 
L 196.79125 30.567375 
" clip-path="url(#paac121f90f)" style="fill: none; stroke: #af58ba; stroke-linecap: square"/>
   </g>
   <g id="line2d_17">
    <path d="M 40.55125 30.567375 
L 42.429887 45.288077 
L 44.308525 58.234872 
L 46.187162 69.512402 
L 47.752693 77.708901 
L 49.318224 84.874753 
L 50.883755 91.066361 
L 52.449286 96.338868 
L 54.014817 100.74616 
L 55.267242 103.684446 
L 56.519667 106.129062 
L 57.772092 108.105859 
L 59.024517 109.640169 
L 60.276941 110.756809 
L 61.21626 111.334831 
L 62.155579 111.701656 
L 63.094897 111.867183 
L 64.034216 111.841147 
L 64.973535 111.633121 
L 66.225959 111.088895 
L 67.478384 110.259692 
L 68.730809 109.166847 
L 70.29634 107.461715 
L 71.861871 105.41667 
L 73.740509 102.567732 
L 75.932252 98.779799 
L 78.437102 93.956661 
L 81.568164 87.385677 
L 86.264757 76.905739 
L 93.153094 61.569033 
L 96.597262 54.462741 
L 99.415218 49.128355 
L 101.920068 44.834573 
L 104.111811 41.472386 
L 106.303555 38.515117 
L 108.182192 36.32525 
L 110.060829 34.470663 
L 111.939466 32.964626 
L 113.504997 31.983618 
L 115.070529 31.256893 
L 116.63606 30.787975 
L 118.201591 30.57913 
L 119.767122 30.631367 
L 121.332653 30.944432 
L 122.898184 31.516815 
L 124.463715 32.345747 
L 126.029246 33.427199 
L 127.594777 34.755882 
L 129.473414 36.667341 
L 131.352052 38.911615 
L 133.543795 41.92866 
L 135.735539 45.345987 
L 138.240388 49.696217 
L 141.058344 55.084501 
L 144.189406 61.569033 
L 148.259787 70.532962 
L 157.339867 90.732625 
L 160.157823 96.426115 
L 162.662673 101.000375 
L 164.854416 104.512092 
L 166.733054 107.078656 
L 168.298585 108.854893 
L 169.864116 110.259692 
L 171.116541 111.088895 
L 172.368965 111.633121 
L 173.308284 111.841147 
L 174.247603 111.867183 
L 175.186921 111.701656 
L 176.12624 111.334831 
L 177.065559 110.756809 
L 178.004877 109.957527 
L 179.257302 108.529941 
L 180.509727 106.666121 
L 181.762152 104.340863 
L 183.014577 101.528446 
L 184.267002 98.202635 
L 185.519426 94.33668 
L 187.084957 88.703069 
L 188.650488 82.128452 
L 190.21602 74.55718 
L 191.781551 65.932347 
L 193.347082 56.195788 
L 195.225719 42.960679 
L 196.79125 30.567375 
L 196.79125 30.567375 
" clip-path="url(#paac121f90f)" style="fill: none; stroke: #ffc61e; stroke-linecap: square"/>
   </g>
   <g id="line2d_18">
    <path d="M 40.55125 111.879375 
L 42.116781 93.098116 
L 43.682312 77.314812 
L 44.934737 66.674066 
L 46.187162 57.662121 
L 47.439587 50.158206 
L 48.692012 44.046337 
L 49.944436 39.215231 
L 50.883755 36.368067 
L 51.823074 34.13792 
L 52.762392 32.482888 
L 53.701711 31.362461 
L 54.327923 30.893132 
L 54.954136 30.632729 
L 55.580348 30.570256 
L 56.206561 30.694984 
L 56.832773 30.996443 
L 57.772092 31.757733 
L 58.71141 32.860356 
L 59.650729 34.272193 
L 60.903154 36.582466 
L 62.468685 40.060442 
L 64.347322 44.931912 
L 66.539066 51.321829 
L 69.670128 61.223145 
L 75.932252 81.169453 
L 78.437102 88.407066 
L 80.628845 94.128576 
L 82.507482 98.490586 
L 84.38612 102.293894 
L 85.951651 105.005458 
L 87.517182 107.280719 
L 88.769607 108.777705 
L 90.022032 109.982402 
L 91.274456 110.89232 
L 92.526881 111.506855 
L 93.779306 111.827213 
L 95.031731 111.856329 
L 96.284156 111.598777 
L 97.536581 111.060693 
L 98.789006 110.249691 
L 100.04143 109.174781 
L 101.606961 107.475863 
L 103.172492 105.403645 
L 104.738024 102.983714 
L 106.616661 99.660523 
L 108.808404 95.272506 
L 111.313254 89.695377 
L 114.444316 82.093986 
L 119.454016 69.187319 
L 124.463715 56.480532 
L 127.281671 49.895964 
L 129.786521 44.604055 
L 131.978264 40.522155 
L 133.856901 37.500139 
L 135.422432 35.356247 
L 136.987963 33.580751 
L 138.240388 32.441426 
L 139.492813 31.56355 
L 140.745238 30.956467 
L 141.997663 30.628148 
L 143.250088 30.585105 
L 144.502513 30.832312 
L 145.754937 31.373121 
L 147.007362 32.209177 
L 148.259787 33.340338 
L 149.512212 34.764592 
L 151.077743 36.950837 
L 152.643274 39.576451 
L 154.208805 42.623971 
L 156.087442 46.805212 
L 157.96608 51.510089 
L 160.157823 57.576053 
L 162.975779 66.094848 
L 167.672372 81.223605 
L 171.429647 93.012113 
L 173.62139 99.211631 
L 175.500028 103.848866 
L 177.065559 107.076842 
L 178.317983 109.148588 
L 179.257302 110.35779 
L 180.196621 111.236505 
L 181.135939 111.751766 
L 181.762152 111.876494 
L 182.388364 111.814021 
L 183.014577 111.553618 
L 183.640789 111.084289 
L 184.267002 110.394778 
L 185.20632 108.92238 
L 186.145639 106.888525 
L 187.084957 104.251776 
L 188.024276 100.969287 
L 188.963595 96.996785 
L 190.21602 90.547519 
L 191.468444 82.677656 
L 192.720869 73.270021 
L 193.973294 62.202637 
L 195.225719 49.348634 
L 196.79125 30.567375 
L 196.79125 30.567375 
" clip-path="url(#paac121f90f)" style="fill: none; stroke: #f28522; stroke-linecap: square"/>
   </g>
   <g id="patch_3">
    <path d="M 40.55125 132.207375 
L 40.55125 10.239375 
" style="fill: none; stroke: #000000; stroke-width: 0.6; stroke-linejoin: miter; stroke-linecap: square"/>
   </g>
   <g id="patch_4">
    <path d="M 40.55125 132.207375 
L 196.79125 132.207375 
" style="fill: none; stroke: #000000; stroke-width: 0.6; stroke-linejoin: miter; stroke-linecap: square"/>
   </g>
   <g id="legend_1">
    <g id="line2d_19">
     <path d="M 219.61525 32.914925 
L 227.01525 32.914925 
L 234.41525 32.914925 
" style="fill: none; stroke: #ff1f5b; stroke-linecap: square"/>
    </g>
    <g id="text_15">
     <!-- $T_{0}$ -->
     <g transform="translate(240.81525 35.714925)scale(0.08 -0.08)">
      <defs>
       <path id="DejaVuSans-Oblique-54" d="M 378 4666 
L 4325 4666 
L 4225 4134 
L 2559 4134 
L 1759 0 
L 1125 0 
L 1925 4134 
L 275 4134 
L 378 4666 
z
" transform="scale(0.015625)"/>
      </defs>
      <use xlink:href="#DejaVuSans-Oblique-54" transform="translate(0 0.09375)"/>
      <use xlink:href="#DejaVuSans-30" transform="translate(61.083984 -16.3125)scale(0.7)"/>
     </g>
    </g>
    <g id="line2d_20">
     <path d="M 219.61525 44.657425 
L 227.01525 44.657425 
L 234.41525 44.657425 
" style="fill: none; stroke: #00cd6c; stroke-linecap: square"/>
    </g>
    <g id="text_16">
     <!-- $T_{1}$ -->
     <g transform="translate(240.81525 47.457425)scale(0.08 -0.08)">
      <use xlink:href="#DejaVuSans-Oblique-54" transform="translate(0 0.09375)"/>
      <use xlink:href="#DejaVuSans-31" transform="translate(61.083984 -16.3125)scale(0.7)"/>
     </g>
    </g>
    <g id="line2d_21">
     <path d="M 219.61525 56.399925 
L 227.01525 56.399925 
L 234.41525 56.399925 
" style="fill: none; stroke: #009ade; stroke-linecap: square"/>
    </g>
    <g id="text_17">
     <!-- $T_{2}$ -->
     <g transform="translate(240.81525 59.199925)scale(0.08 -0.08)">
      <defs>
       <path id="DejaVuSans-32" d="M 1228 531 
L 3431 531 
L 3431 0 
L 469 0 
L 469 531 
Q 828 903 1448 1529 
Q 2069 2156 2228 2338 
Q 2531 2678 2651 2914 
Q 2772 3150 2772 3378 
Q 2772 3750 2511 3984 
Q 2250 4219 1831 4219 
Q 1534 4219 1204 4116 
Q 875 4013 500 3803 
L 500 4441 
Q 881 4594 1212 4672 
Q 1544 4750 1819 4750 
Q 2544 4750 2975 4387 
Q 3406 4025 3406 3419 
Q 3406 3131 3298 2873 
Q 3191 2616 2906 2266 
Q 2828 2175 2409 1742 
Q 1991 1309 1228 531 
z
" transform="scale(0.015625)"/>
      </defs>
      <use xlink:href="#DejaVuSans-Oblique-54" transform="translate(0 0.09375)"/>
      <use xlink:href="#DejaVuSans-32" transform="translate(61.083984 -16.3125)scale(0.7)"/>
     </g>
    </g>
    <g id="line2d_22">
     <path d="M 219.61525 68.142425 
L 227.01525 68.142425 
L 234.41525 68.142425 
" style="fill: none; stroke: #af58ba; stroke-linecap: square"/>
    </g>
    <g id="text_18">
     <!-- $T_{3}$ -->
     <g transform="translate(240.81525 70.942425)scale(0.08 -0.08)">
      <defs>
       <path id="DejaVuSans-33" d="M 2597 2516 
Q 3050 2419 3304 2112 
Q 3559 1806 3559 1356 
Q 3559 666 3084 287 
Q 2609 -91 1734 -91 
Q 1441 -91 1130 -33 
Q 819 25 488 141 
L 488 750 
Q 750 597 1062 519 
Q 1375 441 1716 441 
Q 2309 441 2620 675 
Q 2931 909 2931 1356 
Q 2931 1769 2642 2001 
Q 2353 2234 1838 2234 
L 1294 2234 
L 1294 2753 
L 1863 2753 
Q 2328 2753 2575 2939 
Q 2822 3125 2822 3475 
Q 2822 3834 2567 4026 
Q 2313 4219 1838 4219 
Q 1578 4219 1281 4162 
Q 984 4106 628 3988 
L 628 4550 
Q 988 4650 1302 4700 
Q 1616 4750 1894 4750 
Q 2613 4750 3031 4423 
Q 3450 4097 3450 3541 
Q 3450 3153 3228 2886 
Q 3006 2619 2597 2516 
z
" transform="scale(0.015625)"/>
      </defs>
      <use xlink:href="#DejaVuSans-Oblique-54" transform="translate(0 0.09375)"/>
      <use xlink:href="#DejaVuSans-33" transform="translate(61.083984 -16.3125)scale(0.7)"/>
     </g>
    </g>
    <g id="line2d_23">
     <path d="M 219.61525 79.884925 
L 227.01525 79.884925 
L 234.41525 79.884925 
" style="fill: none; stroke: #ffc61e; stroke-linecap: square"/>
    </g>
    <g id="text_19">
     <!-- $T_{4}$ -->
     <g transform="translate(240.81525 82.684925)scale(0.08 -0.08)">
      <defs>
       <path id="DejaVuSans-34" d="M 2419 4116 
L 825 1625 
L 2419 1625 
L 2419 4116 
z
M 2253 4666 
L 3047 4666 
L 3047 1625 
L 3713 1625 
L 3713 1100 
L 3047 1100 
L 3047 0 
L 2419 0 
L 2419 1100 
L 313 1100 
L 313 1709 
L 2253 4666 
z
" transform="scale(0.015625)"/>
      </defs>
      <use xlink:href="#DejaVuSans-Oblique-54" transform="translate(0 0.09375)"/>
      <use xlink:href="#DejaVuSans-34" transform="translate(61.083984 -16.3125)scale(0.7)"/>
     </g>
    </g>
    <g id="line2d_24">
     <path d="M 219.61525 91.627425 
L 227.01525 91.627425 
L 234.41525 91.627425 
" style="fill: none; stroke: #f28522; stroke-linecap: square"/>
    </g>
    <g id="text_20">
     <!-- $T_{5}$ -->
     <g transform="translate(240.81525 94.427425)scale(0.08 -0.08)">
      <use xlink:href="#DejaVuSans-Oblique-54" transform="translate(0 0.09375)"/>
      <use xlink:href="#DejaVuSans-35" transform="translate(61.083984 -16.3125)scale(0.7)"/>
     </g>
    </g>
   </g>
  </g>
 </g>
 <defs>
  <clipPath id="paac121f90f">
   <rect x="40.55125" y="10.239375" width="156.24" height="121.968"/>
  </clipPath>
 </defs>
</svg>
