<?xml version="1.0" encoding="utf-8" standalone="no"?>
<!DOCTYPE svg PUBLIC "-//W3C//DTD SVG 1.1//EN"
  "http://www.w3.org/Graphics/SVG/1.1/DTD/svg11.dtd">
<svg xmlns:xlink="http://www.w3.org/1999/xlink" width="210.3525pt" height="164.892375pt" viewBox="0 0 210.3525 164.892375" xmlns="http://www.w3.org/2000/svg" version="1.1">
 <metadata>
  <rdf:RDF xmlns:dc="http://purl.org/dc/elements/1.1/" xmlns:cc="http://creativecommons.org/ns#" xmlns:rdf="http://www.w3.org/1999/02/22-rdf-syntax-ns#">
   <cc:Work>
    <dc:type rdf:resource="http://purl.org/dc/dcmitype/StillImage"/>
    <dc:format>image/svg+xml</dc:format>
    <dc:creator>
     <cc:Agent>
      <dc:title>Matplotlib v3.5.2, https://matplotlib.org/</dc:title>
     </cc:Agent>
    </dc:creator>
   </cc:Work>
  </rdf:RDF>
 </metadata>
 <defs>
  <style type="text/css">*{stroke-linejoin: round; stroke-linecap: butt}</style>
 </defs>
 <g id="figure_1">
  <g id="patch_1">
   <path d="M 0 164.892375 
L 210.3525 164.892375 
L 210.3525 0 
L 0 0 
L 0 164.892375 
z
" style="fill: none"/>
  </g>
  <g id="axes_1">
   <g id="patch_2">
    <path d="M 40.55125 132.207375 
L 196.79125 132.207375 
L 196.79125 10.239375 
L 40.55125 10.239375 
L 40.55125 132.207375 
z
" style="fill: none"/>
   </g>
   <g id="line2d_1">
    <path d="M 40.55125 83.420175 
L 196.79125 83.420175 
" clip-path="url(#p3ae738bd29)" style="fill: none; stroke-dasharray: 3.7,1.6; stroke-dashoffset: 0; stroke: #000000"/>
   </g>
   <g id="line2d_2">
    <path d="M 40.55125 34.632975 
L 196.79125 34.632975 
" clip-path="url(#p3ae738bd29)" style="fill: none; stroke-dasharray: 3.7,1.6; stroke-dashoffset: 0; stroke: #000000"/>
   </g>
   <g id="matplotlib.axis_1">
    <g id="xtick_1">
     <g id="line2d_3">
      <defs>
       <path id="m4cd371f86f" d="M 0 0 
L 0 2.5 
" style="stroke: #000000; stroke-width: 0.6"/>
      </defs>
      <g>
       <use xlink:href="#m4cd371f86f" x="40.55125" y="132.207375" style="stroke: #000000; stroke-width: 0.6"/>
      </g>
     </g>
     <g id="text_1">
      <!-- -1.5 -->
      <g transform="translate(32.746875 144.286125)scale(0.08 -0.08)">
       <defs>
        <path id="DejaVuSans-2d" d="M 313 2009 
L 1997 2009 
L 1997 1497 
L 313 1497 
L 313 2009 
z
" transform="scale(0.015625)"/>
        <path id="DejaVuSans-31" d="M 794 531 
L 1825 531 
L 1825 4091 
L 703 3866 
L 703 4441 
L 1819 4666 
L 2450 4666 
L 2450 531 
L 3481 531 
L 3481 0 
L 794 0 
L 794 531 
z
" transform="scale(0.015625)"/>
        <path id="DejaVuSans-2e" d="M 684 794 
L 1344 794 
L 1344 0 
L 684 0 
L 684 794 
z
" transform="scale(0.015625)"/>
        <path id="DejaVuSans-35" d="M 691 4666 
L 3169 4666 
L 3169 4134 
L 1269 4134 
L 1269 2991 
Q 1406 3038 1543 3061 
Q 1681 3084 1819 3084 
Q 2600 3084 3056 2656 
Q 3513 2228 3513 1497 
Q 3513 744 3044 326 
Q 2575 -91 1722 -91 
Q 1428 -91 1123 -41 
Q 819 9 494 109 
L 494 744 
Q 775 591 1075 516 
Q 1375 441 1709 441 
Q 2250 441 2565 725 
Q 2881 1009 2881 1497 
Q 2881 1984 2565 2268 
Q 2250 2553 1709 2553 
Q 1456 2553 1204 2497 
Q 953 2441 691 2322 
L 691 4666 
z
" transform="scale(0.015625)"/>
       </defs>
       <use xlink:href="#DejaVuSans-2d"/>
       <use xlink:href="#DejaVuSans-31" x="36.083984"/>
       <use xlink:href="#DejaVuSans-2e" x="99.707031"/>
       <use xlink:href="#DejaVuSans-35" x="131.494141"/>
      </g>
     </g>
    </g>
    <g id="xtick_2">
     <g id="line2d_4">
      <g>
       <use xlink:href="#m4cd371f86f" x="66.59125" y="132.207375" style="stroke: #000000; stroke-width: 0.6"/>
      </g>
     </g>
     <g id="text_2">
      <!-- -1.0 -->
      <g transform="translate(58.786875 144.286125)scale(0.08 -0.08)">
       <defs>
        <path id="DejaVuSans-30" d="M 2034 4250 
Q 1547 4250 1301 3770 
Q 1056 3291 1056 2328 
Q 1056 1369 1301 889 
Q 1547 409 2034 409 
Q 2525 409 2770 889 
Q 3016 1369 3016 2328 
Q 3016 3291 2770 3770 
Q 2525 4250 2034 4250 
z
M 2034 4750 
Q 2819 4750 3233 4129 
Q 3647 3509 3647 2328 
Q 3647 1150 3233 529 
Q 2819 -91 2034 -91 
Q 1250 -91 836 529 
Q 422 1150 422 2328 
Q 422 3509 836 4129 
Q 1250 4750 2034 4750 
z
" transform="scale(0.015625)"/>
       </defs>
       <use xlink:href="#DejaVuSans-2d"/>
       <use xlink:href="#DejaVuSans-31" x="36.083984"/>
       <use xlink:href="#DejaVuSans-2e" x="99.707031"/>
       <use xlink:href="#DejaVuSans-30" x="131.494141"/>
      </g>
     </g>
    </g>
    <g id="xtick_3">
     <g id="line2d_5">
      <g>
       <use xlink:href="#m4cd371f86f" x="92.63125" y="132.207375" style="stroke: #000000; stroke-width: 0.6"/>
      </g>
     </g>
     <g id="text_3">
      <!-- -0.5 -->
      <g transform="translate(84.826875 144.286125)scale(0.08 -0.08)">
       <use xlink:href="#DejaVuSans-2d"/>
       <use xlink:href="#DejaVuSans-30" x="36.083984"/>
       <use xlink:href="#DejaVuSans-2e" x="99.707031"/>
       <use xlink:href="#DejaVuSans-35" x="131.494141"/>
      </g>
     </g>
    </g>
    <g id="xtick_4">
     <g id="line2d_6">
      <g>
       <use xlink:href="#m4cd371f86f" x="118.67125" y="132.207375" style="stroke: #000000; stroke-width: 0.6"/>
      </g>
     </g>
     <g id="text_4">
      <!-- 0.0 -->
      <g transform="translate(112.31 144.286125)scale(0.08 -0.08)">
       <use xlink:href="#DejaVuSans-30"/>
       <use xlink:href="#DejaVuSans-2e" x="63.623047"/>
       <use xlink:href="#DejaVuSans-30" x="95.410156"/>
      </g>
     </g>
    </g>
    <g id="xtick_5">
     <g id="line2d_7">
      <g>
       <use xlink:href="#m4cd371f86f" x="144.71125" y="132.207375" style="stroke: #000000; stroke-width: 0.6"/>
      </g>
     </g>
     <g id="text_5">
      <!-- 0.5 -->
      <g transform="translate(138.35 144.286125)scale(0.08 -0.08)">
       <use xlink:href="#DejaVuSans-30"/>
       <use xlink:href="#DejaVuSans-2e" x="63.623047"/>
       <use xlink:href="#DejaVuSans-35" x="95.410156"/>
      </g>
     </g>
    </g>
    <g id="xtick_6">
     <g id="line2d_8">
      <g>
       <use xlink:href="#m4cd371f86f" x="170.75125" y="132.207375" style="stroke: #000000; stroke-width: 0.6"/>
      </g>
     </g>
     <g id="text_6">
      <!-- 1.0 -->
      <g transform="translate(164.39 144.286125)scale(0.08 -0.08)">
       <use xlink:href="#DejaVuSans-31"/>
       <use xlink:href="#DejaVuSans-2e" x="63.623047"/>
       <use xlink:href="#DejaVuSans-30" x="95.410156"/>
      </g>
     </g>
    </g>
    <g id="xtick_7">
     <g id="line2d_9">
      <g>
       <use xlink:href="#m4cd371f86f" x="196.79125" y="132.207375" style="stroke: #000000; stroke-width: 0.6"/>
      </g>
     </g>
     <g id="text_7">
      <!-- 1.5 -->
      <g transform="translate(190.43 144.286125)scale(0.08 -0.08)">
       <use xlink:href="#DejaVuSans-31"/>
       <use xlink:href="#DejaVuSans-2e" x="63.623047"/>
       <use xlink:href="#DejaVuSans-35" x="95.410156"/>
      </g>
     </g>
    </g>
    <g id="text_8">
     <!-- x -->
     <g transform="translate(116.30375 156.028625)scale(0.08 -0.08)">
      <defs>
       <path id="DejaVuSans-78" d="M 3513 3500 
L 2247 1797 
L 3578 0 
L 2900 0 
L 1881 1375 
L 863 0 
L 184 0 
L 1544 1831 
L 300 3500 
L 978 3500 
L 1906 2253 
L 2834 3500 
L 3513 3500 
z
" transform="scale(0.015625)"/>
      </defs>
      <use xlink:href="#DejaVuSans-78"/>
     </g>
    </g>
   </g>
   <g id="matplotlib.axis_2">
    <g id="ytick_1">
     <g id="line2d_10">
      <defs>
       <path id="m56f3a9ced1" d="M 0 0 
L -2.5 0 
" style="stroke: #000000; stroke-width: 0.6"/>
      </defs>
      <g>
       <use xlink:href="#m56f3a9ced1" x="40.55125" y="132.207375" style="stroke: #000000; stroke-width: 0.6"/>
      </g>
     </g>
     <g id="text_9">
      <!-- -1.0 -->
      <g transform="translate(18.9425 135.24675)scale(0.08 -0.08)">
       <use xlink:href="#DejaVuSans-2d"/>
       <use xlink:href="#DejaVuSans-31" x="36.083984"/>
       <use xlink:href="#DejaVuSans-2e" x="99.707031"/>
       <use xlink:href="#DejaVuSans-30" x="131.494141"/>
      </g>
     </g>
    </g>
    <g id="ytick_2">
     <g id="line2d_11">
      <g>
       <use xlink:href="#m56f3a9ced1" x="40.55125" y="107.813775" style="stroke: #000000; stroke-width: 0.6"/>
      </g>
     </g>
     <g id="text_10">
      <!-- -0.5 -->
      <g transform="translate(18.9425 110.85315)scale(0.08 -0.08)">
       <use xlink:href="#DejaVuSans-2d"/>
       <use xlink:href="#DejaVuSans-30" x="36.083984"/>
       <use xlink:href="#DejaVuSans-2e" x="99.707031"/>
       <use xlink:href="#DejaVuSans-35" x="131.494141"/>
      </g>
     </g>
    </g>
    <g id="ytick_3">
     <g id="line2d_12">
      <g>
       <use xlink:href="#m56f3a9ced1" x="40.55125" y="83.420175" style="stroke: #000000; stroke-width: 0.6"/>
      </g>
     </g>
     <g id="text_11">
      <!-- 0.0 -->
      <g transform="translate(21.82875 86.45955)scale(0.08 -0.08)">
       <use xlink:href="#DejaVuSans-30"/>
       <use xlink:href="#DejaVuSans-2e" x="63.623047"/>
       <use xlink:href="#DejaVuSans-30" x="95.410156"/>
      </g>
     </g>
    </g>
    <g id="ytick_4">
     <g id="line2d_13">
      <g>
       <use xlink:href="#m56f3a9ced1" x="40.55125" y="59.026575" style="stroke: #000000; stroke-width: 0.6"/>
      </g>
     </g>
     <g id="text_12">
      <!-- 0.5 -->
      <g transform="translate(21.82875 62.06595)scale(0.08 -0.08)">
       <use xlink:href="#DejaVuSans-30"/>
       <use xlink:href="#DejaVuSans-2e" x="63.623047"/>
       <use xlink:href="#DejaVuSans-35" x="95.410156"/>
      </g>
     </g>
    </g>
    <g id="ytick_5">
     <g id="line2d_14">
      <g>
       <use xlink:href="#m56f3a9ced1" x="40.55125" y="34.632975" style="stroke: #000000; stroke-width: 0.6"/>
      </g>
     </g>
     <g id="text_13">
      <!-- 1.0 -->
      <g transform="translate(21.82875 37.67235)scale(0.08 -0.08)">
       <use xlink:href="#DejaVuSans-31"/>
       <use xlink:href="#DejaVuSans-2e" x="63.623047"/>
       <use xlink:href="#DejaVuSans-30" x="95.410156"/>
      </g>
     </g>
    </g>
    <g id="ytick_6">
     <g id="line2d_15">
      <g>
       <use xlink:href="#m56f3a9ced1" x="40.55125" y="10.239375" style="stroke: #000000; stroke-width: 0.6"/>
      </g>
     </g>
     <g id="text_14">
      <!-- 1.5 -->
      <g transform="translate(21.82875 13.27875)scale(0.08 -0.08)">
       <use xlink:href="#DejaVuSans-31"/>
       <use xlink:href="#DejaVuSans-2e" x="63.623047"/>
       <use xlink:href="#DejaVuSans-35" x="95.410156"/>
      </g>
     </g>
    </g>
    <g id="text_15">
     <!-- y -->
     <g transform="translate(13.27875 73.590875)rotate(-90)scale(0.08 -0.08)">
      <defs>
       <path id="DejaVuSans-79" d="M 2059 -325 
Q 1816 -950 1584 -1140 
Q 1353 -1331 966 -1331 
L 506 -1331 
L 506 -850 
L 844 -850 
Q 1081 -850 1212 -737 
Q 1344 -625 1503 -206 
L 1606 56 
L 191 3500 
L 800 3500 
L 1894 763 
L 2988 3500 
L 3597 3500 
L 2059 -325 
z
" transform="scale(0.015625)"/>
      </defs>
      <use xlink:href="#DejaVuSans-79"/>
     </g>
    </g>
   </g>
   <g id="line2d_16">
    <path d="M 61.705937 -1 
L 62.781791 22.73891 
L 64.034216 46.468221 
L 65.286641 66.377779 
L 66.539066 82.806379 
L 67.79149 96.075848 
L 68.730809 104.139001 
L 69.670128 110.719943 
L 70.609446 115.936412 
L 71.548765 119.901198 
L 72.488084 122.722238 
L 73.114296 124.01866 
L 73.740509 124.882114 
L 74.366721 125.341102 
L 74.992933 125.423226 
L 75.619146 125.155202 
L 76.245358 124.562869 
L 76.871571 123.671206 
L 77.810889 121.825013 
L 78.750208 119.437311 
L 80.002633 115.53823 
L 81.568164 109.742329 
L 83.446801 101.816714 
L 86.577863 87.388541 
L 90.648244 68.747701 
L 92.839987 59.669835 
L 94.718625 52.747422 
L 96.284156 47.69874 
L 97.849687 43.37309 
L 99.102112 40.463957 
L 100.354537 38.061758 
L 101.606961 36.174956 
L 102.54628 35.099643 
L 103.485599 34.314365 
L 104.424917 33.816117 
L 105.364236 33.600221 
L 106.303555 33.660417 
L 107.242873 33.988957 
L 108.182192 34.576693 
L 109.121511 35.413171 
L 110.373935 36.895064 
L 111.62636 38.767541 
L 113.191891 41.605454 
L 114.757422 44.928178 
L 116.63606 49.445352 
L 119.140909 56.13127 
L 124.150609 70.433725 
L 127.281671 78.966259 
L 129.473414 84.31319 
L 131.352052 88.304396 
L 132.917583 91.124233 
L 134.170008 93.006431 
L 135.422432 94.528531 
L 136.674857 95.669077 
L 137.614176 96.263707 
L 138.553494 96.62869 
L 139.492813 96.760283 
L 140.432132 96.656462 
L 141.37145 96.317019 
L 142.310769 95.74365 
L 143.250088 94.940048 
L 144.502513 93.520737 
L 145.754937 91.722409 
L 147.320468 88.983406 
L 148.885999 85.764683 
L 150.764637 81.396533 
L 153.895699 73.420501 
L 156.713655 66.369397 
L 158.279186 62.929209 
L 159.531611 60.618035 
L 160.470929 59.22772 
L 161.410248 58.197948 
L 162.03646 57.743177 
L 162.662673 57.496939 
L 163.288885 57.479954 
L 163.915098 57.713743 
L 164.54131 58.220638 
L 165.167523 59.023801 
L 165.793735 60.147228 
L 166.419947 61.615765 
L 167.359266 64.522123 
L 168.298585 68.353484 
L 169.237903 73.204817 
L 170.177222 79.175695 
L 171.116541 86.370384 
L 172.368965 98.056192 
L 173.62139 112.38411 
L 174.873815 129.641944 
L 176.12624 150.133676 
L 176.96718 165.892375 
L 176.96718 165.892375 
" clip-path="url(#p3ae738bd29)" style="fill: none; stroke: #ff1f5b; stroke-linecap: square"/>
   </g>
   <g id="line2d_17">
    <path d="M 40.6085 165.892375 
L 42.429887 152.492474 
L 44.308525 140.420452 
L 46.187162 129.95745 
L 47.752693 122.355459 
L 49.318224 115.678768 
L 50.883755 109.847456 
L 52.449286 104.786005 
L 54.014817 100.423181 
L 55.580348 96.691919 
L 57.145879 93.529207 
L 58.71141 90.875964 
L 60.276941 88.676932 
L 61.842472 86.880548 
L 63.408004 85.438837 
L 64.973535 84.307289 
L 66.539066 83.444745 
L 68.104597 82.813278 
L 69.983234 82.311737 
L 71.861871 82.038504 
L 74.053615 81.943836 
L 76.871571 82.074596 
L 80.628845 82.503362 
L 90.335138 83.716633 
L 94.405519 83.956807 
L 98.475899 83.982568 
L 103.172492 83.787784 
L 120.080228 82.844899 
L 124.150609 82.977211 
L 128.534096 83.356873 
L 134.170008 84.099281 
L 139.492813 84.753295 
L 142.310769 84.895826 
L 144.502513 84.814976 
L 146.38115 84.557391 
L 148.259787 84.075483 
L 149.825318 83.463759 
L 151.390849 82.624338 
L 152.95638 81.519588 
L 154.521911 80.108657 
L 156.087442 78.347352 
L 157.652973 76.188025 
L 159.218505 73.579456 
L 160.784036 70.466733 
L 162.349567 66.791141 
L 163.915098 62.490037 
L 165.480629 57.49674 
L 167.04616 51.74041 
L 168.611691 45.145934 
L 170.177222 37.633807 
L 171.742753 29.120015 
L 173.308284 19.515918 
L 175.186921 6.419979 
L 176.148568 -1 
L 176.148568 -1 
" clip-path="url(#p3ae738bd29)" style="fill: none; stroke: #00cd6c; stroke-linecap: square"/>
   </g>
   <g id="patch_3">
    <path d="M 40.55125 132.207375 
L 40.55125 10.239375 
" style="fill: none; stroke: #000000; stroke-width: 0.6; stroke-linejoin: miter; stroke-linecap: square"/>
   </g>
   <g id="patch_4">
    <path d="M 40.55125 132.207375 
L 196.79125 132.207375 
" style="fill: none; stroke: #000000; stroke-width: 0.6; stroke-linejoin: miter; stroke-linecap: square"/>
   </g>
   <g id="PathCollection_1">
    <defs>
     <path id="m944eccb737" d="M 0 1.581139 
C 0.419323 1.581139 0.821528 1.41454 1.118034 1.118034 
C 1.41454 0.821528 1.581139 0.419323 1.581139 0 
C 1.581139 -0.419323 1.41454 -0.821528 1.118034 -1.118034 
C 0.821528 -1.41454 0.419323 -1.581139 0 -1.581139 
C -0.419323 -1.581139 -0.821528 -1.41454 -1.118034 -1.118034 
C -1.41454 -0.821528 -1.581139 -0.419323 -1.581139 0 
C -1.581139 0.419323 -1.41454 0.821528 -1.118034 1.118034 
C -0.821528 1.41454 -0.419323 1.581139 0 1.581139 
z
" style="stroke: #ff1f5b"/>
    </defs>
    <g clip-path="url(#p3ae738bd29)">
     <use xlink:href="#m944eccb737" x="66.59125" y="83.420175" style="fill: #ff1f5b; stroke: #ff1f5b"/>
     <use xlink:href="#m944eccb737" x="87.42325" y="83.420175" style="fill: #ff1f5b; stroke: #ff1f5b"/>
     <use xlink:href="#m944eccb737" x="108.25525" y="34.632975" style="fill: #ff1f5b; stroke: #ff1f5b"/>
     <use xlink:href="#m944eccb737" x="129.08725" y="83.420175" style="fill: #ff1f5b; stroke: #ff1f5b"/>
     <use xlink:href="#m944eccb737" x="149.91925" y="83.420175" style="fill: #ff1f5b; stroke: #ff1f5b"/>
     <use xlink:href="#m944eccb737" x="170.75125" y="83.420175" style="fill: #ff1f5b; stroke: #ff1f5b"/>
    </g>
   </g>
   <g id="PathCollection_2">
    <defs>
     <path id="m533d076a1b" d="M 0 1.118034 
C 0.296506 1.118034 0.580908 1.000231 0.790569 0.790569 
C 1.000231 0.580908 1.118034 0.296506 1.118034 0 
C 1.118034 -0.296506 1.000231 -0.580908 0.790569 -0.790569 
C 0.580908 -1.000231 0.296506 -1.118034 0 -1.118034 
C -0.296506 -1.118034 -0.580908 -1.000231 -0.790569 -0.790569 
C -1.000231 -0.580908 -1.118034 -0.296506 -1.118034 0 
C -1.118034 0.296506 -1.000231 0.580908 -0.790569 0.790569 
C -0.580908 1.000231 -0.296506 1.118034 0 1.118034 
z
" style="stroke: #00cd6c"/>
    </defs>
    <g clip-path="url(#p3ae738bd29)">
     <use xlink:href="#m533d076a1b" x="66.59125" y="83.420175" style="fill: #00cd6c; stroke: #00cd6c"/>
     <use xlink:href="#m533d076a1b" x="87.42325" y="83.420175" style="fill: #00cd6c; stroke: #00cd6c"/>
     <use xlink:href="#m533d076a1b" x="108.25525" y="83.420175" style="fill: #00cd6c; stroke: #00cd6c"/>
     <use xlink:href="#m533d076a1b" x="129.08725" y="83.420175" style="fill: #00cd6c; stroke: #00cd6c"/>
     <use xlink:href="#m533d076a1b" x="149.91925" y="83.420175" style="fill: #00cd6c; stroke: #00cd6c"/>
     <use xlink:href="#m533d076a1b" x="170.75125" y="34.632975" style="fill: #00cd6c; stroke: #00cd6c"/>
    </g>
   </g>
  </g>
 </g>
 <defs>
  <clipPath id="p3ae738bd29">
   <rect x="40.55125" y="10.239375" width="156.24" height="121.968"/>
  </clipPath>
 </defs>
</svg>
