<?xml version="1.0" encoding="utf-8" standalone="no"?>
<!DOCTYPE svg PUBLIC "-//W3C//DTD SVG 1.1//EN"
  "http://www.w3.org/Graphics/SVG/1.1/DTD/svg11.dtd">
<svg xmlns:xlink="http://www.w3.org/1999/xlink" width="207.46625pt" height="164.892375pt" viewBox="0 0 207.46625 164.892375" xmlns="http://www.w3.org/2000/svg" version="1.1">
 <metadata>
  <rdf:RDF xmlns:dc="http://purl.org/dc/elements/1.1/" xmlns:cc="http://creativecommons.org/ns#" xmlns:rdf="http://www.w3.org/1999/02/22-rdf-syntax-ns#">
   <cc:Work>
    <dc:type rdf:resource="http://purl.org/dc/dcmitype/StillImage"/>
    <dc:format>image/svg+xml</dc:format>
    <dc:creator>
     <cc:Agent>
      <dc:title>Matplotlib v3.5.2, https://matplotlib.org/</dc:title>
     </cc:Agent>
    </dc:creator>
   </cc:Work>
  </rdf:RDF>
 </metadata>
 <defs>
  <style type="text/css">*{stroke-linejoin: round; stroke-linecap: butt}</style>
 </defs>
 <g id="figure_1">
  <g id="patch_1">
   <path d="M 0 164.892375 
L 207.46625 164.892375 
L 207.46625 0 
L 0 0 
L 0 164.892375 
z
" style="fill: none"/>
  </g>
  <g id="axes_1">
   <g id="patch_2">
    <path d="M 37.665 132.207375 
L 193.905 132.207375 
L 193.905 10.239375 
L 37.665 10.239375 
L 37.665 132.207375 
z
" style="fill: none"/>
   </g>
   <g id="matplotlib.axis_1">
    <g id="xtick_1">
     <g id="line2d_1">
      <defs>
       <path id="m4cd371f86f" d="M 0 0 
L 0 2.5 
" style="stroke: #000000; stroke-width: 0.6"/>
      </defs>
      <g>
       <use xlink:href="#m4cd371f86f" x="37.665" y="132.207375" style="stroke: #000000; stroke-width: 0.6"/>
      </g>
     </g>
     <g id="text_1">
      <!-- -1.0 -->
      <g transform="translate(29.860625 144.286125)scale(0.08 -0.08)">
       <defs>
        <path id="DejaVuSans-2d" d="M 313 2009 
L 1997 2009 
L 1997 1497 
L 313 1497 
L 313 2009 
z
" transform="scale(0.015625)"/>
        <path id="DejaVuSans-31" d="M 794 531 
L 1825 531 
L 1825 4091 
L 703 3866 
L 703 4441 
L 1819 4666 
L 2450 4666 
L 2450 531 
L 3481 531 
L 3481 0 
L 794 0 
L 794 531 
z
" transform="scale(0.015625)"/>
        <path id="DejaVuSans-2e" d="M 684 794 
L 1344 794 
L 1344 0 
L 684 0 
L 684 794 
z
" transform="scale(0.015625)"/>
        <path id="DejaVuSans-30" d="M 2034 4250 
Q 1547 4250 1301 3770 
Q 1056 3291 1056 2328 
Q 1056 1369 1301 889 
Q 1547 409 2034 409 
Q 2525 409 2770 889 
Q 3016 1369 3016 2328 
Q 3016 3291 2770 3770 
Q 2525 4250 2034 4250 
z
M 2034 4750 
Q 2819 4750 3233 4129 
Q 3647 3509 3647 2328 
Q 3647 1150 3233 529 
Q 2819 -91 2034 -91 
Q 1250 -91 836 529 
Q 422 1150 422 2328 
Q 422 3509 836 4129 
Q 1250 4750 2034 4750 
z
" transform="scale(0.015625)"/>
       </defs>
       <use xlink:href="#DejaVuSans-2d"/>
       <use xlink:href="#DejaVuSans-31" x="36.083984"/>
       <use xlink:href="#DejaVuSans-2e" x="99.707031"/>
       <use xlink:href="#DejaVuSans-30" x="131.494141"/>
      </g>
     </g>
    </g>
    <g id="xtick_2">
     <g id="line2d_2">
      <g>
       <use xlink:href="#m4cd371f86f" x="76.725" y="132.207375" style="stroke: #000000; stroke-width: 0.6"/>
      </g>
     </g>
     <g id="text_2">
      <!-- -0.5 -->
      <g transform="translate(68.920625 144.286125)scale(0.08 -0.08)">
       <defs>
        <path id="DejaVuSans-35" d="M 691 4666 
L 3169 4666 
L 3169 4134 
L 1269 4134 
L 1269 2991 
Q 1406 3038 1543 3061 
Q 1681 3084 1819 3084 
Q 2600 3084 3056 2656 
Q 3513 2228 3513 1497 
Q 3513 744 3044 326 
Q 2575 -91 1722 -91 
Q 1428 -91 1123 -41 
Q 819 9 494 109 
L 494 744 
Q 775 591 1075 516 
Q 1375 441 1709 441 
Q 2250 441 2565 725 
Q 2881 1009 2881 1497 
Q 2881 1984 2565 2268 
Q 2250 2553 1709 2553 
Q 1456 2553 1204 2497 
Q 953 2441 691 2322 
L 691 4666 
z
" transform="scale(0.015625)"/>
       </defs>
       <use xlink:href="#DejaVuSans-2d"/>
       <use xlink:href="#DejaVuSans-30" x="36.083984"/>
       <use xlink:href="#DejaVuSans-2e" x="99.707031"/>
       <use xlink:href="#DejaVuSans-35" x="131.494141"/>
      </g>
     </g>
    </g>
    <g id="xtick_3">
     <g id="line2d_3">
      <g>
       <use xlink:href="#m4cd371f86f" x="115.785" y="132.207375" style="stroke: #000000; stroke-width: 0.6"/>
      </g>
     </g>
     <g id="text_3">
      <!-- 0.0 -->
      <g transform="translate(109.42375 144.286125)scale(0.08 -0.08)">
       <use xlink:href="#DejaVuSans-30"/>
       <use xlink:href="#DejaVuSans-2e" x="63.623047"/>
       <use xlink:href="#DejaVuSans-30" x="95.410156"/>
      </g>
     </g>
    </g>
    <g id="xtick_4">
     <g id="line2d_4">
      <g>
       <use xlink:href="#m4cd371f86f" x="154.845" y="132.207375" style="stroke: #000000; stroke-width: 0.6"/>
      </g>
     </g>
     <g id="text_4">
      <!-- 0.5 -->
      <g transform="translate(148.48375 144.286125)scale(0.08 -0.08)">
       <use xlink:href="#DejaVuSans-30"/>
       <use xlink:href="#DejaVuSans-2e" x="63.623047"/>
       <use xlink:href="#DejaVuSans-35" x="95.410156"/>
      </g>
     </g>
    </g>
    <g id="xtick_5">
     <g id="line2d_5">
      <g>
       <use xlink:href="#m4cd371f86f" x="193.905" y="132.207375" style="stroke: #000000; stroke-width: 0.6"/>
      </g>
     </g>
     <g id="text_5">
      <!-- 1.0 -->
      <g transform="translate(187.54375 144.286125)scale(0.08 -0.08)">
       <use xlink:href="#DejaVuSans-31"/>
       <use xlink:href="#DejaVuSans-2e" x="63.623047"/>
       <use xlink:href="#DejaVuSans-30" x="95.410156"/>
      </g>
     </g>
    </g>
    <g id="text_6">
     <!-- x -->
     <g transform="translate(113.4175 156.028625)scale(0.08 -0.08)">
      <defs>
       <path id="DejaVuSans-78" d="M 3513 3500 
L 2247 1797 
L 3578 0 
L 2900 0 
L 1881 1375 
L 863 0 
L 184 0 
L 1544 1831 
L 300 3500 
L 978 3500 
L 1906 2253 
L 2834 3500 
L 3513 3500 
z
" transform="scale(0.015625)"/>
      </defs>
      <use xlink:href="#DejaVuSans-78"/>
     </g>
    </g>
   </g>
   <g id="matplotlib.axis_2">
    <g id="ytick_1">
     <g id="line2d_6">
      <defs>
       <path id="m56f3a9ced1" d="M 0 0 
L -2.5 0 
" style="stroke: #000000; stroke-width: 0.6"/>
      </defs>
      <g>
       <use xlink:href="#m56f3a9ced1" x="37.665" y="132.207375" style="stroke: #000000; stroke-width: 0.6"/>
      </g>
     </g>
     <g id="text_7">
      <!-- 1.0 -->
      <g transform="translate(18.9425 135.24675)scale(0.08 -0.08)">
       <use xlink:href="#DejaVuSans-31"/>
       <use xlink:href="#DejaVuSans-2e" x="63.623047"/>
       <use xlink:href="#DejaVuSans-30" x="95.410156"/>
      </g>
     </g>
    </g>
    <g id="ytick_2">
     <g id="line2d_7">
      <g>
       <use xlink:href="#m56f3a9ced1" x="37.665" y="107.813775" style="stroke: #000000; stroke-width: 0.6"/>
      </g>
     </g>
     <g id="text_8">
      <!-- 1.5 -->
      <g transform="translate(18.9425 110.85315)scale(0.08 -0.08)">
       <use xlink:href="#DejaVuSans-31"/>
       <use xlink:href="#DejaVuSans-2e" x="63.623047"/>
       <use xlink:href="#DejaVuSans-35" x="95.410156"/>
      </g>
     </g>
    </g>
    <g id="ytick_3">
     <g id="line2d_8">
      <g>
       <use xlink:href="#m56f3a9ced1" x="37.665" y="83.420175" style="stroke: #000000; stroke-width: 0.6"/>
      </g>
     </g>
     <g id="text_9">
      <!-- 2.0 -->
      <g transform="translate(18.9425 86.45955)scale(0.08 -0.08)">
       <defs>
        <path id="DejaVuSans-32" d="M 1228 531 
L 3431 531 
L 3431 0 
L 469 0 
L 469 531 
Q 828 903 1448 1529 
Q 2069 2156 2228 2338 
Q 2531 2678 2651 2914 
Q 2772 3150 2772 3378 
Q 2772 3750 2511 3984 
Q 2250 4219 1831 4219 
Q 1534 4219 1204 4116 
Q 875 4013 500 3803 
L 500 4441 
Q 881 4594 1212 4672 
Q 1544 4750 1819 4750 
Q 2544 4750 2975 4387 
Q 3406 4025 3406 3419 
Q 3406 3131 3298 2873 
Q 3191 2616 2906 2266 
Q 2828 2175 2409 1742 
Q 1991 1309 1228 531 
z
" transform="scale(0.015625)"/>
       </defs>
       <use xlink:href="#DejaVuSans-32"/>
       <use xlink:href="#DejaVuSans-2e" x="63.623047"/>
       <use xlink:href="#DejaVuSans-30" x="95.410156"/>
      </g>
     </g>
    </g>
    <g id="ytick_4">
     <g id="line2d_9">
      <g>
       <use xlink:href="#m56f3a9ced1" x="37.665" y="59.026575" style="stroke: #000000; stroke-width: 0.6"/>
      </g>
     </g>
     <g id="text_10">
      <!-- 2.5 -->
      <g transform="translate(18.9425 62.06595)scale(0.08 -0.08)">
       <use xlink:href="#DejaVuSans-32"/>
       <use xlink:href="#DejaVuSans-2e" x="63.623047"/>
       <use xlink:href="#DejaVuSans-35" x="95.410156"/>
      </g>
     </g>
    </g>
    <g id="ytick_5">
     <g id="line2d_10">
      <g>
       <use xlink:href="#m56f3a9ced1" x="37.665" y="34.632975" style="stroke: #000000; stroke-width: 0.6"/>
      </g>
     </g>
     <g id="text_11">
      <!-- 3.0 -->
      <g transform="translate(18.9425 37.67235)scale(0.08 -0.08)">
       <defs>
        <path id="DejaVuSans-33" d="M 2597 2516 
Q 3050 2419 3304 2112 
Q 3559 1806 3559 1356 
Q 3559 666 3084 287 
Q 2609 -91 1734 -91 
Q 1441 -91 1130 -33 
Q 819 25 488 141 
L 488 750 
Q 750 597 1062 519 
Q 1375 441 1716 441 
Q 2309 441 2620 675 
Q 2931 909 2931 1356 
Q 2931 1769 2642 2001 
Q 2353 2234 1838 2234 
L 1294 2234 
L 1294 2753 
L 1863 2753 
Q 2328 2753 2575 2939 
Q 2822 3125 2822 3475 
Q 2822 3834 2567 4026 
Q 2313 4219 1838 4219 
Q 1578 4219 1281 4162 
Q 984 4106 628 3988 
L 628 4550 
Q 988 4650 1302 4700 
Q 1616 4750 1894 4750 
Q 2613 4750 3031 4423 
Q 3450 4097 3450 3541 
Q 3450 3153 3228 2886 
Q 3006 2619 2597 2516 
z
" transform="scale(0.015625)"/>
       </defs>
       <use xlink:href="#DejaVuSans-33"/>
       <use xlink:href="#DejaVuSans-2e" x="63.623047"/>
       <use xlink:href="#DejaVuSans-30" x="95.410156"/>
      </g>
     </g>
    </g>
    <g id="ytick_6">
     <g id="line2d_11">
      <g>
       <use xlink:href="#m56f3a9ced1" x="37.665" y="10.239375" style="stroke: #000000; stroke-width: 0.6"/>
      </g>
     </g>
     <g id="text_12">
      <!-- 3.5 -->
      <g transform="translate(18.9425 13.27875)scale(0.08 -0.08)">
       <use xlink:href="#DejaVuSans-33"/>
       <use xlink:href="#DejaVuSans-2e" x="63.623047"/>
       <use xlink:href="#DejaVuSans-35" x="95.410156"/>
      </g>
     </g>
    </g>
    <g id="text_13">
     <!-- y -->
     <g transform="translate(13.27875 73.590875)rotate(-90)scale(0.08 -0.08)">
      <defs>
       <path id="DejaVuSans-79" d="M 2059 -325 
Q 1816 -950 1584 -1140 
Q 1353 -1331 966 -1331 
L 506 -1331 
L 506 -850 
L 844 -850 
Q 1081 -850 1212 -737 
Q 1344 -625 1503 -206 
L 1606 56 
L 191 3500 
L 800 3500 
L 1894 763 
L 2988 3500 
L 3597 3500 
L 2059 -325 
z
" transform="scale(0.015625)"/>
      </defs>
      <use xlink:href="#DejaVuSans-79"/>
     </g>
    </g>
   </g>
   <g id="line2d_12">
    <path d="M 37.665 27.377715 
L 37.743159 112.234174 
L 37.821318 101.629874 
L 38.055795 48.320409 
L 38.133954 49.678901 
L 38.290273 69.583489 
L 38.602909 124.11481 
L 38.993704 61.958895 
L 39.228182 49.045345 
L 39.306341 48.754235 
L 39.462659 53.558808 
L 39.697136 72.035908 
L 40.166091 131.214885 
L 40.24425 120.765937 
L 40.791363 64.732949 
L 41.103999 50.563724 
L 41.260318 48.785503 
L 41.338477 49.182699 
L 41.494795 52.420756 
L 41.729272 62.851628 
L 42.120068 92.079503 
L 42.510863 130.441892 
L 42.589022 126.171696 
L 43.214295 74.527887 
L 43.60509 55.534726 
L 43.917726 49.184787 
L 43.995885 48.846282 
L 44.074045 48.998912 
L 44.230363 50.743265 
L 44.46484 56.778418 
L 44.855635 74.859941 
L 45.402749 112.54182 
L 45.637226 131.285484 
L 46.028022 103.8268 
L 46.653294 67.6861 
L 47.122249 52.572847 
L 47.434885 48.957872 
L 47.513044 48.871085 
L 47.669362 49.661618 
L 47.903839 53.187706 
L 48.216476 61.973637 
L 48.68543 82.679609 
L 49.388862 125.466769 
L 49.467021 130.725268 
L 49.54518 128.517197 
L 50.40493 79.445512 
L 50.952044 59.036397 
L 51.342839 51.059788 
L 51.577316 49.077645 
L 51.655475 48.88728 
L 51.733634 48.930709 
L 51.889952 49.71206 
L 52.12443 52.581675 
L 52.437066 59.420426 
L 52.906021 75.452417 
L 53.531293 105.273316 
L 54.000248 131.66137 
L 54.469202 107.061804 
L 55.250793 72.331369 
L 55.797906 56.619243 
L 56.188702 50.530929 
L 56.423179 49.030139 
L 56.579497 48.930943 
L 56.735815 49.54665 
L 56.970293 51.786025 
L 57.282929 57.136328 
L 57.751883 69.818797 
L 58.377156 93.976653 
L 59.158747 131.925728 
L 59.236906 128.528015 
L 60.252974 82.892256 
L 60.878247 63.028171 
L 61.347201 53.555695 
L 61.737996 49.550694 
L 61.972474 48.889099 
L 62.128792 49.173145 
L 62.363269 50.673284 
L 62.675905 54.625715 
L 63.066701 62.534167 
L 63.613814 78.551437 
L 64.395405 109.250986 
L 64.86436 130.547445 
L 64.942519 130.236304 
L 66.036746 84.924177 
L 66.740178 63.967576 
L 67.287291 53.633283 
L 67.678087 49.784849 
L 67.912564 48.934004 
L 68.068882 48.976595 
L 68.2252 49.504296 
L 68.459677 51.194186 
L 68.772314 55.081724 
L 69.241268 64.221411 
L 69.866541 81.879319 
L 70.726291 113.950787 
L 71.195245 130.596215 
L 72.367631 85.468905 
L 73.071063 65.577826 
L 73.618177 55.165143 
L 74.087131 50.16991 
L 74.399767 48.938617 
L 74.556086 48.957966 
L 74.712404 49.398993 
L 74.946881 50.843374 
L 75.259517 54.199886 
L 75.728472 62.157521 
L 76.353744 77.694369 
L 77.135335 103.507997 
L 77.838767 130.810256 
L 77.916926 130.452588 
L 79.089312 87.66582 
L 79.870903 66.355857 
L 80.496176 55.024407 
L 80.96513 50.282554 
L 81.277766 48.991415 
L 81.434085 48.912813 
L 81.590403 49.211615 
L 81.82488 50.362419 
L 82.137516 53.186631 
L 82.606471 60.080333 
L 83.153584 71.844555 
L 83.857016 91.995447 
L 84.873084 128.177351 
L 84.951243 131.178618 
L 85.029402 130.239438 
L 86.279947 86.872143 
L 87.061538 66.586843 
L 87.686811 55.553431 
L 88.155765 50.691805 
L 88.468402 49.155577 
L 88.702879 48.9115 
L 88.859197 49.181447 
L 89.093674 50.231386 
L 89.406311 52.818077 
L 89.875265 59.154341 
L 90.422379 70.01578 
L 91.12581 88.743492 
L 92.141878 122.769983 
L 92.376356 131.376234 
L 92.454515 130.152492 
L 93.70506 88.128878 
L 94.56481 66.427698 
L 95.190083 55.73424 
L 95.659037 50.899745 
L 95.971673 49.270199 
L 96.206151 48.898714 
L 96.362469 49.057229 
L 96.596946 49.901918 
L 96.909582 52.148257 
L 97.300378 56.709521 
L 97.847491 66.188941 
L 98.550923 83.105095 
L 99.488832 112.140312 
L 100.035945 131.354641 
L 100.114105 130.247321 
L 101.36465 89.09936 
L 102.2244 67.539875 
L 102.849672 56.649765 
L 103.318627 51.497748 
L 103.709422 49.292859 
L 103.943899 48.900438 
L 104.100218 49.028381 
L 104.334695 49.803057 
L 104.647331 51.913185 
L 105.038127 56.241462 
L 105.58524 65.297144 
L 106.288672 81.555127 
L 107.148422 107.097478 
L 107.851853 131.146332 
L 107.930013 130.497059 
L 109.258717 87.582297 
L 110.118467 66.672314 
L 110.743739 56.178266 
L 111.212694 51.265358 
L 111.603489 49.217344 
L 111.837966 48.899925 
L 111.994285 49.069881 
L 112.228762 49.895728 
L 112.541398 52.052518 
L 112.932194 56.406305 
L 113.479307 65.442933 
L 114.182739 81.60158 
L 115.042489 106.952523 
L 115.82408 130.828379 
L 117.152784 87.978072 
L 118.012534 66.998384 
L 118.637806 56.406305 
L 119.106761 51.401262 
L 119.497556 49.269198 
L 119.732034 48.899925 
L 119.888352 49.035258 
L 120.122829 49.809738 
L 120.435465 51.900445 
L 120.826261 56.178266 
L 121.373374 65.12719 
L 122.076806 81.21636 
L 122.936556 106.56133 
L 123.718147 131.146332 
L 125.046851 87.978449 
L 125.906601 66.859919 
L 126.531873 56.241462 
L 127.000828 51.271337 
L 127.391623 49.20907 
L 127.626101 48.900438 
L 127.782419 49.084171 
L 128.016896 49.943249 
L 128.329532 52.168919 
L 128.720328 56.649765 
L 129.267441 65.940983 
L 129.970873 82.548004 
L 130.830623 108.582601 
L 131.534055 131.354641 
L 132.862759 87.492687 
L 133.722509 66.188941 
L 134.347781 55.64507 
L 134.816736 50.866454 
L 135.129372 49.258082 
L 135.363849 48.898714 
L 135.520168 49.065127 
L 135.754645 49.923551 
L 136.067281 52.19617 
L 136.458077 56.812041 
L 137.00519 66.427698 
L 137.708622 83.65105 
L 138.646531 113.340049 
L 139.193644 131.376234 
L 140.44419 88.743492 
L 141.303939 66.553733 
L 141.929212 55.626546 
L 142.398167 50.751936 
L 142.710803 49.181447 
L 142.94528 48.906234 
L 143.101598 49.155577 
L 143.336076 50.178501 
L 143.648712 52.743927 
L 144.039507 57.838121 
L 144.586621 68.309409 
L 145.290053 86.872143 
L 146.227961 118.510506 
L 146.618757 131.178618 
L 147.869302 87.091997 
L 148.650893 66.340928 
L 149.276166 55.138178 
L 149.74512 50.362419 
L 150.057756 49.01514 
L 150.214075 48.904858 
L 150.370393 49.172538 
L 150.60487 50.282554 
L 150.917506 53.074709 
L 151.308302 58.624286 
L 151.855415 70.024673 
L 152.558847 90.172871 
L 153.496756 124.241066 
L 153.731233 130.810256 
L 154.981778 84.785257 
L 155.763369 63.806495 
L 156.310483 54.199886 
L 156.701278 50.258338 
L 157.013914 48.957966 
L 157.170233 48.938617 
L 157.326551 49.342613 
L 157.561028 50.741808 
L 157.873664 54.074153 
L 158.342619 62.119836 
L 158.889732 75.800429 
L 159.593164 99.168586 
L 160.374755 130.596215 
L 160.452914 130.458228 
L 161.6253 84.468274 
L 162.328732 64.221411 
L 162.875845 53.938554 
L 163.266641 49.948628 
L 163.501118 48.976595 
L 163.657436 48.934004 
L 163.813754 49.379161 
L 164.048232 50.9616 
L 164.360868 54.762741 
L 164.829822 63.967576 
L 165.376936 79.595475 
L 166.158527 109.391711 
L 166.70564 130.547445 
L 167.799867 84.049328 
L 168.503299 62.534167 
L 168.972254 53.43331 
L 169.363049 49.530954 
L 169.597526 48.889099 
L 169.753844 49.184696 
L 169.988322 50.718985 
L 170.300958 54.78723 
L 170.691753 63.028171 
L 171.238867 80.000187 
L 171.942299 109.492906 
L 172.411253 131.925728 
L 173.50548 80.994486 
L 174.130753 60.772426 
L 174.599707 51.786025 
L 174.912344 49.149991 
L 175.068662 48.890696 
L 175.22498 49.349858 
L 175.459457 51.391894 
L 175.772094 56.619243 
L 176.162889 67.031255 
L 176.710003 88.137062 
L 177.569752 131.66137 
L 177.647911 127.119877 
L 178.58582 78.714999 
L 179.132934 59.420426 
L 179.523729 51.403014 
L 179.836366 48.930709 
L 179.914525 48.88728 
L 180.070843 49.502895 
L 180.30532 52.190972 
L 180.617956 59.036397 
L 181.086911 75.921311 
L 181.712184 108.843516 
L 182.102979 130.725268 
L 183.040888 74.892125 
L 183.509842 57.024251 
L 183.822479 50.530492 
L 184.056956 48.871085 
L 184.135115 48.957872 
L 184.291433 50.109627 
L 184.52591 54.295093 
L 184.838547 64.387614 
L 185.307501 88.420075 
L 185.932774 131.285484 
L 186.714365 74.859941 
L 187.183319 54.329762 
L 187.495955 48.998912 
L 187.574115 48.846282 
L 187.652274 49.184787 
L 187.808592 51.356727 
L 188.043069 58.371645 
L 188.433864 79.703659 
L 189.059137 130.441892 
L 189.137296 122.36365 
L 189.762569 67.64468 
L 190.153364 50.404851 
L 190.309682 48.785503 
L 190.387841 49.239169 
L 190.54416 52.772728 
L 190.778637 64.732949 
L 191.169432 101.335151 
L 191.403909 131.214885 
L 192.1855 50.303134 
L 192.263659 48.754235 
L 192.341818 49.045345 
L 192.498137 55.575635 
L 192.732614 81.040358 
L 192.967091 124.11481 
L 193.04525 121.997335 
L 193.436046 49.678901 
L 193.514205 48.320409 
L 193.592364 55.057002 
L 193.826841 112.234174 
L 193.905 27.377715 
L 193.905 27.377715 
" style="fill: none; stroke: #ff1f5b; stroke-linecap: square"/>
   </g>
   <g id="patch_3">
    <path d="M 37.665 132.207375 
L 37.665 10.239375 
" style="fill: none; stroke: #000000; stroke-width: 0.6; stroke-linejoin: miter; stroke-linecap: square"/>
   </g>
   <g id="patch_4">
    <path d="M 37.665 132.207375 
L 193.905 132.207375 
" style="fill: none; stroke: #000000; stroke-width: 0.6; stroke-linejoin: miter; stroke-linecap: square"/>
   </g>
  </g>
 </g>
</svg>
