<?xml version="1.0" encoding="utf-8" standalone="no"?>
<!DOCTYPE svg PUBLIC "-//W3C//DTD SVG 1.1//EN"
  "http://www.w3.org/Graphics/SVG/1.1/DTD/svg11.dtd">
<svg xmlns:xlink="http://www.w3.org/1999/xlink" width="207.46625pt" height="164.892375pt" viewBox="0 0 207.46625 164.892375" xmlns="http://www.w3.org/2000/svg" version="1.1">
 <metadata>
  <rdf:RDF xmlns:dc="http://purl.org/dc/elements/1.1/" xmlns:cc="http://creativecommons.org/ns#" xmlns:rdf="http://www.w3.org/1999/02/22-rdf-syntax-ns#">
   <cc:Work>
    <dc:type rdf:resource="http://purl.org/dc/dcmitype/StillImage"/>
    <dc:format>image/svg+xml</dc:format>
    <dc:creator>
     <cc:Agent>
      <dc:title>Matplotlib v3.5.2, https://matplotlib.org/</dc:title>
     </cc:Agent>
    </dc:creator>
   </cc:Work>
  </rdf:RDF>
 </metadata>
 <defs>
  <style type="text/css">*{stroke-linejoin: round; stroke-linecap: butt}</style>
 </defs>
 <g id="figure_1">
  <g id="patch_1">
   <path d="M 0 164.892375 
L 207.46625 164.892375 
L 207.46625 0 
L 0 0 
L 0 164.892375 
z
" style="fill: none"/>
  </g>
  <g id="axes_1">
   <g id="patch_2">
    <path d="M 37.665 132.207375 
L 193.905 132.207375 
L 193.905 10.239375 
L 37.665 10.239375 
L 37.665 132.207375 
z
" style="fill: none"/>
   </g>
   <g id="matplotlib.axis_1">
    <g id="xtick_1">
     <g id="line2d_1">
      <defs>
       <path id="m4cd371f86f" d="M 0 0 
L 0 2.5 
" style="stroke: #000000; stroke-width: 0.6"/>
      </defs>
      <g>
       <use xlink:href="#m4cd371f86f" x="37.665" y="132.207375" style="stroke: #000000; stroke-width: 0.6"/>
      </g>
     </g>
     <g id="text_1">
      <!-- -1.0 -->
      <g transform="translate(29.860625 144.286125)scale(0.08 -0.08)">
       <defs>
        <path id="DejaVuSans-2d" d="M 313 2009 
L 1997 2009 
L 1997 1497 
L 313 1497 
L 313 2009 
z
" transform="scale(0.015625)"/>
        <path id="DejaVuSans-31" d="M 794 531 
L 1825 531 
L 1825 4091 
L 703 3866 
L 703 4441 
L 1819 4666 
L 2450 4666 
L 2450 531 
L 3481 531 
L 3481 0 
L 794 0 
L 794 531 
z
" transform="scale(0.015625)"/>
        <path id="DejaVuSans-2e" d="M 684 794 
L 1344 794 
L 1344 0 
L 684 0 
L 684 794 
z
" transform="scale(0.015625)"/>
        <path id="DejaVuSans-30" d="M 2034 4250 
Q 1547 4250 1301 3770 
Q 1056 3291 1056 2328 
Q 1056 1369 1301 889 
Q 1547 409 2034 409 
Q 2525 409 2770 889 
Q 3016 1369 3016 2328 
Q 3016 3291 2770 3770 
Q 2525 4250 2034 4250 
z
M 2034 4750 
Q 2819 4750 3233 4129 
Q 3647 3509 3647 2328 
Q 3647 1150 3233 529 
Q 2819 -91 2034 -91 
Q 1250 -91 836 529 
Q 422 1150 422 2328 
Q 422 3509 836 4129 
Q 1250 4750 2034 4750 
z
" transform="scale(0.015625)"/>
       </defs>
       <use xlink:href="#DejaVuSans-2d"/>
       <use xlink:href="#DejaVuSans-31" x="36.083984"/>
       <use xlink:href="#DejaVuSans-2e" x="99.707031"/>
       <use xlink:href="#DejaVuSans-30" x="131.494141"/>
      </g>
     </g>
    </g>
    <g id="xtick_2">
     <g id="line2d_2">
      <g>
       <use xlink:href="#m4cd371f86f" x="76.725" y="132.207375" style="stroke: #000000; stroke-width: 0.6"/>
      </g>
     </g>
     <g id="text_2">
      <!-- -0.5 -->
      <g transform="translate(68.920625 144.286125)scale(0.08 -0.08)">
       <defs>
        <path id="DejaVuSans-35" d="M 691 4666 
L 3169 4666 
L 3169 4134 
L 1269 4134 
L 1269 2991 
Q 1406 3038 1543 3061 
Q 1681 3084 1819 3084 
Q 2600 3084 3056 2656 
Q 3513 2228 3513 1497 
Q 3513 744 3044 326 
Q 2575 -91 1722 -91 
Q 1428 -91 1123 -41 
Q 819 9 494 109 
L 494 744 
Q 775 591 1075 516 
Q 1375 441 1709 441 
Q 2250 441 2565 725 
Q 2881 1009 2881 1497 
Q 2881 1984 2565 2268 
Q 2250 2553 1709 2553 
Q 1456 2553 1204 2497 
Q 953 2441 691 2322 
L 691 4666 
z
" transform="scale(0.015625)"/>
       </defs>
       <use xlink:href="#DejaVuSans-2d"/>
       <use xlink:href="#DejaVuSans-30" x="36.083984"/>
       <use xlink:href="#DejaVuSans-2e" x="99.707031"/>
       <use xlink:href="#DejaVuSans-35" x="131.494141"/>
      </g>
     </g>
    </g>
    <g id="xtick_3">
     <g id="line2d_3">
      <g>
       <use xlink:href="#m4cd371f86f" x="115.785" y="132.207375" style="stroke: #000000; stroke-width: 0.6"/>
      </g>
     </g>
     <g id="text_3">
      <!-- 0.0 -->
      <g transform="translate(109.42375 144.286125)scale(0.08 -0.08)">
       <use xlink:href="#DejaVuSans-30"/>
       <use xlink:href="#DejaVuSans-2e" x="63.623047"/>
       <use xlink:href="#DejaVuSans-30" x="95.410156"/>
      </g>
     </g>
    </g>
    <g id="xtick_4">
     <g id="line2d_4">
      <g>
       <use xlink:href="#m4cd371f86f" x="154.845" y="132.207375" style="stroke: #000000; stroke-width: 0.6"/>
      </g>
     </g>
     <g id="text_4">
      <!-- 0.5 -->
      <g transform="translate(148.48375 144.286125)scale(0.08 -0.08)">
       <use xlink:href="#DejaVuSans-30"/>
       <use xlink:href="#DejaVuSans-2e" x="63.623047"/>
       <use xlink:href="#DejaVuSans-35" x="95.410156"/>
      </g>
     </g>
    </g>
    <g id="xtick_5">
     <g id="line2d_5">
      <g>
       <use xlink:href="#m4cd371f86f" x="193.905" y="132.207375" style="stroke: #000000; stroke-width: 0.6"/>
      </g>
     </g>
     <g id="text_5">
      <!-- 1.0 -->
      <g transform="translate(187.54375 144.286125)scale(0.08 -0.08)">
       <use xlink:href="#DejaVuSans-31"/>
       <use xlink:href="#DejaVuSans-2e" x="63.623047"/>
       <use xlink:href="#DejaVuSans-30" x="95.410156"/>
      </g>
     </g>
    </g>
    <g id="text_6">
     <!-- x -->
     <g transform="translate(113.4175 156.028625)scale(0.08 -0.08)">
      <defs>
       <path id="DejaVuSans-78" d="M 3513 3500 
L 2247 1797 
L 3578 0 
L 2900 0 
L 1881 1375 
L 863 0 
L 184 0 
L 1544 1831 
L 300 3500 
L 978 3500 
L 1906 2253 
L 2834 3500 
L 3513 3500 
z
" transform="scale(0.015625)"/>
      </defs>
      <use xlink:href="#DejaVuSans-78"/>
     </g>
    </g>
   </g>
   <g id="matplotlib.axis_2">
    <g id="ytick_1">
     <g id="line2d_6">
      <defs>
       <path id="m56f3a9ced1" d="M 0 0 
L -2.5 0 
" style="stroke: #000000; stroke-width: 0.6"/>
      </defs>
      <g>
       <use xlink:href="#m56f3a9ced1" x="37.665" y="132.207375" style="stroke: #000000; stroke-width: 0.6"/>
      </g>
     </g>
     <g id="text_7">
      <!-- 1.0 -->
      <g transform="translate(18.9425 135.24675)scale(0.08 -0.08)">
       <use xlink:href="#DejaVuSans-31"/>
       <use xlink:href="#DejaVuSans-2e" x="63.623047"/>
       <use xlink:href="#DejaVuSans-30" x="95.410156"/>
      </g>
     </g>
    </g>
    <g id="ytick_2">
     <g id="line2d_7">
      <g>
       <use xlink:href="#m56f3a9ced1" x="37.665" y="101.715375" style="stroke: #000000; stroke-width: 0.6"/>
      </g>
     </g>
     <g id="text_8">
      <!-- 1.5 -->
      <g transform="translate(18.9425 104.75475)scale(0.08 -0.08)">
       <use xlink:href="#DejaVuSans-31"/>
       <use xlink:href="#DejaVuSans-2e" x="63.623047"/>
       <use xlink:href="#DejaVuSans-35" x="95.410156"/>
      </g>
     </g>
    </g>
    <g id="ytick_3">
     <g id="line2d_8">
      <g>
       <use xlink:href="#m56f3a9ced1" x="37.665" y="71.223375" style="stroke: #000000; stroke-width: 0.6"/>
      </g>
     </g>
     <g id="text_9">
      <!-- 2.0 -->
      <g transform="translate(18.9425 74.26275)scale(0.08 -0.08)">
       <defs>
        <path id="DejaVuSans-32" d="M 1228 531 
L 3431 531 
L 3431 0 
L 469 0 
L 469 531 
Q 828 903 1448 1529 
Q 2069 2156 2228 2338 
Q 2531 2678 2651 2914 
Q 2772 3150 2772 3378 
Q 2772 3750 2511 3984 
Q 2250 4219 1831 4219 
Q 1534 4219 1204 4116 
Q 875 4013 500 3803 
L 500 4441 
Q 881 4594 1212 4672 
Q 1544 4750 1819 4750 
Q 2544 4750 2975 4387 
Q 3406 4025 3406 3419 
Q 3406 3131 3298 2873 
Q 3191 2616 2906 2266 
Q 2828 2175 2409 1742 
Q 1991 1309 1228 531 
z
" transform="scale(0.015625)"/>
       </defs>
       <use xlink:href="#DejaVuSans-32"/>
       <use xlink:href="#DejaVuSans-2e" x="63.623047"/>
       <use xlink:href="#DejaVuSans-30" x="95.410156"/>
      </g>
     </g>
    </g>
    <g id="ytick_4">
     <g id="line2d_9">
      <g>
       <use xlink:href="#m56f3a9ced1" x="37.665" y="40.731375" style="stroke: #000000; stroke-width: 0.6"/>
      </g>
     </g>
     <g id="text_10">
      <!-- 2.5 -->
      <g transform="translate(18.9425 43.77075)scale(0.08 -0.08)">
       <use xlink:href="#DejaVuSans-32"/>
       <use xlink:href="#DejaVuSans-2e" x="63.623047"/>
       <use xlink:href="#DejaVuSans-35" x="95.410156"/>
      </g>
     </g>
    </g>
    <g id="ytick_5">
     <g id="line2d_10">
      <g>
       <use xlink:href="#m56f3a9ced1" x="37.665" y="10.239375" style="stroke: #000000; stroke-width: 0.6"/>
      </g>
     </g>
     <g id="text_11">
      <!-- 3.0 -->
      <g transform="translate(18.9425 13.27875)scale(0.08 -0.08)">
       <defs>
        <path id="DejaVuSans-33" d="M 2597 2516 
Q 3050 2419 3304 2112 
Q 3559 1806 3559 1356 
Q 3559 666 3084 287 
Q 2609 -91 1734 -91 
Q 1441 -91 1130 -33 
Q 819 25 488 141 
L 488 750 
Q 750 597 1062 519 
Q 1375 441 1716 441 
Q 2309 441 2620 675 
Q 2931 909 2931 1356 
Q 2931 1769 2642 2001 
Q 2353 2234 1838 2234 
L 1294 2234 
L 1294 2753 
L 1863 2753 
Q 2328 2753 2575 2939 
Q 2822 3125 2822 3475 
Q 2822 3834 2567 4026 
Q 2313 4219 1838 4219 
Q 1578 4219 1281 4162 
Q 984 4106 628 3988 
L 628 4550 
Q 988 4650 1302 4700 
Q 1616 4750 1894 4750 
Q 2613 4750 3031 4423 
Q 3450 4097 3450 3541 
Q 3450 3153 3228 2886 
Q 3006 2619 2597 2516 
z
" transform="scale(0.015625)"/>
       </defs>
       <use xlink:href="#DejaVuSans-33"/>
       <use xlink:href="#DejaVuSans-2e" x="63.623047"/>
       <use xlink:href="#DejaVuSans-30" x="95.410156"/>
      </g>
     </g>
    </g>
    <g id="text_12">
     <!-- y -->
     <g transform="translate(13.27875 73.590875)rotate(-90)scale(0.08 -0.08)">
      <defs>
       <path id="DejaVuSans-79" d="M 2059 -325 
Q 1816 -950 1584 -1140 
Q 1353 -1331 966 -1331 
L 506 -1331 
L 506 -850 
L 844 -850 
Q 1081 -850 1212 -737 
Q 1344 -625 1503 -206 
L 1606 56 
L 191 3500 
L 800 3500 
L 1894 763 
L 2988 3500 
L 3597 3500 
L 2059 -325 
z
" transform="scale(0.015625)"/>
      </defs>
      <use xlink:href="#DejaVuSans-79"/>
     </g>
    </g>
   </g>
   <g id="line2d_11">
    <path d="M 37.665 16.287469 
L 37.899477 127.424703 
L 38.212114 63.179263 
L 38.446591 44.311061 
L 38.602909 42.126859 
L 38.759227 46.391253 
L 38.993704 61.904684 
L 39.462659 112.258702 
L 39.618977 131.62503 
L 40.478727 60.787387 
L 40.869522 46.189495 
L 41.103999 43.028378 
L 41.182159 42.862759 
L 41.260318 43.123249 
L 41.416636 44.872353 
L 41.651113 50.356826 
L 42.041908 66.087856 
L 42.589022 98.405057 
L 43.057976 131.678821 
L 44.542999 56.306493 
L 45.011953 46.016086 
L 45.32459 43.251329 
L 45.480908 43.075066 
L 45.637226 43.680913 
L 45.871703 46.00668 
L 46.18434 51.606086 
L 46.653294 64.806848 
L 47.278567 89.683688 
L 48.138317 131.843113 
L 48.216476 127.925252 
L 49.232544 82.823621 
L 49.935975 60.405048 
L 50.483089 49.151002 
L 50.873884 44.645326 
L 51.186521 43.182855 
L 51.342839 43.158664 
L 51.499157 43.598511 
L 51.733634 45.111229 
L 52.046271 48.667906 
L 52.515225 57.096582 
L 53.140498 73.444123 
L 53.922089 100.373205 
L 54.703679 132.01087 
L 54.781838 129.224597 
L 55.954225 86.335404 
L 56.735815 64.669419 
L 57.361088 52.449939 
L 57.908202 45.850824 
L 58.298997 43.553301 
L 58.533474 43.144442 
L 58.689792 43.272841 
L 58.92427 44.05978 
L 59.236906 46.197144 
L 59.627701 50.556836 
L 60.174815 59.613307 
L 60.878247 75.753168 
L 61.737996 100.994079 
L 62.675905 131.30336 
L 64.00461 89.080022 
L 64.942519 66.081363 
L 65.64595 53.699735 
L 66.193064 47.285288 
L 66.662019 44.128873 
L 66.974655 43.241867 
L 67.130973 43.163356 
L 67.287291 43.32692 
L 67.521768 44.022625 
L 67.834405 45.779011 
L 68.2252 49.271965 
L 68.772314 56.469479 
L 69.475745 69.343782 
L 70.335495 89.785255 
L 71.507881 123.726731 
L 71.742359 131.067222 
L 71.820518 130.905245 
L 73.227381 90.83207 
L 74.243449 67.992765 
L 75.02504 55.069664 
L 75.650313 48.019291 
L 76.119267 44.756935 
L 76.510063 43.393346 
L 76.74454 43.169234 
L 76.900858 43.266765 
L 77.135335 43.781437 
L 77.447971 45.148487 
L 77.838767 47.930682 
L 78.38588 53.757551 
L 79.011153 63.005691 
L 79.792744 78.038872 
L 80.808812 102.308485 
L 81.903039 131.835917 
L 83.388062 92.598022 
L 84.40413 70.892507 
L 85.263879 56.949986 
L 85.967311 48.999553 
L 86.514425 45.117461 
L 86.90522 43.614299 
L 87.217856 43.181021 
L 87.374175 43.220942 
L 87.608652 43.600445 
L 87.921288 44.69897 
L 88.312084 47.010843 
L 88.781038 51.126146 
L 89.406311 58.783496 
L 90.187901 71.560909 
L 91.12581 90.940608 
L 92.376356 121.934531 
L 92.767151 131.980411 
L 94.330333 92.847521 
L 95.42456 70.67597 
L 96.28431 57.375703 
L 96.987741 49.597928 
L 97.534855 45.621103 
L 98.003809 43.706362 
L 98.316446 43.206587 
L 98.550923 43.240836 
L 98.7854 43.625031 
L 99.098037 44.678479 
L 99.488832 46.854652 
L 100.035945 51.466351 
L 100.661218 58.874116 
L 101.442809 71.09157 
L 102.380718 89.529764 
L 103.631263 119.042613 
L 104.178377 131.254215 
L 105.741558 93.303424 
L 106.835785 71.585704 
L 107.695535 58.359507 
L 108.398967 50.445068 
L 109.02424 45.78446 
L 109.493194 43.815662 
L 109.80583 43.243175 
L 110.040308 43.204486 
L 110.274785 43.500664 
L 110.587421 44.414557 
L 110.978217 46.383357 
L 111.447171 49.935413 
L 112.072444 56.618421 
L 112.775875 66.633688 
L 113.635625 82.092397 
L 114.729852 105.983257 
L 115.82408 131.197621 
L 117.387261 93.522237 
L 118.481488 71.8705 
L 119.341238 58.623011 
L 120.04467 50.651026 
L 120.669942 45.91676 
L 121.138897 43.883685 
L 121.451533 43.266035 
L 121.686011 43.193047 
L 121.920488 43.455084 
L 122.233124 44.32451 
L 122.623919 46.240966 
L 123.092874 49.73767 
L 123.718147 56.364913 
L 124.421578 66.349657 
L 125.281328 81.826963 
L 126.375555 105.838117 
L 127.391623 131.254215 
L 127.469782 131.11792 
L 129.032964 92.947808 
L 130.127191 71.09157 
L 130.986941 57.82839 
L 131.690373 49.966024 
L 132.237486 45.870629 
L 132.706441 43.830589 
L 133.019077 43.240836 
L 133.253554 43.206587 
L 133.488032 43.522996 
L 133.800668 44.489611 
L 134.191463 46.567567 
L 134.660418 50.316446 
L 135.28569 57.375703 
L 135.989122 67.966478 
L 136.848872 84.326579 
L 137.943099 109.602265 
L 138.802849 131.980411 
L 139.271803 119.870094 
L 140.678667 85.730129 
L 141.694735 66.047882 
L 142.476326 54.654061 
L 143.101598 48.222449 
L 143.648712 44.69897 
L 144.039507 43.431433 
L 144.273984 43.179628 
L 144.430303 43.225163 
L 144.66478 43.614299 
L 144.977416 44.731599 
L 145.368212 47.084154 
L 145.837166 51.286812 
L 146.462439 59.151386 
L 147.24403 72.373541 
L 148.181938 92.598022 
L 149.354325 123.035628 
L 149.666961 131.835917 
L 149.901438 125.847315 
L 151.308302 88.659604 
L 152.32437 67.13407 
L 153.10596 54.767051 
L 153.731233 47.930682 
L 154.200188 44.734385 
L 154.590983 43.389338 
L 154.82546 43.169234 
L 154.981778 43.269166 
L 155.216256 43.79028 
L 155.528892 45.177959 
L 155.919687 48.019291 
L 156.466801 54.023548 
L 157.092074 63.658875 
L 157.873664 79.517966 
L 158.811573 103.296297 
L 159.827641 131.067222 
L 161.312664 87.743058 
L 162.250573 66.156042 
L 162.954005 54.148375 
L 163.579277 47.005872 
L 164.048232 44.022625 
L 164.360868 43.214965 
L 164.517186 43.172274 
L 164.673504 43.372252 
L 164.907981 44.128873 
L 165.220618 45.990462 
L 165.611413 49.678588 
L 166.158527 57.324792 
L 166.783799 69.427941 
L 167.56539 89.080022 
L 168.581458 120.614581 
L 168.894095 131.30336 
L 168.972254 130.343461 
L 170.300958 86.579169 
L 171.160708 64.468852 
L 171.86414 51.645622 
L 172.411253 45.548036 
L 172.802049 43.456342 
L 173.036526 43.144442 
L 173.192844 43.336468 
L 173.427321 44.229458 
L 173.739957 46.553029 
L 174.130753 51.268388 
L 174.677866 61.163775 
L 175.303139 76.881006 
L 176.08473 102.247617 
L 176.866321 132.01087 
L 178.116866 83.473911 
L 178.898457 60.670954 
L 179.44557 49.822169 
L 179.914525 44.49477 
L 180.227161 43.158664 
L 180.383479 43.182855 
L 180.539797 43.67702 
L 180.774275 45.308083 
L 181.086911 49.151002 
L 181.555865 58.451886 
L 182.102979 74.422067 
L 182.806411 102.08468 
L 183.431683 131.843113 
L 184.291433 89.683688 
L 185.073024 59.816663 
L 185.541978 48.462397 
L 185.932774 43.680913 
L 186.089092 43.075066 
L 186.167251 43.06422 
L 186.323569 43.638459 
L 186.558047 46.016086 
L 186.870683 52.056534 
L 187.261478 64.192129 
L 187.808592 89.239715 
L 188.512024 131.678821 
L 188.590183 125.939392 
L 189.449932 70.072748 
L 189.918887 50.356826 
L 190.231523 43.797519 
L 190.387841 42.862759 
L 190.466001 43.028378 
L 190.622319 44.682145 
L 190.856796 50.603109 
L 191.169432 65.13734 
L 191.638387 100.872611 
L 191.951023 131.62503 
L 192.654455 55.722471 
L 192.967091 42.126859 
L 193.04525 42.319218 
L 193.201568 48.305315 
L 193.436046 74.533169 
L 193.670523 127.424703 
L 193.826841 62.383362 
L 193.905 16.287469 
L 193.905 16.287469 
" style="fill: none; stroke: #ff1f5b; stroke-linecap: square"/>
   </g>
   <g id="patch_3">
    <path d="M 37.665 132.207375 
L 37.665 10.239375 
" style="fill: none; stroke: #000000; stroke-width: 0.6; stroke-linejoin: miter; stroke-linecap: square"/>
   </g>
   <g id="patch_4">
    <path d="M 37.665 132.207375 
L 193.905 132.207375 
" style="fill: none; stroke: #000000; stroke-width: 0.6; stroke-linejoin: miter; stroke-linecap: square"/>
   </g>
  </g>
 </g>
</svg>
