<?xml version="1.0" encoding="utf-8" standalone="no"?>
<!DOCTYPE svg PUBLIC "-//W3C//DTD SVG 1.1//EN"
  "http://www.w3.org/Graphics/SVG/1.1/DTD/svg11.dtd">
<svg xmlns:xlink="http://www.w3.org/1999/xlink" width="212.55625pt" height="164.892375pt" viewBox="0 0 212.55625 164.892375" xmlns="http://www.w3.org/2000/svg" version="1.1">
 <metadata>
  <rdf:RDF xmlns:dc="http://purl.org/dc/elements/1.1/" xmlns:cc="http://creativecommons.org/ns#" xmlns:rdf="http://www.w3.org/1999/02/22-rdf-syntax-ns#">
   <cc:Work>
    <dc:type rdf:resource="http://purl.org/dc/dcmitype/StillImage"/>
    <dc:format>image/svg+xml</dc:format>
    <dc:creator>
     <cc:Agent>
      <dc:title>Matplotlib v3.5.2, https://matplotlib.org/</dc:title>
     </cc:Agent>
    </dc:creator>
   </cc:Work>
  </rdf:RDF>
 </metadata>
 <defs>
  <style type="text/css">*{stroke-linejoin: round; stroke-linecap: butt}</style>
 </defs>
 <g id="figure_1">
  <g id="patch_1">
   <path d="M 0 164.892375 
L 212.55625 164.892375 
L 212.55625 0 
L 0 0 
L 0 164.892375 
z
" style="fill: none"/>
  </g>
  <g id="axes_1">
   <g id="patch_2">
    <path d="M 42.755 132.207375 
L 198.995 132.207375 
L 198.995 10.239375 
L 42.755 10.239375 
L 42.755 132.207375 
z
" style="fill: none"/>
   </g>
   <g id="matplotlib.axis_1">
    <g id="xtick_1">
     <g id="line2d_1">
      <defs>
       <path id="m4cd371f86f" d="M 0 0 
L 0 2.5 
" style="stroke: #000000; stroke-width: 0.6"/>
      </defs>
      <g>
       <use xlink:href="#m4cd371f86f" x="42.755" y="132.207375" style="stroke: #000000; stroke-width: 0.6"/>
      </g>
     </g>
     <g id="text_1">
      <!-- -1.0 -->
      <g transform="translate(34.950625 144.286125)scale(0.08 -0.08)">
       <defs>
        <path id="DejaVuSans-2d" d="M 313 2009 
L 1997 2009 
L 1997 1497 
L 313 1497 
L 313 2009 
z
" transform="scale(0.015625)"/>
        <path id="DejaVuSans-31" d="M 794 531 
L 1825 531 
L 1825 4091 
L 703 3866 
L 703 4441 
L 1819 4666 
L 2450 4666 
L 2450 531 
L 3481 531 
L 3481 0 
L 794 0 
L 794 531 
z
" transform="scale(0.015625)"/>
        <path id="DejaVuSans-2e" d="M 684 794 
L 1344 794 
L 1344 0 
L 684 0 
L 684 794 
z
" transform="scale(0.015625)"/>
        <path id="DejaVuSans-30" d="M 2034 4250 
Q 1547 4250 1301 3770 
Q 1056 3291 1056 2328 
Q 1056 1369 1301 889 
Q 1547 409 2034 409 
Q 2525 409 2770 889 
Q 3016 1369 3016 2328 
Q 3016 3291 2770 3770 
Q 2525 4250 2034 4250 
z
M 2034 4750 
Q 2819 4750 3233 4129 
Q 3647 3509 3647 2328 
Q 3647 1150 3233 529 
Q 2819 -91 2034 -91 
Q 1250 -91 836 529 
Q 422 1150 422 2328 
Q 422 3509 836 4129 
Q 1250 4750 2034 4750 
z
" transform="scale(0.015625)"/>
       </defs>
       <use xlink:href="#DejaVuSans-2d"/>
       <use xlink:href="#DejaVuSans-31" x="36.083984"/>
       <use xlink:href="#DejaVuSans-2e" x="99.707031"/>
       <use xlink:href="#DejaVuSans-30" x="131.494141"/>
      </g>
     </g>
    </g>
    <g id="xtick_2">
     <g id="line2d_2">
      <g>
       <use xlink:href="#m4cd371f86f" x="81.815" y="132.207375" style="stroke: #000000; stroke-width: 0.6"/>
      </g>
     </g>
     <g id="text_2">
      <!-- -0.5 -->
      <g transform="translate(74.010625 144.286125)scale(0.08 -0.08)">
       <defs>
        <path id="DejaVuSans-35" d="M 691 4666 
L 3169 4666 
L 3169 4134 
L 1269 4134 
L 1269 2991 
Q 1406 3038 1543 3061 
Q 1681 3084 1819 3084 
Q 2600 3084 3056 2656 
Q 3513 2228 3513 1497 
Q 3513 744 3044 326 
Q 2575 -91 1722 -91 
Q 1428 -91 1123 -41 
Q 819 9 494 109 
L 494 744 
Q 775 591 1075 516 
Q 1375 441 1709 441 
Q 2250 441 2565 725 
Q 2881 1009 2881 1497 
Q 2881 1984 2565 2268 
Q 2250 2553 1709 2553 
Q 1456 2553 1204 2497 
Q 953 2441 691 2322 
L 691 4666 
z
" transform="scale(0.015625)"/>
       </defs>
       <use xlink:href="#DejaVuSans-2d"/>
       <use xlink:href="#DejaVuSans-30" x="36.083984"/>
       <use xlink:href="#DejaVuSans-2e" x="99.707031"/>
       <use xlink:href="#DejaVuSans-35" x="131.494141"/>
      </g>
     </g>
    </g>
    <g id="xtick_3">
     <g id="line2d_3">
      <g>
       <use xlink:href="#m4cd371f86f" x="120.875" y="132.207375" style="stroke: #000000; stroke-width: 0.6"/>
      </g>
     </g>
     <g id="text_3">
      <!-- 0.0 -->
      <g transform="translate(114.51375 144.286125)scale(0.08 -0.08)">
       <use xlink:href="#DejaVuSans-30"/>
       <use xlink:href="#DejaVuSans-2e" x="63.623047"/>
       <use xlink:href="#DejaVuSans-30" x="95.410156"/>
      </g>
     </g>
    </g>
    <g id="xtick_4">
     <g id="line2d_4">
      <g>
       <use xlink:href="#m4cd371f86f" x="159.935" y="132.207375" style="stroke: #000000; stroke-width: 0.6"/>
      </g>
     </g>
     <g id="text_4">
      <!-- 0.5 -->
      <g transform="translate(153.57375 144.286125)scale(0.08 -0.08)">
       <use xlink:href="#DejaVuSans-30"/>
       <use xlink:href="#DejaVuSans-2e" x="63.623047"/>
       <use xlink:href="#DejaVuSans-35" x="95.410156"/>
      </g>
     </g>
    </g>
    <g id="xtick_5">
     <g id="line2d_5">
      <g>
       <use xlink:href="#m4cd371f86f" x="198.995" y="132.207375" style="stroke: #000000; stroke-width: 0.6"/>
      </g>
     </g>
     <g id="text_5">
      <!-- 1.0 -->
      <g transform="translate(192.63375 144.286125)scale(0.08 -0.08)">
       <use xlink:href="#DejaVuSans-31"/>
       <use xlink:href="#DejaVuSans-2e" x="63.623047"/>
       <use xlink:href="#DejaVuSans-30" x="95.410156"/>
      </g>
     </g>
    </g>
    <g id="text_6">
     <!-- x -->
     <g transform="translate(118.5075 156.028625)scale(0.08 -0.08)">
      <defs>
       <path id="DejaVuSans-78" d="M 3513 3500 
L 2247 1797 
L 3578 0 
L 2900 0 
L 1881 1375 
L 863 0 
L 184 0 
L 1544 1831 
L 300 3500 
L 978 3500 
L 1906 2253 
L 2834 3500 
L 3513 3500 
z
" transform="scale(0.015625)"/>
      </defs>
      <use xlink:href="#DejaVuSans-78"/>
     </g>
    </g>
   </g>
   <g id="matplotlib.axis_2">
    <g id="ytick_1">
     <g id="line2d_6">
      <defs>
       <path id="m56f3a9ced1" d="M 0 0 
L -2.5 0 
" style="stroke: #000000; stroke-width: 0.6"/>
      </defs>
      <g>
       <use xlink:href="#m56f3a9ced1" x="42.755" y="132.207375" style="stroke: #000000; stroke-width: 0.6"/>
      </g>
     </g>
     <g id="text_7">
      <!-- 1.00 -->
      <g transform="translate(18.9425 135.24675)scale(0.08 -0.08)">
       <use xlink:href="#DejaVuSans-31"/>
       <use xlink:href="#DejaVuSans-2e" x="63.623047"/>
       <use xlink:href="#DejaVuSans-30" x="95.410156"/>
       <use xlink:href="#DejaVuSans-30" x="159.033203"/>
      </g>
     </g>
    </g>
    <g id="ytick_2">
     <g id="line2d_7">
      <g>
       <use xlink:href="#m56f3a9ced1" x="42.755" y="111.879375" style="stroke: #000000; stroke-width: 0.6"/>
      </g>
     </g>
     <g id="text_8">
      <!-- 1.25 -->
      <g transform="translate(18.9425 114.91875)scale(0.08 -0.08)">
       <defs>
        <path id="DejaVuSans-32" d="M 1228 531 
L 3431 531 
L 3431 0 
L 469 0 
L 469 531 
Q 828 903 1448 1529 
Q 2069 2156 2228 2338 
Q 2531 2678 2651 2914 
Q 2772 3150 2772 3378 
Q 2772 3750 2511 3984 
Q 2250 4219 1831 4219 
Q 1534 4219 1204 4116 
Q 875 4013 500 3803 
L 500 4441 
Q 881 4594 1212 4672 
Q 1544 4750 1819 4750 
Q 2544 4750 2975 4387 
Q 3406 4025 3406 3419 
Q 3406 3131 3298 2873 
Q 3191 2616 2906 2266 
Q 2828 2175 2409 1742 
Q 1991 1309 1228 531 
z
" transform="scale(0.015625)"/>
       </defs>
       <use xlink:href="#DejaVuSans-31"/>
       <use xlink:href="#DejaVuSans-2e" x="63.623047"/>
       <use xlink:href="#DejaVuSans-32" x="95.410156"/>
       <use xlink:href="#DejaVuSans-35" x="159.033203"/>
      </g>
     </g>
    </g>
    <g id="ytick_3">
     <g id="line2d_8">
      <g>
       <use xlink:href="#m56f3a9ced1" x="42.755" y="91.551375" style="stroke: #000000; stroke-width: 0.6"/>
      </g>
     </g>
     <g id="text_9">
      <!-- 1.50 -->
      <g transform="translate(18.9425 94.59075)scale(0.08 -0.08)">
       <use xlink:href="#DejaVuSans-31"/>
       <use xlink:href="#DejaVuSans-2e" x="63.623047"/>
       <use xlink:href="#DejaVuSans-35" x="95.410156"/>
       <use xlink:href="#DejaVuSans-30" x="159.033203"/>
      </g>
     </g>
    </g>
    <g id="ytick_4">
     <g id="line2d_9">
      <g>
       <use xlink:href="#m56f3a9ced1" x="42.755" y="71.223375" style="stroke: #000000; stroke-width: 0.6"/>
      </g>
     </g>
     <g id="text_10">
      <!-- 1.75 -->
      <g transform="translate(18.9425 74.26275)scale(0.08 -0.08)">
       <defs>
        <path id="DejaVuSans-37" d="M 525 4666 
L 3525 4666 
L 3525 4397 
L 1831 0 
L 1172 0 
L 2766 4134 
L 525 4134 
L 525 4666 
z
" transform="scale(0.015625)"/>
       </defs>
       <use xlink:href="#DejaVuSans-31"/>
       <use xlink:href="#DejaVuSans-2e" x="63.623047"/>
       <use xlink:href="#DejaVuSans-37" x="95.410156"/>
       <use xlink:href="#DejaVuSans-35" x="159.033203"/>
      </g>
     </g>
    </g>
    <g id="ytick_5">
     <g id="line2d_10">
      <g>
       <use xlink:href="#m56f3a9ced1" x="42.755" y="50.895375" style="stroke: #000000; stroke-width: 0.6"/>
      </g>
     </g>
     <g id="text_11">
      <!-- 2.00 -->
      <g transform="translate(18.9425 53.93475)scale(0.08 -0.08)">
       <use xlink:href="#DejaVuSans-32"/>
       <use xlink:href="#DejaVuSans-2e" x="63.623047"/>
       <use xlink:href="#DejaVuSans-30" x="95.410156"/>
       <use xlink:href="#DejaVuSans-30" x="159.033203"/>
      </g>
     </g>
    </g>
    <g id="ytick_6">
     <g id="line2d_11">
      <g>
       <use xlink:href="#m56f3a9ced1" x="42.755" y="30.567375" style="stroke: #000000; stroke-width: 0.6"/>
      </g>
     </g>
     <g id="text_12">
      <!-- 2.25 -->
      <g transform="translate(18.9425 33.60675)scale(0.08 -0.08)">
       <use xlink:href="#DejaVuSans-32"/>
       <use xlink:href="#DejaVuSans-2e" x="63.623047"/>
       <use xlink:href="#DejaVuSans-32" x="95.410156"/>
       <use xlink:href="#DejaVuSans-35" x="159.033203"/>
      </g>
     </g>
    </g>
    <g id="ytick_7">
     <g id="line2d_12">
      <g>
       <use xlink:href="#m56f3a9ced1" x="42.755" y="10.239375" style="stroke: #000000; stroke-width: 0.6"/>
      </g>
     </g>
     <g id="text_13">
      <!-- 2.50 -->
      <g transform="translate(18.9425 13.27875)scale(0.08 -0.08)">
       <use xlink:href="#DejaVuSans-32"/>
       <use xlink:href="#DejaVuSans-2e" x="63.623047"/>
       <use xlink:href="#DejaVuSans-35" x="95.410156"/>
       <use xlink:href="#DejaVuSans-30" x="159.033203"/>
      </g>
     </g>
    </g>
    <g id="text_14">
     <!-- y -->
     <g transform="translate(13.27875 73.590875)rotate(-90)scale(0.08 -0.08)">
      <defs>
       <path id="DejaVuSans-79" d="M 2059 -325 
Q 1816 -950 1584 -1140 
Q 1353 -1331 966 -1331 
L 506 -1331 
L 506 -850 
L 844 -850 
Q 1081 -850 1212 -737 
Q 1344 -625 1503 -206 
L 1606 56 
L 191 3500 
L 800 3500 
L 1894 763 
L 2988 3500 
L 3597 3500 
L 2059 -325 
z
" transform="scale(0.015625)"/>
      </defs>
      <use xlink:href="#DejaVuSans-79"/>
     </g>
    </g>
   </g>
   <g id="line2d_13">
    <path d="M 42.755 11.098812 
L 43.536591 130.450782 
L 43.692909 121.46382 
L 44.318182 84.038018 
L 44.865295 62.680877 
L 45.33425 51.576515 
L 45.725045 46.707931 
L 45.959522 45.482666 
L 46.11584 45.3115 
L 46.272159 45.624291 
L 46.506636 46.942145 
L 46.819272 50.148447 
L 47.288227 57.669754 
L 47.913499 71.827326 
L 48.773249 96.861887 
L 49.789317 131.315585 
L 49.867476 130.631388 
L 51.118022 96.963434 
L 52.13409 75.456186 
L 52.993839 61.829818 
L 53.697271 53.902325 
L 54.322544 49.283927 
L 54.791498 47.291559 
L 55.104135 46.646949 
L 55.338612 46.51426 
L 55.573089 46.676111 
L 55.885725 47.339637 
L 56.276521 48.866704 
L 56.745475 51.678857 
L 57.370748 56.989146 
L 58.152339 65.912191 
L 59.090248 79.534698 
L 60.262634 100.169697 
L 61.825815 131.99256 
L 61.903974 130.875839 
L 63.467156 102.440989 
L 64.79586 82.145949 
L 65.890088 68.612724 
L 66.827996 59.511052 
L 67.687746 53.286541 
L 68.391178 49.730841 
L 68.938292 47.925739 
L 69.407246 47.044422 
L 69.719882 46.795637 
L 70.032519 46.815266 
L 70.345155 47.100531 
L 70.73595 47.825654 
L 71.204905 49.226465 
L 71.752019 51.573559 
L 72.45545 55.677132 
L 73.237041 61.594288 
L 74.17495 70.44022 
L 75.269177 82.914341 
L 76.597881 100.699891 
L 78.317381 126.975513 
L 78.630018 132.042185 
L 79.020813 126.357551 
L 80.818472 100.708503 
L 82.303494 82.574785 
L 83.55404 69.883704 
L 84.648267 60.927418 
L 85.586176 54.947851 
L 86.367766 51.204702 
L 87.071198 48.817874 
L 87.618312 47.609896 
L 88.087266 47.026837 
L 88.478062 46.859233 
L 88.790698 46.932615 
L 89.181493 47.282159 
L 89.650448 48.07658 
L 90.197561 49.513776 
L 90.822834 51.81665 
L 91.604425 55.658154 
L 92.464175 61.070134 
L 93.480243 68.975919 
L 94.652629 79.964168 
L 96.059492 95.472242 
L 97.700833 116.190792 
L 98.873219 132.108553 
L 100.905355 105.569932 
L 102.546696 86.865953 
L 103.953559 73.276955 
L 105.125945 63.918694 
L 106.142014 57.377183 
L 107.079922 52.701212 
L 107.861513 49.837049 
L 108.564945 48.078032 
L 109.112059 47.251798 
L 109.581013 46.92269 
L 109.971808 46.915938 
L 110.362604 47.151988 
L 110.831558 47.754565 
L 111.378672 48.894914 
L 112.003944 50.768505 
L 112.707376 53.591073 
L 113.567126 58.041927 
L 114.505035 64.105514 
L 115.599262 72.684413 
L 116.849807 84.314988 
L 118.33483 100.357446 
L 120.132489 122.428297 
L 120.91408 131.684793 
L 123.024375 104.932676 
L 124.665715 86.695935 
L 126.072579 73.356161 
L 127.323124 63.553568 
L 128.417351 56.720898 
L 129.35526 52.244185 
L 130.136851 49.526666 
L 130.762124 48.032493 
L 131.309237 47.22827 
L 131.778192 46.915938 
L 132.168987 46.92269 
L 132.559782 47.172626 
L 133.028737 47.793437 
L 133.57585 48.958864 
L 134.201123 50.868594 
L 134.904555 53.744791 
L 135.764305 58.285214 
L 136.702214 64.483507 
L 137.796441 73.276955 
L 139.046986 85.237438 
L 140.532009 101.795179 
L 142.251508 123.612693 
L 142.876781 132.108553 
L 143.423894 124.674081 
L 145.377871 99.22111 
L 146.941053 81.568882 
L 148.269757 68.975919 
L 149.363984 60.528438 
L 150.301893 54.806038 
L 151.161643 50.87155 
L 151.865075 48.625714 
L 152.412189 47.501719 
L 152.881143 46.979663 
L 153.271938 46.859233 
L 153.584575 46.970204 
L 153.97537 47.369171 
L 154.444325 48.230569 
L 154.991438 49.763148 
L 155.616711 52.207712 
L 156.398302 56.292134 
L 157.258052 62.078512 
L 158.27412 70.602175 
L 159.368347 81.709009 
L 160.697051 97.643171 
L 162.260233 119.332985 
L 163.119982 132.042185 
L 165.152119 100.699891 
L 166.637141 81.002173 
L 167.887686 67.290695 
L 168.903754 58.462808 
L 169.763504 52.808253 
L 170.466936 49.515284 
L 171.01405 47.825654 
L 171.483004 47.004482 
L 171.79564 46.785339 
L 172.108277 46.832571 
L 172.420913 47.148837 
L 172.811708 47.925739 
L 173.280663 49.421556 
L 173.827776 51.946951 
L 174.531208 56.427101 
L 175.312799 63.014627 
L 176.172549 72.167269 
L 177.188617 85.433238 
L 178.361003 103.754776 
L 179.767866 129.356635 
L 179.924185 131.99256 
L 181.721843 95.772758 
L 182.972389 74.673371 
L 183.988457 61.150757 
L 184.770048 53.467917 
L 185.39532 49.262553 
L 185.864275 47.339637 
L 186.25507 46.589796 
L 186.489547 46.525479 
L 186.724025 46.757604 
L 187.036661 47.537476 
L 187.427456 49.283927 
L 187.896411 52.534843 
L 188.443524 57.947377 
L 189.146956 67.490094 
L 189.928547 81.466503 
L 190.866456 102.710058 
L 191.960683 131.315585 
L 193.445705 82.553957 
L 194.305455 60.80895 
L 194.930728 50.148447 
L 195.321523 46.394076 
L 195.556001 45.409106 
L 195.712319 45.33487 
L 195.868637 45.758394 
L 196.103114 47.389026 
L 196.41575 51.576515 
L 196.806546 60.39753 
L 197.2755 76.93109 
L 197.822614 105.654519 
L 198.213409 130.450782 
L 198.916841 24.727372 
L 198.995 11.098812 
L 198.995 11.098812 
" style="fill: none; stroke: #ff1f5b; stroke-linecap: square"/>
   </g>
   <g id="patch_3">
    <path d="M 42.755 132.207375 
L 42.755 10.239375 
" style="fill: none; stroke: #000000; stroke-width: 0.6; stroke-linejoin: miter; stroke-linecap: square"/>
   </g>
   <g id="patch_4">
    <path d="M 42.755 132.207375 
L 198.995 132.207375 
" style="fill: none; stroke: #000000; stroke-width: 0.6; stroke-linejoin: miter; stroke-linecap: square"/>
   </g>
  </g>
 </g>
</svg>
