<?xml version="1.0" encoding="utf-8" standalone="no"?>
<!DOCTYPE svg PUBLIC "-//W3C//DTD SVG 1.1//EN"
  "http://www.w3.org/Graphics/SVG/1.1/DTD/svg11.dtd">
<svg xmlns:xlink="http://www.w3.org/1999/xlink" width="210.3525pt" height="164.892375pt" viewBox="0 0 210.3525 164.892375" xmlns="http://www.w3.org/2000/svg" version="1.1">
 <metadata>
  <rdf:RDF xmlns:dc="http://purl.org/dc/elements/1.1/" xmlns:cc="http://creativecommons.org/ns#" xmlns:rdf="http://www.w3.org/1999/02/22-rdf-syntax-ns#">
   <cc:Work>
    <dc:type rdf:resource="http://purl.org/dc/dcmitype/StillImage"/>
    <dc:format>image/svg+xml</dc:format>
    <dc:creator>
     <cc:Agent>
      <dc:title>Matplotlib v3.5.2, https://matplotlib.org/</dc:title>
     </cc:Agent>
    </dc:creator>
   </cc:Work>
  </rdf:RDF>
 </metadata>
 <defs>
  <style type="text/css">*{stroke-linejoin: round; stroke-linecap: butt}</style>
 </defs>
 <g id="figure_1">
  <g id="patch_1">
   <path d="M 0 164.892375 
L 210.3525 164.892375 
L 210.3525 0 
L 0 0 
L 0 164.892375 
z
" style="fill: none"/>
  </g>
  <g id="axes_1">
   <g id="patch_2">
    <path d="M 40.55125 132.207375 
L 196.79125 132.207375 
L 196.79125 10.239375 
L 40.55125 10.239375 
L 40.55125 132.207375 
z
" style="fill: none"/>
   </g>
   <g id="line2d_1">
    <path d="M 66.59125 132.207375 
L 66.59125 10.239375 
" clip-path="url(#p3ae738bd29)" style="fill: none; stroke-dasharray: 3.7,1.6; stroke-dashoffset: 0; stroke: #000000"/>
   </g>
   <g id="line2d_2">
    <path d="M 170.75125 132.207375 
L 170.75125 10.239375 
" clip-path="url(#p3ae738bd29)" style="fill: none; stroke-dasharray: 3.7,1.6; stroke-dashoffset: 0; stroke: #000000"/>
   </g>
   <g id="matplotlib.axis_1">
    <g id="xtick_1">
     <g id="line2d_3">
      <defs>
       <path id="m4cd371f86f" d="M 0 0 
L 0 2.5 
" style="stroke: #000000; stroke-width: 0.6"/>
      </defs>
      <g>
       <use xlink:href="#m4cd371f86f" x="40.55125" y="132.207375" style="stroke: #000000; stroke-width: 0.6"/>
      </g>
     </g>
     <g id="text_1">
      <!-- -1.5 -->
      <g transform="translate(32.746875 144.286125)scale(0.08 -0.08)">
       <defs>
        <path id="DejaVuSans-2d" d="M 313 2009 
L 1997 2009 
L 1997 1497 
L 313 1497 
L 313 2009 
z
" transform="scale(0.015625)"/>
        <path id="DejaVuSans-31" d="M 794 531 
L 1825 531 
L 1825 4091 
L 703 3866 
L 703 4441 
L 1819 4666 
L 2450 4666 
L 2450 531 
L 3481 531 
L 3481 0 
L 794 0 
L 794 531 
z
" transform="scale(0.015625)"/>
        <path id="DejaVuSans-2e" d="M 684 794 
L 1344 794 
L 1344 0 
L 684 0 
L 684 794 
z
" transform="scale(0.015625)"/>
        <path id="DejaVuSans-35" d="M 691 4666 
L 3169 4666 
L 3169 4134 
L 1269 4134 
L 1269 2991 
Q 1406 3038 1543 3061 
Q 1681 3084 1819 3084 
Q 2600 3084 3056 2656 
Q 3513 2228 3513 1497 
Q 3513 744 3044 326 
Q 2575 -91 1722 -91 
Q 1428 -91 1123 -41 
Q 819 9 494 109 
L 494 744 
Q 775 591 1075 516 
Q 1375 441 1709 441 
Q 2250 441 2565 725 
Q 2881 1009 2881 1497 
Q 2881 1984 2565 2268 
Q 2250 2553 1709 2553 
Q 1456 2553 1204 2497 
Q 953 2441 691 2322 
L 691 4666 
z
" transform="scale(0.015625)"/>
       </defs>
       <use xlink:href="#DejaVuSans-2d"/>
       <use xlink:href="#DejaVuSans-31" x="36.083984"/>
       <use xlink:href="#DejaVuSans-2e" x="99.707031"/>
       <use xlink:href="#DejaVuSans-35" x="131.494141"/>
      </g>
     </g>
    </g>
    <g id="xtick_2">
     <g id="line2d_4">
      <g>
       <use xlink:href="#m4cd371f86f" x="66.59125" y="132.207375" style="stroke: #000000; stroke-width: 0.6"/>
      </g>
     </g>
     <g id="text_2">
      <!-- -1.0 -->
      <g transform="translate(58.786875 144.286125)scale(0.08 -0.08)">
       <defs>
        <path id="DejaVuSans-30" d="M 2034 4250 
Q 1547 4250 1301 3770 
Q 1056 3291 1056 2328 
Q 1056 1369 1301 889 
Q 1547 409 2034 409 
Q 2525 409 2770 889 
Q 3016 1369 3016 2328 
Q 3016 3291 2770 3770 
Q 2525 4250 2034 4250 
z
M 2034 4750 
Q 2819 4750 3233 4129 
Q 3647 3509 3647 2328 
Q 3647 1150 3233 529 
Q 2819 -91 2034 -91 
Q 1250 -91 836 529 
Q 422 1150 422 2328 
Q 422 3509 836 4129 
Q 1250 4750 2034 4750 
z
" transform="scale(0.015625)"/>
       </defs>
       <use xlink:href="#DejaVuSans-2d"/>
       <use xlink:href="#DejaVuSans-31" x="36.083984"/>
       <use xlink:href="#DejaVuSans-2e" x="99.707031"/>
       <use xlink:href="#DejaVuSans-30" x="131.494141"/>
      </g>
     </g>
    </g>
    <g id="xtick_3">
     <g id="line2d_5">
      <g>
       <use xlink:href="#m4cd371f86f" x="92.63125" y="132.207375" style="stroke: #000000; stroke-width: 0.6"/>
      </g>
     </g>
     <g id="text_3">
      <!-- -0.5 -->
      <g transform="translate(84.826875 144.286125)scale(0.08 -0.08)">
       <use xlink:href="#DejaVuSans-2d"/>
       <use xlink:href="#DejaVuSans-30" x="36.083984"/>
       <use xlink:href="#DejaVuSans-2e" x="99.707031"/>
       <use xlink:href="#DejaVuSans-35" x="131.494141"/>
      </g>
     </g>
    </g>
    <g id="xtick_4">
     <g id="line2d_6">
      <g>
       <use xlink:href="#m4cd371f86f" x="118.67125" y="132.207375" style="stroke: #000000; stroke-width: 0.6"/>
      </g>
     </g>
     <g id="text_4">
      <!-- 0.0 -->
      <g transform="translate(112.31 144.286125)scale(0.08 -0.08)">
       <use xlink:href="#DejaVuSans-30"/>
       <use xlink:href="#DejaVuSans-2e" x="63.623047"/>
       <use xlink:href="#DejaVuSans-30" x="95.410156"/>
      </g>
     </g>
    </g>
    <g id="xtick_5">
     <g id="line2d_7">
      <g>
       <use xlink:href="#m4cd371f86f" x="144.71125" y="132.207375" style="stroke: #000000; stroke-width: 0.6"/>
      </g>
     </g>
     <g id="text_5">
      <!-- 0.5 -->
      <g transform="translate(138.35 144.286125)scale(0.08 -0.08)">
       <use xlink:href="#DejaVuSans-30"/>
       <use xlink:href="#DejaVuSans-2e" x="63.623047"/>
       <use xlink:href="#DejaVuSans-35" x="95.410156"/>
      </g>
     </g>
    </g>
    <g id="xtick_6">
     <g id="line2d_8">
      <g>
       <use xlink:href="#m4cd371f86f" x="170.75125" y="132.207375" style="stroke: #000000; stroke-width: 0.6"/>
      </g>
     </g>
     <g id="text_6">
      <!-- 1.0 -->
      <g transform="translate(164.39 144.286125)scale(0.08 -0.08)">
       <use xlink:href="#DejaVuSans-31"/>
       <use xlink:href="#DejaVuSans-2e" x="63.623047"/>
       <use xlink:href="#DejaVuSans-30" x="95.410156"/>
      </g>
     </g>
    </g>
    <g id="xtick_7">
     <g id="line2d_9">
      <g>
       <use xlink:href="#m4cd371f86f" x="196.79125" y="132.207375" style="stroke: #000000; stroke-width: 0.6"/>
      </g>
     </g>
     <g id="text_7">
      <!-- 1.5 -->
      <g transform="translate(190.43 144.286125)scale(0.08 -0.08)">
       <use xlink:href="#DejaVuSans-31"/>
       <use xlink:href="#DejaVuSans-2e" x="63.623047"/>
       <use xlink:href="#DejaVuSans-35" x="95.410156"/>
      </g>
     </g>
    </g>
    <g id="text_8">
     <!-- x -->
     <g transform="translate(116.30375 156.028625)scale(0.08 -0.08)">
      <defs>
       <path id="DejaVuSans-78" d="M 3513 3500 
L 2247 1797 
L 3578 0 
L 2900 0 
L 1881 1375 
L 863 0 
L 184 0 
L 1544 1831 
L 300 3500 
L 978 3500 
L 1906 2253 
L 2834 3500 
L 3513 3500 
z
" transform="scale(0.015625)"/>
      </defs>
      <use xlink:href="#DejaVuSans-78"/>
     </g>
    </g>
   </g>
   <g id="matplotlib.axis_2">
    <g id="ytick_1">
     <g id="line2d_10">
      <defs>
       <path id="m56f3a9ced1" d="M 0 0 
L -2.5 0 
" style="stroke: #000000; stroke-width: 0.6"/>
      </defs>
      <g>
       <use xlink:href="#m56f3a9ced1" x="40.55125" y="132.207375" style="stroke: #000000; stroke-width: 0.6"/>
      </g>
     </g>
     <g id="text_9">
      <!-- -1.0 -->
      <g transform="translate(18.9425 135.24675)scale(0.08 -0.08)">
       <use xlink:href="#DejaVuSans-2d"/>
       <use xlink:href="#DejaVuSans-31" x="36.083984"/>
       <use xlink:href="#DejaVuSans-2e" x="99.707031"/>
       <use xlink:href="#DejaVuSans-30" x="131.494141"/>
      </g>
     </g>
    </g>
    <g id="ytick_2">
     <g id="line2d_11">
      <g>
       <use xlink:href="#m56f3a9ced1" x="40.55125" y="107.813775" style="stroke: #000000; stroke-width: 0.6"/>
      </g>
     </g>
     <g id="text_10">
      <!-- -0.5 -->
      <g transform="translate(18.9425 110.85315)scale(0.08 -0.08)">
       <use xlink:href="#DejaVuSans-2d"/>
       <use xlink:href="#DejaVuSans-30" x="36.083984"/>
       <use xlink:href="#DejaVuSans-2e" x="99.707031"/>
       <use xlink:href="#DejaVuSans-35" x="131.494141"/>
      </g>
     </g>
    </g>
    <g id="ytick_3">
     <g id="line2d_12">
      <g>
       <use xlink:href="#m56f3a9ced1" x="40.55125" y="83.420175" style="stroke: #000000; stroke-width: 0.6"/>
      </g>
     </g>
     <g id="text_11">
      <!-- 0.0 -->
      <g transform="translate(21.82875 86.45955)scale(0.08 -0.08)">
       <use xlink:href="#DejaVuSans-30"/>
       <use xlink:href="#DejaVuSans-2e" x="63.623047"/>
       <use xlink:href="#DejaVuSans-30" x="95.410156"/>
      </g>
     </g>
    </g>
    <g id="ytick_4">
     <g id="line2d_13">
      <g>
       <use xlink:href="#m56f3a9ced1" x="40.55125" y="59.026575" style="stroke: #000000; stroke-width: 0.6"/>
      </g>
     </g>
     <g id="text_12">
      <!-- 0.5 -->
      <g transform="translate(21.82875 62.06595)scale(0.08 -0.08)">
       <use xlink:href="#DejaVuSans-30"/>
       <use xlink:href="#DejaVuSans-2e" x="63.623047"/>
       <use xlink:href="#DejaVuSans-35" x="95.410156"/>
      </g>
     </g>
    </g>
    <g id="ytick_5">
     <g id="line2d_14">
      <g>
       <use xlink:href="#m56f3a9ced1" x="40.55125" y="34.632975" style="stroke: #000000; stroke-width: 0.6"/>
      </g>
     </g>
     <g id="text_13">
      <!-- 1.0 -->
      <g transform="translate(21.82875 37.67235)scale(0.08 -0.08)">
       <use xlink:href="#DejaVuSans-31"/>
       <use xlink:href="#DejaVuSans-2e" x="63.623047"/>
       <use xlink:href="#DejaVuSans-30" x="95.410156"/>
      </g>
     </g>
    </g>
    <g id="ytick_6">
     <g id="line2d_15">
      <g>
       <use xlink:href="#m56f3a9ced1" x="40.55125" y="10.239375" style="stroke: #000000; stroke-width: 0.6"/>
      </g>
     </g>
     <g id="text_14">
      <!-- 1.5 -->
      <g transform="translate(21.82875 13.27875)scale(0.08 -0.08)">
       <use xlink:href="#DejaVuSans-31"/>
       <use xlink:href="#DejaVuSans-2e" x="63.623047"/>
       <use xlink:href="#DejaVuSans-35" x="95.410156"/>
      </g>
     </g>
    </g>
    <g id="text_15">
     <!-- y -->
     <g transform="translate(13.27875 73.590875)rotate(-90)scale(0.08 -0.08)">
      <defs>
       <path id="DejaVuSans-79" d="M 2059 -325 
Q 1816 -950 1584 -1140 
Q 1353 -1331 966 -1331 
L 506 -1331 
L 506 -850 
L 844 -850 
Q 1081 -850 1212 -737 
Q 1344 -625 1503 -206 
L 1606 56 
L 191 3500 
L 800 3500 
L 1894 763 
L 2988 3500 
L 3597 3500 
L 2059 -325 
z
" transform="scale(0.015625)"/>
      </defs>
      <use xlink:href="#DejaVuSans-79"/>
     </g>
    </g>
   </g>
   <g id="line2d_16">
    <path d="M 40.55125 82.567997 
L 54.954136 82.150355 
L 64.973535 81.651063 
L 72.488084 81.058649 
L 78.123995 80.400003 
L 82.507482 79.682951 
L 86.264757 78.851959 
L 89.395819 77.938216 
L 92.213775 76.873321 
L 94.405519 75.829569 
L 96.597262 74.535514 
L 98.475899 73.169141 
L 100.354537 71.498708 
L 101.920068 69.816633 
L 103.485599 67.810861 
L 105.05113 65.416572 
L 106.616661 62.565393 
L 108.182192 59.197072 
L 109.747723 55.283852 
L 111.62636 49.945888 
L 115.070529 39.840818 
L 116.009847 37.622891 
L 116.949166 35.931053 
L 117.575378 35.1671 
L 118.201591 34.731964 
L 118.827803 34.643994 
L 119.454016 34.906957 
L 120.080228 35.509648 
L 120.70644 36.427057 
L 121.645759 38.311617 
L 122.898184 41.531355 
L 125.089927 48.060532 
L 127.594777 55.283852 
L 129.160308 59.197072 
L 130.725839 62.565393 
L 132.29137 65.416572 
L 133.856901 67.810861 
L 135.422432 69.816633 
L 136.987963 71.498708 
L 138.866601 73.169141 
L 140.745238 74.535514 
L 142.936981 75.829569 
L 145.128725 76.873321 
L 147.633575 77.832694 
L 150.764637 78.770924 
L 154.208805 79.560593 
L 158.279186 80.26443 
L 163.288885 80.898736 
L 169.55101 81.457774 
L 177.691771 81.946568 
L 188.650488 82.362742 
L 196.79125 82.567997 
L 196.79125 82.567997 
" clip-path="url(#p3ae738bd29)" style="fill: none; stroke: #ff1f5b; stroke-linecap: square"/>
   </g>
   <g id="line2d_17">
    <path d="M 62.980981 -1 
L 63.408004 19.625795 
L 64.034216 42.273006 
L 64.660428 58.151971 
L 65.286641 68.882192 
L 65.912853 75.773844 
L 66.539066 79.87485 
L 67.165278 82.012274 
L 67.478384 82.551722 
L 67.79149 82.828552 
L 68.104597 82.899402 
L 68.417703 82.813086 
L 69.043915 82.329647 
L 71.548765 79.827847 
L 72.174977 79.541493 
L 72.80119 79.440426 
L 73.427402 79.506944 
L 74.366721 79.853749 
L 75.932252 80.77602 
L 77.497783 81.639421 
L 78.437102 81.950194 
L 79.37642 82.040669 
L 80.315739 81.893511 
L 81.255058 81.518307 
L 82.507482 80.719699 
L 84.073014 79.408724 
L 86.890969 76.979444 
L 88.143394 76.160492 
L 89.395819 75.607022 
L 90.648244 75.337181 
L 91.900669 75.325143 
L 93.4662 75.570043 
L 96.284156 76.114751 
L 97.536581 76.096409 
L 98.475899 75.869603 
L 99.415218 75.410272 
L 100.354537 74.681944 
L 101.293855 73.657835 
L 102.233174 72.322164 
L 103.485599 70.051602 
L 104.738024 67.246117 
L 106.303555 63.085338 
L 108.182192 57.402594 
L 112.565679 43.877834 
L 114.13121 39.960516 
L 115.383635 37.495314 
L 116.322953 36.112623 
L 117.262272 35.170322 
L 117.888484 34.799387 
L 118.514697 34.639641 
L 119.140909 34.692941 
L 119.767122 34.958668 
L 120.393334 35.433733 
L 121.332653 36.526135 
L 122.271971 38.048187 
L 123.21129 39.960516 
L 124.463715 43.031272 
L 126.029246 47.508741 
L 129.473414 58.385109 
L 131.665158 64.827106 
L 133.230689 68.712691 
L 134.483114 71.256188 
L 135.735539 73.247673 
L 136.674857 74.374455 
L 137.614176 75.198921 
L 138.553494 75.744312 
L 139.492813 76.044043 
L 140.432132 76.140098 
L 141.684557 76.035892 
L 146.38115 75.311929 
L 147.633575 75.513249 
L 148.885999 75.995757 
L 150.138424 76.752494 
L 151.703955 78.001703 
L 155.148124 80.94632 
L 156.400549 81.667165 
L 157.339867 81.968877 
L 158.279186 82.036655 
L 159.218505 81.869368 
L 160.157823 81.494227 
L 161.723354 80.579547 
L 163.288885 79.711225 
L 164.228204 79.454386 
L 164.854416 79.468549 
L 165.480629 79.661051 
L 166.106841 80.041087 
L 167.04616 80.924336 
L 168.611691 82.611364 
L 169.237903 82.899402 
L 169.55101 82.828552 
L 169.864116 82.551722 
L 170.177222 82.012274 
L 170.490328 81.144922 
L 170.803434 79.87485 
L 171.429647 75.773844 
L 172.055859 68.882192 
L 172.682072 58.151971 
L 173.308284 42.273006 
L 173.934496 19.625795 
L 174.361519 -1 
L 174.361519 -1 
" clip-path="url(#p3ae738bd29)" style="fill: none; stroke: #00cd6c; stroke-linecap: square"/>
   </g>
   <g id="patch_3">
    <path d="M 40.55125 132.207375 
L 40.55125 10.239375 
" style="fill: none; stroke: #000000; stroke-width: 0.6; stroke-linejoin: miter; stroke-linecap: square"/>
   </g>
   <g id="patch_4">
    <path d="M 40.55125 132.207375 
L 196.79125 132.207375 
" style="fill: none; stroke: #000000; stroke-width: 0.6; stroke-linejoin: miter; stroke-linecap: square"/>
   </g>
   <g id="text_16">
    <!-- degree 12 -->
    <g transform="translate(94.2175 16.436175)scale(0.096 -0.096)">
     <defs>
      <path id="DejaVuSans-64" d="M 2906 2969 
L 2906 4863 
L 3481 4863 
L 3481 0 
L 2906 0 
L 2906 525 
Q 2725 213 2448 61 
Q 2172 -91 1784 -91 
Q 1150 -91 751 415 
Q 353 922 353 1747 
Q 353 2572 751 3078 
Q 1150 3584 1784 3584 
Q 2172 3584 2448 3432 
Q 2725 3281 2906 2969 
z
M 947 1747 
Q 947 1113 1208 752 
Q 1469 391 1925 391 
Q 2381 391 2643 752 
Q 2906 1113 2906 1747 
Q 2906 2381 2643 2742 
Q 2381 3103 1925 3103 
Q 1469 3103 1208 2742 
Q 947 2381 947 1747 
z
" transform="scale(0.015625)"/>
      <path id="DejaVuSans-65" d="M 3597 1894 
L 3597 1613 
L 953 1613 
Q 991 1019 1311 708 
Q 1631 397 2203 397 
Q 2534 397 2845 478 
Q 3156 559 3463 722 
L 3463 178 
Q 3153 47 2828 -22 
Q 2503 -91 2169 -91 
Q 1331 -91 842 396 
Q 353 884 353 1716 
Q 353 2575 817 3079 
Q 1281 3584 2069 3584 
Q 2775 3584 3186 3129 
Q 3597 2675 3597 1894 
z
M 3022 2063 
Q 3016 2534 2758 2815 
Q 2500 3097 2075 3097 
Q 1594 3097 1305 2825 
Q 1016 2553 972 2059 
L 3022 2063 
z
" transform="scale(0.015625)"/>
      <path id="DejaVuSans-67" d="M 2906 1791 
Q 2906 2416 2648 2759 
Q 2391 3103 1925 3103 
Q 1463 3103 1205 2759 
Q 947 2416 947 1791 
Q 947 1169 1205 825 
Q 1463 481 1925 481 
Q 2391 481 2648 825 
Q 2906 1169 2906 1791 
z
M 3481 434 
Q 3481 -459 3084 -895 
Q 2688 -1331 1869 -1331 
Q 1566 -1331 1297 -1286 
Q 1028 -1241 775 -1147 
L 775 -588 
Q 1028 -725 1275 -790 
Q 1522 -856 1778 -856 
Q 2344 -856 2625 -561 
Q 2906 -266 2906 331 
L 2906 616 
Q 2728 306 2450 153 
Q 2172 0 1784 0 
Q 1141 0 747 490 
Q 353 981 353 1791 
Q 353 2603 747 3093 
Q 1141 3584 1784 3584 
Q 2172 3584 2450 3431 
Q 2728 3278 2906 2969 
L 2906 3500 
L 3481 3500 
L 3481 434 
z
" transform="scale(0.015625)"/>
      <path id="DejaVuSans-72" d="M 2631 2963 
Q 2534 3019 2420 3045 
Q 2306 3072 2169 3072 
Q 1681 3072 1420 2755 
Q 1159 2438 1159 1844 
L 1159 0 
L 581 0 
L 581 3500 
L 1159 3500 
L 1159 2956 
Q 1341 3275 1631 3429 
Q 1922 3584 2338 3584 
Q 2397 3584 2469 3576 
Q 2541 3569 2628 3553 
L 2631 2963 
z
" transform="scale(0.015625)"/>
      <path id="DejaVuSans-20" transform="scale(0.015625)"/>
      <path id="DejaVuSans-32" d="M 1228 531 
L 3431 531 
L 3431 0 
L 469 0 
L 469 531 
Q 828 903 1448 1529 
Q 2069 2156 2228 2338 
Q 2531 2678 2651 2914 
Q 2772 3150 2772 3378 
Q 2772 3750 2511 3984 
Q 2250 4219 1831 4219 
Q 1534 4219 1204 4116 
Q 875 4013 500 3803 
L 500 4441 
Q 881 4594 1212 4672 
Q 1544 4750 1819 4750 
Q 2544 4750 2975 4387 
Q 3406 4025 3406 3419 
Q 3406 3131 3298 2873 
Q 3191 2616 2906 2266 
Q 2828 2175 2409 1742 
Q 1991 1309 1228 531 
z
" transform="scale(0.015625)"/>
     </defs>
     <use xlink:href="#DejaVuSans-64"/>
     <use xlink:href="#DejaVuSans-65" x="63.476562"/>
     <use xlink:href="#DejaVuSans-67" x="125"/>
     <use xlink:href="#DejaVuSans-72" x="188.476562"/>
     <use xlink:href="#DejaVuSans-65" x="227.339844"/>
     <use xlink:href="#DejaVuSans-65" x="288.863281"/>
     <use xlink:href="#DejaVuSans-20" x="350.386719"/>
     <use xlink:href="#DejaVuSans-31" x="382.173828"/>
     <use xlink:href="#DejaVuSans-32" x="445.796875"/>
    </g>
   </g>
   <g id="PathCollection_1">
    <defs>
     <path id="mf503fda4b3" d="M 0 1 
C 0.265203 1 0.51958 0.894634 0.707107 0.707107 
C 0.894634 0.51958 1 0.265203 1 0 
C 1 -0.265203 0.894634 -0.51958 0.707107 -0.707107 
C 0.51958 -0.894634 0.265203 -1 0 -1 
C -0.265203 -1 -0.51958 -0.894634 -0.707107 -0.707107 
C -0.894634 -0.51958 -1 -0.265203 -1 0 
C -1 0.265203 -0.894634 0.51958 -0.707107 0.707107 
C -0.51958 0.894634 -0.265203 1 0 1 
z
" style="stroke: #00cd6c"/>
    </defs>
    <g clip-path="url(#p3ae738bd29)">
     <use xlink:href="#mf503fda4b3" x="66.970972" y="81.517159" style="fill: #00cd6c; stroke: #00cd6c"/>
     <use xlink:href="#mf503fda4b3" x="69.975604" y="81.285664" style="fill: #00cd6c; stroke: #00cd6c"/>
     <use xlink:href="#mf503fda4b3" x="75.81025" y="80.699582" style="fill: #00cd6c; stroke: #00cd6c"/>
     <use xlink:href="#mf503fda4b3" x="84.135822" y="79.352301" style="fill: #00cd6c; stroke: #00cd6c"/>
     <use xlink:href="#mf503fda4b3" x="94.468467" y="75.796211" style="fill: #00cd6c; stroke: #00cd6c"/>
     <use xlink:href="#mf503fda4b3" x="106.20769" y="63.357996" style="fill: #00cd6c; stroke: #00cd6c"/>
     <use xlink:href="#mf503fda4b3" x="118.67125" y="34.632975" style="fill: #00cd6c; stroke: #00cd6c"/>
     <use xlink:href="#mf503fda4b3" x="131.13481" y="63.357996" style="fill: #00cd6c; stroke: #00cd6c"/>
     <use xlink:href="#mf503fda4b3" x="142.874033" y="75.796211" style="fill: #00cd6c; stroke: #00cd6c"/>
     <use xlink:href="#mf503fda4b3" x="153.206678" y="79.352301" style="fill: #00cd6c; stroke: #00cd6c"/>
     <use xlink:href="#mf503fda4b3" x="161.53225" y="80.699582" style="fill: #00cd6c; stroke: #00cd6c"/>
     <use xlink:href="#mf503fda4b3" x="167.366896" y="81.285664" style="fill: #00cd6c; stroke: #00cd6c"/>
     <use xlink:href="#mf503fda4b3" x="170.371528" y="81.517159" style="fill: #00cd6c; stroke: #00cd6c"/>
    </g>
   </g>
  </g>
 </g>
 <defs>
  <clipPath id="p3ae738bd29">
   <rect x="40.55125" y="10.239375" width="156.24" height="121.968"/>
  </clipPath>
 </defs>
</svg>
