<?xml version="1.0" encoding="utf-8" standalone="no"?>
<!DOCTYPE svg PUBLIC "-//W3C//DTD SVG 1.1//EN"
  "http://www.w3.org/Graphics/SVG/1.1/DTD/svg11.dtd">
<svg xmlns:xlink="http://www.w3.org/1999/xlink" width="313.795pt" height="150.765pt" viewBox="0 0 313.795 150.765" xmlns="http://www.w3.org/2000/svg" version="1.1">
 <metadata>
  <rdf:RDF xmlns:dc="http://purl.org/dc/elements/1.1/" xmlns:cc="http://creativecommons.org/ns#" xmlns:rdf="http://www.w3.org/1999/02/22-rdf-syntax-ns#">
   <cc:Work>
    <dc:type rdf:resource="http://purl.org/dc/dcmitype/StillImage"/>
    <dc:format>image/svg+xml</dc:format>
    <dc:creator>
     <cc:Agent>
      <dc:title>Matplotlib v3.5.2, https://matplotlib.org/</dc:title>
     </cc:Agent>
    </dc:creator>
   </cc:Work>
  </rdf:RDF>
 </metadata>
 <defs>
  <style type="text/css">*{stroke-linejoin: round; stroke-linecap: butt}</style>
 </defs>
 <g id="figure_1">
  <g id="patch_1">
   <path d="M 0 150.765 
L 313.795 150.765 
L 313.795 0 
L 0 0 
L 0 150.765 
z
" style="fill: none"/>
  </g>
  <g id="axes_1">
   <g id="patch_2">
    <path d="M 42.755 118.08 
L 265.955 118.08 
L 265.955 7.2 
L 42.755 7.2 
L 42.755 118.08 
z
" style="fill: none"/>
   </g>
   <g id="matplotlib.axis_1">
    <g id="xtick_1">
     <g id="line2d_1">
      <defs>
       <path id="m4cd371f86f" d="M 0 0 
L 0 2.5 
" style="stroke: #000000; stroke-width: 0.6"/>
      </defs>
      <g>
       <use xlink:href="#m4cd371f86f" x="42.755" y="118.08" style="stroke: #000000; stroke-width: 0.6"/>
      </g>
     </g>
     <g id="text_1">
      <!-- -2 -->
      <g transform="translate(38.766875 130.15875)scale(0.08 -0.08)">
       <defs>
        <path id="DejaVuSans-2d" d="M 313 2009 
L 1997 2009 
L 1997 1497 
L 313 1497 
L 313 2009 
z
" transform="scale(0.015625)"/>
        <path id="DejaVuSans-32" d="M 1228 531 
L 3431 531 
L 3431 0 
L 469 0 
L 469 531 
Q 828 903 1448 1529 
Q 2069 2156 2228 2338 
Q 2531 2678 2651 2914 
Q 2772 3150 2772 3378 
Q 2772 3750 2511 3984 
Q 2250 4219 1831 4219 
Q 1534 4219 1204 4116 
Q 875 4013 500 3803 
L 500 4441 
Q 881 4594 1212 4672 
Q 1544 4750 1819 4750 
Q 2544 4750 2975 4387 
Q 3406 4025 3406 3419 
Q 3406 3131 3298 2873 
Q 3191 2616 2906 2266 
Q 2828 2175 2409 1742 
Q 1991 1309 1228 531 
z
" transform="scale(0.015625)"/>
       </defs>
       <use xlink:href="#DejaVuSans-2d"/>
       <use xlink:href="#DejaVuSans-32" x="36.083984"/>
      </g>
     </g>
    </g>
    <g id="xtick_2">
     <g id="line2d_2">
      <g>
       <use xlink:href="#m4cd371f86f" x="79.955" y="118.08" style="stroke: #000000; stroke-width: 0.6"/>
      </g>
     </g>
     <g id="text_2">
      <!-- 0 -->
      <g transform="translate(77.41 130.15875)scale(0.08 -0.08)">
       <defs>
        <path id="DejaVuSans-30" d="M 2034 4250 
Q 1547 4250 1301 3770 
Q 1056 3291 1056 2328 
Q 1056 1369 1301 889 
Q 1547 409 2034 409 
Q 2525 409 2770 889 
Q 3016 1369 3016 2328 
Q 3016 3291 2770 3770 
Q 2525 4250 2034 4250 
z
M 2034 4750 
Q 2819 4750 3233 4129 
Q 3647 3509 3647 2328 
Q 3647 1150 3233 529 
Q 2819 -91 2034 -91 
Q 1250 -91 836 529 
Q 422 1150 422 2328 
Q 422 3509 836 4129 
Q 1250 4750 2034 4750 
z
" transform="scale(0.015625)"/>
       </defs>
       <use xlink:href="#DejaVuSans-30"/>
      </g>
     </g>
    </g>
    <g id="xtick_3">
     <g id="line2d_3">
      <g>
       <use xlink:href="#m4cd371f86f" x="117.155" y="118.08" style="stroke: #000000; stroke-width: 0.6"/>
      </g>
     </g>
     <g id="text_3">
      <!-- 2 -->
      <g transform="translate(114.61 130.15875)scale(0.08 -0.08)">
       <use xlink:href="#DejaVuSans-32"/>
      </g>
     </g>
    </g>
    <g id="xtick_4">
     <g id="line2d_4">
      <g>
       <use xlink:href="#m4cd371f86f" x="154.355" y="118.08" style="stroke: #000000; stroke-width: 0.6"/>
      </g>
     </g>
     <g id="text_4">
      <!-- 4 -->
      <g transform="translate(151.81 130.15875)scale(0.08 -0.08)">
       <defs>
        <path id="DejaVuSans-34" d="M 2419 4116 
L 825 1625 
L 2419 1625 
L 2419 4116 
z
M 2253 4666 
L 3047 4666 
L 3047 1625 
L 3713 1625 
L 3713 1100 
L 3047 1100 
L 3047 0 
L 2419 0 
L 2419 1100 
L 313 1100 
L 313 1709 
L 2253 4666 
z
" transform="scale(0.015625)"/>
       </defs>
       <use xlink:href="#DejaVuSans-34"/>
      </g>
     </g>
    </g>
    <g id="xtick_5">
     <g id="line2d_5">
      <g>
       <use xlink:href="#m4cd371f86f" x="191.555" y="118.08" style="stroke: #000000; stroke-width: 0.6"/>
      </g>
     </g>
     <g id="text_5">
      <!-- 6 -->
      <g transform="translate(189.01 130.15875)scale(0.08 -0.08)">
       <defs>
        <path id="DejaVuSans-36" d="M 2113 2584 
Q 1688 2584 1439 2293 
Q 1191 2003 1191 1497 
Q 1191 994 1439 701 
Q 1688 409 2113 409 
Q 2538 409 2786 701 
Q 3034 994 3034 1497 
Q 3034 2003 2786 2293 
Q 2538 2584 2113 2584 
z
M 3366 4563 
L 3366 3988 
Q 3128 4100 2886 4159 
Q 2644 4219 2406 4219 
Q 1781 4219 1451 3797 
Q 1122 3375 1075 2522 
Q 1259 2794 1537 2939 
Q 1816 3084 2150 3084 
Q 2853 3084 3261 2657 
Q 3669 2231 3669 1497 
Q 3669 778 3244 343 
Q 2819 -91 2113 -91 
Q 1303 -91 875 529 
Q 447 1150 447 2328 
Q 447 3434 972 4092 
Q 1497 4750 2381 4750 
Q 2619 4750 2861 4703 
Q 3103 4656 3366 4563 
z
" transform="scale(0.015625)"/>
       </defs>
       <use xlink:href="#DejaVuSans-36"/>
      </g>
     </g>
    </g>
    <g id="xtick_6">
     <g id="line2d_6">
      <g>
       <use xlink:href="#m4cd371f86f" x="228.755" y="118.08" style="stroke: #000000; stroke-width: 0.6"/>
      </g>
     </g>
     <g id="text_6">
      <!-- 8 -->
      <g transform="translate(226.21 130.15875)scale(0.08 -0.08)">
       <defs>
        <path id="DejaVuSans-38" d="M 2034 2216 
Q 1584 2216 1326 1975 
Q 1069 1734 1069 1313 
Q 1069 891 1326 650 
Q 1584 409 2034 409 
Q 2484 409 2743 651 
Q 3003 894 3003 1313 
Q 3003 1734 2745 1975 
Q 2488 2216 2034 2216 
z
M 1403 2484 
Q 997 2584 770 2862 
Q 544 3141 544 3541 
Q 544 4100 942 4425 
Q 1341 4750 2034 4750 
Q 2731 4750 3128 4425 
Q 3525 4100 3525 3541 
Q 3525 3141 3298 2862 
Q 3072 2584 2669 2484 
Q 3125 2378 3379 2068 
Q 3634 1759 3634 1313 
Q 3634 634 3220 271 
Q 2806 -91 2034 -91 
Q 1263 -91 848 271 
Q 434 634 434 1313 
Q 434 1759 690 2068 
Q 947 2378 1403 2484 
z
M 1172 3481 
Q 1172 3119 1398 2916 
Q 1625 2713 2034 2713 
Q 2441 2713 2670 2916 
Q 2900 3119 2900 3481 
Q 2900 3844 2670 4047 
Q 2441 4250 2034 4250 
Q 1625 4250 1398 4047 
Q 1172 3844 1172 3481 
z
" transform="scale(0.015625)"/>
       </defs>
       <use xlink:href="#DejaVuSans-38"/>
      </g>
     </g>
    </g>
    <g id="xtick_7">
     <g id="line2d_7">
      <g>
       <use xlink:href="#m4cd371f86f" x="265.955" y="118.08" style="stroke: #000000; stroke-width: 0.6"/>
      </g>
     </g>
     <g id="text_7">
      <!-- 10 -->
      <g transform="translate(260.865 130.15875)scale(0.08 -0.08)">
       <defs>
        <path id="DejaVuSans-31" d="M 794 531 
L 1825 531 
L 1825 4091 
L 703 3866 
L 703 4441 
L 1819 4666 
L 2450 4666 
L 2450 531 
L 3481 531 
L 3481 0 
L 794 0 
L 794 531 
z
" transform="scale(0.015625)"/>
       </defs>
       <use xlink:href="#DejaVuSans-31"/>
       <use xlink:href="#DejaVuSans-30" x="63.623047"/>
      </g>
     </g>
    </g>
    <g id="text_8">
     <!-- x -->
     <g transform="translate(151.9875 141.90125)scale(0.08 -0.08)">
      <defs>
       <path id="DejaVuSans-78" d="M 3513 3500 
L 2247 1797 
L 3578 0 
L 2900 0 
L 1881 1375 
L 863 0 
L 184 0 
L 1544 1831 
L 300 3500 
L 978 3500 
L 1906 2253 
L 2834 3500 
L 3513 3500 
z
" transform="scale(0.015625)"/>
      </defs>
      <use xlink:href="#DejaVuSans-78"/>
     </g>
    </g>
   </g>
   <g id="matplotlib.axis_2">
    <g id="ytick_1">
     <g id="line2d_8">
      <defs>
       <path id="m56f3a9ced1" d="M 0 0 
L -2.5 0 
" style="stroke: #000000; stroke-width: 0.6"/>
      </defs>
      <g>
       <use xlink:href="#m56f3a9ced1" x="42.755" y="102.24" style="stroke: #000000; stroke-width: 0.6"/>
      </g>
     </g>
     <g id="text_9">
      <!-- 0.00 -->
      <g transform="translate(18.9425 105.279375)scale(0.08 -0.08)">
       <defs>
        <path id="DejaVuSans-2e" d="M 684 794 
L 1344 794 
L 1344 0 
L 684 0 
L 684 794 
z
" transform="scale(0.015625)"/>
       </defs>
       <use xlink:href="#DejaVuSans-30"/>
       <use xlink:href="#DejaVuSans-2e" x="63.623047"/>
       <use xlink:href="#DejaVuSans-30" x="95.410156"/>
       <use xlink:href="#DejaVuSans-30" x="159.033203"/>
      </g>
     </g>
    </g>
    <g id="ytick_2">
     <g id="line2d_9">
      <g>
       <use xlink:href="#m56f3a9ced1" x="42.755" y="82.44" style="stroke: #000000; stroke-width: 0.6"/>
      </g>
     </g>
     <g id="text_10">
      <!-- 0.25 -->
      <g transform="translate(18.9425 85.479375)scale(0.08 -0.08)">
       <defs>
        <path id="DejaVuSans-35" d="M 691 4666 
L 3169 4666 
L 3169 4134 
L 1269 4134 
L 1269 2991 
Q 1406 3038 1543 3061 
Q 1681 3084 1819 3084 
Q 2600 3084 3056 2656 
Q 3513 2228 3513 1497 
Q 3513 744 3044 326 
Q 2575 -91 1722 -91 
Q 1428 -91 1123 -41 
Q 819 9 494 109 
L 494 744 
Q 775 591 1075 516 
Q 1375 441 1709 441 
Q 2250 441 2565 725 
Q 2881 1009 2881 1497 
Q 2881 1984 2565 2268 
Q 2250 2553 1709 2553 
Q 1456 2553 1204 2497 
Q 953 2441 691 2322 
L 691 4666 
z
" transform="scale(0.015625)"/>
       </defs>
       <use xlink:href="#DejaVuSans-30"/>
       <use xlink:href="#DejaVuSans-2e" x="63.623047"/>
       <use xlink:href="#DejaVuSans-32" x="95.410156"/>
       <use xlink:href="#DejaVuSans-35" x="159.033203"/>
      </g>
     </g>
    </g>
    <g id="ytick_3">
     <g id="line2d_10">
      <g>
       <use xlink:href="#m56f3a9ced1" x="42.755" y="62.64" style="stroke: #000000; stroke-width: 0.6"/>
      </g>
     </g>
     <g id="text_11">
      <!-- 0.50 -->
      <g transform="translate(18.9425 65.679375)scale(0.08 -0.08)">
       <use xlink:href="#DejaVuSans-30"/>
       <use xlink:href="#DejaVuSans-2e" x="63.623047"/>
       <use xlink:href="#DejaVuSans-35" x="95.410156"/>
       <use xlink:href="#DejaVuSans-30" x="159.033203"/>
      </g>
     </g>
    </g>
    <g id="ytick_4">
     <g id="line2d_11">
      <g>
       <use xlink:href="#m56f3a9ced1" x="42.755" y="42.84" style="stroke: #000000; stroke-width: 0.6"/>
      </g>
     </g>
     <g id="text_12">
      <!-- 0.75 -->
      <g transform="translate(18.9425 45.879375)scale(0.08 -0.08)">
       <defs>
        <path id="DejaVuSans-37" d="M 525 4666 
L 3525 4666 
L 3525 4397 
L 1831 0 
L 1172 0 
L 2766 4134 
L 525 4134 
L 525 4666 
z
" transform="scale(0.015625)"/>
       </defs>
       <use xlink:href="#DejaVuSans-30"/>
       <use xlink:href="#DejaVuSans-2e" x="63.623047"/>
       <use xlink:href="#DejaVuSans-37" x="95.410156"/>
       <use xlink:href="#DejaVuSans-35" x="159.033203"/>
      </g>
     </g>
    </g>
    <g id="ytick_5">
     <g id="line2d_12">
      <g>
       <use xlink:href="#m56f3a9ced1" x="42.755" y="23.04" style="stroke: #000000; stroke-width: 0.6"/>
      </g>
     </g>
     <g id="text_13">
      <!-- 1.00 -->
      <g transform="translate(18.9425 26.079375)scale(0.08 -0.08)">
       <use xlink:href="#DejaVuSans-31"/>
       <use xlink:href="#DejaVuSans-2e" x="63.623047"/>
       <use xlink:href="#DejaVuSans-30" x="95.410156"/>
       <use xlink:href="#DejaVuSans-30" x="159.033203"/>
      </g>
     </g>
    </g>
    <g id="text_14">
     <!-- u -->
     <g transform="translate(13.27875 65.175)rotate(-90)scale(0.08 -0.08)">
      <defs>
       <path id="DejaVuSans-75" d="M 544 1381 
L 544 3500 
L 1119 3500 
L 1119 1403 
Q 1119 906 1312 657 
Q 1506 409 1894 409 
Q 2359 409 2629 706 
Q 2900 1003 2900 1516 
L 2900 3500 
L 3475 3500 
L 3475 0 
L 2900 0 
L 2900 538 
Q 2691 219 2414 64 
Q 2138 -91 1772 -91 
Q 1169 -91 856 284 
Q 544 659 544 1381 
z
M 1991 3584 
L 1991 3584 
z
" transform="scale(0.015625)"/>
      </defs>
      <use xlink:href="#DejaVuSans-75"/>
     </g>
    </g>
   </g>
   <g id="line2d_13">
    <path d="M 42.755 102.230226 
L 51.700892 102.101041 
L 55.726543 101.845452 
L 58.410311 101.489004 
L 60.646784 100.996137 
L 62.435962 100.415942 
L 64.22514 99.614163 
L 66.014319 98.529267 
L 67.356202 97.488514 
L 68.698086 96.218865 
L 70.03997 94.688966 
L 71.381854 92.868402 
L 72.723737 90.729344 
L 74.065621 88.248456 
L 75.8548 84.381129 
L 77.643978 79.862822 
L 79.433156 74.715489 
L 81.669629 67.501552 
L 84.800691 56.400454 
L 89.273637 40.497204 
L 91.062816 34.902052 
L 92.404699 31.242875 
L 93.746583 28.160026 
L 95.088467 25.743767 
L 95.983056 24.539951 
L 96.877645 23.681482 
L 97.772234 23.180145 
L 98.666824 23.042863 
L 99.561413 23.271535 
L 100.456002 23.862997 
L 101.350591 24.809092 
L 102.24518 26.096858 
L 103.13977 27.708824 
L 104.481653 30.686417 
L 105.823537 34.256429 
L 107.612715 39.760864 
L 109.849188 47.46319 
L 116.558607 71.206215 
L 118.79508 78.003772 
L 120.584259 82.762752 
L 122.373437 86.874273 
L 124.162615 90.340147 
L 125.504499 92.534706 
L 126.846383 94.406517 
L 128.188267 95.982796 
L 129.53015 97.293649 
L 131.319329 98.682661 
L 133.108507 99.728526 
L 134.897685 100.499416 
L 137.134158 101.167615 
L 139.370631 101.598128 
L 142.501693 101.94195 
L 146.527345 102.137724 
L 153.684058 102.22788 
L 187.678447 102.24 
L 265.955 102.24 
L 265.955 102.24 
" clip-path="url(#pe93bb31b07)" style="fill: none; stroke: #ff1f5b; stroke-linecap: square"/>
   </g>
   <g id="line2d_14">
    <path d="M 42.755 102.24 
L 87.931754 102.133413 
L 92.404699 101.893546 
L 95.535762 101.501897 
L 97.772234 101.016313 
L 99.561413 100.444145 
L 101.350591 99.652768 
L 103.13977 98.581002 
L 104.481653 97.552049 
L 105.823537 96.29594 
L 107.165421 94.781313 
L 108.507305 92.977659 
L 109.849188 90.856959 
L 111.191072 88.395571 
L 112.980251 84.555276 
L 114.769429 80.063935 
L 116.558607 74.941823 
L 118.79508 67.753983 
L 121.478848 58.298192 
L 126.399088 40.744669 
L 128.188267 35.120207 
L 129.53015 31.431947 
L 130.872034 28.314569 
L 132.213918 25.859192 
L 133.108507 24.627275 
L 134.003096 23.739511 
L 134.897685 23.208081 
L 135.792275 23.040318 
L 136.686864 23.238545 
L 137.581453 23.800018 
L 138.476042 24.716991 
L 139.370631 25.976893 
L 140.26522 27.562612 
L 141.607104 30.504573 
L 142.948988 34.044231 
L 144.738166 39.517502 
L 146.974639 47.196801 
L 153.684058 70.96499 
L 155.920531 77.791831 
L 157.709709 82.577272 
L 159.498888 86.715981 
L 161.288066 90.208285 
L 162.62995 92.421486 
L 163.971834 94.310548 
L 165.313717 95.902474 
L 166.655601 97.227257 
L 168.44478 98.632131 
L 170.233958 99.690888 
L 172.023136 100.471968 
L 173.812315 101.0362 
L 176.048788 101.514592 
L 178.732555 101.859776 
L 182.310912 102.08939 
L 188.125741 102.211442 
L 205.122936 102.239928 
L 265.955 102.24 
L 265.955 102.24 
" clip-path="url(#pe93bb31b07)" style="fill: none; stroke: #00cd6c; stroke-linecap: square"/>
   </g>
   <g id="line2d_15">
    <path d="M 42.755 102.24 
L 125.057204 102.135589 
L 129.53015 101.899964 
L 132.661212 101.514592 
L 134.897685 101.0362 
L 136.686864 100.471968 
L 138.476042 99.690888 
L 140.26522 98.632131 
L 141.607104 97.614883 
L 142.948988 96.372218 
L 144.290872 94.872768 
L 145.632756 93.085937 
L 146.974639 90.98352 
L 148.316523 88.541579 
L 150.105701 84.728288 
L 151.89488 80.263948 
L 153.684058 75.167165 
L 155.920531 68.00568 
L 158.604299 58.568419 
L 163.524539 40.99311 
L 165.313717 35.339805 
L 166.655601 31.622785 
L 167.997485 28.47116 
L 169.339369 25.976893 
L 170.233958 24.716991 
L 171.128547 23.800018 
L 172.023136 23.238545 
L 172.917725 23.040318 
L 173.812315 23.208081 
L 174.706904 23.739511 
L 175.601493 24.627275 
L 176.496082 25.859192 
L 177.390671 27.418518 
L 178.732555 30.324577 
L 180.074439 33.833569 
L 181.863617 39.275214 
L 184.10009 46.930893 
L 191.256804 72.162319 
L 193.493277 78.840841 
L 195.282455 83.493366 
L 197.071633 87.496204 
L 198.860812 90.856959 
L 200.202695 92.977659 
L 201.544579 94.781313 
L 202.886463 96.29594 
L 204.228347 97.552049 
L 206.017525 98.87888 
L 207.806703 99.874365 
L 209.595882 100.605539 
L 211.832355 101.236873 
L 214.516122 101.702526 
L 217.647184 101.993772 
L 222.12013 102.166831 
L 231.066022 102.235433 
L 265.955 102.24 
L 265.955 102.24 
" clip-path="url(#pe93bb31b07)" style="fill: none; stroke: #009ade; stroke-linecap: square"/>
   </g>
   <g id="line2d_16">
    <path d="M 42.755 102.24 
L 162.182655 102.137724 
L 166.655601 101.906274 
L 169.786663 101.527092 
L 172.023136 101.055802 
L 173.812315 100.499416 
L 175.601493 99.728526 
L 177.390671 98.682661 
L 178.732555 97.677021 
L 180.074439 96.447703 
L 181.416323 94.963335 
L 182.758206 93.19324 
L 184.10009 91.109032 
L 185.441974 88.686483 
L 187.231152 84.900164 
L 189.020331 80.462856 
L 190.809509 75.391511 
L 193.045982 68.256631 
L 195.729749 58.838379 
L 201.097285 39.760864 
L 202.886463 34.256429 
L 204.228347 30.686417 
L 205.57023 27.708824 
L 206.46482 26.096858 
L 207.359409 24.809092 
L 208.253998 23.862997 
L 209.148587 23.271535 
L 210.043176 23.042863 
L 210.937766 23.180145 
L 211.832355 23.681482 
L 212.726944 24.539951 
L 213.621533 25.743767 
L 214.516122 27.276553 
L 215.858006 30.146447 
L 217.19989 33.62446 
L 218.989068 39.034022 
L 221.225541 46.665486 
L 228.382255 71.92463 
L 230.618727 78.633187 
L 232.407906 83.312411 
L 234.197084 87.342404 
L 235.986263 90.729344 
L 237.328146 92.868402 
L 238.67003 94.688966 
L 240.011914 96.218865 
L 241.353798 97.488514 
L 243.142976 98.8307 
L 244.932154 99.838603 
L 246.721333 100.579551 
L 248.957806 101.21994 
L 251.194279 101.63121 
L 254.325341 101.958454 
L 258.798287 102.1552 
L 265.955 102.230226 
L 265.955 102.230226 
" clip-path="url(#pe93bb31b07)" style="fill: none; stroke: #af58ba; stroke-linecap: square"/>
   </g>
   <g id="patch_3">
    <path d="M 42.755 118.08 
L 42.755 7.2 
" style="fill: none; stroke: #000000; stroke-width: 0.6; stroke-linejoin: miter; stroke-linecap: square"/>
   </g>
   <g id="patch_4">
    <path d="M 42.755 118.08 
L 265.955 118.08 
" style="fill: none; stroke: #000000; stroke-width: 0.6; stroke-linejoin: miter; stroke-linecap: square"/>
   </g>
   <g id="legend_1">
    <g id="line2d_17">
     <path d="M 264.115 28.76675 
L 271.515 28.76675 
L 278.915 28.76675 
" style="fill: none; stroke: #ff1f5b; stroke-linecap: square"/>
    </g>
    <g id="text_15">
     <!-- $t=0$ -->
     <g transform="translate(285.315 31.56675)scale(0.08 -0.08)">
      <defs>
       <path id="DejaVuSans-Oblique-74" d="M 2706 3500 
L 2619 3053 
L 1472 3053 
L 1100 1153 
Q 1081 1047 1072 975 
Q 1063 903 1063 863 
Q 1063 663 1183 572 
Q 1303 481 1569 481 
L 2150 481 
L 2053 0 
L 1503 0 
Q 991 0 739 200 
Q 488 400 488 806 
Q 488 878 497 964 
Q 506 1050 525 1153 
L 897 3053 
L 409 3053 
L 500 3500 
L 978 3500 
L 1172 4494 
L 1747 4494 
L 1556 3500 
L 2706 3500 
z
" transform="scale(0.015625)"/>
       <path id="DejaVuSans-3d" d="M 678 2906 
L 4684 2906 
L 4684 2381 
L 678 2381 
L 678 2906 
z
M 678 1631 
L 4684 1631 
L 4684 1100 
L 678 1100 
L 678 1631 
z
" transform="scale(0.015625)"/>
      </defs>
      <use xlink:href="#DejaVuSans-Oblique-74" transform="translate(0 0.78125)"/>
      <use xlink:href="#DejaVuSans-3d" transform="translate(58.691406 0.78125)"/>
      <use xlink:href="#DejaVuSans-30" transform="translate(161.962891 0.78125)"/>
     </g>
    </g>
    <g id="line2d_18">
     <path d="M 264.115 40.50925 
L 271.515 40.50925 
L 278.915 40.50925 
" style="fill: none; stroke: #00cd6c; stroke-linecap: square"/>
    </g>
    <g id="text_16">
     <!-- $t=2$ -->
     <g transform="translate(285.315 43.30925)scale(0.08 -0.08)">
      <use xlink:href="#DejaVuSans-Oblique-74" transform="translate(0 0.78125)"/>
      <use xlink:href="#DejaVuSans-3d" transform="translate(58.691406 0.78125)"/>
      <use xlink:href="#DejaVuSans-32" transform="translate(161.962891 0.78125)"/>
     </g>
    </g>
    <g id="line2d_19">
     <path d="M 264.115 52.25175 
L 271.515 52.25175 
L 278.915 52.25175 
" style="fill: none; stroke: #009ade; stroke-linecap: square"/>
    </g>
    <g id="text_17">
     <!-- $t=4$ -->
     <g transform="translate(285.315 55.05175)scale(0.08 -0.08)">
      <use xlink:href="#DejaVuSans-Oblique-74" transform="translate(0 0.09375)"/>
      <use xlink:href="#DejaVuSans-3d" transform="translate(58.691406 0.09375)"/>
      <use xlink:href="#DejaVuSans-34" transform="translate(161.962891 0.09375)"/>
     </g>
    </g>
    <g id="line2d_20">
     <path d="M 264.115 63.99425 
L 271.515 63.99425 
L 278.915 63.99425 
" style="fill: none; stroke: #af58ba; stroke-linecap: square"/>
    </g>
    <g id="text_18">
     <!-- $t=6$ -->
     <g transform="translate(285.315 66.79425)scale(0.08 -0.08)">
      <use xlink:href="#DejaVuSans-Oblique-74" transform="translate(0 0.78125)"/>
      <use xlink:href="#DejaVuSans-3d" transform="translate(58.691406 0.78125)"/>
      <use xlink:href="#DejaVuSans-36" transform="translate(161.962891 0.78125)"/>
     </g>
    </g>
   </g>
  </g>
 </g>
 <defs>
  <clipPath id="pe93bb31b07">
   <rect x="42.755" y="7.2" width="223.2" height="110.88"/>
  </clipPath>
 </defs>
</svg>
