<?xml version="1.0" encoding="utf-8" standalone="no"?>
<!DOCTYPE svg PUBLIC "-//W3C//DTD SVG 1.1//EN"
  "http://www.w3.org/Graphics/SVG/1.1/DTD/svg11.dtd">
<svg xmlns:xlink="http://www.w3.org/1999/xlink" width="207.46625pt" height="164.892375pt" viewBox="0 0 207.46625 164.892375" xmlns="http://www.w3.org/2000/svg" version="1.1">
 <metadata>
  <rdf:RDF xmlns:dc="http://purl.org/dc/elements/1.1/" xmlns:cc="http://creativecommons.org/ns#" xmlns:rdf="http://www.w3.org/1999/02/22-rdf-syntax-ns#">
   <cc:Work>
    <dc:type rdf:resource="http://purl.org/dc/dcmitype/StillImage"/>
    <dc:format>image/svg+xml</dc:format>
    <dc:creator>
     <cc:Agent>
      <dc:title>Matplotlib v3.5.2, https://matplotlib.org/</dc:title>
     </cc:Agent>
    </dc:creator>
   </cc:Work>
  </rdf:RDF>
 </metadata>
 <defs>
  <style type="text/css">*{stroke-linejoin: round; stroke-linecap: butt}</style>
 </defs>
 <g id="figure_1">
  <g id="patch_1">
   <path d="M 0 164.892375 
L 207.46625 164.892375 
L 207.46625 0 
L 0 0 
L 0 164.892375 
z
" style="fill: none"/>
  </g>
  <g id="axes_1">
   <g id="patch_2">
    <path d="M 37.665 132.207375 
L 193.905 132.207375 
L 193.905 10.239375 
L 37.665 10.239375 
L 37.665 132.207375 
z
" style="fill: none"/>
   </g>
   <g id="matplotlib.axis_1">
    <g id="xtick_1">
     <g id="line2d_1">
      <defs>
       <path id="m4cd371f86f" d="M 0 0 
L 0 2.5 
" style="stroke: #000000; stroke-width: 0.6"/>
      </defs>
      <g>
       <use xlink:href="#m4cd371f86f" x="37.665" y="132.207375" style="stroke: #000000; stroke-width: 0.6"/>
      </g>
     </g>
     <g id="text_1">
      <!-- 0.0 -->
      <g transform="translate(31.30375 144.286125)scale(0.08 -0.08)">
       <defs>
        <path id="DejaVuSans-30" d="M 2034 4250 
Q 1547 4250 1301 3770 
Q 1056 3291 1056 2328 
Q 1056 1369 1301 889 
Q 1547 409 2034 409 
Q 2525 409 2770 889 
Q 3016 1369 3016 2328 
Q 3016 3291 2770 3770 
Q 2525 4250 2034 4250 
z
M 2034 4750 
Q 2819 4750 3233 4129 
Q 3647 3509 3647 2328 
Q 3647 1150 3233 529 
Q 2819 -91 2034 -91 
Q 1250 -91 836 529 
Q 422 1150 422 2328 
Q 422 3509 836 4129 
Q 1250 4750 2034 4750 
z
" transform="scale(0.015625)"/>
        <path id="DejaVuSans-2e" d="M 684 794 
L 1344 794 
L 1344 0 
L 684 0 
L 684 794 
z
" transform="scale(0.015625)"/>
       </defs>
       <use xlink:href="#DejaVuSans-30"/>
       <use xlink:href="#DejaVuSans-2e" x="63.623047"/>
       <use xlink:href="#DejaVuSans-30" x="95.410156"/>
      </g>
     </g>
    </g>
    <g id="xtick_2">
     <g id="line2d_2">
      <g>
       <use xlink:href="#m4cd371f86f" x="76.725" y="132.207375" style="stroke: #000000; stroke-width: 0.6"/>
      </g>
     </g>
     <g id="text_2">
      <!-- 0.5 -->
      <g transform="translate(70.36375 144.286125)scale(0.08 -0.08)">
       <defs>
        <path id="DejaVuSans-35" d="M 691 4666 
L 3169 4666 
L 3169 4134 
L 1269 4134 
L 1269 2991 
Q 1406 3038 1543 3061 
Q 1681 3084 1819 3084 
Q 2600 3084 3056 2656 
Q 3513 2228 3513 1497 
Q 3513 744 3044 326 
Q 2575 -91 1722 -91 
Q 1428 -91 1123 -41 
Q 819 9 494 109 
L 494 744 
Q 775 591 1075 516 
Q 1375 441 1709 441 
Q 2250 441 2565 725 
Q 2881 1009 2881 1497 
Q 2881 1984 2565 2268 
Q 2250 2553 1709 2553 
Q 1456 2553 1204 2497 
Q 953 2441 691 2322 
L 691 4666 
z
" transform="scale(0.015625)"/>
       </defs>
       <use xlink:href="#DejaVuSans-30"/>
       <use xlink:href="#DejaVuSans-2e" x="63.623047"/>
       <use xlink:href="#DejaVuSans-35" x="95.410156"/>
      </g>
     </g>
    </g>
    <g id="xtick_3">
     <g id="line2d_3">
      <g>
       <use xlink:href="#m4cd371f86f" x="115.785" y="132.207375" style="stroke: #000000; stroke-width: 0.6"/>
      </g>
     </g>
     <g id="text_3">
      <!-- 1.0 -->
      <g transform="translate(109.42375 144.286125)scale(0.08 -0.08)">
       <defs>
        <path id="DejaVuSans-31" d="M 794 531 
L 1825 531 
L 1825 4091 
L 703 3866 
L 703 4441 
L 1819 4666 
L 2450 4666 
L 2450 531 
L 3481 531 
L 3481 0 
L 794 0 
L 794 531 
z
" transform="scale(0.015625)"/>
       </defs>
       <use xlink:href="#DejaVuSans-31"/>
       <use xlink:href="#DejaVuSans-2e" x="63.623047"/>
       <use xlink:href="#DejaVuSans-30" x="95.410156"/>
      </g>
     </g>
    </g>
    <g id="xtick_4">
     <g id="line2d_4">
      <g>
       <use xlink:href="#m4cd371f86f" x="154.845" y="132.207375" style="stroke: #000000; stroke-width: 0.6"/>
      </g>
     </g>
     <g id="text_4">
      <!-- 1.5 -->
      <g transform="translate(148.48375 144.286125)scale(0.08 -0.08)">
       <use xlink:href="#DejaVuSans-31"/>
       <use xlink:href="#DejaVuSans-2e" x="63.623047"/>
       <use xlink:href="#DejaVuSans-35" x="95.410156"/>
      </g>
     </g>
    </g>
    <g id="xtick_5">
     <g id="line2d_5">
      <g>
       <use xlink:href="#m4cd371f86f" x="193.905" y="132.207375" style="stroke: #000000; stroke-width: 0.6"/>
      </g>
     </g>
     <g id="text_5">
      <!-- 2.0 -->
      <g transform="translate(187.54375 144.286125)scale(0.08 -0.08)">
       <defs>
        <path id="DejaVuSans-32" d="M 1228 531 
L 3431 531 
L 3431 0 
L 469 0 
L 469 531 
Q 828 903 1448 1529 
Q 2069 2156 2228 2338 
Q 2531 2678 2651 2914 
Q 2772 3150 2772 3378 
Q 2772 3750 2511 3984 
Q 2250 4219 1831 4219 
Q 1534 4219 1204 4116 
Q 875 4013 500 3803 
L 500 4441 
Q 881 4594 1212 4672 
Q 1544 4750 1819 4750 
Q 2544 4750 2975 4387 
Q 3406 4025 3406 3419 
Q 3406 3131 3298 2873 
Q 3191 2616 2906 2266 
Q 2828 2175 2409 1742 
Q 1991 1309 1228 531 
z
" transform="scale(0.015625)"/>
       </defs>
       <use xlink:href="#DejaVuSans-32"/>
       <use xlink:href="#DejaVuSans-2e" x="63.623047"/>
       <use xlink:href="#DejaVuSans-30" x="95.410156"/>
      </g>
     </g>
    </g>
    <g id="text_6">
     <!-- x -->
     <g transform="translate(113.4175 156.028625)scale(0.08 -0.08)">
      <defs>
       <path id="DejaVuSans-78" d="M 3513 3500 
L 2247 1797 
L 3578 0 
L 2900 0 
L 1881 1375 
L 863 0 
L 184 0 
L 1544 1831 
L 300 3500 
L 978 3500 
L 1906 2253 
L 2834 3500 
L 3513 3500 
z
" transform="scale(0.015625)"/>
      </defs>
      <use xlink:href="#DejaVuSans-78"/>
     </g>
    </g>
   </g>
   <g id="matplotlib.axis_2">
    <g id="ytick_1">
     <g id="line2d_6">
      <defs>
       <path id="m56f3a9ced1" d="M 0 0 
L -2.5 0 
" style="stroke: #000000; stroke-width: 0.6"/>
      </defs>
      <g>
       <use xlink:href="#m56f3a9ced1" x="37.665" y="132.207375" style="stroke: #000000; stroke-width: 0.6"/>
      </g>
     </g>
     <g id="text_7">
      <!-- 0.0 -->
      <g transform="translate(18.9425 135.24675)scale(0.08 -0.08)">
       <use xlink:href="#DejaVuSans-30"/>
       <use xlink:href="#DejaVuSans-2e" x="63.623047"/>
       <use xlink:href="#DejaVuSans-30" x="95.410156"/>
      </g>
     </g>
    </g>
    <g id="ytick_2">
     <g id="line2d_7">
      <g>
       <use xlink:href="#m56f3a9ced1" x="37.665" y="101.715375" style="stroke: #000000; stroke-width: 0.6"/>
      </g>
     </g>
     <g id="text_8">
      <!-- 0.5 -->
      <g transform="translate(18.9425 104.75475)scale(0.08 -0.08)">
       <use xlink:href="#DejaVuSans-30"/>
       <use xlink:href="#DejaVuSans-2e" x="63.623047"/>
       <use xlink:href="#DejaVuSans-35" x="95.410156"/>
      </g>
     </g>
    </g>
    <g id="ytick_3">
     <g id="line2d_8">
      <g>
       <use xlink:href="#m56f3a9ced1" x="37.665" y="71.223375" style="stroke: #000000; stroke-width: 0.6"/>
      </g>
     </g>
     <g id="text_9">
      <!-- 1.0 -->
      <g transform="translate(18.9425 74.26275)scale(0.08 -0.08)">
       <use xlink:href="#DejaVuSans-31"/>
       <use xlink:href="#DejaVuSans-2e" x="63.623047"/>
       <use xlink:href="#DejaVuSans-30" x="95.410156"/>
      </g>
     </g>
    </g>
    <g id="ytick_4">
     <g id="line2d_9">
      <g>
       <use xlink:href="#m56f3a9ced1" x="37.665" y="40.731375" style="stroke: #000000; stroke-width: 0.6"/>
      </g>
     </g>
     <g id="text_10">
      <!-- 1.5 -->
      <g transform="translate(18.9425 43.77075)scale(0.08 -0.08)">
       <use xlink:href="#DejaVuSans-31"/>
       <use xlink:href="#DejaVuSans-2e" x="63.623047"/>
       <use xlink:href="#DejaVuSans-35" x="95.410156"/>
      </g>
     </g>
    </g>
    <g id="ytick_5">
     <g id="line2d_10">
      <g>
       <use xlink:href="#m56f3a9ced1" x="37.665" y="10.239375" style="stroke: #000000; stroke-width: 0.6"/>
      </g>
     </g>
     <g id="text_11">
      <!-- 2.0 -->
      <g transform="translate(18.9425 13.27875)scale(0.08 -0.08)">
       <use xlink:href="#DejaVuSans-32"/>
       <use xlink:href="#DejaVuSans-2e" x="63.623047"/>
       <use xlink:href="#DejaVuSans-30" x="95.410156"/>
      </g>
     </g>
    </g>
    <g id="text_12">
     <!-- t -->
     <g transform="translate(13.27875 72.7915)rotate(-90)scale(0.08 -0.08)">
      <defs>
       <path id="DejaVuSans-74" d="M 1172 4494 
L 1172 3500 
L 2356 3500 
L 2356 3053 
L 1172 3053 
L 1172 1153 
Q 1172 725 1289 603 
Q 1406 481 1766 481 
L 2356 481 
L 2356 0 
L 1766 0 
Q 1100 0 847 248 
Q 594 497 594 1153 
L 594 3053 
L 172 3053 
L 172 3500 
L 594 3500 
L 594 4494 
L 1172 4494 
z
" transform="scale(0.015625)"/>
      </defs>
      <use xlink:href="#DejaVuSans-74"/>
     </g>
    </g>
   </g>
   <g id="line2d_11">
    <path d="M 37.665 132.207375 
L 32.324091 128.174365 
L 26.618035 124.141355 
L 20.521866 120.108345 
L 14.008914 116.075335 
L 7.050686 112.042325 
L -0.383264 108.009315 
L -1 107.686524 
L -1 107.686524 
" clip-path="url(#p385df18e8d)" style="fill: none; stroke: #ff1f5b; stroke-linecap: square"/>
   </g>
   <g id="line2d_12">
    <path d="M 45.477 132.207375 
L 40.670182 128.174365 
L 35.534731 124.141355 
L 30.04818 120.108345 
L 24.186523 116.075335 
L 17.924117 112.042325 
L 11.233563 108.009315 
L 4.085588 103.976305 
L -1 101.261368 
L -1 101.261368 
" clip-path="url(#p385df18e8d)" style="fill: none; stroke: #ff1f5b; stroke-linecap: square"/>
   </g>
   <g id="line2d_13">
    <path d="M 53.289 132.207375 
L 48.613649 127.807728 
L 43.588532 123.40808 
L 38.652603 119.37507 
L 33.379213 115.34206 
L 27.745294 111.30905 
L 21.726194 107.27604 
L 15.29558 103.24303 
L 8.425318 99.21002 
L 1.085349 95.17701 
L -1 94.078225 
L -1 94.078225 
" clip-path="url(#p385df18e8d)" style="fill: none; stroke: #ff1f5b; stroke-linecap: square"/>
   </g>
   <g id="line2d_14">
    <path d="M 61.101 132.207375 
L 57.010068 127.807728 
L 52.613091 123.40808 
L 47.887174 119.008433 
L 42.807708 114.608786 
L 37.818397 110.575776 
L 32.487975 106.542766 
L 26.793122 102.509756 
L 20.708924 98.476746 
L 14.208761 94.443736 
L 7.264195 90.410726 
L -0.155159 86.377716 
L -1 85.935126 
L -1 85.935126 
" clip-path="url(#p385df18e8d)" style="fill: none; stroke: #ff1f5b; stroke-linecap: square"/>
   </g>
   <g id="line2d_15">
    <path d="M 68.913 132.207375 
L 65.102697 127.44109 
L 61.311134 123.041443 
L 57.235921 118.641796 
L 52.855839 114.242149 
L 48.148083 109.842501 
L 43.088137 105.442854 
L 38.117997 101.409844 
L 32.808058 97.376834 
L 27.135089 93.343824 
L 21.07427 89.310814 
L 14.599084 85.277804 
L 7.681204 81.244794 
L 0.290362 77.211784 
L -1 76.534361 
L -1 76.534361 
" clip-path="url(#p385df18e8d)" style="fill: none; stroke: #ff1f5b; stroke-linecap: square"/>
   </g>
   <g id="line2d_16">
    <path d="M 76.725 132.207375 
L 73.549748 127.44109 
L 70.116374 122.674806 
L 66.403896 117.908521 
L 62.709674 113.508874 
L 58.739087 109.109227 
L 54.471459 104.709579 
L 49.884567 100.309932 
L 44.954528 95.910285 
L 40.111989 91.877275 
L 34.938375 87.844265 
L 29.41105 83.811255 
L 23.505835 79.778245 
L 17.196892 75.745235 
L 10.456619 71.712225 
L 3.255527 67.679215 
L -1 65.41568 
L -1 65.41568 
" clip-path="url(#p385df18e8d)" style="fill: none; stroke: #ff1f5b; stroke-linecap: square"/>
   </g>
   <g id="line2d_17">
    <path d="M 84.537 132.207375 
L 81.588075 126.707816 
L 78.585175 121.574894 
L 75.318584 116.441972 
L 72.029001 111.675688 
L 68.472003 106.909403 
L 64.625851 102.143118 
L 60.798614 97.743471 
L 56.685059 93.343824 
L 52.263768 88.944177 
L 47.511717 84.544529 
L 42.844007 80.511519 
L 37.857176 76.478509 
L 32.529406 72.445499 
L 26.837386 68.412489 
L 20.756214 64.379479 
L 14.259285 60.346469 
L 7.318173 56.313459 
L -0.097489 52.280449 
L -1 51.807563 
L -1 51.807563 
" clip-path="url(#p385df18e8d)" style="fill: none; stroke: #ff1f5b; stroke-linecap: square"/>
   </g>
   <g id="line2d_18">
    <path d="M 92.349 132.207375 
L 89.982647 126.341179 
L 87.377362 120.474982 
L 84.696486 114.975423 
L 81.762611 109.475864 
L 78.775037 104.342942 
L 75.525119 99.21002 
L 72.252326 94.443736 
L 68.713482 89.677451 
L 64.88696 84.911167 
L 61.079256 80.511519 
L 56.986697 76.111872 
L 52.587971 71.712225 
L 47.860175 67.312577 
L 42.778691 62.91293 
L 37.787394 58.87992 
L 32.454853 54.84691 
L 26.757736 50.8139 
L 20.671119 46.78089 
L 14.168371 42.74788 
L 7.221044 38.71487 
L -0.201258 34.68186 
L -1 34.263466 
L -1 34.263466 
" clip-path="url(#p385df18e8d)" style="fill: none; stroke: #ff1f5b; stroke-linecap: square"/>
   </g>
   <g id="line2d_19">
    <path d="M 100.161 132.207375 
L 98.164753 124.87463 
L 96.032559 117.908521 
L 93.775074 111.30905 
L 91.406588 105.076217 
L 88.94508 99.21002 
L 86.23503 93.343824 
L 83.44635 87.844265 
L 80.606628 82.711343 
L 77.517545 77.578421 
L 74.157202 72.445499 
L 70.773207 67.679215 
L 67.114125 62.91293 
L 63.157589 58.146646 
L 59.22051 53.746998 
L 54.988897 49.347351 
L 50.440715 44.947704 
L 45.552282 40.548056 
L 40.75061 36.515046 
L 35.620657 32.482036 
L 30.13998 28.449026 
L 24.2846 24.416016 
L 18.028899 20.383006 
L 11.345509 16.349996 
L 4.205187 12.316986 
L -1 9.536719 
L -1 9.536719 
" clip-path="url(#p385df18e8d)" style="fill: none; stroke: #ff1f5b; stroke-linecap: square"/>
   </g>
   <g id="line2d_20">
    <path d="M 107.973 132.207375 
L 106.596197 122.308169 
L 105.105926 113.142237 
L 103.448346 104.342942 
L 101.703816 96.276922 
L 99.808931 88.577539 
L 97.7677 81.244794 
L 95.708523 74.645323 
L 93.414004 68.045852 
L 91.006664 61.813018 
L 88.504772 55.946822 
L 85.930293 50.447263 
L 83.112856 44.947704 
L 80.24385 39.814782 
L 77.12291 34.68186 
L 73.727914 29.548938 
L 70.309024 24.782654 
L 66.612205 20.016369 
L 62.614867 15.250084 
L 58.637186 10.850437 
L 54.361934 6.45079 
L 49.766849 2.051143 
L 46.379541 -1 
L 46.379541 -1 
" clip-path="url(#p385df18e8d)" style="fill: none; stroke: #ff1f5b; stroke-linecap: square"/>
   </g>
   <g id="line2d_21">
    <path d="M 115.785 132.207375 
L 115.785 -1 
L 115.785 -1 
" clip-path="url(#p385df18e8d)" style="fill: none; stroke: #ff1f5b; stroke-linecap: square"/>
   </g>
   <g id="line2d_22">
    <path d="M 123.597 132.207375 
L 124.973803 122.308169 
L 126.464074 113.142237 
L 128.121654 104.342942 
L 129.866185 96.276922 
L 131.761069 88.577539 
L 133.8023 81.244794 
L 135.861478 74.645323 
L 138.155996 68.045852 
L 140.563337 61.813018 
L 143.065228 55.946822 
L 145.639709 50.447263 
L 148.457146 44.947704 
L 151.326152 39.814782 
L 154.447091 34.68186 
L 157.842087 29.548938 
L 161.260978 24.782654 
L 164.957797 20.016369 
L 168.955136 15.250084 
L 172.932816 10.850437 
L 177.208069 6.45079 
L 181.803154 2.051143 
L 185.190463 -1 
L 185.190463 -1 
" clip-path="url(#p385df18e8d)" style="fill: none; stroke: #ff1f5b; stroke-linecap: square"/>
   </g>
   <g id="line2d_23">
    <path d="M 131.409 132.207375 
L 133.405247 124.87463 
L 135.537441 117.908521 
L 137.794926 111.30905 
L 140.163412 105.076217 
L 142.624921 99.21002 
L 145.33497 93.343824 
L 148.12365 87.844265 
L 150.963372 82.711343 
L 154.052455 77.578421 
L 157.412797 72.445499 
L 160.796793 67.679215 
L 164.455878 62.91293 
L 168.412412 58.146646 
L 172.349491 53.746998 
L 176.581104 49.347351 
L 181.129286 44.947704 
L 186.01772 40.548056 
L 190.819392 36.515046 
L 195.949344 32.482036 
L 201.430022 28.449026 
L 207.285402 24.416016 
L 208.46625 23.634156 
L 208.46625 23.634156 
" clip-path="url(#p385df18e8d)" style="fill: none; stroke: #ff1f5b; stroke-linecap: square"/>
   </g>
   <g id="line2d_24">
    <path d="M 139.221 132.207375 
L 141.587352 126.341179 
L 144.192638 120.474982 
L 146.873513 114.975423 
L 149.807388 109.475864 
L 152.794963 104.342942 
L 156.044881 99.21002 
L 159.317674 94.443736 
L 162.856518 89.677451 
L 166.68304 84.911167 
L 170.490744 80.511519 
L 174.583304 76.111872 
L 178.982034 71.712225 
L 183.709831 67.312577 
L 188.791313 62.91293 
L 193.78261 58.87992 
L 199.115152 54.84691 
L 204.81227 50.8139 
L 208.46625 48.361148 
L 208.46625 48.361148 
" clip-path="url(#p385df18e8d)" style="fill: none; stroke: #ff1f5b; stroke-linecap: square"/>
   </g>
   <g id="line2d_25">
    <path d="M 147.033 132.207375 
L 149.981925 126.707816 
L 152.984825 121.574894 
L 156.251416 116.441972 
L 159.540999 111.675688 
L 163.097998 106.909403 
L 166.944149 102.143118 
L 170.771387 97.743471 
L 174.884941 93.343824 
L 179.306233 88.944177 
L 184.058283 84.544529 
L 188.725992 80.511519 
L 193.712827 76.478509 
L 199.040602 72.445499 
L 204.73262 68.412489 
L 208.46625 65.905064 
L 208.46625 65.905064 
" clip-path="url(#p385df18e8d)" style="fill: none; stroke: #ff1f5b; stroke-linecap: square"/>
   </g>
   <g id="line2d_26">
    <path d="M 154.845 132.207375 
L 158.020252 127.44109 
L 161.453626 122.674806 
L 165.166104 117.908521 
L 168.860326 113.508874 
L 172.830915 109.109227 
L 177.098542 104.709579 
L 181.685433 100.309932 
L 186.615472 95.910285 
L 191.458012 91.877275 
L 196.631626 87.844265 
L 202.158949 83.811255 
L 208.064167 79.778245 
L 208.46625 79.513321 
L 208.46625 79.513321 
" clip-path="url(#p385df18e8d)" style="fill: none; stroke: #ff1f5b; stroke-linecap: square"/>
   </g>
   <g id="line2d_27">
    <path d="M 162.657 132.207375 
L 166.467302 127.44109 
L 170.258867 123.041443 
L 174.334079 118.641796 
L 178.71416 114.242149 
L 183.421919 109.842501 
L 188.481863 105.442854 
L 193.452003 101.409844 
L 198.761942 97.376834 
L 204.434912 93.343824 
L 208.46625 90.632059 
L 208.46625 90.632059 
" clip-path="url(#p385df18e8d)" style="fill: none; stroke: #ff1f5b; stroke-linecap: square"/>
   </g>
   <g id="line2d_28">
    <path d="M 170.469 132.207375 
L 174.559932 127.807728 
L 178.956909 123.40808 
L 183.682826 119.008433 
L 188.762291 114.608786 
L 193.751605 110.575776 
L 199.082026 106.542766 
L 204.776878 102.509756 
L 208.46625 100.032723 
L 208.46625 100.032723 
" clip-path="url(#p385df18e8d)" style="fill: none; stroke: #ff1f5b; stroke-linecap: square"/>
   </g>
   <g id="line2d_29">
    <path d="M 178.281 132.207375 
L 182.956351 127.807728 
L 187.981468 123.40808 
L 192.917397 119.37507 
L 198.190786 115.34206 
L 203.824708 111.30905 
L 208.46625 108.176072 
L 208.46625 108.176072 
" clip-path="url(#p385df18e8d)" style="fill: none; stroke: #ff1f5b; stroke-linecap: square"/>
   </g>
   <g id="line2d_30">
    <path d="M 186.093 132.207375 
L 190.899817 128.174365 
L 196.035269 124.141355 
L 201.52182 120.108345 
L 207.383476 116.075335 
L 208.46625 115.358726 
L 208.46625 115.358726 
" clip-path="url(#p385df18e8d)" style="fill: none; stroke: #ff1f5b; stroke-linecap: square"/>
   </g>
   <g id="line2d_31">
    <path d="M 193.905 132.207375 
L 199.245908 128.174365 
L 204.951965 124.141355 
L 208.46625 121.784254 
L 208.46625 121.784254 
" clip-path="url(#p385df18e8d)" style="fill: none; stroke: #ff1f5b; stroke-linecap: square"/>
   </g>
   <g id="patch_3">
    <path d="M 37.665 132.207375 
L 37.665 10.239375 
" style="fill: none; stroke: #000000; stroke-width: 0.6; stroke-linejoin: miter; stroke-linecap: square"/>
   </g>
   <g id="patch_4">
    <path d="M 37.665 132.207375 
L 193.905 132.207375 
" style="fill: none; stroke: #000000; stroke-width: 0.6; stroke-linejoin: miter; stroke-linecap: square"/>
   </g>
  </g>
 </g>
 <defs>
  <clipPath id="p385df18e8d">
   <rect x="37.665" y="10.239375" width="156.24" height="121.968"/>
  </clipPath>
 </defs>
</svg>
