<?xml version="1.0" encoding="utf-8" standalone="no"?>
<!DOCTYPE svg PUBLIC "-//W3C//DTD SVG 1.1//EN"
  "http://www.w3.org/Graphics/SVG/1.1/DTD/svg11.dtd">
<svg xmlns:xlink="http://www.w3.org/1999/xlink" width="130.1505pt" height="122.8905pt" viewBox="0 0 130.1505 122.8905" xmlns="http://www.w3.org/2000/svg" version="1.1">
 <metadata>
  <rdf:RDF xmlns:dc="http://purl.org/dc/elements/1.1/" xmlns:cc="http://creativecommons.org/ns#" xmlns:rdf="http://www.w3.org/1999/02/22-rdf-syntax-ns#">
   <cc:Work>
    <dc:type rdf:resource="http://purl.org/dc/dcmitype/StillImage"/>
    <dc:format>image/svg+xml</dc:format>
    <dc:creator>
     <cc:Agent>
      <dc:title>Matplotlib v3.5.2, https://matplotlib.org/</dc:title>
     </cc:Agent>
    </dc:creator>
   </cc:Work>
  </rdf:RDF>
 </metadata>
 <defs>
  <style type="text/css">*{stroke-linejoin: round; stroke-linecap: butt}</style>
 </defs>
 <g id="figure_1">
  <g id="patch_1">
   <path d="M 0 122.8905 
L 130.1505 122.8905 
L 130.1505 0 
L 0 0 
L 0 122.8905 
z
" style="fill: none"/>
  </g>
  <g id="axes_1">
   <g id="patch_2">
    <path d="M 16.96 101.448 
L 111.208 101.448 
L 111.208 7.2 
L 16.96 7.2 
L 16.96 101.448 
z
" style="fill: none"/>
   </g>
   <g id="patch_3">
    <path d="M 17.90248 195.696 
L 13.404051 193.53009 
L 15.203422 193.063586 
L -76.378842 101.481322 
L -76.312198 101.414678 
L 15.270066 192.996942 
L 15.73657 191.197571 
z
" clip-path="url(#pdd9eddc89d)" style="fill: #00cd6c; stroke: #00cd6c; stroke-linejoin: miter"/>
   </g>
   <g id="patch_4">
    <path d="M 17.90248 173.946462 
L 13.404051 171.780551 
L 15.203422 171.314047 
L -54.629303 101.481322 
L -54.56266 101.414678 
L 15.270066 171.247404 
L 15.73657 169.448032 
z
" clip-path="url(#pdd9eddc89d)" style="fill: #00cd6c; stroke: #00cd6c; stroke-linejoin: miter"/>
   </g>
   <g id="patch_5">
    <path d="M 17.90248 152.196923 
L 13.404051 150.031013 
L 15.203422 149.564509 
L -32.879765 101.481322 
L -32.813121 101.414678 
L 15.270066 149.497865 
L 15.73657 147.698494 
z
" clip-path="url(#pdd9eddc89d)" style="fill: #00cd6c; stroke: #00cd6c; stroke-linejoin: miter"/>
   </g>
   <g id="patch_6">
    <path d="M 17.90248 130.447385 
L 13.404051 128.281474 
L 15.203422 127.81497 
L -11.130226 101.481322 
L -11.063583 101.414678 
L 15.270066 127.748327 
L 15.73657 125.948955 
z
" clip-path="url(#pdd9eddc89d)" style="fill: #00cd6c; stroke: #00cd6c; stroke-linejoin: miter"/>
   </g>
   <g id="patch_7">
    <path d="M 17.90248 108.697846 
L 13.404051 106.531936 
L 15.203422 106.065432 
L 10.619312 101.481322 
L 10.685956 101.414678 
L 15.270066 105.998788 
L 15.73657 104.199417 
z
" clip-path="url(#pdd9eddc89d)" style="fill: #00cd6c; stroke: #00cd6c; stroke-linejoin: miter"/>
   </g>
   <g id="patch_8">
    <path d="M 17.90248 86.948308 
L 22.400909 89.114218 
L 20.601538 89.580722 
L 32.435494 101.414678 
L 32.368851 101.481322 
L 20.534894 89.647365 
L 20.06839 91.446737 
z
" clip-path="url(#pdd9eddc89d)" style="fill: #00cd6c; stroke: #00cd6c; stroke-linejoin: miter"/>
   </g>
   <g id="patch_9">
    <path d="M 17.90248 65.198769 
L 22.400909 67.36468 
L 20.601538 67.831184 
L 54.185032 101.414678 
L 54.118389 101.481322 
L 20.534894 67.897827 
L 20.06839 69.697199 
z
" clip-path="url(#pdd9eddc89d)" style="fill: #00cd6c; stroke: #00cd6c; stroke-linejoin: miter"/>
   </g>
   <g id="patch_10">
    <path d="M 17.90248 43.449231 
L 22.400909 45.615141 
L 20.601538 46.081645 
L 75.934571 101.414678 
L 75.867928 101.481322 
L 20.534894 46.148288 
L 20.06839 47.94766 
z
" clip-path="url(#pdd9eddc89d)" style="fill: #00cd6c; stroke: #00cd6c; stroke-linejoin: miter"/>
   </g>
   <g id="patch_11">
    <path d="M 17.90248 21.699692 
L 22.400909 23.865603 
L 20.601538 24.332107 
L 97.684109 101.414678 
L 97.617466 101.481322 
L 20.534894 24.39875 
L 20.06839 26.198122 
z
" clip-path="url(#pdd9eddc89d)" style="fill: #00cd6c; stroke: #00cd6c; stroke-linejoin: miter"/>
   </g>
   <g id="patch_12">
    <path d="M 27.037286 9.08496 
L 31.535716 11.25087 
L 29.736344 11.717374 
L 119.433648 101.414678 
L 119.367004 101.481322 
L 29.6697 11.784018 
L 29.203197 13.583389 
z
" clip-path="url(#pdd9eddc89d)" style="fill: #00cd6c; stroke: #00cd6c; stroke-linejoin: miter"/>
   </g>
   <g id="patch_13">
    <path d="M 48.786825 9.08496 
L 53.285254 11.25087 
L 51.485882 11.717374 
L 141.183186 101.414678 
L 141.116543 101.481322 
L 51.419239 11.784018 
L 50.952735 13.583389 
z
" clip-path="url(#pdd9eddc89d)" style="fill: #00cd6c; stroke: #00cd6c; stroke-linejoin: miter"/>
   </g>
   <g id="patch_14">
    <path d="M 70.536363 9.08496 
L 75.034793 11.25087 
L 73.235421 11.717374 
L 162.932725 101.414678 
L 162.866081 101.481322 
L 73.168777 11.784018 
L 72.702274 13.583389 
z
" clip-path="url(#pdd9eddc89d)" style="fill: #00cd6c; stroke: #00cd6c; stroke-linejoin: miter"/>
   </g>
   <g id="patch_15">
    <path d="M 92.285902 9.08496 
L 96.784331 11.25087 
L 94.984959 11.717374 
L 184.682263 101.414678 
L 184.61562 101.481322 
L 94.918316 11.784018 
L 94.451812 13.583389 
z
" clip-path="url(#pdd9eddc89d)" style="fill: #00cd6c; stroke: #00cd6c; stroke-linejoin: miter"/>
   </g>
   <g id="patch_16">
    <path d="M 114.03544 9.08496 
L 118.533869 11.25087 
L 116.734498 11.717374 
L 206.431802 101.414678 
L 206.365158 101.481322 
L 116.667854 11.784018 
L 116.20135 13.583389 
z
" clip-path="url(#pdd9eddc89d)" style="fill: #00cd6c; stroke: #00cd6c; stroke-linejoin: miter"/>
   </g>
   <g id="matplotlib.axis_1">
    <g id="text_1">
     <!-- initial condition -->
     <g transform="translate(33.319 114.02675)scale(0.08 -0.08)">
      <defs>
       <path id="DejaVuSans-69" d="M 603 3500 
L 1178 3500 
L 1178 0 
L 603 0 
L 603 3500 
z
M 603 4863 
L 1178 4863 
L 1178 4134 
L 603 4134 
L 603 4863 
z
" transform="scale(0.015625)"/>
       <path id="DejaVuSans-6e" d="M 3513 2113 
L 3513 0 
L 2938 0 
L 2938 2094 
Q 2938 2591 2744 2837 
Q 2550 3084 2163 3084 
Q 1697 3084 1428 2787 
Q 1159 2491 1159 1978 
L 1159 0 
L 581 0 
L 581 3500 
L 1159 3500 
L 1159 2956 
Q 1366 3272 1645 3428 
Q 1925 3584 2291 3584 
Q 2894 3584 3203 3211 
Q 3513 2838 3513 2113 
z
" transform="scale(0.015625)"/>
       <path id="DejaVuSans-74" d="M 1172 4494 
L 1172 3500 
L 2356 3500 
L 2356 3053 
L 1172 3053 
L 1172 1153 
Q 1172 725 1289 603 
Q 1406 481 1766 481 
L 2356 481 
L 2356 0 
L 1766 0 
Q 1100 0 847 248 
Q 594 497 594 1153 
L 594 3053 
L 172 3053 
L 172 3500 
L 594 3500 
L 594 4494 
L 1172 4494 
z
" transform="scale(0.015625)"/>
       <path id="DejaVuSans-61" d="M 2194 1759 
Q 1497 1759 1228 1600 
Q 959 1441 959 1056 
Q 959 750 1161 570 
Q 1363 391 1709 391 
Q 2188 391 2477 730 
Q 2766 1069 2766 1631 
L 2766 1759 
L 2194 1759 
z
M 3341 1997 
L 3341 0 
L 2766 0 
L 2766 531 
Q 2569 213 2275 61 
Q 1981 -91 1556 -91 
Q 1019 -91 701 211 
Q 384 513 384 1019 
Q 384 1609 779 1909 
Q 1175 2209 1959 2209 
L 2766 2209 
L 2766 2266 
Q 2766 2663 2505 2880 
Q 2244 3097 1772 3097 
Q 1472 3097 1187 3025 
Q 903 2953 641 2809 
L 641 3341 
Q 956 3463 1253 3523 
Q 1550 3584 1831 3584 
Q 2591 3584 2966 3190 
Q 3341 2797 3341 1997 
z
" transform="scale(0.015625)"/>
       <path id="DejaVuSans-6c" d="M 603 4863 
L 1178 4863 
L 1178 0 
L 603 0 
L 603 4863 
z
" transform="scale(0.015625)"/>
       <path id="DejaVuSans-20" transform="scale(0.015625)"/>
       <path id="DejaVuSans-63" d="M 3122 3366 
L 3122 2828 
Q 2878 2963 2633 3030 
Q 2388 3097 2138 3097 
Q 1578 3097 1268 2742 
Q 959 2388 959 1747 
Q 959 1106 1268 751 
Q 1578 397 2138 397 
Q 2388 397 2633 464 
Q 2878 531 3122 666 
L 3122 134 
Q 2881 22 2623 -34 
Q 2366 -91 2075 -91 
Q 1284 -91 818 406 
Q 353 903 353 1747 
Q 353 2603 823 3093 
Q 1294 3584 2113 3584 
Q 2378 3584 2631 3529 
Q 2884 3475 3122 3366 
z
" transform="scale(0.015625)"/>
       <path id="DejaVuSans-6f" d="M 1959 3097 
Q 1497 3097 1228 2736 
Q 959 2375 959 1747 
Q 959 1119 1226 758 
Q 1494 397 1959 397 
Q 2419 397 2687 759 
Q 2956 1122 2956 1747 
Q 2956 2369 2687 2733 
Q 2419 3097 1959 3097 
z
M 1959 3584 
Q 2709 3584 3137 3096 
Q 3566 2609 3566 1747 
Q 3566 888 3137 398 
Q 2709 -91 1959 -91 
Q 1206 -91 779 398 
Q 353 888 353 1747 
Q 353 2609 779 3096 
Q 1206 3584 1959 3584 
z
" transform="scale(0.015625)"/>
       <path id="DejaVuSans-64" d="M 2906 2969 
L 2906 4863 
L 3481 4863 
L 3481 0 
L 2906 0 
L 2906 525 
Q 2725 213 2448 61 
Q 2172 -91 1784 -91 
Q 1150 -91 751 415 
Q 353 922 353 1747 
Q 353 2572 751 3078 
Q 1150 3584 1784 3584 
Q 2172 3584 2448 3432 
Q 2725 3281 2906 2969 
z
M 947 1747 
Q 947 1113 1208 752 
Q 1469 391 1925 391 
Q 2381 391 2643 752 
Q 2906 1113 2906 1747 
Q 2906 2381 2643 2742 
Q 2381 3103 1925 3103 
Q 1469 3103 1208 2742 
Q 947 2381 947 1747 
z
" transform="scale(0.015625)"/>
      </defs>
      <use xlink:href="#DejaVuSans-69"/>
      <use xlink:href="#DejaVuSans-6e" x="27.783203"/>
      <use xlink:href="#DejaVuSans-69" x="91.162109"/>
      <use xlink:href="#DejaVuSans-74" x="118.945312"/>
      <use xlink:href="#DejaVuSans-69" x="158.154297"/>
      <use xlink:href="#DejaVuSans-61" x="185.9375"/>
      <use xlink:href="#DejaVuSans-6c" x="247.216797"/>
      <use xlink:href="#DejaVuSans-20" x="275"/>
      <use xlink:href="#DejaVuSans-63" x="306.787109"/>
      <use xlink:href="#DejaVuSans-6f" x="361.767578"/>
      <use xlink:href="#DejaVuSans-6e" x="422.949219"/>
      <use xlink:href="#DejaVuSans-64" x="486.328125"/>
      <use xlink:href="#DejaVuSans-69" x="549.804688"/>
      <use xlink:href="#DejaVuSans-74" x="577.587891"/>
      <use xlink:href="#DejaVuSans-69" x="616.796875"/>
      <use xlink:href="#DejaVuSans-6f" x="644.580078"/>
      <use xlink:href="#DejaVuSans-6e" x="705.761719"/>
     </g>
    </g>
   </g>
   <g id="matplotlib.axis_2">
    <g id="text_2">
     <!-- boundary condition -->
     <g transform="translate(121.28675 93.149)rotate(-90)scale(0.08 -0.08)">
      <defs>
       <path id="DejaVuSans-62" d="M 3116 1747 
Q 3116 2381 2855 2742 
Q 2594 3103 2138 3103 
Q 1681 3103 1420 2742 
Q 1159 2381 1159 1747 
Q 1159 1113 1420 752 
Q 1681 391 2138 391 
Q 2594 391 2855 752 
Q 3116 1113 3116 1747 
z
M 1159 2969 
Q 1341 3281 1617 3432 
Q 1894 3584 2278 3584 
Q 2916 3584 3314 3078 
Q 3713 2572 3713 1747 
Q 3713 922 3314 415 
Q 2916 -91 2278 -91 
Q 1894 -91 1617 61 
Q 1341 213 1159 525 
L 1159 0 
L 581 0 
L 581 4863 
L 1159 4863 
L 1159 2969 
z
" transform="scale(0.015625)"/>
       <path id="DejaVuSans-75" d="M 544 1381 
L 544 3500 
L 1119 3500 
L 1119 1403 
Q 1119 906 1312 657 
Q 1506 409 1894 409 
Q 2359 409 2629 706 
Q 2900 1003 2900 1516 
L 2900 3500 
L 3475 3500 
L 3475 0 
L 2900 0 
L 2900 538 
Q 2691 219 2414 64 
Q 2138 -91 1772 -91 
Q 1169 -91 856 284 
Q 544 659 544 1381 
z
M 1991 3584 
L 1991 3584 
z
" transform="scale(0.015625)"/>
       <path id="DejaVuSans-72" d="M 2631 2963 
Q 2534 3019 2420 3045 
Q 2306 3072 2169 3072 
Q 1681 3072 1420 2755 
Q 1159 2438 1159 1844 
L 1159 0 
L 581 0 
L 581 3500 
L 1159 3500 
L 1159 2956 
Q 1341 3275 1631 3429 
Q 1922 3584 2338 3584 
Q 2397 3584 2469 3576 
Q 2541 3569 2628 3553 
L 2631 2963 
z
" transform="scale(0.015625)"/>
       <path id="DejaVuSans-79" d="M 2059 -325 
Q 1816 -950 1584 -1140 
Q 1353 -1331 966 -1331 
L 506 -1331 
L 506 -850 
L 844 -850 
Q 1081 -850 1212 -737 
Q 1344 -625 1503 -206 
L 1606 56 
L 191 3500 
L 800 3500 
L 1894 763 
L 2988 3500 
L 3597 3500 
L 2059 -325 
z
" transform="scale(0.015625)"/>
      </defs>
      <use xlink:href="#DejaVuSans-62"/>
      <use xlink:href="#DejaVuSans-6f" x="63.476562"/>
      <use xlink:href="#DejaVuSans-75" x="124.658203"/>
      <use xlink:href="#DejaVuSans-6e" x="188.037109"/>
      <use xlink:href="#DejaVuSans-64" x="251.416016"/>
      <use xlink:href="#DejaVuSans-61" x="314.892578"/>
      <use xlink:href="#DejaVuSans-72" x="376.171875"/>
      <use xlink:href="#DejaVuSans-79" x="417.285156"/>
      <use xlink:href="#DejaVuSans-20" x="476.464844"/>
      <use xlink:href="#DejaVuSans-63" x="508.251953"/>
      <use xlink:href="#DejaVuSans-6f" x="563.232422"/>
      <use xlink:href="#DejaVuSans-6e" x="624.414062"/>
      <use xlink:href="#DejaVuSans-64" x="687.792969"/>
      <use xlink:href="#DejaVuSans-69" x="751.269531"/>
      <use xlink:href="#DejaVuSans-74" x="779.052734"/>
      <use xlink:href="#DejaVuSans-69" x="818.261719"/>
      <use xlink:href="#DejaVuSans-6f" x="846.044922"/>
      <use xlink:href="#DejaVuSans-6e" x="907.226562"/>
     </g>
    </g>
   </g>
   <g id="patch_17">
    <path d="M 16.96 101.448 
L 16.96 7.2 
" style="fill: none; stroke: #000000; stroke-width: 0.6; stroke-linejoin: miter; stroke-linecap: square"/>
   </g>
   <g id="patch_18">
    <path d="M 111.208 101.448 
L 111.208 7.2 
" style="fill: none; stroke: #000000; stroke-width: 0.6; stroke-linejoin: miter; stroke-linecap: square"/>
   </g>
   <g id="patch_19">
    <path d="M 16.96 101.448 
L 111.208 101.448 
" style="fill: none; stroke: #000000; stroke-width: 0.6; stroke-linejoin: miter; stroke-linecap: square"/>
   </g>
   <g id="text_3">
    <!-- $x=a$ -->
    <g transform="translate(7.2 110.8728)scale(0.08 -0.08)">
     <defs>
      <path id="DejaVuSans-Oblique-78" d="M 3841 3500 
L 2234 1784 
L 3219 0 
L 2559 0 
L 1819 1388 
L 531 0 
L -166 0 
L 1556 1844 
L 641 3500 
L 1300 3500 
L 1972 2234 
L 3144 3500 
L 3841 3500 
z
" transform="scale(0.015625)"/>
      <path id="DejaVuSans-3d" d="M 678 2906 
L 4684 2906 
L 4684 2381 
L 678 2381 
L 678 2906 
z
M 678 1631 
L 4684 1631 
L 4684 1100 
L 678 1100 
L 678 1631 
z
" transform="scale(0.015625)"/>
      <path id="DejaVuSans-Oblique-61" d="M 3438 1997 
L 3047 0 
L 2472 0 
L 2578 531 
Q 2325 219 2001 64 
Q 1678 -91 1281 -91 
Q 834 -91 548 182 
Q 263 456 263 884 
Q 263 1497 752 1853 
Q 1241 2209 2100 2209 
L 2900 2209 
L 2931 2363 
Q 2938 2388 2941 2417 
Q 2944 2447 2944 2509 
Q 2944 2788 2717 2942 
Q 2491 3097 2081 3097 
Q 1800 3097 1504 3025 
Q 1209 2953 897 2809 
L 997 3341 
Q 1322 3463 1633 3523 
Q 1944 3584 2234 3584 
Q 2853 3584 3176 3315 
Q 3500 3047 3500 2534 
Q 3500 2431 3484 2292 
Q 3469 2153 3438 1997 
z
M 2816 1759 
L 2241 1759 
Q 1534 1759 1195 1570 
Q 856 1381 856 984 
Q 856 709 1029 553 
Q 1203 397 1509 397 
Q 1978 397 2328 733 
Q 2678 1069 2791 1631 
L 2816 1759 
z
" transform="scale(0.015625)"/>
     </defs>
     <use xlink:href="#DejaVuSans-Oblique-78"/>
     <use xlink:href="#DejaVuSans-3d" transform="translate(78.662109 0)"/>
     <use xlink:href="#DejaVuSans-Oblique-61" transform="translate(181.933594 0)"/>
    </g>
   </g>
   <g id="text_4">
    <!-- $x=b$ -->
    <g transform="translate(101.368 110.8728)scale(0.08 -0.08)">
     <defs>
      <path id="DejaVuSans-Oblique-62" d="M 3169 2138 
Q 3169 2591 2961 2847 
Q 2753 3103 2388 3103 
Q 2122 3103 1889 2973 
Q 1656 2844 1484 2597 
Q 1303 2338 1198 1995 
Q 1094 1653 1094 1313 
Q 1094 881 1298 636 
Q 1503 391 1863 391 
Q 2134 391 2365 517 
Q 2597 644 2772 891 
Q 2950 1147 3059 1487 
Q 3169 1828 3169 2138 
z
M 1381 2969 
Q 1594 3256 1914 3420 
Q 2234 3584 2584 3584 
Q 3122 3584 3439 3221 
Q 3756 2859 3756 2241 
Q 3756 1734 3570 1259 
Q 3384 784 3041 416 
Q 2816 172 2522 40 
Q 2228 -91 1906 -91 
Q 1566 -91 1316 65 
Q 1066 222 909 531 
L 806 0 
L 231 0 
L 1178 4863 
L 1753 4863 
L 1381 2969 
z
" transform="scale(0.015625)"/>
     </defs>
     <use xlink:href="#DejaVuSans-Oblique-78" transform="translate(0 0.015625)"/>
     <use xlink:href="#DejaVuSans-3d" transform="translate(78.662109 0.015625)"/>
     <use xlink:href="#DejaVuSans-Oblique-62" transform="translate(181.933594 0.015625)"/>
    </g>
   </g>
  </g>
 </g>
 <defs>
  <clipPath id="pdd9eddc89d">
   <rect x="16.96" y="7.2" width="94.248" height="94.248"/>
  </clipPath>
 </defs>
</svg>
