<?xml version="1.0" encoding="utf-8" standalone="no"?>
<!DOCTYPE svg PUBLIC "-//W3C//DTD SVG 1.1//EN"
  "http://www.w3.org/Graphics/SVG/1.1/DTD/svg11.dtd">
<svg xmlns:xlink="http://www.w3.org/1999/xlink" width="207.46625pt" height="164.892375pt" viewBox="0 0 207.46625 164.892375" xmlns="http://www.w3.org/2000/svg" version="1.1">
 <metadata>
  <rdf:RDF xmlns:dc="http://purl.org/dc/elements/1.1/" xmlns:cc="http://creativecommons.org/ns#" xmlns:rdf="http://www.w3.org/1999/02/22-rdf-syntax-ns#">
   <cc:Work>
    <dc:type rdf:resource="http://purl.org/dc/dcmitype/StillImage"/>
    <dc:format>image/svg+xml</dc:format>
    <dc:creator>
     <cc:Agent>
      <dc:title>Matplotlib v3.5.2, https://matplotlib.org/</dc:title>
     </cc:Agent>
    </dc:creator>
   </cc:Work>
  </rdf:RDF>
 </metadata>
 <defs>
  <style type="text/css">*{stroke-linejoin: round; stroke-linecap: butt}</style>
 </defs>
 <g id="figure_1">
  <g id="patch_1">
   <path d="M 0 164.892375 
L 207.46625 164.892375 
L 207.46625 0 
L 0 0 
L 0 164.892375 
z
" style="fill: none"/>
  </g>
  <g id="axes_1">
   <g id="patch_2">
    <path d="M 37.665 132.207375 
L 193.905 132.207375 
L 193.905 10.239375 
L 37.665 10.239375 
L 37.665 132.207375 
z
" style="fill: none"/>
   </g>
   <g id="matplotlib.axis_1">
    <g id="xtick_1">
     <g id="line2d_1">
      <defs>
       <path id="m4cd371f86f" d="M 0 0 
L 0 2.5 
" style="stroke: #000000; stroke-width: 0.6"/>
      </defs>
      <g>
       <use xlink:href="#m4cd371f86f" x="37.665" y="132.207375" style="stroke: #000000; stroke-width: 0.6"/>
      </g>
     </g>
     <g id="text_1">
      <!-- 0.0 -->
      <g transform="translate(31.30375 144.286125)scale(0.08 -0.08)">
       <defs>
        <path id="DejaVuSans-30" d="M 2034 4250 
Q 1547 4250 1301 3770 
Q 1056 3291 1056 2328 
Q 1056 1369 1301 889 
Q 1547 409 2034 409 
Q 2525 409 2770 889 
Q 3016 1369 3016 2328 
Q 3016 3291 2770 3770 
Q 2525 4250 2034 4250 
z
M 2034 4750 
Q 2819 4750 3233 4129 
Q 3647 3509 3647 2328 
Q 3647 1150 3233 529 
Q 2819 -91 2034 -91 
Q 1250 -91 836 529 
Q 422 1150 422 2328 
Q 422 3509 836 4129 
Q 1250 4750 2034 4750 
z
" transform="scale(0.015625)"/>
        <path id="DejaVuSans-2e" d="M 684 794 
L 1344 794 
L 1344 0 
L 684 0 
L 684 794 
z
" transform="scale(0.015625)"/>
       </defs>
       <use xlink:href="#DejaVuSans-30"/>
       <use xlink:href="#DejaVuSans-2e" x="63.623047"/>
       <use xlink:href="#DejaVuSans-30" x="95.410156"/>
      </g>
     </g>
    </g>
    <g id="xtick_2">
     <g id="line2d_2">
      <g>
       <use xlink:href="#m4cd371f86f" x="76.725" y="132.207375" style="stroke: #000000; stroke-width: 0.6"/>
      </g>
     </g>
     <g id="text_2">
      <!-- 0.5 -->
      <g transform="translate(70.36375 144.286125)scale(0.08 -0.08)">
       <defs>
        <path id="DejaVuSans-35" d="M 691 4666 
L 3169 4666 
L 3169 4134 
L 1269 4134 
L 1269 2991 
Q 1406 3038 1543 3061 
Q 1681 3084 1819 3084 
Q 2600 3084 3056 2656 
Q 3513 2228 3513 1497 
Q 3513 744 3044 326 
Q 2575 -91 1722 -91 
Q 1428 -91 1123 -41 
Q 819 9 494 109 
L 494 744 
Q 775 591 1075 516 
Q 1375 441 1709 441 
Q 2250 441 2565 725 
Q 2881 1009 2881 1497 
Q 2881 1984 2565 2268 
Q 2250 2553 1709 2553 
Q 1456 2553 1204 2497 
Q 953 2441 691 2322 
L 691 4666 
z
" transform="scale(0.015625)"/>
       </defs>
       <use xlink:href="#DejaVuSans-30"/>
       <use xlink:href="#DejaVuSans-2e" x="63.623047"/>
       <use xlink:href="#DejaVuSans-35" x="95.410156"/>
      </g>
     </g>
    </g>
    <g id="xtick_3">
     <g id="line2d_3">
      <g>
       <use xlink:href="#m4cd371f86f" x="115.785" y="132.207375" style="stroke: #000000; stroke-width: 0.6"/>
      </g>
     </g>
     <g id="text_3">
      <!-- 1.0 -->
      <g transform="translate(109.42375 144.286125)scale(0.08 -0.08)">
       <defs>
        <path id="DejaVuSans-31" d="M 794 531 
L 1825 531 
L 1825 4091 
L 703 3866 
L 703 4441 
L 1819 4666 
L 2450 4666 
L 2450 531 
L 3481 531 
L 3481 0 
L 794 0 
L 794 531 
z
" transform="scale(0.015625)"/>
       </defs>
       <use xlink:href="#DejaVuSans-31"/>
       <use xlink:href="#DejaVuSans-2e" x="63.623047"/>
       <use xlink:href="#DejaVuSans-30" x="95.410156"/>
      </g>
     </g>
    </g>
    <g id="xtick_4">
     <g id="line2d_4">
      <g>
       <use xlink:href="#m4cd371f86f" x="154.845" y="132.207375" style="stroke: #000000; stroke-width: 0.6"/>
      </g>
     </g>
     <g id="text_4">
      <!-- 1.5 -->
      <g transform="translate(148.48375 144.286125)scale(0.08 -0.08)">
       <use xlink:href="#DejaVuSans-31"/>
       <use xlink:href="#DejaVuSans-2e" x="63.623047"/>
       <use xlink:href="#DejaVuSans-35" x="95.410156"/>
      </g>
     </g>
    </g>
    <g id="xtick_5">
     <g id="line2d_5">
      <g>
       <use xlink:href="#m4cd371f86f" x="193.905" y="132.207375" style="stroke: #000000; stroke-width: 0.6"/>
      </g>
     </g>
     <g id="text_5">
      <!-- 2.0 -->
      <g transform="translate(187.54375 144.286125)scale(0.08 -0.08)">
       <defs>
        <path id="DejaVuSans-32" d="M 1228 531 
L 3431 531 
L 3431 0 
L 469 0 
L 469 531 
Q 828 903 1448 1529 
Q 2069 2156 2228 2338 
Q 2531 2678 2651 2914 
Q 2772 3150 2772 3378 
Q 2772 3750 2511 3984 
Q 2250 4219 1831 4219 
Q 1534 4219 1204 4116 
Q 875 4013 500 3803 
L 500 4441 
Q 881 4594 1212 4672 
Q 1544 4750 1819 4750 
Q 2544 4750 2975 4387 
Q 3406 4025 3406 3419 
Q 3406 3131 3298 2873 
Q 3191 2616 2906 2266 
Q 2828 2175 2409 1742 
Q 1991 1309 1228 531 
z
" transform="scale(0.015625)"/>
       </defs>
       <use xlink:href="#DejaVuSans-32"/>
       <use xlink:href="#DejaVuSans-2e" x="63.623047"/>
       <use xlink:href="#DejaVuSans-30" x="95.410156"/>
      </g>
     </g>
    </g>
    <g id="text_6">
     <!-- x -->
     <g transform="translate(113.4175 156.028625)scale(0.08 -0.08)">
      <defs>
       <path id="DejaVuSans-78" d="M 3513 3500 
L 2247 1797 
L 3578 0 
L 2900 0 
L 1881 1375 
L 863 0 
L 184 0 
L 1544 1831 
L 300 3500 
L 978 3500 
L 1906 2253 
L 2834 3500 
L 3513 3500 
z
" transform="scale(0.015625)"/>
      </defs>
      <use xlink:href="#DejaVuSans-78"/>
     </g>
    </g>
   </g>
   <g id="matplotlib.axis_2">
    <g id="ytick_1">
     <g id="line2d_6">
      <defs>
       <path id="m56f3a9ced1" d="M 0 0 
L -2.5 0 
" style="stroke: #000000; stroke-width: 0.6"/>
      </defs>
      <g>
       <use xlink:href="#m56f3a9ced1" x="37.665" y="132.207375" style="stroke: #000000; stroke-width: 0.6"/>
      </g>
     </g>
     <g id="text_7">
      <!-- 0.0 -->
      <g transform="translate(18.9425 135.24675)scale(0.08 -0.08)">
       <use xlink:href="#DejaVuSans-30"/>
       <use xlink:href="#DejaVuSans-2e" x="63.623047"/>
       <use xlink:href="#DejaVuSans-30" x="95.410156"/>
      </g>
     </g>
    </g>
    <g id="ytick_2">
     <g id="line2d_7">
      <g>
       <use xlink:href="#m56f3a9ced1" x="37.665" y="101.715375" style="stroke: #000000; stroke-width: 0.6"/>
      </g>
     </g>
     <g id="text_8">
      <!-- 0.5 -->
      <g transform="translate(18.9425 104.75475)scale(0.08 -0.08)">
       <use xlink:href="#DejaVuSans-30"/>
       <use xlink:href="#DejaVuSans-2e" x="63.623047"/>
       <use xlink:href="#DejaVuSans-35" x="95.410156"/>
      </g>
     </g>
    </g>
    <g id="ytick_3">
     <g id="line2d_8">
      <g>
       <use xlink:href="#m56f3a9ced1" x="37.665" y="71.223375" style="stroke: #000000; stroke-width: 0.6"/>
      </g>
     </g>
     <g id="text_9">
      <!-- 1.0 -->
      <g transform="translate(18.9425 74.26275)scale(0.08 -0.08)">
       <use xlink:href="#DejaVuSans-31"/>
       <use xlink:href="#DejaVuSans-2e" x="63.623047"/>
       <use xlink:href="#DejaVuSans-30" x="95.410156"/>
      </g>
     </g>
    </g>
    <g id="ytick_4">
     <g id="line2d_9">
      <g>
       <use xlink:href="#m56f3a9ced1" x="37.665" y="40.731375" style="stroke: #000000; stroke-width: 0.6"/>
      </g>
     </g>
     <g id="text_10">
      <!-- 1.5 -->
      <g transform="translate(18.9425 43.77075)scale(0.08 -0.08)">
       <use xlink:href="#DejaVuSans-31"/>
       <use xlink:href="#DejaVuSans-2e" x="63.623047"/>
       <use xlink:href="#DejaVuSans-35" x="95.410156"/>
      </g>
     </g>
    </g>
    <g id="ytick_5">
     <g id="line2d_10">
      <g>
       <use xlink:href="#m56f3a9ced1" x="37.665" y="10.239375" style="stroke: #000000; stroke-width: 0.6"/>
      </g>
     </g>
     <g id="text_11">
      <!-- 2.0 -->
      <g transform="translate(18.9425 13.27875)scale(0.08 -0.08)">
       <use xlink:href="#DejaVuSans-32"/>
       <use xlink:href="#DejaVuSans-2e" x="63.623047"/>
       <use xlink:href="#DejaVuSans-30" x="95.410156"/>
      </g>
     </g>
    </g>
    <g id="text_12">
     <!-- t -->
     <g transform="translate(13.27875 72.7915)rotate(-90)scale(0.08 -0.08)">
      <defs>
       <path id="DejaVuSans-74" d="M 1172 4494 
L 1172 3500 
L 2356 3500 
L 2356 3053 
L 1172 3053 
L 1172 1153 
Q 1172 725 1289 603 
Q 1406 481 1766 481 
L 2356 481 
L 2356 0 
L 1766 0 
Q 1100 0 847 248 
Q 594 497 594 1153 
L 594 3053 
L 172 3053 
L 172 3500 
L 594 3500 
L 594 4494 
L 1172 4494 
z
" transform="scale(0.015625)"/>
      </defs>
      <use xlink:href="#DejaVuSans-74"/>
     </g>
    </g>
   </g>
   <g id="line2d_11">
    <path d="M 37.665 132.207375 
L 32.669575 128.174365 
L 28.015807 124.141355 
L 23.703694 120.108345 
L 19.733238 116.075335 
L 16.42021 112.408962 
L 13.389543 108.742589 
L 10.641236 105.076217 
L 8.175289 101.409844 
L 5.991703 97.743471 
L 4.267893 94.443736 
L 2.772795 91.144 
L 1.506409 87.844265 
L 0.468735 84.544529 
L -0.340227 81.244794 
L -0.920478 77.945058 
L -1 77.353428 
M -1 65.091326 
L -0.464937 61.813018 
L 0.301672 58.513283 
L 1.296992 55.213547 
L 2.521024 51.913812 
L 3.973768 48.614076 
L 5.655223 45.314341 
L 7.565391 42.014605 
L 9.956041 38.348233 
L 12.629052 34.68186 
L 15.584424 31.015487 
L 18.822155 27.349114 
L 22.342247 23.682742 
L 26.540474 19.649732 
L 31.080358 15.616722 
L 35.961897 11.583712 
L 41.185092 7.550702 
L 46.749943 3.517692 
L 53.210347 -0.881956 
L 53.389591 -1 
L 53.389591 -1 
" clip-path="url(#p385df18e8d)" style="fill: none; stroke: #ff1f5b; stroke-linecap: square"/>
   </g>
   <g id="line2d_12">
    <path d="M 45.477 132.207375 
L 40.481575 128.174365 
L 35.827807 124.141355 
L 31.515694 120.108345 
L 27.545238 116.075335 
L 24.23221 112.408962 
L 21.201543 108.742589 
L 18.453236 105.076217 
L 15.987289 101.409844 
L 13.803703 97.743471 
L 12.079893 94.443736 
L 10.584795 91.144 
L 9.318409 87.844265 
L 8.280735 84.544529 
L 7.471773 81.244794 
L 6.891522 77.945058 
L 6.539984 74.645323 
L 6.417157 71.345587 
L 6.523042 68.045852 
L 6.857639 64.746116 
L 7.420948 61.446381 
L 8.212968 58.146646 
L 9.233701 54.84691 
L 10.483145 51.547175 
L 11.961302 48.247439 
L 13.66817 44.947704 
L 15.832932 41.281331 
L 18.280055 37.614958 
L 21.009538 33.948585 
L 24.021381 30.282213 
L 27.315585 26.61584 
L 30.892149 22.949467 
L 35.152495 18.916457 
L 39.754498 14.883447 
L 44.698156 10.850437 
L 49.983471 6.817427 
L 56.138925 2.41778 
L 61.201591 -1 
L 61.201591 -1 
" clip-path="url(#p385df18e8d)" style="fill: none; stroke: #ff1f5b; stroke-linecap: square"/>
   </g>
   <g id="line2d_13">
    <path d="M 53.289 132.207375 
L 48.293575 128.174365 
L 43.639807 124.141355 
L 39.327694 120.108345 
L 35.357238 116.075335 
L 32.04421 112.408962 
L 29.013543 108.742589 
L 26.265236 105.076217 
L 23.799289 101.409844 
L 21.615703 97.743471 
L 19.891893 94.443736 
L 18.396795 91.144 
L 17.130409 87.844265 
L 16.092735 84.544529 
L 15.283773 81.244794 
L 14.703522 77.945058 
L 14.351984 74.645323 
L 14.229157 71.345587 
L 14.335042 68.045852 
L 14.669639 64.746116 
L 15.232948 61.446381 
L 16.024968 58.146646 
L 17.045701 54.84691 
L 18.295145 51.547175 
L 19.773302 48.247439 
L 21.48017 44.947704 
L 23.644932 41.281331 
L 26.092055 37.614958 
L 28.821538 33.948585 
L 31.833381 30.282213 
L 35.127585 26.61584 
L 38.704149 22.949467 
L 42.964495 18.916457 
L 47.566498 14.883447 
L 52.510156 10.850437 
L 57.795471 6.817427 
L 63.950925 2.41778 
L 69.013591 -1 
L 69.013591 -1 
" clip-path="url(#p385df18e8d)" style="fill: none; stroke: #ff1f5b; stroke-linecap: square"/>
   </g>
   <g id="line2d_14">
    <path d="M 61.101 132.207375 
L 56.105575 128.174365 
L 51.451807 124.141355 
L 47.139694 120.108345 
L 43.169238 116.075335 
L 39.85621 112.408962 
L 36.825543 108.742589 
L 34.077236 105.076217 
L 31.611289 101.409844 
L 29.427703 97.743471 
L 27.703893 94.443736 
L 26.208795 91.144 
L 24.942409 87.844265 
L 23.904735 84.544529 
L 23.095773 81.244794 
L 22.515522 77.945058 
L 22.163984 74.645323 
L 22.041157 71.345587 
L 22.147042 68.045852 
L 22.481639 64.746116 
L 23.044948 61.446381 
L 23.836968 58.146646 
L 24.857701 54.84691 
L 26.107145 51.547175 
L 27.585302 48.247439 
L 29.29217 44.947704 
L 31.456932 41.281331 
L 33.904055 37.614958 
L 36.633538 33.948585 
L 39.645381 30.282213 
L 42.939585 26.61584 
L 46.516149 22.949467 
L 50.776495 18.916457 
L 55.378498 14.883447 
L 60.322156 10.850437 
L 65.607471 6.817427 
L 71.762925 2.41778 
L 76.825591 -1 
L 76.825591 -1 
" clip-path="url(#p385df18e8d)" style="fill: none; stroke: #ff1f5b; stroke-linecap: square"/>
   </g>
   <g id="line2d_15">
    <path d="M 68.913 132.207375 
L 63.917575 128.174365 
L 59.263807 124.141355 
L 54.951694 120.108345 
L 50.981238 116.075335 
L 47.66821 112.408962 
L 44.637543 108.742589 
L 41.889236 105.076217 
L 39.423289 101.409844 
L 37.239703 97.743471 
L 35.515893 94.443736 
L 34.020795 91.144 
L 32.754409 87.844265 
L 31.716735 84.544529 
L 30.907773 81.244794 
L 30.327522 77.945058 
L 29.975984 74.645323 
L 29.853157 71.345587 
L 29.959042 68.045852 
L 30.293639 64.746116 
L 30.856948 61.446381 
L 31.648968 58.146646 
L 32.669701 54.84691 
L 33.919145 51.547175 
L 35.397302 48.247439 
L 37.10417 44.947704 
L 39.268932 41.281331 
L 41.716055 37.614958 
L 44.445538 33.948585 
L 47.457381 30.282213 
L 50.751585 26.61584 
L 54.328149 22.949467 
L 58.588495 18.916457 
L 63.190498 14.883447 
L 68.134156 10.850437 
L 73.419471 6.817427 
L 79.574925 2.41778 
L 84.637591 -1 
L 84.637591 -1 
" clip-path="url(#p385df18e8d)" style="fill: none; stroke: #ff1f5b; stroke-linecap: square"/>
   </g>
   <g id="line2d_16">
    <path d="M 76.725 132.207375 
L 71.729575 128.174365 
L 67.075807 124.141355 
L 62.763694 120.108345 
L 58.793238 116.075335 
L 55.48021 112.408962 
L 52.449543 108.742589 
L 49.701236 105.076217 
L 47.235289 101.409844 
L 45.051703 97.743471 
L 43.327893 94.443736 
L 41.832795 91.144 
L 40.566409 87.844265 
L 39.528735 84.544529 
L 38.719773 81.244794 
L 38.139522 77.945058 
L 37.787984 74.645323 
L 37.665157 71.345587 
L 37.771042 68.045852 
L 38.105639 64.746116 
L 38.668948 61.446381 
L 39.460968 58.146646 
L 40.481701 54.84691 
L 41.731145 51.547175 
L 43.209302 48.247439 
L 44.91617 44.947704 
L 47.080932 41.281331 
L 49.528055 37.614958 
L 52.257538 33.948585 
L 55.269381 30.282213 
L 58.563585 26.61584 
L 62.140149 22.949467 
L 66.400495 18.916457 
L 71.002498 14.883447 
L 75.946156 10.850437 
L 81.231471 6.817427 
L 87.386925 2.41778 
L 92.449591 -1 
L 92.449591 -1 
" clip-path="url(#p385df18e8d)" style="fill: none; stroke: #ff1f5b; stroke-linecap: square"/>
   </g>
   <g id="line2d_17">
    <path d="M 84.537 132.207375 
L 79.541575 128.174365 
L 74.887807 124.141355 
L 70.575694 120.108345 
L 66.605238 116.075335 
L 63.29221 112.408962 
L 60.261543 108.742589 
L 57.513236 105.076217 
L 55.047289 101.409844 
L 52.863703 97.743471 
L 51.139893 94.443736 
L 49.644795 91.144 
L 48.378409 87.844265 
L 47.340735 84.544529 
L 46.531773 81.244794 
L 45.951522 77.945058 
L 45.599984 74.645323 
L 45.477157 71.345587 
L 45.583042 68.045852 
L 45.917639 64.746116 
L 46.480948 61.446381 
L 47.272968 58.146646 
L 48.293701 54.84691 
L 49.543145 51.547175 
L 51.021302 48.247439 
L 52.72817 44.947704 
L 54.892932 41.281331 
L 57.340055 37.614958 
L 60.069538 33.948585 
L 63.081381 30.282213 
L 66.375585 26.61584 
L 69.952149 22.949467 
L 74.212495 18.916457 
L 78.814498 14.883447 
L 83.758156 10.850437 
L 89.043471 6.817427 
L 95.198925 2.41778 
L 100.261591 -1 
L 100.261591 -1 
" clip-path="url(#p385df18e8d)" style="fill: none; stroke: #ff1f5b; stroke-linecap: square"/>
   </g>
   <g id="line2d_18">
    <path d="M 92.349 132.207375 
L 87.353575 128.174365 
L 82.699807 124.141355 
L 78.387694 120.108345 
L 74.417238 116.075335 
L 71.10421 112.408962 
L 68.073543 108.742589 
L 65.325236 105.076217 
L 62.859289 101.409844 
L 60.675703 97.743471 
L 58.951893 94.443736 
L 57.456795 91.144 
L 56.190409 87.844265 
L 55.152735 84.544529 
L 54.343773 81.244794 
L 53.763522 77.945058 
L 53.411984 74.645323 
L 53.289157 71.345587 
L 53.395042 68.045852 
L 53.729639 64.746116 
L 54.292948 61.446381 
L 55.084968 58.146646 
L 56.105701 54.84691 
L 57.355145 51.547175 
L 58.833302 48.247439 
L 60.54017 44.947704 
L 62.704932 41.281331 
L 65.152055 37.614958 
L 67.881538 33.948585 
L 70.893381 30.282213 
L 74.187585 26.61584 
L 77.764149 22.949467 
L 82.024495 18.916457 
L 86.626498 14.883447 
L 91.570156 10.850437 
L 96.855471 6.817427 
L 103.010925 2.41778 
L 108.073591 -1 
L 108.073591 -1 
" clip-path="url(#p385df18e8d)" style="fill: none; stroke: #ff1f5b; stroke-linecap: square"/>
   </g>
   <g id="line2d_19">
    <path d="M 100.161 132.207375 
L 95.165575 128.174365 
L 90.511807 124.141355 
L 86.199694 120.108345 
L 82.229238 116.075335 
L 78.91621 112.408962 
L 75.885543 108.742589 
L 73.137236 105.076217 
L 70.671289 101.409844 
L 68.487703 97.743471 
L 66.763893 94.443736 
L 65.268795 91.144 
L 64.002409 87.844265 
L 62.964735 84.544529 
L 62.155773 81.244794 
L 61.575522 77.945058 
L 61.223984 74.645323 
L 61.101157 71.345587 
L 61.207042 68.045852 
L 61.541639 64.746116 
L 62.104948 61.446381 
L 62.896968 58.146646 
L 63.917701 54.84691 
L 65.167145 51.547175 
L 66.645302 48.247439 
L 68.35217 44.947704 
L 70.516932 41.281331 
L 72.964055 37.614958 
L 75.693538 33.948585 
L 78.705381 30.282213 
L 81.999585 26.61584 
L 85.576149 22.949467 
L 89.836495 18.916457 
L 94.438498 14.883447 
L 99.382156 10.850437 
L 104.667471 6.817427 
L 110.822925 2.41778 
L 115.885591 -1 
L 115.885591 -1 
" clip-path="url(#p385df18e8d)" style="fill: none; stroke: #ff1f5b; stroke-linecap: square"/>
   </g>
   <g id="line2d_20">
    <path d="M 107.973 132.207375 
L 102.977575 128.174365 
L 98.323807 124.141355 
L 94.011694 120.108345 
L 90.041238 116.075335 
L 86.72821 112.408962 
L 83.697543 108.742589 
L 80.949236 105.076217 
L 78.483289 101.409844 
L 76.299703 97.743471 
L 74.575893 94.443736 
L 73.080795 91.144 
L 71.814409 87.844265 
L 70.776735 84.544529 
L 69.967773 81.244794 
L 69.387522 77.945058 
L 69.035984 74.645323 
L 68.913157 71.345587 
L 69.019042 68.045852 
L 69.353639 64.746116 
L 69.916948 61.446381 
L 70.708968 58.146646 
L 71.729701 54.84691 
L 72.979145 51.547175 
L 74.457302 48.247439 
L 76.16417 44.947704 
L 78.328932 41.281331 
L 80.776055 37.614958 
L 83.505538 33.948585 
L 86.517381 30.282213 
L 89.811585 26.61584 
L 93.388149 22.949467 
L 97.648495 18.916457 
L 102.250498 14.883447 
L 107.194156 10.850437 
L 112.479471 6.817427 
L 118.634925 2.41778 
L 123.697591 -1 
L 123.697591 -1 
" clip-path="url(#p385df18e8d)" style="fill: none; stroke: #ff1f5b; stroke-linecap: square"/>
   </g>
   <g id="line2d_21">
    <path d="M 115.785 132.207375 
L 110.789575 128.174365 
L 106.135807 124.141355 
L 101.823694 120.108345 
L 97.853238 116.075335 
L 94.54021 112.408962 
L 91.509543 108.742589 
L 88.761236 105.076217 
L 86.295289 101.409844 
L 84.111703 97.743471 
L 82.387893 94.443736 
L 80.892795 91.144 
L 79.626409 87.844265 
L 78.588735 84.544529 
L 77.779773 81.244794 
L 77.199522 77.945058 
L 76.847984 74.645323 
L 76.725157 71.345587 
L 76.831042 68.045852 
L 77.165639 64.746116 
L 77.728948 61.446381 
L 78.520968 58.146646 
L 79.541701 54.84691 
L 80.791145 51.547175 
L 82.269302 48.247439 
L 83.97617 44.947704 
L 86.140932 41.281331 
L 88.588055 37.614958 
L 91.317538 33.948585 
L 94.329381 30.282213 
L 97.623585 26.61584 
L 101.200149 22.949467 
L 105.460495 18.916457 
L 110.062498 14.883447 
L 115.006156 10.850437 
L 120.291471 6.817427 
L 126.446925 2.41778 
L 131.509591 -1 
L 131.509591 -1 
" clip-path="url(#p385df18e8d)" style="fill: none; stroke: #ff1f5b; stroke-linecap: square"/>
   </g>
   <g id="line2d_22">
    <path d="M 123.597 132.207375 
L 118.601575 128.174365 
L 113.947807 124.141355 
L 109.635694 120.108345 
L 105.665238 116.075335 
L 102.35221 112.408962 
L 99.321543 108.742589 
L 96.573236 105.076217 
L 94.107289 101.409844 
L 91.923703 97.743471 
L 90.199893 94.443736 
L 88.704795 91.144 
L 87.438409 87.844265 
L 86.400735 84.544529 
L 85.591773 81.244794 
L 85.011522 77.945058 
L 84.659984 74.645323 
L 84.537157 71.345587 
L 84.643042 68.045852 
L 84.977639 64.746116 
L 85.540948 61.446381 
L 86.332968 58.146646 
L 87.353701 54.84691 
L 88.603145 51.547175 
L 90.081302 48.247439 
L 91.78817 44.947704 
L 93.952932 41.281331 
L 96.400055 37.614958 
L 99.129538 33.948585 
L 102.141381 30.282213 
L 105.435585 26.61584 
L 109.012149 22.949467 
L 113.272495 18.916457 
L 117.874498 14.883447 
L 122.818156 10.850437 
L 128.103471 6.817427 
L 134.258925 2.41778 
L 139.321591 -1 
L 139.321591 -1 
" clip-path="url(#p385df18e8d)" style="fill: none; stroke: #ff1f5b; stroke-linecap: square"/>
   </g>
   <g id="line2d_23">
    <path d="M 131.409 132.207375 
L 126.413575 128.174365 
L 121.759807 124.141355 
L 117.447694 120.108345 
L 113.477238 116.075335 
L 110.16421 112.408962 
L 107.133543 108.742589 
L 104.385236 105.076217 
L 101.919289 101.409844 
L 99.735703 97.743471 
L 98.011893 94.443736 
L 96.516795 91.144 
L 95.250409 87.844265 
L 94.212735 84.544529 
L 93.403773 81.244794 
L 92.823522 77.945058 
L 92.471984 74.645323 
L 92.349157 71.345587 
L 92.455042 68.045852 
L 92.789639 64.746116 
L 93.352948 61.446381 
L 94.144968 58.146646 
L 95.165701 54.84691 
L 96.415145 51.547175 
L 97.893302 48.247439 
L 99.60017 44.947704 
L 101.764932 41.281331 
L 104.212055 37.614958 
L 106.941538 33.948585 
L 109.953381 30.282213 
L 113.247585 26.61584 
L 116.824149 22.949467 
L 121.084495 18.916457 
L 125.686498 14.883447 
L 130.630156 10.850437 
L 135.915471 6.817427 
L 142.070925 2.41778 
L 147.133591 -1 
L 147.133591 -1 
" clip-path="url(#p385df18e8d)" style="fill: none; stroke: #ff1f5b; stroke-linecap: square"/>
   </g>
   <g id="line2d_24">
    <path d="M 139.221 132.207375 
L 134.225575 128.174365 
L 129.571807 124.141355 
L 125.259694 120.108345 
L 121.289238 116.075335 
L 117.97621 112.408962 
L 114.945543 108.742589 
L 112.197236 105.076217 
L 109.731289 101.409844 
L 107.547703 97.743471 
L 105.823893 94.443736 
L 104.328795 91.144 
L 103.062409 87.844265 
L 102.024735 84.544529 
L 101.215773 81.244794 
L 100.635522 77.945058 
L 100.283984 74.645323 
L 100.161157 71.345587 
L 100.267042 68.045852 
L 100.601639 64.746116 
L 101.164948 61.446381 
L 101.956968 58.146646 
L 102.977701 54.84691 
L 104.227145 51.547175 
L 105.705302 48.247439 
L 107.41217 44.947704 
L 109.576932 41.281331 
L 112.024055 37.614958 
L 114.753538 33.948585 
L 117.765381 30.282213 
L 121.059585 26.61584 
L 124.636149 22.949467 
L 128.896495 18.916457 
L 133.498498 14.883447 
L 138.442156 10.850437 
L 143.727471 6.817427 
L 149.882925 2.41778 
L 154.945591 -1 
L 154.945591 -1 
" clip-path="url(#p385df18e8d)" style="fill: none; stroke: #ff1f5b; stroke-linecap: square"/>
   </g>
   <g id="line2d_25">
    <path d="M 147.033 132.207375 
L 142.037575 128.174365 
L 137.383807 124.141355 
L 133.071694 120.108345 
L 129.101238 116.075335 
L 125.78821 112.408962 
L 122.757543 108.742589 
L 120.009236 105.076217 
L 117.543289 101.409844 
L 115.359703 97.743471 
L 113.635893 94.443736 
L 112.140795 91.144 
L 110.874409 87.844265 
L 109.836735 84.544529 
L 109.027773 81.244794 
L 108.447522 77.945058 
L 108.095984 74.645323 
L 107.973157 71.345587 
L 108.079042 68.045852 
L 108.413639 64.746116 
L 108.976948 61.446381 
L 109.768968 58.146646 
L 110.789701 54.84691 
L 112.039145 51.547175 
L 113.517302 48.247439 
L 115.22417 44.947704 
L 117.388932 41.281331 
L 119.836055 37.614958 
L 122.565538 33.948585 
L 125.577381 30.282213 
L 128.871585 26.61584 
L 132.448149 22.949467 
L 136.708495 18.916457 
L 141.310498 14.883447 
L 146.254156 10.850437 
L 151.539471 6.817427 
L 157.694925 2.41778 
L 162.757591 -1 
L 162.757591 -1 
" clip-path="url(#p385df18e8d)" style="fill: none; stroke: #ff1f5b; stroke-linecap: square"/>
   </g>
   <g id="line2d_26">
    <path d="M 154.845 132.207375 
L 149.849575 128.174365 
L 145.195807 124.141355 
L 140.883694 120.108345 
L 136.913238 116.075335 
L 133.60021 112.408962 
L 130.569543 108.742589 
L 127.821236 105.076217 
L 125.355289 101.409844 
L 123.171703 97.743471 
L 121.447893 94.443736 
L 119.952795 91.144 
L 118.686409 87.844265 
L 117.648735 84.544529 
L 116.839773 81.244794 
L 116.259522 77.945058 
L 115.907984 74.645323 
L 115.785157 71.345587 
L 115.891042 68.045852 
L 116.225639 64.746116 
L 116.788948 61.446381 
L 117.580968 58.146646 
L 118.601701 54.84691 
L 119.851145 51.547175 
L 121.329302 48.247439 
L 123.03617 44.947704 
L 125.200932 41.281331 
L 127.648055 37.614958 
L 130.377538 33.948585 
L 133.389381 30.282213 
L 136.683585 26.61584 
L 140.260149 22.949467 
L 144.520495 18.916457 
L 149.122498 14.883447 
L 154.066156 10.850437 
L 159.351471 6.817427 
L 165.506925 2.41778 
L 170.569591 -1 
L 170.569591 -1 
" clip-path="url(#p385df18e8d)" style="fill: none; stroke: #ff1f5b; stroke-linecap: square"/>
   </g>
   <g id="line2d_27">
    <path d="M 162.657 132.207375 
L 157.661575 128.174365 
L 153.007807 124.141355 
L 148.695694 120.108345 
L 144.725238 116.075335 
L 141.41221 112.408962 
L 138.381543 108.742589 
L 135.633236 105.076217 
L 133.167289 101.409844 
L 130.983703 97.743471 
L 129.259893 94.443736 
L 127.764795 91.144 
L 126.498409 87.844265 
L 125.460735 84.544529 
L 124.651773 81.244794 
L 124.071522 77.945058 
L 123.719984 74.645323 
L 123.597157 71.345587 
L 123.703042 68.045852 
L 124.037639 64.746116 
L 124.600948 61.446381 
L 125.392968 58.146646 
L 126.413701 54.84691 
L 127.663145 51.547175 
L 129.141302 48.247439 
L 130.84817 44.947704 
L 133.012932 41.281331 
L 135.460055 37.614958 
L 138.189538 33.948585 
L 141.201381 30.282213 
L 144.495585 26.61584 
L 148.072149 22.949467 
L 152.332495 18.916457 
L 156.934498 14.883447 
L 161.878156 10.850437 
L 167.163471 6.817427 
L 173.318925 2.41778 
L 178.381591 -1 
L 178.381591 -1 
" clip-path="url(#p385df18e8d)" style="fill: none; stroke: #ff1f5b; stroke-linecap: square"/>
   </g>
   <g id="line2d_28">
    <path d="M 170.469 132.207375 
L 165.473575 128.174365 
L 160.819807 124.141355 
L 156.507694 120.108345 
L 152.537238 116.075335 
L 149.22421 112.408962 
L 146.193543 108.742589 
L 143.445236 105.076217 
L 140.979289 101.409844 
L 138.795703 97.743471 
L 137.071893 94.443736 
L 135.576795 91.144 
L 134.310409 87.844265 
L 133.272735 84.544529 
L 132.463773 81.244794 
L 131.883522 77.945058 
L 131.531984 74.645323 
L 131.409157 71.345587 
L 131.515042 68.045852 
L 131.849639 64.746116 
L 132.412948 61.446381 
L 133.204968 58.146646 
L 134.225701 54.84691 
L 135.475145 51.547175 
L 136.953302 48.247439 
L 138.66017 44.947704 
L 140.824932 41.281331 
L 143.272055 37.614958 
L 146.001538 33.948585 
L 149.013381 30.282213 
L 152.307585 26.61584 
L 155.884149 22.949467 
L 160.144495 18.916457 
L 164.746498 14.883447 
L 169.690156 10.850437 
L 174.975471 6.817427 
L 181.130925 2.41778 
L 186.193591 -1 
L 186.193591 -1 
" clip-path="url(#p385df18e8d)" style="fill: none; stroke: #ff1f5b; stroke-linecap: square"/>
   </g>
   <g id="line2d_29">
    <path d="M 178.281 132.207375 
L 173.285575 128.174365 
L 168.631807 124.141355 
L 164.319694 120.108345 
L 160.349238 116.075335 
L 157.03621 112.408962 
L 154.005543 108.742589 
L 151.257236 105.076217 
L 148.791289 101.409844 
L 146.607703 97.743471 
L 144.883893 94.443736 
L 143.388795 91.144 
L 142.122409 87.844265 
L 141.084735 84.544529 
L 140.275773 81.244794 
L 139.695522 77.945058 
L 139.343984 74.645323 
L 139.221157 71.345587 
L 139.327042 68.045852 
L 139.661639 64.746116 
L 140.224948 61.446381 
L 141.016968 58.146646 
L 142.037701 54.84691 
L 143.287145 51.547175 
L 144.765302 48.247439 
L 146.47217 44.947704 
L 148.636932 41.281331 
L 151.084055 37.614958 
L 153.813538 33.948585 
L 156.825381 30.282213 
L 160.119585 26.61584 
L 163.696149 22.949467 
L 167.956495 18.916457 
L 172.558498 14.883447 
L 177.502156 10.850437 
L 182.787471 6.817427 
L 188.942925 2.41778 
L 194.005591 -1 
L 194.005591 -1 
" clip-path="url(#p385df18e8d)" style="fill: none; stroke: #ff1f5b; stroke-linecap: square"/>
   </g>
   <g id="line2d_30">
    <path d="M 186.093 132.207375 
L 181.097575 128.174365 
L 176.443807 124.141355 
L 172.131694 120.108345 
L 168.161238 116.075335 
L 164.84821 112.408962 
L 161.817543 108.742589 
L 159.069236 105.076217 
L 156.603289 101.409844 
L 154.419703 97.743471 
L 152.695893 94.443736 
L 151.200795 91.144 
L 149.934409 87.844265 
L 148.896735 84.544529 
L 148.087773 81.244794 
L 147.507522 77.945058 
L 147.155984 74.645323 
L 147.033157 71.345587 
L 147.139042 68.045852 
L 147.473639 64.746116 
L 148.036948 61.446381 
L 148.828968 58.146646 
L 149.849701 54.84691 
L 151.099145 51.547175 
L 152.577302 48.247439 
L 154.28417 44.947704 
L 156.448932 41.281331 
L 158.896055 37.614958 
L 161.625538 33.948585 
L 164.637381 30.282213 
L 167.931585 26.61584 
L 171.508149 22.949467 
L 175.768495 18.916457 
L 180.370498 14.883447 
L 185.314156 10.850437 
L 190.599471 6.817427 
L 196.754925 2.41778 
L 201.817591 -1 
L 201.817591 -1 
" clip-path="url(#p385df18e8d)" style="fill: none; stroke: #ff1f5b; stroke-linecap: square"/>
   </g>
   <g id="line2d_31">
    <path d="M 193.905 132.207375 
L 188.909575 128.174365 
L 184.255807 124.141355 
L 179.943694 120.108345 
L 175.973238 116.075335 
L 172.66021 112.408962 
L 169.629543 108.742589 
L 166.881236 105.076217 
L 164.415289 101.409844 
L 162.231703 97.743471 
L 160.507893 94.443736 
L 159.012795 91.144 
L 157.746409 87.844265 
L 156.708735 84.544529 
L 155.899773 81.244794 
L 155.319522 77.945058 
L 154.967984 74.645323 
L 154.845157 71.345587 
L 154.951042 68.045852 
L 155.285639 64.746116 
L 155.848948 61.446381 
L 156.640968 58.146646 
L 157.661701 54.84691 
L 158.911145 51.547175 
L 160.389302 48.247439 
L 162.09617 44.947704 
L 164.260932 41.281331 
L 166.708055 37.614958 
L 169.437538 33.948585 
L 172.449381 30.282213 
L 175.743585 26.61584 
L 179.320149 22.949467 
L 183.580495 18.916457 
L 188.182498 14.883447 
L 193.126156 10.850437 
L 198.411471 6.817427 
L 204.566925 2.41778 
L 208.46625 -0.2291 
L 208.46625 -0.2291 
" clip-path="url(#p385df18e8d)" style="fill: none; stroke: #ff1f5b; stroke-linecap: square"/>
   </g>
   <g id="patch_3">
    <path d="M 37.665 132.207375 
L 37.665 10.239375 
" style="fill: none; stroke: #000000; stroke-width: 0.6; stroke-linejoin: miter; stroke-linecap: square"/>
   </g>
   <g id="patch_4">
    <path d="M 37.665 132.207375 
L 193.905 132.207375 
" style="fill: none; stroke: #000000; stroke-width: 0.6; stroke-linejoin: miter; stroke-linecap: square"/>
   </g>
  </g>
 </g>
 <defs>
  <clipPath id="p385df18e8d">
   <rect x="37.665" y="10.239375" width="156.24" height="121.968"/>
  </clipPath>
 </defs>
</svg>
