<?xml version="1.0" encoding="utf-8" standalone="no"?>
<!DOCTYPE svg PUBLIC "-//W3C//DTD SVG 1.1//EN"
  "http://www.w3.org/Graphics/SVG/1.1/DTD/svg11.dtd">
<svg xmlns:xlink="http://www.w3.org/1999/xlink" width="139.7275pt" height="134.133pt" viewBox="0 0 139.7275 134.133" xmlns="http://www.w3.org/2000/svg" version="1.1">
 <metadata>
  <rdf:RDF xmlns:dc="http://purl.org/dc/elements/1.1/" xmlns:cc="http://creativecommons.org/ns#" xmlns:rdf="http://www.w3.org/1999/02/22-rdf-syntax-ns#">
   <cc:Work>
    <dc:type rdf:resource="http://purl.org/dc/dcmitype/StillImage"/>
    <dc:format>image/svg+xml</dc:format>
    <dc:creator>
     <cc:Agent>
      <dc:title>Matplotlib v3.5.2, https://matplotlib.org/</dc:title>
     </cc:Agent>
    </dc:creator>
   </cc:Work>
  </rdf:RDF>
 </metadata>
 <defs>
  <style type="text/css">*{stroke-linejoin: round; stroke-linecap: butt}</style>
 </defs>
 <g id="figure_1">
  <g id="patch_1">
   <path d="M 0 134.133 
L 139.7275 134.133 
L 139.7275 0 
L 0 0 
L 0 134.133 
z
" style="fill: none"/>
  </g>
  <g id="axes_1">
   <g id="patch_2">
    <path d="M 35.1225 101.448 
L 129.9825 101.448 
L 129.9825 7.2 
L 35.1225 7.2 
L 35.1225 101.448 
z
" style="fill: none"/>
   </g>
   <g id="matplotlib.axis_1">
    <g id="xtick_1">
     <g id="line2d_1">
      <defs>
       <path id="m4cd371f86f" d="M 0 0 
L 0 2.5 
" style="stroke: #000000; stroke-width: 0.6"/>
      </defs>
      <g>
       <use xlink:href="#m4cd371f86f" x="35.1225" y="101.448" style="stroke: #000000; stroke-width: 0.6"/>
      </g>
     </g>
     <g id="text_1">
      <!-- -5 -->
      <g transform="translate(31.134375 113.52675)scale(0.08 -0.08)">
       <defs>
        <path id="DejaVuSans-2d" d="M 313 2009 
L 1997 2009 
L 1997 1497 
L 313 1497 
L 313 2009 
z
" transform="scale(0.015625)"/>
        <path id="DejaVuSans-35" d="M 691 4666 
L 3169 4666 
L 3169 4134 
L 1269 4134 
L 1269 2991 
Q 1406 3038 1543 3061 
Q 1681 3084 1819 3084 
Q 2600 3084 3056 2656 
Q 3513 2228 3513 1497 
Q 3513 744 3044 326 
Q 2575 -91 1722 -91 
Q 1428 -91 1123 -41 
Q 819 9 494 109 
L 494 744 
Q 775 591 1075 516 
Q 1375 441 1709 441 
Q 2250 441 2565 725 
Q 2881 1009 2881 1497 
Q 2881 1984 2565 2268 
Q 2250 2553 1709 2553 
Q 1456 2553 1204 2497 
Q 953 2441 691 2322 
L 691 4666 
z
" transform="scale(0.015625)"/>
       </defs>
       <use xlink:href="#DejaVuSans-2d"/>
       <use xlink:href="#DejaVuSans-35" x="36.083984"/>
      </g>
     </g>
    </g>
    <g id="xtick_2">
     <g id="line2d_2">
      <g>
       <use xlink:href="#m4cd371f86f" x="82.5525" y="101.448" style="stroke: #000000; stroke-width: 0.6"/>
      </g>
     </g>
     <g id="text_2">
      <!-- 0 -->
      <g transform="translate(80.0075 113.52675)scale(0.08 -0.08)">
       <defs>
        <path id="DejaVuSans-30" d="M 2034 4250 
Q 1547 4250 1301 3770 
Q 1056 3291 1056 2328 
Q 1056 1369 1301 889 
Q 1547 409 2034 409 
Q 2525 409 2770 889 
Q 3016 1369 3016 2328 
Q 3016 3291 2770 3770 
Q 2525 4250 2034 4250 
z
M 2034 4750 
Q 2819 4750 3233 4129 
Q 3647 3509 3647 2328 
Q 3647 1150 3233 529 
Q 2819 -91 2034 -91 
Q 1250 -91 836 529 
Q 422 1150 422 2328 
Q 422 3509 836 4129 
Q 1250 4750 2034 4750 
z
" transform="scale(0.015625)"/>
       </defs>
       <use xlink:href="#DejaVuSans-30"/>
      </g>
     </g>
    </g>
    <g id="xtick_3">
     <g id="line2d_3">
      <g>
       <use xlink:href="#m4cd371f86f" x="129.9825" y="101.448" style="stroke: #000000; stroke-width: 0.6"/>
      </g>
     </g>
     <g id="text_3">
      <!-- 5 -->
      <g transform="translate(127.4375 113.52675)scale(0.08 -0.08)">
       <use xlink:href="#DejaVuSans-35"/>
      </g>
     </g>
    </g>
    <g id="text_4">
     <!-- $x$ -->
     <g transform="translate(80.1525 125.26925)scale(0.08 -0.08)">
      <defs>
       <path id="DejaVuSans-Oblique-78" d="M 3841 3500 
L 2234 1784 
L 3219 0 
L 2559 0 
L 1819 1388 
L 531 0 
L -166 0 
L 1556 1844 
L 641 3500 
L 1300 3500 
L 1972 2234 
L 3144 3500 
L 3841 3500 
z
" transform="scale(0.015625)"/>
      </defs>
      <use xlink:href="#DejaVuSans-Oblique-78" transform="translate(0 0.3125)"/>
     </g>
    </g>
   </g>
   <g id="matplotlib.axis_2">
    <g id="ytick_1">
     <g id="line2d_4">
      <defs>
       <path id="m56f3a9ced1" d="M 0 0 
L -2.5 0 
" style="stroke: #000000; stroke-width: 0.6"/>
      </defs>
      <g>
       <use xlink:href="#m56f3a9ced1" x="35.1225" y="101.448" style="stroke: #000000; stroke-width: 0.6"/>
      </g>
     </g>
     <g id="text_5">
      <!-- 0 -->
      <g transform="translate(24.0325 104.487375)scale(0.08 -0.08)">
       <use xlink:href="#DejaVuSans-30"/>
      </g>
     </g>
    </g>
    <g id="ytick_2">
     <g id="line2d_5">
      <g>
       <use xlink:href="#m56f3a9ced1" x="35.1225" y="71.9955" style="stroke: #000000; stroke-width: 0.6"/>
      </g>
     </g>
     <g id="text_6">
      <!-- 5 -->
      <g transform="translate(24.0325 75.034875)scale(0.08 -0.08)">
       <use xlink:href="#DejaVuSans-35"/>
      </g>
     </g>
    </g>
    <g id="ytick_3">
     <g id="line2d_6">
      <g>
       <use xlink:href="#m56f3a9ced1" x="35.1225" y="42.543" style="stroke: #000000; stroke-width: 0.6"/>
      </g>
     </g>
     <g id="text_7">
      <!-- 10 -->
      <g transform="translate(18.9425 45.582375)scale(0.08 -0.08)">
       <defs>
        <path id="DejaVuSans-31" d="M 794 531 
L 1825 531 
L 1825 4091 
L 703 3866 
L 703 4441 
L 1819 4666 
L 2450 4666 
L 2450 531 
L 3481 531 
L 3481 0 
L 794 0 
L 794 531 
z
" transform="scale(0.015625)"/>
       </defs>
       <use xlink:href="#DejaVuSans-31"/>
       <use xlink:href="#DejaVuSans-30" x="63.623047"/>
      </g>
     </g>
    </g>
    <g id="ytick_4">
     <g id="line2d_7">
      <g>
       <use xlink:href="#m56f3a9ced1" x="35.1225" y="13.0905" style="stroke: #000000; stroke-width: 0.6"/>
      </g>
     </g>
     <g id="text_8">
      <!-- 15 -->
      <g transform="translate(18.9425 16.129875)scale(0.08 -0.08)">
       <use xlink:href="#DejaVuSans-31"/>
       <use xlink:href="#DejaVuSans-35" x="63.623047"/>
      </g>
     </g>
    </g>
    <g id="text_9">
     <!-- $t$ -->
     <g transform="translate(13.27875 55.924)rotate(-90)scale(0.08 -0.08)">
      <defs>
       <path id="DejaVuSans-Oblique-74" d="M 2706 3500 
L 2619 3053 
L 1472 3053 
L 1100 1153 
Q 1081 1047 1072 975 
Q 1063 903 1063 863 
Q 1063 663 1183 572 
Q 1303 481 1569 481 
L 2150 481 
L 2053 0 
L 1503 0 
Q 991 0 739 200 
Q 488 400 488 806 
Q 488 878 497 964 
Q 506 1050 525 1153 
L 897 3053 
L 409 3053 
L 500 3500 
L 978 3500 
L 1172 4494 
L 1747 4494 
L 1556 3500 
L 2706 3500 
z
" transform="scale(0.015625)"/>
      </defs>
      <use xlink:href="#DejaVuSans-Oblique-74" transform="translate(0 0.78125)"/>
     </g>
    </g>
   </g>
   <g id="PathCollection_1">
    <path d="M 44.608543 7.2 
L 47.452589 20.79891 
L 50.189803 32.88683 
L 52.936406 44.030381 
L 55.481221 53.474068 
L 58.055017 62.162261 
L 60.405827 69.340764 
L 62.743703 75.76117 
L 64.900296 81.049635 
L 66.892243 85.393731 
L 68.858223 89.171206 
L 70.671237 92.207167 
L 72.503821 94.837419 
L 74.093041 96.763415 
L 75.758556 98.42602 
L 77.18166 99.559263 
L 78.655446 100.453834 
L 79.986147 101.01686 
L 81.316849 101.348051 
L 82.64755 101.447409 
L 83.978252 101.314932 
L 85.308953 100.950621 
L 86.712195 100.314758 
L 87.970356 99.526498 
L 89.491157 98.296359 
L 91.045226 96.726156 
L 92.601179 94.837419 
L 94.243662 92.500508 
L 96.034446 89.548954 
L 97.855566 86.117976 
L 99.874712 81.80513 
L 101.84767 77.07645 
L 104.038155 71.2282 
L 106.2721 64.617619 
L 108.646868 56.873796 
L 111.026209 48.374477 
L 113.595577 38.364168 
L 116.183067 27.409491 
L 118.956688 14.694176 
L 120.496457 7.2 
L 120.496457 7.2 
" clip-path="url(#p789301ffdf)" style="fill: none; stroke: #ff1f5b"/>
   </g>
   <g id="PathCollection_2">
    <path d="M 47.059222 7.2 
L 49.80758 19.476794 
L 52.567267 30.809218 
L 55.130513 40.44178 
L 57.667941 49.129972 
L 60.042018 56.496048 
L 62.409725 63.106629 
L 64.588031 68.541126 
L 66.743389 73.305812 
L 68.688089 77.083287 
L 70.481137 80.128095 
L 72.273201 82.749499 
L 73.954374 84.82711 
L 75.423742 86.3403 
L 77.016487 87.660216 
L 78.465346 88.573477 
L 79.800596 89.171206 
L 81.212973 89.548954 
L 82.45745 89.666409 
L 83.788151 89.567051 
L 85.118853 89.23586 
L 86.449554 88.672834 
L 87.821704 87.84909 
L 89.301057 86.685686 
L 90.821859 85.190593 
L 92.401829 83.31612 
L 94.053562 81.008118 
L 95.886522 78.027655 
L 97.665466 74.715481 
L 99.675765 70.472705 
L 101.666501 65.750862 
L 103.878119 59.895776 
L 106.065971 53.474068 
L 108.459614 45.730244 
L 110.803744 37.4198 
L 113.39157 27.409491 
L 115.994868 16.454814 
L 118.045778 7.2 
L 118.045778 7.2 
" clip-path="url(#p789301ffdf)" style="fill: none; stroke: #00cd6c"/>
   </g>
   <g id="PathCollection_3">
    <path d="M 49.692158 7.2 
L 52.393336 18.343551 
L 54.940466 27.976112 
L 57.458676 36.664305 
L 59.835526 44.103882 
L 62.222589 50.829836 
L 64.397931 56.310652 
L 66.505474 61.029018 
L 68.519984 64.995367 
L 70.291037 68.044291 
L 72.047511 70.661579 
L 73.712841 72.770866 
L 75.2966 74.439054 
L 76.855989 75.76117 
L 78.275245 76.688388 
L 79.605947 77.317652 
L 80.936648 77.715082 
L 82.26735 77.880677 
L 83.598051 77.814439 
L 84.928753 77.516367 
L 86.259454 76.98646 
L 87.717839 76.138918 
L 89.110957 75.070281 
L 90.631759 73.613039 
L 92.198389 71.794822 
L 93.863462 69.510996 
L 95.627082 66.69523 
L 97.481851 63.295503 
L 99.474483 59.140281 
L 101.486356 54.418437 
L 103.648544 48.752224 
L 105.858035 42.330517 
L 108.270994 34.586693 
L 110.630833 26.276248 
L 113.233344 16.26594 
L 115.412842 7.2 
L 115.412842 7.2 
" clip-path="url(#p789301ffdf)" style="fill: none; stroke: #009ade"/>
   </g>
   <g id="PathCollection_4">
    <path d="M 52.55526 7.2 
L 55.117338 16.832561 
L 57.653459 25.520754 
L 60.02594 32.88683 
L 62.391827 39.497411 
L 64.588031 44.979126 
L 66.720532 49.696593 
L 68.6621 53.474068 
L 70.481137 56.566095 
L 72.238068 59.140281 
L 73.912214 61.217892 
L 75.57518 62.917756 
L 76.951066 64.050998 
L 78.465346 65.011477 
L 79.796047 65.607621 
L 81.126748 65.971932 
L 82.45745 66.104409 
L 83.788151 66.005051 
L 85.118853 65.67386 
L 86.449554 65.110834 
L 87.889461 64.239872 
L 89.301057 63.123686 
L 90.851951 61.595639 
L 92.438314 59.706902 
L 94.057317 57.440417 
L 95.805213 54.607311 
L 97.665466 51.153481 
L 99.696845 46.863487 
L 101.685285 42.141643 
L 103.895058 36.286557 
L 106.081271 29.86485 
L 108.417764 22.3099 
L 110.816477 13.810581 
L 112.54974 7.2 
L 112.54974 7.2 
" clip-path="url(#p789301ffdf)" style="fill: none; stroke: #af58ba"/>
   </g>
   <g id="patch_3">
    <path d="M 35.1225 101.448 
L 35.1225 7.2 
" style="fill: none; stroke: #000000; stroke-width: 0.6; stroke-linejoin: miter; stroke-linecap: square"/>
   </g>
   <g id="patch_4">
    <path d="M 35.1225 101.448 
L 129.9825 101.448 
" style="fill: none; stroke: #000000; stroke-width: 0.6; stroke-linejoin: miter; stroke-linecap: square"/>
   </g>
  </g>
 </g>
 <defs>
  <clipPath id="p789301ffdf">
   <rect x="35.1225" y="7.2" width="94.86" height="94.248"/>
  </clipPath>
 </defs>
</svg>
