<?xml version="1.0" encoding="utf-8" standalone="no"?>
<!DOCTYPE svg PUBLIC "-//W3C//DTD SVG 1.1//EN"
  "http://www.w3.org/Graphics/SVG/1.1/DTD/svg11.dtd">
<svg xmlns:xlink="http://www.w3.org/1999/xlink" width="136.91175pt" height="137.172375pt" viewBox="0 0 136.91175 137.172375" xmlns="http://www.w3.org/2000/svg" version="1.1">
 <metadata>
  <rdf:RDF xmlns:dc="http://purl.org/dc/elements/1.1/" xmlns:cc="http://creativecommons.org/ns#" xmlns:rdf="http://www.w3.org/1999/02/22-rdf-syntax-ns#">
   <cc:Work>
    <dc:type rdf:resource="http://purl.org/dc/dcmitype/StillImage"/>
    <dc:format>image/svg+xml</dc:format>
    <dc:creator>
     <cc:Agent>
      <dc:title>Matplotlib v3.5.2, https://matplotlib.org/</dc:title>
     </cc:Agent>
    </dc:creator>
   </cc:Work>
  </rdf:RDF>
 </metadata>
 <defs>
  <style type="text/css">*{stroke-linejoin: round; stroke-linecap: butt}</style>
 </defs>
 <g id="figure_1">
  <g id="patch_1">
   <path d="M 0 137.172375 
L 136.91175 137.172375 
L 136.91175 0 
L 0 0 
L 0 137.172375 
z
" style="fill: none"/>
  </g>
  <g id="axes_1">
   <g id="patch_2">
    <path d="M 32.91875 104.487375 
L 127.16675 104.487375 
L 127.16675 10.239375 
L 32.91875 10.239375 
L 32.91875 104.487375 
z
" style="fill: none"/>
   </g>
   <g id="PathCollection_1">
    <defs>
     <path id="mca4855891f" d="M 0 0.433013 
C 0.114836 0.433013 0.224985 0.387388 0.306186 0.306186 
C 0.387388 0.224985 0.433013 0.114836 0.433013 0 
C 0.433013 -0.114836 0.387388 -0.224985 0.306186 -0.306186 
C 0.224985 -0.387388 0.114836 -0.433013 0 -0.433013 
C -0.114836 -0.433013 -0.224985 -0.387388 -0.306186 -0.306186 
C -0.387388 -0.224985 -0.433013 -0.114836 -0.433013 0 
C -0.433013 0.114836 -0.387388 0.224985 -0.306186 0.306186 
C -0.224985 0.387388 -0.114836 0.433013 0 0.433013 
z
" style="stroke: #ff1f5b"/>
    </defs>
    <g clip-path="url(#p847a91f67d)">
     <use xlink:href="#mca4855891f" x="80.04275" y="57.363375" style="fill: #ff1f5b; stroke: #ff1f5b"/>
    </g>
   </g>
   <g id="matplotlib.axis_1">
    <g id="xtick_1">
     <g id="line2d_1">
      <defs>
       <path id="m4cd371f86f" d="M 0 0 
L 0 2.5 
" style="stroke: #000000; stroke-width: 0.6"/>
      </defs>
      <g>
       <use xlink:href="#m4cd371f86f" x="32.91875" y="104.487375" style="stroke: #000000; stroke-width: 0.6"/>
      </g>
     </g>
     <g id="text_1">
      <!-- -4 -->
      <g transform="translate(28.930625 116.566125)scale(0.08 -0.08)">
       <defs>
        <path id="DejaVuSans-2d" d="M 313 2009 
L 1997 2009 
L 1997 1497 
L 313 1497 
L 313 2009 
z
" transform="scale(0.015625)"/>
        <path id="DejaVuSans-34" d="M 2419 4116 
L 825 1625 
L 2419 1625 
L 2419 4116 
z
M 2253 4666 
L 3047 4666 
L 3047 1625 
L 3713 1625 
L 3713 1100 
L 3047 1100 
L 3047 0 
L 2419 0 
L 2419 1100 
L 313 1100 
L 313 1709 
L 2253 4666 
z
" transform="scale(0.015625)"/>
       </defs>
       <use xlink:href="#DejaVuSans-2d"/>
       <use xlink:href="#DejaVuSans-34" x="36.083984"/>
      </g>
     </g>
    </g>
    <g id="xtick_2">
     <g id="line2d_2">
      <g>
       <use xlink:href="#m4cd371f86f" x="56.48075" y="104.487375" style="stroke: #000000; stroke-width: 0.6"/>
      </g>
     </g>
     <g id="text_2">
      <!-- -2 -->
      <g transform="translate(52.492625 116.566125)scale(0.08 -0.08)">
       <defs>
        <path id="DejaVuSans-32" d="M 1228 531 
L 3431 531 
L 3431 0 
L 469 0 
L 469 531 
Q 828 903 1448 1529 
Q 2069 2156 2228 2338 
Q 2531 2678 2651 2914 
Q 2772 3150 2772 3378 
Q 2772 3750 2511 3984 
Q 2250 4219 1831 4219 
Q 1534 4219 1204 4116 
Q 875 4013 500 3803 
L 500 4441 
Q 881 4594 1212 4672 
Q 1544 4750 1819 4750 
Q 2544 4750 2975 4387 
Q 3406 4025 3406 3419 
Q 3406 3131 3298 2873 
Q 3191 2616 2906 2266 
Q 2828 2175 2409 1742 
Q 1991 1309 1228 531 
z
" transform="scale(0.015625)"/>
       </defs>
       <use xlink:href="#DejaVuSans-2d"/>
       <use xlink:href="#DejaVuSans-32" x="36.083984"/>
      </g>
     </g>
    </g>
    <g id="xtick_3">
     <g id="line2d_3">
      <g>
       <use xlink:href="#m4cd371f86f" x="80.04275" y="104.487375" style="stroke: #000000; stroke-width: 0.6"/>
      </g>
     </g>
     <g id="text_3">
      <!-- 0 -->
      <g transform="translate(77.49775 116.566125)scale(0.08 -0.08)">
       <defs>
        <path id="DejaVuSans-30" d="M 2034 4250 
Q 1547 4250 1301 3770 
Q 1056 3291 1056 2328 
Q 1056 1369 1301 889 
Q 1547 409 2034 409 
Q 2525 409 2770 889 
Q 3016 1369 3016 2328 
Q 3016 3291 2770 3770 
Q 2525 4250 2034 4250 
z
M 2034 4750 
Q 2819 4750 3233 4129 
Q 3647 3509 3647 2328 
Q 3647 1150 3233 529 
Q 2819 -91 2034 -91 
Q 1250 -91 836 529 
Q 422 1150 422 2328 
Q 422 3509 836 4129 
Q 1250 4750 2034 4750 
z
" transform="scale(0.015625)"/>
       </defs>
       <use xlink:href="#DejaVuSans-30"/>
      </g>
     </g>
    </g>
    <g id="xtick_4">
     <g id="line2d_4">
      <g>
       <use xlink:href="#m4cd371f86f" x="103.60475" y="104.487375" style="stroke: #000000; stroke-width: 0.6"/>
      </g>
     </g>
     <g id="text_4">
      <!-- 2 -->
      <g transform="translate(101.05975 116.566125)scale(0.08 -0.08)">
       <use xlink:href="#DejaVuSans-32"/>
      </g>
     </g>
    </g>
    <g id="xtick_5">
     <g id="line2d_5">
      <g>
       <use xlink:href="#m4cd371f86f" x="127.16675" y="104.487375" style="stroke: #000000; stroke-width: 0.6"/>
      </g>
     </g>
     <g id="text_5">
      <!-- 4 -->
      <g transform="translate(124.62175 116.566125)scale(0.08 -0.08)">
       <use xlink:href="#DejaVuSans-34"/>
      </g>
     </g>
    </g>
    <g id="text_6">
     <!-- $x$ -->
     <g transform="translate(77.64275 128.308625)scale(0.08 -0.08)">
      <defs>
       <path id="DejaVuSans-Oblique-78" d="M 3841 3500 
L 2234 1784 
L 3219 0 
L 2559 0 
L 1819 1388 
L 531 0 
L -166 0 
L 1556 1844 
L 641 3500 
L 1300 3500 
L 1972 2234 
L 3144 3500 
L 3841 3500 
z
" transform="scale(0.015625)"/>
      </defs>
      <use xlink:href="#DejaVuSans-Oblique-78" transform="translate(0 0.3125)"/>
     </g>
    </g>
   </g>
   <g id="matplotlib.axis_2">
    <g id="ytick_1">
     <g id="line2d_6">
      <defs>
       <path id="m56f3a9ced1" d="M 0 0 
L -2.5 0 
" style="stroke: #000000; stroke-width: 0.6"/>
      </defs>
      <g>
       <use xlink:href="#m56f3a9ced1" x="32.91875" y="104.487375" style="stroke: #000000; stroke-width: 0.6"/>
      </g>
     </g>
     <g id="text_7">
      <!-- -4 -->
      <g transform="translate(18.9425 107.52675)scale(0.08 -0.08)">
       <use xlink:href="#DejaVuSans-2d"/>
       <use xlink:href="#DejaVuSans-34" x="36.083984"/>
      </g>
     </g>
    </g>
    <g id="ytick_2">
     <g id="line2d_7">
      <g>
       <use xlink:href="#m56f3a9ced1" x="32.91875" y="80.925375" style="stroke: #000000; stroke-width: 0.6"/>
      </g>
     </g>
     <g id="text_8">
      <!-- -2 -->
      <g transform="translate(18.9425 83.96475)scale(0.08 -0.08)">
       <use xlink:href="#DejaVuSans-2d"/>
       <use xlink:href="#DejaVuSans-32" x="36.083984"/>
      </g>
     </g>
    </g>
    <g id="ytick_3">
     <g id="line2d_8">
      <g>
       <use xlink:href="#m56f3a9ced1" x="32.91875" y="57.363375" style="stroke: #000000; stroke-width: 0.6"/>
      </g>
     </g>
     <g id="text_9">
      <!-- 0 -->
      <g transform="translate(21.82875 60.40275)scale(0.08 -0.08)">
       <use xlink:href="#DejaVuSans-30"/>
      </g>
     </g>
    </g>
    <g id="ytick_4">
     <g id="line2d_9">
      <g>
       <use xlink:href="#m56f3a9ced1" x="32.91875" y="33.801375" style="stroke: #000000; stroke-width: 0.6"/>
      </g>
     </g>
     <g id="text_10">
      <!-- 2 -->
      <g transform="translate(21.82875 36.84075)scale(0.08 -0.08)">
       <use xlink:href="#DejaVuSans-32"/>
      </g>
     </g>
    </g>
    <g id="ytick_5">
     <g id="line2d_10">
      <g>
       <use xlink:href="#m56f3a9ced1" x="32.91875" y="10.239375" style="stroke: #000000; stroke-width: 0.6"/>
      </g>
     </g>
     <g id="text_11">
      <!-- 4 -->
      <g transform="translate(21.82875 13.27875)scale(0.08 -0.08)">
       <use xlink:href="#DejaVuSans-34"/>
      </g>
     </g>
    </g>
    <g id="text_12">
     <!-- $y$ -->
     <g transform="translate(13.2625 59.763375)rotate(-90)scale(0.08 -0.08)">
      <defs>
       <path id="DejaVuSans-Oblique-79" d="M 1588 -325 
Q 1188 -997 936 -1164 
Q 684 -1331 294 -1331 
L -159 -1331 
L -63 -850 
L 269 -850 
Q 509 -850 678 -719 
Q 847 -588 1056 -206 
L 1234 128 
L 459 3500 
L 1069 3500 
L 1650 819 
L 3256 3500 
L 3859 3500 
L 1588 -325 
z
" transform="scale(0.015625)"/>
      </defs>
      <use xlink:href="#DejaVuSans-Oblique-79" transform="translate(0 0.3125)"/>
     </g>
    </g>
   </g>
   <g id="PathCollection_2"/>
   <g id="PathCollection_3">
    <path d="M 78.059576 73.90569 
L 77.932676 73.889828 
L 77.870702 73.881992 
L 77.681828 73.855941 
L 77.492954 73.827718 
L 77.304081 73.797325 
L 77.115207 73.76476 
L 76.926333 73.730025 
L 76.77756 73.700954 
L 76.737459 73.693027 
L 76.548586 73.653496 
L 76.359712 73.611768 
L 76.170838 73.567843 
L 75.981964 73.521723 
L 75.94427 73.51208 
L 75.793091 73.472952 
L 75.604217 73.421845 
L 75.415343 73.368516 
L 75.261293 73.323207 
L 75.226469 73.312842 
L 75.037596 73.254382 
L 74.848722 73.193672 
L 74.670704 73.134333 
L 74.659848 73.130671 
L 74.470974 73.064679 
L 74.282101 72.996411 
L 74.145681 72.945459 
L 74.093227 72.925629 
L 73.904353 72.851922 
L 73.715479 72.775912 
L 73.668869 72.756585 
L 73.526606 72.69687 
L 73.337732 72.615258 
L 73.230753 72.567712 
L 73.148858 72.530859 
L 72.959984 72.443505 
L 72.823843 72.378838 
L 72.771111 72.353473 
L 72.582237 72.260231 
L 72.443459 72.189964 
L 72.393363 72.164274 
L 72.204489 72.064994 
L 72.085811 72.00109 
L 72.015616 71.962802 
L 71.826742 71.857327 
L 71.747799 71.812217 
L 71.637868 71.748573 
L 71.448994 71.63674 
L 71.426861 71.623343 
L 71.260121 71.521076 
L 71.121919 71.434469 
L 71.071247 71.402286 
L 70.882373 71.279773 
L 70.830758 71.245595 
L 70.693499 71.153463 
L 70.552257 71.056722 
L 70.504626 71.023644 
L 70.315752 70.889859 
L 70.285276 70.867848 
L 70.126878 70.751839 
L 70.029268 70.678974 
L 69.938005 70.609875 
L 69.782741 70.4901 
L 69.749131 70.463797 
L 69.560257 70.313245 
L 69.545449 70.301227 
L 69.371383 70.157879 
L 69.317072 70.112353 
L 69.18251 69.997875 
L 69.09657 69.923479 
L 68.993636 69.833022 
L 68.883543 69.734605 
L 68.804762 69.663097 
L 68.677617 69.545732 
L 68.615888 69.487861 
L 68.478442 69.356858 
L 68.427015 69.307063 
L 68.285692 69.167984 
L 68.238141 69.120433 
L 68.099062 68.97911 
L 68.049267 68.927683 
L 67.918264 68.790237 
L 67.860393 68.728508 
L 67.743028 68.601363 
L 67.67152 68.522582 
L 67.573103 68.412489 
L 67.482646 68.309555 
L 67.40825 68.223615 
L 67.293772 68.089053 
L 67.248246 68.034742 
L 67.104898 67.860676 
L 67.09288 67.845868 
L 66.942328 67.656994 
L 66.916025 67.623384 
L 66.79625 67.46812 
L 66.727151 67.376857 
L 66.654286 67.279247 
L 66.538277 67.120849 
L 66.516266 67.090373 
L 66.382481 66.901499 
L 66.349403 66.853868 
L 66.252662 66.712626 
L 66.16053 66.575367 
L 66.126352 66.523752 
L 66.003839 66.334878 
L 65.971656 66.284206 
L 65.885049 66.146004 
L 65.782782 65.979264 
L 65.769385 65.957131 
L 65.657552 65.768257 
L 65.593908 65.658326 
L 65.548798 65.579383 
L 65.443323 65.390509 
L 65.405035 65.320314 
L 65.341131 65.201636 
L 65.241851 65.012762 
L 65.216161 64.962666 
L 65.145894 64.823888 
L 65.052652 64.635014 
L 65.027287 64.582282 
L 64.96262 64.446141 
L 64.875266 64.257267 
L 64.838413 64.175372 
L 64.790867 64.068393 
L 64.709255 63.879519 
L 64.64954 63.737256 
L 64.630213 63.690646 
L 64.554203 63.501772 
L 64.480496 63.312898 
L 64.460666 63.260444 
L 64.409714 63.124024 
L 64.341446 62.935151 
L 64.275454 62.746277 
L 64.271792 62.735421 
L 64.212453 62.557403 
L 64.151743 62.368529 
L 64.093283 62.179656 
L 64.082918 62.144832 
L 64.037609 61.990782 
L 63.98428 61.801908 
L 63.933173 61.613034 
L 63.894045 61.461855 
L 63.884402 61.424161 
L 63.838282 61.235287 
L 63.794357 61.046413 
L 63.752629 60.857539 
L 63.713098 60.668666 
L 63.705171 60.628565 
L 63.6761 60.479792 
L 63.641365 60.290918 
L 63.6088 60.102044 
L 63.578407 59.913171 
L 63.550184 59.724297 
L 63.524133 59.535423 
L 63.516297 59.473449 
L 63.500435 59.346549 
L 63.478972 59.157676 
L 63.459655 58.968802 
L 63.442485 58.779928 
L 63.427461 58.591054 
L 63.414583 58.402181 
L 63.403851 58.213307 
L 63.395266 58.024433 
L 63.388827 57.835559 
L 63.384535 57.646686 
L 63.382389 57.457812 
L 63.382389 57.268938 
L 63.384535 57.080064 
L 63.388827 56.891191 
L 63.395266 56.702317 
L 63.403851 56.513443 
L 63.414583 56.324569 
L 63.427461 56.135696 
L 63.442485 55.946822 
L 63.459655 55.757948 
L 63.478972 55.569074 
L 63.500435 55.380201 
L 63.516297 55.253301 
L 63.524133 55.191327 
L 63.550184 55.002453 
L 63.578407 54.813579 
L 63.6088 54.624706 
L 63.641365 54.435832 
L 63.6761 54.246958 
L 63.705171 54.098185 
L 63.713098 54.058084 
L 63.752629 53.869211 
L 63.794357 53.680337 
L 63.838282 53.491463 
L 63.884402 53.302589 
L 63.894045 53.264895 
L 63.933173 53.113716 
L 63.98428 52.924842 
L 64.037609 52.735968 
L 64.082918 52.581918 
L 64.093283 52.547094 
L 64.151743 52.358221 
L 64.212453 52.169347 
L 64.271792 51.991329 
L 64.275454 51.980473 
L 64.341446 51.791599 
L 64.409714 51.602726 
L 64.460666 51.466306 
L 64.480496 51.413852 
L 64.554203 51.224978 
L 64.630213 51.036104 
L 64.64954 50.989494 
L 64.709255 50.847231 
L 64.790867 50.658357 
L 64.838413 50.551378 
L 64.875266 50.469483 
L 64.96262 50.280609 
L 65.027287 50.144468 
L 65.052652 50.091736 
L 65.145894 49.902862 
L 65.216161 49.764084 
L 65.241851 49.713988 
L 65.341131 49.525114 
L 65.405035 49.406436 
L 65.443323 49.336241 
L 65.548798 49.147367 
L 65.593908 49.068424 
L 65.657552 48.958493 
L 65.769385 48.769619 
L 65.782782 48.747486 
L 65.885049 48.580746 
L 65.971656 48.442544 
L 66.003839 48.391872 
L 66.126352 48.202998 
L 66.16053 48.151383 
L 66.252662 48.014124 
L 66.349403 47.872882 
L 66.382481 47.825251 
L 66.516266 47.636377 
L 66.538277 47.605901 
L 66.654286 47.447503 
L 66.727151 47.349893 
L 66.79625 47.25863 
L 66.916025 47.103366 
L 66.942328 47.069756 
L 67.09288 46.880882 
L 67.104898 46.866074 
L 67.248246 46.692008 
L 67.293772 46.637697 
L 67.40825 46.503135 
L 67.482646 46.417195 
L 67.573103 46.314261 
L 67.67152 46.204168 
L 67.743028 46.125387 
L 67.860393 45.998242 
L 67.918264 45.936513 
L 68.049267 45.799067 
L 68.099062 45.74764 
L 68.238141 45.606317 
L 68.285692 45.558766 
L 68.427015 45.419687 
L 68.478442 45.369892 
L 68.615888 45.238889 
L 68.677617 45.181018 
L 68.804762 45.063653 
L 68.883543 44.992145 
L 68.993636 44.893728 
L 69.09657 44.803271 
L 69.18251 44.728875 
L 69.317072 44.614397 
L 69.371383 44.568871 
L 69.545449 44.425523 
L 69.560257 44.413505 
L 69.749131 44.262953 
L 69.782741 44.23665 
L 69.938005 44.116875 
L 70.029268 44.047776 
L 70.126878 43.974911 
L 70.285276 43.858902 
L 70.315752 43.836891 
L 70.504626 43.703106 
L 70.552257 43.670028 
L 70.693499 43.573287 
L 70.830758 43.481155 
L 70.882373 43.446977 
L 71.071247 43.324464 
L 71.121919 43.292281 
L 71.260121 43.205674 
L 71.426861 43.103407 
L 71.448994 43.09001 
L 71.637868 42.978177 
L 71.747799 42.914533 
L 71.826742 42.869423 
L 72.015616 42.763948 
L 72.085811 42.72566 
L 72.204489 42.661756 
L 72.393363 42.562476 
L 72.443459 42.536786 
L 72.582237 42.466519 
L 72.771111 42.373277 
L 72.823843 42.347912 
L 72.959984 42.283245 
L 73.148858 42.195891 
L 73.230753 42.159038 
L 73.337732 42.111492 
L 73.526606 42.02988 
L 73.668869 41.970165 
L 73.715479 41.950838 
L 73.904353 41.874828 
L 74.093227 41.801121 
L 74.145681 41.781291 
L 74.282101 41.730339 
L 74.470974 41.662071 
L 74.659848 41.596079 
L 74.670704 41.592417 
L 74.848722 41.533078 
L 75.037596 41.472368 
L 75.226469 41.413908 
L 75.261293 41.403543 
L 75.415343 41.358234 
L 75.604217 41.304905 
L 75.793091 41.253798 
L 75.94427 41.21467 
L 75.981964 41.205027 
L 76.170838 41.158907 
L 76.359712 41.114982 
L 76.548586 41.073254 
L 76.737459 41.033723 
L 76.77756 41.025796 
L 76.926333 40.996725 
L 77.115207 40.96199 
L 77.304081 40.929425 
L 77.492954 40.899032 
L 77.681828 40.870809 
L 77.870702 40.844758 
L 77.932676 40.836922 
L 78.059576 40.82106 
L 78.248449 40.799597 
L 78.437323 40.78028 
L 78.626197 40.76311 
L 78.815071 40.748086 
L 79.003944 40.735208 
L 79.192818 40.724476 
L 79.381692 40.715891 
L 79.570566 40.709452 
L 79.759439 40.70516 
L 79.948313 40.703014 
L 80.137187 40.703014 
L 80.326061 40.70516 
L 80.514934 40.709452 
L 80.703808 40.715891 
L 80.892682 40.724476 
L 81.081556 40.735208 
L 81.270429 40.748086 
L 81.459303 40.76311 
L 81.648177 40.78028 
L 81.837051 40.799597 
L 82.025924 40.82106 
L 82.152824 40.836922 
L 82.214798 40.844758 
L 82.403672 40.870809 
L 82.592546 40.899032 
L 82.781419 40.929425 
L 82.970293 40.96199 
L 83.159167 40.996725 
L 83.30794 41.025796 
L 83.348041 41.033723 
L 83.536914 41.073254 
L 83.725788 41.114982 
L 83.914662 41.158907 
L 84.103536 41.205027 
L 84.14123 41.21467 
L 84.292409 41.253798 
L 84.481283 41.304905 
L 84.670157 41.358234 
L 84.824207 41.403543 
L 84.859031 41.413908 
L 85.047904 41.472368 
L 85.236778 41.533078 
L 85.414796 41.592417 
L 85.425652 41.596079 
L 85.614526 41.662071 
L 85.803399 41.730339 
L 85.939819 41.781291 
L 85.992273 41.801121 
L 86.181147 41.874828 
L 86.370021 41.950838 
L 86.416631 41.970165 
L 86.558894 42.02988 
L 86.747768 42.111492 
L 86.854747 42.159038 
L 86.936642 42.195891 
L 87.125516 42.283245 
L 87.261657 42.347912 
L 87.314389 42.373277 
L 87.503263 42.466519 
L 87.642041 42.536786 
L 87.692137 42.562476 
L 87.881011 42.661756 
L 87.999689 42.72566 
L 88.069884 42.763948 
L 88.258758 42.869423 
L 88.337701 42.914533 
L 88.447632 42.978177 
L 88.636506 43.09001 
L 88.658639 43.103407 
L 88.825379 43.205674 
L 88.963581 43.292281 
L 89.014253 43.324464 
L 89.203127 43.446977 
L 89.254742 43.481155 
L 89.392001 43.573287 
L 89.533243 43.670028 
L 89.580874 43.703106 
L 89.769748 43.836891 
L 89.800224 43.858902 
L 89.958622 43.974911 
L 90.056232 44.047776 
L 90.147495 44.116875 
L 90.302759 44.23665 
L 90.336369 44.262953 
L 90.525243 44.413505 
L 90.540051 44.425523 
L 90.714117 44.568871 
L 90.768428 44.614397 
L 90.90299 44.728875 
L 90.98893 44.803271 
L 91.091864 44.893728 
L 91.201957 44.992145 
L 91.280738 45.063653 
L 91.407883 45.181018 
L 91.469612 45.238889 
L 91.607058 45.369892 
L 91.658485 45.419687 
L 91.799808 45.558766 
L 91.847359 45.606317 
L 91.986438 45.74764 
L 92.036233 45.799067 
L 92.167236 45.936513 
L 92.225107 45.998242 
L 92.342472 46.125387 
L 92.41398 46.204168 
L 92.512397 46.314261 
L 92.602854 46.417195 
L 92.67725 46.503135 
L 92.791728 46.637697 
L 92.837254 46.692008 
L 92.980602 46.866074 
L 92.99262 46.880882 
L 93.143172 47.069756 
L 93.169475 47.103366 
L 93.28925 47.25863 
L 93.358349 47.349893 
L 93.431214 47.447503 
L 93.547223 47.605901 
L 93.569234 47.636377 
L 93.703019 47.825251 
L 93.736097 47.872882 
L 93.832838 48.014124 
L 93.92497 48.151383 
L 93.959148 48.202998 
L 94.081661 48.391872 
L 94.113844 48.442544 
L 94.200451 48.580746 
L 94.302718 48.747486 
L 94.316115 48.769619 
L 94.427948 48.958493 
L 94.491592 49.068424 
L 94.536702 49.147367 
L 94.642177 49.336241 
L 94.680465 49.406436 
L 94.744369 49.525114 
L 94.843649 49.713988 
L 94.869339 49.764084 
L 94.939606 49.902862 
L 95.032848 50.091736 
L 95.058213 50.144468 
L 95.12288 50.280609 
L 95.210234 50.469483 
L 95.247087 50.551378 
L 95.294633 50.658357 
L 95.376245 50.847231 
L 95.43596 50.989494 
L 95.455287 51.036104 
L 95.531297 51.224978 
L 95.605004 51.413852 
L 95.624834 51.466306 
L 95.675786 51.602726 
L 95.744054 51.791599 
L 95.810046 51.980473 
L 95.813708 51.991329 
L 95.873047 52.169347 
L 95.933757 52.358221 
L 95.992217 52.547094 
L 96.002582 52.581918 
L 96.047891 52.735968 
L 96.10122 52.924842 
L 96.152327 53.113716 
L 96.191455 53.264895 
L 96.201098 53.302589 
L 96.247218 53.491463 
L 96.291143 53.680337 
L 96.332871 53.869211 
L 96.372402 54.058084 
L 96.380329 54.098185 
L 96.4094 54.246958 
L 96.444135 54.435832 
L 96.4767 54.624706 
L 96.507093 54.813579 
L 96.535316 55.002453 
L 96.561367 55.191327 
L 96.569203 55.253301 
L 96.585065 55.380201 
L 96.606528 55.569074 
L 96.625845 55.757948 
L 96.643015 55.946822 
L 96.658039 56.135696 
L 96.670917 56.324569 
L 96.681649 56.513443 
L 96.690234 56.702317 
L 96.696673 56.891191 
L 96.700965 57.080064 
L 96.703111 57.268938 
L 96.703111 57.457812 
L 96.700965 57.646686 
L 96.696673 57.835559 
L 96.690234 58.024433 
L 96.681649 58.213307 
L 96.670917 58.402181 
L 96.658039 58.591054 
L 96.643015 58.779928 
L 96.625845 58.968802 
L 96.606528 59.157676 
L 96.585065 59.346549 
L 96.569203 59.473449 
L 96.561367 59.535423 
L 96.535316 59.724297 
L 96.507093 59.913171 
L 96.4767 60.102044 
L 96.444135 60.290918 
L 96.4094 60.479792 
L 96.380329 60.628565 
L 96.372402 60.668666 
L 96.332871 60.857539 
L 96.291143 61.046413 
L 96.247218 61.235287 
L 96.201098 61.424161 
L 96.191455 61.461855 
L 96.152327 61.613034 
L 96.10122 61.801908 
L 96.047891 61.990782 
L 96.002582 62.144832 
L 95.992217 62.179656 
L 95.933757 62.368529 
L 95.873047 62.557403 
L 95.813708 62.735421 
L 95.810046 62.746277 
L 95.744054 62.935151 
L 95.675786 63.124024 
L 95.624834 63.260444 
L 95.605004 63.312898 
L 95.531297 63.501772 
L 95.455287 63.690646 
L 95.43596 63.737256 
L 95.376245 63.879519 
L 95.294633 64.068393 
L 95.247087 64.175372 
L 95.210234 64.257267 
L 95.12288 64.446141 
L 95.058213 64.582282 
L 95.032848 64.635014 
L 94.939606 64.823888 
L 94.869339 64.962666 
L 94.843649 65.012762 
L 94.744369 65.201636 
L 94.680465 65.320314 
L 94.642177 65.390509 
L 94.536702 65.579383 
L 94.491592 65.658326 
L 94.427948 65.768257 
L 94.316115 65.957131 
L 94.302718 65.979264 
L 94.200451 66.146004 
L 94.113844 66.284206 
L 94.081661 66.334878 
L 93.959148 66.523752 
L 93.92497 66.575367 
L 93.832838 66.712626 
L 93.736097 66.853868 
L 93.703019 66.901499 
L 93.569234 67.090373 
L 93.547223 67.120849 
L 93.431214 67.279247 
L 93.358349 67.376857 
L 93.28925 67.46812 
L 93.169475 67.623384 
L 93.143172 67.656994 
L 92.99262 67.845868 
L 92.980602 67.860676 
L 92.837254 68.034742 
L 92.791728 68.089053 
L 92.67725 68.223615 
L 92.602854 68.309555 
L 92.512397 68.412489 
L 92.41398 68.522582 
L 92.342472 68.601363 
L 92.225107 68.728508 
L 92.167236 68.790237 
L 92.036233 68.927683 
L 91.986438 68.97911 
L 91.847359 69.120433 
L 91.799808 69.167984 
L 91.658485 69.307063 
L 91.607058 69.356858 
L 91.469612 69.487861 
L 91.407883 69.545732 
L 91.280738 69.663097 
L 91.201957 69.734605 
L 91.091864 69.833022 
L 90.98893 69.923479 
L 90.90299 69.997875 
L 90.768428 70.112353 
L 90.714117 70.157879 
L 90.540051 70.301227 
L 90.525243 70.313245 
L 90.336369 70.463797 
L 90.302759 70.4901 
L 90.147495 70.609875 
L 90.056232 70.678974 
L 89.958622 70.751839 
L 89.800224 70.867848 
L 89.769748 70.889859 
L 89.580874 71.023644 
L 89.533243 71.056722 
L 89.392001 71.153463 
L 89.254742 71.245595 
L 89.203127 71.279773 
L 89.014253 71.402286 
L 88.963581 71.434469 
L 88.825379 71.521076 
L 88.658639 71.623343 
L 88.636506 71.63674 
L 88.447632 71.748573 
L 88.337701 71.812217 
L 88.258758 71.857327 
L 88.069884 71.962802 
L 87.999689 72.00109 
L 87.881011 72.064994 
L 87.692137 72.164274 
L 87.642041 72.189964 
L 87.503263 72.260231 
L 87.314389 72.353473 
L 87.261657 72.378838 
L 87.125516 72.443505 
L 86.936642 72.530859 
L 86.854747 72.567712 
L 86.747768 72.615258 
L 86.558894 72.69687 
L 86.416631 72.756585 
L 86.370021 72.775912 
L 86.181147 72.851922 
L 85.992273 72.925629 
L 85.939819 72.945459 
L 85.803399 72.996411 
L 85.614526 73.064679 
L 85.425652 73.130671 
L 85.414796 73.134333 
L 85.236778 73.193672 
L 85.047904 73.254382 
L 84.859031 73.312842 
L 84.824207 73.323207 
L 84.670157 73.368516 
L 84.481283 73.421845 
L 84.292409 73.472952 
L 84.14123 73.51208 
L 84.103536 73.521723 
L 83.914662 73.567843 
L 83.725788 73.611768 
L 83.536914 73.653496 
L 83.348041 73.693027 
L 83.30794 73.700954 
L 83.159167 73.730025 
L 82.970293 73.76476 
L 82.781419 73.797325 
L 82.592546 73.827718 
L 82.403672 73.855941 
L 82.214798 73.881992 
L 82.152824 73.889828 
L 82.025924 73.90569 
L 81.837051 73.927153 
L 81.648177 73.94647 
L 81.459303 73.96364 
L 81.270429 73.978664 
L 81.081556 73.991542 
L 80.892682 74.002274 
L 80.703808 74.010859 
L 80.514934 74.017298 
L 80.326061 74.02159 
L 80.137187 74.023736 
L 79.948313 74.023736 
L 79.759439 74.02159 
L 79.570566 74.017298 
L 79.381692 74.010859 
L 79.192818 74.002274 
L 79.003944 73.991542 
L 78.815071 73.978664 
L 78.626197 73.96364 
L 78.437323 73.94647 
L 78.248449 73.927153 
L 78.059576 73.90569 
z
" clip-path="url(#p847a91f67d)" style="fill: none; stroke: #00cd6c"/>
   </g>
   <g id="PathCollection_4">
    <path d="M 78.626197 80.882737 
L 76.359712 80.635586 
L 74.093227 80.161734 
L 72.015616 79.515733 
L 69.860947 78.611672 
L 67.860393 77.53144 
L 65.971656 76.262141 
L 64.233497 74.834197 
L 62.571928 73.172628 
L 61.143984 71.434469 
L 59.874685 69.545732 
L 58.757629 67.46812 
L 57.850085 65.278225 
L 57.196002 63.124024 
L 56.741363 60.857539 
L 56.512811 58.591054 
L 56.503745 56.324569 
L 56.716842 54.036771 
L 57.149174 51.791599 
L 57.822824 49.525114 
L 58.669042 47.447503 
L 59.761714 45.369892 
L 61.060938 43.404504 
L 62.53734 41.592417 
L 64.082918 40.030039 
L 65.830551 38.570437 
L 67.77313 37.248321 
L 69.749131 36.16899 
L 71.826742 35.280432 
L 74.093227 34.565016 
L 76.359712 34.091164 
L 78.626197 33.844013 
L 80.892682 33.816815 
L 83.159167 34.008479 
L 85.425652 34.424532 
L 87.692137 35.077823 
L 89.820712 35.926205 
L 91.847359 36.971951 
L 93.741352 38.19269 
L 95.624834 39.689552 
L 97.200231 41.21467 
L 98.654505 42.914533 
L 99.977895 44.803271 
L 101.144385 46.880882 
L 102.054664 48.958493 
L 102.791068 51.224978 
L 103.28425 53.491463 
L 103.549963 55.757948 
L 103.595354 58.024433 
L 103.422017 60.290918 
L 103.025018 62.557403 
L 102.392327 64.823888 
L 101.587663 66.901499 
L 100.535552 68.991391 
L 99.350519 70.867848 
L 97.881335 72.756585 
L 96.259606 74.456449 
L 94.491592 75.97513 
L 92.602854 77.29852 
L 90.525243 78.46501 
L 88.447632 79.375289 
L 86.181147 80.111693 
L 83.914662 80.604875 
L 81.648177 80.870588 
L 79.381692 80.915979 
L 78.626197 80.882737 
L 78.626197 80.882737 
" clip-path="url(#p847a91f67d)" style="fill: none; stroke: #009ade"/>
   </g>
   <g id="PathCollection_5">
    <path d="M 78.437323 86.176092 
L 78.276321 86.166621 
L 78.248449 86.164971 
L 78.059576 86.152545 
L 77.870702 86.138877 
L 77.681828 86.123966 
L 77.492954 86.107812 
L 77.304081 86.090416 
L 77.115207 86.071777 
L 76.926333 86.051895 
L 76.737459 86.030771 
L 76.548586 86.008405 
L 76.359712 85.984796 
L 76.306149 85.977748 
L 76.170838 85.959826 
L 75.981964 85.933559 
L 75.793091 85.906041 
L 75.604217 85.877272 
L 75.415343 85.847252 
L 75.226469 85.815982 
L 75.069037 85.788874 
L 75.037596 85.783424 
L 74.848722 85.749427 
L 74.659848 85.71417 
L 74.470974 85.677655 
L 74.282101 85.63988 
L 74.093227 85.600846 
L 74.089261 85.6 
L 73.904353 85.560288 
L 73.715479 85.518457 
L 73.526606 85.475359 
L 73.337732 85.430992 
L 73.25551 85.411127 
L 73.148858 85.385184 
L 72.959984 85.337966 
L 72.771111 85.289471 
L 72.582237 85.2397 
L 72.517681 85.222253 
L 72.393363 85.188425 
L 72.204489 85.135746 
L 72.015616 85.081782 
L 71.850145 85.033379 
L 71.826742 85.026486 
L 71.637868 84.969565 
L 71.448994 84.911351 
L 71.260121 84.851843 
L 71.237328 84.844505 
L 71.071247 84.790672 
L 70.882373 84.728148 
L 70.693499 84.664322 
L 70.668297 84.655632 
L 70.504626 84.598801 
L 70.315752 84.531909 
L 70.135334 84.466758 
L 70.126878 84.463683 
L 69.938005 84.393681 
L 69.749131 84.322358 
L 69.633499 84.277884 
L 69.560257 84.249516 
L 69.371383 84.17503 
L 69.18251 84.099215 
L 69.157526 84.08901 
L 68.993636 84.021594 
L 68.804762 83.942562 
L 68.705062 83.900137 
L 68.615888 83.861919 
L 68.427015 83.779624 
L 68.27265 83.711263 
L 68.238141 83.69587 
L 68.049267 83.610265 
L 67.860393 83.523302 
L 67.858441 83.522389 
L 67.67152 83.434346 
L 67.482646 83.344015 
L 67.461019 83.333515 
L 67.293772 83.251723 
L 67.104898 83.157976 
L 67.078423 83.144642 
L 66.916025 83.062248 
L 66.727151 82.965034 
L 66.709402 82.955768 
L 66.538277 82.865769 
L 66.352887 82.766894 
L 66.349403 82.765022 
L 66.16053 82.662128 
L 66.008226 82.57802 
L 65.971656 82.557673 
L 65.782782 82.451165 
L 65.67425 82.389147 
L 65.593908 82.342889 
L 65.405035 82.232713 
L 65.350136 82.200273 
L 65.216161 82.120502 
L 65.035244 82.011399 
L 65.027287 82.006564 
L 64.838413 81.890334 
L 64.729585 81.822525 
L 64.64954 81.772264 
L 64.460666 81.652205 
L 64.43183 81.633652 
L 64.271792 81.529877 
L 64.142117 81.444778 
L 64.082918 81.405623 
L 63.894045 81.279211 
L 63.859626 81.255904 
L 63.705171 81.150482 
L 63.584309 81.06703 
L 63.516297 81.019694 
L 63.327423 80.886727 
L 63.315387 80.878157 
L 63.13855 80.751233 
L 63.053196 80.689283 
L 62.949676 80.613537 
L 62.796767 80.500409 
L 62.760802 80.473583 
L 62.571928 80.331153 
L 62.546193 80.311535 
L 62.383055 80.186148 
L 62.301333 80.122662 
L 62.194181 80.038726 
L 62.061628 79.933788 
L 62.005307 79.888826 
L 61.826916 79.744914 
L 61.816433 79.736386 
L 61.62756 79.581125 
L 61.597355 79.55604 
L 61.438686 79.423138 
L 61.372538 79.367167 
L 61.249812 79.262426 
L 61.152218 79.178293 
L 61.060938 79.09892 
L 60.936259 78.989419 
L 60.872065 78.932545 
L 60.724536 78.800545 
L 60.683191 78.763225 
L 60.516924 78.611672 
L 60.494317 78.590882 
L 60.313304 78.422798 
L 60.305443 78.415433 
L 60.11657 78.236769 
L 60.113591 78.233924 
L 59.927696 78.054789 
L 59.917684 78.04505 
L 59.738822 77.86947 
L 59.725405 77.856177 
L 59.549948 77.68072 
L 59.536655 77.667303 
L 59.361075 77.488441 
L 59.351336 77.478429 
L 59.172201 77.292534 
L 59.169356 77.289555 
L 58.990692 77.100682 
L 58.983327 77.092821 
L 58.815243 76.911808 
L 58.794453 76.889201 
L 58.6429 76.722934 
L 58.60558 76.681589 
L 58.47358 76.53406 
L 58.416706 76.469866 
L 58.307205 76.345187 
L 58.227832 76.253907 
L 58.143699 76.156313 
L 58.038958 76.033587 
L 57.982987 75.967439 
L 57.850085 75.80877 
L 57.825 75.778565 
L 57.669739 75.589692 
L 57.661211 75.579209 
L 57.517299 75.400818 
L 57.472337 75.344497 
L 57.367399 75.211944 
L 57.283463 75.104792 
L 57.219977 75.02307 
L 57.09459 74.859932 
L 57.074972 74.834197 
L 56.932542 74.645323 
L 56.905716 74.609358 
L 56.792588 74.456449 
L 56.716842 74.352929 
L 56.654892 74.267575 
L 56.527968 74.090738 
L 56.519398 74.078702 
L 56.386431 73.889828 
L 56.339095 73.821816 
L 56.255643 73.700954 
L 56.150221 73.546499 
L 56.126914 73.51208 
L 56.000502 73.323207 
L 55.961347 73.264008 
L 55.876248 73.134333 
L 55.772473 72.974295 
L 55.75392 72.945459 
L 55.633861 72.756585 
L 55.5836 72.67654 
L 55.515791 72.567712 
L 55.399561 72.378838 
L 55.394726 72.370881 
L 55.285623 72.189964 
L 55.205852 72.055989 
L 55.173412 72.00109 
L 55.063236 71.812217 
L 55.016978 71.731875 
L 54.95496 71.623343 
L 54.848452 71.434469 
L 54.828105 71.397899 
L 54.743997 71.245595 
L 54.641103 71.056722 
L 54.639231 71.053238 
L 54.540356 70.867848 
L 54.450357 70.696723 
L 54.441091 70.678974 
L 54.343877 70.4901 
L 54.261483 70.327702 
L 54.248149 70.301227 
L 54.154402 70.112353 
L 54.07261 69.945106 
L 54.06211 69.923479 
L 53.971779 69.734605 
L 53.883736 69.547684 
L 53.882823 69.545732 
L 53.79586 69.356858 
L 53.710255 69.167984 
L 53.694862 69.133475 
L 53.626501 68.97911 
L 53.544206 68.790237 
L 53.505988 68.701063 
L 53.463563 68.601363 
L 53.384531 68.412489 
L 53.317115 68.248599 
L 53.30691 68.223615 
L 53.231095 68.034742 
L 53.156609 67.845868 
L 53.128241 67.772626 
L 53.083767 67.656994 
L 53.012444 67.46812 
L 52.942442 67.279247 
L 52.939367 67.270791 
L 52.874216 67.090373 
L 52.807324 66.901499 
L 52.750493 66.737828 
L 52.741803 66.712626 
L 52.677977 66.523752 
L 52.615453 66.334878 
L 52.56162 66.168797 
L 52.554282 66.146004 
L 52.494774 65.957131 
L 52.43656 65.768257 
L 52.379639 65.579383 
L 52.372746 65.55598 
L 52.324343 65.390509 
L 52.270379 65.201636 
L 52.2177 65.012762 
L 52.183872 64.888444 
L 52.166425 64.823888 
L 52.116654 64.635014 
L 52.068159 64.446141 
L 52.020941 64.257267 
L 51.994998 64.150615 
L 51.975133 64.068393 
L 51.930766 63.879519 
L 51.887668 63.690646 
L 51.845837 63.501772 
L 51.806125 63.316864 
L 51.805279 63.312898 
L 51.766245 63.124024 
L 51.72847 62.935151 
L 51.691955 62.746277 
L 51.656698 62.557403 
L 51.622701 62.368529 
L 51.617251 62.337088 
L 51.590143 62.179656 
L 51.558873 61.990782 
L 51.528853 61.801908 
L 51.500084 61.613034 
L 51.472566 61.424161 
L 51.446299 61.235287 
L 51.428377 61.099976 
L 51.421329 61.046413 
L 51.39772 60.857539 
L 51.375354 60.668666 
L 51.35423 60.479792 
L 51.334348 60.290918 
L 51.315709 60.102044 
L 51.298313 59.913171 
L 51.282159 59.724297 
L 51.267248 59.535423 
L 51.25358 59.346549 
L 51.241154 59.157676 
L 51.239504 59.129804 
L 51.230033 58.968802 
L 51.220157 58.779928 
L 51.211516 58.591054 
L 51.204109 58.402181 
L 51.197937 58.213307 
L 51.192999 58.024433 
L 51.189295 57.835559 
L 51.186826 57.646686 
L 51.185592 57.457812 
L 51.185592 57.268938 
L 51.186826 57.080064 
L 51.189295 56.891191 
L 51.192999 56.702317 
L 51.197937 56.513443 
L 51.204109 56.324569 
L 51.211516 56.135696 
L 51.220157 55.946822 
L 51.230033 55.757948 
L 51.239504 55.596946 
L 51.241154 55.569074 
L 51.25358 55.380201 
L 51.267248 55.191327 
L 51.282159 55.002453 
L 51.298313 54.813579 
L 51.315709 54.624706 
L 51.334348 54.435832 
L 51.35423 54.246958 
L 51.375354 54.058084 
L 51.39772 53.869211 
L 51.421329 53.680337 
L 51.428377 53.626774 
L 51.446299 53.491463 
L 51.472566 53.302589 
L 51.500084 53.113716 
L 51.528853 52.924842 
L 51.558873 52.735968 
L 51.590143 52.547094 
L 51.617251 52.389662 
L 51.622701 52.358221 
L 51.656698 52.169347 
L 51.691955 51.980473 
L 51.72847 51.791599 
L 51.766245 51.602726 
L 51.805279 51.413852 
L 51.806125 51.409886 
L 51.845837 51.224978 
L 51.887668 51.036104 
L 51.930766 50.847231 
L 51.975133 50.658357 
L 51.994998 50.576135 
L 52.020941 50.469483 
L 52.068159 50.280609 
L 52.116654 50.091736 
L 52.166425 49.902862 
L 52.183872 49.838306 
L 52.2177 49.713988 
L 52.270379 49.525114 
L 52.324343 49.336241 
L 52.372746 49.17077 
L 52.379639 49.147367 
L 52.43656 48.958493 
L 52.494774 48.769619 
L 52.554282 48.580746 
L 52.56162 48.557953 
L 52.615453 48.391872 
L 52.677977 48.202998 
L 52.741803 48.014124 
L 52.750493 47.988922 
L 52.807324 47.825251 
L 52.874216 47.636377 
L 52.939367 47.455959 
L 52.942442 47.447503 
L 53.012444 47.25863 
L 53.083767 47.069756 
L 53.128241 46.954124 
L 53.156609 46.880882 
L 53.231095 46.692008 
L 53.30691 46.503135 
L 53.317115 46.478151 
L 53.384531 46.314261 
L 53.463563 46.125387 
L 53.505988 46.025687 
L 53.544206 45.936513 
L 53.626501 45.74764 
L 53.694862 45.593275 
L 53.710255 45.558766 
L 53.79586 45.369892 
L 53.882823 45.181018 
L 53.883736 45.179066 
L 53.971779 44.992145 
L 54.06211 44.803271 
L 54.07261 44.781644 
L 54.154402 44.614397 
L 54.248149 44.425523 
L 54.261483 44.399048 
L 54.343877 44.23665 
L 54.441091 44.047776 
L 54.450357 44.030027 
L 54.540356 43.858902 
L 54.639231 43.673512 
L 54.641103 43.670028 
L 54.743997 43.481155 
L 54.828105 43.328851 
L 54.848452 43.292281 
L 54.95496 43.103407 
L 55.016978 42.994875 
L 55.063236 42.914533 
L 55.173412 42.72566 
L 55.205852 42.670761 
L 55.285623 42.536786 
L 55.394726 42.355869 
L 55.399561 42.347912 
L 55.515791 42.159038 
L 55.5836 42.05021 
L 55.633861 41.970165 
L 55.75392 41.781291 
L 55.772473 41.752455 
L 55.876248 41.592417 
L 55.961347 41.462742 
L 56.000502 41.403543 
L 56.126914 41.21467 
L 56.150221 41.180251 
L 56.255643 41.025796 
L 56.339095 40.904934 
L 56.386431 40.836922 
L 56.519398 40.648048 
L 56.527968 40.636012 
L 56.654892 40.459175 
L 56.716842 40.373821 
L 56.792588 40.270301 
L 56.905716 40.117392 
L 56.932542 40.081427 
L 57.074972 39.892553 
L 57.09459 39.866818 
L 57.219977 39.70368 
L 57.283463 39.621958 
L 57.367399 39.514806 
L 57.472337 39.382253 
L 57.517299 39.325932 
L 57.661211 39.147541 
L 57.669739 39.137058 
L 57.825 38.948185 
L 57.850085 38.91798 
L 57.982987 38.759311 
L 58.038958 38.693163 
L 58.143699 38.570437 
L 58.227832 38.472843 
L 58.307205 38.381563 
L 58.416706 38.256884 
L 58.47358 38.19269 
L 58.60558 38.045161 
L 58.6429 38.003816 
L 58.794453 37.837549 
L 58.815243 37.814942 
L 58.983327 37.633929 
L 58.990692 37.626068 
L 59.169356 37.437195 
L 59.172201 37.434216 
L 59.351336 37.248321 
L 59.361075 37.238309 
L 59.536655 37.059447 
L 59.549948 37.04603 
L 59.725405 36.870573 
L 59.738822 36.85728 
L 59.917684 36.6817 
L 59.927696 36.671961 
L 60.113591 36.492826 
L 60.11657 36.489981 
L 60.305443 36.311317 
L 60.313304 36.303952 
L 60.494317 36.135868 
L 60.516924 36.115078 
L 60.683191 35.963525 
L 60.724536 35.926205 
L 60.872065 35.794205 
L 60.936259 35.737331 
L 61.060938 35.62783 
L 61.152218 35.548457 
L 61.249812 35.464324 
L 61.372538 35.359583 
L 61.438686 35.303612 
L 61.597355 35.17071 
L 61.62756 35.145625 
L 61.816433 34.990364 
L 61.826916 34.981836 
L 62.005307 34.837924 
L 62.061628 34.792962 
L 62.194181 34.688024 
L 62.301333 34.604088 
L 62.383055 34.540602 
L 62.546193 34.415215 
L 62.571928 34.395597 
L 62.760802 34.253167 
L 62.796767 34.226341 
L 62.949676 34.113213 
L 63.053196 34.037467 
L 63.13855 33.975517 
L 63.315387 33.848593 
L 63.327423 33.840023 
L 63.516297 33.707056 
L 63.584309 33.65972 
L 63.705171 33.576268 
L 63.859626 33.470846 
L 63.894045 33.447539 
L 64.082918 33.321127 
L 64.142117 33.281972 
L 64.271792 33.196873 
L 64.43183 33.093098 
L 64.460666 33.074545 
L 64.64954 32.954486 
L 64.729585 32.904225 
L 64.838413 32.836416 
L 65.027287 32.720186 
L 65.035244 32.715351 
L 65.216161 32.606248 
L 65.350136 32.526477 
L 65.405035 32.494037 
L 65.593908 32.383861 
L 65.67425 32.337603 
L 65.782782 32.275585 
L 65.971656 32.169077 
L 66.008226 32.14873 
L 66.16053 32.064622 
L 66.349403 31.961728 
L 66.352887 31.959856 
L 66.538277 31.860981 
L 66.709402 31.770982 
L 66.727151 31.761716 
L 66.916025 31.664502 
L 67.078423 31.582108 
L 67.104898 31.568774 
L 67.293772 31.475027 
L 67.461019 31.393235 
L 67.482646 31.382735 
L 67.67152 31.292404 
L 67.858441 31.204361 
L 67.860393 31.203448 
L 68.049267 31.116485 
L 68.238141 31.03088 
L 68.27265 31.015487 
L 68.427015 30.947126 
L 68.615888 30.864831 
L 68.705062 30.826613 
L 68.804762 30.784188 
L 68.993636 30.705156 
L 69.157526 30.63774 
L 69.18251 30.627535 
L 69.371383 30.55172 
L 69.560257 30.477234 
L 69.633499 30.448866 
L 69.749131 30.404392 
L 69.938005 30.333069 
L 70.126878 30.263067 
L 70.135334 30.259992 
L 70.315752 30.194841 
L 70.504626 30.127949 
L 70.668297 30.071118 
L 70.693499 30.062428 
L 70.882373 29.998602 
L 71.071247 29.936078 
L 71.237328 29.882245 
L 71.260121 29.874907 
L 71.448994 29.815399 
L 71.637868 29.757185 
L 71.826742 29.700264 
L 71.850145 29.693371 
L 72.015616 29.644968 
L 72.204489 29.591004 
L 72.393363 29.538325 
L 72.517681 29.504497 
L 72.582237 29.48705 
L 72.771111 29.437279 
L 72.959984 29.388784 
L 73.148858 29.341566 
L 73.25551 29.315623 
L 73.337732 29.295758 
L 73.526606 29.251391 
L 73.715479 29.208293 
L 73.904353 29.166462 
L 74.089261 29.12675 
L 74.093227 29.125904 
L 74.282101 29.08687 
L 74.470974 29.049095 
L 74.659848 29.01258 
L 74.848722 28.977323 
L 75.037596 28.943326 
L 75.069037 28.937876 
L 75.226469 28.910768 
L 75.415343 28.879498 
L 75.604217 28.849478 
L 75.793091 28.820709 
L 75.981964 28.793191 
L 76.170838 28.766924 
L 76.306149 28.749002 
L 76.359712 28.741954 
L 76.548586 28.718345 
L 76.737459 28.695979 
L 76.926333 28.674855 
L 77.115207 28.654973 
L 77.304081 28.636334 
L 77.492954 28.618938 
L 77.681828 28.602784 
L 77.870702 28.587873 
L 78.059576 28.574205 
L 78.248449 28.561779 
L 78.276321 28.560129 
L 78.437323 28.550658 
L 78.626197 28.540782 
L 78.815071 28.532141 
L 79.003944 28.524734 
L 79.192818 28.518562 
L 79.381692 28.513624 
L 79.570566 28.50992 
L 79.759439 28.507451 
L 79.948313 28.506217 
L 80.137187 28.506217 
L 80.326061 28.507451 
L 80.514934 28.50992 
L 80.703808 28.513624 
L 80.892682 28.518562 
L 81.081556 28.524734 
L 81.270429 28.532141 
L 81.459303 28.540782 
L 81.648177 28.550658 
L 81.809179 28.560129 
L 81.837051 28.561779 
L 82.025924 28.574205 
L 82.214798 28.587873 
L 82.403672 28.602784 
L 82.592546 28.618938 
L 82.781419 28.636334 
L 82.970293 28.654973 
L 83.159167 28.674855 
L 83.348041 28.695979 
L 83.536914 28.718345 
L 83.725788 28.741954 
L 83.779351 28.749002 
L 83.914662 28.766924 
L 84.103536 28.793191 
L 84.292409 28.820709 
L 84.481283 28.849478 
L 84.670157 28.879498 
L 84.859031 28.910768 
L 85.016463 28.937876 
L 85.047904 28.943326 
L 85.236778 28.977323 
L 85.425652 29.01258 
L 85.614526 29.049095 
L 85.803399 29.08687 
L 85.992273 29.125904 
L 85.996239 29.12675 
L 86.181147 29.166462 
L 86.370021 29.208293 
L 86.558894 29.251391 
L 86.747768 29.295758 
L 86.82999 29.315623 
L 86.936642 29.341566 
L 87.125516 29.388784 
L 87.314389 29.437279 
L 87.503263 29.48705 
L 87.567819 29.504497 
L 87.692137 29.538325 
L 87.881011 29.591004 
L 88.069884 29.644968 
L 88.235355 29.693371 
L 88.258758 29.700264 
L 88.447632 29.757185 
L 88.636506 29.815399 
L 88.825379 29.874907 
L 88.848172 29.882245 
L 89.014253 29.936078 
L 89.203127 29.998602 
L 89.392001 30.062428 
L 89.417203 30.071118 
L 89.580874 30.127949 
L 89.769748 30.194841 
L 89.950166 30.259992 
L 89.958622 30.263067 
L 90.147495 30.333069 
L 90.336369 30.404392 
L 90.452001 30.448866 
L 90.525243 30.477234 
L 90.714117 30.55172 
L 90.90299 30.627535 
L 90.927974 30.63774 
L 91.091864 30.705156 
L 91.280738 30.784188 
L 91.380438 30.826613 
L 91.469612 30.864831 
L 91.658485 30.947126 
L 91.81285 31.015487 
L 91.847359 31.03088 
L 92.036233 31.116485 
L 92.225107 31.203448 
L 92.227059 31.204361 
L 92.41398 31.292404 
L 92.602854 31.382735 
L 92.624481 31.393235 
L 92.791728 31.475027 
L 92.980602 31.568774 
L 93.007077 31.582108 
L 93.169475 31.664502 
L 93.358349 31.761716 
L 93.376098 31.770982 
L 93.547223 31.860981 
L 93.732613 31.959856 
L 93.736097 31.961728 
L 93.92497 32.064622 
L 94.077274 32.14873 
L 94.113844 32.169077 
L 94.302718 32.275585 
L 94.41125 32.337603 
L 94.491592 32.383861 
L 94.680465 32.494037 
L 94.735364 32.526477 
L 94.869339 32.606248 
L 95.050256 32.715351 
L 95.058213 32.720186 
L 95.247087 32.836416 
L 95.355915 32.904225 
L 95.43596 32.954486 
L 95.624834 33.074545 
L 95.65367 33.093098 
L 95.813708 33.196873 
L 95.943383 33.281972 
L 96.002582 33.321127 
L 96.191455 33.447539 
L 96.225874 33.470846 
L 96.380329 33.576268 
L 96.501191 33.65972 
L 96.569203 33.707056 
L 96.758077 33.840023 
L 96.770113 33.848593 
L 96.94695 33.975517 
L 97.032304 34.037467 
L 97.135824 34.113213 
L 97.288733 34.226341 
L 97.324698 34.253167 
L 97.513572 34.395597 
L 97.539307 34.415215 
L 97.702445 34.540602 
L 97.784167 34.604088 
L 97.891319 34.688024 
L 98.023872 34.792962 
L 98.080193 34.837924 
L 98.258584 34.981836 
L 98.269067 34.990364 
L 98.45794 35.145625 
L 98.488145 35.17071 
L 98.646814 35.303612 
L 98.712962 35.359583 
L 98.835688 35.464324 
L 98.933282 35.548457 
L 99.024562 35.62783 
L 99.149241 35.737331 
L 99.213435 35.794205 
L 99.360964 35.926205 
L 99.402309 35.963525 
L 99.568576 36.115078 
L 99.591183 36.135868 
L 99.772196 36.303952 
L 99.780057 36.311317 
L 99.96893 36.489981 
L 99.971909 36.492826 
L 100.157804 36.671961 
L 100.167816 36.6817 
L 100.346678 36.85728 
L 100.360095 36.870573 
L 100.535552 37.04603 
L 100.548845 37.059447 
L 100.724425 37.238309 
L 100.734164 37.248321 
L 100.913299 37.434216 
L 100.916144 37.437195 
L 101.094808 37.626068 
L 101.102173 37.633929 
L 101.270257 37.814942 
L 101.291047 37.837549 
L 101.4426 38.003816 
L 101.47992 38.045161 
L 101.61192 38.19269 
L 101.668794 38.256884 
L 101.778295 38.381563 
L 101.857668 38.472843 
L 101.941801 38.570437 
L 102.046542 38.693163 
L 102.102513 38.759311 
L 102.235415 38.91798 
L 102.2605 38.948185 
L 102.415761 39.137058 
L 102.424289 39.147541 
L 102.568201 39.325932 
L 102.613163 39.382253 
L 102.718101 39.514806 
L 102.802037 39.621958 
L 102.865523 39.70368 
L 102.99091 39.866818 
L 103.010528 39.892553 
L 103.152958 40.081427 
L 103.179784 40.117392 
L 103.292912 40.270301 
L 103.368658 40.373821 
L 103.430608 40.459175 
L 103.557532 40.636012 
L 103.566102 40.648048 
L 103.699069 40.836922 
L 103.746405 40.904934 
L 103.829857 41.025796 
L 103.935279 41.180251 
L 103.958586 41.21467 
L 104.084998 41.403543 
L 104.124153 41.462742 
L 104.209252 41.592417 
L 104.313027 41.752455 
L 104.33158 41.781291 
L 104.451639 41.970165 
L 104.5019 42.05021 
L 104.569709 42.159038 
L 104.685939 42.347912 
L 104.690774 42.355869 
L 104.799877 42.536786 
L 104.879648 42.670761 
L 104.912088 42.72566 
L 105.022264 42.914533 
L 105.068522 42.994875 
L 105.13054 43.103407 
L 105.237048 43.292281 
L 105.257395 43.328851 
L 105.341503 43.481155 
L 105.444397 43.670028 
L 105.446269 43.673512 
L 105.545144 43.858902 
L 105.635143 44.030027 
L 105.644409 44.047776 
L 105.741623 44.23665 
L 105.824017 44.399048 
L 105.837351 44.425523 
L 105.931098 44.614397 
L 106.01289 44.781644 
L 106.02339 44.803271 
L 106.113721 44.992145 
L 106.201764 45.179066 
L 106.202677 45.181018 
L 106.28964 45.369892 
L 106.375245 45.558766 
L 106.390638 45.593275 
L 106.458999 45.74764 
L 106.541294 45.936513 
L 106.579512 46.025687 
L 106.621937 46.125387 
L 106.700969 46.314261 
L 106.768385 46.478151 
L 106.77859 46.503135 
L 106.854405 46.692008 
L 106.928891 46.880882 
L 106.957259 46.954124 
L 107.001733 47.069756 
L 107.073056 47.25863 
L 107.143058 47.447503 
L 107.146133 47.455959 
L 107.211284 47.636377 
L 107.278176 47.825251 
L 107.335007 47.988922 
L 107.343697 48.014124 
L 107.407523 48.202998 
L 107.470047 48.391872 
L 107.52388 48.557953 
L 107.531218 48.580746 
L 107.590726 48.769619 
L 107.64894 48.958493 
L 107.705861 49.147367 
L 107.712754 49.17077 
L 107.761157 49.336241 
L 107.815121 49.525114 
L 107.8678 49.713988 
L 107.901628 49.838306 
L 107.919075 49.902862 
L 107.968846 50.091736 
L 108.017341 50.280609 
L 108.064559 50.469483 
L 108.090502 50.576135 
L 108.110367 50.658357 
L 108.154734 50.847231 
L 108.197832 51.036104 
L 108.239663 51.224978 
L 108.279375 51.409886 
L 108.280221 51.413852 
L 108.319255 51.602726 
L 108.35703 51.791599 
L 108.393545 51.980473 
L 108.428802 52.169347 
L 108.462799 52.358221 
L 108.468249 52.389662 
L 108.495357 52.547094 
L 108.526627 52.735968 
L 108.556647 52.924842 
L 108.585416 53.113716 
L 108.612934 53.302589 
L 108.639201 53.491463 
L 108.657123 53.626774 
L 108.664171 53.680337 
L 108.68778 53.869211 
L 108.710146 54.058084 
L 108.73127 54.246958 
L 108.751152 54.435832 
L 108.769791 54.624706 
L 108.787187 54.813579 
L 108.803341 55.002453 
L 108.818252 55.191327 
L 108.83192 55.380201 
L 108.844346 55.569074 
L 108.845996 55.596946 
L 108.855467 55.757948 
L 108.865343 55.946822 
L 108.873984 56.135696 
L 108.881391 56.324569 
L 108.887563 56.513443 
L 108.892501 56.702317 
L 108.896205 56.891191 
L 108.898674 57.080064 
L 108.899908 57.268938 
L 108.899908 57.457812 
L 108.898674 57.646686 
L 108.896205 57.835559 
L 108.892501 58.024433 
L 108.887563 58.213307 
L 108.881391 58.402181 
L 108.873984 58.591054 
L 108.865343 58.779928 
L 108.855467 58.968802 
L 108.845996 59.129804 
L 108.844346 59.157676 
L 108.83192 59.346549 
L 108.818252 59.535423 
L 108.803341 59.724297 
L 108.787187 59.913171 
L 108.769791 60.102044 
L 108.751152 60.290918 
L 108.73127 60.479792 
L 108.710146 60.668666 
L 108.68778 60.857539 
L 108.664171 61.046413 
L 108.657123 61.099976 
L 108.639201 61.235287 
L 108.612934 61.424161 
L 108.585416 61.613034 
L 108.556647 61.801908 
L 108.526627 61.990782 
L 108.495357 62.179656 
L 108.468249 62.337088 
L 108.462799 62.368529 
L 108.428802 62.557403 
L 108.393545 62.746277 
L 108.35703 62.935151 
L 108.319255 63.124024 
L 108.280221 63.312898 
L 108.279375 63.316864 
L 108.239663 63.501772 
L 108.197832 63.690646 
L 108.154734 63.879519 
L 108.110367 64.068393 
L 108.090502 64.150615 
L 108.064559 64.257267 
L 108.017341 64.446141 
L 107.968846 64.635014 
L 107.919075 64.823888 
L 107.901628 64.888444 
L 107.8678 65.012762 
L 107.815121 65.201636 
L 107.761157 65.390509 
L 107.712754 65.55598 
L 107.705861 65.579383 
L 107.64894 65.768257 
L 107.590726 65.957131 
L 107.531218 66.146004 
L 107.52388 66.168797 
L 107.470047 66.334878 
L 107.407523 66.523752 
L 107.343697 66.712626 
L 107.335007 66.737828 
L 107.278176 66.901499 
L 107.211284 67.090373 
L 107.146133 67.270791 
L 107.143058 67.279247 
L 107.073056 67.46812 
L 107.001733 67.656994 
L 106.957259 67.772626 
L 106.928891 67.845868 
L 106.854405 68.034742 
L 106.77859 68.223615 
L 106.768385 68.248599 
L 106.700969 68.412489 
L 106.621937 68.601363 
L 106.579512 68.701063 
L 106.541294 68.790237 
L 106.458999 68.97911 
L 106.390638 69.133475 
L 106.375245 69.167984 
L 106.28964 69.356858 
L 106.202677 69.545732 
L 106.201764 69.547684 
L 106.113721 69.734605 
L 106.02339 69.923479 
L 106.01289 69.945106 
L 105.931098 70.112353 
L 105.837351 70.301227 
L 105.824017 70.327702 
L 105.741623 70.4901 
L 105.644409 70.678974 
L 105.635143 70.696723 
L 105.545144 70.867848 
L 105.446269 71.053238 
L 105.444397 71.056722 
L 105.341503 71.245595 
L 105.257395 71.397899 
L 105.237048 71.434469 
L 105.13054 71.623343 
L 105.068522 71.731875 
L 105.022264 71.812217 
L 104.912088 72.00109 
L 104.879648 72.055989 
L 104.799877 72.189964 
L 104.690774 72.370881 
L 104.685939 72.378838 
L 104.569709 72.567712 
L 104.5019 72.67654 
L 104.451639 72.756585 
L 104.33158 72.945459 
L 104.313027 72.974295 
L 104.209252 73.134333 
L 104.124153 73.264008 
L 104.084998 73.323207 
L 103.958586 73.51208 
L 103.935279 73.546499 
L 103.829857 73.700954 
L 103.746405 73.821816 
L 103.699069 73.889828 
L 103.566102 74.078702 
L 103.557532 74.090738 
L 103.430608 74.267575 
L 103.368658 74.352929 
L 103.292912 74.456449 
L 103.179784 74.609358 
L 103.152958 74.645323 
L 103.010528 74.834197 
L 102.99091 74.859932 
L 102.865523 75.02307 
L 102.802037 75.104792 
L 102.718101 75.211944 
L 102.613163 75.344497 
L 102.568201 75.400818 
L 102.424289 75.579209 
L 102.415761 75.589692 
L 102.2605 75.778565 
L 102.235415 75.80877 
L 102.102513 75.967439 
L 102.046542 76.033587 
L 101.941801 76.156313 
L 101.857668 76.253907 
L 101.778295 76.345187 
L 101.668794 76.469866 
L 101.61192 76.53406 
L 101.47992 76.681589 
L 101.4426 76.722934 
L 101.291047 76.889201 
L 101.270257 76.911808 
L 101.102173 77.092821 
L 101.094808 77.100682 
L 100.916144 77.289555 
L 100.913299 77.292534 
L 100.734164 77.478429 
L 100.724425 77.488441 
L 100.548845 77.667303 
L 100.535552 77.68072 
L 100.360095 77.856177 
L 100.346678 77.86947 
L 100.167816 78.04505 
L 100.157804 78.054789 
L 99.971909 78.233924 
L 99.96893 78.236769 
L 99.780057 78.415433 
L 99.772196 78.422798 
L 99.591183 78.590882 
L 99.568576 78.611672 
L 99.402309 78.763225 
L 99.360964 78.800545 
L 99.213435 78.932545 
L 99.149241 78.989419 
L 99.024562 79.09892 
L 98.933282 79.178293 
L 98.835688 79.262426 
L 98.712962 79.367167 
L 98.646814 79.423138 
L 98.488145 79.55604 
L 98.45794 79.581125 
L 98.269067 79.736386 
L 98.258584 79.744914 
L 98.080193 79.888826 
L 98.023872 79.933788 
L 97.891319 80.038726 
L 97.784167 80.122662 
L 97.702445 80.186148 
L 97.539307 80.311535 
L 97.513572 80.331153 
L 97.324698 80.473583 
L 97.288733 80.500409 
L 97.135824 80.613537 
L 97.032304 80.689283 
L 96.94695 80.751233 
L 96.770113 80.878157 
L 96.758077 80.886727 
L 96.569203 81.019694 
L 96.501191 81.06703 
L 96.380329 81.150482 
L 96.225874 81.255904 
L 96.191455 81.279211 
L 96.002582 81.405623 
L 95.943383 81.444778 
L 95.813708 81.529877 
L 95.65367 81.633652 
L 95.624834 81.652205 
L 95.43596 81.772264 
L 95.355915 81.822525 
L 95.247087 81.890334 
L 95.058213 82.006564 
L 95.050256 82.011399 
L 94.869339 82.120502 
L 94.735364 82.200273 
L 94.680465 82.232713 
L 94.491592 82.342889 
L 94.41125 82.389147 
L 94.302718 82.451165 
L 94.113844 82.557673 
L 94.077274 82.57802 
L 93.92497 82.662128 
L 93.736097 82.765022 
L 93.732613 82.766894 
L 93.547223 82.865769 
L 93.376098 82.955768 
L 93.358349 82.965034 
L 93.169475 83.062248 
L 93.007077 83.144642 
L 92.980602 83.157976 
L 92.791728 83.251723 
L 92.624481 83.333515 
L 92.602854 83.344015 
L 92.41398 83.434346 
L 92.227059 83.522389 
L 92.225107 83.523302 
L 92.036233 83.610265 
L 91.847359 83.69587 
L 91.81285 83.711263 
L 91.658485 83.779624 
L 91.469612 83.861919 
L 91.380438 83.900137 
L 91.280738 83.942562 
L 91.091864 84.021594 
L 90.927974 84.08901 
L 90.90299 84.099215 
L 90.714117 84.17503 
L 90.525243 84.249516 
L 90.452001 84.277884 
L 90.336369 84.322358 
L 90.147495 84.393681 
L 89.958622 84.463683 
L 89.950166 84.466758 
L 89.769748 84.531909 
L 89.580874 84.598801 
L 89.417203 84.655632 
L 89.392001 84.664322 
L 89.203127 84.728148 
L 89.014253 84.790672 
L 88.848172 84.844505 
L 88.825379 84.851843 
L 88.636506 84.911351 
L 88.447632 84.969565 
L 88.258758 85.026486 
L 88.235355 85.033379 
L 88.069884 85.081782 
L 87.881011 85.135746 
L 87.692137 85.188425 
L 87.567819 85.222253 
L 87.503263 85.2397 
L 87.314389 85.289471 
L 87.125516 85.337966 
L 86.936642 85.385184 
L 86.82999 85.411127 
L 86.747768 85.430992 
L 86.558894 85.475359 
L 86.370021 85.518457 
L 86.181147 85.560288 
L 85.996239 85.6 
L 85.992273 85.600846 
L 85.803399 85.63988 
L 85.614526 85.677655 
L 85.425652 85.71417 
L 85.236778 85.749427 
L 85.047904 85.783424 
L 85.016463 85.788874 
L 84.859031 85.815982 
L 84.670157 85.847252 
L 84.481283 85.877272 
L 84.292409 85.906041 
L 84.103536 85.933559 
L 83.914662 85.959826 
L 83.779351 85.977748 
L 83.725788 85.984796 
L 83.536914 86.008405 
L 83.348041 86.030771 
L 83.159167 86.051895 
L 82.970293 86.071777 
L 82.781419 86.090416 
L 82.592546 86.107812 
L 82.403672 86.123966 
L 82.214798 86.138877 
L 82.025924 86.152545 
L 81.837051 86.164971 
L 81.809179 86.166621 
L 81.648177 86.176092 
L 81.459303 86.185968 
L 81.270429 86.194609 
L 81.081556 86.202016 
L 80.892682 86.208188 
L 80.703808 86.213126 
L 80.514934 86.21683 
L 80.326061 86.219299 
L 80.137187 86.220533 
L 79.948313 86.220533 
L 79.759439 86.219299 
L 79.570566 86.21683 
L 79.381692 86.213126 
L 79.192818 86.208188 
L 79.003944 86.202016 
L 78.815071 86.194609 
L 78.626197 86.185968 
L 78.437323 86.176092 
z
" clip-path="url(#p847a91f67d)" style="fill: none; stroke: #af58ba"/>
   </g>
   <g id="patch_3">
    <path d="M 32.91875 104.487375 
L 32.91875 10.239375 
" style="fill: none; stroke: #000000; stroke-width: 0.6; stroke-linejoin: miter; stroke-linecap: square"/>
   </g>
   <g id="patch_4">
    <path d="M 32.91875 104.487375 
L 127.16675 104.487375 
" style="fill: none; stroke: #000000; stroke-width: 0.6; stroke-linejoin: miter; stroke-linecap: square"/>
   </g>
  </g>
 </g>
 <defs>
  <clipPath id="p847a91f67d">
   <rect x="32.91875" y="10.239375" width="94.248" height="94.248"/>
  </clipPath>
 </defs>
</svg>
