<?xml version="1.0" encoding="utf-8" standalone="no"?>
<!DOCTYPE svg PUBLIC "-//W3C//DTD SVG 1.1//EN"
  "http://www.w3.org/Graphics/SVG/1.1/DTD/svg11.dtd">
<svg xmlns:xlink="http://www.w3.org/1999/xlink" width="293.4pt" height="120.495018pt" viewBox="0 0 293.4 120.495018" xmlns="http://www.w3.org/2000/svg" version="1.1">
 <metadata>
  <rdf:RDF xmlns:dc="http://purl.org/dc/elements/1.1/" xmlns:cc="http://creativecommons.org/ns#" xmlns:rdf="http://www.w3.org/1999/02/22-rdf-syntax-ns#">
   <cc:Work>
    <dc:type rdf:resource="http://purl.org/dc/dcmitype/StillImage"/>
    <dc:format>image/svg+xml</dc:format>
    <dc:creator>
     <cc:Agent>
      <dc:title>Matplotlib v3.5.2, https://matplotlib.org/</dc:title>
     </cc:Agent>
    </dc:creator>
   </cc:Work>
  </rdf:RDF>
 </metadata>
 <defs>
  <style type="text/css">*{stroke-linejoin: round; stroke-linecap: butt}</style>
 </defs>
 <g id="figure_1">
  <g id="patch_1">
   <path d="M 0 120.495018 
L 293.4 120.495018 
L 293.4 0 
L 0 0 
L 0 120.495018 
z
" style="fill: none"/>
  </g>
  <g id="axes_1">
   <g id="PathCollection_1">
    <path d="M 37.307914 40.729321 
C 37.682967 40.729321 38.042711 40.580311 38.307914 40.315108 
C 38.573117 40.049905 38.722127 39.690162 38.722127 39.315108 
C 38.722127 38.940054 38.573117 38.580311 38.307914 38.315108 
C 38.042711 38.049905 37.682967 37.900894 37.307914 37.900894 
C 36.93286 37.900894 36.573117 38.049905 36.307914 38.315108 
C 36.042711 38.580311 35.8937 38.940054 35.8937 39.315108 
C 35.8937 39.690162 36.042711 40.049905 36.307914 40.315108 
C 36.573117 40.580311 36.93286 40.729321 37.307914 40.729321 
z
"/>
   </g>
   <g id="PathCollection_2">
    <path d="M 37.307914 80.873206 
C 37.682967 80.873206 38.042711 80.724196 38.307914 80.458993 
C 38.573117 80.19379 38.722127 79.834047 38.722127 79.458993 
C 38.722127 79.083939 38.573117 78.724196 38.307914 78.458993 
C 38.042711 78.19379 37.682967 78.044779 37.307914 78.044779 
C 36.93286 78.044779 36.573117 78.19379 36.307914 78.458993 
C 36.042711 78.724196 35.8937 79.083939 35.8937 79.458993 
C 35.8937 79.834047 36.042711 80.19379 36.307914 80.458993 
C 36.573117 80.724196 36.93286 80.873206 37.307914 80.873206 
z
"/>
   </g>
   <g id="PathCollection_3">
    <path d="M 77.451799 40.729321 
C 77.826852 40.729321 78.186595 40.580311 78.451799 40.315108 
C 78.717002 40.049905 78.866012 39.690162 78.866012 39.315108 
C 78.866012 38.940054 78.717002 38.580311 78.451799 38.315108 
C 78.186595 38.049905 77.826852 37.900894 77.451799 37.900894 
C 77.076745 37.900894 76.717002 38.049905 76.451799 38.315108 
C 76.186595 38.580311 76.037585 38.940054 76.037585 39.315108 
C 76.037585 39.690162 76.186595 40.049905 76.451799 40.315108 
C 76.717002 40.580311 77.076745 40.729321 77.451799 40.729321 
z
"/>
   </g>
   <g id="PathCollection_4">
    <path d="M 77.451799 80.873206 
C 77.826852 80.873206 78.186595 80.724196 78.451799 80.458993 
C 78.717002 80.19379 78.866012 79.834047 78.866012 79.458993 
C 78.866012 79.083939 78.717002 78.724196 78.451799 78.458993 
C 78.186595 78.19379 77.826852 78.044779 77.451799 78.044779 
C 77.076745 78.044779 76.717002 78.19379 76.451799 78.458993 
C 76.186595 78.724196 76.037585 79.083939 76.037585 79.458993 
C 76.037585 79.834047 76.186595 80.19379 76.451799 80.458993 
C 76.717002 80.724196 77.076745 80.873206 77.451799 80.873206 
z
"/>
   </g>
   <g id="PathCollection_5">
    <path d="M 117.595683 40.729321 
C 117.970737 40.729321 118.33048 40.580311 118.595683 40.315108 
C 118.860887 40.049905 119.009897 39.690162 119.009897 39.315108 
C 119.009897 38.940054 118.860887 38.580311 118.595683 38.315108 
C 118.33048 38.049905 117.970737 37.900894 117.595683 37.900894 
C 117.22063 37.900894 116.860887 38.049905 116.595683 38.315108 
C 116.33048 38.580311 116.18147 38.940054 116.18147 39.315108 
C 116.18147 39.690162 116.33048 40.049905 116.595683 40.315108 
C 116.860887 40.580311 117.22063 40.729321 117.595683 40.729321 
z
"/>
   </g>
   <g id="PathCollection_6">
    <path d="M 117.595683 80.873206 
C 117.970737 80.873206 118.33048 80.724196 118.595683 80.458993 
C 118.860887 80.19379 119.009897 79.834047 119.009897 79.458993 
C 119.009897 79.083939 118.860887 78.724196 118.595683 78.458993 
C 118.33048 78.19379 117.970737 78.044779 117.595683 78.044779 
C 117.22063 78.044779 116.860887 78.19379 116.595683 78.458993 
C 116.33048 78.724196 116.18147 79.083939 116.18147 79.458993 
C 116.18147 79.834047 116.33048 80.19379 116.595683 80.458993 
C 116.860887 80.724196 117.22063 80.873206 117.595683 80.873206 
z
"/>
   </g>
   <g id="PathCollection_7">
    <path d="M 157.739568 40.729321 
C 158.114622 40.729321 158.474365 40.580311 158.739568 40.315108 
C 159.004771 40.049905 159.153782 39.690162 159.153782 39.315108 
C 159.153782 38.940054 159.004771 38.580311 158.739568 38.315108 
C 158.474365 38.049905 158.114622 37.900894 157.739568 37.900894 
C 157.364515 37.900894 157.004771 38.049905 156.739568 38.315108 
C 156.474365 38.580311 156.325355 38.940054 156.325355 39.315108 
C 156.325355 39.690162 156.474365 40.049905 156.739568 40.315108 
C 157.004771 40.580311 157.364515 40.729321 157.739568 40.729321 
z
"/>
   </g>
   <g id="PathCollection_8">
    <path d="M 157.739568 80.873206 
C 158.114622 80.873206 158.474365 80.724196 158.739568 80.458993 
C 159.004771 80.19379 159.153782 79.834047 159.153782 79.458993 
C 159.153782 79.083939 159.004771 78.724196 158.739568 78.458993 
C 158.474365 78.19379 158.114622 78.044779 157.739568 78.044779 
C 157.364515 78.044779 157.004771 78.19379 156.739568 78.458993 
C 156.474365 78.724196 156.325355 79.083939 156.325355 79.458993 
C 156.325355 79.834047 156.474365 80.19379 156.739568 80.458993 
C 157.004771 80.724196 157.364515 80.873206 157.739568 80.873206 
z
"/>
   </g>
   <g id="PathCollection_9">
    <path d="M 278.171223 80.873206 
C 278.546277 80.873206 278.90602 80.724196 279.171223 80.458993 
C 279.436426 80.19379 279.585437 79.834047 279.585437 79.458993 
C 279.585437 79.083939 279.436426 78.724196 279.171223 78.458993 
C 278.90602 78.19379 278.546277 78.044779 278.171223 78.044779 
C 277.796169 78.044779 277.436426 78.19379 277.171223 78.458993 
C 276.90602 78.724196 276.757009 79.083939 276.757009 79.458993 
C 276.757009 79.834047 276.90602 80.19379 277.171223 80.458993 
C 277.436426 80.724196 277.796169 80.873206 278.171223 80.873206 
z
"/>
   </g>
   <g id="PathCollection_10">
    <path d="M 278.171223 40.729321 
C 278.546277 40.729321 278.90602 40.580311 279.171223 40.315108 
C 279.436426 40.049905 279.585437 39.690162 279.585437 39.315108 
C 279.585437 38.940054 279.436426 38.580311 279.171223 38.315108 
C 278.90602 38.049905 278.546277 37.900894 278.171223 37.900894 
C 277.796169 37.900894 277.436426 38.049905 277.171223 38.315108 
C 276.90602 38.580311 276.757009 38.940054 276.757009 39.315108 
C 276.757009 39.690162 276.90602 40.049905 277.171223 40.315108 
C 277.436426 40.580311 277.796169 40.729321 278.171223 40.729321 
z
"/>
   </g>
   <g id="PathCollection_11">
    <path d="M 238.027338 80.873206 
C 238.402392 80.873206 238.762135 80.724196 239.027338 80.458993 
C 239.292541 80.19379 239.441552 79.834047 239.441552 79.458993 
C 239.441552 79.083939 239.292541 78.724196 239.027338 78.458993 
C 238.762135 78.19379 238.402392 78.044779 238.027338 78.044779 
C 237.652284 78.044779 237.292541 78.19379 237.027338 78.458993 
C 236.762135 78.724196 236.613125 79.083939 236.613125 79.458993 
C 236.613125 79.834047 236.762135 80.19379 237.027338 80.458993 
C 237.292541 80.724196 237.652284 80.873206 238.027338 80.873206 
z
"/>
   </g>
   <g id="PathCollection_12">
    <path d="M 238.027338 40.729321 
C 238.402392 40.729321 238.762135 40.580311 239.027338 40.315108 
C 239.292541 40.049905 239.441552 39.690162 239.441552 39.315108 
C 239.441552 38.940054 239.292541 38.580311 239.027338 38.315108 
C 238.762135 38.049905 238.402392 37.900894 238.027338 37.900894 
C 237.652284 37.900894 237.292541 38.049905 237.027338 38.315108 
C 236.762135 38.580311 236.613125 38.940054 236.613125 39.315108 
C 236.613125 39.690162 236.762135 40.049905 237.027338 40.315108 
C 237.292541 40.580311 237.652284 40.729321 238.027338 40.729321 
z
"/>
   </g>
   <g id="line2d_1">
    <path d="M 37.307914 79.458993 
L 37.307914 39.315108 
" clip-path="url(#p4d90208e05)" style="fill: none; stroke: #000000; stroke-linecap: square"/>
   </g>
   <g id="line2d_2">
    <path d="M 37.307914 39.315108 
L 37.307914 19.243165 
" clip-path="url(#p4d90208e05)" style="fill: none; stroke-dasharray: 3.7,1.6; stroke-dashoffset: 0; stroke: #000000"/>
   </g>
   <g id="line2d_3">
    <path d="M 77.451799 79.458993 
L 37.307914 79.458993 
" clip-path="url(#p4d90208e05)" style="fill: none; stroke: #000000; stroke-linecap: square"/>
   </g>
   <g id="line2d_4">
    <path d="M 77.451799 39.315108 
L 37.307914 39.315108 
" clip-path="url(#p4d90208e05)" style="fill: none; stroke: #000000; stroke-linecap: square"/>
   </g>
   <g id="line2d_5">
    <path d="M 77.451799 79.458993 
L 77.451799 39.315108 
" clip-path="url(#p4d90208e05)" style="fill: none; stroke: #000000; stroke-linecap: square"/>
   </g>
   <g id="line2d_6">
    <path d="M 77.451799 39.315108 
L 77.451799 19.243165 
" clip-path="url(#p4d90208e05)" style="fill: none; stroke-dasharray: 3.7,1.6; stroke-dashoffset: 0; stroke: #000000"/>
   </g>
   <g id="line2d_7">
    <path d="M 117.595683 79.458993 
L 77.451799 79.458993 
" clip-path="url(#p4d90208e05)" style="fill: none; stroke: #000000; stroke-linecap: square"/>
   </g>
   <g id="line2d_8">
    <path d="M 117.595683 39.315108 
L 77.451799 39.315108 
" clip-path="url(#p4d90208e05)" style="fill: none; stroke: #000000; stroke-linecap: square"/>
   </g>
   <g id="line2d_9">
    <path d="M 117.595683 79.458993 
L 117.595683 39.315108 
" clip-path="url(#p4d90208e05)" style="fill: none; stroke: #000000; stroke-linecap: square"/>
   </g>
   <g id="line2d_10">
    <path d="M 117.595683 39.315108 
L 117.595683 19.243165 
" clip-path="url(#p4d90208e05)" style="fill: none; stroke-dasharray: 3.7,1.6; stroke-dashoffset: 0; stroke: #000000"/>
   </g>
   <g id="line2d_11">
    <path d="M 157.739568 79.458993 
L 117.595683 79.458993 
" clip-path="url(#p4d90208e05)" style="fill: none; stroke: #000000; stroke-linecap: square"/>
   </g>
   <g id="line2d_12">
    <path d="M 157.739568 39.315108 
L 117.595683 39.315108 
" clip-path="url(#p4d90208e05)" style="fill: none; stroke: #000000; stroke-linecap: square"/>
   </g>
   <g id="line2d_13">
    <path d="M 157.739568 79.458993 
L 157.739568 39.315108 
" clip-path="url(#p4d90208e05)" style="fill: none; stroke: #000000; stroke-linecap: square"/>
   </g>
   <g id="line2d_14">
    <path d="M 157.739568 39.315108 
L 157.739568 19.243165 
" clip-path="url(#p4d90208e05)" style="fill: none; stroke-dasharray: 3.7,1.6; stroke-dashoffset: 0; stroke: #000000"/>
   </g>
   <g id="line2d_15">
    <path d="M 157.739568 39.315108 
L 177.811511 39.315108 
" clip-path="url(#p4d90208e05)" style="fill: none; stroke-dasharray: 3.7,1.6; stroke-dashoffset: 0; stroke: #000000"/>
   </g>
   <g id="line2d_16">
    <path d="M 157.739568 79.458993 
L 177.811511 79.458993 
" clip-path="url(#p4d90208e05)" style="fill: none; stroke-dasharray: 3.7,1.6; stroke-dashoffset: 0; stroke: #000000"/>
   </g>
   <g id="line2d_17">
    <path d="M 278.171223 79.458993 
L 278.171223 39.315108 
" clip-path="url(#p4d90208e05)" style="fill: none; stroke: #000000; stroke-linecap: square"/>
   </g>
   <g id="line2d_18">
    <path d="M 278.171223 39.315108 
L 278.171223 19.243165 
" clip-path="url(#p4d90208e05)" style="fill: none; stroke-dasharray: 3.7,1.6; stroke-dashoffset: 0; stroke: #000000"/>
   </g>
   <g id="line2d_19">
    <path d="M 238.027338 79.458993 
L 278.171223 79.458993 
" clip-path="url(#p4d90208e05)" style="fill: none; stroke: #000000; stroke-linecap: square"/>
   </g>
   <g id="line2d_20">
    <path d="M 238.027338 39.315108 
L 278.171223 39.315108 
" clip-path="url(#p4d90208e05)" style="fill: none; stroke: #000000; stroke-linecap: square"/>
   </g>
   <g id="line2d_21">
    <path d="M 238.027338 79.458993 
L 238.027338 39.315108 
" clip-path="url(#p4d90208e05)" style="fill: none; stroke: #000000; stroke-linecap: square"/>
   </g>
   <g id="line2d_22">
    <path d="M 238.027338 39.315108 
L 238.027338 19.243165 
" clip-path="url(#p4d90208e05)" style="fill: none; stroke-dasharray: 3.7,1.6; stroke-dashoffset: 0; stroke: #000000"/>
   </g>
   <g id="line2d_23">
    <path d="M 238.027338 39.315108 
L 217.955396 39.315108 
" clip-path="url(#p4d90208e05)" style="fill: none; stroke-dasharray: 3.7,1.6; stroke-dashoffset: 0; stroke: #000000"/>
   </g>
   <g id="line2d_24">
    <path d="M 238.027338 79.458993 
L 217.955396 79.458993 
" clip-path="url(#p4d90208e05)" style="fill: none; stroke-dasharray: 3.7,1.6; stroke-dashoffset: 0; stroke: #000000"/>
   </g>
   <g id="text_1">
    <!-- $0$ -->
    <g transform="translate(30.180719 89.552131)scale(0.08 -0.08)">
     <defs>
      <path id="DejaVuSans-30" d="M 2034 4250 
Q 1547 4250 1301 3770 
Q 1056 3291 1056 2328 
Q 1056 1369 1301 889 
Q 1547 409 2034 409 
Q 2525 409 2770 889 
Q 3016 1369 3016 2328 
Q 3016 3291 2770 3770 
Q 2525 4250 2034 4250 
z
M 2034 4750 
Q 2819 4750 3233 4129 
Q 3647 3509 3647 2328 
Q 3647 1150 3233 529 
Q 2819 -91 2034 -91 
Q 1250 -91 836 529 
Q 422 1150 422 2328 
Q 422 3509 836 4129 
Q 1250 4750 2034 4750 
z
" transform="scale(0.015625)"/>
     </defs>
     <use xlink:href="#DejaVuSans-30" transform="translate(0 0.78125)"/>
    </g>
   </g>
   <g id="text_2">
    <!-- $N_x$ -->
    <g transform="translate(25.780719 49.408246)scale(0.08 -0.08)">
     <defs>
      <path id="DejaVuSans-Oblique-4e" d="M 1081 4666 
L 1931 4666 
L 3219 666 
L 4000 4666 
L 4616 4666 
L 3706 0 
L 2853 0 
L 1569 4025 
L 788 0 
L 172 0 
L 1081 4666 
z
" transform="scale(0.015625)"/>
      <path id="DejaVuSans-Oblique-78" d="M 3841 3500 
L 2234 1784 
L 3219 0 
L 2559 0 
L 1819 1388 
L 531 0 
L -166 0 
L 1556 1844 
L 641 3500 
L 1300 3500 
L 1972 2234 
L 3144 3500 
L 3841 3500 
z
" transform="scale(0.015625)"/>
     </defs>
     <use xlink:href="#DejaVuSans-Oblique-4e" transform="translate(0 0.09375)"/>
     <use xlink:href="#DejaVuSans-Oblique-78" transform="translate(74.804688 -16.3125)scale(0.7)"/>
    </g>
   </g>
   <g id="text_3">
    <!-- $1$ -->
    <g transform="translate(70.324604 89.552131)scale(0.08 -0.08)">
     <defs>
      <path id="DejaVuSans-31" d="M 794 531 
L 1825 531 
L 1825 4091 
L 703 3866 
L 703 4441 
L 1819 4666 
L 2450 4666 
L 2450 531 
L 3481 531 
L 3481 0 
L 794 0 
L 794 531 
z
" transform="scale(0.015625)"/>
     </defs>
     <use xlink:href="#DejaVuSans-31" transform="translate(0 0.09375)"/>
    </g>
   </g>
   <g id="text_4">
    <!-- $N_x\!+\!1$ -->
    <g transform="translate(53.604604 49.408246)scale(0.08 -0.08)">
     <defs>
      <path id="DejaVuSans-2b" d="M 2944 4013 
L 2944 2272 
L 4684 2272 
L 4684 1741 
L 2944 1741 
L 2944 0 
L 2419 0 
L 2419 1741 
L 678 1741 
L 678 2272 
L 2419 2272 
L 2419 4013 
L 2944 4013 
z
" transform="scale(0.015625)"/>
     </defs>
     <use xlink:href="#DejaVuSans-Oblique-4e" transform="translate(0 0.09375)"/>
     <use xlink:href="#DejaVuSans-Oblique-78" transform="translate(74.804688 -16.3125)scale(0.7)"/>
     <use xlink:href="#DejaVuSans-2b" transform="translate(122.211589 0.09375)"/>
     <use xlink:href="#DejaVuSans-31" transform="translate(209.247397 0.09375)"/>
    </g>
   </g>
   <g id="text_5">
    <!-- $2$ -->
    <g transform="translate(110.468489 89.552131)scale(0.08 -0.08)">
     <defs>
      <path id="DejaVuSans-32" d="M 1228 531 
L 3431 531 
L 3431 0 
L 469 0 
L 469 531 
Q 828 903 1448 1529 
Q 2069 2156 2228 2338 
Q 2531 2678 2651 2914 
Q 2772 3150 2772 3378 
Q 2772 3750 2511 3984 
Q 2250 4219 1831 4219 
Q 1534 4219 1204 4116 
Q 875 4013 500 3803 
L 500 4441 
Q 881 4594 1212 4672 
Q 1544 4750 1819 4750 
Q 2544 4750 2975 4387 
Q 3406 4025 3406 3419 
Q 3406 3131 3298 2873 
Q 3191 2616 2906 2266 
Q 2828 2175 2409 1742 
Q 1991 1309 1228 531 
z
" transform="scale(0.015625)"/>
     </defs>
     <use xlink:href="#DejaVuSans-32" transform="translate(0 0.78125)"/>
    </g>
   </g>
   <g id="text_6">
    <!-- $N_x\!+\!2$ -->
    <g transform="translate(93.748489 49.408246)scale(0.08 -0.08)">
     <use xlink:href="#DejaVuSans-Oblique-4e" transform="translate(0 0.78125)"/>
     <use xlink:href="#DejaVuSans-Oblique-78" transform="translate(74.804688 -15.625)scale(0.7)"/>
     <use xlink:href="#DejaVuSans-2b" transform="translate(122.211589 0.78125)"/>
     <use xlink:href="#DejaVuSans-32" transform="translate(209.247397 0.78125)"/>
    </g>
   </g>
   <g id="text_7">
    <!-- $3$ -->
    <g transform="translate(150.612374 89.552131)scale(0.08 -0.08)">
     <defs>
      <path id="DejaVuSans-33" d="M 2597 2516 
Q 3050 2419 3304 2112 
Q 3559 1806 3559 1356 
Q 3559 666 3084 287 
Q 2609 -91 1734 -91 
Q 1441 -91 1130 -33 
Q 819 25 488 141 
L 488 750 
Q 750 597 1062 519 
Q 1375 441 1716 441 
Q 2309 441 2620 675 
Q 2931 909 2931 1356 
Q 2931 1769 2642 2001 
Q 2353 2234 1838 2234 
L 1294 2234 
L 1294 2753 
L 1863 2753 
Q 2328 2753 2575 2939 
Q 2822 3125 2822 3475 
Q 2822 3834 2567 4026 
Q 2313 4219 1838 4219 
Q 1578 4219 1281 4162 
Q 984 4106 628 3988 
L 628 4550 
Q 988 4650 1302 4700 
Q 1616 4750 1894 4750 
Q 2613 4750 3031 4423 
Q 3450 4097 3450 3541 
Q 3450 3153 3228 2886 
Q 3006 2619 2597 2516 
z
" transform="scale(0.015625)"/>
     </defs>
     <use xlink:href="#DejaVuSans-33" transform="translate(0 0.78125)"/>
    </g>
   </g>
   <g id="text_8">
    <!-- $N_x\!+\!3$ -->
    <g transform="translate(133.892374 49.408246)scale(0.08 -0.08)">
     <use xlink:href="#DejaVuSans-Oblique-4e" transform="translate(0 0.78125)"/>
     <use xlink:href="#DejaVuSans-Oblique-78" transform="translate(74.804688 -15.625)scale(0.7)"/>
     <use xlink:href="#DejaVuSans-2b" transform="translate(122.211589 0.78125)"/>
     <use xlink:href="#DejaVuSans-33" transform="translate(209.247397 0.78125)"/>
    </g>
   </g>
   <g id="text_9">
    <!-- $N_x\!-\!1$ -->
    <g transform="translate(254.324029 89.552131)scale(0.08 -0.08)">
     <defs>
      <path id="DejaVuSans-2212" d="M 678 2272 
L 4684 2272 
L 4684 1741 
L 678 1741 
L 678 2272 
z
" transform="scale(0.015625)"/>
     </defs>
     <use xlink:href="#DejaVuSans-Oblique-4e" transform="translate(0 0.09375)"/>
     <use xlink:href="#DejaVuSans-Oblique-78" transform="translate(74.804688 -16.3125)scale(0.7)"/>
     <use xlink:href="#DejaVuSans-2212" transform="translate(122.211589 0.09375)"/>
     <use xlink:href="#DejaVuSans-31" transform="translate(209.247397 0.09375)"/>
    </g>
   </g>
   <g id="text_10">
    <!-- $2N_x\!-\!1$ -->
    <g transform="translate(249.204029 49.408246)scale(0.08 -0.08)">
     <use xlink:href="#DejaVuSans-32" transform="translate(0 0.78125)"/>
     <use xlink:href="#DejaVuSans-Oblique-4e" transform="translate(63.623047 0.78125)"/>
     <use xlink:href="#DejaVuSans-Oblique-78" transform="translate(138.427734 -15.625)scale(0.7)"/>
     <use xlink:href="#DejaVuSans-2212" transform="translate(185.834636 0.78125)"/>
     <use xlink:href="#DejaVuSans-31" transform="translate(272.870444 0.78125)"/>
    </g>
   </g>
   <g id="text_11">
    <!-- $N_x\!-\!2$ -->
    <g transform="translate(214.180144 89.552131)scale(0.08 -0.08)">
     <use xlink:href="#DejaVuSans-Oblique-4e" transform="translate(0 0.78125)"/>
     <use xlink:href="#DejaVuSans-Oblique-78" transform="translate(74.804688 -15.625)scale(0.7)"/>
     <use xlink:href="#DejaVuSans-2212" transform="translate(122.211589 0.78125)"/>
     <use xlink:href="#DejaVuSans-32" transform="translate(209.247397 0.78125)"/>
    </g>
   </g>
   <g id="text_12">
    <!-- $2N_x\!-\!2$ -->
    <g transform="translate(209.060144 49.408246)scale(0.08 -0.08)">
     <use xlink:href="#DejaVuSans-32" transform="translate(0 0.78125)"/>
     <use xlink:href="#DejaVuSans-Oblique-4e" transform="translate(63.623047 0.78125)"/>
     <use xlink:href="#DejaVuSans-Oblique-78" transform="translate(138.427734 -15.625)scale(0.7)"/>
     <use xlink:href="#DejaVuSans-2212" transform="translate(185.834636 0.78125)"/>
     <use xlink:href="#DejaVuSans-32" transform="translate(272.870444 0.78125)"/>
    </g>
   </g>
   <g id="text_13">
    <!-- $i$ -->
    <g transform="translate(155.499568 111.631268)scale(0.08 -0.08)">
     <defs>
      <path id="DejaVuSans-Oblique-69" d="M 1172 4863 
L 1747 4863 
L 1606 4134 
L 1031 4134 
L 1172 4863 
z
M 909 3500 
L 1484 3500 
L 800 0 
L 225 0 
L 909 3500 
z
" transform="scale(0.015625)"/>
     </defs>
     <use xlink:href="#DejaVuSans-Oblique-69" transform="translate(0 0.015625)"/>
    </g>
   </g>
   <g id="text_14">
    <!-- $j$ -->
    <g transform="translate(8.974388 53.423885)scale(0.08 -0.08)">
     <defs>
      <path id="DejaVuSans-Oblique-6a" d="M 928 3500 
L 1503 3500 
L 813 -63 
L 809 -78 
Q 694 -675 544 -897 
Q 403 -1106 132 -1218 
Q -138 -1331 -506 -1331 
L -722 -1331 
L -628 -844 
L -481 -844 
Q -144 -844 -1 -703 
Q 141 -563 238 -63 
L 928 3500 
z
M 1197 4863 
L 1772 4863 
L 1631 4134 
L 1056 4134 
L 1197 4863 
z
" transform="scale(0.015625)"/>
     </defs>
     <use xlink:href="#DejaVuSans-Oblique-6a" transform="translate(0 0.015625)"/>
    </g>
   </g>
   <g id="patch_2">
    <path d="M 238.027338 99.530935 
L 233.210072 101.216978 
L 234.173525 99.651367 
L 77.451799 99.651367 
L 77.451799 99.410504 
L 234.173525 99.410504 
L 233.210072 97.844892 
z
" clip-path="url(#p4d90208e05)" style="stroke: #000000; stroke-width: 0.4; stroke-linejoin: miter"/>
   </g>
   <g id="patch_3">
    <path d="M 17.235971 19.243165 
L 18.922014 24.060432 
L 17.356403 23.096978 
L 17.356403 79.458993 
L 17.11554 79.458993 
L 17.11554 23.096978 
L 15.549928 24.060432 
z
" clip-path="url(#p4d90208e05)" style="stroke: #000000; stroke-width: 0.4; stroke-linejoin: miter"/>
   </g>
  </g>
 </g>
 <defs>
  <clipPath id="p4d90208e05">
   <rect x="7.2" y="7.2" width="279" height="102.366906"/>
  </clipPath>
 </defs>
</svg>
