<?xml version="1.0" encoding="utf-8" standalone="no"?>
<!DOCTYPE svg PUBLIC "-//W3C//DTD SVG 1.1//EN"
  "http://www.w3.org/Graphics/SVG/1.1/DTD/svg11.dtd">
<svg xmlns:xlink="http://www.w3.org/1999/xlink" width="213.73pt" height="209.244375pt" viewBox="0 0 213.73 209.244375" xmlns="http://www.w3.org/2000/svg" version="1.1">
 <metadata>
  <rdf:RDF xmlns:dc="http://purl.org/dc/elements/1.1/" xmlns:cc="http://creativecommons.org/ns#" xmlns:rdf="http://www.w3.org/1999/02/22-rdf-syntax-ns#">
   <cc:Work>
    <dc:type rdf:resource="http://purl.org/dc/dcmitype/StillImage"/>
    <dc:format>image/svg+xml</dc:format>
    <dc:creator>
     <cc:Agent>
      <dc:title>Matplotlib v3.5.2, https://matplotlib.org/</dc:title>
     </cc:Agent>
    </dc:creator>
   </cc:Work>
  </rdf:RDF>
 </metadata>
 <defs>
  <style type="text/css">*{stroke-linejoin: round; stroke-linecap: butt}</style>
 </defs>
 <g id="figure_1">
  <g id="patch_1">
   <path d="M 0 209.244375 
L 213.73 209.244375 
L 213.73 0 
L 0 0 
L 0 209.244375 
z
" style="fill: none"/>
  </g>
  <g id="axes_1">
   <g id="patch_2">
    <path d="M 37.665 176.559375 
L 203.985 176.559375 
L 203.985 10.239375 
L 37.665 10.239375 
L 37.665 176.559375 
z
" style="fill: none"/>
   </g>
   <g id="matplotlib.axis_1">
    <g id="xtick_1">
     <g id="line2d_1">
      <path d="M 37.665 176.559375 
L 37.665 10.239375 
" clip-path="url(#p89b3eaf79c)" style="fill: none; stroke: #b0b0b0; stroke-width: 0.5; stroke-linecap: square"/>
     </g>
     <g id="line2d_2">
      <defs>
       <path id="m4cd371f86f" d="M 0 0 
L 0 2.5 
" style="stroke: #000000; stroke-width: 0.6"/>
      </defs>
      <g>
       <use xlink:href="#m4cd371f86f" x="37.665" y="176.559375" style="stroke: #000000; stroke-width: 0.6"/>
      </g>
     </g>
     <g id="text_1">
      <!-- 0 -->
      <g transform="translate(35.12 188.638125)scale(0.08 -0.08)">
       <defs>
        <path id="DejaVuSans-30" d="M 2034 4250 
Q 1547 4250 1301 3770 
Q 1056 3291 1056 2328 
Q 1056 1369 1301 889 
Q 1547 409 2034 409 
Q 2525 409 2770 889 
Q 3016 1369 3016 2328 
Q 3016 3291 2770 3770 
Q 2525 4250 2034 4250 
z
M 2034 4750 
Q 2819 4750 3233 4129 
Q 3647 3509 3647 2328 
Q 3647 1150 3233 529 
Q 2819 -91 2034 -91 
Q 1250 -91 836 529 
Q 422 1150 422 2328 
Q 422 3509 836 4129 
Q 1250 4750 2034 4750 
z
" transform="scale(0.015625)"/>
       </defs>
       <use xlink:href="#DejaVuSans-30"/>
      </g>
     </g>
    </g>
    <g id="xtick_2">
     <g id="line2d_3">
      <path d="M 54.297 176.559375 
L 54.297 10.239375 
" clip-path="url(#p89b3eaf79c)" style="fill: none; stroke: #b0b0b0; stroke-width: 0.5; stroke-linecap: square"/>
     </g>
     <g id="line2d_4">
      <g>
       <use xlink:href="#m4cd371f86f" x="54.297" y="176.559375" style="stroke: #000000; stroke-width: 0.6"/>
      </g>
     </g>
     <g id="text_2">
      <!-- 0.1 -->
      <g transform="translate(47.93575 188.638125)scale(0.08 -0.08)">
       <defs>
        <path id="DejaVuSans-2e" d="M 684 794 
L 1344 794 
L 1344 0 
L 684 0 
L 684 794 
z
" transform="scale(0.015625)"/>
        <path id="DejaVuSans-31" d="M 794 531 
L 1825 531 
L 1825 4091 
L 703 3866 
L 703 4441 
L 1819 4666 
L 2450 4666 
L 2450 531 
L 3481 531 
L 3481 0 
L 794 0 
L 794 531 
z
" transform="scale(0.015625)"/>
       </defs>
       <use xlink:href="#DejaVuSans-30"/>
       <use xlink:href="#DejaVuSans-2e" x="63.623047"/>
       <use xlink:href="#DejaVuSans-31" x="95.410156"/>
      </g>
     </g>
    </g>
    <g id="xtick_3">
     <g id="line2d_5">
      <path d="M 70.929 176.559375 
L 70.929 10.239375 
" clip-path="url(#p89b3eaf79c)" style="fill: none; stroke: #b0b0b0; stroke-width: 0.5; stroke-linecap: square"/>
     </g>
     <g id="line2d_6">
      <g>
       <use xlink:href="#m4cd371f86f" x="70.929" y="176.559375" style="stroke: #000000; stroke-width: 0.6"/>
      </g>
     </g>
     <g id="text_3">
      <!-- 0.2 -->
      <g transform="translate(64.56775 188.638125)scale(0.08 -0.08)">
       <defs>
        <path id="DejaVuSans-32" d="M 1228 531 
L 3431 531 
L 3431 0 
L 469 0 
L 469 531 
Q 828 903 1448 1529 
Q 2069 2156 2228 2338 
Q 2531 2678 2651 2914 
Q 2772 3150 2772 3378 
Q 2772 3750 2511 3984 
Q 2250 4219 1831 4219 
Q 1534 4219 1204 4116 
Q 875 4013 500 3803 
L 500 4441 
Q 881 4594 1212 4672 
Q 1544 4750 1819 4750 
Q 2544 4750 2975 4387 
Q 3406 4025 3406 3419 
Q 3406 3131 3298 2873 
Q 3191 2616 2906 2266 
Q 2828 2175 2409 1742 
Q 1991 1309 1228 531 
z
" transform="scale(0.015625)"/>
       </defs>
       <use xlink:href="#DejaVuSans-30"/>
       <use xlink:href="#DejaVuSans-2e" x="63.623047"/>
       <use xlink:href="#DejaVuSans-32" x="95.410156"/>
      </g>
     </g>
    </g>
    <g id="xtick_4">
     <g id="line2d_7">
      <path d="M 87.561 176.559375 
L 87.561 10.239375 
" clip-path="url(#p89b3eaf79c)" style="fill: none; stroke: #b0b0b0; stroke-width: 0.5; stroke-linecap: square"/>
     </g>
     <g id="line2d_8">
      <g>
       <use xlink:href="#m4cd371f86f" x="87.561" y="176.559375" style="stroke: #000000; stroke-width: 0.6"/>
      </g>
     </g>
     <g id="text_4">
      <!-- 0.3 -->
      <g transform="translate(81.19975 188.638125)scale(0.08 -0.08)">
       <defs>
        <path id="DejaVuSans-33" d="M 2597 2516 
Q 3050 2419 3304 2112 
Q 3559 1806 3559 1356 
Q 3559 666 3084 287 
Q 2609 -91 1734 -91 
Q 1441 -91 1130 -33 
Q 819 25 488 141 
L 488 750 
Q 750 597 1062 519 
Q 1375 441 1716 441 
Q 2309 441 2620 675 
Q 2931 909 2931 1356 
Q 2931 1769 2642 2001 
Q 2353 2234 1838 2234 
L 1294 2234 
L 1294 2753 
L 1863 2753 
Q 2328 2753 2575 2939 
Q 2822 3125 2822 3475 
Q 2822 3834 2567 4026 
Q 2313 4219 1838 4219 
Q 1578 4219 1281 4162 
Q 984 4106 628 3988 
L 628 4550 
Q 988 4650 1302 4700 
Q 1616 4750 1894 4750 
Q 2613 4750 3031 4423 
Q 3450 4097 3450 3541 
Q 3450 3153 3228 2886 
Q 3006 2619 2597 2516 
z
" transform="scale(0.015625)"/>
       </defs>
       <use xlink:href="#DejaVuSans-30"/>
       <use xlink:href="#DejaVuSans-2e" x="63.623047"/>
       <use xlink:href="#DejaVuSans-33" x="95.410156"/>
      </g>
     </g>
    </g>
    <g id="xtick_5">
     <g id="line2d_9">
      <path d="M 104.193 176.559375 
L 104.193 10.239375 
" clip-path="url(#p89b3eaf79c)" style="fill: none; stroke: #b0b0b0; stroke-width: 0.5; stroke-linecap: square"/>
     </g>
     <g id="line2d_10">
      <g>
       <use xlink:href="#m4cd371f86f" x="104.193" y="176.559375" style="stroke: #000000; stroke-width: 0.6"/>
      </g>
     </g>
     <g id="text_5">
      <!-- 0.4 -->
      <g transform="translate(97.83175 188.638125)scale(0.08 -0.08)">
       <defs>
        <path id="DejaVuSans-34" d="M 2419 4116 
L 825 1625 
L 2419 1625 
L 2419 4116 
z
M 2253 4666 
L 3047 4666 
L 3047 1625 
L 3713 1625 
L 3713 1100 
L 3047 1100 
L 3047 0 
L 2419 0 
L 2419 1100 
L 313 1100 
L 313 1709 
L 2253 4666 
z
" transform="scale(0.015625)"/>
       </defs>
       <use xlink:href="#DejaVuSans-30"/>
       <use xlink:href="#DejaVuSans-2e" x="63.623047"/>
       <use xlink:href="#DejaVuSans-34" x="95.410156"/>
      </g>
     </g>
    </g>
    <g id="xtick_6">
     <g id="line2d_11">
      <path d="M 120.825 176.559375 
L 120.825 10.239375 
" clip-path="url(#p89b3eaf79c)" style="fill: none; stroke: #b0b0b0; stroke-width: 0.5; stroke-linecap: square"/>
     </g>
     <g id="line2d_12">
      <g>
       <use xlink:href="#m4cd371f86f" x="120.825" y="176.559375" style="stroke: #000000; stroke-width: 0.6"/>
      </g>
     </g>
     <g id="text_6">
      <!-- 0.5 -->
      <g transform="translate(114.46375 188.638125)scale(0.08 -0.08)">
       <defs>
        <path id="DejaVuSans-35" d="M 691 4666 
L 3169 4666 
L 3169 4134 
L 1269 4134 
L 1269 2991 
Q 1406 3038 1543 3061 
Q 1681 3084 1819 3084 
Q 2600 3084 3056 2656 
Q 3513 2228 3513 1497 
Q 3513 744 3044 326 
Q 2575 -91 1722 -91 
Q 1428 -91 1123 -41 
Q 819 9 494 109 
L 494 744 
Q 775 591 1075 516 
Q 1375 441 1709 441 
Q 2250 441 2565 725 
Q 2881 1009 2881 1497 
Q 2881 1984 2565 2268 
Q 2250 2553 1709 2553 
Q 1456 2553 1204 2497 
Q 953 2441 691 2322 
L 691 4666 
z
" transform="scale(0.015625)"/>
       </defs>
       <use xlink:href="#DejaVuSans-30"/>
       <use xlink:href="#DejaVuSans-2e" x="63.623047"/>
       <use xlink:href="#DejaVuSans-35" x="95.410156"/>
      </g>
     </g>
    </g>
    <g id="xtick_7">
     <g id="line2d_13">
      <path d="M 137.457 176.559375 
L 137.457 10.239375 
" clip-path="url(#p89b3eaf79c)" style="fill: none; stroke: #b0b0b0; stroke-width: 0.5; stroke-linecap: square"/>
     </g>
     <g id="line2d_14">
      <g>
       <use xlink:href="#m4cd371f86f" x="137.457" y="176.559375" style="stroke: #000000; stroke-width: 0.6"/>
      </g>
     </g>
     <g id="text_7">
      <!-- 0.6 -->
      <g transform="translate(131.09575 188.638125)scale(0.08 -0.08)">
       <defs>
        <path id="DejaVuSans-36" d="M 2113 2584 
Q 1688 2584 1439 2293 
Q 1191 2003 1191 1497 
Q 1191 994 1439 701 
Q 1688 409 2113 409 
Q 2538 409 2786 701 
Q 3034 994 3034 1497 
Q 3034 2003 2786 2293 
Q 2538 2584 2113 2584 
z
M 3366 4563 
L 3366 3988 
Q 3128 4100 2886 4159 
Q 2644 4219 2406 4219 
Q 1781 4219 1451 3797 
Q 1122 3375 1075 2522 
Q 1259 2794 1537 2939 
Q 1816 3084 2150 3084 
Q 2853 3084 3261 2657 
Q 3669 2231 3669 1497 
Q 3669 778 3244 343 
Q 2819 -91 2113 -91 
Q 1303 -91 875 529 
Q 447 1150 447 2328 
Q 447 3434 972 4092 
Q 1497 4750 2381 4750 
Q 2619 4750 2861 4703 
Q 3103 4656 3366 4563 
z
" transform="scale(0.015625)"/>
       </defs>
       <use xlink:href="#DejaVuSans-30"/>
       <use xlink:href="#DejaVuSans-2e" x="63.623047"/>
       <use xlink:href="#DejaVuSans-36" x="95.410156"/>
      </g>
     </g>
    </g>
    <g id="xtick_8">
     <g id="line2d_15">
      <path d="M 154.089 176.559375 
L 154.089 10.239375 
" clip-path="url(#p89b3eaf79c)" style="fill: none; stroke: #b0b0b0; stroke-width: 0.5; stroke-linecap: square"/>
     </g>
     <g id="line2d_16">
      <g>
       <use xlink:href="#m4cd371f86f" x="154.089" y="176.559375" style="stroke: #000000; stroke-width: 0.6"/>
      </g>
     </g>
     <g id="text_8">
      <!-- 0.7 -->
      <g transform="translate(147.72775 188.638125)scale(0.08 -0.08)">
       <defs>
        <path id="DejaVuSans-37" d="M 525 4666 
L 3525 4666 
L 3525 4397 
L 1831 0 
L 1172 0 
L 2766 4134 
L 525 4134 
L 525 4666 
z
" transform="scale(0.015625)"/>
       </defs>
       <use xlink:href="#DejaVuSans-30"/>
       <use xlink:href="#DejaVuSans-2e" x="63.623047"/>
       <use xlink:href="#DejaVuSans-37" x="95.410156"/>
      </g>
     </g>
    </g>
    <g id="xtick_9">
     <g id="line2d_17">
      <path d="M 170.721 176.559375 
L 170.721 10.239375 
" clip-path="url(#p89b3eaf79c)" style="fill: none; stroke: #b0b0b0; stroke-width: 0.5; stroke-linecap: square"/>
     </g>
     <g id="line2d_18">
      <g>
       <use xlink:href="#m4cd371f86f" x="170.721" y="176.559375" style="stroke: #000000; stroke-width: 0.6"/>
      </g>
     </g>
     <g id="text_9">
      <!-- 0.8 -->
      <g transform="translate(164.35975 188.638125)scale(0.08 -0.08)">
       <defs>
        <path id="DejaVuSans-38" d="M 2034 2216 
Q 1584 2216 1326 1975 
Q 1069 1734 1069 1313 
Q 1069 891 1326 650 
Q 1584 409 2034 409 
Q 2484 409 2743 651 
Q 3003 894 3003 1313 
Q 3003 1734 2745 1975 
Q 2488 2216 2034 2216 
z
M 1403 2484 
Q 997 2584 770 2862 
Q 544 3141 544 3541 
Q 544 4100 942 4425 
Q 1341 4750 2034 4750 
Q 2731 4750 3128 4425 
Q 3525 4100 3525 3541 
Q 3525 3141 3298 2862 
Q 3072 2584 2669 2484 
Q 3125 2378 3379 2068 
Q 3634 1759 3634 1313 
Q 3634 634 3220 271 
Q 2806 -91 2034 -91 
Q 1263 -91 848 271 
Q 434 634 434 1313 
Q 434 1759 690 2068 
Q 947 2378 1403 2484 
z
M 1172 3481 
Q 1172 3119 1398 2916 
Q 1625 2713 2034 2713 
Q 2441 2713 2670 2916 
Q 2900 3119 2900 3481 
Q 2900 3844 2670 4047 
Q 2441 4250 2034 4250 
Q 1625 4250 1398 4047 
Q 1172 3844 1172 3481 
z
" transform="scale(0.015625)"/>
       </defs>
       <use xlink:href="#DejaVuSans-30"/>
       <use xlink:href="#DejaVuSans-2e" x="63.623047"/>
       <use xlink:href="#DejaVuSans-38" x="95.410156"/>
      </g>
     </g>
    </g>
    <g id="xtick_10">
     <g id="line2d_19">
      <path d="M 187.353 176.559375 
L 187.353 10.239375 
" clip-path="url(#p89b3eaf79c)" style="fill: none; stroke: #b0b0b0; stroke-width: 0.5; stroke-linecap: square"/>
     </g>
     <g id="line2d_20">
      <g>
       <use xlink:href="#m4cd371f86f" x="187.353" y="176.559375" style="stroke: #000000; stroke-width: 0.6"/>
      </g>
     </g>
     <g id="text_10">
      <!-- 0.9 -->
      <g transform="translate(180.99175 188.638125)scale(0.08 -0.08)">
       <defs>
        <path id="DejaVuSans-39" d="M 703 97 
L 703 672 
Q 941 559 1184 500 
Q 1428 441 1663 441 
Q 2288 441 2617 861 
Q 2947 1281 2994 2138 
Q 2813 1869 2534 1725 
Q 2256 1581 1919 1581 
Q 1219 1581 811 2004 
Q 403 2428 403 3163 
Q 403 3881 828 4315 
Q 1253 4750 1959 4750 
Q 2769 4750 3195 4129 
Q 3622 3509 3622 2328 
Q 3622 1225 3098 567 
Q 2575 -91 1691 -91 
Q 1453 -91 1209 -44 
Q 966 3 703 97 
z
M 1959 2075 
Q 2384 2075 2632 2365 
Q 2881 2656 2881 3163 
Q 2881 3666 2632 3958 
Q 2384 4250 1959 4250 
Q 1534 4250 1286 3958 
Q 1038 3666 1038 3163 
Q 1038 2656 1286 2365 
Q 1534 2075 1959 2075 
z
" transform="scale(0.015625)"/>
       </defs>
       <use xlink:href="#DejaVuSans-30"/>
       <use xlink:href="#DejaVuSans-2e" x="63.623047"/>
       <use xlink:href="#DejaVuSans-39" x="95.410156"/>
      </g>
     </g>
    </g>
    <g id="xtick_11">
     <g id="line2d_21">
      <path d="M 203.985 176.559375 
L 203.985 10.239375 
" clip-path="url(#p89b3eaf79c)" style="fill: none; stroke: #b0b0b0; stroke-width: 0.5; stroke-linecap: square"/>
     </g>
     <g id="line2d_22">
      <g>
       <use xlink:href="#m4cd371f86f" x="203.985" y="176.559375" style="stroke: #000000; stroke-width: 0.6"/>
      </g>
     </g>
     <g id="text_11">
      <!-- 1 -->
      <g transform="translate(201.44 188.638125)scale(0.08 -0.08)">
       <use xlink:href="#DejaVuSans-31"/>
      </g>
     </g>
    </g>
    <g id="text_12">
     <!-- $x$ -->
     <g transform="translate(118.425 200.380625)scale(0.08 -0.08)">
      <defs>
       <path id="DejaVuSans-Oblique-78" d="M 3841 3500 
L 2234 1784 
L 3219 0 
L 2559 0 
L 1819 1388 
L 531 0 
L -166 0 
L 1556 1844 
L 641 3500 
L 1300 3500 
L 1972 2234 
L 3144 3500 
L 3841 3500 
z
" transform="scale(0.015625)"/>
      </defs>
      <use xlink:href="#DejaVuSans-Oblique-78" transform="translate(0 0.3125)"/>
     </g>
    </g>
   </g>
   <g id="matplotlib.axis_2">
    <g id="ytick_1">
     <g id="line2d_23">
      <path d="M 37.665 176.559375 
L 203.985 176.559375 
" clip-path="url(#p89b3eaf79c)" style="fill: none; stroke: #b0b0b0; stroke-width: 0.5; stroke-linecap: square"/>
     </g>
     <g id="line2d_24">
      <defs>
       <path id="m56f3a9ced1" d="M 0 0 
L -2.5 0 
" style="stroke: #000000; stroke-width: 0.6"/>
      </defs>
      <g>
       <use xlink:href="#m56f3a9ced1" x="37.665" y="176.559375" style="stroke: #000000; stroke-width: 0.6"/>
      </g>
     </g>
     <g id="text_13">
      <!-- 0 -->
      <g transform="translate(26.575 179.59875)scale(0.08 -0.08)">
       <use xlink:href="#DejaVuSans-30"/>
      </g>
     </g>
    </g>
    <g id="ytick_2">
     <g id="line2d_25">
      <path d="M 37.665 159.927375 
L 203.985 159.927375 
" clip-path="url(#p89b3eaf79c)" style="fill: none; stroke: #b0b0b0; stroke-width: 0.5; stroke-linecap: square"/>
     </g>
     <g id="line2d_26">
      <g>
       <use xlink:href="#m56f3a9ced1" x="37.665" y="159.927375" style="stroke: #000000; stroke-width: 0.6"/>
      </g>
     </g>
     <g id="text_14">
      <!-- 0.1 -->
      <g transform="translate(18.9425 162.96675)scale(0.08 -0.08)">
       <use xlink:href="#DejaVuSans-30"/>
       <use xlink:href="#DejaVuSans-2e" x="63.623047"/>
       <use xlink:href="#DejaVuSans-31" x="95.410156"/>
      </g>
     </g>
    </g>
    <g id="ytick_3">
     <g id="line2d_27">
      <path d="M 37.665 143.295375 
L 203.985 143.295375 
" clip-path="url(#p89b3eaf79c)" style="fill: none; stroke: #b0b0b0; stroke-width: 0.5; stroke-linecap: square"/>
     </g>
     <g id="line2d_28">
      <g>
       <use xlink:href="#m56f3a9ced1" x="37.665" y="143.295375" style="stroke: #000000; stroke-width: 0.6"/>
      </g>
     </g>
     <g id="text_15">
      <!-- 0.2 -->
      <g transform="translate(18.9425 146.33475)scale(0.08 -0.08)">
       <use xlink:href="#DejaVuSans-30"/>
       <use xlink:href="#DejaVuSans-2e" x="63.623047"/>
       <use xlink:href="#DejaVuSans-32" x="95.410156"/>
      </g>
     </g>
    </g>
    <g id="ytick_4">
     <g id="line2d_29">
      <path d="M 37.665 126.663375 
L 203.985 126.663375 
" clip-path="url(#p89b3eaf79c)" style="fill: none; stroke: #b0b0b0; stroke-width: 0.5; stroke-linecap: square"/>
     </g>
     <g id="line2d_30">
      <g>
       <use xlink:href="#m56f3a9ced1" x="37.665" y="126.663375" style="stroke: #000000; stroke-width: 0.6"/>
      </g>
     </g>
     <g id="text_16">
      <!-- 0.3 -->
      <g transform="translate(18.9425 129.70275)scale(0.08 -0.08)">
       <use xlink:href="#DejaVuSans-30"/>
       <use xlink:href="#DejaVuSans-2e" x="63.623047"/>
       <use xlink:href="#DejaVuSans-33" x="95.410156"/>
      </g>
     </g>
    </g>
    <g id="ytick_5">
     <g id="line2d_31">
      <path d="M 37.665 110.031375 
L 203.985 110.031375 
" clip-path="url(#p89b3eaf79c)" style="fill: none; stroke: #b0b0b0; stroke-width: 0.5; stroke-linecap: square"/>
     </g>
     <g id="line2d_32">
      <g>
       <use xlink:href="#m56f3a9ced1" x="37.665" y="110.031375" style="stroke: #000000; stroke-width: 0.6"/>
      </g>
     </g>
     <g id="text_17">
      <!-- 0.4 -->
      <g transform="translate(18.9425 113.07075)scale(0.08 -0.08)">
       <use xlink:href="#DejaVuSans-30"/>
       <use xlink:href="#DejaVuSans-2e" x="63.623047"/>
       <use xlink:href="#DejaVuSans-34" x="95.410156"/>
      </g>
     </g>
    </g>
    <g id="ytick_6">
     <g id="line2d_33">
      <path d="M 37.665 93.399375 
L 203.985 93.399375 
" clip-path="url(#p89b3eaf79c)" style="fill: none; stroke: #b0b0b0; stroke-width: 0.5; stroke-linecap: square"/>
     </g>
     <g id="line2d_34">
      <g>
       <use xlink:href="#m56f3a9ced1" x="37.665" y="93.399375" style="stroke: #000000; stroke-width: 0.6"/>
      </g>
     </g>
     <g id="text_18">
      <!-- 0.5 -->
      <g transform="translate(18.9425 96.43875)scale(0.08 -0.08)">
       <use xlink:href="#DejaVuSans-30"/>
       <use xlink:href="#DejaVuSans-2e" x="63.623047"/>
       <use xlink:href="#DejaVuSans-35" x="95.410156"/>
      </g>
     </g>
    </g>
    <g id="ytick_7">
     <g id="line2d_35">
      <path d="M 37.665 76.767375 
L 203.985 76.767375 
" clip-path="url(#p89b3eaf79c)" style="fill: none; stroke: #b0b0b0; stroke-width: 0.5; stroke-linecap: square"/>
     </g>
     <g id="line2d_36">
      <g>
       <use xlink:href="#m56f3a9ced1" x="37.665" y="76.767375" style="stroke: #000000; stroke-width: 0.6"/>
      </g>
     </g>
     <g id="text_19">
      <!-- 0.6 -->
      <g transform="translate(18.9425 79.80675)scale(0.08 -0.08)">
       <use xlink:href="#DejaVuSans-30"/>
       <use xlink:href="#DejaVuSans-2e" x="63.623047"/>
       <use xlink:href="#DejaVuSans-36" x="95.410156"/>
      </g>
     </g>
    </g>
    <g id="ytick_8">
     <g id="line2d_37">
      <path d="M 37.665 60.135375 
L 203.985 60.135375 
" clip-path="url(#p89b3eaf79c)" style="fill: none; stroke: #b0b0b0; stroke-width: 0.5; stroke-linecap: square"/>
     </g>
     <g id="line2d_38">
      <g>
       <use xlink:href="#m56f3a9ced1" x="37.665" y="60.135375" style="stroke: #000000; stroke-width: 0.6"/>
      </g>
     </g>
     <g id="text_20">
      <!-- 0.7 -->
      <g transform="translate(18.9425 63.17475)scale(0.08 -0.08)">
       <use xlink:href="#DejaVuSans-30"/>
       <use xlink:href="#DejaVuSans-2e" x="63.623047"/>
       <use xlink:href="#DejaVuSans-37" x="95.410156"/>
      </g>
     </g>
    </g>
    <g id="ytick_9">
     <g id="line2d_39">
      <path d="M 37.665 43.503375 
L 203.985 43.503375 
" clip-path="url(#p89b3eaf79c)" style="fill: none; stroke: #b0b0b0; stroke-width: 0.5; stroke-linecap: square"/>
     </g>
     <g id="line2d_40">
      <g>
       <use xlink:href="#m56f3a9ced1" x="37.665" y="43.503375" style="stroke: #000000; stroke-width: 0.6"/>
      </g>
     </g>
     <g id="text_21">
      <!-- 0.8 -->
      <g transform="translate(18.9425 46.54275)scale(0.08 -0.08)">
       <use xlink:href="#DejaVuSans-30"/>
       <use xlink:href="#DejaVuSans-2e" x="63.623047"/>
       <use xlink:href="#DejaVuSans-38" x="95.410156"/>
      </g>
     </g>
    </g>
    <g id="ytick_10">
     <g id="line2d_41">
      <path d="M 37.665 26.871375 
L 203.985 26.871375 
" clip-path="url(#p89b3eaf79c)" style="fill: none; stroke: #b0b0b0; stroke-width: 0.5; stroke-linecap: square"/>
     </g>
     <g id="line2d_42">
      <g>
       <use xlink:href="#m56f3a9ced1" x="37.665" y="26.871375" style="stroke: #000000; stroke-width: 0.6"/>
      </g>
     </g>
     <g id="text_22">
      <!-- 0.9 -->
      <g transform="translate(18.9425 29.91075)scale(0.08 -0.08)">
       <use xlink:href="#DejaVuSans-30"/>
       <use xlink:href="#DejaVuSans-2e" x="63.623047"/>
       <use xlink:href="#DejaVuSans-39" x="95.410156"/>
      </g>
     </g>
    </g>
    <g id="ytick_11">
     <g id="line2d_43">
      <path d="M 37.665 10.239375 
L 203.985 10.239375 
" clip-path="url(#p89b3eaf79c)" style="fill: none; stroke: #b0b0b0; stroke-width: 0.5; stroke-linecap: square"/>
     </g>
     <g id="line2d_44">
      <g>
       <use xlink:href="#m56f3a9ced1" x="37.665" y="10.239375" style="stroke: #000000; stroke-width: 0.6"/>
      </g>
     </g>
     <g id="text_23">
      <!-- 1 -->
      <g transform="translate(26.575 13.27875)scale(0.08 -0.08)">
       <use xlink:href="#DejaVuSans-31"/>
      </g>
     </g>
    </g>
    <g id="text_24">
     <!-- $y$ -->
     <g transform="translate(13.2625 95.799375)rotate(-90)scale(0.08 -0.08)">
      <defs>
       <path id="DejaVuSans-Oblique-79" d="M 1588 -325 
Q 1188 -997 936 -1164 
Q 684 -1331 294 -1331 
L -159 -1331 
L -63 -850 
L 269 -850 
Q 509 -850 678 -719 
Q 847 -588 1056 -206 
L 1234 128 
L 459 3500 
L 1069 3500 
L 1650 819 
L 3256 3500 
L 3859 3500 
L 1588 -325 
z
" transform="scale(0.015625)"/>
      </defs>
      <use xlink:href="#DejaVuSans-Oblique-79" transform="translate(0 0.3125)"/>
     </g>
    </g>
   </g>
   <g id="patch_3">
    <path d="M 37.665 176.559375 
L 37.665 10.239375 
" style="fill: none; stroke: #000000; stroke-width: 0.6; stroke-linejoin: miter; stroke-linecap: square"/>
   </g>
   <g id="patch_4">
    <path d="M 37.665 176.559375 
L 203.985 176.559375 
" style="fill: none; stroke: #000000; stroke-width: 0.6; stroke-linejoin: miter; stroke-linecap: square"/>
   </g>
   <g id="PathCollection_1">
    <defs>
     <path id="C0_0_2895194788" d="M 0 1.118034 
C 0.296506 1.118034 0.580908 1.000231 0.790569 0.790569 
C 1.000231 0.580908 1.118034 0.296506 1.118034 -0 
C 1.118034 -0.296506 1.000231 -0.580908 0.790569 -0.790569 
C 0.580908 -1.000231 0.296506 -1.118034 0 -1.118034 
C -0.296506 -1.118034 -0.580908 -1.000231 -0.790569 -0.790569 
C -1.000231 -0.580908 -1.118034 -0.296506 -1.118034 0 
C -1.118034 0.296506 -1.000231 0.580908 -0.790569 0.790569 
C -0.580908 1.000231 -0.296506 1.118034 0 1.118034 
z
"/>
    </defs>
    <use xlink:href="#C0_0_2895194788" x="37.665" y="176.559375"/>
    <use xlink:href="#C0_0_2895194788" x="54.297" y="176.559375"/>
    <use xlink:href="#C0_0_2895194788" x="70.929" y="176.559375"/>
    <use xlink:href="#C0_0_2895194788" x="87.561" y="176.559375"/>
    <use xlink:href="#C0_0_2895194788" x="104.193" y="176.559375"/>
    <use xlink:href="#C0_0_2895194788" x="120.825" y="176.559375"/>
    <use xlink:href="#C0_0_2895194788" x="137.457" y="176.559375"/>
    <use xlink:href="#C0_0_2895194788" x="154.089" y="176.559375"/>
    <use xlink:href="#C0_0_2895194788" x="170.721" y="176.559375"/>
    <use xlink:href="#C0_0_2895194788" x="187.353" y="176.559375"/>
    <use xlink:href="#C0_0_2895194788" x="203.985" y="176.559375"/>
    <use xlink:href="#C0_0_2895194788" x="37.665" y="159.927375"/>
    <use xlink:href="#C0_0_2895194788" x="54.297" y="159.927375"/>
    <use xlink:href="#C0_0_2895194788" x="70.929" y="159.927375"/>
    <use xlink:href="#C0_0_2895194788" x="87.561" y="159.927375"/>
    <use xlink:href="#C0_0_2895194788" x="104.193" y="159.927375"/>
    <use xlink:href="#C0_0_2895194788" x="120.825" y="159.927375"/>
    <use xlink:href="#C0_0_2895194788" x="137.457" y="159.927375"/>
    <use xlink:href="#C0_0_2895194788" x="154.089" y="159.927375"/>
    <use xlink:href="#C0_0_2895194788" x="170.721" y="159.927375"/>
    <use xlink:href="#C0_0_2895194788" x="187.353" y="159.927375"/>
    <use xlink:href="#C0_0_2895194788" x="203.985" y="159.927375"/>
    <use xlink:href="#C0_0_2895194788" x="37.665" y="143.295375"/>
    <use xlink:href="#C0_0_2895194788" x="54.297" y="143.295375"/>
    <use xlink:href="#C0_0_2895194788" x="70.929" y="143.295375"/>
    <use xlink:href="#C0_0_2895194788" x="87.561" y="143.295375"/>
    <use xlink:href="#C0_0_2895194788" x="104.193" y="143.295375"/>
    <use xlink:href="#C0_0_2895194788" x="120.825" y="143.295375"/>
    <use xlink:href="#C0_0_2895194788" x="137.457" y="143.295375"/>
    <use xlink:href="#C0_0_2895194788" x="154.089" y="143.295375"/>
    <use xlink:href="#C0_0_2895194788" x="170.721" y="143.295375"/>
    <use xlink:href="#C0_0_2895194788" x="187.353" y="143.295375"/>
    <use xlink:href="#C0_0_2895194788" x="203.985" y="143.295375"/>
    <use xlink:href="#C0_0_2895194788" x="37.665" y="126.663375"/>
    <use xlink:href="#C0_0_2895194788" x="54.297" y="126.663375"/>
    <use xlink:href="#C0_0_2895194788" x="70.929" y="126.663375"/>
    <use xlink:href="#C0_0_2895194788" x="87.561" y="126.663375"/>
    <use xlink:href="#C0_0_2895194788" x="104.193" y="126.663375"/>
    <use xlink:href="#C0_0_2895194788" x="120.825" y="126.663375"/>
    <use xlink:href="#C0_0_2895194788" x="137.457" y="126.663375"/>
    <use xlink:href="#C0_0_2895194788" x="154.089" y="126.663375"/>
    <use xlink:href="#C0_0_2895194788" x="170.721" y="126.663375"/>
    <use xlink:href="#C0_0_2895194788" x="187.353" y="126.663375"/>
    <use xlink:href="#C0_0_2895194788" x="203.985" y="126.663375"/>
    <use xlink:href="#C0_0_2895194788" x="37.665" y="110.031375"/>
    <use xlink:href="#C0_0_2895194788" x="54.297" y="110.031375"/>
    <use xlink:href="#C0_0_2895194788" x="70.929" y="110.031375"/>
    <use xlink:href="#C0_0_2895194788" x="87.561" y="110.031375"/>
    <use xlink:href="#C0_0_2895194788" x="104.193" y="110.031375"/>
    <use xlink:href="#C0_0_2895194788" x="120.825" y="110.031375"/>
    <use xlink:href="#C0_0_2895194788" x="137.457" y="110.031375"/>
    <use xlink:href="#C0_0_2895194788" x="154.089" y="110.031375"/>
    <use xlink:href="#C0_0_2895194788" x="170.721" y="110.031375"/>
    <use xlink:href="#C0_0_2895194788" x="187.353" y="110.031375"/>
    <use xlink:href="#C0_0_2895194788" x="203.985" y="110.031375"/>
    <use xlink:href="#C0_0_2895194788" x="37.665" y="93.399375"/>
    <use xlink:href="#C0_0_2895194788" x="54.297" y="93.399375"/>
    <use xlink:href="#C0_0_2895194788" x="70.929" y="93.399375"/>
    <use xlink:href="#C0_0_2895194788" x="87.561" y="93.399375"/>
    <use xlink:href="#C0_0_2895194788" x="104.193" y="93.399375"/>
    <use xlink:href="#C0_0_2895194788" x="120.825" y="93.399375"/>
    <use xlink:href="#C0_0_2895194788" x="137.457" y="93.399375"/>
    <use xlink:href="#C0_0_2895194788" x="154.089" y="93.399375"/>
    <use xlink:href="#C0_0_2895194788" x="170.721" y="93.399375"/>
    <use xlink:href="#C0_0_2895194788" x="187.353" y="93.399375"/>
    <use xlink:href="#C0_0_2895194788" x="203.985" y="93.399375"/>
    <use xlink:href="#C0_0_2895194788" x="37.665" y="76.767375"/>
    <use xlink:href="#C0_0_2895194788" x="54.297" y="76.767375"/>
    <use xlink:href="#C0_0_2895194788" x="70.929" y="76.767375"/>
    <use xlink:href="#C0_0_2895194788" x="87.561" y="76.767375"/>
    <use xlink:href="#C0_0_2895194788" x="104.193" y="76.767375"/>
    <use xlink:href="#C0_0_2895194788" x="120.825" y="76.767375"/>
    <use xlink:href="#C0_0_2895194788" x="137.457" y="76.767375"/>
    <use xlink:href="#C0_0_2895194788" x="154.089" y="76.767375"/>
    <use xlink:href="#C0_0_2895194788" x="170.721" y="76.767375"/>
    <use xlink:href="#C0_0_2895194788" x="187.353" y="76.767375"/>
    <use xlink:href="#C0_0_2895194788" x="203.985" y="76.767375"/>
    <use xlink:href="#C0_0_2895194788" x="37.665" y="60.135375"/>
    <use xlink:href="#C0_0_2895194788" x="54.297" y="60.135375"/>
    <use xlink:href="#C0_0_2895194788" x="70.929" y="60.135375"/>
    <use xlink:href="#C0_0_2895194788" x="87.561" y="60.135375"/>
    <use xlink:href="#C0_0_2895194788" x="104.193" y="60.135375"/>
    <use xlink:href="#C0_0_2895194788" x="120.825" y="60.135375"/>
    <use xlink:href="#C0_0_2895194788" x="137.457" y="60.135375"/>
    <use xlink:href="#C0_0_2895194788" x="154.089" y="60.135375"/>
    <use xlink:href="#C0_0_2895194788" x="170.721" y="60.135375"/>
    <use xlink:href="#C0_0_2895194788" x="187.353" y="60.135375"/>
    <use xlink:href="#C0_0_2895194788" x="203.985" y="60.135375"/>
    <use xlink:href="#C0_0_2895194788" x="37.665" y="43.503375"/>
    <use xlink:href="#C0_0_2895194788" x="54.297" y="43.503375"/>
    <use xlink:href="#C0_0_2895194788" x="70.929" y="43.503375"/>
    <use xlink:href="#C0_0_2895194788" x="87.561" y="43.503375"/>
    <use xlink:href="#C0_0_2895194788" x="104.193" y="43.503375"/>
    <use xlink:href="#C0_0_2895194788" x="120.825" y="43.503375"/>
    <use xlink:href="#C0_0_2895194788" x="137.457" y="43.503375"/>
    <use xlink:href="#C0_0_2895194788" x="154.089" y="43.503375"/>
    <use xlink:href="#C0_0_2895194788" x="170.721" y="43.503375"/>
    <use xlink:href="#C0_0_2895194788" x="187.353" y="43.503375"/>
    <use xlink:href="#C0_0_2895194788" x="203.985" y="43.503375"/>
    <use xlink:href="#C0_0_2895194788" x="37.665" y="26.871375"/>
    <use xlink:href="#C0_0_2895194788" x="54.297" y="26.871375"/>
    <use xlink:href="#C0_0_2895194788" x="70.929" y="26.871375"/>
    <use xlink:href="#C0_0_2895194788" x="87.561" y="26.871375"/>
    <use xlink:href="#C0_0_2895194788" x="104.193" y="26.871375"/>
    <use xlink:href="#C0_0_2895194788" x="120.825" y="26.871375"/>
    <use xlink:href="#C0_0_2895194788" x="137.457" y="26.871375"/>
    <use xlink:href="#C0_0_2895194788" x="154.089" y="26.871375"/>
    <use xlink:href="#C0_0_2895194788" x="170.721" y="26.871375"/>
    <use xlink:href="#C0_0_2895194788" x="187.353" y="26.871375"/>
    <use xlink:href="#C0_0_2895194788" x="203.985" y="26.871375"/>
    <use xlink:href="#C0_0_2895194788" x="37.665" y="10.239375"/>
    <use xlink:href="#C0_0_2895194788" x="54.297" y="10.239375"/>
    <use xlink:href="#C0_0_2895194788" x="70.929" y="10.239375"/>
    <use xlink:href="#C0_0_2895194788" x="87.561" y="10.239375"/>
    <use xlink:href="#C0_0_2895194788" x="104.193" y="10.239375"/>
    <use xlink:href="#C0_0_2895194788" x="120.825" y="10.239375"/>
    <use xlink:href="#C0_0_2895194788" x="137.457" y="10.239375"/>
    <use xlink:href="#C0_0_2895194788" x="154.089" y="10.239375"/>
    <use xlink:href="#C0_0_2895194788" x="170.721" y="10.239375"/>
    <use xlink:href="#C0_0_2895194788" x="187.353" y="10.239375"/>
    <use xlink:href="#C0_0_2895194788" x="203.985" y="10.239375"/>
   </g>
  </g>
 </g>
 <defs>
  <clipPath id="p89b3eaf79c">
   <rect x="37.665" y="10.239375" width="166.32" height="166.32"/>
  </clipPath>
 </defs>
</svg>
