<?xml version="1.0" encoding="utf-8" standalone="no"?>
<!DOCTYPE svg PUBLIC "-//W3C//DTD SVG 1.1//EN"
  "http://www.w3.org/Graphics/SVG/1.1/DTD/svg11.dtd">
<svg xmlns:xlink="http://www.w3.org/1999/xlink" width="272.989pt" height="164.892375pt" viewBox="0 0 272.989 164.892375" xmlns="http://www.w3.org/2000/svg" version="1.1">
 <metadata>
  <rdf:RDF xmlns:dc="http://purl.org/dc/elements/1.1/" xmlns:cc="http://creativecommons.org/ns#" xmlns:rdf="http://www.w3.org/1999/02/22-rdf-syntax-ns#">
   <cc:Work>
    <dc:type rdf:resource="http://purl.org/dc/dcmitype/StillImage"/>
    <dc:format>image/svg+xml</dc:format>
    <dc:creator>
     <cc:Agent>
      <dc:title>Matplotlib v3.5.2, https://matplotlib.org/</dc:title>
     </cc:Agent>
    </dc:creator>
   </cc:Work>
  </rdf:RDF>
 </metadata>
 <defs>
  <style type="text/css">*{stroke-linejoin: round; stroke-linecap: butt}</style>
 </defs>
 <g id="figure_1">
  <g id="patch_1">
   <path d="M 0 164.892375 
L 272.989 164.892375 
L 272.989 -0 
L 0 -0 
L 0 164.892375 
z
" style="fill: none"/>
  </g>
  <g id="axes_1">
   <g id="patch_2">
    <path d="M 25.9225 132.207375 
L 182.1625 132.207375 
L 182.1625 10.239375 
L 25.9225 10.239375 
L 25.9225 132.207375 
z
" style="fill: none"/>
   </g>
   <g id="matplotlib.axis_1">
    <g id="xtick_1">
     <g id="line2d_1">
      <defs>
       <path id="m4cd371f86f" d="M 0 0 
L 0 2.5 
" style="stroke: #000000; stroke-width: 0.6"/>
      </defs>
      <g>
       <use xlink:href="#m4cd371f86f" x="25.9225" y="132.207375" style="stroke: #000000; stroke-width: 0.6"/>
      </g>
     </g>
     <g id="text_1">
      <!-- -1.0 -->
      <g transform="translate(18.118125 144.286125)scale(0.08 -0.08)">
       <defs>
        <path id="DejaVuSans-2d" d="M 313 2009 
L 1997 2009 
L 1997 1497 
L 313 1497 
L 313 2009 
z
" transform="scale(0.015625)"/>
        <path id="DejaVuSans-31" d="M 794 531 
L 1825 531 
L 1825 4091 
L 703 3866 
L 703 4441 
L 1819 4666 
L 2450 4666 
L 2450 531 
L 3481 531 
L 3481 0 
L 794 0 
L 794 531 
z
" transform="scale(0.015625)"/>
        <path id="DejaVuSans-2e" d="M 684 794 
L 1344 794 
L 1344 0 
L 684 0 
L 684 794 
z
" transform="scale(0.015625)"/>
        <path id="DejaVuSans-30" d="M 2034 4250 
Q 1547 4250 1301 3770 
Q 1056 3291 1056 2328 
Q 1056 1369 1301 889 
Q 1547 409 2034 409 
Q 2525 409 2770 889 
Q 3016 1369 3016 2328 
Q 3016 3291 2770 3770 
Q 2525 4250 2034 4250 
z
M 2034 4750 
Q 2819 4750 3233 4129 
Q 3647 3509 3647 2328 
Q 3647 1150 3233 529 
Q 2819 -91 2034 -91 
Q 1250 -91 836 529 
Q 422 1150 422 2328 
Q 422 3509 836 4129 
Q 1250 4750 2034 4750 
z
" transform="scale(0.015625)"/>
       </defs>
       <use xlink:href="#DejaVuSans-2d"/>
       <use xlink:href="#DejaVuSans-31" x="36.083984"/>
       <use xlink:href="#DejaVuSans-2e" x="99.707031"/>
       <use xlink:href="#DejaVuSans-30" x="131.494141"/>
      </g>
     </g>
    </g>
    <g id="xtick_2">
     <g id="line2d_2">
      <g>
       <use xlink:href="#m4cd371f86f" x="64.9825" y="132.207375" style="stroke: #000000; stroke-width: 0.6"/>
      </g>
     </g>
     <g id="text_2">
      <!-- -0.5 -->
      <g transform="translate(57.178125 144.286125)scale(0.08 -0.08)">
       <defs>
        <path id="DejaVuSans-35" d="M 691 4666 
L 3169 4666 
L 3169 4134 
L 1269 4134 
L 1269 2991 
Q 1406 3038 1543 3061 
Q 1681 3084 1819 3084 
Q 2600 3084 3056 2656 
Q 3513 2228 3513 1497 
Q 3513 744 3044 326 
Q 2575 -91 1722 -91 
Q 1428 -91 1123 -41 
Q 819 9 494 109 
L 494 744 
Q 775 591 1075 516 
Q 1375 441 1709 441 
Q 2250 441 2565 725 
Q 2881 1009 2881 1497 
Q 2881 1984 2565 2268 
Q 2250 2553 1709 2553 
Q 1456 2553 1204 2497 
Q 953 2441 691 2322 
L 691 4666 
z
" transform="scale(0.015625)"/>
       </defs>
       <use xlink:href="#DejaVuSans-2d"/>
       <use xlink:href="#DejaVuSans-30" x="36.083984"/>
       <use xlink:href="#DejaVuSans-2e" x="99.707031"/>
       <use xlink:href="#DejaVuSans-35" x="131.494141"/>
      </g>
     </g>
    </g>
    <g id="xtick_3">
     <g id="line2d_3">
      <g>
       <use xlink:href="#m4cd371f86f" x="104.0425" y="132.207375" style="stroke: #000000; stroke-width: 0.6"/>
      </g>
     </g>
     <g id="text_3">
      <!-- 0.0 -->
      <g transform="translate(97.68125 144.286125)scale(0.08 -0.08)">
       <use xlink:href="#DejaVuSans-30"/>
       <use xlink:href="#DejaVuSans-2e" x="63.623047"/>
       <use xlink:href="#DejaVuSans-30" x="95.410156"/>
      </g>
     </g>
    </g>
    <g id="xtick_4">
     <g id="line2d_4">
      <g>
       <use xlink:href="#m4cd371f86f" x="143.1025" y="132.207375" style="stroke: #000000; stroke-width: 0.6"/>
      </g>
     </g>
     <g id="text_4">
      <!-- 0.5 -->
      <g transform="translate(136.74125 144.286125)scale(0.08 -0.08)">
       <use xlink:href="#DejaVuSans-30"/>
       <use xlink:href="#DejaVuSans-2e" x="63.623047"/>
       <use xlink:href="#DejaVuSans-35" x="95.410156"/>
      </g>
     </g>
    </g>
    <g id="xtick_5">
     <g id="line2d_5">
      <g>
       <use xlink:href="#m4cd371f86f" x="182.1625" y="132.207375" style="stroke: #000000; stroke-width: 0.6"/>
      </g>
     </g>
     <g id="text_5">
      <!-- 1.0 -->
      <g transform="translate(175.80125 144.286125)scale(0.08 -0.08)">
       <use xlink:href="#DejaVuSans-31"/>
       <use xlink:href="#DejaVuSans-2e" x="63.623047"/>
       <use xlink:href="#DejaVuSans-30" x="95.410156"/>
      </g>
     </g>
    </g>
    <g id="text_6">
     <!-- x -->
     <g transform="translate(101.675 156.028625)scale(0.08 -0.08)">
      <defs>
       <path id="DejaVuSans-78" d="M 3513 3500 
L 2247 1797 
L 3578 0 
L 2900 0 
L 1881 1375 
L 863 0 
L 184 0 
L 1544 1831 
L 300 3500 
L 978 3500 
L 1906 2253 
L 2834 3500 
L 3513 3500 
z
" transform="scale(0.015625)"/>
      </defs>
      <use xlink:href="#DejaVuSans-78"/>
     </g>
    </g>
   </g>
   <g id="matplotlib.axis_2">
    <g id="ytick_1">
     <g id="line2d_6">
      <defs>
       <path id="m56f3a9ced1" d="M 0 0 
L -2.5 0 
" style="stroke: #000000; stroke-width: 0.6"/>
      </defs>
      <g>
       <use xlink:href="#m56f3a9ced1" x="25.9225" y="132.207375" style="stroke: #000000; stroke-width: 0.6"/>
      </g>
     </g>
     <g id="text_7">
      <!-- 0.0 -->
      <g transform="translate(7.2 135.24675)scale(0.08 -0.08)">
       <use xlink:href="#DejaVuSans-30"/>
       <use xlink:href="#DejaVuSans-2e" x="63.623047"/>
       <use xlink:href="#DejaVuSans-30" x="95.410156"/>
      </g>
     </g>
    </g>
    <g id="ytick_2">
     <g id="line2d_7">
      <g>
       <use xlink:href="#m56f3a9ced1" x="25.9225" y="91.551375" style="stroke: #000000; stroke-width: 0.6"/>
      </g>
     </g>
     <g id="text_8">
      <!-- 0.5 -->
      <g transform="translate(7.2 94.59075)scale(0.08 -0.08)">
       <use xlink:href="#DejaVuSans-30"/>
       <use xlink:href="#DejaVuSans-2e" x="63.623047"/>
       <use xlink:href="#DejaVuSans-35" x="95.410156"/>
      </g>
     </g>
    </g>
    <g id="ytick_3">
     <g id="line2d_8">
      <g>
       <use xlink:href="#m56f3a9ced1" x="25.9225" y="50.895375" style="stroke: #000000; stroke-width: 0.6"/>
      </g>
     </g>
     <g id="text_9">
      <!-- 1.0 -->
      <g transform="translate(7.2 53.93475)scale(0.08 -0.08)">
       <use xlink:href="#DejaVuSans-31"/>
       <use xlink:href="#DejaVuSans-2e" x="63.623047"/>
       <use xlink:href="#DejaVuSans-30" x="95.410156"/>
      </g>
     </g>
    </g>
    <g id="ytick_4">
     <g id="line2d_9">
      <g>
       <use xlink:href="#m56f3a9ced1" x="25.9225" y="10.239375" style="stroke: #000000; stroke-width: 0.6"/>
      </g>
     </g>
     <g id="text_10">
      <!-- 1.5 -->
      <g transform="translate(7.2 13.27875)scale(0.08 -0.08)">
       <use xlink:href="#DejaVuSans-31"/>
       <use xlink:href="#DejaVuSans-2e" x="63.623047"/>
       <use xlink:href="#DejaVuSans-35" x="95.410156"/>
      </g>
     </g>
    </g>
   </g>
   <g id="line2d_10">
    <path d="M 25.9225 132.207375 
L 28.4025 131.319333 
L 30.8825 130.434203 
L 33.3625 129.554737 
L 35.8425 128.68353 
L 38.3225 127.823027 
L 40.8025 126.975525 
L 43.2825 126.143177 
L 45.7625 125.328001 
L 48.2425 124.531878 
L 50.7225 123.756559 
L 53.2025 123.00367 
L 55.6825 122.274715 
L 58.1625 121.571077 
L 60.6425 120.894026 
L 63.1225 120.244717 
L 65.6025 119.624199 
L 68.0825 119.033412 
L 70.5625 118.473192 
L 73.0425 117.944275 
L 75.5225 117.447295 
L 78.0025 116.982791 
L 80.4825 116.551202 
L 82.9625 116.152875 
L 85.4425 115.788062 
L 87.9225 115.456919 
L 90.4025 115.159512 
L 92.8825 114.895813 
L 95.3625 114.6657 
L 97.8425 114.468958 
L 100.3225 114.305278 
L 102.8025 114.174255 
L 105.2825 114.075387 
L 107.7625 114.008077 
L 110.2425 113.971623 
L 112.7225 113.965226 
L 115.2025 113.98798 
L 117.6825 114.038873 
L 120.1625 114.116784 
L 122.6425 114.22048 
L 125.1225 114.348613 
L 127.6025 114.499715 
L 130.0825 114.672197 
L 132.5625 114.864345 
L 135.0425 115.074316 
L 137.5225 115.300133 
L 140.0025 115.539683 
L 142.4825 115.790713 
L 144.9625 116.050827 
L 147.4425 116.317478 
L 149.9225 116.587969 
L 152.4025 116.85945 
L 154.8825 117.128908 
L 157.3625 117.393169 
L 159.8425 117.648896 
L 162.3225 117.892579 
L 164.8025 118.12054 
L 167.2825 118.328925 
L 169.7625 118.513705 
L 172.2425 118.67067 
L 174.7225 118.795432 
L 177.2025 118.883422 
L 179.6825 118.929885 
L 182.1625 118.929885 
" clip-path="url(#pd49eb2e77f)" style="fill: none; stroke: #ff1f5b; stroke-linecap: square"/>
   </g>
   <g id="line2d_11">
    <path d="M 25.9225 132.207375 
L 28.4025 130.300198 
L 30.8825 128.397158 
L 33.3625 126.502227 
L 35.8425 124.619213 
L 38.3225 122.751762 
L 40.8025 120.903356 
L 43.2825 119.077318 
L 45.7625 117.276808 
L 48.2425 115.504826 
L 50.7225 113.764212 
L 53.2025 112.057648 
L 55.6825 110.387657 
L 58.1625 108.756605 
L 60.6425 107.166702 
L 63.1225 105.619998 
L 65.6025 104.118392 
L 68.0825 102.663624 
L 70.5625 101.257283 
L 73.0425 99.900801 
L 75.5225 98.595458 
L 78.0025 97.342382 
L 80.4825 96.142548 
L 82.9625 94.996779 
L 85.4425 93.905747 
L 87.9225 92.869974 
L 90.4025 91.889831 
L 92.8825 90.965541 
L 95.3625 90.097176 
L 97.8425 89.284659 
L 100.3225 88.527766 
L 102.8025 87.826125 
L 105.2825 87.179214 
L 107.7625 86.586368 
L 110.2425 86.046772 
L 112.7225 85.559465 
L 115.2025 85.123341 
L 117.6825 84.737146 
L 120.1625 84.399484 
L 122.6425 84.10881 
L 125.1225 83.863436 
L 127.6025 83.661529 
L 130.0825 83.501111 
L 132.5625 83.380062 
L 135.0425 83.296113 
L 137.5225 83.246857 
L 140.0025 83.229739 
L 142.4825 83.242062 
L 144.9625 83.280987 
L 147.4425 83.343529 
L 149.9225 83.426562 
L 152.4025 83.526817 
L 154.8825 83.640881 
L 157.3625 83.7652 
L 159.8425 83.896075 
L 162.3225 84.029667 
L 164.8025 84.161993 
L 167.2825 84.288929 
L 169.7625 84.406206 
L 172.2425 84.509416 
L 174.7225 84.594006 
L 177.2025 84.655283 
L 179.6825 84.68841 
L 182.1625 84.68841 
" clip-path="url(#pd49eb2e77f)" style="fill: none; stroke: #00cd6c; stroke-linecap: square"/>
   </g>
   <g id="line2d_12">
    <path d="M 25.9225 132.207375 
L 28.4025 129.59234 
L 30.8825 126.981904 
L 33.3625 124.3805 
L 35.8425 121.792399 
L 38.3225 119.221704 
L 40.8025 116.672357 
L 43.2825 114.148136 
L 45.7625 111.652655 
L 48.2425 109.189367 
L 50.7225 106.761559 
L 53.2025 104.37236 
L 55.6825 102.024734 
L 58.1625 99.721484 
L 60.6425 97.465252 
L 63.1225 95.258521 
L 65.6025 93.103609 
L 68.0825 91.002678 
L 70.5625 88.957727 
L 73.0425 86.970596 
L 75.5225 85.042968 
L 78.0025 83.176363 
L 80.4825 81.372145 
L 82.9625 79.631518 
L 85.4425 77.955527 
L 87.9225 76.345062 
L 90.4025 74.800853 
L 92.8825 73.323472 
L 95.3625 71.913335 
L 97.8425 70.570702 
L 100.3225 69.295673 
L 102.8025 68.088196 
L 105.2825 66.948059 
L 107.7625 65.874895 
L 110.2425 64.868184 
L 112.7225 63.927246 
L 115.2025 63.051249 
L 117.6825 62.239206 
L 120.1625 61.489972 
L 122.6425 60.802251 
L 125.1225 60.17459 
L 127.6025 59.605384 
L 130.0825 59.092872 
L 132.5625 58.635138 
L 135.0425 58.230116 
L 137.5225 57.875584 
L 140.0025 57.569166 
L 142.4825 57.308334 
L 144.9625 57.090406 
L 147.4425 56.912548 
L 149.9225 56.771771 
L 152.4025 56.664936 
L 154.8825 56.588749 
L 157.3625 56.539765 
L 159.8425 56.514385 
L 162.3225 56.508858 
L 164.8025 56.519281 
L 167.2825 56.541599 
L 169.7625 56.571604 
L 172.2425 56.604936 
L 174.7225 56.637084 
L 177.2025 56.663383 
L 179.6825 56.679016 
L 182.1625 56.679016 
" clip-path="url(#pd49eb2e77f)" style="fill: none; stroke: #009ade; stroke-linecap: square"/>
   </g>
   <g id="line2d_13">
    <path d="M 25.9225 132.207375 
L 28.4025 129.212016 
L 30.8825 126.221496 
L 33.3625 123.240488 
L 35.8425 120.273503 
L 38.3225 117.324885 
L 40.8025 114.398813 
L 43.2825 111.499304 
L 45.7625 108.630209 
L 48.2425 105.795215 
L 50.7225 102.997848 
L 53.2025 100.241467 
L 55.6825 97.529269 
L 58.1625 94.864288 
L 60.6425 92.249394 
L 63.1225 89.687296 
L 65.6025 87.180538 
L 68.0825 84.731503 
L 70.5625 82.34241 
L 73.0425 80.015318 
L 75.5225 77.752123 
L 78.0025 75.554557 
L 80.4825 73.424193 
L 82.9625 71.362442 
L 85.4425 69.370552 
L 87.9225 67.449611 
L 90.4025 65.600545 
L 92.8825 63.824121 
L 95.3625 62.120941 
L 97.8425 60.491452 
L 100.3225 58.935934 
L 102.8025 57.454512 
L 105.2825 56.047148 
L 107.7625 54.713644 
L 110.2425 53.453642 
L 112.7225 52.266625 
L 115.2025 51.151914 
L 117.6825 50.108673 
L 120.1625 49.135904 
L 122.6425 48.232452 
L 125.1225 47.396999 
L 127.6025 46.628071 
L 130.0825 45.924034 
L 132.5625 45.283094 
L 135.0425 44.703299 
L 137.5225 44.182536 
L 140.0025 43.718537 
L 142.4825 43.308872 
L 144.9625 42.950952 
L 147.4425 42.642032 
L 149.9225 42.379207 
L 152.4025 42.159413 
L 154.8825 41.979428 
L 157.3625 41.835873 
L 159.8425 41.725207 
L 162.3225 41.643735 
L 164.8025 41.587602 
L 167.2825 41.552793 
L 169.7625 41.535137 
L 172.2425 41.530304 
L 174.7225 41.533807 
L 177.2025 41.540999 
L 179.6825 41.547077 
L 182.1625 41.547077 
" clip-path="url(#pd49eb2e77f)" style="fill: none; stroke: #af58ba; stroke-linecap: square"/>
   </g>
   <g id="line2d_14">
    <path d="M 25.9225 132.207375 
L 28.4025 129.006841 
L 30.8825 125.811275 
L 33.3625 122.625481 
L 35.8425 119.454098 
L 38.3225 116.301599 
L 40.8025 113.172293 
L 43.2825 110.070324 
L 45.7625 106.999672 
L 48.2425 103.964152 
L 50.7225 100.967414 
L 53.2025 98.012945 
L 55.6825 95.104067 
L 58.1625 92.243937 
L 60.6425 89.43555 
L 63.1225 86.681735 
L 65.6025 83.98516 
L 68.0825 81.348325 
L 70.5625 78.77357 
L 73.0425 76.263069 
L 75.5225 73.818835 
L 78.0025 71.442715 
L 80.4825 69.136394 
L 82.9625 66.901394 
L 85.4425 64.739073 
L 87.9225 62.650627 
L 90.4025 60.637087 
L 92.8825 58.699323 
L 95.3625 56.838041 
L 97.8425 55.053785 
L 100.3225 53.346937 
L 102.8025 51.717714 
L 105.2825 50.166172 
L 107.7625 48.692205 
L 110.2425 47.295544 
L 112.7225 45.975756 
L 115.2025 44.732249 
L 117.6825 43.564266 
L 120.1625 42.470889 
L 122.6425 41.451038 
L 125.1225 40.50347 
L 127.6025 39.626781 
L 130.0825 38.819405 
L 132.5625 38.079613 
L 135.0425 37.405516 
L 137.5225 36.795062 
L 140.0025 36.246036 
L 142.4825 35.756064 
L 144.9625 35.322609 
L 147.4425 34.942972 
L 149.9225 34.614292 
L 152.4025 34.333547 
L 154.8825 34.097556 
L 157.3625 33.902971 
L 159.8425 33.746287 
L 162.3225 33.623837 
L 164.8025 33.53179 
L 167.2825 33.466156 
L 169.7625 33.422783 
L 172.2425 33.397357 
L 174.7225 33.385404 
L 177.2025 33.382286 
L 179.6825 33.383207 
L 182.1625 33.383207 
" clip-path="url(#pd49eb2e77f)" style="fill: none; stroke: #ffc61e; stroke-linecap: square"/>
   </g>
   <g id="line2d_15">
    <path d="M 25.9225 132.207375 
L 28.4025 127.126655 
L 30.8825 122.20983 
L 33.3625 117.456899 
L 35.8425 112.867862 
L 38.3225 108.442719 
L 40.8025 104.18147 
L 43.2825 100.084116 
L 45.7625 96.150655 
L 48.2425 92.381089 
L 50.7225 88.775417 
L 53.2025 85.33364 
L 55.6825 82.055756 
L 58.1625 78.941767 
L 60.6425 75.991671 
L 63.1225 73.20547 
L 65.6025 70.583163 
L 68.0825 68.124751 
L 70.5625 65.830232 
L 73.0425 63.699608 
L 75.5225 61.732878 
L 78.0025 59.930042 
L 80.4825 58.2911 
L 82.9625 56.816052 
L 85.4425 55.504899 
L 87.9225 54.35764 
L 90.4025 53.374274 
L 92.8825 52.554804 
L 95.3625 51.899227 
L 97.8425 51.407544 
L 100.3225 51.079756 
L 102.8025 50.915862 
L 105.2825 50.915862 
L 107.7625 51.079756 
L 110.2425 51.407544 
L 112.7225 51.899227 
L 115.2025 52.554804 
L 117.6825 53.374274 
L 120.1625 54.35764 
L 122.6425 55.504899 
L 125.1225 56.816052 
L 127.6025 58.2911 
L 130.0825 59.930042 
L 132.5625 61.732878 
L 135.0425 63.699608 
L 137.5225 65.830232 
L 140.0025 68.124751 
L 142.4825 70.583163 
L 144.9625 73.20547 
L 147.4425 75.991671 
L 149.9225 78.941767 
L 152.4025 82.055756 
L 154.8825 85.33364 
L 157.3625 88.775417 
L 159.8425 92.381089 
L 162.3225 96.150655 
L 164.8025 100.084116 
L 167.2825 104.18147 
L 169.7625 108.442719 
L 172.2425 112.867862 
L 174.7225 117.456899 
L 177.2025 122.20983 
L 179.6825 127.126655 
L 182.1625 132.207375 
" clip-path="url(#pd49eb2e77f)" style="fill: none; stroke: #000000; stroke-linecap: square"/>
   </g>
   <g id="patch_3">
    <path d="M 25.9225 132.207375 
L 25.9225 10.239375 
" style="fill: none; stroke: #000000; stroke-width: 0.6; stroke-linejoin: miter; stroke-linecap: square"/>
   </g>
   <g id="patch_4">
    <path d="M 25.9225 132.207375 
L 182.1625 132.207375 
" style="fill: none; stroke: #000000; stroke-width: 0.6; stroke-linejoin: miter; stroke-linecap: square"/>
   </g>
   <g id="legend_1">
    <g id="line2d_16">
     <path d="M 204.9865 45.111725 
L 212.3865 45.111725 
L 219.7865 45.111725 
" style="fill: none; stroke: #ff1f5b; stroke-linecap: square"/>
    </g>
    <g id="text_11">
     <!-- u(x,0.25) -->
     <g transform="translate(226.1865 47.911725)scale(0.08 -0.08)">
      <defs>
       <path id="DejaVuSans-75" d="M 544 1381 
L 544 3500 
L 1119 3500 
L 1119 1403 
Q 1119 906 1312 657 
Q 1506 409 1894 409 
Q 2359 409 2629 706 
Q 2900 1003 2900 1516 
L 2900 3500 
L 3475 3500 
L 3475 0 
L 2900 0 
L 2900 538 
Q 2691 219 2414 64 
Q 2138 -91 1772 -91 
Q 1169 -91 856 284 
Q 544 659 544 1381 
z
M 1991 3584 
L 1991 3584 
z
" transform="scale(0.015625)"/>
       <path id="DejaVuSans-28" d="M 1984 4856 
Q 1566 4138 1362 3434 
Q 1159 2731 1159 2009 
Q 1159 1288 1364 580 
Q 1569 -128 1984 -844 
L 1484 -844 
Q 1016 -109 783 600 
Q 550 1309 550 2009 
Q 550 2706 781 3412 
Q 1013 4119 1484 4856 
L 1984 4856 
z
" transform="scale(0.015625)"/>
       <path id="DejaVuSans-2c" d="M 750 794 
L 1409 794 
L 1409 256 
L 897 -744 
L 494 -744 
L 750 256 
L 750 794 
z
" transform="scale(0.015625)"/>
       <path id="DejaVuSans-32" d="M 1228 531 
L 3431 531 
L 3431 0 
L 469 0 
L 469 531 
Q 828 903 1448 1529 
Q 2069 2156 2228 2338 
Q 2531 2678 2651 2914 
Q 2772 3150 2772 3378 
Q 2772 3750 2511 3984 
Q 2250 4219 1831 4219 
Q 1534 4219 1204 4116 
Q 875 4013 500 3803 
L 500 4441 
Q 881 4594 1212 4672 
Q 1544 4750 1819 4750 
Q 2544 4750 2975 4387 
Q 3406 4025 3406 3419 
Q 3406 3131 3298 2873 
Q 3191 2616 2906 2266 
Q 2828 2175 2409 1742 
Q 1991 1309 1228 531 
z
" transform="scale(0.015625)"/>
       <path id="DejaVuSans-29" d="M 513 4856 
L 1013 4856 
Q 1481 4119 1714 3412 
Q 1947 2706 1947 2009 
Q 1947 1309 1714 600 
Q 1481 -109 1013 -844 
L 513 -844 
Q 928 -128 1133 580 
Q 1338 1288 1338 2009 
Q 1338 2731 1133 3434 
Q 928 4138 513 4856 
z
" transform="scale(0.015625)"/>
      </defs>
      <use xlink:href="#DejaVuSans-75"/>
      <use xlink:href="#DejaVuSans-28" x="63.378906"/>
      <use xlink:href="#DejaVuSans-78" x="102.392578"/>
      <use xlink:href="#DejaVuSans-2c" x="161.572266"/>
      <use xlink:href="#DejaVuSans-30" x="193.359375"/>
      <use xlink:href="#DejaVuSans-2e" x="256.982422"/>
      <use xlink:href="#DejaVuSans-32" x="288.769531"/>
      <use xlink:href="#DejaVuSans-35" x="352.392578"/>
      <use xlink:href="#DejaVuSans-29" x="416.015625"/>
     </g>
    </g>
    <g id="line2d_17">
     <path d="M 204.9865 56.854225 
L 212.3865 56.854225 
L 219.7865 56.854225 
" style="fill: none; stroke: #00cd6c; stroke-linecap: square"/>
    </g>
    <g id="text_12">
     <!-- u(x,1) -->
     <g transform="translate(226.1865 59.654225)scale(0.08 -0.08)">
      <use xlink:href="#DejaVuSans-75"/>
      <use xlink:href="#DejaVuSans-28" x="63.378906"/>
      <use xlink:href="#DejaVuSans-78" x="102.392578"/>
      <use xlink:href="#DejaVuSans-2c" x="161.572266"/>
      <use xlink:href="#DejaVuSans-31" x="193.359375"/>
      <use xlink:href="#DejaVuSans-29" x="256.982422"/>
     </g>
    </g>
    <g id="line2d_18">
     <path d="M 204.9865 68.596725 
L 212.3865 68.596725 
L 219.7865 68.596725 
" style="fill: none; stroke: #009ade; stroke-linecap: square"/>
    </g>
    <g id="text_13">
     <!-- u(x,2) -->
     <g transform="translate(226.1865 71.396725)scale(0.08 -0.08)">
      <use xlink:href="#DejaVuSans-75"/>
      <use xlink:href="#DejaVuSans-28" x="63.378906"/>
      <use xlink:href="#DejaVuSans-78" x="102.392578"/>
      <use xlink:href="#DejaVuSans-2c" x="161.572266"/>
      <use xlink:href="#DejaVuSans-32" x="193.359375"/>
      <use xlink:href="#DejaVuSans-29" x="256.982422"/>
     </g>
    </g>
    <g id="line2d_19">
     <path d="M 204.9865 80.339225 
L 212.3865 80.339225 
L 219.7865 80.339225 
" style="fill: none; stroke: #af58ba; stroke-linecap: square"/>
    </g>
    <g id="text_14">
     <!-- u(x,3) -->
     <g transform="translate(226.1865 83.139225)scale(0.08 -0.08)">
      <defs>
       <path id="DejaVuSans-33" d="M 2597 2516 
Q 3050 2419 3304 2112 
Q 3559 1806 3559 1356 
Q 3559 666 3084 287 
Q 2609 -91 1734 -91 
Q 1441 -91 1130 -33 
Q 819 25 488 141 
L 488 750 
Q 750 597 1062 519 
Q 1375 441 1716 441 
Q 2309 441 2620 675 
Q 2931 909 2931 1356 
Q 2931 1769 2642 2001 
Q 2353 2234 1838 2234 
L 1294 2234 
L 1294 2753 
L 1863 2753 
Q 2328 2753 2575 2939 
Q 2822 3125 2822 3475 
Q 2822 3834 2567 4026 
Q 2313 4219 1838 4219 
Q 1578 4219 1281 4162 
Q 984 4106 628 3988 
L 628 4550 
Q 988 4650 1302 4700 
Q 1616 4750 1894 4750 
Q 2613 4750 3031 4423 
Q 3450 4097 3450 3541 
Q 3450 3153 3228 2886 
Q 3006 2619 2597 2516 
z
" transform="scale(0.015625)"/>
      </defs>
      <use xlink:href="#DejaVuSans-75"/>
      <use xlink:href="#DejaVuSans-28" x="63.378906"/>
      <use xlink:href="#DejaVuSans-78" x="102.392578"/>
      <use xlink:href="#DejaVuSans-2c" x="161.572266"/>
      <use xlink:href="#DejaVuSans-33" x="193.359375"/>
      <use xlink:href="#DejaVuSans-29" x="256.982422"/>
     </g>
    </g>
    <g id="line2d_20">
     <path d="M 204.9865 92.081725 
L 212.3865 92.081725 
L 219.7865 92.081725 
" style="fill: none; stroke: #ffc61e; stroke-linecap: square"/>
    </g>
    <g id="text_15">
     <!-- u(x,4) -->
     <g transform="translate(226.1865 94.881725)scale(0.08 -0.08)">
      <defs>
       <path id="DejaVuSans-34" d="M 2419 4116 
L 825 1625 
L 2419 1625 
L 2419 4116 
z
M 2253 4666 
L 3047 4666 
L 3047 1625 
L 3713 1625 
L 3713 1100 
L 3047 1100 
L 3047 0 
L 2419 0 
L 2419 1100 
L 313 1100 
L 313 1709 
L 2253 4666 
z
" transform="scale(0.015625)"/>
      </defs>
      <use xlink:href="#DejaVuSans-75"/>
      <use xlink:href="#DejaVuSans-28" x="63.378906"/>
      <use xlink:href="#DejaVuSans-78" x="102.392578"/>
      <use xlink:href="#DejaVuSans-2c" x="161.572266"/>
      <use xlink:href="#DejaVuSans-34" x="193.359375"/>
      <use xlink:href="#DejaVuSans-29" x="256.982422"/>
     </g>
    </g>
    <g id="line2d_21">
     <path d="M 204.9865 103.824225 
L 212.3865 103.824225 
L 219.7865 103.824225 
" style="fill: none; stroke: #000000; stroke-linecap: square"/>
    </g>
    <g id="text_16">
     <!-- f(x) -->
     <g transform="translate(226.1865 106.624225)scale(0.08 -0.08)">
      <defs>
       <path id="DejaVuSans-66" d="M 2375 4863 
L 2375 4384 
L 1825 4384 
Q 1516 4384 1395 4259 
Q 1275 4134 1275 3809 
L 1275 3500 
L 2222 3500 
L 2222 3053 
L 1275 3053 
L 1275 0 
L 697 0 
L 697 3053 
L 147 3053 
L 147 3500 
L 697 3500 
L 697 3744 
Q 697 4328 969 4595 
Q 1241 4863 1831 4863 
L 2375 4863 
z
" transform="scale(0.015625)"/>
      </defs>
      <use xlink:href="#DejaVuSans-66"/>
      <use xlink:href="#DejaVuSans-28" x="35.205078"/>
      <use xlink:href="#DejaVuSans-78" x="74.21875"/>
      <use xlink:href="#DejaVuSans-29" x="133.398438"/>
     </g>
    </g>
   </g>
  </g>
 </g>
 <defs>
  <clipPath id="pd49eb2e77f">
   <rect x="25.9225" y="10.239375" width="156.24" height="121.968"/>
  </clipPath>
 </defs>
</svg>
