<?xml version="1.0" encoding="utf-8" standalone="no"?>
<!DOCTYPE svg PUBLIC "-//W3C//DTD SVG 1.1//EN"
  "http://www.w3.org/Graphics/SVG/1.1/DTD/svg11.dtd">
<svg xmlns:xlink="http://www.w3.org/1999/xlink" width="177.51375pt" height="131.628375pt" viewBox="0 0 177.51375 131.628375" xmlns="http://www.w3.org/2000/svg" version="1.1">
 <metadata>
  <rdf:RDF xmlns:dc="http://purl.org/dc/elements/1.1/" xmlns:cc="http://creativecommons.org/ns#" xmlns:rdf="http://www.w3.org/1999/02/22-rdf-syntax-ns#">
   <cc:Work>
    <dc:type rdf:resource="http://purl.org/dc/dcmitype/StillImage"/>
    <dc:format>image/svg+xml</dc:format>
    <dc:creator>
     <cc:Agent>
      <dc:title>Matplotlib v3.5.2, https://matplotlib.org/</dc:title>
     </cc:Agent>
    </dc:creator>
   </cc:Work>
  </rdf:RDF>
 </metadata>
 <defs>
  <style type="text/css">*{stroke-linejoin: round; stroke-linecap: butt}</style>
 </defs>
 <g id="figure_1">
  <g id="patch_1">
   <path d="M 0 131.628375 
L 177.51375 131.628375 
L 177.51375 0 
L 0 0 
L 0 131.628375 
z
" style="fill: none"/>
  </g>
  <g id="axes_1">
   <g id="patch_2">
    <path d="M 30.0325 98.943375 
L 163.9525 98.943375 
L 163.9525 10.239375 
L 30.0325 10.239375 
L 30.0325 98.943375 
z
" style="fill: none"/>
   </g>
   <g id="matplotlib.axis_1">
    <g id="xtick_1">
     <g id="line2d_1">
      <defs>
       <path id="m4cd371f86f" d="M 0 0 
L 0 2.5 
" style="stroke: #000000; stroke-width: 0.6"/>
      </defs>
      <g>
       <use xlink:href="#m4cd371f86f" x="30.0325" y="98.943375" style="stroke: #000000; stroke-width: 0.6"/>
      </g>
     </g>
     <g id="text_1">
      <!-- 0.0 -->
      <g transform="translate(23.67125 111.022125)scale(0.08 -0.08)">
       <defs>
        <path id="DejaVuSans-30" d="M 2034 4250 
Q 1547 4250 1301 3770 
Q 1056 3291 1056 2328 
Q 1056 1369 1301 889 
Q 1547 409 2034 409 
Q 2525 409 2770 889 
Q 3016 1369 3016 2328 
Q 3016 3291 2770 3770 
Q 2525 4250 2034 4250 
z
M 2034 4750 
Q 2819 4750 3233 4129 
Q 3647 3509 3647 2328 
Q 3647 1150 3233 529 
Q 2819 -91 2034 -91 
Q 1250 -91 836 529 
Q 422 1150 422 2328 
Q 422 3509 836 4129 
Q 1250 4750 2034 4750 
z
" transform="scale(0.015625)"/>
        <path id="DejaVuSans-2e" d="M 684 794 
L 1344 794 
L 1344 0 
L 684 0 
L 684 794 
z
" transform="scale(0.015625)"/>
       </defs>
       <use xlink:href="#DejaVuSans-30"/>
       <use xlink:href="#DejaVuSans-2e" x="63.623047"/>
       <use xlink:href="#DejaVuSans-30" x="95.410156"/>
      </g>
     </g>
    </g>
    <g id="xtick_2">
     <g id="line2d_2">
      <g>
       <use xlink:href="#m4cd371f86f" x="96.9925" y="98.943375" style="stroke: #000000; stroke-width: 0.6"/>
      </g>
     </g>
     <g id="text_2">
      <!-- 0.5 -->
      <g transform="translate(90.63125 111.022125)scale(0.08 -0.08)">
       <defs>
        <path id="DejaVuSans-35" d="M 691 4666 
L 3169 4666 
L 3169 4134 
L 1269 4134 
L 1269 2991 
Q 1406 3038 1543 3061 
Q 1681 3084 1819 3084 
Q 2600 3084 3056 2656 
Q 3513 2228 3513 1497 
Q 3513 744 3044 326 
Q 2575 -91 1722 -91 
Q 1428 -91 1123 -41 
Q 819 9 494 109 
L 494 744 
Q 775 591 1075 516 
Q 1375 441 1709 441 
Q 2250 441 2565 725 
Q 2881 1009 2881 1497 
Q 2881 1984 2565 2268 
Q 2250 2553 1709 2553 
Q 1456 2553 1204 2497 
Q 953 2441 691 2322 
L 691 4666 
z
" transform="scale(0.015625)"/>
       </defs>
       <use xlink:href="#DejaVuSans-30"/>
       <use xlink:href="#DejaVuSans-2e" x="63.623047"/>
       <use xlink:href="#DejaVuSans-35" x="95.410156"/>
      </g>
     </g>
    </g>
    <g id="xtick_3">
     <g id="line2d_3">
      <g>
       <use xlink:href="#m4cd371f86f" x="163.9525" y="98.943375" style="stroke: #000000; stroke-width: 0.6"/>
      </g>
     </g>
     <g id="text_3">
      <!-- 1.0 -->
      <g transform="translate(157.59125 111.022125)scale(0.08 -0.08)">
       <defs>
        <path id="DejaVuSans-31" d="M 794 531 
L 1825 531 
L 1825 4091 
L 703 3866 
L 703 4441 
L 1819 4666 
L 2450 4666 
L 2450 531 
L 3481 531 
L 3481 0 
L 794 0 
L 794 531 
z
" transform="scale(0.015625)"/>
       </defs>
       <use xlink:href="#DejaVuSans-31"/>
       <use xlink:href="#DejaVuSans-2e" x="63.623047"/>
       <use xlink:href="#DejaVuSans-30" x="95.410156"/>
      </g>
     </g>
    </g>
    <g id="text_4">
     <!-- t -->
     <g transform="translate(95.424375 122.764625)scale(0.08 -0.08)">
      <defs>
       <path id="DejaVuSans-74" d="M 1172 4494 
L 1172 3500 
L 2356 3500 
L 2356 3053 
L 1172 3053 
L 1172 1153 
Q 1172 725 1289 603 
Q 1406 481 1766 481 
L 2356 481 
L 2356 0 
L 1766 0 
Q 1100 0 847 248 
Q 594 497 594 1153 
L 594 3053 
L 172 3053 
L 172 3500 
L 594 3500 
L 594 4494 
L 1172 4494 
z
" transform="scale(0.015625)"/>
      </defs>
      <use xlink:href="#DejaVuSans-74"/>
     </g>
    </g>
   </g>
   <g id="matplotlib.axis_2">
    <g id="ytick_1">
     <g id="line2d_4">
      <defs>
       <path id="m56f3a9ced1" d="M 0 0 
L -2.5 0 
" style="stroke: #000000; stroke-width: 0.6"/>
      </defs>
      <g>
       <use xlink:href="#m56f3a9ced1" x="30.0325" y="98.943375" style="stroke: #000000; stroke-width: 0.6"/>
      </g>
     </g>
     <g id="text_5">
      <!-- 0 -->
      <g transform="translate(18.9425 101.98275)scale(0.08 -0.08)">
       <use xlink:href="#DejaVuSans-30"/>
      </g>
     </g>
    </g>
    <g id="ytick_2">
     <g id="line2d_5">
      <g>
       <use xlink:href="#m56f3a9ced1" x="30.0325" y="69.375375" style="stroke: #000000; stroke-width: 0.6"/>
      </g>
     </g>
     <g id="text_6">
      <!-- 1 -->
      <g transform="translate(18.9425 72.41475)scale(0.08 -0.08)">
       <use xlink:href="#DejaVuSans-31"/>
      </g>
     </g>
    </g>
    <g id="ytick_3">
     <g id="line2d_6">
      <g>
       <use xlink:href="#m56f3a9ced1" x="30.0325" y="39.807375" style="stroke: #000000; stroke-width: 0.6"/>
      </g>
     </g>
     <g id="text_7">
      <!-- 2 -->
      <g transform="translate(18.9425 42.84675)scale(0.08 -0.08)">
       <defs>
        <path id="DejaVuSans-32" d="M 1228 531 
L 3431 531 
L 3431 0 
L 469 0 
L 469 531 
Q 828 903 1448 1529 
Q 2069 2156 2228 2338 
Q 2531 2678 2651 2914 
Q 2772 3150 2772 3378 
Q 2772 3750 2511 3984 
Q 2250 4219 1831 4219 
Q 1534 4219 1204 4116 
Q 875 4013 500 3803 
L 500 4441 
Q 881 4594 1212 4672 
Q 1544 4750 1819 4750 
Q 2544 4750 2975 4387 
Q 3406 4025 3406 3419 
Q 3406 3131 3298 2873 
Q 3191 2616 2906 2266 
Q 2828 2175 2409 1742 
Q 1991 1309 1228 531 
z
" transform="scale(0.015625)"/>
       </defs>
       <use xlink:href="#DejaVuSans-32"/>
      </g>
     </g>
    </g>
    <g id="ytick_4">
     <g id="line2d_7">
      <g>
       <use xlink:href="#m56f3a9ced1" x="30.0325" y="10.239375" style="stroke: #000000; stroke-width: 0.6"/>
      </g>
     </g>
     <g id="text_8">
      <!-- 3 -->
      <g transform="translate(18.9425 13.27875)scale(0.08 -0.08)">
       <defs>
        <path id="DejaVuSans-33" d="M 2597 2516 
Q 3050 2419 3304 2112 
Q 3559 1806 3559 1356 
Q 3559 666 3084 287 
Q 2609 -91 1734 -91 
Q 1441 -91 1130 -33 
Q 819 25 488 141 
L 488 750 
Q 750 597 1062 519 
Q 1375 441 1716 441 
Q 2309 441 2620 675 
Q 2931 909 2931 1356 
Q 2931 1769 2642 2001 
Q 2353 2234 1838 2234 
L 1294 2234 
L 1294 2753 
L 1863 2753 
Q 2328 2753 2575 2939 
Q 2822 3125 2822 3475 
Q 2822 3834 2567 4026 
Q 2313 4219 1838 4219 
Q 1578 4219 1281 4162 
Q 984 4106 628 3988 
L 628 4550 
Q 988 4650 1302 4700 
Q 1616 4750 1894 4750 
Q 2613 4750 3031 4423 
Q 3450 4097 3450 3541 
Q 3450 3153 3228 2886 
Q 3006 2619 2597 2516 
z
" transform="scale(0.015625)"/>
       </defs>
       <use xlink:href="#DejaVuSans-33"/>
      </g>
     </g>
    </g>
    <g id="text_9">
     <!-- y -->
     <g transform="translate(13.27875 56.958875)rotate(-90)scale(0.08 -0.08)">
      <defs>
       <path id="DejaVuSans-79" d="M 2059 -325 
Q 1816 -950 1584 -1140 
Q 1353 -1331 966 -1331 
L 506 -1331 
L 506 -850 
L 844 -850 
Q 1081 -850 1212 -737 
Q 1344 -625 1503 -206 
L 1606 56 
L 191 3500 
L 800 3500 
L 1894 763 
L 2988 3500 
L 3597 3500 
L 2059 -325 
z
" transform="scale(0.015625)"/>
      </defs>
      <use xlink:href="#DejaVuSans-79"/>
     </g>
    </g>
   </g>
   <g id="line2d_8">
    <path d="M 30.0325 69.375375 
L 31.385227 69.375375 
L 32.737955 69.375375 
L 34.090682 69.375375 
L 35.443409 69.375375 
L 36.796136 69.375375 
L 38.148864 69.375375 
L 39.501591 69.375375 
L 40.854318 69.375375 
L 42.207045 69.375375 
L 43.559773 69.375375 
L 44.9125 69.375375 
L 46.265227 69.375375 
L 47.617955 69.375375 
L 48.970682 69.375375 
L 50.323409 69.375375 
L 51.676136 69.375375 
L 53.028864 69.375375 
L 54.381591 69.375375 
L 55.734318 69.375375 
L 57.087045 69.375375 
L 58.439773 69.375375 
L 59.7925 69.375375 
L 61.145227 69.375375 
L 62.497955 69.375375 
L 63.850682 69.375375 
L 65.203409 69.375375 
L 66.556136 69.375375 
L 67.908864 69.375375 
L 69.261591 69.375375 
L 70.614318 69.375375 
L 71.967045 69.375375 
L 73.319773 69.375375 
L 74.6725 69.375375 
L 76.025227 69.375375 
L 77.377955 69.375375 
L 78.730682 69.375375 
L 80.083409 69.375375 
L 81.436136 69.375375 
L 82.788864 69.375375 
L 84.141591 69.375375 
L 85.494318 69.375375 
L 86.847045 69.375375 
L 88.199773 69.375375 
L 89.5525 69.375375 
L 90.905227 69.375375 
L 92.257955 69.375375 
L 93.610682 69.375375 
L 94.963409 69.375375 
L 96.316136 69.375375 
L 97.668864 69.375375 
L 99.021591 69.375375 
L 100.374318 69.375375 
L 101.727045 69.375375 
L 103.079773 69.375375 
L 104.4325 69.375375 
L 105.785227 69.375375 
L 107.137955 69.375375 
L 108.490682 69.375375 
L 109.843409 69.375375 
L 111.196136 69.375375 
L 112.548864 69.375375 
L 113.901591 69.375375 
L 115.254318 69.375375 
L 116.607045 69.375375 
L 117.959773 69.375375 
L 119.3125 69.375375 
L 120.665227 69.375375 
L 122.017955 69.375375 
L 123.370682 69.375375 
L 124.723409 69.375375 
L 126.076136 69.375375 
L 127.428864 69.375375 
L 128.781591 69.375375 
L 130.134318 69.375375 
L 131.487045 69.375375 
L 132.839773 69.375375 
L 134.1925 69.375375 
L 135.545227 69.375375 
L 136.897955 69.375375 
L 138.250682 69.375375 
L 139.603409 69.375375 
L 140.956136 69.375375 
L 142.308864 69.375375 
L 143.661591 69.375375 
L 145.014318 69.375375 
L 146.367045 69.375375 
L 147.719773 69.375375 
L 149.0725 69.375375 
L 150.425227 69.375375 
L 151.777955 69.375375 
L 153.130682 69.375375 
L 154.483409 69.375375 
L 155.836136 69.375375 
L 157.188864 69.375375 
L 158.541591 69.375375 
L 159.894318 69.375375 
L 161.247045 69.375375 
L 162.599773 69.375375 
L 163.9525 69.375375 
" clip-path="url(#p2cc404cc8c)" style="fill: none; stroke: #ff1f5b; stroke-linecap: square"/>
   </g>
   <g id="line2d_9">
    <path d="M 30.0325 75.288975 
L 31.385227 75.288975 
L 32.737955 75.288975 
L 34.090682 75.288975 
L 35.443409 75.288975 
L 36.796136 75.288975 
L 38.148864 75.288975 
L 39.501591 75.288975 
L 40.854318 75.288975 
L 42.207045 75.288975 
L 43.559773 75.288975 
L 44.9125 75.288975 
L 46.265227 75.288975 
L 47.617955 75.288975 
L 48.970682 75.288975 
L 50.323409 75.288975 
L 51.676136 75.288975 
L 53.028864 75.288975 
L 54.381591 75.288975 
L 55.734318 75.288975 
L 57.087045 75.288975 
L 58.439773 75.288975 
L 59.7925 75.288975 
L 61.145227 75.288975 
L 62.497955 75.288975 
L 63.850682 75.288975 
L 65.203409 75.288975 
L 66.556136 75.288975 
L 67.908864 75.288975 
L 69.261591 75.288975 
L 70.614318 75.288975 
L 71.967045 75.288975 
L 73.319773 75.288975 
L 74.6725 75.288975 
L 76.025227 75.288975 
L 77.377955 75.288975 
L 78.730682 75.288975 
L 80.083409 75.288975 
L 81.436136 75.288975 
L 82.788864 75.288975 
L 84.141591 75.288975 
L 85.494318 75.288975 
L 86.847045 75.288975 
L 88.199773 75.288975 
L 89.5525 75.288975 
L 90.905227 75.288975 
L 92.257955 75.288975 
L 93.610682 75.288975 
L 94.963409 75.288975 
L 96.316136 75.288975 
L 97.668864 75.288975 
L 99.021591 75.288975 
L 100.374318 75.288975 
L 101.727045 75.288975 
L 103.079773 75.288975 
L 104.4325 75.288975 
L 105.785227 75.288975 
L 107.137955 75.288975 
L 108.490682 75.288975 
L 109.843409 75.288975 
L 111.196136 75.288975 
L 112.548864 75.288975 
L 113.901591 75.288975 
L 115.254318 75.288975 
L 116.607045 75.288975 
L 117.959773 75.288975 
L 119.3125 75.288975 
L 120.665227 75.288975 
L 122.017955 75.288975 
L 123.370682 75.288975 
L 124.723409 75.288975 
L 126.076136 75.288975 
L 127.428864 75.288975 
L 128.781591 75.288975 
L 130.134318 75.288975 
L 131.487045 75.288975 
L 132.839773 75.288975 
L 134.1925 75.288975 
L 135.545227 75.288975 
L 136.897955 75.288975 
L 138.250682 75.288975 
L 139.603409 75.288975 
L 140.956136 75.288975 
L 142.308864 75.288975 
L 143.661591 75.288975 
L 145.014318 75.288975 
L 146.367045 75.288975 
L 147.719773 75.288975 
L 149.0725 75.288975 
L 150.425227 75.288975 
L 151.777955 75.288975 
L 153.130682 75.288975 
L 154.483409 75.288975 
L 155.836136 75.288975 
L 157.188864 75.288975 
L 158.541591 75.288975 
L 159.894318 75.288975 
L 161.247045 75.288975 
L 162.599773 75.288975 
L 163.9525 75.288975 
" clip-path="url(#p2cc404cc8c)" style="fill: none; stroke: #00cd6c; stroke-linecap: square"/>
   </g>
   <g id="line2d_10">
    <path d="M 30.0325 93.029775 
L 31.385227 93.029775 
L 32.737955 93.029775 
L 34.090682 93.029775 
L 35.443409 93.029775 
L 36.796136 93.029775 
L 38.148864 93.029775 
L 39.501591 93.029775 
L 40.854318 93.029775 
L 42.207045 93.029775 
L 43.559773 93.029775 
L 44.9125 93.029775 
L 46.265227 93.029775 
L 47.617955 93.029775 
L 48.970682 93.029775 
L 50.323409 93.029775 
L 51.676136 93.029775 
L 53.028864 93.029775 
L 54.381591 93.029775 
L 55.734318 93.029775 
L 57.087045 93.029775 
L 58.439773 93.029775 
L 59.7925 93.029775 
L 61.145227 93.029775 
L 62.497955 93.029775 
L 63.850682 93.029775 
L 65.203409 93.029775 
L 66.556136 93.029775 
L 67.908864 93.029775 
L 69.261591 93.029775 
L 70.614318 93.029775 
L 71.967045 93.029775 
L 73.319773 93.029775 
L 74.6725 93.029775 
L 76.025227 93.029775 
L 77.377955 93.029775 
L 78.730682 93.029775 
L 80.083409 93.029775 
L 81.436136 93.029775 
L 82.788864 93.029775 
L 84.141591 93.029775 
L 85.494318 93.029775 
L 86.847045 93.029775 
L 88.199773 93.029775 
L 89.5525 93.029775 
L 90.905227 93.029775 
L 92.257955 93.029775 
L 93.610682 93.029775 
L 94.963409 93.029775 
L 96.316136 93.029775 
L 97.668864 93.029775 
L 99.021591 93.029775 
L 100.374318 93.029775 
L 101.727045 93.029775 
L 103.079773 93.029775 
L 104.4325 93.029775 
L 105.785227 93.029775 
L 107.137955 93.029775 
L 108.490682 93.029775 
L 109.843409 93.029775 
L 111.196136 93.029775 
L 112.548864 93.029775 
L 113.901591 93.029775 
L 115.254318 93.029775 
L 116.607045 93.029775 
L 117.959773 93.029775 
L 119.3125 93.029775 
L 120.665227 93.029775 
L 122.017955 93.029775 
L 123.370682 93.029775 
L 124.723409 93.029775 
L 126.076136 93.029775 
L 127.428864 93.029775 
L 128.781591 93.029775 
L 130.134318 93.029775 
L 131.487045 93.029775 
L 132.839773 93.029775 
L 134.1925 93.029775 
L 135.545227 93.029775 
L 136.897955 93.029775 
L 138.250682 93.029775 
L 139.603409 93.029775 
L 140.956136 93.029775 
L 142.308864 93.029775 
L 143.661591 93.029775 
L 145.014318 93.029775 
L 146.367045 93.029775 
L 147.719773 93.029775 
L 149.0725 93.029775 
L 150.425227 93.029775 
L 151.777955 93.029775 
L 153.130682 93.029775 
L 154.483409 93.029775 
L 155.836136 93.029775 
L 157.188864 93.029775 
L 158.541591 93.029775 
L 159.894318 93.029775 
L 161.247045 93.029775 
L 162.599773 93.029775 
L 163.9525 93.029775 
" clip-path="url(#p2cc404cc8c)" style="fill: none; stroke: #af58ba; stroke-linecap: square"/>
   </g>
   <g id="patch_3">
    <path d="M 30.0325 98.943375 
L 30.0325 10.239375 
" style="fill: none; stroke: #000000; stroke-width: 0.6; stroke-linejoin: miter; stroke-linecap: square"/>
   </g>
   <g id="patch_4">
    <path d="M 30.0325 98.943375 
L 163.9525 98.943375 
" style="fill: none; stroke: #000000; stroke-width: 0.6; stroke-linejoin: miter; stroke-linecap: square"/>
   </g>
  </g>
 </g>
 <defs>
  <clipPath id="p2cc404cc8c">
   <rect x="30.0325" y="10.239375" width="133.92" height="88.704"/>
  </clipPath>
 </defs>
</svg>
