<?xml version="1.0" encoding="utf-8" standalone="no"?>
<!DOCTYPE svg PUBLIC "-//W3C//DTD SVG 1.1//EN"
  "http://www.w3.org/Graphics/SVG/1.1/DTD/svg11.dtd">
<svg xmlns:xlink="http://www.w3.org/1999/xlink" width="177.51375pt" height="131.628375pt" viewBox="0 0 177.51375 131.628375" xmlns="http://www.w3.org/2000/svg" version="1.1">
 <metadata>
  <rdf:RDF xmlns:dc="http://purl.org/dc/elements/1.1/" xmlns:cc="http://creativecommons.org/ns#" xmlns:rdf="http://www.w3.org/1999/02/22-rdf-syntax-ns#">
   <cc:Work>
    <dc:type rdf:resource="http://purl.org/dc/dcmitype/StillImage"/>
    <dc:format>image/svg+xml</dc:format>
    <dc:creator>
     <cc:Agent>
      <dc:title>Matplotlib v3.5.2, https://matplotlib.org/</dc:title>
     </cc:Agent>
    </dc:creator>
   </cc:Work>
  </rdf:RDF>
 </metadata>
 <defs>
  <style type="text/css">*{stroke-linejoin: round; stroke-linecap: butt}</style>
 </defs>
 <g id="figure_1">
  <g id="patch_1">
   <path d="M 0 131.628375 
L 177.51375 131.628375 
L 177.51375 0 
L 0 0 
L 0 131.628375 
z
" style="fill: none"/>
  </g>
  <g id="axes_1">
   <g id="patch_2">
    <path d="M 30.0325 98.943375 
L 163.9525 98.943375 
L 163.9525 10.239375 
L 30.0325 10.239375 
L 30.0325 98.943375 
z
" style="fill: none"/>
   </g>
   <g id="matplotlib.axis_1">
    <g id="xtick_1">
     <g id="line2d_1">
      <defs>
       <path id="m4cd371f86f" d="M 0 0 
L 0 2.5 
" style="stroke: #000000; stroke-width: 0.6"/>
      </defs>
      <g>
       <use xlink:href="#m4cd371f86f" x="30.0325" y="98.943375" style="stroke: #000000; stroke-width: 0.6"/>
      </g>
     </g>
     <g id="text_1">
      <!-- 0.0 -->
      <g transform="translate(23.67125 111.022125)scale(0.08 -0.08)">
       <defs>
        <path id="DejaVuSans-30" d="M 2034 4250 
Q 1547 4250 1301 3770 
Q 1056 3291 1056 2328 
Q 1056 1369 1301 889 
Q 1547 409 2034 409 
Q 2525 409 2770 889 
Q 3016 1369 3016 2328 
Q 3016 3291 2770 3770 
Q 2525 4250 2034 4250 
z
M 2034 4750 
Q 2819 4750 3233 4129 
Q 3647 3509 3647 2328 
Q 3647 1150 3233 529 
Q 2819 -91 2034 -91 
Q 1250 -91 836 529 
Q 422 1150 422 2328 
Q 422 3509 836 4129 
Q 1250 4750 2034 4750 
z
" transform="scale(0.015625)"/>
        <path id="DejaVuSans-2e" d="M 684 794 
L 1344 794 
L 1344 0 
L 684 0 
L 684 794 
z
" transform="scale(0.015625)"/>
       </defs>
       <use xlink:href="#DejaVuSans-30"/>
       <use xlink:href="#DejaVuSans-2e" x="63.623047"/>
       <use xlink:href="#DejaVuSans-30" x="95.410156"/>
      </g>
     </g>
    </g>
    <g id="xtick_2">
     <g id="line2d_2">
      <g>
       <use xlink:href="#m4cd371f86f" x="96.9925" y="98.943375" style="stroke: #000000; stroke-width: 0.6"/>
      </g>
     </g>
     <g id="text_2">
      <!-- 0.5 -->
      <g transform="translate(90.63125 111.022125)scale(0.08 -0.08)">
       <defs>
        <path id="DejaVuSans-35" d="M 691 4666 
L 3169 4666 
L 3169 4134 
L 1269 4134 
L 1269 2991 
Q 1406 3038 1543 3061 
Q 1681 3084 1819 3084 
Q 2600 3084 3056 2656 
Q 3513 2228 3513 1497 
Q 3513 744 3044 326 
Q 2575 -91 1722 -91 
Q 1428 -91 1123 -41 
Q 819 9 494 109 
L 494 744 
Q 775 591 1075 516 
Q 1375 441 1709 441 
Q 2250 441 2565 725 
Q 2881 1009 2881 1497 
Q 2881 1984 2565 2268 
Q 2250 2553 1709 2553 
Q 1456 2553 1204 2497 
Q 953 2441 691 2322 
L 691 4666 
z
" transform="scale(0.015625)"/>
       </defs>
       <use xlink:href="#DejaVuSans-30"/>
       <use xlink:href="#DejaVuSans-2e" x="63.623047"/>
       <use xlink:href="#DejaVuSans-35" x="95.410156"/>
      </g>
     </g>
    </g>
    <g id="xtick_3">
     <g id="line2d_3">
      <g>
       <use xlink:href="#m4cd371f86f" x="163.9525" y="98.943375" style="stroke: #000000; stroke-width: 0.6"/>
      </g>
     </g>
     <g id="text_3">
      <!-- 1.0 -->
      <g transform="translate(157.59125 111.022125)scale(0.08 -0.08)">
       <defs>
        <path id="DejaVuSans-31" d="M 794 531 
L 1825 531 
L 1825 4091 
L 703 3866 
L 703 4441 
L 1819 4666 
L 2450 4666 
L 2450 531 
L 3481 531 
L 3481 0 
L 794 0 
L 794 531 
z
" transform="scale(0.015625)"/>
       </defs>
       <use xlink:href="#DejaVuSans-31"/>
       <use xlink:href="#DejaVuSans-2e" x="63.623047"/>
       <use xlink:href="#DejaVuSans-30" x="95.410156"/>
      </g>
     </g>
    </g>
    <g id="text_4">
     <!-- t -->
     <g transform="translate(95.424375 122.764625)scale(0.08 -0.08)">
      <defs>
       <path id="DejaVuSans-74" d="M 1172 4494 
L 1172 3500 
L 2356 3500 
L 2356 3053 
L 1172 3053 
L 1172 1153 
Q 1172 725 1289 603 
Q 1406 481 1766 481 
L 2356 481 
L 2356 0 
L 1766 0 
Q 1100 0 847 248 
Q 594 497 594 1153 
L 594 3053 
L 172 3053 
L 172 3500 
L 594 3500 
L 594 4494 
L 1172 4494 
z
" transform="scale(0.015625)"/>
      </defs>
      <use xlink:href="#DejaVuSans-74"/>
     </g>
    </g>
   </g>
   <g id="matplotlib.axis_2">
    <g id="ytick_1">
     <g id="line2d_4">
      <defs>
       <path id="m56f3a9ced1" d="M 0 0 
L -2.5 0 
" style="stroke: #000000; stroke-width: 0.6"/>
      </defs>
      <g>
       <use xlink:href="#m56f3a9ced1" x="30.0325" y="98.943375" style="stroke: #000000; stroke-width: 0.6"/>
      </g>
     </g>
     <g id="text_5">
      <!-- 0 -->
      <g transform="translate(18.9425 101.98275)scale(0.08 -0.08)">
       <use xlink:href="#DejaVuSans-30"/>
      </g>
     </g>
    </g>
    <g id="ytick_2">
     <g id="line2d_5">
      <g>
       <use xlink:href="#m56f3a9ced1" x="30.0325" y="69.375375" style="stroke: #000000; stroke-width: 0.6"/>
      </g>
     </g>
     <g id="text_6">
      <!-- 1 -->
      <g transform="translate(18.9425 72.41475)scale(0.08 -0.08)">
       <use xlink:href="#DejaVuSans-31"/>
      </g>
     </g>
    </g>
    <g id="ytick_3">
     <g id="line2d_6">
      <g>
       <use xlink:href="#m56f3a9ced1" x="30.0325" y="39.807375" style="stroke: #000000; stroke-width: 0.6"/>
      </g>
     </g>
     <g id="text_7">
      <!-- 2 -->
      <g transform="translate(18.9425 42.84675)scale(0.08 -0.08)">
       <defs>
        <path id="DejaVuSans-32" d="M 1228 531 
L 3431 531 
L 3431 0 
L 469 0 
L 469 531 
Q 828 903 1448 1529 
Q 2069 2156 2228 2338 
Q 2531 2678 2651 2914 
Q 2772 3150 2772 3378 
Q 2772 3750 2511 3984 
Q 2250 4219 1831 4219 
Q 1534 4219 1204 4116 
Q 875 4013 500 3803 
L 500 4441 
Q 881 4594 1212 4672 
Q 1544 4750 1819 4750 
Q 2544 4750 2975 4387 
Q 3406 4025 3406 3419 
Q 3406 3131 3298 2873 
Q 3191 2616 2906 2266 
Q 2828 2175 2409 1742 
Q 1991 1309 1228 531 
z
" transform="scale(0.015625)"/>
       </defs>
       <use xlink:href="#DejaVuSans-32"/>
      </g>
     </g>
    </g>
    <g id="ytick_4">
     <g id="line2d_7">
      <g>
       <use xlink:href="#m56f3a9ced1" x="30.0325" y="10.239375" style="stroke: #000000; stroke-width: 0.6"/>
      </g>
     </g>
     <g id="text_8">
      <!-- 3 -->
      <g transform="translate(18.9425 13.27875)scale(0.08 -0.08)">
       <defs>
        <path id="DejaVuSans-33" d="M 2597 2516 
Q 3050 2419 3304 2112 
Q 3559 1806 3559 1356 
Q 3559 666 3084 287 
Q 2609 -91 1734 -91 
Q 1441 -91 1130 -33 
Q 819 25 488 141 
L 488 750 
Q 750 597 1062 519 
Q 1375 441 1716 441 
Q 2309 441 2620 675 
Q 2931 909 2931 1356 
Q 2931 1769 2642 2001 
Q 2353 2234 1838 2234 
L 1294 2234 
L 1294 2753 
L 1863 2753 
Q 2328 2753 2575 2939 
Q 2822 3125 2822 3475 
Q 2822 3834 2567 4026 
Q 2313 4219 1838 4219 
Q 1578 4219 1281 4162 
Q 984 4106 628 3988 
L 628 4550 
Q 988 4650 1302 4700 
Q 1616 4750 1894 4750 
Q 2613 4750 3031 4423 
Q 3450 4097 3450 3541 
Q 3450 3153 3228 2886 
Q 3006 2619 2597 2516 
z
" transform="scale(0.015625)"/>
       </defs>
       <use xlink:href="#DejaVuSans-33"/>
      </g>
     </g>
    </g>
    <g id="text_9">
     <!-- y -->
     <g transform="translate(13.27875 56.958875)rotate(-90)scale(0.08 -0.08)">
      <defs>
       <path id="DejaVuSans-79" d="M 2059 -325 
Q 1816 -950 1584 -1140 
Q 1353 -1331 966 -1331 
L 506 -1331 
L 506 -850 
L 844 -850 
Q 1081 -850 1212 -737 
Q 1344 -625 1503 -206 
L 1606 56 
L 191 3500 
L 800 3500 
L 1894 763 
L 2988 3500 
L 3597 3500 
L 2059 -325 
z
" transform="scale(0.015625)"/>
      </defs>
      <use xlink:href="#DejaVuSans-79"/>
     </g>
    </g>
   </g>
   <g id="line2d_8">
    <path d="M 30.0325 69.375375 
L 31.385227 69.672538 
L 32.737955 69.966715 
L 34.090682 70.257935 
L 35.443409 70.546229 
L 36.796136 70.831625 
L 38.148864 71.114153 
L 39.501591 71.393841 
L 40.854318 71.670718 
L 42.207045 71.944813 
L 43.559773 72.216153 
L 44.9125 72.484803 
L 46.265227 72.750811 
L 47.617955 73.014199 
L 48.970682 73.274989 
L 50.323409 73.533203 
L 51.676136 73.788863 
L 53.028864 74.04199 
L 54.381591 74.292606 
L 55.734318 74.540733 
L 57.087045 74.786392 
L 58.439773 75.029603 
L 59.7925 75.27039 
L 61.145227 75.508772 
L 62.497955 75.744771 
L 63.850682 75.978407 
L 65.203409 76.209702 
L 66.556136 76.438675 
L 67.908864 76.665349 
L 69.261591 76.889744 
L 70.614318 77.111879 
L 71.967045 77.331776 
L 73.319773 77.549454 
L 74.6725 77.764934 
L 76.025227 77.978236 
L 77.377955 78.18938 
L 78.730682 78.398387 
L 80.083409 78.605274 
L 81.436136 78.810064 
L 82.788864 79.012775 
L 84.141591 79.213426 
L 85.494318 79.412038 
L 86.847045 79.608629 
L 88.199773 79.803219 
L 89.5525 79.995828 
L 90.905227 80.186473 
L 92.257955 80.375175 
L 93.610682 80.561952 
L 94.963409 80.746823 
L 96.316136 80.929806 
L 97.668864 81.110921 
L 99.021591 81.290186 
L 100.374318 81.467619 
L 101.727045 81.643239 
L 103.079773 81.817064 
L 104.4325 81.989112 
L 105.785227 82.159401 
L 107.137955 82.32795 
L 108.490682 82.494775 
L 109.843409 82.659896 
L 111.196136 82.823329 
L 112.548864 82.985093 
L 113.901591 83.145205 
L 115.254318 83.303681 
L 116.607045 83.460541 
L 117.959773 83.6158 
L 119.3125 83.769477 
L 120.665227 83.921587 
L 122.017955 84.072149 
L 123.370682 84.221179 
L 124.723409 84.368693 
L 126.076136 84.514709 
L 127.428864 84.659243 
L 128.781591 84.802312 
L 130.134318 84.943932 
L 131.487045 85.084119 
L 132.839773 85.22289 
L 134.1925 85.360261 
L 135.545227 85.496247 
L 136.897955 85.630866 
L 138.250682 85.764132 
L 139.603409 85.896061 
L 140.956136 86.02667 
L 142.308864 86.155974 
L 143.661591 86.283987 
L 145.014318 86.410727 
L 146.367045 86.536207 
L 147.719773 86.660444 
L 149.0725 86.783452 
L 150.425227 86.905247 
L 151.777955 87.025843 
L 153.130682 87.145255 
L 154.483409 87.263498 
L 155.836136 87.380586 
L 157.188864 87.496535 
L 158.541591 87.611359 
L 159.894318 87.725072 
L 161.247045 87.837688 
L 162.599773 87.949222 
L 163.9525 88.059688 
" clip-path="url(#p2cc404cc8c)" style="fill: none; stroke: #ff1f5b; stroke-linecap: square"/>
   </g>
   <g id="line2d_9">
    <path d="M 30.0325 75.288975 
L 31.385227 75.526706 
L 32.737955 75.762047 
L 34.090682 75.995023 
L 35.443409 76.225658 
L 36.796136 76.453975 
L 38.148864 76.679997 
L 39.501591 76.903748 
L 40.854318 77.12525 
L 42.207045 77.344525 
L 43.559773 77.561598 
L 44.9125 77.776517 
L 46.265227 77.989324 
L 47.617955 78.200034 
L 48.970682 78.408666 
L 50.323409 78.615237 
L 51.676136 78.819765 
L 53.028864 79.022267 
L 54.381591 79.22276 
L 55.734318 79.421261 
L 57.087045 79.617788 
L 58.439773 79.812358 
L 59.7925 80.004987 
L 61.145227 80.195692 
L 62.497955 80.384491 
L 63.850682 80.5714 
L 65.203409 80.756436 
L 66.556136 80.939615 
L 67.908864 81.120954 
L 69.261591 81.30047 
L 70.614318 81.478178 
L 71.967045 81.654095 
L 73.319773 81.828238 
L 74.6725 82.000622 
L 76.025227 82.171264 
L 77.377955 82.340179 
L 78.730682 82.507384 
L 80.083409 82.672894 
L 81.436136 82.836726 
L 82.788864 82.998894 
L 84.141591 83.159416 
L 85.494318 83.318305 
L 86.847045 83.475578 
L 88.199773 83.63125 
L 89.5525 83.785337 
L 90.905227 83.937853 
L 92.257955 84.088815 
L 93.610682 84.238236 
L 94.963409 84.386133 
L 96.316136 84.53252 
L 97.668864 84.677412 
L 99.021591 84.820824 
L 100.374318 84.96277 
L 101.727045 85.103266 
L 103.079773 85.242326 
L 104.4325 85.379964 
L 105.785227 85.516196 
L 107.137955 85.651035 
L 108.490682 85.784495 
L 109.843409 85.916592 
L 111.196136 86.047338 
L 112.548864 86.176749 
L 113.901591 86.304838 
L 115.254318 86.43162 
L 116.607045 86.557108 
L 117.959773 86.681315 
L 119.3125 86.804256 
L 120.665227 86.925945 
L 122.017955 87.046394 
L 123.370682 87.165618 
L 124.723409 87.283629 
L 126.076136 87.400442 
L 127.428864 87.51607 
L 128.781591 87.630525 
L 130.134318 87.74382 
L 131.487045 87.85597 
L 132.839773 87.966987 
L 134.1925 88.076884 
L 135.545227 88.185673 
L 136.897955 88.293368 
L 138.250682 88.399981 
L 139.603409 88.505524 
L 140.956136 88.610011 
L 142.308864 88.713454 
L 143.661591 88.815865 
L 145.014318 88.917257 
L 146.367045 89.017641 
L 147.719773 89.11703 
L 149.0725 89.215437 
L 150.425227 89.312872 
L 151.777955 89.409349 
L 153.130682 89.504879 
L 154.483409 89.599473 
L 155.836136 89.693144 
L 157.188864 89.785903 
L 158.541591 89.877762 
L 159.894318 89.968733 
L 161.247045 90.058826 
L 162.599773 90.148053 
L 163.9525 90.236425 
" clip-path="url(#p2cc404cc8c)" style="fill: none; stroke: #00cd6c; stroke-linecap: square"/>
   </g>
   <g id="line2d_10">
    <path d="M 30.0325 93.029775 
L 31.385227 93.089208 
L 32.737955 93.148043 
L 34.090682 93.206287 
L 35.443409 93.263946 
L 36.796136 93.321025 
L 38.148864 93.377531 
L 39.501591 93.433468 
L 40.854318 93.488844 
L 42.207045 93.543663 
L 43.559773 93.597931 
L 44.9125 93.651661 
L 46.265227 93.704862 
L 47.617955 93.75754 
L 48.970682 93.809698 
L 50.323409 93.861341 
L 51.676136 93.912473 
L 53.028864 93.963098 
L 54.381591 94.013221 
L 55.734318 94.062847 
L 57.087045 94.111979 
L 58.439773 94.160621 
L 59.7925 94.208778 
L 61.145227 94.256455 
L 62.497955 94.303654 
L 63.850682 94.350382 
L 65.203409 94.396641 
L 66.556136 94.442435 
L 67.908864 94.48777 
L 69.261591 94.532649 
L 70.614318 94.577076 
L 71.967045 94.621055 
L 73.319773 94.664591 
L 74.6725 94.707687 
L 76.025227 94.750348 
L 77.377955 94.792576 
L 78.730682 94.834378 
L 80.083409 94.875755 
L 81.436136 94.916713 
L 82.788864 94.957255 
L 84.141591 94.997386 
L 85.494318 95.037108 
L 86.847045 95.076426 
L 88.199773 95.115344 
L 89.5525 95.153866 
L 90.905227 95.191995 
L 92.257955 95.229735 
L 93.610682 95.267091 
L 94.963409 95.304065 
L 96.316136 95.340662 
L 97.668864 95.376885 
L 99.021591 95.412738 
L 100.374318 95.448224 
L 101.727045 95.483348 
L 103.079773 95.518113 
L 104.4325 95.552523 
L 105.785227 95.58658 
L 107.137955 95.62029 
L 108.490682 95.653655 
L 109.843409 95.686679 
L 111.196136 95.719366 
L 112.548864 95.751719 
L 113.901591 95.783741 
L 115.254318 95.815436 
L 116.607045 95.846808 
L 117.959773 95.87786 
L 119.3125 95.908595 
L 120.665227 95.939018 
L 122.017955 95.96913 
L 123.370682 95.998936 
L 124.723409 96.028439 
L 126.076136 96.057642 
L 127.428864 96.086549 
L 128.781591 96.115162 
L 130.134318 96.143486 
L 131.487045 96.171524 
L 132.839773 96.199278 
L 134.1925 96.226752 
L 135.545227 96.253949 
L 136.897955 96.280873 
L 138.250682 96.307526 
L 139.603409 96.333912 
L 140.956136 96.360034 
L 142.308864 96.385895 
L 143.661591 96.411497 
L 145.014318 96.436845 
L 146.367045 96.461941 
L 147.719773 96.486789 
L 149.0725 96.51139 
L 150.425227 96.535749 
L 151.777955 96.559868 
L 153.130682 96.583751 
L 154.483409 96.607399 
L 155.836136 96.630817 
L 157.188864 96.654007 
L 158.541591 96.676972 
L 159.894318 96.699714 
L 161.247045 96.722237 
L 162.599773 96.744544 
L 163.9525 96.766637 
" clip-path="url(#p2cc404cc8c)" style="fill: none; stroke: #af58ba; stroke-linecap: square"/>
   </g>
   <g id="patch_3">
    <path d="M 30.0325 98.943375 
L 30.0325 10.239375 
" style="fill: none; stroke: #000000; stroke-width: 0.6; stroke-linejoin: miter; stroke-linecap: square"/>
   </g>
   <g id="patch_4">
    <path d="M 30.0325 98.943375 
L 163.9525 98.943375 
" style="fill: none; stroke: #000000; stroke-width: 0.6; stroke-linejoin: miter; stroke-linecap: square"/>
   </g>
  </g>
 </g>
 <defs>
  <clipPath id="p2cc404cc8c">
   <rect x="30.0325" y="10.239375" width="133.92" height="88.704"/>
  </clipPath>
 </defs>
</svg>
