<?xml version="1.0" encoding="utf-8" standalone="no"?>
<!DOCTYPE svg PUBLIC "-//W3C//DTD SVG 1.1//EN"
  "http://www.w3.org/Graphics/SVG/1.1/DTD/svg11.dtd">
<svg xmlns:xlink="http://www.w3.org/1999/xlink" width="177.51375pt" height="131.628375pt" viewBox="0 0 177.51375 131.628375" xmlns="http://www.w3.org/2000/svg" version="1.1">
 <metadata>
  <rdf:RDF xmlns:dc="http://purl.org/dc/elements/1.1/" xmlns:cc="http://creativecommons.org/ns#" xmlns:rdf="http://www.w3.org/1999/02/22-rdf-syntax-ns#">
   <cc:Work>
    <dc:type rdf:resource="http://purl.org/dc/dcmitype/StillImage"/>
    <dc:format>image/svg+xml</dc:format>
    <dc:creator>
     <cc:Agent>
      <dc:title>Matplotlib v3.5.2, https://matplotlib.org/</dc:title>
     </cc:Agent>
    </dc:creator>
   </cc:Work>
  </rdf:RDF>
 </metadata>
 <defs>
  <style type="text/css">*{stroke-linejoin: round; stroke-linecap: butt}</style>
 </defs>
 <g id="figure_1">
  <g id="patch_1">
   <path d="M 0 131.628375 
L 177.51375 131.628375 
L 177.51375 0 
L 0 0 
L 0 131.628375 
z
" style="fill: none"/>
  </g>
  <g id="axes_1">
   <g id="patch_2">
    <path d="M 30.0325 98.943375 
L 163.9525 98.943375 
L 163.9525 10.239375 
L 30.0325 10.239375 
L 30.0325 98.943375 
z
" style="fill: none"/>
   </g>
   <g id="matplotlib.axis_1">
    <g id="xtick_1">
     <g id="line2d_1">
      <defs>
       <path id="m4cd371f86f" d="M 0 0 
L 0 2.5 
" style="stroke: #000000; stroke-width: 0.6"/>
      </defs>
      <g>
       <use xlink:href="#m4cd371f86f" x="30.0325" y="98.943375" style="stroke: #000000; stroke-width: 0.6"/>
      </g>
     </g>
     <g id="text_1">
      <!-- 0.0 -->
      <g transform="translate(23.67125 111.022125)scale(0.08 -0.08)">
       <defs>
        <path id="DejaVuSans-30" d="M 2034 4250 
Q 1547 4250 1301 3770 
Q 1056 3291 1056 2328 
Q 1056 1369 1301 889 
Q 1547 409 2034 409 
Q 2525 409 2770 889 
Q 3016 1369 3016 2328 
Q 3016 3291 2770 3770 
Q 2525 4250 2034 4250 
z
M 2034 4750 
Q 2819 4750 3233 4129 
Q 3647 3509 3647 2328 
Q 3647 1150 3233 529 
Q 2819 -91 2034 -91 
Q 1250 -91 836 529 
Q 422 1150 422 2328 
Q 422 3509 836 4129 
Q 1250 4750 2034 4750 
z
" transform="scale(0.015625)"/>
        <path id="DejaVuSans-2e" d="M 684 794 
L 1344 794 
L 1344 0 
L 684 0 
L 684 794 
z
" transform="scale(0.015625)"/>
       </defs>
       <use xlink:href="#DejaVuSans-30"/>
       <use xlink:href="#DejaVuSans-2e" x="63.623047"/>
       <use xlink:href="#DejaVuSans-30" x="95.410156"/>
      </g>
     </g>
    </g>
    <g id="xtick_2">
     <g id="line2d_2">
      <g>
       <use xlink:href="#m4cd371f86f" x="96.9925" y="98.943375" style="stroke: #000000; stroke-width: 0.6"/>
      </g>
     </g>
     <g id="text_2">
      <!-- 0.5 -->
      <g transform="translate(90.63125 111.022125)scale(0.08 -0.08)">
       <defs>
        <path id="DejaVuSans-35" d="M 691 4666 
L 3169 4666 
L 3169 4134 
L 1269 4134 
L 1269 2991 
Q 1406 3038 1543 3061 
Q 1681 3084 1819 3084 
Q 2600 3084 3056 2656 
Q 3513 2228 3513 1497 
Q 3513 744 3044 326 
Q 2575 -91 1722 -91 
Q 1428 -91 1123 -41 
Q 819 9 494 109 
L 494 744 
Q 775 591 1075 516 
Q 1375 441 1709 441 
Q 2250 441 2565 725 
Q 2881 1009 2881 1497 
Q 2881 1984 2565 2268 
Q 2250 2553 1709 2553 
Q 1456 2553 1204 2497 
Q 953 2441 691 2322 
L 691 4666 
z
" transform="scale(0.015625)"/>
       </defs>
       <use xlink:href="#DejaVuSans-30"/>
       <use xlink:href="#DejaVuSans-2e" x="63.623047"/>
       <use xlink:href="#DejaVuSans-35" x="95.410156"/>
      </g>
     </g>
    </g>
    <g id="xtick_3">
     <g id="line2d_3">
      <g>
       <use xlink:href="#m4cd371f86f" x="163.9525" y="98.943375" style="stroke: #000000; stroke-width: 0.6"/>
      </g>
     </g>
     <g id="text_3">
      <!-- 1.0 -->
      <g transform="translate(157.59125 111.022125)scale(0.08 -0.08)">
       <defs>
        <path id="DejaVuSans-31" d="M 794 531 
L 1825 531 
L 1825 4091 
L 703 3866 
L 703 4441 
L 1819 4666 
L 2450 4666 
L 2450 531 
L 3481 531 
L 3481 0 
L 794 0 
L 794 531 
z
" transform="scale(0.015625)"/>
       </defs>
       <use xlink:href="#DejaVuSans-31"/>
       <use xlink:href="#DejaVuSans-2e" x="63.623047"/>
       <use xlink:href="#DejaVuSans-30" x="95.410156"/>
      </g>
     </g>
    </g>
    <g id="text_4">
     <!-- t -->
     <g transform="translate(95.424375 122.764625)scale(0.08 -0.08)">
      <defs>
       <path id="DejaVuSans-74" d="M 1172 4494 
L 1172 3500 
L 2356 3500 
L 2356 3053 
L 1172 3053 
L 1172 1153 
Q 1172 725 1289 603 
Q 1406 481 1766 481 
L 2356 481 
L 2356 0 
L 1766 0 
Q 1100 0 847 248 
Q 594 497 594 1153 
L 594 3053 
L 172 3053 
L 172 3500 
L 594 3500 
L 594 4494 
L 1172 4494 
z
" transform="scale(0.015625)"/>
      </defs>
      <use xlink:href="#DejaVuSans-74"/>
     </g>
    </g>
   </g>
   <g id="matplotlib.axis_2">
    <g id="ytick_1">
     <g id="line2d_4">
      <defs>
       <path id="m56f3a9ced1" d="M 0 0 
L -2.5 0 
" style="stroke: #000000; stroke-width: 0.6"/>
      </defs>
      <g>
       <use xlink:href="#m56f3a9ced1" x="30.0325" y="98.943375" style="stroke: #000000; stroke-width: 0.6"/>
      </g>
     </g>
     <g id="text_5">
      <!-- 0 -->
      <g transform="translate(18.9425 101.98275)scale(0.08 -0.08)">
       <use xlink:href="#DejaVuSans-30"/>
      </g>
     </g>
    </g>
    <g id="ytick_2">
     <g id="line2d_5">
      <g>
       <use xlink:href="#m56f3a9ced1" x="30.0325" y="69.375375" style="stroke: #000000; stroke-width: 0.6"/>
      </g>
     </g>
     <g id="text_6">
      <!-- 1 -->
      <g transform="translate(18.9425 72.41475)scale(0.08 -0.08)">
       <use xlink:href="#DejaVuSans-31"/>
      </g>
     </g>
    </g>
    <g id="ytick_3">
     <g id="line2d_6">
      <g>
       <use xlink:href="#m56f3a9ced1" x="30.0325" y="39.807375" style="stroke: #000000; stroke-width: 0.6"/>
      </g>
     </g>
     <g id="text_7">
      <!-- 2 -->
      <g transform="translate(18.9425 42.84675)scale(0.08 -0.08)">
       <defs>
        <path id="DejaVuSans-32" d="M 1228 531 
L 3431 531 
L 3431 0 
L 469 0 
L 469 531 
Q 828 903 1448 1529 
Q 2069 2156 2228 2338 
Q 2531 2678 2651 2914 
Q 2772 3150 2772 3378 
Q 2772 3750 2511 3984 
Q 2250 4219 1831 4219 
Q 1534 4219 1204 4116 
Q 875 4013 500 3803 
L 500 4441 
Q 881 4594 1212 4672 
Q 1544 4750 1819 4750 
Q 2544 4750 2975 4387 
Q 3406 4025 3406 3419 
Q 3406 3131 3298 2873 
Q 3191 2616 2906 2266 
Q 2828 2175 2409 1742 
Q 1991 1309 1228 531 
z
" transform="scale(0.015625)"/>
       </defs>
       <use xlink:href="#DejaVuSans-32"/>
      </g>
     </g>
    </g>
    <g id="ytick_4">
     <g id="line2d_7">
      <g>
       <use xlink:href="#m56f3a9ced1" x="30.0325" y="10.239375" style="stroke: #000000; stroke-width: 0.6"/>
      </g>
     </g>
     <g id="text_8">
      <!-- 3 -->
      <g transform="translate(18.9425 13.27875)scale(0.08 -0.08)">
       <defs>
        <path id="DejaVuSans-33" d="M 2597 2516 
Q 3050 2419 3304 2112 
Q 3559 1806 3559 1356 
Q 3559 666 3084 287 
Q 2609 -91 1734 -91 
Q 1441 -91 1130 -33 
Q 819 25 488 141 
L 488 750 
Q 750 597 1062 519 
Q 1375 441 1716 441 
Q 2309 441 2620 675 
Q 2931 909 2931 1356 
Q 2931 1769 2642 2001 
Q 2353 2234 1838 2234 
L 1294 2234 
L 1294 2753 
L 1863 2753 
Q 2328 2753 2575 2939 
Q 2822 3125 2822 3475 
Q 2822 3834 2567 4026 
Q 2313 4219 1838 4219 
Q 1578 4219 1281 4162 
Q 984 4106 628 3988 
L 628 4550 
Q 988 4650 1302 4700 
Q 1616 4750 1894 4750 
Q 2613 4750 3031 4423 
Q 3450 4097 3450 3541 
Q 3450 3153 3228 2886 
Q 3006 2619 2597 2516 
z
" transform="scale(0.015625)"/>
       </defs>
       <use xlink:href="#DejaVuSans-33"/>
      </g>
     </g>
    </g>
    <g id="text_9">
     <!-- y -->
     <g transform="translate(13.27875 56.958875)rotate(-90)scale(0.08 -0.08)">
      <defs>
       <path id="DejaVuSans-79" d="M 2059 -325 
Q 1816 -950 1584 -1140 
Q 1353 -1331 966 -1331 
L 506 -1331 
L 506 -850 
L 844 -850 
Q 1081 -850 1212 -737 
Q 1344 -625 1503 -206 
L 1606 56 
L 191 3500 
L 800 3500 
L 1894 763 
L 2988 3500 
L 3597 3500 
L 2059 -325 
z
" transform="scale(0.015625)"/>
      </defs>
      <use xlink:href="#DejaVuSans-79"/>
     </g>
    </g>
   </g>
   <g id="line2d_8">
    <path d="M 30.0325 69.375375 
L 31.385227 69.075195 
L 32.737955 68.771967 
L 34.090682 68.465661 
L 35.443409 68.156245 
L 36.796136 67.843688 
L 38.148864 67.527958 
L 39.501591 67.209023 
L 40.854318 66.886849 
L 42.207045 66.561405 
L 43.559773 66.232657 
L 44.9125 65.900557 
L 46.265227 65.565064 
L 47.617955 65.226147 
L 48.970682 64.883775 
L 50.323409 64.537915 
L 51.676136 64.188535 
L 53.028864 63.835602 
L 54.381591 63.479083 
L 55.734318 63.118942 
L 57.087045 62.755145 
L 58.439773 62.387657 
L 59.7925 62.016442 
L 61.145227 61.641464 
L 62.497955 61.262686 
L 63.850682 60.880071 
L 65.203409 60.49358 
L 66.556136 60.103176 
L 67.908864 59.708818 
L 69.261591 59.310468 
L 70.614318 58.908086 
L 71.967045 58.501631 
L 73.319773 58.091062 
L 74.6725 57.676337 
L 76.025227 57.257414 
L 77.377955 56.83425 
L 78.730682 56.406802 
L 80.083409 55.975027 
L 81.436136 55.538879 
L 82.788864 55.098315 
L 84.141591 54.653289 
L 85.494318 54.203754 
L 86.847045 53.749664 
L 88.199773 53.290973 
L 89.5525 52.827633 
L 90.905227 52.359595 
L 92.257955 51.886812 
L 93.610682 51.409234 
L 94.963409 50.926812 
L 96.316136 50.439494 
L 97.668864 49.947231 
L 99.021591 49.449972 
L 100.374318 48.947664 
L 101.727045 48.440255 
L 103.079773 47.927693 
L 104.4325 47.409924 
L 105.785227 46.886893 
L 107.137955 46.358548 
L 108.490682 45.824832 
L 109.843409 45.28569 
L 111.196136 44.741067 
L 112.548864 44.190905 
L 113.901591 43.635148 
L 115.254318 43.073737 
L 116.607045 42.506615 
L 117.959773 41.933723 
L 119.3125 41.355002 
L 120.665227 40.770391 
L 122.017955 40.179831 
L 123.370682 39.583262 
L 124.723409 38.98062 
L 126.076136 38.371845 
L 127.428864 37.756874 
L 128.781591 37.135645 
L 130.134318 36.508092 
L 131.487045 35.874154 
L 132.839773 35.233765 
L 134.1925 34.586859 
L 135.545227 33.933372 
L 136.897955 33.273237 
L 138.250682 32.606387 
L 139.603409 31.932756 
L 140.956136 31.252275 
L 142.308864 30.564877 
L 143.661591 29.870491 
L 145.014318 29.16905 
L 146.367045 28.460483 
L 147.719773 27.744719 
L 149.0725 27.021689 
L 150.425227 26.291319 
L 151.777955 25.553539 
L 153.130682 24.808275 
L 154.483409 24.055455 
L 155.836136 23.295005 
L 157.188864 22.52685 
L 158.541591 21.750917 
L 159.894318 20.967129 
L 161.247045 20.175412 
L 162.599773 19.375689 
L 163.9525 18.567882 
" clip-path="url(#p2cc404cc8c)" style="fill: none; stroke: #ff1f5b; stroke-linecap: square"/>
   </g>
   <g id="line2d_9">
    <path d="M 30.0325 75.288975 
L 31.385227 75.048831 
L 32.737955 74.806249 
L 34.090682 74.561204 
L 35.443409 74.313671 
L 36.796136 74.063626 
L 38.148864 73.811041 
L 39.501591 73.555893 
L 40.854318 73.298154 
L 42.207045 73.037799 
L 43.559773 72.7748 
L 44.9125 72.50912 
L 46.265227 72.240726 
L 47.617955 71.969593 
L 48.970682 71.695695 
L 50.323409 71.419007 
L 51.676136 71.139503 
L 53.028864 70.857157 
L 54.381591 70.571941 
L 55.734318 70.283828 
L 57.087045 69.992791 
L 58.439773 69.698801 
L 59.7925 69.401829 
L 61.145227 69.101847 
L 62.497955 68.798824 
L 63.850682 68.492732 
L 65.203409 68.183539 
L 66.556136 67.871216 
L 67.908864 67.55573 
L 69.261591 67.23705 
L 70.614318 66.915144 
L 71.967045 66.58998 
L 73.319773 66.261524 
L 74.6725 65.929744 
L 76.025227 65.594606 
L 77.377955 65.256075 
L 78.730682 64.914117 
L 80.083409 64.568697 
L 81.436136 64.219779 
L 82.788864 63.867327 
L 84.141591 63.511306 
L 85.494318 63.151678 
L 86.847045 62.788406 
L 88.199773 62.421453 
L 89.5525 62.050781 
L 90.905227 61.676351 
L 92.257955 61.298125 
L 93.610682 60.916062 
L 94.963409 60.530124 
L 96.316136 60.14027 
L 97.668864 59.74646 
L 99.021591 59.348652 
L 100.374318 58.946806 
L 101.727045 58.540879 
L 103.079773 58.130829 
L 104.4325 57.716614 
L 105.785227 57.29819 
L 107.137955 56.875513 
L 108.490682 56.448541 
L 109.843409 56.017227 
L 111.196136 55.581529 
L 112.548864 55.141399 
L 113.901591 54.696793 
L 115.254318 54.247664 
L 116.607045 53.793967 
L 117.959773 53.335653 
L 119.3125 52.872676 
L 120.665227 52.404988 
L 122.017955 51.93254 
L 123.370682 51.455284 
L 124.723409 50.973171 
L 126.076136 50.486151 
L 127.428864 49.994174 
L 128.781591 49.497191 
L 130.134318 48.995149 
L 131.487045 48.487998 
L 132.839773 47.975687 
L 134.1925 47.458162 
L 135.545227 46.935373 
L 136.897955 46.407265 
L 138.250682 45.873785 
L 139.603409 45.33488 
L 140.956136 44.790495 
L 142.308864 44.240576 
L 143.661591 43.685068 
L 145.014318 43.123915 
L 146.367045 42.557061 
L 147.719773 41.984451 
L 149.0725 41.406026 
L 150.425227 40.82173 
L 151.777955 40.231506 
L 153.130682 39.635295 
L 154.483409 39.033039 
L 155.836136 38.424679 
L 157.188864 37.810155 
L 158.541591 37.189409 
L 159.894318 36.562379 
L 161.247045 35.929005 
L 162.599773 35.289226 
L 163.9525 34.642981 
" clip-path="url(#p2cc404cc8c)" style="fill: none; stroke: #00cd6c; stroke-linecap: square"/>
   </g>
   <g id="line2d_10">
    <path d="M 30.0325 93.029775 
L 31.385227 92.969739 
L 32.737955 92.909093 
L 34.090682 92.847832 
L 35.443409 92.785949 
L 36.796136 92.723438 
L 38.148864 92.660292 
L 39.501591 92.596505 
L 40.854318 92.53207 
L 42.207045 92.466981 
L 43.559773 92.401231 
L 44.9125 92.334811 
L 46.265227 92.267713 
L 47.617955 92.199929 
L 48.970682 92.131455 
L 50.323409 92.062283 
L 51.676136 91.992407 
L 53.028864 91.92182 
L 54.381591 91.850516 
L 55.734318 91.778488 
L 57.087045 91.705729 
L 58.439773 91.632231 
L 59.7925 91.557988 
L 61.145227 91.482993 
L 62.497955 91.407237 
L 63.850682 91.330714 
L 65.203409 91.253416 
L 66.556136 91.175335 
L 67.908864 91.096464 
L 69.261591 91.016794 
L 70.614318 90.936317 
L 71.967045 90.855026 
L 73.319773 90.772912 
L 74.6725 90.689967 
L 76.025227 90.606183 
L 77.377955 90.52155 
L 78.730682 90.43606 
L 80.083409 90.349705 
L 81.436136 90.262476 
L 82.788864 90.174363 
L 84.141591 90.085358 
L 85.494318 89.995451 
L 86.847045 89.904633 
L 88.199773 89.812895 
L 89.5525 89.720227 
L 90.905227 89.626619 
L 92.257955 89.532062 
L 93.610682 89.436547 
L 94.963409 89.340062 
L 96.316136 89.242599 
L 97.668864 89.144146 
L 99.021591 89.044694 
L 100.374318 88.944233 
L 101.727045 88.842751 
L 103.079773 88.740239 
L 104.4325 88.636685 
L 105.785227 88.532079 
L 107.137955 88.42641 
L 108.490682 88.319667 
L 109.843409 88.211838 
L 111.196136 88.102913 
L 112.548864 87.992881 
L 113.901591 87.88173 
L 115.254318 87.769447 
L 116.607045 87.656023 
L 117.959773 87.541445 
L 119.3125 87.4257 
L 120.665227 87.308778 
L 122.017955 87.190666 
L 123.370682 87.071352 
L 124.723409 86.950824 
L 126.076136 86.829069 
L 127.428864 86.706075 
L 128.781591 86.581829 
L 130.134318 86.456319 
L 131.487045 86.329531 
L 132.839773 86.201453 
L 134.1925 86.072072 
L 135.545227 85.941374 
L 136.897955 85.809347 
L 138.250682 85.675978 
L 139.603409 85.541251 
L 140.956136 85.405155 
L 142.308864 85.267675 
L 143.661591 85.128798 
L 145.014318 84.98851 
L 146.367045 84.846797 
L 147.719773 84.703644 
L 149.0725 84.559038 
L 150.425227 84.412964 
L 151.777955 84.265408 
L 153.130682 84.116355 
L 154.483409 83.965791 
L 155.836136 83.813701 
L 157.188864 83.66007 
L 158.541591 83.504883 
L 159.894318 83.348126 
L 161.247045 83.189782 
L 162.599773 83.029838 
L 163.9525 82.868276 
" clip-path="url(#p2cc404cc8c)" style="fill: none; stroke: #af58ba; stroke-linecap: square"/>
   </g>
   <g id="patch_3">
    <path d="M 30.0325 98.943375 
L 30.0325 10.239375 
" style="fill: none; stroke: #000000; stroke-width: 0.6; stroke-linejoin: miter; stroke-linecap: square"/>
   </g>
   <g id="patch_4">
    <path d="M 30.0325 98.943375 
L 163.9525 98.943375 
" style="fill: none; stroke: #000000; stroke-width: 0.6; stroke-linejoin: miter; stroke-linecap: square"/>
   </g>
  </g>
 </g>
 <defs>
  <clipPath id="p2cc404cc8c">
   <rect x="30.0325" y="10.239375" width="133.92" height="88.704"/>
  </clipPath>
 </defs>
</svg>
