<?xml version="1.0" encoding="utf-8" standalone="no"?>
<!DOCTYPE svg PUBLIC "-//W3C//DTD SVG 1.1//EN"
  "http://www.w3.org/Graphics/SVG/1.1/DTD/svg11.dtd">
<svg xmlns:xlink="http://www.w3.org/1999/xlink" width="278.245pt" height="141.1875pt" viewBox="0 0 278.245 141.1875" xmlns="http://www.w3.org/2000/svg" version="1.1">
 <metadata>
  <rdf:RDF xmlns:dc="http://purl.org/dc/elements/1.1/" xmlns:cc="http://creativecommons.org/ns#" xmlns:rdf="http://www.w3.org/1999/02/22-rdf-syntax-ns#">
   <cc:Work>
    <dc:type rdf:resource="http://purl.org/dc/dcmitype/StillImage"/>
    <dc:format>image/svg+xml</dc:format>
    <dc:creator>
     <cc:Agent>
      <dc:title>Matplotlib v3.5.2, https://matplotlib.org/</dc:title>
     </cc:Agent>
    </dc:creator>
   </cc:Work>
  </rdf:RDF>
 </metadata>
 <defs>
  <style type="text/css">*{stroke-linejoin: round; stroke-linecap: butt}</style>
 </defs>
 <g id="figure_1">
  <g id="patch_1">
   <path d="M 0 141.1875 
L 278.245 141.1875 
L 278.245 0 
L 0 0 
L 0 141.1875 
z
" style="fill: none"/>
  </g>
  <g id="axes_1">
   <g id="patch_2">
    <path d="M 42.755 108.5025 
L 265.955 108.5025 
L 265.955 25.3425 
L 42.755 25.3425 
L 42.755 108.5025 
z
" style="fill: none"/>
   </g>
   <g id="matplotlib.axis_1">
    <g id="xtick_1">
     <g id="line2d_1">
      <defs>
       <path id="m4cd371f86f" d="M 0 0 
L 0 2.5 
" style="stroke: #000000; stroke-width: 0.6"/>
      </defs>
      <g>
       <use xlink:href="#m4cd371f86f" x="42.755" y="108.5025" style="stroke: #000000; stroke-width: 0.6"/>
      </g>
     </g>
     <g id="text_1">
      <!-- 0 -->
      <g transform="translate(40.21 120.58125)scale(0.08 -0.08)">
       <defs>
        <path id="DejaVuSans-30" d="M 2034 4250 
Q 1547 4250 1301 3770 
Q 1056 3291 1056 2328 
Q 1056 1369 1301 889 
Q 1547 409 2034 409 
Q 2525 409 2770 889 
Q 3016 1369 3016 2328 
Q 3016 3291 2770 3770 
Q 2525 4250 2034 4250 
z
M 2034 4750 
Q 2819 4750 3233 4129 
Q 3647 3509 3647 2328 
Q 3647 1150 3233 529 
Q 2819 -91 2034 -91 
Q 1250 -91 836 529 
Q 422 1150 422 2328 
Q 422 3509 836 4129 
Q 1250 4750 2034 4750 
z
" transform="scale(0.015625)"/>
       </defs>
       <use xlink:href="#DejaVuSans-30"/>
      </g>
     </g>
    </g>
    <g id="xtick_2">
     <g id="line2d_2">
      <g>
       <use xlink:href="#m4cd371f86f" x="74.640714" y="108.5025" style="stroke: #000000; stroke-width: 0.6"/>
      </g>
     </g>
     <g id="text_2">
      <!-- 10 -->
      <g transform="translate(69.550714 120.58125)scale(0.08 -0.08)">
       <defs>
        <path id="DejaVuSans-31" d="M 794 531 
L 1825 531 
L 1825 4091 
L 703 3866 
L 703 4441 
L 1819 4666 
L 2450 4666 
L 2450 531 
L 3481 531 
L 3481 0 
L 794 0 
L 794 531 
z
" transform="scale(0.015625)"/>
       </defs>
       <use xlink:href="#DejaVuSans-31"/>
       <use xlink:href="#DejaVuSans-30" x="63.623047"/>
      </g>
     </g>
    </g>
    <g id="xtick_3">
     <g id="line2d_3">
      <g>
       <use xlink:href="#m4cd371f86f" x="106.526429" y="108.5025" style="stroke: #000000; stroke-width: 0.6"/>
      </g>
     </g>
     <g id="text_3">
      <!-- 20 -->
      <g transform="translate(101.436429 120.58125)scale(0.08 -0.08)">
       <defs>
        <path id="DejaVuSans-32" d="M 1228 531 
L 3431 531 
L 3431 0 
L 469 0 
L 469 531 
Q 828 903 1448 1529 
Q 2069 2156 2228 2338 
Q 2531 2678 2651 2914 
Q 2772 3150 2772 3378 
Q 2772 3750 2511 3984 
Q 2250 4219 1831 4219 
Q 1534 4219 1204 4116 
Q 875 4013 500 3803 
L 500 4441 
Q 881 4594 1212 4672 
Q 1544 4750 1819 4750 
Q 2544 4750 2975 4387 
Q 3406 4025 3406 3419 
Q 3406 3131 3298 2873 
Q 3191 2616 2906 2266 
Q 2828 2175 2409 1742 
Q 1991 1309 1228 531 
z
" transform="scale(0.015625)"/>
       </defs>
       <use xlink:href="#DejaVuSans-32"/>
       <use xlink:href="#DejaVuSans-30" x="63.623047"/>
      </g>
     </g>
    </g>
    <g id="xtick_4">
     <g id="line2d_4">
      <g>
       <use xlink:href="#m4cd371f86f" x="138.412143" y="108.5025" style="stroke: #000000; stroke-width: 0.6"/>
      </g>
     </g>
     <g id="text_4">
      <!-- 30 -->
      <g transform="translate(133.322143 120.58125)scale(0.08 -0.08)">
       <defs>
        <path id="DejaVuSans-33" d="M 2597 2516 
Q 3050 2419 3304 2112 
Q 3559 1806 3559 1356 
Q 3559 666 3084 287 
Q 2609 -91 1734 -91 
Q 1441 -91 1130 -33 
Q 819 25 488 141 
L 488 750 
Q 750 597 1062 519 
Q 1375 441 1716 441 
Q 2309 441 2620 675 
Q 2931 909 2931 1356 
Q 2931 1769 2642 2001 
Q 2353 2234 1838 2234 
L 1294 2234 
L 1294 2753 
L 1863 2753 
Q 2328 2753 2575 2939 
Q 2822 3125 2822 3475 
Q 2822 3834 2567 4026 
Q 2313 4219 1838 4219 
Q 1578 4219 1281 4162 
Q 984 4106 628 3988 
L 628 4550 
Q 988 4650 1302 4700 
Q 1616 4750 1894 4750 
Q 2613 4750 3031 4423 
Q 3450 4097 3450 3541 
Q 3450 3153 3228 2886 
Q 3006 2619 2597 2516 
z
" transform="scale(0.015625)"/>
       </defs>
       <use xlink:href="#DejaVuSans-33"/>
       <use xlink:href="#DejaVuSans-30" x="63.623047"/>
      </g>
     </g>
    </g>
    <g id="xtick_5">
     <g id="line2d_5">
      <g>
       <use xlink:href="#m4cd371f86f" x="170.297857" y="108.5025" style="stroke: #000000; stroke-width: 0.6"/>
      </g>
     </g>
     <g id="text_5">
      <!-- 40 -->
      <g transform="translate(165.207857 120.58125)scale(0.08 -0.08)">
       <defs>
        <path id="DejaVuSans-34" d="M 2419 4116 
L 825 1625 
L 2419 1625 
L 2419 4116 
z
M 2253 4666 
L 3047 4666 
L 3047 1625 
L 3713 1625 
L 3713 1100 
L 3047 1100 
L 3047 0 
L 2419 0 
L 2419 1100 
L 313 1100 
L 313 1709 
L 2253 4666 
z
" transform="scale(0.015625)"/>
       </defs>
       <use xlink:href="#DejaVuSans-34"/>
       <use xlink:href="#DejaVuSans-30" x="63.623047"/>
      </g>
     </g>
    </g>
    <g id="xtick_6">
     <g id="line2d_6">
      <g>
       <use xlink:href="#m4cd371f86f" x="202.183571" y="108.5025" style="stroke: #000000; stroke-width: 0.6"/>
      </g>
     </g>
     <g id="text_6">
      <!-- 50 -->
      <g transform="translate(197.093571 120.58125)scale(0.08 -0.08)">
       <defs>
        <path id="DejaVuSans-35" d="M 691 4666 
L 3169 4666 
L 3169 4134 
L 1269 4134 
L 1269 2991 
Q 1406 3038 1543 3061 
Q 1681 3084 1819 3084 
Q 2600 3084 3056 2656 
Q 3513 2228 3513 1497 
Q 3513 744 3044 326 
Q 2575 -91 1722 -91 
Q 1428 -91 1123 -41 
Q 819 9 494 109 
L 494 744 
Q 775 591 1075 516 
Q 1375 441 1709 441 
Q 2250 441 2565 725 
Q 2881 1009 2881 1497 
Q 2881 1984 2565 2268 
Q 2250 2553 1709 2553 
Q 1456 2553 1204 2497 
Q 953 2441 691 2322 
L 691 4666 
z
" transform="scale(0.015625)"/>
       </defs>
       <use xlink:href="#DejaVuSans-35"/>
       <use xlink:href="#DejaVuSans-30" x="63.623047"/>
      </g>
     </g>
    </g>
    <g id="xtick_7">
     <g id="line2d_7">
      <g>
       <use xlink:href="#m4cd371f86f" x="234.069286" y="108.5025" style="stroke: #000000; stroke-width: 0.6"/>
      </g>
     </g>
     <g id="text_7">
      <!-- 60 -->
      <g transform="translate(228.979286 120.58125)scale(0.08 -0.08)">
       <defs>
        <path id="DejaVuSans-36" d="M 2113 2584 
Q 1688 2584 1439 2293 
Q 1191 2003 1191 1497 
Q 1191 994 1439 701 
Q 1688 409 2113 409 
Q 2538 409 2786 701 
Q 3034 994 3034 1497 
Q 3034 2003 2786 2293 
Q 2538 2584 2113 2584 
z
M 3366 4563 
L 3366 3988 
Q 3128 4100 2886 4159 
Q 2644 4219 2406 4219 
Q 1781 4219 1451 3797 
Q 1122 3375 1075 2522 
Q 1259 2794 1537 2939 
Q 1816 3084 2150 3084 
Q 2853 3084 3261 2657 
Q 3669 2231 3669 1497 
Q 3669 778 3244 343 
Q 2819 -91 2113 -91 
Q 1303 -91 875 529 
Q 447 1150 447 2328 
Q 447 3434 972 4092 
Q 1497 4750 2381 4750 
Q 2619 4750 2861 4703 
Q 3103 4656 3366 4563 
z
" transform="scale(0.015625)"/>
       </defs>
       <use xlink:href="#DejaVuSans-36"/>
       <use xlink:href="#DejaVuSans-30" x="63.623047"/>
      </g>
     </g>
    </g>
    <g id="xtick_8">
     <g id="line2d_8">
      <g>
       <use xlink:href="#m4cd371f86f" x="265.955" y="108.5025" style="stroke: #000000; stroke-width: 0.6"/>
      </g>
     </g>
     <g id="text_8">
      <!-- 70 -->
      <g transform="translate(260.865 120.58125)scale(0.08 -0.08)">
       <defs>
        <path id="DejaVuSans-37" d="M 525 4666 
L 3525 4666 
L 3525 4397 
L 1831 0 
L 1172 0 
L 2766 4134 
L 525 4134 
L 525 4666 
z
" transform="scale(0.015625)"/>
       </defs>
       <use xlink:href="#DejaVuSans-37"/>
       <use xlink:href="#DejaVuSans-30" x="63.623047"/>
      </g>
     </g>
    </g>
    <g id="text_9">
     <!-- t -->
     <g transform="translate(152.786875 132.32375)scale(0.08 -0.08)">
      <defs>
       <path id="DejaVuSans-74" d="M 1172 4494 
L 1172 3500 
L 2356 3500 
L 2356 3053 
L 1172 3053 
L 1172 1153 
Q 1172 725 1289 603 
Q 1406 481 1766 481 
L 2356 481 
L 2356 0 
L 1766 0 
Q 1100 0 847 248 
Q 594 497 594 1153 
L 594 3053 
L 172 3053 
L 172 3500 
L 594 3500 
L 594 4494 
L 1172 4494 
z
" transform="scale(0.015625)"/>
      </defs>
      <use xlink:href="#DejaVuSans-74"/>
     </g>
    </g>
   </g>
   <g id="matplotlib.axis_2">
    <g id="ytick_1">
     <g id="line2d_9">
      <defs>
       <path id="m56f3a9ced1" d="M 0 0 
L -2.5 0 
" style="stroke: #000000; stroke-width: 0.6"/>
      </defs>
      <g>
       <use xlink:href="#m56f3a9ced1" x="42.755" y="108.5025" style="stroke: #000000; stroke-width: 0.6"/>
      </g>
     </g>
     <g id="text_10">
      <!-- 0.0 -->
      <g transform="translate(24.0325 111.541875)scale(0.08 -0.08)">
       <defs>
        <path id="DejaVuSans-2e" d="M 684 794 
L 1344 794 
L 1344 0 
L 684 0 
L 684 794 
z
" transform="scale(0.015625)"/>
       </defs>
       <use xlink:href="#DejaVuSans-30"/>
       <use xlink:href="#DejaVuSans-2e" x="63.623047"/>
       <use xlink:href="#DejaVuSans-30" x="95.410156"/>
      </g>
     </g>
    </g>
    <g id="ytick_2">
     <g id="line2d_10">
      <g>
       <use xlink:href="#m56f3a9ced1" x="42.755" y="91.8705" style="stroke: #000000; stroke-width: 0.6"/>
      </g>
     </g>
     <g id="text_11">
      <!-- 2.5 -->
      <g transform="translate(24.0325 94.909875)scale(0.08 -0.08)">
       <use xlink:href="#DejaVuSans-32"/>
       <use xlink:href="#DejaVuSans-2e" x="63.623047"/>
       <use xlink:href="#DejaVuSans-35" x="95.410156"/>
      </g>
     </g>
    </g>
    <g id="ytick_3">
     <g id="line2d_11">
      <g>
       <use xlink:href="#m56f3a9ced1" x="42.755" y="75.2385" style="stroke: #000000; stroke-width: 0.6"/>
      </g>
     </g>
     <g id="text_12">
      <!-- 5.0 -->
      <g transform="translate(24.0325 78.277875)scale(0.08 -0.08)">
       <use xlink:href="#DejaVuSans-35"/>
       <use xlink:href="#DejaVuSans-2e" x="63.623047"/>
       <use xlink:href="#DejaVuSans-30" x="95.410156"/>
      </g>
     </g>
    </g>
    <g id="ytick_4">
     <g id="line2d_12">
      <g>
       <use xlink:href="#m56f3a9ced1" x="42.755" y="58.6065" style="stroke: #000000; stroke-width: 0.6"/>
      </g>
     </g>
     <g id="text_13">
      <!-- 7.5 -->
      <g transform="translate(24.0325 61.645875)scale(0.08 -0.08)">
       <use xlink:href="#DejaVuSans-37"/>
       <use xlink:href="#DejaVuSans-2e" x="63.623047"/>
       <use xlink:href="#DejaVuSans-35" x="95.410156"/>
      </g>
     </g>
    </g>
    <g id="ytick_5">
     <g id="line2d_13">
      <g>
       <use xlink:href="#m56f3a9ced1" x="42.755" y="41.9745" style="stroke: #000000; stroke-width: 0.6"/>
      </g>
     </g>
     <g id="text_14">
      <!-- 10.0 -->
      <g transform="translate(18.9425 45.013875)scale(0.08 -0.08)">
       <use xlink:href="#DejaVuSans-31"/>
       <use xlink:href="#DejaVuSans-30" x="63.623047"/>
       <use xlink:href="#DejaVuSans-2e" x="127.246094"/>
       <use xlink:href="#DejaVuSans-30" x="159.033203"/>
      </g>
     </g>
    </g>
    <g id="ytick_6">
     <g id="line2d_14">
      <g>
       <use xlink:href="#m56f3a9ced1" x="42.755" y="25.3425" style="stroke: #000000; stroke-width: 0.6"/>
      </g>
     </g>
     <g id="text_15">
      <!-- 12.5 -->
      <g transform="translate(18.9425 28.381875)scale(0.08 -0.08)">
       <use xlink:href="#DejaVuSans-31"/>
       <use xlink:href="#DejaVuSans-32" x="63.623047"/>
       <use xlink:href="#DejaVuSans-2e" x="127.246094"/>
       <use xlink:href="#DejaVuSans-35" x="159.033203"/>
      </g>
     </g>
    </g>
    <g id="text_16">
     <!-- population -->
     <g transform="translate(13.27875 88.208125)rotate(-90)scale(0.08 -0.08)">
      <defs>
       <path id="DejaVuSans-70" d="M 1159 525 
L 1159 -1331 
L 581 -1331 
L 581 3500 
L 1159 3500 
L 1159 2969 
Q 1341 3281 1617 3432 
Q 1894 3584 2278 3584 
Q 2916 3584 3314 3078 
Q 3713 2572 3713 1747 
Q 3713 922 3314 415 
Q 2916 -91 2278 -91 
Q 1894 -91 1617 61 
Q 1341 213 1159 525 
z
M 3116 1747 
Q 3116 2381 2855 2742 
Q 2594 3103 2138 3103 
Q 1681 3103 1420 2742 
Q 1159 2381 1159 1747 
Q 1159 1113 1420 752 
Q 1681 391 2138 391 
Q 2594 391 2855 752 
Q 3116 1113 3116 1747 
z
" transform="scale(0.015625)"/>
       <path id="DejaVuSans-6f" d="M 1959 3097 
Q 1497 3097 1228 2736 
Q 959 2375 959 1747 
Q 959 1119 1226 758 
Q 1494 397 1959 397 
Q 2419 397 2687 759 
Q 2956 1122 2956 1747 
Q 2956 2369 2687 2733 
Q 2419 3097 1959 3097 
z
M 1959 3584 
Q 2709 3584 3137 3096 
Q 3566 2609 3566 1747 
Q 3566 888 3137 398 
Q 2709 -91 1959 -91 
Q 1206 -91 779 398 
Q 353 888 353 1747 
Q 353 2609 779 3096 
Q 1206 3584 1959 3584 
z
" transform="scale(0.015625)"/>
       <path id="DejaVuSans-75" d="M 544 1381 
L 544 3500 
L 1119 3500 
L 1119 1403 
Q 1119 906 1312 657 
Q 1506 409 1894 409 
Q 2359 409 2629 706 
Q 2900 1003 2900 1516 
L 2900 3500 
L 3475 3500 
L 3475 0 
L 2900 0 
L 2900 538 
Q 2691 219 2414 64 
Q 2138 -91 1772 -91 
Q 1169 -91 856 284 
Q 544 659 544 1381 
z
M 1991 3584 
L 1991 3584 
z
" transform="scale(0.015625)"/>
       <path id="DejaVuSans-6c" d="M 603 4863 
L 1178 4863 
L 1178 0 
L 603 0 
L 603 4863 
z
" transform="scale(0.015625)"/>
       <path id="DejaVuSans-61" d="M 2194 1759 
Q 1497 1759 1228 1600 
Q 959 1441 959 1056 
Q 959 750 1161 570 
Q 1363 391 1709 391 
Q 2188 391 2477 730 
Q 2766 1069 2766 1631 
L 2766 1759 
L 2194 1759 
z
M 3341 1997 
L 3341 0 
L 2766 0 
L 2766 531 
Q 2569 213 2275 61 
Q 1981 -91 1556 -91 
Q 1019 -91 701 211 
Q 384 513 384 1019 
Q 384 1609 779 1909 
Q 1175 2209 1959 2209 
L 2766 2209 
L 2766 2266 
Q 2766 2663 2505 2880 
Q 2244 3097 1772 3097 
Q 1472 3097 1187 3025 
Q 903 2953 641 2809 
L 641 3341 
Q 956 3463 1253 3523 
Q 1550 3584 1831 3584 
Q 2591 3584 2966 3190 
Q 3341 2797 3341 1997 
z
" transform="scale(0.015625)"/>
       <path id="DejaVuSans-69" d="M 603 3500 
L 1178 3500 
L 1178 0 
L 603 0 
L 603 3500 
z
M 603 4863 
L 1178 4863 
L 1178 4134 
L 603 4134 
L 603 4863 
z
" transform="scale(0.015625)"/>
       <path id="DejaVuSans-6e" d="M 3513 2113 
L 3513 0 
L 2938 0 
L 2938 2094 
Q 2938 2591 2744 2837 
Q 2550 3084 2163 3084 
Q 1697 3084 1428 2787 
Q 1159 2491 1159 1978 
L 1159 0 
L 581 0 
L 581 3500 
L 1159 3500 
L 1159 2956 
Q 1366 3272 1645 3428 
Q 1925 3584 2291 3584 
Q 2894 3584 3203 3211 
Q 3513 2838 3513 2113 
z
" transform="scale(0.015625)"/>
      </defs>
      <use xlink:href="#DejaVuSans-70"/>
      <use xlink:href="#DejaVuSans-6f" x="63.476562"/>
      <use xlink:href="#DejaVuSans-70" x="124.658203"/>
      <use xlink:href="#DejaVuSans-75" x="188.134766"/>
      <use xlink:href="#DejaVuSans-6c" x="251.513672"/>
      <use xlink:href="#DejaVuSans-61" x="279.296875"/>
      <use xlink:href="#DejaVuSans-74" x="340.576172"/>
      <use xlink:href="#DejaVuSans-69" x="379.785156"/>
      <use xlink:href="#DejaVuSans-6f" x="407.568359"/>
      <use xlink:href="#DejaVuSans-6e" x="468.75"/>
     </g>
    </g>
   </g>
   <g id="line2d_15">
    <path d="M 42.755 41.9745 
L 44.991473 81.3324 
L 45.886062 91.588338 
L 46.780651 98.113858 
L 47.67524 102.062035 
L 48.56983 104.417683 
L 49.464419 105.832993 
L 50.359008 106.698902 
L 51.253597 107.241259 
L 52.595481 107.716085 
L 54.384659 108.032594 
L 57.068427 108.230736 
L 61.988667 108.322974 
L 69.145381 108.230863 
L 73.171032 108.002045 
L 75.8548 107.661797 
L 77.643978 107.265225 
L 79.433156 106.630376 
L 80.77504 105.907683 
L 82.116924 104.863772 
L 83.011513 103.918158 
L 83.906102 102.704773 
L 84.800691 101.146988 
L 85.695281 99.147923 
L 86.58987 96.586828 
L 87.484459 93.316496 
L 88.379048 89.163695 
L 89.273637 83.936468 
L 90.168226 77.445555 
L 91.062816 69.553108 
L 92.404699 55.195292 
L 94.193878 34.789096 
L 94.641172 30.840917 
L 95.088467 28.049639 
L 95.535762 26.824789 
L 95.983056 27.523606 
L 96.430351 30.359176 
L 96.877645 35.307641 
L 97.772234 50.046397 
L 99.114118 74.666659 
L 100.008707 87.046142 
L 100.903297 95.282716 
L 101.797886 100.362438 
L 102.692475 103.403772 
L 103.587064 105.221333 
L 104.481653 106.322358 
L 105.376242 107.003744 
L 106.270832 107.436011 
L 107.612715 107.820372 
L 109.401894 108.081727 
L 112.532956 108.263563 
L 118.347786 108.3219 
L 125.057204 108.177491 
L 128.635561 107.912242 
L 131.319329 107.485264 
L 133.108507 106.983646 
L 134.450391 106.415523 
L 135.792275 105.597925 
L 136.686864 104.85903 
L 137.581453 103.912079 
L 138.476042 102.696974 
L 139.370631 101.136978 
L 140.26522 99.135089 
L 141.15981 96.570411 
L 142.054399 93.295587 
L 142.948988 89.137247 
L 143.843577 83.903375 
L 144.738166 77.404829 
L 145.632756 69.50428 
L 146.974639 55.136538 
L 148.763818 34.739529 
L 149.211112 30.802226 
L 149.658407 28.026487 
L 150.105701 26.821642 
L 150.552996 27.543898 
L 151.000291 30.404082 
L 151.447585 35.37526 
L 152.342174 50.141656 
L 153.684058 74.748976 
L 154.578647 87.103935 
L 155.473236 95.319253 
L 156.367826 100.384467 
L 157.262415 103.416895 
L 158.157004 105.229214 
L 159.051593 106.32718 
L 159.946182 107.006764 
L 160.840772 107.437952 
L 162.182655 107.821419 
L 163.971834 108.082224 
L 167.102896 108.263716 
L 172.917725 108.321875 
L 179.627144 108.177247 
L 183.205501 107.911663 
L 185.889269 107.484124 
L 187.678447 106.981823 
L 189.020331 106.412911 
L 190.362214 105.594158 
L 191.256804 104.854208 
L 192.151393 103.905898 
L 193.045982 102.689041 
L 193.940571 101.126798 
L 194.83516 99.122037 
L 195.729749 96.553716 
L 196.624339 93.274323 
L 197.518928 89.110353 
L 198.413517 83.869726 
L 199.308106 77.363416 
L 200.202695 69.454641 
L 201.544579 55.076842 
L 203.333758 34.689295 
L 203.781052 30.763073 
L 204.228347 28.0032 
L 204.675641 26.818668 
L 205.122936 27.56479 
L 205.57023 30.449963 
L 206.017525 35.444166 
L 206.912114 50.238482 
L 208.253998 74.832435 
L 209.148587 87.162522 
L 210.043176 95.356255 
L 210.937766 100.406777 
L 211.832355 103.430187 
L 212.726944 105.237195 
L 213.621533 106.332066 
L 214.516122 107.009824 
L 215.410711 107.439918 
L 216.752595 107.822481 
L 218.541774 108.082727 
L 221.672836 108.263878 
L 227.487665 108.32185 
L 234.197084 108.17699 
L 237.775441 107.911073 
L 240.459208 107.482964 
L 242.248387 106.979968 
L 243.590271 106.410249 
L 244.932154 105.590318 
L 245.826743 104.849291 
L 246.721333 103.899599 
L 247.615922 102.680955 
L 248.510511 101.116422 
L 249.4051 99.108736 
L 250.299689 96.536701 
L 251.194279 93.252655 
L 252.088868 89.082962 
L 252.983457 83.835445 
L 253.878046 77.321194 
L 254.772635 69.404149 
L 256.114519 55.016055 
L 257.903697 34.63832 
L 258.350992 30.723311 
L 258.798287 27.979869 
L 259.245581 26.815866 
L 259.692876 27.586437 
L 260.14017 30.496954 
L 260.587465 35.514355 
L 261.482054 50.336974 
L 262.823938 74.917154 
L 263.718527 87.221902 
L 264.613116 95.393781 
L 265.507705 100.429397 
L 265.955 102.130499 
L 265.955 102.130499 
" clip-path="url(#pcd821ad30c)" style="fill: none; stroke: #00cd6c; stroke-linecap: square"/>
   </g>
   <g id="line2d_16">
    <path d="M 42.755 75.2385 
L 43.649589 68.261048 
L 44.544178 63.131923 
L 44.991473 61.461291 
L 45.438768 60.363019 
L 45.886062 59.768185 
L 46.333357 59.592452 
L 46.780651 59.751311 
L 47.227946 60.168699 
L 48.122535 61.535043 
L 49.464419 64.293427 
L 54.384659 75.140289 
L 56.621132 79.393978 
L 58.857605 83.137399 
L 61.094078 86.411436 
L 63.330551 89.266405 
L 65.567024 91.751459 
L 67.803497 93.911349 
L 70.03997 95.785506 
L 72.276443 97.407783 
L 74.96021 99.061224 
L 77.643978 100.428662 
L 80.327745 101.529797 
L 82.564218 102.240211 
L 84.800691 102.731908 
L 86.58987 102.916636 
L 87.931754 102.878854 
L 89.273637 102.611696 
L 90.168226 102.243046 
L 91.062816 101.646746 
L 91.957405 100.716341 
L 92.851994 99.284389 
L 93.746583 97.09507 
L 94.641172 93.793191 
L 95.535762 88.999835 
L 96.430351 82.59752 
L 98.219529 68.226353 
L 99.114118 63.11004 
L 99.561413 61.446076 
L 100.008707 60.353856 
L 100.456002 59.764179 
L 100.903297 59.592638 
L 101.350591 59.754779 
L 101.797886 60.174665 
L 102.692475 61.544202 
L 104.034359 64.30458 
L 108.954599 75.150422 
L 111.191072 79.402939 
L 113.427545 83.145252 
L 115.664018 86.418292 
L 117.900491 89.272375 
L 120.136964 91.756651 
L 122.373437 93.915858 
L 124.60991 95.789413 
L 126.846383 97.411159 
L 129.53015 99.064034 
L 132.213918 100.430961 
L 134.897685 101.531601 
L 137.134158 102.241567 
L 139.370631 102.732704 
L 141.15981 102.916796 
L 142.501693 102.878311 
L 143.843577 102.610079 
L 144.738166 102.240356 
L 145.632756 101.642504 
L 146.527345 100.709795 
L 147.421934 99.27436 
L 148.316523 97.079816 
L 149.211112 93.770486 
L 150.105701 88.967887 
L 151.000291 82.557323 
L 152.789469 68.191175 
L 153.684058 63.08789 
L 154.131353 61.430694 
L 154.578647 60.344611 
L 155.025942 59.760163 
L 155.473236 59.592867 
L 155.920531 59.758334 
L 156.367826 60.180748 
L 157.262415 61.553517 
L 158.604299 64.315911 
L 163.524539 75.160711 
L 165.761012 79.412037 
L 167.997485 83.153226 
L 170.233958 86.425252 
L 172.470431 89.278438 
L 174.706904 91.761923 
L 176.943377 93.920436 
L 179.17985 95.793381 
L 181.416323 97.414587 
L 184.10009 99.066888 
L 186.783858 100.433296 
L 189.467625 101.533431 
L 191.704098 102.242942 
L 193.940571 102.733511 
L 195.729749 102.916957 
L 197.071633 102.877757 
L 198.413517 102.608433 
L 199.308106 102.237618 
L 200.202695 101.638186 
L 201.097285 100.703129 
L 201.991874 99.264152 
L 202.886463 97.064289 
L 203.781052 93.747382 
L 204.675641 88.935392 
L 205.57023 82.516465 
L 207.359409 68.155512 
L 208.253998 63.06548 
L 208.701293 61.415141 
L 209.148587 60.335276 
L 209.595882 59.756138 
L 210.043176 59.593144 
L 210.490471 59.761977 
L 210.937766 60.186951 
L 211.832355 61.562989 
L 213.174238 64.327422 
L 218.094479 75.171157 
L 220.330952 79.421276 
L 222.567425 83.161325 
L 224.803898 86.432319 
L 227.040371 89.284593 
L 229.276844 91.767274 
L 231.513317 93.925087 
L 233.74979 95.797407 
L 235.986263 97.418066 
L 238.67003 99.069785 
L 241.353798 100.435665 
L 244.037565 101.535289 
L 246.274038 102.244337 
L 248.510511 102.734326 
L 250.299689 102.917114 
L 251.641573 102.877188 
L 252.983457 102.606749 
L 253.878046 102.234827 
L 254.772635 101.633762 
L 255.667224 100.696326 
L 256.561814 99.253741 
L 257.456403 97.04846 
L 258.350992 93.723843 
L 259.245581 88.902273 
L 260.14017 82.474836 
L 261.929349 68.11932 
L 262.823938 63.042771 
L 263.271232 61.399398 
L 263.718527 60.325859 
L 264.165822 59.7521 
L 264.613116 59.593466 
L 265.060411 59.76571 
L 265.507705 60.193277 
L 265.955 60.812654 
L 265.955 60.812654 
" clip-path="url(#pcd821ad30c)" style="fill: none; stroke: #ff1f5b; stroke-linecap: square"/>
   </g>
   <g id="patch_3">
    <path d="M 42.755 108.5025 
L 42.755 25.3425 
" style="fill: none; stroke: #000000; stroke-width: 0.6; stroke-linejoin: miter; stroke-linecap: square"/>
   </g>
   <g id="patch_4">
    <path d="M 42.755 108.5025 
L 265.955 108.5025 
" style="fill: none; stroke: #000000; stroke-width: 0.6; stroke-linejoin: miter; stroke-linecap: square"/>
   </g>
   <g id="legend_1">
    <g id="line2d_17">
     <path d="M 116.915 13.67875 
L 124.315 13.67875 
L 131.715 13.67875 
" style="fill: none; stroke: #00cd6c; stroke-linecap: square"/>
    </g>
    <g id="text_17">
     <!-- prey -->
     <g transform="translate(138.115 16.47875)scale(0.08 -0.08)">
      <defs>
       <path id="DejaVuSans-72" d="M 2631 2963 
Q 2534 3019 2420 3045 
Q 2306 3072 2169 3072 
Q 1681 3072 1420 2755 
Q 1159 2438 1159 1844 
L 1159 0 
L 581 0 
L 581 3500 
L 1159 3500 
L 1159 2956 
Q 1341 3275 1631 3429 
Q 1922 3584 2338 3584 
Q 2397 3584 2469 3576 
Q 2541 3569 2628 3553 
L 2631 2963 
z
" transform="scale(0.015625)"/>
       <path id="DejaVuSans-65" d="M 3597 1894 
L 3597 1613 
L 953 1613 
Q 991 1019 1311 708 
Q 1631 397 2203 397 
Q 2534 397 2845 478 
Q 3156 559 3463 722 
L 3463 178 
Q 3153 47 2828 -22 
Q 2503 -91 2169 -91 
Q 1331 -91 842 396 
Q 353 884 353 1716 
Q 353 2575 817 3079 
Q 1281 3584 2069 3584 
Q 2775 3584 3186 3129 
Q 3597 2675 3597 1894 
z
M 3022 2063 
Q 3016 2534 2758 2815 
Q 2500 3097 2075 3097 
Q 1594 3097 1305 2825 
Q 1016 2553 972 2059 
L 3022 2063 
z
" transform="scale(0.015625)"/>
       <path id="DejaVuSans-79" d="M 2059 -325 
Q 1816 -950 1584 -1140 
Q 1353 -1331 966 -1331 
L 506 -1331 
L 506 -850 
L 844 -850 
Q 1081 -850 1212 -737 
Q 1344 -625 1503 -206 
L 1606 56 
L 191 3500 
L 800 3500 
L 1894 763 
L 2988 3500 
L 3597 3500 
L 2059 -325 
z
" transform="scale(0.015625)"/>
      </defs>
      <use xlink:href="#DejaVuSans-70"/>
      <use xlink:href="#DejaVuSans-72" x="63.476562"/>
      <use xlink:href="#DejaVuSans-65" x="102.339844"/>
      <use xlink:href="#DejaVuSans-79" x="163.863281"/>
     </g>
    </g>
    <g id="line2d_18">
     <path d="M 171.96 13.67875 
L 179.36 13.67875 
L 186.76 13.67875 
" style="fill: none; stroke: #ff1f5b; stroke-linecap: square"/>
    </g>
    <g id="text_18">
     <!-- predator -->
     <g transform="translate(193.16 16.47875)scale(0.08 -0.08)">
      <defs>
       <path id="DejaVuSans-64" d="M 2906 2969 
L 2906 4863 
L 3481 4863 
L 3481 0 
L 2906 0 
L 2906 525 
Q 2725 213 2448 61 
Q 2172 -91 1784 -91 
Q 1150 -91 751 415 
Q 353 922 353 1747 
Q 353 2572 751 3078 
Q 1150 3584 1784 3584 
Q 2172 3584 2448 3432 
Q 2725 3281 2906 2969 
z
M 947 1747 
Q 947 1113 1208 752 
Q 1469 391 1925 391 
Q 2381 391 2643 752 
Q 2906 1113 2906 1747 
Q 2906 2381 2643 2742 
Q 2381 3103 1925 3103 
Q 1469 3103 1208 2742 
Q 947 2381 947 1747 
z
" transform="scale(0.015625)"/>
      </defs>
      <use xlink:href="#DejaVuSans-70"/>
      <use xlink:href="#DejaVuSans-72" x="63.476562"/>
      <use xlink:href="#DejaVuSans-65" x="102.339844"/>
      <use xlink:href="#DejaVuSans-64" x="163.863281"/>
      <use xlink:href="#DejaVuSans-61" x="227.339844"/>
      <use xlink:href="#DejaVuSans-74" x="288.619141"/>
      <use xlink:href="#DejaVuSans-6f" x="327.828125"/>
      <use xlink:href="#DejaVuSans-72" x="389.009766"/>
     </g>
    </g>
   </g>
  </g>
 </g>
 <defs>
  <clipPath id="pcd821ad30c">
   <rect x="42.755" y="25.3425" width="223.2" height="83.16"/>
  </clipPath>
 </defs>
</svg>
