<?xml version="1.0" encoding="utf-8" standalone="no"?>
<!DOCTYPE svg PUBLIC "-//W3C//DTD SVG 1.1//EN"
  "http://www.w3.org/Graphics/SVG/1.1/DTD/svg11.dtd">
<svg xmlns:xlink="http://www.w3.org/1999/xlink" width="207.46625pt" height="164.892375pt" viewBox="0 0 207.46625 164.892375" xmlns="http://www.w3.org/2000/svg" version="1.1">
 <metadata>
  <rdf:RDF xmlns:dc="http://purl.org/dc/elements/1.1/" xmlns:cc="http://creativecommons.org/ns#" xmlns:rdf="http://www.w3.org/1999/02/22-rdf-syntax-ns#">
   <cc:Work>
    <dc:type rdf:resource="http://purl.org/dc/dcmitype/StillImage"/>
    <dc:format>image/svg+xml</dc:format>
    <dc:creator>
     <cc:Agent>
      <dc:title>Matplotlib v3.5.2, https://matplotlib.org/</dc:title>
     </cc:Agent>
    </dc:creator>
   </cc:Work>
  </rdf:RDF>
 </metadata>
 <defs>
  <style type="text/css">*{stroke-linejoin: round; stroke-linecap: butt}</style>
 </defs>
 <g id="figure_1">
  <g id="patch_1">
   <path d="M 0 164.892375 
L 207.46625 164.892375 
L 207.46625 0 
L 0 0 
L 0 164.892375 
z
" style="fill: none"/>
  </g>
  <g id="axes_1">
   <g id="patch_2">
    <path d="M 37.665 132.207375 
L 193.905 132.207375 
L 193.905 10.239375 
L 37.665 10.239375 
L 37.665 132.207375 
z
" style="fill: none"/>
   </g>
   <g id="matplotlib.axis_1">
    <g id="xtick_1">
     <g id="line2d_1">
      <defs>
       <path id="m4cd371f86f" d="M 0 0 
L 0 2.5 
" style="stroke: #000000; stroke-width: 0.6"/>
      </defs>
      <g>
       <use xlink:href="#m4cd371f86f" x="37.665" y="132.207375" style="stroke: #000000; stroke-width: 0.6"/>
      </g>
     </g>
     <g id="text_1">
      <!-- -1.0 -->
      <g transform="translate(29.860625 144.286125)scale(0.08 -0.08)">
       <defs>
        <path id="DejaVuSans-2d" d="M 313 2009 
L 1997 2009 
L 1997 1497 
L 313 1497 
L 313 2009 
z
" transform="scale(0.015625)"/>
        <path id="DejaVuSans-31" d="M 794 531 
L 1825 531 
L 1825 4091 
L 703 3866 
L 703 4441 
L 1819 4666 
L 2450 4666 
L 2450 531 
L 3481 531 
L 3481 0 
L 794 0 
L 794 531 
z
" transform="scale(0.015625)"/>
        <path id="DejaVuSans-2e" d="M 684 794 
L 1344 794 
L 1344 0 
L 684 0 
L 684 794 
z
" transform="scale(0.015625)"/>
        <path id="DejaVuSans-30" d="M 2034 4250 
Q 1547 4250 1301 3770 
Q 1056 3291 1056 2328 
Q 1056 1369 1301 889 
Q 1547 409 2034 409 
Q 2525 409 2770 889 
Q 3016 1369 3016 2328 
Q 3016 3291 2770 3770 
Q 2525 4250 2034 4250 
z
M 2034 4750 
Q 2819 4750 3233 4129 
Q 3647 3509 3647 2328 
Q 3647 1150 3233 529 
Q 2819 -91 2034 -91 
Q 1250 -91 836 529 
Q 422 1150 422 2328 
Q 422 3509 836 4129 
Q 1250 4750 2034 4750 
z
" transform="scale(0.015625)"/>
       </defs>
       <use xlink:href="#DejaVuSans-2d"/>
       <use xlink:href="#DejaVuSans-31" x="36.083984"/>
       <use xlink:href="#DejaVuSans-2e" x="99.707031"/>
       <use xlink:href="#DejaVuSans-30" x="131.494141"/>
      </g>
     </g>
    </g>
    <g id="xtick_2">
     <g id="line2d_2">
      <g>
       <use xlink:href="#m4cd371f86f" x="76.725" y="132.207375" style="stroke: #000000; stroke-width: 0.6"/>
      </g>
     </g>
     <g id="text_2">
      <!-- -0.5 -->
      <g transform="translate(68.920625 144.286125)scale(0.08 -0.08)">
       <defs>
        <path id="DejaVuSans-35" d="M 691 4666 
L 3169 4666 
L 3169 4134 
L 1269 4134 
L 1269 2991 
Q 1406 3038 1543 3061 
Q 1681 3084 1819 3084 
Q 2600 3084 3056 2656 
Q 3513 2228 3513 1497 
Q 3513 744 3044 326 
Q 2575 -91 1722 -91 
Q 1428 -91 1123 -41 
Q 819 9 494 109 
L 494 744 
Q 775 591 1075 516 
Q 1375 441 1709 441 
Q 2250 441 2565 725 
Q 2881 1009 2881 1497 
Q 2881 1984 2565 2268 
Q 2250 2553 1709 2553 
Q 1456 2553 1204 2497 
Q 953 2441 691 2322 
L 691 4666 
z
" transform="scale(0.015625)"/>
       </defs>
       <use xlink:href="#DejaVuSans-2d"/>
       <use xlink:href="#DejaVuSans-30" x="36.083984"/>
       <use xlink:href="#DejaVuSans-2e" x="99.707031"/>
       <use xlink:href="#DejaVuSans-35" x="131.494141"/>
      </g>
     </g>
    </g>
    <g id="xtick_3">
     <g id="line2d_3">
      <g>
       <use xlink:href="#m4cd371f86f" x="115.785" y="132.207375" style="stroke: #000000; stroke-width: 0.6"/>
      </g>
     </g>
     <g id="text_3">
      <!-- 0.0 -->
      <g transform="translate(109.42375 144.286125)scale(0.08 -0.08)">
       <use xlink:href="#DejaVuSans-30"/>
       <use xlink:href="#DejaVuSans-2e" x="63.623047"/>
       <use xlink:href="#DejaVuSans-30" x="95.410156"/>
      </g>
     </g>
    </g>
    <g id="xtick_4">
     <g id="line2d_4">
      <g>
       <use xlink:href="#m4cd371f86f" x="154.845" y="132.207375" style="stroke: #000000; stroke-width: 0.6"/>
      </g>
     </g>
     <g id="text_4">
      <!-- 0.5 -->
      <g transform="translate(148.48375 144.286125)scale(0.08 -0.08)">
       <use xlink:href="#DejaVuSans-30"/>
       <use xlink:href="#DejaVuSans-2e" x="63.623047"/>
       <use xlink:href="#DejaVuSans-35" x="95.410156"/>
      </g>
     </g>
    </g>
    <g id="xtick_5">
     <g id="line2d_5">
      <g>
       <use xlink:href="#m4cd371f86f" x="193.905" y="132.207375" style="stroke: #000000; stroke-width: 0.6"/>
      </g>
     </g>
     <g id="text_5">
      <!-- 1.0 -->
      <g transform="translate(187.54375 144.286125)scale(0.08 -0.08)">
       <use xlink:href="#DejaVuSans-31"/>
       <use xlink:href="#DejaVuSans-2e" x="63.623047"/>
       <use xlink:href="#DejaVuSans-30" x="95.410156"/>
      </g>
     </g>
    </g>
    <g id="text_6">
     <!-- x -->
     <g transform="translate(113.4175 156.028625)scale(0.08 -0.08)">
      <defs>
       <path id="DejaVuSans-78" d="M 3513 3500 
L 2247 1797 
L 3578 0 
L 2900 0 
L 1881 1375 
L 863 0 
L 184 0 
L 1544 1831 
L 300 3500 
L 978 3500 
L 1906 2253 
L 2834 3500 
L 3513 3500 
z
" transform="scale(0.015625)"/>
      </defs>
      <use xlink:href="#DejaVuSans-78"/>
     </g>
    </g>
   </g>
   <g id="matplotlib.axis_2">
    <g id="ytick_1">
     <g id="line2d_6">
      <defs>
       <path id="m56f3a9ced1" d="M 0 0 
L -2.5 0 
" style="stroke: #000000; stroke-width: 0.6"/>
      </defs>
      <g>
       <use xlink:href="#m56f3a9ced1" x="37.665" y="132.207375" style="stroke: #000000; stroke-width: 0.6"/>
      </g>
     </g>
     <g id="text_7">
      <!-- 0.0 -->
      <g transform="translate(18.9425 135.24675)scale(0.08 -0.08)">
       <use xlink:href="#DejaVuSans-30"/>
       <use xlink:href="#DejaVuSans-2e" x="63.623047"/>
       <use xlink:href="#DejaVuSans-30" x="95.410156"/>
      </g>
     </g>
    </g>
    <g id="ytick_2">
     <g id="line2d_7">
      <g>
       <use xlink:href="#m56f3a9ced1" x="37.665" y="101.715375" style="stroke: #000000; stroke-width: 0.6"/>
      </g>
     </g>
     <g id="text_8">
      <!-- 0.5 -->
      <g transform="translate(18.9425 104.75475)scale(0.08 -0.08)">
       <use xlink:href="#DejaVuSans-30"/>
       <use xlink:href="#DejaVuSans-2e" x="63.623047"/>
       <use xlink:href="#DejaVuSans-35" x="95.410156"/>
      </g>
     </g>
    </g>
    <g id="ytick_3">
     <g id="line2d_8">
      <g>
       <use xlink:href="#m56f3a9ced1" x="37.665" y="71.223375" style="stroke: #000000; stroke-width: 0.6"/>
      </g>
     </g>
     <g id="text_9">
      <!-- 1.0 -->
      <g transform="translate(18.9425 74.26275)scale(0.08 -0.08)">
       <use xlink:href="#DejaVuSans-31"/>
       <use xlink:href="#DejaVuSans-2e" x="63.623047"/>
       <use xlink:href="#DejaVuSans-30" x="95.410156"/>
      </g>
     </g>
    </g>
    <g id="ytick_4">
     <g id="line2d_9">
      <g>
       <use xlink:href="#m56f3a9ced1" x="37.665" y="40.731375" style="stroke: #000000; stroke-width: 0.6"/>
      </g>
     </g>
     <g id="text_10">
      <!-- 1.5 -->
      <g transform="translate(18.9425 43.77075)scale(0.08 -0.08)">
       <use xlink:href="#DejaVuSans-31"/>
       <use xlink:href="#DejaVuSans-2e" x="63.623047"/>
       <use xlink:href="#DejaVuSans-35" x="95.410156"/>
      </g>
     </g>
    </g>
    <g id="ytick_5">
     <g id="line2d_10">
      <g>
       <use xlink:href="#m56f3a9ced1" x="37.665" y="10.239375" style="stroke: #000000; stroke-width: 0.6"/>
      </g>
     </g>
     <g id="text_11">
      <!-- 2.0 -->
      <g transform="translate(18.9425 13.27875)scale(0.08 -0.08)">
       <defs>
        <path id="DejaVuSans-32" d="M 1228 531 
L 3431 531 
L 3431 0 
L 469 0 
L 469 531 
Q 828 903 1448 1529 
Q 2069 2156 2228 2338 
Q 2531 2678 2651 2914 
Q 2772 3150 2772 3378 
Q 2772 3750 2511 3984 
Q 2250 4219 1831 4219 
Q 1534 4219 1204 4116 
Q 875 4013 500 3803 
L 500 4441 
Q 881 4594 1212 4672 
Q 1544 4750 1819 4750 
Q 2544 4750 2975 4387 
Q 3406 4025 3406 3419 
Q 3406 3131 3298 2873 
Q 3191 2616 2906 2266 
Q 2828 2175 2409 1742 
Q 1991 1309 1228 531 
z
" transform="scale(0.015625)"/>
       </defs>
       <use xlink:href="#DejaVuSans-32"/>
       <use xlink:href="#DejaVuSans-2e" x="63.623047"/>
       <use xlink:href="#DejaVuSans-30" x="95.410156"/>
      </g>
     </g>
    </g>
    <g id="text_12">
     <!-- y -->
     <g transform="translate(13.27875 73.590875)rotate(-90)scale(0.08 -0.08)">
      <defs>
       <path id="DejaVuSans-79" d="M 2059 -325 
Q 1816 -950 1584 -1140 
Q 1353 -1331 966 -1331 
L 506 -1331 
L 506 -850 
L 844 -850 
Q 1081 -850 1212 -737 
Q 1344 -625 1503 -206 
L 1606 56 
L 191 3500 
L 800 3500 
L 1894 763 
L 2988 3500 
L 3597 3500 
L 2059 -325 
z
" transform="scale(0.015625)"/>
      </defs>
      <use xlink:href="#DejaVuSans-79"/>
     </g>
    </g>
   </g>
   <g id="line2d_11">
    <path d="M 37.665 70.596019 
L 42.987806 67.089345 
L 47.371293 64.473685 
L 51.128567 62.474304 
L 54.885842 60.724092 
L 58.33001 59.351802 
L 61.774178 58.209061 
L 65.218347 57.30005 
L 68.662515 56.626901 
L 72.106683 56.19051 
L 75.550852 55.991151 
L 78.99502 56.028868 
L 82.439188 56.303656 
L 85.883357 56.815429 
L 89.327525 57.563767 
L 92.771693 58.547457 
L 96.215862 59.763814 
L 99.66003 61.207799 
L 103.417305 63.032588 
L 107.174579 65.100642 
L 111.558066 67.785176 
L 116.567766 71.134618 
L 131.596864 81.414886 
L 134.727926 83.187496 
L 137.545882 84.530886 
L 140.050731 85.471154 
L 142.242475 86.060053 
L 144.434218 86.398193 
L 146.312856 86.46538 
L 148.191493 86.307678 
L 150.07013 85.907985 
L 151.948768 85.250873 
L 153.827405 84.323091 
L 155.706042 83.114092 
L 157.584679 81.616583 
L 159.463317 79.827089 
L 161.341954 77.746512 
L 163.533697 74.959336 
L 165.725441 71.802743 
L 168.230291 67.781418 
L 171.048246 62.80683 
L 174.492415 56.254028 
L 183.259389 39.320308 
L 185.764238 35.084315 
L 187.642876 32.277209 
L 189.521513 29.867571 
L 191.087044 28.213334 
L 192.652575 26.920896 
L 193.905 26.170527 
L 193.905 26.170527 
" clip-path="url(#p385df18e8d)" style="fill: none; stroke: #ff1f5b; stroke-linecap: square"/>
   </g>
   <g id="line2d_12">
    <path d="M 37.665 62.697743 
L 37.982561 62.697743 
L 38.300122 62.697743 
L 38.617683 62.697743 
L 38.935244 62.697743 
L 39.252805 62.697743 
L 39.570366 62.697743 
L 39.887927 62.697743 
L 40.205488 62.697743 
L 40.523049 62.697743 
L 40.84061 62.697743 
L 41.158171 62.697743 
L 41.475732 62.697743 
L 41.793293 62.697743 
L 42.110854 62.697743 
L 42.428415 62.697743 
L 42.745976 62.697743 
L 43.063537 62.697743 
L 43.381098 62.697743 
L 43.698659 62.697743 
L 44.01622 62.697743 
L 44.33378 62.697743 
L 44.651341 62.697743 
L 44.968902 62.697743 
L 45.286463 62.697743 
L 45.604024 62.697743 
L 45.921585 62.697743 
L 46.239146 62.697743 
L 46.556707 62.697743 
L 46.874268 62.697743 
L 47.191829 62.697743 
L 47.50939 62.697743 
L 47.826951 62.697743 
L 48.144512 62.697743 
L 48.462073 62.697743 
L 48.779634 62.697743 
L 49.097195 62.697743 
L 49.414756 62.697743 
L 49.732317 62.697743 
L 50.049878 62.697743 
L 50.367439 62.697743 
L 50.685 62.697743 
L 51.002561 62.697743 
L 51.320122 62.697743 
L 51.637683 62.697743 
L 51.955244 62.697743 
L 52.272805 62.697743 
L 52.590366 62.697743 
L 52.907927 62.697743 
L 53.225488 62.697743 
L 53.543049 62.697743 
L 53.86061 62.697743 
L 54.178171 62.697743 
L 54.495732 62.697743 
L 54.813293 62.697743 
L 55.130854 62.697743 
L 55.448415 62.697743 
L 55.765976 62.697743 
L 56.083537 62.697743 
L 56.401098 62.697743 
L 56.718659 62.697743 
L 57.03622 62.697743 
L 57.35378 62.697743 
L 57.671341 62.697743 
L 57.988902 62.697743 
L 58.306463 62.697743 
L 58.624024 62.697743 
L 58.941585 62.697743 
L 59.259146 62.697743 
L 59.576707 62.697743 
L 59.894268 62.697743 
L 60.211829 62.697743 
L 60.52939 62.697743 
L 60.846951 62.697743 
L 61.164512 62.697743 
L 61.482073 62.697743 
L 61.799634 62.697743 
L 62.117195 62.697743 
L 62.434756 62.697743 
L 62.752317 62.697743 
L 63.069878 62.697743 
L 63.387439 62.697743 
L 63.705 62.697743 
" clip-path="url(#p385df18e8d)" style="fill: none; stroke: #009ade; stroke-linecap: square"/>
   </g>
   <g id="line2d_13">
    <path d="M 37.665 132.207375 
L 37.665 62.697743 
" clip-path="url(#p385df18e8d)" style="fill: none; stroke: #009ade; stroke-linecap: square"/>
   </g>
   <g id="line2d_14">
    <path d="M 63.705 132.207375 
L 63.705 62.697743 
" style="fill: none; stroke: #009ade; stroke-linecap: square"/>
   </g>
   <g id="line2d_15">
    <path d="M 63.705 55.977375 
L 64.022561 55.977375 
L 64.340122 55.977375 
L 64.657683 55.977375 
L 64.975244 55.977375 
L 65.292805 55.977375 
L 65.610366 55.977375 
L 65.927927 55.977375 
L 66.245488 55.977375 
L 66.563049 55.977375 
L 66.88061 55.977375 
L 67.198171 55.977375 
L 67.515732 55.977375 
L 67.833293 55.977375 
L 68.150854 55.977375 
L 68.468415 55.977375 
L 68.785976 55.977375 
L 69.103537 55.977375 
L 69.421098 55.977375 
L 69.738659 55.977375 
L 70.05622 55.977375 
L 70.37378 55.977375 
L 70.691341 55.977375 
L 71.008902 55.977375 
L 71.326463 55.977375 
L 71.644024 55.977375 
L 71.961585 55.977375 
L 72.279146 55.977375 
L 72.596707 55.977375 
L 72.914268 55.977375 
L 73.231829 55.977375 
L 73.54939 55.977375 
L 73.866951 55.977375 
L 74.184512 55.977375 
L 74.502073 55.977375 
L 74.819634 55.977375 
L 75.137195 55.977375 
L 75.454756 55.977375 
L 75.772317 55.977375 
L 76.089878 55.977375 
L 76.407439 55.977375 
L 76.725 55.977375 
L 77.042561 55.977375 
L 77.360122 55.977375 
L 77.677683 55.977375 
L 77.995244 55.977375 
L 78.312805 55.977375 
L 78.630366 55.977375 
L 78.947927 55.977375 
L 79.265488 55.977375 
L 79.583049 55.977375 
L 79.90061 55.977375 
L 80.218171 55.977375 
L 80.535732 55.977375 
L 80.853293 55.977375 
L 81.170854 55.977375 
L 81.488415 55.977375 
L 81.805976 55.977375 
L 82.123537 55.977375 
L 82.441098 55.977375 
L 82.758659 55.977375 
L 83.07622 55.977375 
L 83.39378 55.977375 
L 83.711341 55.977375 
L 84.028902 55.977375 
L 84.346463 55.977375 
L 84.664024 55.977375 
L 84.981585 55.977375 
L 85.299146 55.977375 
L 85.616707 55.977375 
L 85.934268 55.977375 
L 86.251829 55.977375 
L 86.56939 55.977375 
L 86.886951 55.977375 
L 87.204512 55.977375 
L 87.522073 55.977375 
L 87.839634 55.977375 
L 88.157195 55.977375 
L 88.474756 55.977375 
L 88.792317 55.977375 
L 89.109878 55.977375 
L 89.427439 55.977375 
L 89.745 55.977375 
" clip-path="url(#p385df18e8d)" style="fill: none; stroke: #009ade; stroke-linecap: square"/>
   </g>
   <g id="line2d_16">
    <path d="M 63.705 132.207375 
L 63.705 55.977375 
" clip-path="url(#p385df18e8d)" style="fill: none; stroke: #009ade; stroke-linecap: square"/>
   </g>
   <g id="line2d_17">
    <path d="M 89.745 132.207375 
L 89.745 55.977375 
" style="fill: none; stroke: #009ade; stroke-linecap: square"/>
   </g>
   <g id="line2d_18">
    <path d="M 89.745 62.697743 
L 90.062561 62.697743 
L 90.380122 62.697743 
L 90.697683 62.697743 
L 91.015244 62.697743 
L 91.332805 62.697743 
L 91.650366 62.697743 
L 91.967927 62.697743 
L 92.285488 62.697743 
L 92.603049 62.697743 
L 92.92061 62.697743 
L 93.238171 62.697743 
L 93.555732 62.697743 
L 93.873293 62.697743 
L 94.190854 62.697743 
L 94.508415 62.697743 
L 94.825976 62.697743 
L 95.143537 62.697743 
L 95.461098 62.697743 
L 95.778659 62.697743 
L 96.09622 62.697743 
L 96.41378 62.697743 
L 96.731341 62.697743 
L 97.048902 62.697743 
L 97.366463 62.697743 
L 97.684024 62.697743 
L 98.001585 62.697743 
L 98.319146 62.697743 
L 98.636707 62.697743 
L 98.954268 62.697743 
L 99.271829 62.697743 
L 99.58939 62.697743 
L 99.906951 62.697743 
L 100.224512 62.697743 
L 100.542073 62.697743 
L 100.859634 62.697743 
L 101.177195 62.697743 
L 101.494756 62.697743 
L 101.812317 62.697743 
L 102.129878 62.697743 
L 102.447439 62.697743 
L 102.765 62.697743 
L 103.082561 62.697743 
L 103.400122 62.697743 
L 103.717683 62.697743 
L 104.035244 62.697743 
L 104.352805 62.697743 
L 104.670366 62.697743 
L 104.987927 62.697743 
L 105.305488 62.697743 
L 105.623049 62.697743 
L 105.94061 62.697743 
L 106.258171 62.697743 
L 106.575732 62.697743 
L 106.893293 62.697743 
L 107.210854 62.697743 
L 107.528415 62.697743 
L 107.845976 62.697743 
L 108.163537 62.697743 
L 108.481098 62.697743 
L 108.798659 62.697743 
L 109.11622 62.697743 
L 109.43378 62.697743 
L 109.751341 62.697743 
L 110.068902 62.697743 
L 110.386463 62.697743 
L 110.704024 62.697743 
L 111.021585 62.697743 
L 111.339146 62.697743 
L 111.656707 62.697743 
L 111.974268 62.697743 
L 112.291829 62.697743 
L 112.60939 62.697743 
L 112.926951 62.697743 
L 113.244512 62.697743 
L 113.562073 62.697743 
L 113.879634 62.697743 
L 114.197195 62.697743 
L 114.514756 62.697743 
L 114.832317 62.697743 
L 115.149878 62.697743 
L 115.467439 62.697743 
L 115.785 62.697743 
" clip-path="url(#p385df18e8d)" style="fill: none; stroke: #009ade; stroke-linecap: square"/>
   </g>
   <g id="line2d_19">
    <path d="M 89.745 132.207375 
L 89.745 62.697743 
" clip-path="url(#p385df18e8d)" style="fill: none; stroke: #009ade; stroke-linecap: square"/>
   </g>
   <g id="line2d_20">
    <path d="M 115.785 132.207375 
L 115.785 62.697743 
" style="fill: none; stroke: #009ade; stroke-linecap: square"/>
   </g>
   <g id="line2d_21">
    <path d="M 115.785 79.650508 
L 116.102561 79.650508 
L 116.420122 79.650508 
L 116.737683 79.650508 
L 117.055244 79.650508 
L 117.372805 79.650508 
L 117.690366 79.650508 
L 118.007927 79.650508 
L 118.325488 79.650508 
L 118.643049 79.650508 
L 118.96061 79.650508 
L 119.278171 79.650508 
L 119.595732 79.650508 
L 119.913293 79.650508 
L 120.230854 79.650508 
L 120.548415 79.650508 
L 120.865976 79.650508 
L 121.183537 79.650508 
L 121.501098 79.650508 
L 121.818659 79.650508 
L 122.13622 79.650508 
L 122.45378 79.650508 
L 122.771341 79.650508 
L 123.088902 79.650508 
L 123.406463 79.650508 
L 123.724024 79.650508 
L 124.041585 79.650508 
L 124.359146 79.650508 
L 124.676707 79.650508 
L 124.994268 79.650508 
L 125.311829 79.650508 
L 125.62939 79.650508 
L 125.946951 79.650508 
L 126.264512 79.650508 
L 126.582073 79.650508 
L 126.899634 79.650508 
L 127.217195 79.650508 
L 127.534756 79.650508 
L 127.852317 79.650508 
L 128.169878 79.650508 
L 128.487439 79.650508 
L 128.805 79.650508 
L 129.122561 79.650508 
L 129.440122 79.650508 
L 129.757683 79.650508 
L 130.075244 79.650508 
L 130.392805 79.650508 
L 130.710366 79.650508 
L 131.027927 79.650508 
L 131.345488 79.650508 
L 131.663049 79.650508 
L 131.98061 79.650508 
L 132.298171 79.650508 
L 132.615732 79.650508 
L 132.933293 79.650508 
L 133.250854 79.650508 
L 133.568415 79.650508 
L 133.885976 79.650508 
L 134.203537 79.650508 
L 134.521098 79.650508 
L 134.838659 79.650508 
L 135.15622 79.650508 
L 135.47378 79.650508 
L 135.791341 79.650508 
L 136.108902 79.650508 
L 136.426463 79.650508 
L 136.744024 79.650508 
L 137.061585 79.650508 
L 137.379146 79.650508 
L 137.696707 79.650508 
L 138.014268 79.650508 
L 138.331829 79.650508 
L 138.64939 79.650508 
L 138.966951 79.650508 
L 139.284512 79.650508 
L 139.602073 79.650508 
L 139.919634 79.650508 
L 140.237195 79.650508 
L 140.554756 79.650508 
L 140.872317 79.650508 
L 141.189878 79.650508 
L 141.507439 79.650508 
L 141.825 79.650508 
" clip-path="url(#p385df18e8d)" style="fill: none; stroke: #009ade; stroke-linecap: square"/>
   </g>
   <g id="line2d_22">
    <path d="M 115.785 132.207375 
L 115.785 79.650508 
" clip-path="url(#p385df18e8d)" style="fill: none; stroke: #009ade; stroke-linecap: square"/>
   </g>
   <g id="line2d_23">
    <path d="M 141.825 132.207375 
L 141.825 79.650508 
" style="fill: none; stroke: #009ade; stroke-linecap: square"/>
   </g>
   <g id="line2d_24">
    <path d="M 141.825 83.703672 
L 142.142561 83.703672 
L 142.460122 83.703672 
L 142.777683 83.703672 
L 143.095244 83.703672 
L 143.412805 83.703672 
L 143.730366 83.703672 
L 144.047927 83.703672 
L 144.365488 83.703672 
L 144.683049 83.703672 
L 145.00061 83.703672 
L 145.318171 83.703672 
L 145.635732 83.703672 
L 145.953293 83.703672 
L 146.270854 83.703672 
L 146.588415 83.703672 
L 146.905976 83.703672 
L 147.223537 83.703672 
L 147.541098 83.703672 
L 147.858659 83.703672 
L 148.17622 83.703672 
L 148.49378 83.703672 
L 148.811341 83.703672 
L 149.128902 83.703672 
L 149.446463 83.703672 
L 149.764024 83.703672 
L 150.081585 83.703672 
L 150.399146 83.703672 
L 150.716707 83.703672 
L 151.034268 83.703672 
L 151.351829 83.703672 
L 151.66939 83.703672 
L 151.986951 83.703672 
L 152.304512 83.703672 
L 152.622073 83.703672 
L 152.939634 83.703672 
L 153.257195 83.703672 
L 153.574756 83.703672 
L 153.892317 83.703672 
L 154.209878 83.703672 
L 154.527439 83.703672 
L 154.845 83.703672 
L 155.162561 83.703672 
L 155.480122 83.703672 
L 155.797683 83.703672 
L 156.115244 83.703672 
L 156.432805 83.703672 
L 156.750366 83.703672 
L 157.067927 83.703672 
L 157.385488 83.703672 
L 157.703049 83.703672 
L 158.02061 83.703672 
L 158.338171 83.703672 
L 158.655732 83.703672 
L 158.973293 83.703672 
L 159.290854 83.703672 
L 159.608415 83.703672 
L 159.925976 83.703672 
L 160.243537 83.703672 
L 160.561098 83.703672 
L 160.878659 83.703672 
L 161.19622 83.703672 
L 161.51378 83.703672 
L 161.831341 83.703672 
L 162.148902 83.703672 
L 162.466463 83.703672 
L 162.784024 83.703672 
L 163.101585 83.703672 
L 163.419146 83.703672 
L 163.736707 83.703672 
L 164.054268 83.703672 
L 164.371829 83.703672 
L 164.68939 83.703672 
L 165.006951 83.703672 
L 165.324512 83.703672 
L 165.642073 83.703672 
L 165.959634 83.703672 
L 166.277195 83.703672 
L 166.594756 83.703672 
L 166.912317 83.703672 
L 167.229878 83.703672 
L 167.547439 83.703672 
L 167.865 83.703672 
" clip-path="url(#p385df18e8d)" style="fill: none; stroke: #009ade; stroke-linecap: square"/>
   </g>
   <g id="line2d_25">
    <path d="M 141.825 132.207375 
L 141.825 83.703672 
" clip-path="url(#p385df18e8d)" style="fill: none; stroke: #009ade; stroke-linecap: square"/>
   </g>
   <g id="line2d_26">
    <path d="M 167.865 132.207375 
L 167.865 83.703672 
" style="fill: none; stroke: #009ade; stroke-linecap: square"/>
   </g>
   <g id="line2d_27">
    <path d="M 167.865 43.712253 
L 168.182561 43.712253 
L 168.500122 43.712253 
L 168.817683 43.712253 
L 169.135244 43.712253 
L 169.452805 43.712253 
L 169.770366 43.712253 
L 170.087927 43.712253 
L 170.405488 43.712253 
L 170.723049 43.712253 
L 171.04061 43.712253 
L 171.358171 43.712253 
L 171.675732 43.712253 
L 171.993293 43.712253 
L 172.310854 43.712253 
L 172.628415 43.712253 
L 172.945976 43.712253 
L 173.263537 43.712253 
L 173.581098 43.712253 
L 173.898659 43.712253 
L 174.21622 43.712253 
L 174.53378 43.712253 
L 174.851341 43.712253 
L 175.168902 43.712253 
L 175.486463 43.712253 
L 175.804024 43.712253 
L 176.121585 43.712253 
L 176.439146 43.712253 
L 176.756707 43.712253 
L 177.074268 43.712253 
L 177.391829 43.712253 
L 177.70939 43.712253 
L 178.026951 43.712253 
L 178.344512 43.712253 
L 178.662073 43.712253 
L 178.979634 43.712253 
L 179.297195 43.712253 
L 179.614756 43.712253 
L 179.932317 43.712253 
L 180.249878 43.712253 
L 180.567439 43.712253 
L 180.885 43.712253 
L 181.202561 43.712253 
L 181.520122 43.712253 
L 181.837683 43.712253 
L 182.155244 43.712253 
L 182.472805 43.712253 
L 182.790366 43.712253 
L 183.107927 43.712253 
L 183.425488 43.712253 
L 183.743049 43.712253 
L 184.06061 43.712253 
L 184.378171 43.712253 
L 184.695732 43.712253 
L 185.013293 43.712253 
L 185.330854 43.712253 
L 185.648415 43.712253 
L 185.965976 43.712253 
L 186.283537 43.712253 
L 186.601098 43.712253 
L 186.918659 43.712253 
L 187.23622 43.712253 
L 187.55378 43.712253 
L 187.871341 43.712253 
L 188.188902 43.712253 
L 188.506463 43.712253 
L 188.824024 43.712253 
L 189.141585 43.712253 
L 189.459146 43.712253 
L 189.776707 43.712253 
L 190.094268 43.712253 
L 190.411829 43.712253 
L 190.72939 43.712253 
L 191.046951 43.712253 
L 191.364512 43.712253 
L 191.682073 43.712253 
L 191.999634 43.712253 
L 192.317195 43.712253 
L 192.634756 43.712253 
L 192.952317 43.712253 
L 193.269878 43.712253 
L 193.587439 43.712253 
L 193.905 43.712253 
" clip-path="url(#p385df18e8d)" style="fill: none; stroke: #009ade; stroke-linecap: square"/>
   </g>
   <g id="line2d_28">
    <path d="M 167.865 132.207375 
L 167.865 43.712253 
" clip-path="url(#p385df18e8d)" style="fill: none; stroke: #009ade; stroke-linecap: square"/>
   </g>
   <g id="line2d_29">
    <path d="M 193.905 132.207375 
L 193.905 43.712253 
" style="fill: none; stroke: #009ade; stroke-linecap: square"/>
   </g>
   <g id="patch_3">
    <path d="M 37.665 132.207375 
L 37.665 10.239375 
" style="fill: none; stroke: #000000; stroke-width: 0.6; stroke-linejoin: miter; stroke-linecap: square"/>
   </g>
   <g id="patch_4">
    <path d="M 37.665 132.207375 
L 193.905 132.207375 
" style="fill: none; stroke: #000000; stroke-width: 0.6; stroke-linejoin: miter; stroke-linecap: square"/>
   </g>
   <g id="PathCollection_1">
    <defs>
     <path id="mfc9ce253cb" d="M 0 1 
C 0.265203 1 0.51958 0.894634 0.707107 0.707107 
C 0.894634 0.51958 1 0.265203 1 0 
C 1 -0.265203 0.894634 -0.51958 0.707107 -0.707107 
C 0.51958 -0.894634 0.265203 -1 0 -1 
C -0.265203 -1 -0.51958 -0.894634 -0.707107 -0.707107 
C -0.894634 -0.51958 -1 -0.265203 -1 0 
C -1 0.265203 -0.894634 0.51958 -0.707107 0.707107 
C -0.51958 0.894634 -0.265203 1 0 1 
z
" style="stroke: #000000"/>
    </defs>
    <g clip-path="url(#p385df18e8d)">
     <use xlink:href="#mfc9ce253cb" x="50.685" y="62.697743" style="stroke: #000000"/>
    </g>
   </g>
   <g id="PathCollection_2">
    <g clip-path="url(#p385df18e8d)">
     <use xlink:href="#mfc9ce253cb" x="76.725" y="55.977375" style="stroke: #000000"/>
    </g>
   </g>
   <g id="PathCollection_3">
    <g clip-path="url(#p385df18e8d)">
     <use xlink:href="#mfc9ce253cb" x="102.765" y="62.697743" style="stroke: #000000"/>
    </g>
   </g>
   <g id="PathCollection_4">
    <g clip-path="url(#p385df18e8d)">
     <use xlink:href="#mfc9ce253cb" x="128.805" y="79.650508" style="stroke: #000000"/>
    </g>
   </g>
   <g id="PathCollection_5">
    <g clip-path="url(#p385df18e8d)">
     <use xlink:href="#mfc9ce253cb" x="154.845" y="83.703672" style="stroke: #000000"/>
    </g>
   </g>
   <g id="PathCollection_6">
    <g clip-path="url(#p385df18e8d)">
     <use xlink:href="#mfc9ce253cb" x="180.885" y="43.712253" style="stroke: #000000"/>
    </g>
   </g>
  </g>
 </g>
 <defs>
  <clipPath id="p385df18e8d">
   <rect x="37.665" y="10.239375" width="156.24" height="121.968"/>
  </clipPath>
 </defs>
</svg>
