<?xml version="1.0" encoding="utf-8" standalone="no"?>
<!DOCTYPE svg PUBLIC "-//W3C//DTD SVG 1.1//EN"
  "http://www.w3.org/Graphics/SVG/1.1/DTD/svg11.dtd">
<svg xmlns:xlink="http://www.w3.org/1999/xlink" width="153.54375pt" height="153.804375pt" viewBox="0 0 153.54375 153.804375" xmlns="http://www.w3.org/2000/svg" version="1.1">
 <metadata>
  <rdf:RDF xmlns:dc="http://purl.org/dc/elements/1.1/" xmlns:cc="http://creativecommons.org/ns#" xmlns:rdf="http://www.w3.org/1999/02/22-rdf-syntax-ns#">
   <cc:Work>
    <dc:type rdf:resource="http://purl.org/dc/dcmitype/StillImage"/>
    <dc:format>image/svg+xml</dc:format>
    <dc:creator>
     <cc:Agent>
      <dc:title>Matplotlib v3.5.2, https://matplotlib.org/</dc:title>
     </cc:Agent>
    </dc:creator>
   </cc:Work>
  </rdf:RDF>
 </metadata>
 <defs>
  <style type="text/css">*{stroke-linejoin: round; stroke-linecap: butt}</style>
 </defs>
 <g id="figure_1">
  <g id="patch_1">
   <path d="M 0 153.804375 
L 153.54375 153.804375 
L 153.54375 0 
L 0 0 
L 0 153.804375 
z
" style="fill: none"/>
  </g>
  <g id="axes_1">
   <g id="patch_2">
    <path d="M 32.91875 121.119375 
L 143.79875 121.119375 
L 143.79875 10.239375 
L 32.91875 10.239375 
L 32.91875 121.119375 
z
" style="fill: none"/>
   </g>
   <g id="line2d_1">
    <path d="M 88.35875 121.119375 
L 88.35875 10.239375 
" clip-path="url(#p657be4ca39)" style="fill: none; stroke: #000000; stroke-width: 0.5; stroke-linecap: square"/>
   </g>
   <g id="line2d_2">
    <path d="M 32.91875 65.679375 
L 143.79875 65.679375 
" clip-path="url(#p657be4ca39)" style="fill: none; stroke: #000000; stroke-width: 0.5; stroke-linecap: square"/>
   </g>
   <g id="PathCollection_1">
    <path d="M 67.582638 84.016175 
L 67.804842 84.042633 
L 68.027047 84.066368 
L 68.249251 84.087391 
L 68.471455 84.105711 
L 68.69366 84.121336 
L 68.915864 84.134272 
L 69.138069 84.144525 
L 69.360273 84.1521 
L 69.582477 84.157 
L 69.804682 84.159227 
L 70.026886 84.158781 
L 70.249091 84.155664 
L 70.471295 84.149873 
L 70.693499 84.141405 
L 70.915704 84.130258 
L 71.137908 84.116426 
L 71.360113 84.099904 
L 71.582317 84.080684 
L 71.804522 84.058758 
L 72.026726 84.034117 
L 72.212526 84.011239 
L 72.24893 84.006749 
L 72.471135 83.976637 
L 72.693339 83.943773 
L 72.915544 83.908142 
L 73.137748 83.869729 
L 73.359952 83.828518 
L 73.559273 83.789034 
L 73.582157 83.784489 
L 73.804361 83.737602 
L 74.026566 83.687857 
L 74.24877 83.63523 
L 74.470974 83.579702 
L 74.520023 83.56683 
L 74.693179 83.521211 
L 74.915383 83.459752 
L 75.137588 83.395309 
L 75.304697 83.344626 
L 75.359792 83.327839 
L 75.581996 83.257266 
L 75.804201 83.183615 
L 75.98149 83.122421 
L 76.026405 83.106835 
L 76.24861 83.02682 
L 76.470814 82.943619 
L 76.582651 82.900217 
L 76.693019 82.857125 
L 76.915223 82.767287 
L 77.128237 82.678012 
L 77.137427 82.674135 
L 77.359632 82.577446 
L 77.581836 82.477355 
L 77.628266 82.455808 
L 77.804041 82.373627 
L 78.026245 82.266344 
L 78.092134 82.233603 
L 78.248449 82.155303 
L 78.470654 82.04056 
L 78.525613 82.011399 
L 78.692858 81.921887 
L 78.915063 81.799392 
L 78.933104 81.789195 
L 79.137267 81.672723 
L 79.317418 81.56699 
L 79.359471 81.542068 
L 79.581676 81.407086 
L 79.681634 81.344786 
L 79.80388 81.267799 
L 80.026085 81.124177 
L 80.028499 81.122581 
L 80.248289 80.975766 
L 80.358403 80.900377 
L 80.470493 80.822746 
L 80.674304 80.678173 
L 80.692698 80.664967 
L 80.914902 80.502022 
L 80.976335 80.455968 
L 81.137107 80.333906 
L 81.266142 80.233764 
L 81.359311 80.160497 
L 81.544716 80.011559 
L 81.581516 79.98159 
L 81.80372 79.796911 
L 81.812641 79.789355 
L 82.025924 79.606094 
L 82.070372 79.567151 
L 82.248129 79.409063 
L 82.318876 79.344946 
L 82.470333 79.205538 
L 82.558657 79.122742 
L 82.692538 78.99521 
L 82.790181 78.900537 
L 82.914742 78.777743 
L 83.013873 78.678333 
L 83.136946 78.552774 
L 83.230126 78.456129 
L 83.359151 78.319904 
L 83.439298 78.233924 
L 83.581355 78.078702 
L 83.64172 78.01172 
L 83.80356 77.828697 
L 83.837696 77.789515 
L 84.025764 77.569376 
L 84.027503 77.567311 
L 84.211174 77.345106 
L 84.247968 77.299663 
L 84.389149 77.122902 
L 84.470173 77.019265 
L 84.561662 76.900698 
L 84.692377 76.727516 
L 84.728915 76.678493 
L 84.890976 76.456289 
L 84.914582 76.423211 
L 85.04795 76.234084 
L 85.136786 76.105043 
L 85.200193 76.01188 
L 85.3478 75.789676 
L 85.35899 75.772445 
L 85.490686 75.567471 
L 85.581195 75.422862 
L 85.629263 75.345267 
L 85.763499 75.123062 
L 85.803399 75.05531 
L 85.893484 74.900858 
L 86.019477 74.678654 
L 86.025604 74.667574 
L 86.141302 74.456449 
L 86.247808 74.256141 
L 86.259351 74.234245 
L 86.373435 74.01204 
L 86.470013 73.817927 
L 86.483878 73.789836 
L 86.59053 73.567632 
L 86.692217 73.348609 
L 86.693684 73.345427 
L 86.793168 73.123223 
L 86.889262 72.901018 
L 86.914421 72.84094 
L 86.981871 72.678814 
L 87.071135 72.456609 
L 87.136626 72.287575 
L 87.157103 72.234405 
L 87.239749 72.012201 
L 87.319218 71.789996 
L 87.35883 71.674887 
L 87.395492 71.567792 
L 87.468613 71.345587 
L 87.538663 71.123383 
L 87.581035 70.983052 
L 87.605644 70.901179 
L 87.669578 70.678974 
L 87.730533 70.45677 
L 87.788537 70.234565 
L 87.803239 70.175374 
L 87.843583 70.012361 
L 87.895722 69.790157 
L 87.944985 69.567952 
L 87.991394 69.345748 
L 88.025443 69.172194 
L 88.034962 69.123543 
L 88.075703 68.901339 
L 88.113649 68.679135 
L 88.148816 68.45693 
L 88.181219 68.234726 
L 88.210873 68.012521 
L 88.237789 67.790317 
L 88.247648 67.699824 
L 88.261977 67.568112 
L 88.283451 67.345908 
L 88.30222 67.123704 
L 88.318294 66.901499 
L 88.331677 66.679295 
L 88.342377 66.45709 
L 88.350398 66.234886 
L 88.355744 66.012682 
L 88.358416 65.790477 
L 88.358416 65.568273 
L 88.355744 65.346068 
L 88.350398 65.123864 
L 88.342377 64.90166 
L 88.331677 64.679455 
L 88.318294 64.457251 
L 88.30222 64.235046 
L 88.283451 64.012842 
L 88.261977 63.790638 
L 88.247648 63.658926 
L 88.237789 63.568433 
L 88.210873 63.346229 
L 88.181219 63.124024 
L 88.148816 62.90182 
L 88.113649 62.679615 
L 88.075703 62.457411 
L 88.034962 62.235207 
L 88.025443 62.186556 
L 87.991394 62.013002 
L 87.944985 61.790798 
L 87.895722 61.568593 
L 87.843583 61.346389 
L 87.803239 61.183376 
L 87.788537 61.124185 
L 87.730533 60.90198 
L 87.669578 60.679776 
L 87.605644 60.457571 
L 87.581035 60.375698 
L 87.538663 60.235367 
L 87.468613 60.013163 
L 87.395492 59.790958 
L 87.35883 59.683863 
L 87.319218 59.568754 
L 87.239749 59.346549 
L 87.157103 59.124345 
L 87.136626 59.071175 
L 87.071135 58.902141 
L 86.981871 58.679936 
L 86.914421 58.51781 
L 86.889262 58.457732 
L 86.793168 58.235527 
L 86.693684 58.013323 
L 86.692217 58.010141 
L 86.59053 57.791118 
L 86.483878 57.568914 
L 86.470013 57.540823 
L 86.373435 57.34671 
L 86.259351 57.124505 
L 86.247808 57.102609 
L 86.141302 56.902301 
L 86.025604 56.691176 
L 86.019477 56.680096 
L 85.893484 56.457892 
L 85.803399 56.30344 
L 85.763499 56.235688 
L 85.629263 56.013483 
L 85.581195 55.935888 
L 85.490686 55.791279 
L 85.35899 55.586305 
L 85.3478 55.569074 
L 85.200193 55.34687 
L 85.136786 55.253707 
L 85.04795 55.124666 
L 84.914582 54.935539 
L 84.890976 54.902461 
L 84.728915 54.680257 
L 84.692377 54.631234 
L 84.561662 54.458052 
L 84.470173 54.339485 
L 84.389149 54.235848 
L 84.247968 54.059087 
L 84.211174 54.013644 
L 84.027503 53.791439 
L 84.025764 53.789374 
L 83.837696 53.569235 
L 83.80356 53.530053 
L 83.64172 53.34703 
L 83.581355 53.280048 
L 83.439298 53.124826 
L 83.359151 53.038846 
L 83.230126 52.902621 
L 83.136946 52.805976 
L 83.013873 52.680417 
L 82.914742 52.581007 
L 82.790181 52.458213 
L 82.692538 52.36354 
L 82.558657 52.236008 
L 82.470333 52.153212 
L 82.318876 52.013804 
L 82.248129 51.949687 
L 82.070372 51.791599 
L 82.025924 51.752656 
L 81.812641 51.569395 
L 81.80372 51.561839 
L 81.581516 51.37716 
L 81.544716 51.347191 
L 81.359311 51.198253 
L 81.266142 51.124986 
L 81.137107 51.024844 
L 80.976335 50.902782 
L 80.914902 50.856728 
L 80.692698 50.693783 
L 80.674304 50.680577 
L 80.470493 50.536004 
L 80.358403 50.458373 
L 80.248289 50.382984 
L 80.028499 50.236169 
L 80.026085 50.234573 
L 79.80388 50.090951 
L 79.681634 50.013964 
L 79.581676 49.951664 
L 79.359471 49.816682 
L 79.317418 49.79176 
L 79.137267 49.686027 
L 78.933104 49.569555 
L 78.915063 49.559358 
L 78.692858 49.436863 
L 78.525613 49.347351 
L 78.470654 49.31819 
L 78.248449 49.203447 
L 78.092134 49.125147 
L 78.026245 49.092406 
L 77.804041 48.985123 
L 77.628266 48.902942 
L 77.581836 48.881395 
L 77.359632 48.781304 
L 77.137427 48.684615 
L 77.128237 48.680738 
L 76.915223 48.591463 
L 76.693019 48.501625 
L 76.582651 48.458533 
L 76.470814 48.415131 
L 76.24861 48.33193 
L 76.026405 48.251915 
L 75.98149 48.236329 
L 75.804201 48.175135 
L 75.581996 48.101484 
L 75.359792 48.030911 
L 75.304697 48.014124 
L 75.137588 47.963441 
L 74.915383 47.898998 
L 74.693179 47.837539 
L 74.520023 47.79192 
L 74.470974 47.779048 
L 74.24877 47.72352 
L 74.026566 47.670893 
L 73.804361 47.621148 
L 73.582157 47.574261 
L 73.559273 47.569716 
L 73.359952 47.530232 
L 73.137748 47.489021 
L 72.915544 47.450608 
L 72.693339 47.414977 
L 72.471135 47.382113 
L 72.24893 47.352001 
L 72.212526 47.347511 
L 72.026726 47.324633 
L 71.804522 47.299992 
L 71.582317 47.278066 
L 71.360113 47.258846 
L 71.137908 47.242324 
L 70.915704 47.228492 
L 70.693499 47.217345 
L 70.471295 47.208877 
L 70.249091 47.203086 
L 70.026886 47.199969 
L 69.804682 47.199523 
L 69.582477 47.20175 
L 69.360273 47.20665 
L 69.138069 47.214225 
L 68.915864 47.224478 
L 68.69366 47.237414 
L 68.471455 47.253039 
L 68.249251 47.271359 
L 68.027047 47.292382 
L 67.804842 47.316117 
L 67.582638 47.342575 
L 67.54501 47.347511 
L 67.360433 47.37177 
L 67.138229 47.403715 
L 66.916025 47.438422 
L 66.69382 47.475907 
L 66.471616 47.516183 
L 66.249411 47.55927 
L 66.198763 47.569716 
L 66.027207 47.605202 
L 65.805003 47.653992 
L 65.582798 47.705656 
L 65.360594 47.760215 
L 65.237854 47.79192 
L 65.138389 47.817711 
L 64.916185 47.878181 
L 64.69398 47.941627 
L 64.471776 48.008073 
L 64.452357 48.014124 
L 64.249572 48.077619 
L 64.027367 48.150241 
L 63.805163 48.22596 
L 63.775839 48.236329 
L 63.582958 48.304906 
L 63.360754 48.387042 
L 63.174484 48.458533 
L 63.13855 48.472408 
L 62.916345 48.561151 
L 62.694141 48.65319 
L 62.62974 48.680738 
L 62.471936 48.748698 
L 62.249732 48.847651 
L 62.129454 48.902942 
L 62.027528 48.950143 
L 61.805323 49.056253 
L 61.665427 49.125147 
L 61.583119 49.166005 
L 61.360914 49.279538 
L 61.232017 49.347351 
L 61.13871 49.396864 
L 60.916506 49.518109 
L 60.824744 49.569555 
L 60.694301 49.643366 
L 60.472097 49.772638 
L 60.440022 49.79176 
L 60.249892 49.906228 
L 60.075727 50.013964 
L 60.027688 50.043988 
L 59.805483 50.186242 
L 59.729364 50.236169 
L 59.583279 50.333043 
L 59.398924 50.458373 
L 59.361075 50.484401 
L 59.13887 50.64066 
L 59.083362 50.680577 
L 58.916666 50.801915 
L 58.78122 50.902782 
L 58.694461 50.968212 
L 58.491135 51.124986 
L 58.472257 51.139735 
L 58.250053 51.316871 
L 58.212784 51.347191 
L 58.027848 51.499736 
L 57.945094 51.569395 
L 57.805644 51.688476 
L 57.687231 51.791599 
L 57.583439 51.883345 
L 57.438637 52.013804 
L 57.361235 52.084623 
L 57.1988 52.236008 
L 57.139031 52.29261 
L 56.967251 52.458213 
L 56.916826 52.507636 
L 56.743558 52.680417 
L 56.694622 52.730059 
L 56.527325 52.902621 
L 56.472417 52.96027 
L 56.318188 53.124826 
L 56.250213 53.198694 
L 56.115814 53.34703 
L 56.028009 53.445794 
L 55.919896 53.569235 
L 55.805804 53.702075 
L 55.730153 53.791439 
L 55.5836 53.968086 
L 55.546326 54.013644 
L 55.368219 54.235848 
L 55.361395 54.244531 
L 55.195806 54.458052 
L 55.139191 54.532682 
L 55.028652 54.680257 
L 54.916986 54.832759 
L 54.866568 54.902461 
L 54.709455 55.124666 
L 54.694782 55.145875 
L 54.557324 55.34687 
L 54.472578 55.473893 
L 54.409773 55.569074 
L 54.266736 55.791279 
L 54.250373 55.817298 
L 54.128271 56.013483 
L 54.028169 56.178713 
L 53.993993 56.235688 
L 53.863998 56.457892 
L 53.805964 56.559798 
L 53.73809 56.680096 
L 53.616156 56.902301 
L 53.58376 56.96295 
L 53.49821 57.124505 
L 53.384018 57.34671 
L 53.361556 57.391655 
L 53.273674 57.568914 
L 53.166933 57.791118 
L 53.139351 57.850263 
L 53.063871 58.013323 
L 52.964313 58.235527 
L 52.917147 58.344253 
L 52.868254 58.457732 
L 52.775633 58.679936 
L 52.694942 58.880593 
L 52.686332 58.902141 
L 52.600426 59.124345 
L 52.517737 59.346549 
L 52.472738 59.47209 
L 52.43828 59.568754 
L 52.362024 59.790958 
L 52.288873 60.013163 
L 52.250534 60.134535 
L 52.218833 60.235367 
L 52.151872 60.457571 
L 52.087918 60.679776 
L 52.028329 60.896922 
L 52.026947 60.90198 
L 51.968975 61.124185 
L 51.913925 61.346389 
L 51.861774 61.568593 
L 51.812502 61.790798 
L 51.806125 61.821264 
L 51.766107 62.013002 
L 51.722547 62.235207 
L 51.6818 62.457411 
L 51.64385 62.679615 
L 51.608679 62.90182 
L 51.58392 63.071525 
L 51.576276 63.124024 
L 51.546627 63.346229 
L 51.519714 63.568433 
L 51.495525 63.790638 
L 51.47405 64.012842 
L 51.45528 64.235046 
L 51.439207 64.457251 
L 51.425823 64.679455 
L 51.415122 64.90166 
L 51.407101 65.123864 
L 51.401756 65.346068 
L 51.399084 65.568273 
L 51.399084 65.790477 
L 51.401756 66.012682 
L 51.407101 66.234886 
L 51.415122 66.45709 
L 51.425823 66.679295 
L 51.439207 66.901499 
L 51.45528 67.123704 
L 51.47405 67.345908 
L 51.495525 67.568112 
L 51.519714 67.790317 
L 51.546627 68.012521 
L 51.576276 68.234726 
L 51.58392 68.287225 
L 51.608679 68.45693 
L 51.64385 68.679135 
L 51.6818 68.901339 
L 51.722547 69.123543 
L 51.766107 69.345748 
L 51.806125 69.537486 
L 51.812502 69.567952 
L 51.861774 69.790157 
L 51.913925 70.012361 
L 51.968975 70.234565 
L 52.026947 70.45677 
L 52.028329 70.461828 
L 52.087918 70.678974 
L 52.151872 70.901179 
L 52.218833 71.123383 
L 52.250534 71.224215 
L 52.288873 71.345587 
L 52.362024 71.567792 
L 52.43828 71.789996 
L 52.472738 71.88666 
L 52.517737 72.012201 
L 52.600426 72.234405 
L 52.686332 72.456609 
L 52.694942 72.478157 
L 52.775633 72.678814 
L 52.868254 72.901018 
L 52.917147 73.014497 
L 52.964313 73.123223 
L 53.063871 73.345427 
L 53.139351 73.508487 
L 53.166933 73.567632 
L 53.273674 73.789836 
L 53.361556 73.967095 
L 53.384018 74.01204 
L 53.49821 74.234245 
L 53.58376 74.3958 
L 53.616156 74.456449 
L 53.73809 74.678654 
L 53.805964 74.798952 
L 53.863998 74.900858 
L 53.993993 75.123062 
L 54.028169 75.180037 
L 54.128271 75.345267 
L 54.250373 75.541452 
L 54.266736 75.567471 
L 54.409773 75.789676 
L 54.472578 75.884857 
L 54.557324 76.01188 
L 54.694782 76.212875 
L 54.709455 76.234084 
L 54.866568 76.456289 
L 54.916986 76.525991 
L 55.028652 76.678493 
L 55.139191 76.826068 
L 55.195806 76.900698 
L 55.361395 77.114219 
L 55.368219 77.122902 
L 55.546326 77.345106 
L 55.5836 77.390664 
L 55.730153 77.567311 
L 55.805804 77.656675 
L 55.919896 77.789515 
L 56.028009 77.912956 
L 56.115814 78.01172 
L 56.250213 78.160056 
L 56.318188 78.233924 
L 56.472417 78.39848 
L 56.527325 78.456129 
L 56.694622 78.628691 
L 56.743558 78.678333 
L 56.916826 78.851114 
L 56.967251 78.900537 
L 57.139031 79.06614 
L 57.1988 79.122742 
L 57.361235 79.274127 
L 57.438637 79.344946 
L 57.583439 79.475405 
L 57.687231 79.567151 
L 57.805644 79.670274 
L 57.945094 79.789355 
L 58.027848 79.859014 
L 58.212784 80.011559 
L 58.250053 80.041879 
L 58.472257 80.219015 
L 58.491135 80.233764 
L 58.694461 80.390538 
L 58.78122 80.455968 
L 58.916666 80.556835 
L 59.083362 80.678173 
L 59.13887 80.71809 
L 59.361075 80.874349 
L 59.398924 80.900377 
L 59.583279 81.025707 
L 59.729364 81.122581 
L 59.805483 81.172508 
L 60.027688 81.314762 
L 60.075727 81.344786 
L 60.249892 81.452522 
L 60.440022 81.56699 
L 60.472097 81.586112 
L 60.694301 81.715384 
L 60.824744 81.789195 
L 60.916506 81.840641 
L 61.13871 81.961886 
L 61.232017 82.011399 
L 61.360914 82.079212 
L 61.583119 82.192745 
L 61.665427 82.233603 
L 61.805323 82.302497 
L 62.027528 82.408607 
L 62.129454 82.455808 
L 62.249732 82.511099 
L 62.471936 82.610052 
L 62.62974 82.678012 
L 62.694141 82.70556 
L 62.916345 82.797599 
L 63.13855 82.886342 
L 63.174484 82.900217 
L 63.360754 82.971708 
L 63.582958 83.053844 
L 63.775839 83.122421 
L 63.805163 83.13279 
L 64.027367 83.208509 
L 64.249572 83.281131 
L 64.452357 83.344626 
L 64.471776 83.350677 
L 64.69398 83.417123 
L 64.916185 83.480569 
L 65.138389 83.541039 
L 65.237854 83.56683 
L 65.360594 83.598535 
L 65.582798 83.653094 
L 65.805003 83.704758 
L 66.027207 83.753548 
L 66.198763 83.789034 
L 66.249411 83.79948 
L 66.471616 83.842567 
L 66.69382 83.882843 
L 66.916025 83.920328 
L 67.138229 83.955035 
L 67.360433 83.98698 
L 67.54501 84.011239 
z
" clip-path="url(#p657be4ca39)" style="fill: #00cd6c; fill-opacity: 0.1"/>
   </g>
   <g id="PathCollection_2">
    <path d="M 47.806445 102.464385 
L 48.02865 102.485407 
L 48.250854 102.505076 
L 48.473059 102.523396 
L 48.695263 102.540367 
L 48.917467 102.555991 
L 49.139672 102.57027 
L 49.361876 102.583206 
L 49.584081 102.594799 
L 49.806285 102.605052 
L 50.028489 102.613965 
L 50.250694 102.62154 
L 50.472898 102.627777 
L 50.695103 102.632676 
L 50.917307 102.636239 
L 51.139512 102.638466 
L 51.361716 102.639356 
L 51.58392 102.638911 
L 51.806125 102.63713 
L 52.028329 102.634012 
L 52.250534 102.629558 
L 52.472738 102.623768 
L 52.694942 102.616639 
L 52.917147 102.608172 
L 53.139351 102.598366 
L 53.361556 102.587219 
L 53.58376 102.574731 
L 53.805964 102.5609 
L 54.028169 102.545724 
L 54.250373 102.529202 
L 54.472578 102.511333 
L 54.694782 102.492114 
L 54.916986 102.471542 
L 55.09272 102.454205 
L 55.139191 102.449617 
L 55.361395 102.426334 
L 55.5836 102.401691 
L 55.805804 102.375687 
L 56.028009 102.348318 
L 56.250213 102.319581 
L 56.472417 102.289474 
L 56.694622 102.257992 
L 56.870423 102.232 
L 56.916826 102.225133 
L 57.139031 102.190888 
L 57.361235 102.155259 
L 57.583439 102.11824 
L 57.805644 102.079828 
L 58.027848 102.04002 
L 58.190863 102.009796 
L 58.250053 101.998807 
L 58.472257 101.956183 
L 58.694461 101.912146 
L 58.916666 101.866694 
L 59.13887 101.819821 
L 59.287213 101.787591 
L 59.361075 101.771519 
L 59.583279 101.721775 
L 59.805483 101.670593 
L 60.027688 101.617969 
L 60.243776 101.565387 
L 60.249892 101.563896 
L 60.472097 101.508349 
L 60.694301 101.451341 
L 60.916506 101.392865 
L 61.100703 101.343183 
L 61.13871 101.332911 
L 61.360914 101.271454 
L 61.583119 101.208509 
L 61.805323 101.144068 
L 61.883216 101.120978 
L 62.027528 101.078104 
L 62.249732 101.010618 
L 62.471936 100.941613 
L 62.607 100.898774 
L 62.694141 100.871068 
L 62.916345 100.798962 
L 63.13855 100.725314 
L 63.282684 100.676569 
L 63.360754 100.650099 
L 63.582958 100.57329 
L 63.805163 100.494913 
L 63.917965 100.454365 
L 64.027367 100.41493 
L 64.249572 100.333329 
L 64.471776 100.25013 
L 64.518941 100.232161 
L 64.69398 100.165272 
L 64.916185 100.078781 
L 65.089824 100.009956 
L 65.138389 99.990647 
L 65.360594 99.900812 
L 65.582798 99.809329 
L 65.634366 99.787752 
L 65.805003 99.716118 
L 66.027207 99.621213 
L 66.155402 99.565547 
L 66.249411 99.524585 
L 66.471616 99.426203 
L 66.655651 99.343343 
L 66.69382 99.326096 
L 66.916025 99.224175 
L 67.136914 99.121139 
L 67.138229 99.120523 
L 67.360433 99.015001 
L 67.582638 98.907722 
L 67.600587 98.898934 
L 67.804842 98.798544 
L 68.027047 98.687569 
L 68.048458 98.67673 
L 68.249251 98.574658 
L 68.471455 98.459919 
L 68.481765 98.454525 
L 68.69366 98.343193 
L 68.901464 98.232321 
L 68.915864 98.224604 
L 69.138069 98.103986 
L 69.308468 98.010116 
L 69.360273 97.981449 
L 69.582477 97.856869 
L 69.703782 97.787912 
L 69.804682 97.730286 
L 70.026886 97.601663 
L 70.088214 97.565708 
L 70.249091 97.470932 
L 70.462411 97.343503 
L 70.471295 97.33817 
L 70.693499 97.203193 
L 70.826525 97.121299 
L 70.915704 97.066116 
L 71.137908 96.926866 
L 71.181701 96.899094 
L 71.360113 96.785355 
L 71.528063 96.67689 
L 71.582317 96.641662 
L 71.804522 96.495667 
L 71.866163 96.454686 
L 72.026726 96.347345 
L 72.196423 96.232481 
L 72.24893 96.196738 
L 72.471135 96.043732 
L 72.519175 96.010277 
L 72.693339 95.888281 
L 72.834709 95.788072 
L 72.915544 95.730431 
L 73.137748 95.57013 
L 73.143596 95.565868 
L 73.359952 95.407201 
L 73.44561 95.343664 
L 73.582157 95.241744 
L 73.74151 95.121459 
L 73.804361 95.073713 
L 74.026566 94.903051 
L 74.03146 94.899255 
L 74.24877 94.729586 
L 74.315339 94.67705 
L 74.470974 94.5534 
L 74.593716 94.454846 
L 74.693179 94.374438 
L 74.866761 94.232642 
L 74.915383 94.192646 
L 75.134633 94.010437 
L 75.137588 94.007964 
L 75.359792 93.820226 
L 75.397286 93.788233 
L 75.581996 93.629471 
L 75.655089 93.566028 
L 75.804201 93.435642 
L 75.908197 93.343824 
L 76.026405 93.23867 
L 76.156743 93.121619 
L 76.24861 93.038484 
L 76.400855 92.899415 
L 76.470814 92.83501 
L 76.640654 92.677211 
L 76.693019 92.628171 
L 76.876258 92.455006 
L 76.915223 92.417885 
L 77.107779 92.232802 
L 77.137427 92.204069 
L 77.335324 92.010597 
L 77.359632 91.986634 
L 77.558997 91.788393 
L 77.581836 91.765488 
L 77.778895 91.566189 
L 77.804041 91.540536 
L 77.995114 91.343984 
L 78.026245 91.311677 
L 78.207743 91.12178 
L 78.248449 91.078807 
L 78.416871 90.899575 
L 78.470654 90.841818 
L 78.62258 90.677371 
L 78.692858 90.600594 
L 78.824949 90.455167 
L 78.915063 90.355018 
L 79.024056 90.232962 
L 79.137267 90.104966 
L 79.219972 90.010758 
L 79.359471 89.850308 
L 79.41277 89.788553 
L 79.581676 89.590909 
L 79.602514 89.566349 
L 79.789224 89.344145 
L 79.80388 89.326532 
L 79.972936 89.12194 
L 80.026085 89.056953 
L 80.153779 88.899736 
L 80.248289 88.78215 
L 80.331809 88.677531 
L 80.470493 88.501958 
L 80.507083 88.455327 
L 80.679615 88.233122 
L 80.692698 88.216101 
L 80.849387 88.010918 
L 80.914902 87.924169 
L 81.016555 87.788714 
L 81.137107 87.626253 
L 81.181164 87.566509 
L 81.34322 87.344305 
L 81.359311 87.322005 
L 81.502692 87.1221 
L 81.581516 87.010902 
L 81.659738 86.899896 
L 81.80372 86.693115 
L 81.814397 86.677692 
L 81.966571 86.455487 
L 82.025924 86.36777 
L 82.116413 86.233283 
L 82.248129 86.035065 
L 82.26398 86.011078 
L 82.409179 85.788874 
L 82.470333 85.694114 
L 82.552141 85.56667 
L 82.692538 85.34509 
L 82.692932 85.344465 
L 82.831418 85.122261 
L 82.914742 84.986765 
L 82.967795 84.900056 
L 83.102026 84.677852 
L 83.136946 84.619317 
L 83.234109 84.455648 
L 83.359151 84.242053 
L 83.364167 84.233443 
L 83.492074 84.011239 
L 83.581355 83.853912 
L 83.618002 83.789034 
L 83.741883 83.56683 
L 83.80356 83.454651 
L 83.863782 83.344626 
L 83.983717 83.122421 
L 84.025764 83.043439 
L 84.101683 82.900217 
L 84.217749 82.678012 
L 84.247968 82.619353 
L 84.331872 82.455808 
L 84.444144 82.233603 
L 84.470173 82.181359 
L 84.554509 82.011399 
L 84.663059 81.789195 
L 84.692377 81.7283 
L 84.769744 81.56699 
L 84.87464 81.344786 
L 84.914582 81.258881 
L 84.97772 81.122581 
L 85.079027 80.900377 
L 85.136786 80.771641 
L 85.178573 80.678173 
L 85.276354 80.455968 
L 85.35899 80.264938 
L 85.37243 80.233764 
L 85.466744 80.011559 
L 85.559391 79.789355 
L 85.581195 79.736201 
L 85.650316 79.567151 
L 85.739577 79.344946 
L 85.803399 79.183198 
L 85.827181 79.122742 
L 85.913108 78.900537 
L 85.997421 78.678333 
L 86.025604 78.602721 
L 86.080086 78.456129 
L 86.161137 78.233924 
L 86.240603 78.01172 
L 86.247808 77.991201 
L 86.318443 77.789515 
L 86.394713 77.567311 
L 86.469426 77.345106 
L 86.470013 77.343328 
L 86.542544 77.122902 
L 86.614123 76.900698 
L 86.68417 76.678493 
L 86.692217 76.652439 
L 86.752659 76.456289 
L 86.81963 76.234084 
L 86.885092 76.01188 
L 86.914421 75.910082 
L 86.949037 75.789676 
L 87.011476 75.567471 
L 87.07243 75.345267 
L 87.131904 75.123062 
L 87.136626 75.104999 
L 87.189884 74.900858 
L 87.246398 74.678654 
L 87.301452 74.456449 
L 87.355053 74.234245 
L 87.35883 74.218174 
L 87.407192 74.01204 
L 87.457888 73.789836 
L 87.507149 73.567632 
L 87.554981 73.345427 
L 87.581035 73.220743 
L 87.601382 73.123223 
L 87.646358 72.901018 
L 87.68992 72.678814 
L 87.732073 72.456609 
L 87.77282 72.234405 
L 87.803239 72.062664 
L 87.812166 72.012201 
L 87.850111 71.789996 
L 87.886664 71.567792 
L 87.92183 71.345587 
L 87.955612 71.123383 
L 87.988014 70.901179 
L 88.019039 70.678974 
L 88.025443 70.631013 
L 88.048689 70.45677 
L 88.076968 70.234565 
L 88.103881 70.012361 
L 88.129431 69.790157 
L 88.15362 69.567952 
L 88.17645 69.345748 
L 88.197924 69.123543 
L 88.218045 68.901339 
L 88.236815 68.679135 
L 88.247648 68.540981 
L 88.254235 68.45693 
L 88.270308 68.234726 
L 88.285035 68.012521 
L 88.298418 67.790317 
L 88.310459 67.568112 
L 88.321158 67.345908 
L 88.330518 67.123704 
L 88.338539 66.901499 
L 88.345221 66.679295 
L 88.350567 66.45709 
L 88.354575 66.234886 
L 88.357247 66.012682 
L 88.358583 65.790477 
L 88.358583 65.568273 
L 88.357247 65.346068 
L 88.354575 65.123864 
L 88.350567 64.90166 
L 88.345221 64.679455 
L 88.338539 64.457251 
L 88.330518 64.235046 
L 88.321158 64.012842 
L 88.310459 63.790638 
L 88.298418 63.568433 
L 88.285035 63.346229 
L 88.270308 63.124024 
L 88.254235 62.90182 
L 88.247648 62.817769 
L 88.236815 62.679615 
L 88.218045 62.457411 
L 88.197924 62.235207 
L 88.17645 62.013002 
L 88.15362 61.790798 
L 88.129431 61.568593 
L 88.103881 61.346389 
L 88.076968 61.124185 
L 88.048689 60.90198 
L 88.025443 60.727737 
L 88.019039 60.679776 
L 87.988014 60.457571 
L 87.955612 60.235367 
L 87.92183 60.013163 
L 87.886664 59.790958 
L 87.850111 59.568754 
L 87.812166 59.346549 
L 87.803239 59.296086 
L 87.77282 59.124345 
L 87.732073 58.902141 
L 87.68992 58.679936 
L 87.646358 58.457732 
L 87.601382 58.235527 
L 87.581035 58.138007 
L 87.554981 58.013323 
L 87.507149 57.791118 
L 87.457888 57.568914 
L 87.407192 57.34671 
L 87.35883 57.140576 
L 87.355053 57.124505 
L 87.301452 56.902301 
L 87.246398 56.680096 
L 87.189884 56.457892 
L 87.136626 56.253751 
L 87.131904 56.235688 
L 87.07243 56.013483 
L 87.011476 55.791279 
L 86.949037 55.569074 
L 86.914421 55.448668 
L 86.885092 55.34687 
L 86.81963 55.124666 
L 86.752659 54.902461 
L 86.692217 54.706311 
L 86.68417 54.680257 
L 86.614123 54.458052 
L 86.542544 54.235848 
L 86.470013 54.015422 
L 86.469426 54.013644 
L 86.394713 53.791439 
L 86.318443 53.569235 
L 86.247808 53.367549 
L 86.240603 53.34703 
L 86.161137 53.124826 
L 86.080086 52.902621 
L 86.025604 52.756029 
L 85.997421 52.680417 
L 85.913108 52.458213 
L 85.827181 52.236008 
L 85.803399 52.175552 
L 85.739577 52.013804 
L 85.650316 51.791599 
L 85.581195 51.622549 
L 85.559391 51.569395 
L 85.466744 51.347191 
L 85.37243 51.124986 
L 85.35899 51.093812 
L 85.276354 50.902782 
L 85.178573 50.680577 
L 85.136786 50.587109 
L 85.079027 50.458373 
L 84.97772 50.236169 
L 84.914582 50.099869 
L 84.87464 50.013964 
L 84.769744 49.79176 
L 84.692377 49.63045 
L 84.663059 49.569555 
L 84.554509 49.347351 
L 84.470173 49.177391 
L 84.444144 49.125147 
L 84.331872 48.902942 
L 84.247968 48.739397 
L 84.217749 48.680738 
L 84.101683 48.458533 
L 84.025764 48.315311 
L 83.983717 48.236329 
L 83.863782 48.014124 
L 83.80356 47.904099 
L 83.741883 47.79192 
L 83.618002 47.569716 
L 83.581355 47.504838 
L 83.492074 47.347511 
L 83.364167 47.125307 
L 83.359151 47.116697 
L 83.234109 46.903102 
L 83.136946 46.739433 
L 83.102026 46.680898 
L 82.967795 46.458694 
L 82.914742 46.371985 
L 82.831418 46.236489 
L 82.692932 46.014285 
L 82.692538 46.01366 
L 82.552141 45.79208 
L 82.470333 45.664636 
L 82.409179 45.569876 
L 82.26398 45.347672 
L 82.248129 45.323685 
L 82.116413 45.125467 
L 82.025924 44.99098 
L 81.966571 44.903263 
L 81.814397 44.681058 
L 81.80372 44.665635 
L 81.659738 44.458854 
L 81.581516 44.347848 
L 81.502692 44.23665 
L 81.359311 44.036745 
L 81.34322 44.014445 
L 81.181164 43.792241 
L 81.137107 43.732497 
L 81.016555 43.570036 
L 80.914902 43.434581 
L 80.849387 43.347832 
L 80.692698 43.142649 
L 80.679615 43.125628 
L 80.507083 42.903423 
L 80.470493 42.856792 
L 80.331809 42.681219 
L 80.248289 42.5766 
L 80.153779 42.459014 
L 80.026085 42.301797 
L 79.972936 42.23681 
L 79.80388 42.032218 
L 79.789224 42.014605 
L 79.602514 41.792401 
L 79.581676 41.767841 
L 79.41277 41.570197 
L 79.359471 41.508442 
L 79.219972 41.347992 
L 79.137267 41.253784 
L 79.024056 41.125788 
L 78.915063 41.003732 
L 78.824949 40.903583 
L 78.692858 40.758156 
L 78.62258 40.681379 
L 78.470654 40.516932 
L 78.416871 40.459175 
L 78.248449 40.279943 
L 78.207743 40.23697 
L 78.026245 40.047073 
L 77.995114 40.014766 
L 77.804041 39.818214 
L 77.778895 39.792561 
L 77.581836 39.593262 
L 77.558997 39.570357 
L 77.359632 39.372116 
L 77.335324 39.348153 
L 77.137427 39.154681 
L 77.107779 39.125948 
L 76.915223 38.940865 
L 76.876258 38.903744 
L 76.693019 38.730579 
L 76.640654 38.681539 
L 76.470814 38.52374 
L 76.400855 38.459335 
L 76.24861 38.320266 
L 76.156743 38.237131 
L 76.026405 38.12008 
L 75.908197 38.014926 
L 75.804201 37.923108 
L 75.655089 37.792722 
L 75.581996 37.729279 
L 75.397286 37.570517 
L 75.359792 37.538524 
L 75.137588 37.350786 
L 75.134633 37.348313 
L 74.915383 37.166104 
L 74.866761 37.126108 
L 74.693179 36.984312 
L 74.593716 36.903904 
L 74.470974 36.80535 
L 74.315339 36.6817 
L 74.24877 36.629164 
L 74.03146 36.459495 
L 74.026566 36.455699 
L 73.804361 36.285037 
L 73.74151 36.237291 
L 73.582157 36.117006 
L 73.44561 36.015086 
L 73.359952 35.951549 
L 73.143596 35.792882 
L 73.137748 35.78862 
L 72.915544 35.628319 
L 72.834709 35.570678 
L 72.693339 35.470469 
L 72.519175 35.348473 
L 72.471135 35.315018 
L 72.24893 35.162012 
L 72.196423 35.126269 
L 72.026726 35.011405 
L 71.866163 34.904064 
L 71.804522 34.863083 
L 71.582317 34.717088 
L 71.528063 34.68186 
L 71.360113 34.573395 
L 71.181701 34.459656 
L 71.137908 34.431884 
L 70.915704 34.292634 
L 70.826525 34.237451 
L 70.693499 34.155557 
L 70.471295 34.02058 
L 70.462411 34.015247 
L 70.249091 33.887818 
L 70.088214 33.793042 
L 70.026886 33.757087 
L 69.804682 33.628464 
L 69.703782 33.570838 
L 69.582477 33.501881 
L 69.360273 33.377301 
L 69.308468 33.348634 
L 69.138069 33.254764 
L 68.915864 33.134146 
L 68.901464 33.126429 
L 68.69366 33.015557 
L 68.481765 32.904225 
L 68.471455 32.898831 
L 68.249251 32.784092 
L 68.048458 32.68202 
L 68.027047 32.671181 
L 67.804842 32.560206 
L 67.600587 32.459816 
L 67.582638 32.451028 
L 67.360433 32.343749 
L 67.138229 32.238227 
L 67.136914 32.237611 
L 66.916025 32.134575 
L 66.69382 32.032654 
L 66.655651 32.015407 
L 66.471616 31.932547 
L 66.249411 31.834165 
L 66.155402 31.793203 
L 66.027207 31.737537 
L 65.805003 31.642632 
L 65.634366 31.570998 
L 65.582798 31.549421 
L 65.360594 31.457938 
L 65.138389 31.368103 
L 65.089824 31.348794 
L 64.916185 31.279969 
L 64.69398 31.193478 
L 64.518941 31.126589 
L 64.471776 31.10862 
L 64.249572 31.025421 
L 64.027367 30.94382 
L 63.917965 30.904385 
L 63.805163 30.863837 
L 63.582958 30.78546 
L 63.360754 30.708651 
L 63.282684 30.682181 
L 63.13855 30.633436 
L 62.916345 30.559788 
L 62.694141 30.487682 
L 62.607 30.459976 
L 62.471936 30.417137 
L 62.249732 30.348132 
L 62.027528 30.280646 
L 61.883216 30.237772 
L 61.805323 30.214682 
L 61.583119 30.150241 
L 61.360914 30.087296 
L 61.13871 30.025839 
L 61.100703 30.015567 
L 60.916506 29.965885 
L 60.694301 29.907409 
L 60.472097 29.850401 
L 60.249892 29.794854 
L 60.243776 29.793363 
L 60.027688 29.740781 
L 59.805483 29.688157 
L 59.583279 29.636975 
L 59.361075 29.587231 
L 59.287213 29.571159 
L 59.13887 29.538929 
L 58.916666 29.492056 
L 58.694461 29.446604 
L 58.472257 29.402567 
L 58.250053 29.359943 
L 58.190863 29.348954 
L 58.027848 29.31873 
L 57.805644 29.278922 
L 57.583439 29.24051 
L 57.361235 29.203491 
L 57.139031 29.167862 
L 56.916826 29.133617 
L 56.870423 29.12675 
L 56.694622 29.100758 
L 56.472417 29.069276 
L 56.250213 29.039169 
L 56.028009 29.010432 
L 55.805804 28.983063 
L 55.5836 28.957059 
L 55.361395 28.932416 
L 55.139191 28.909133 
L 55.09272 28.904545 
L 54.916986 28.887208 
L 54.694782 28.866636 
L 54.472578 28.847417 
L 54.250373 28.829548 
L 54.028169 28.813026 
L 53.805964 28.79785 
L 53.58376 28.784019 
L 53.361556 28.771531 
L 53.139351 28.760384 
L 52.917147 28.750578 
L 52.694942 28.742111 
L 52.472738 28.734982 
L 52.250534 28.729192 
L 52.028329 28.724738 
L 51.806125 28.72162 
L 51.58392 28.719839 
L 51.361716 28.719394 
L 51.139512 28.720284 
L 50.917307 28.722511 
L 50.695103 28.726074 
L 50.472898 28.730973 
L 50.250694 28.73721 
L 50.028489 28.744785 
L 49.806285 28.753698 
L 49.584081 28.763951 
L 49.361876 28.775544 
L 49.139672 28.78848 
L 48.917467 28.802759 
L 48.695263 28.818383 
L 48.473059 28.835354 
L 48.250854 28.853674 
L 48.02865 28.873343 
L 47.806445 28.894365 
L 47.705326 28.904545 
L 47.584241 28.916743 
L 47.362037 28.940479 
L 47.139832 28.965575 
L 46.917628 28.992034 
L 46.695423 29.019859 
L 46.473219 29.049052 
L 46.251015 29.079617 
L 46.02881 29.111557 
L 45.927442 29.12675 
L 45.806606 29.144878 
L 45.584401 29.179584 
L 45.362197 29.215676 
L 45.139992 29.253159 
L 44.917788 29.292036 
L 44.695584 29.332311 
L 44.606793 29.348954 
L 44.473379 29.373994 
L 44.251175 29.417089 
L 44.02897 29.461597 
L 43.806766 29.507522 
L 43.584562 29.554869 
L 43.510289 29.571159 
L 43.362357 29.603653 
L 43.140153 29.653876 
L 42.917948 29.705538 
L 42.695744 29.758644 
L 42.554262 29.793363 
L 42.47354 29.813207 
L 42.251335 29.869241 
L 42.029131 29.926738 
L 41.806926 29.985704 
L 41.697052 30.015567 
L 41.584722 30.04616 
L 41.362518 30.108112 
L 41.140313 30.171555 
L 40.918109 30.236495 
L 40.913832 30.237772 
L 40.695904 30.302973 
L 40.4737 30.370965 
L 40.251495 30.440477 
L 40.190422 30.459976 
L 40.029291 30.511546 
L 39.807087 30.584165 
L 39.584882 30.658329 
L 39.514793 30.682181 
L 39.362678 30.73408 
L 39.140473 30.811411 
L 38.918269 30.890313 
L 38.87935 30.904385 
L 38.696065 30.970843 
L 38.47386 31.052976 
L 38.278459 31.126589 
L 38.251656 31.136717 
L 38.029451 31.222128 
L 37.807247 31.30916 
L 37.707794 31.348794 
L 37.585043 31.397865 
L 37.362838 31.488249 
L 37.163006 31.570998 
L 37.140634 31.580293 
L 36.918429 31.674081 
L 36.696225 31.769544 
L 36.642013 31.793203 
L 36.474021 31.86677 
L 36.251816 31.96572 
L 36.141993 32.015407 
L 36.029612 32.066436 
L 35.807407 32.168932 
L 35.660867 32.237611 
L 35.585203 32.273206 
L 35.362998 32.379313 
L 35.197054 32.459816 
L 35.140794 32.487216 
L 34.91859 32.596999 
L 34.749154 32.68202 
L 34.696385 32.708607 
L 34.474181 32.822136 
L 34.315918 32.904225 
L 34.251976 32.93753 
L 34.029772 33.054878 
L 33.896232 33.126429 
L 33.807568 33.174144 
L 33.585363 33.295386 
L 33.489102 33.348634 
L 33.363159 33.418617 
L 33.140954 33.543831 
L 33.093636 33.570838 
L 32.91875 33.671124 
L 32.91875 33.793042 
L 32.91875 34.015247 
L 32.91875 34.237451 
L 32.91875 34.459656 
L 32.91875 34.68186 
L 32.91875 34.904064 
L 32.91875 35.126269 
L 32.91875 35.348473 
L 32.91875 35.570678 
L 32.91875 35.792882 
L 32.91875 36.015086 
L 32.91875 36.237291 
L 32.91875 36.459495 
L 32.91875 36.6817 
L 32.91875 36.903904 
L 32.91875 37.126108 
L 32.91875 37.348313 
L 32.91875 37.570517 
L 32.91875 37.792722 
L 32.91875 38.014926 
L 32.91875 38.237131 
L 32.91875 38.459335 
L 32.91875 38.681539 
L 32.91875 38.903744 
L 32.91875 39.125948 
L 32.91875 39.348153 
L 32.91875 39.570357 
L 32.91875 39.792561 
L 32.91875 40.014766 
L 32.91875 40.23697 
L 32.91875 40.459175 
L 32.91875 40.681379 
L 32.91875 40.903583 
L 32.91875 41.125788 
L 32.91875 41.347992 
L 32.91875 41.570197 
L 32.91875 41.792401 
L 32.91875 42.014605 
L 32.91875 42.23681 
L 32.91875 42.459014 
L 32.91875 42.681219 
L 32.91875 42.903423 
L 32.91875 43.125628 
L 32.91875 43.347832 
L 32.91875 43.570036 
L 32.91875 43.792241 
L 32.91875 44.014445 
L 32.91875 44.23665 
L 32.91875 44.458854 
L 32.91875 44.681058 
L 32.91875 44.903263 
L 32.91875 45.125467 
L 32.91875 45.347672 
L 32.91875 45.569876 
L 32.91875 45.79208 
L 32.91875 46.014285 
L 32.91875 46.236489 
L 32.91875 46.458694 
L 32.91875 46.680898 
L 32.91875 46.903102 
L 32.91875 47.125307 
L 32.91875 47.347511 
L 32.91875 47.569716 
L 32.91875 47.79192 
L 32.91875 48.014124 
L 32.91875 48.236329 
L 32.91875 48.458533 
L 32.91875 48.680738 
L 32.91875 48.902942 
L 32.91875 49.125147 
L 32.91875 49.347351 
L 32.91875 49.569555 
L 32.91875 49.79176 
L 32.91875 50.013964 
L 32.91875 50.236169 
L 32.91875 50.458373 
L 32.91875 50.680577 
L 32.91875 50.902782 
L 32.91875 51.124986 
L 32.91875 51.347191 
L 32.91875 51.569395 
L 32.91875 51.791599 
L 32.91875 52.013804 
L 32.91875 52.236008 
L 32.91875 52.458213 
L 32.91875 52.680417 
L 32.91875 52.902621 
L 32.91875 53.124826 
L 32.91875 53.34703 
L 32.91875 53.569235 
L 32.91875 53.791439 
L 32.91875 54.013644 
L 32.91875 54.235848 
L 32.91875 54.458052 
L 32.91875 54.680257 
L 32.91875 54.902461 
L 32.91875 55.124666 
L 32.91875 55.34687 
L 32.91875 55.569074 
L 32.91875 55.791279 
L 32.91875 56.013483 
L 32.91875 56.235688 
L 32.91875 56.457892 
L 32.91875 56.680096 
L 32.91875 56.902301 
L 32.91875 57.124505 
L 32.91875 57.34671 
L 32.91875 57.568914 
L 32.91875 57.791118 
L 32.91875 58.013323 
L 32.91875 58.235527 
L 32.91875 58.457732 
L 32.91875 58.679936 
L 32.91875 58.902141 
L 32.91875 59.124345 
L 32.91875 59.346549 
L 32.91875 59.568754 
L 32.91875 59.790958 
L 32.91875 60.013163 
L 32.91875 60.235367 
L 32.91875 60.457571 
L 32.91875 60.679776 
L 32.91875 60.90198 
L 32.91875 61.124185 
L 32.91875 61.346389 
L 32.91875 61.568593 
L 32.91875 61.790798 
L 32.91875 62.013002 
L 32.91875 62.235207 
L 32.91875 62.457411 
L 32.91875 62.679615 
L 32.91875 62.90182 
L 32.91875 63.124024 
L 32.91875 63.346229 
L 32.91875 63.568433 
L 32.91875 63.790638 
L 32.91875 64.012842 
L 32.91875 64.235046 
L 32.91875 64.457251 
L 32.91875 64.679455 
L 32.91875 64.90166 
L 32.91875 65.123864 
L 32.91875 65.346068 
L 32.91875 65.568273 
L 32.91875 65.790477 
L 32.91875 66.012682 
L 32.91875 66.234886 
L 32.91875 66.45709 
L 32.91875 66.679295 
L 32.91875 66.901499 
L 32.91875 67.123704 
L 32.91875 67.345908 
L 32.91875 67.568112 
L 32.91875 67.790317 
L 32.91875 68.012521 
L 32.91875 68.234726 
L 32.91875 68.45693 
L 32.91875 68.679135 
L 32.91875 68.901339 
L 32.91875 69.123543 
L 32.91875 69.345748 
L 32.91875 69.567952 
L 32.91875 69.790157 
L 32.91875 70.012361 
L 32.91875 70.234565 
L 32.91875 70.45677 
L 32.91875 70.678974 
L 32.91875 70.901179 
L 32.91875 71.123383 
L 32.91875 71.345587 
L 32.91875 71.567792 
L 32.91875 71.789996 
L 32.91875 72.012201 
L 32.91875 72.234405 
L 32.91875 72.456609 
L 32.91875 72.678814 
L 32.91875 72.901018 
L 32.91875 73.123223 
L 32.91875 73.345427 
L 32.91875 73.567632 
L 32.91875 73.789836 
L 32.91875 74.01204 
L 32.91875 74.234245 
L 32.91875 74.456449 
L 32.91875 74.678654 
L 32.91875 74.900858 
L 32.91875 75.123062 
L 32.91875 75.345267 
L 32.91875 75.567471 
L 32.91875 75.789676 
L 32.91875 76.01188 
L 32.91875 76.234084 
L 32.91875 76.456289 
L 32.91875 76.678493 
L 32.91875 76.900698 
L 32.91875 77.122902 
L 32.91875 77.345106 
L 32.91875 77.567311 
L 32.91875 77.789515 
L 32.91875 78.01172 
L 32.91875 78.233924 
L 32.91875 78.456129 
L 32.91875 78.678333 
L 32.91875 78.900537 
L 32.91875 79.122742 
L 32.91875 79.344946 
L 32.91875 79.567151 
L 32.91875 79.789355 
L 32.91875 80.011559 
L 32.91875 80.233764 
L 32.91875 80.455968 
L 32.91875 80.678173 
L 32.91875 80.900377 
L 32.91875 81.122581 
L 32.91875 81.344786 
L 32.91875 81.56699 
L 32.91875 81.789195 
L 32.91875 82.011399 
L 32.91875 82.233603 
L 32.91875 82.455808 
L 32.91875 82.678012 
L 32.91875 82.900217 
L 32.91875 83.122421 
L 32.91875 83.344626 
L 32.91875 83.56683 
L 32.91875 83.789034 
L 32.91875 84.011239 
L 32.91875 84.233443 
L 32.91875 84.455648 
L 32.91875 84.677852 
L 32.91875 84.900056 
L 32.91875 85.122261 
L 32.91875 85.344465 
L 32.91875 85.56667 
L 32.91875 85.788874 
L 32.91875 86.011078 
L 32.91875 86.233283 
L 32.91875 86.455487 
L 32.91875 86.677692 
L 32.91875 86.899896 
L 32.91875 87.1221 
L 32.91875 87.344305 
L 32.91875 87.566509 
L 32.91875 87.788714 
L 32.91875 88.010918 
L 32.91875 88.233122 
L 32.91875 88.455327 
L 32.91875 88.677531 
L 32.91875 88.899736 
L 32.91875 89.12194 
L 32.91875 89.344145 
L 32.91875 89.566349 
L 32.91875 89.788553 
L 32.91875 90.010758 
L 32.91875 90.232962 
L 32.91875 90.455167 
L 32.91875 90.677371 
L 32.91875 90.899575 
L 32.91875 91.12178 
L 32.91875 91.343984 
L 32.91875 91.566189 
L 32.91875 91.788393 
L 32.91875 92.010597 
L 32.91875 92.232802 
L 32.91875 92.455006 
L 32.91875 92.677211 
L 32.91875 92.899415 
L 32.91875 93.121619 
L 32.91875 93.343824 
L 32.91875 93.566028 
L 32.91875 93.788233 
L 32.91875 94.010437 
L 32.91875 94.232642 
L 32.91875 94.454846 
L 32.91875 94.67705 
L 32.91875 94.899255 
L 32.91875 95.121459 
L 32.91875 95.343664 
L 32.91875 95.565868 
L 32.91875 95.788072 
L 32.91875 96.010277 
L 32.91875 96.232481 
L 32.91875 96.454686 
L 32.91875 96.67689 
L 32.91875 96.899094 
L 32.91875 97.121299 
L 32.91875 97.343503 
L 32.91875 97.565708 
L 32.91875 97.687626 
L 33.093636 97.787912 
L 33.140954 97.814919 
L 33.363159 97.940133 
L 33.489102 98.010116 
L 33.585363 98.063364 
L 33.807568 98.184606 
L 33.896232 98.232321 
L 34.029772 98.303872 
L 34.251976 98.42122 
L 34.315918 98.454525 
L 34.474181 98.536614 
L 34.696385 98.650143 
L 34.749154 98.67673 
L 34.91859 98.761751 
L 35.140794 98.871534 
L 35.197054 98.898934 
L 35.362998 98.979437 
L 35.585203 99.085544 
L 35.660867 99.121139 
L 35.807407 99.189818 
L 36.029612 99.292314 
L 36.141993 99.343343 
L 36.251816 99.39303 
L 36.474021 99.49198 
L 36.642013 99.565547 
L 36.696225 99.589206 
L 36.918429 99.684669 
L 37.140634 99.778457 
L 37.163006 99.787752 
L 37.362838 99.870501 
L 37.585043 99.960885 
L 37.707794 100.009956 
L 37.807247 100.04959 
L 38.029451 100.136622 
L 38.251656 100.222033 
L 38.278459 100.232161 
L 38.47386 100.305774 
L 38.696065 100.387907 
L 38.87935 100.454365 
L 38.918269 100.468437 
L 39.140473 100.547339 
L 39.362678 100.62467 
L 39.514793 100.676569 
L 39.584882 100.700421 
L 39.807087 100.774585 
L 40.029291 100.847204 
L 40.190422 100.898774 
L 40.251495 100.918273 
L 40.4737 100.987785 
L 40.695904 101.055777 
L 40.913832 101.120978 
L 40.918109 101.122255 
L 41.140313 101.187195 
L 41.362518 101.250638 
L 41.584722 101.31259 
L 41.697052 101.343183 
L 41.806926 101.373046 
L 42.029131 101.432012 
L 42.251335 101.489509 
L 42.47354 101.545543 
L 42.554262 101.565387 
L 42.695744 101.600106 
L 42.917948 101.653212 
L 43.140153 101.704874 
L 43.362357 101.755097 
L 43.510289 101.787591 
L 43.584562 101.803881 
L 43.806766 101.851228 
L 44.02897 101.897153 
L 44.251175 101.941661 
L 44.473379 101.984756 
L 44.606793 102.009796 
L 44.695584 102.026439 
L 44.917788 102.066714 
L 45.139992 102.105591 
L 45.362197 102.143074 
L 45.584401 102.179166 
L 45.806606 102.213872 
L 45.927442 102.232 
L 46.02881 102.247193 
L 46.251015 102.279133 
L 46.473219 102.309698 
L 46.695423 102.338891 
L 46.917628 102.366716 
L 47.139832 102.393175 
L 47.362037 102.418271 
L 47.584241 102.442007 
L 47.705326 102.454205 
z
" clip-path="url(#p657be4ca39)" style="fill: #00cd6c; fill-opacity: 0.1"/>
   </g>
   <g id="matplotlib.axis_1">
    <g id="xtick_1">
     <g id="line2d_3">
      <defs>
       <path id="m4cd371f86f" d="M 0 0 
L 0 2.5 
" style="stroke: #000000; stroke-width: 0.6"/>
      </defs>
      <g>
       <use xlink:href="#m4cd371f86f" x="32.91875" y="121.119375" style="stroke: #000000; stroke-width: 0.6"/>
      </g>
     </g>
     <g id="text_1">
      <!-- -3 -->
      <g transform="translate(28.930625 133.198125)scale(0.08 -0.08)">
       <defs>
        <path id="DejaVuSans-2d" d="M 313 2009 
L 1997 2009 
L 1997 1497 
L 313 1497 
L 313 2009 
z
" transform="scale(0.015625)"/>
        <path id="DejaVuSans-33" d="M 2597 2516 
Q 3050 2419 3304 2112 
Q 3559 1806 3559 1356 
Q 3559 666 3084 287 
Q 2609 -91 1734 -91 
Q 1441 -91 1130 -33 
Q 819 25 488 141 
L 488 750 
Q 750 597 1062 519 
Q 1375 441 1716 441 
Q 2309 441 2620 675 
Q 2931 909 2931 1356 
Q 2931 1769 2642 2001 
Q 2353 2234 1838 2234 
L 1294 2234 
L 1294 2753 
L 1863 2753 
Q 2328 2753 2575 2939 
Q 2822 3125 2822 3475 
Q 2822 3834 2567 4026 
Q 2313 4219 1838 4219 
Q 1578 4219 1281 4162 
Q 984 4106 628 3988 
L 628 4550 
Q 988 4650 1302 4700 
Q 1616 4750 1894 4750 
Q 2613 4750 3031 4423 
Q 3450 4097 3450 3541 
Q 3450 3153 3228 2886 
Q 3006 2619 2597 2516 
z
" transform="scale(0.015625)"/>
       </defs>
       <use xlink:href="#DejaVuSans-2d"/>
       <use xlink:href="#DejaVuSans-33" x="36.083984"/>
      </g>
     </g>
    </g>
    <g id="xtick_2">
     <g id="line2d_4">
      <g>
       <use xlink:href="#m4cd371f86f" x="51.39875" y="121.119375" style="stroke: #000000; stroke-width: 0.6"/>
      </g>
     </g>
     <g id="text_2">
      <!-- -2 -->
      <g transform="translate(47.410625 133.198125)scale(0.08 -0.08)">
       <defs>
        <path id="DejaVuSans-32" d="M 1228 531 
L 3431 531 
L 3431 0 
L 469 0 
L 469 531 
Q 828 903 1448 1529 
Q 2069 2156 2228 2338 
Q 2531 2678 2651 2914 
Q 2772 3150 2772 3378 
Q 2772 3750 2511 3984 
Q 2250 4219 1831 4219 
Q 1534 4219 1204 4116 
Q 875 4013 500 3803 
L 500 4441 
Q 881 4594 1212 4672 
Q 1544 4750 1819 4750 
Q 2544 4750 2975 4387 
Q 3406 4025 3406 3419 
Q 3406 3131 3298 2873 
Q 3191 2616 2906 2266 
Q 2828 2175 2409 1742 
Q 1991 1309 1228 531 
z
" transform="scale(0.015625)"/>
       </defs>
       <use xlink:href="#DejaVuSans-2d"/>
       <use xlink:href="#DejaVuSans-32" x="36.083984"/>
      </g>
     </g>
    </g>
    <g id="xtick_3">
     <g id="line2d_5">
      <g>
       <use xlink:href="#m4cd371f86f" x="69.87875" y="121.119375" style="stroke: #000000; stroke-width: 0.6"/>
      </g>
     </g>
     <g id="text_3">
      <!-- -1 -->
      <g transform="translate(65.890625 133.198125)scale(0.08 -0.08)">
       <defs>
        <path id="DejaVuSans-31" d="M 794 531 
L 1825 531 
L 1825 4091 
L 703 3866 
L 703 4441 
L 1819 4666 
L 2450 4666 
L 2450 531 
L 3481 531 
L 3481 0 
L 794 0 
L 794 531 
z
" transform="scale(0.015625)"/>
       </defs>
       <use xlink:href="#DejaVuSans-2d"/>
       <use xlink:href="#DejaVuSans-31" x="36.083984"/>
      </g>
     </g>
    </g>
    <g id="xtick_4">
     <g id="line2d_6">
      <g>
       <use xlink:href="#m4cd371f86f" x="88.35875" y="121.119375" style="stroke: #000000; stroke-width: 0.6"/>
      </g>
     </g>
     <g id="text_4">
      <!-- 0 -->
      <g transform="translate(85.81375 133.198125)scale(0.08 -0.08)">
       <defs>
        <path id="DejaVuSans-30" d="M 2034 4250 
Q 1547 4250 1301 3770 
Q 1056 3291 1056 2328 
Q 1056 1369 1301 889 
Q 1547 409 2034 409 
Q 2525 409 2770 889 
Q 3016 1369 3016 2328 
Q 3016 3291 2770 3770 
Q 2525 4250 2034 4250 
z
M 2034 4750 
Q 2819 4750 3233 4129 
Q 3647 3509 3647 2328 
Q 3647 1150 3233 529 
Q 2819 -91 2034 -91 
Q 1250 -91 836 529 
Q 422 1150 422 2328 
Q 422 3509 836 4129 
Q 1250 4750 2034 4750 
z
" transform="scale(0.015625)"/>
       </defs>
       <use xlink:href="#DejaVuSans-30"/>
      </g>
     </g>
    </g>
    <g id="xtick_5">
     <g id="line2d_7">
      <g>
       <use xlink:href="#m4cd371f86f" x="106.83875" y="121.119375" style="stroke: #000000; stroke-width: 0.6"/>
      </g>
     </g>
     <g id="text_5">
      <!-- 1 -->
      <g transform="translate(104.29375 133.198125)scale(0.08 -0.08)">
       <use xlink:href="#DejaVuSans-31"/>
      </g>
     </g>
    </g>
    <g id="xtick_6">
     <g id="line2d_8">
      <g>
       <use xlink:href="#m4cd371f86f" x="125.31875" y="121.119375" style="stroke: #000000; stroke-width: 0.6"/>
      </g>
     </g>
     <g id="text_6">
      <!-- 2 -->
      <g transform="translate(122.77375 133.198125)scale(0.08 -0.08)">
       <use xlink:href="#DejaVuSans-32"/>
      </g>
     </g>
    </g>
    <g id="xtick_7">
     <g id="line2d_9">
      <g>
       <use xlink:href="#m4cd371f86f" x="143.79875" y="121.119375" style="stroke: #000000; stroke-width: 0.6"/>
      </g>
     </g>
     <g id="text_7">
      <!-- 3 -->
      <g transform="translate(141.25375 133.198125)scale(0.08 -0.08)">
       <use xlink:href="#DejaVuSans-33"/>
      </g>
     </g>
    </g>
    <g id="text_8">
     <!-- $\mathrm{Re}(\lambda)$ -->
     <g transform="translate(77.59875 144.940625)scale(0.08 -0.08)">
      <defs>
       <path id="DejaVuSans-52" d="M 2841 2188 
Q 3044 2119 3236 1894 
Q 3428 1669 3622 1275 
L 4263 0 
L 3584 0 
L 2988 1197 
Q 2756 1666 2539 1819 
Q 2322 1972 1947 1972 
L 1259 1972 
L 1259 0 
L 628 0 
L 628 4666 
L 2053 4666 
Q 2853 4666 3247 4331 
Q 3641 3997 3641 3322 
Q 3641 2881 3436 2590 
Q 3231 2300 2841 2188 
z
M 1259 4147 
L 1259 2491 
L 2053 2491 
Q 2509 2491 2742 2702 
Q 2975 2913 2975 3322 
Q 2975 3731 2742 3939 
Q 2509 4147 2053 4147 
L 1259 4147 
z
" transform="scale(0.015625)"/>
       <path id="DejaVuSans-65" d="M 3597 1894 
L 3597 1613 
L 953 1613 
Q 991 1019 1311 708 
Q 1631 397 2203 397 
Q 2534 397 2845 478 
Q 3156 559 3463 722 
L 3463 178 
Q 3153 47 2828 -22 
Q 2503 -91 2169 -91 
Q 1331 -91 842 396 
Q 353 884 353 1716 
Q 353 2575 817 3079 
Q 1281 3584 2069 3584 
Q 2775 3584 3186 3129 
Q 3597 2675 3597 1894 
z
M 3022 2063 
Q 3016 2534 2758 2815 
Q 2500 3097 2075 3097 
Q 1594 3097 1305 2825 
Q 1016 2553 972 2059 
L 3022 2063 
z
" transform="scale(0.015625)"/>
       <path id="DejaVuSans-28" d="M 1984 4856 
Q 1566 4138 1362 3434 
Q 1159 2731 1159 2009 
Q 1159 1288 1364 580 
Q 1569 -128 1984 -844 
L 1484 -844 
Q 1016 -109 783 600 
Q 550 1309 550 2009 
Q 550 2706 781 3412 
Q 1013 4119 1484 4856 
L 1984 4856 
z
" transform="scale(0.015625)"/>
       <path id="DejaVuSans-Oblique-3bb" d="M 2350 4316 
L 3125 0 
L 2516 0 
L 2038 2588 
L 328 0 
L -281 0 
L 1903 3356 
L 1794 3975 
Q 1725 4369 1391 4369 
L 1091 4369 
L 1184 4863 
L 1550 4856 
Q 2253 4847 2350 4316 
z
" transform="scale(0.015625)"/>
       <path id="DejaVuSans-29" d="M 513 4856 
L 1013 4856 
Q 1481 4119 1714 3412 
Q 1947 2706 1947 2009 
Q 1947 1309 1714 600 
Q 1481 -109 1013 -844 
L 513 -844 
Q 928 -128 1133 580 
Q 1338 1288 1338 2009 
Q 1338 2731 1133 3434 
Q 928 4138 513 4856 
z
" transform="scale(0.015625)"/>
      </defs>
      <use xlink:href="#DejaVuSans-52" transform="translate(0 0.015625)"/>
      <use xlink:href="#DejaVuSans-65" transform="translate(69.482422 0.015625)"/>
      <use xlink:href="#DejaVuSans-28" transform="translate(131.005859 0.015625)"/>
      <use xlink:href="#DejaVuSans-Oblique-3bb" transform="translate(170.019531 0.015625)"/>
      <use xlink:href="#DejaVuSans-29" transform="translate(229.199219 0.015625)"/>
     </g>
    </g>
   </g>
   <g id="matplotlib.axis_2">
    <g id="ytick_1">
     <g id="line2d_10">
      <defs>
       <path id="m56f3a9ced1" d="M 0 0 
L -2.5 0 
" style="stroke: #000000; stroke-width: 0.6"/>
      </defs>
      <g>
       <use xlink:href="#m56f3a9ced1" x="32.91875" y="121.119375" style="stroke: #000000; stroke-width: 0.6"/>
      </g>
     </g>
     <g id="text_9">
      <!-- -3 -->
      <g transform="translate(18.9425 124.15875)scale(0.08 -0.08)">
       <use xlink:href="#DejaVuSans-2d"/>
       <use xlink:href="#DejaVuSans-33" x="36.083984"/>
      </g>
     </g>
    </g>
    <g id="ytick_2">
     <g id="line2d_11">
      <g>
       <use xlink:href="#m56f3a9ced1" x="32.91875" y="102.639375" style="stroke: #000000; stroke-width: 0.6"/>
      </g>
     </g>
     <g id="text_10">
      <!-- -2 -->
      <g transform="translate(18.9425 105.67875)scale(0.08 -0.08)">
       <use xlink:href="#DejaVuSans-2d"/>
       <use xlink:href="#DejaVuSans-32" x="36.083984"/>
      </g>
     </g>
    </g>
    <g id="ytick_3">
     <g id="line2d_12">
      <g>
       <use xlink:href="#m56f3a9ced1" x="32.91875" y="84.159375" style="stroke: #000000; stroke-width: 0.6"/>
      </g>
     </g>
     <g id="text_11">
      <!-- -1 -->
      <g transform="translate(18.9425 87.19875)scale(0.08 -0.08)">
       <use xlink:href="#DejaVuSans-2d"/>
       <use xlink:href="#DejaVuSans-31" x="36.083984"/>
      </g>
     </g>
    </g>
    <g id="ytick_4">
     <g id="line2d_13">
      <g>
       <use xlink:href="#m56f3a9ced1" x="32.91875" y="65.679375" style="stroke: #000000; stroke-width: 0.6"/>
      </g>
     </g>
     <g id="text_12">
      <!-- 0 -->
      <g transform="translate(21.82875 68.71875)scale(0.08 -0.08)">
       <use xlink:href="#DejaVuSans-30"/>
      </g>
     </g>
    </g>
    <g id="ytick_5">
     <g id="line2d_14">
      <g>
       <use xlink:href="#m56f3a9ced1" x="32.91875" y="47.199375" style="stroke: #000000; stroke-width: 0.6"/>
      </g>
     </g>
     <g id="text_13">
      <!-- 1 -->
      <g transform="translate(21.82875 50.23875)scale(0.08 -0.08)">
       <use xlink:href="#DejaVuSans-31"/>
      </g>
     </g>
    </g>
    <g id="ytick_6">
     <g id="line2d_15">
      <g>
       <use xlink:href="#m56f3a9ced1" x="32.91875" y="28.719375" style="stroke: #000000; stroke-width: 0.6"/>
      </g>
     </g>
     <g id="text_14">
      <!-- 2 -->
      <g transform="translate(21.82875 31.75875)scale(0.08 -0.08)">
       <use xlink:href="#DejaVuSans-32"/>
      </g>
     </g>
    </g>
    <g id="ytick_7">
     <g id="line2d_16">
      <g>
       <use xlink:href="#m56f3a9ced1" x="32.91875" y="10.239375" style="stroke: #000000; stroke-width: 0.6"/>
      </g>
     </g>
     <g id="text_15">
      <!-- 3 -->
      <g transform="translate(21.82875 13.27875)scale(0.08 -0.08)">
       <use xlink:href="#DejaVuSans-33"/>
      </g>
     </g>
    </g>
    <g id="text_16">
     <!-- $\mathrm{Im}(\lambda)$ -->
     <g transform="translate(13.27875 76.119375)rotate(-90)scale(0.08 -0.08)">
      <defs>
       <path id="DejaVuSans-49" d="M 628 4666 
L 1259 4666 
L 1259 0 
L 628 0 
L 628 4666 
z
" transform="scale(0.015625)"/>
       <path id="DejaVuSans-6d" d="M 3328 2828 
Q 3544 3216 3844 3400 
Q 4144 3584 4550 3584 
Q 5097 3584 5394 3201 
Q 5691 2819 5691 2113 
L 5691 0 
L 5113 0 
L 5113 2094 
Q 5113 2597 4934 2840 
Q 4756 3084 4391 3084 
Q 3944 3084 3684 2787 
Q 3425 2491 3425 1978 
L 3425 0 
L 2847 0 
L 2847 2094 
Q 2847 2600 2669 2842 
Q 2491 3084 2119 3084 
Q 1678 3084 1418 2786 
Q 1159 2488 1159 1978 
L 1159 0 
L 581 0 
L 581 3500 
L 1159 3500 
L 1159 2956 
Q 1356 3278 1631 3431 
Q 1906 3584 2284 3584 
Q 2666 3584 2933 3390 
Q 3200 3197 3328 2828 
z
" transform="scale(0.015625)"/>
      </defs>
      <use xlink:href="#DejaVuSans-49" transform="translate(0 0.015625)"/>
      <use xlink:href="#DejaVuSans-6d" transform="translate(25.867188 0.015625)"/>
      <use xlink:href="#DejaVuSans-28" transform="translate(123.279297 0.015625)"/>
      <use xlink:href="#DejaVuSans-Oblique-3bb" transform="translate(162.292969 0.015625)"/>
      <use xlink:href="#DejaVuSans-29" transform="translate(221.472656 0.015625)"/>
     </g>
    </g>
   </g>
   <g id="PathCollection_3">
    <path d="M 67.582638 84.016175 
L 67.54501 84.011239 
L 67.360433 83.98698 
L 67.138229 83.955035 
L 66.916025 83.920328 
L 66.69382 83.882843 
L 66.471616 83.842567 
L 66.249411 83.79948 
L 66.198763 83.789034 
L 66.027207 83.753548 
L 65.805003 83.704758 
L 65.582798 83.653094 
L 65.360594 83.598535 
L 65.237854 83.56683 
L 65.138389 83.541039 
L 64.916185 83.480569 
L 64.69398 83.417123 
L 64.471776 83.350677 
L 64.452357 83.344626 
L 64.249572 83.281131 
L 64.027367 83.208509 
L 63.805163 83.13279 
L 63.775839 83.122421 
L 63.582958 83.053844 
L 63.360754 82.971708 
L 63.174484 82.900217 
L 63.13855 82.886342 
L 62.916345 82.797599 
L 62.694141 82.70556 
L 62.62974 82.678012 
L 62.471936 82.610052 
L 62.249732 82.511099 
L 62.129454 82.455808 
L 62.027528 82.408607 
L 61.805323 82.302497 
L 61.665427 82.233603 
L 61.583119 82.192745 
L 61.360914 82.079212 
L 61.232017 82.011399 
L 61.13871 81.961886 
L 60.916506 81.840641 
L 60.824744 81.789195 
L 60.694301 81.715384 
L 60.472097 81.586112 
L 60.440022 81.56699 
L 60.249892 81.452522 
L 60.075727 81.344786 
L 60.027688 81.314762 
L 59.805483 81.172508 
L 59.729364 81.122581 
L 59.583279 81.025707 
L 59.398924 80.900377 
L 59.361075 80.874349 
L 59.13887 80.71809 
L 59.083362 80.678173 
L 58.916666 80.556835 
L 58.78122 80.455968 
L 58.694461 80.390538 
L 58.491135 80.233764 
L 58.472257 80.219015 
L 58.250053 80.041879 
L 58.212784 80.011559 
L 58.027848 79.859014 
L 57.945094 79.789355 
L 57.805644 79.670274 
L 57.687231 79.567151 
L 57.583439 79.475405 
L 57.438637 79.344946 
L 57.361235 79.274127 
L 57.1988 79.122742 
L 57.139031 79.06614 
L 56.967251 78.900537 
L 56.916826 78.851114 
L 56.743558 78.678333 
L 56.694622 78.628691 
L 56.527325 78.456129 
L 56.472417 78.39848 
L 56.318188 78.233924 
L 56.250213 78.160056 
L 56.115814 78.01172 
L 56.028009 77.912956 
L 55.919896 77.789515 
L 55.805804 77.656675 
L 55.730153 77.567311 
L 55.5836 77.390664 
L 55.546326 77.345106 
L 55.368219 77.122902 
L 55.361395 77.114219 
L 55.195806 76.900698 
L 55.139191 76.826068 
L 55.028652 76.678493 
L 54.916986 76.525991 
L 54.866568 76.456289 
L 54.709455 76.234084 
L 54.694782 76.212875 
L 54.557324 76.01188 
L 54.472578 75.884857 
L 54.409773 75.789676 
L 54.266736 75.567471 
L 54.250373 75.541452 
L 54.128271 75.345267 
L 54.028169 75.180037 
L 53.993993 75.123062 
L 53.863998 74.900858 
L 53.805964 74.798952 
L 53.73809 74.678654 
L 53.616156 74.456449 
L 53.58376 74.3958 
L 53.49821 74.234245 
L 53.384018 74.01204 
L 53.361556 73.967095 
L 53.273674 73.789836 
L 53.166933 73.567632 
L 53.139351 73.508487 
L 53.063871 73.345427 
L 52.964313 73.123223 
L 52.917147 73.014497 
L 52.868254 72.901018 
L 52.775633 72.678814 
L 52.694942 72.478157 
L 52.686332 72.456609 
L 52.600426 72.234405 
L 52.517737 72.012201 
L 52.472738 71.88666 
L 52.43828 71.789996 
L 52.362024 71.567792 
L 52.288873 71.345587 
L 52.250534 71.224215 
L 52.218833 71.123383 
L 52.151872 70.901179 
L 52.087918 70.678974 
L 52.028329 70.461828 
L 52.026947 70.45677 
L 51.968975 70.234565 
L 51.913925 70.012361 
L 51.861774 69.790157 
L 51.812502 69.567952 
L 51.806125 69.537486 
L 51.766107 69.345748 
L 51.722547 69.123543 
L 51.6818 68.901339 
L 51.64385 68.679135 
L 51.608679 68.45693 
L 51.58392 68.287225 
L 51.576276 68.234726 
L 51.546627 68.012521 
L 51.519714 67.790317 
L 51.495525 67.568112 
L 51.47405 67.345908 
L 51.45528 67.123704 
L 51.439207 66.901499 
L 51.425823 66.679295 
L 51.415122 66.45709 
L 51.407101 66.234886 
L 51.401756 66.012682 
L 51.399084 65.790477 
L 51.399084 65.568273 
L 51.401756 65.346068 
L 51.407101 65.123864 
L 51.415122 64.90166 
L 51.425823 64.679455 
L 51.439207 64.457251 
L 51.45528 64.235046 
L 51.47405 64.012842 
L 51.495525 63.790638 
L 51.519714 63.568433 
L 51.546627 63.346229 
L 51.576276 63.124024 
L 51.58392 63.071525 
L 51.608679 62.90182 
L 51.64385 62.679615 
L 51.6818 62.457411 
L 51.722547 62.235207 
L 51.766107 62.013002 
L 51.806125 61.821264 
L 51.812502 61.790798 
L 51.861774 61.568593 
L 51.913925 61.346389 
L 51.968975 61.124185 
L 52.026947 60.90198 
L 52.028329 60.896922 
L 52.087918 60.679776 
L 52.151872 60.457571 
L 52.218833 60.235367 
L 52.250534 60.134535 
L 52.288873 60.013163 
L 52.362024 59.790958 
L 52.43828 59.568754 
L 52.472738 59.47209 
L 52.517737 59.346549 
L 52.600426 59.124345 
L 52.686332 58.902141 
L 52.694942 58.880593 
L 52.775633 58.679936 
L 52.868254 58.457732 
L 52.917147 58.344253 
L 52.964313 58.235527 
L 53.063871 58.013323 
L 53.139351 57.850263 
L 53.166933 57.791118 
L 53.273674 57.568914 
L 53.361556 57.391655 
L 53.384018 57.34671 
L 53.49821 57.124505 
L 53.58376 56.96295 
L 53.616156 56.902301 
L 53.73809 56.680096 
L 53.805964 56.559798 
L 53.863998 56.457892 
L 53.993993 56.235688 
L 54.028169 56.178713 
L 54.128271 56.013483 
L 54.250373 55.817298 
L 54.266736 55.791279 
L 54.409773 55.569074 
L 54.472578 55.473893 
L 54.557324 55.34687 
L 54.694782 55.145875 
L 54.709455 55.124666 
L 54.866568 54.902461 
L 54.916986 54.832759 
L 55.028652 54.680257 
L 55.139191 54.532682 
L 55.195806 54.458052 
L 55.361395 54.244531 
L 55.368219 54.235848 
L 55.546326 54.013644 
L 55.5836 53.968086 
L 55.730153 53.791439 
L 55.805804 53.702075 
L 55.919896 53.569235 
L 56.028009 53.445794 
L 56.115814 53.34703 
L 56.250213 53.198694 
L 56.318188 53.124826 
L 56.472417 52.96027 
L 56.527325 52.902621 
L 56.694622 52.730059 
L 56.743558 52.680417 
L 56.916826 52.507636 
L 56.967251 52.458213 
L 57.139031 52.29261 
L 57.1988 52.236008 
L 57.361235 52.084623 
L 57.438637 52.013804 
L 57.583439 51.883345 
L 57.687231 51.791599 
L 57.805644 51.688476 
L 57.945094 51.569395 
L 58.027848 51.499736 
L 58.212784 51.347191 
L 58.250053 51.316871 
L 58.472257 51.139735 
L 58.491135 51.124986 
L 58.694461 50.968212 
L 58.78122 50.902782 
L 58.916666 50.801915 
L 59.083362 50.680577 
L 59.13887 50.64066 
L 59.361075 50.484401 
L 59.398924 50.458373 
L 59.583279 50.333043 
L 59.729364 50.236169 
L 59.805483 50.186242 
L 60.027688 50.043988 
L 60.075727 50.013964 
L 60.249892 49.906228 
L 60.440022 49.79176 
L 60.472097 49.772638 
L 60.694301 49.643366 
L 60.824744 49.569555 
L 60.916506 49.518109 
L 61.13871 49.396864 
L 61.232017 49.347351 
L 61.360914 49.279538 
L 61.583119 49.166005 
L 61.665427 49.125147 
L 61.805323 49.056253 
L 62.027528 48.950143 
L 62.129454 48.902942 
L 62.249732 48.847651 
L 62.471936 48.748698 
L 62.62974 48.680738 
L 62.694141 48.65319 
L 62.916345 48.561151 
L 63.13855 48.472408 
L 63.174484 48.458533 
L 63.360754 48.387042 
L 63.582958 48.304906 
L 63.775839 48.236329 
L 63.805163 48.22596 
L 64.027367 48.150241 
L 64.249572 48.077619 
L 64.452357 48.014124 
L 64.471776 48.008073 
L 64.69398 47.941627 
L 64.916185 47.878181 
L 65.138389 47.817711 
L 65.237854 47.79192 
L 65.360594 47.760215 
L 65.582798 47.705656 
L 65.805003 47.653992 
L 66.027207 47.605202 
L 66.198763 47.569716 
L 66.249411 47.55927 
L 66.471616 47.516183 
L 66.69382 47.475907 
L 66.916025 47.438422 
L 67.138229 47.403715 
L 67.360433 47.37177 
L 67.54501 47.347511 
L 67.582638 47.342575 
L 67.804842 47.316117 
L 68.027047 47.292382 
L 68.249251 47.271359 
L 68.471455 47.253039 
L 68.69366 47.237414 
L 68.915864 47.224478 
L 69.138069 47.214225 
L 69.360273 47.20665 
L 69.582477 47.20175 
L 69.804682 47.199523 
L 70.026886 47.199969 
L 70.249091 47.203086 
L 70.471295 47.208877 
L 70.693499 47.217345 
L 70.915704 47.228492 
L 71.137908 47.242324 
L 71.360113 47.258846 
L 71.582317 47.278066 
L 71.804522 47.299992 
L 72.026726 47.324633 
L 72.212526 47.347511 
L 72.24893 47.352001 
L 72.471135 47.382113 
L 72.693339 47.414977 
L 72.915544 47.450608 
L 73.137748 47.489021 
L 73.359952 47.530232 
L 73.559273 47.569716 
L 73.582157 47.574261 
L 73.804361 47.621148 
L 74.026566 47.670893 
L 74.24877 47.72352 
L 74.470974 47.779048 
L 74.520023 47.79192 
L 74.693179 47.837539 
L 74.915383 47.898998 
L 75.137588 47.963441 
L 75.304697 48.014124 
L 75.359792 48.030911 
L 75.581996 48.101484 
L 75.804201 48.175135 
L 75.98149 48.236329 
L 76.026405 48.251915 
L 76.24861 48.33193 
L 76.470814 48.415131 
L 76.582651 48.458533 
L 76.693019 48.501625 
L 76.915223 48.591463 
L 77.128237 48.680738 
L 77.137427 48.684615 
L 77.359632 48.781304 
L 77.581836 48.881395 
L 77.628266 48.902942 
L 77.804041 48.985123 
L 78.026245 49.092406 
L 78.092134 49.125147 
L 78.248449 49.203447 
L 78.470654 49.31819 
L 78.525613 49.347351 
L 78.692858 49.436863 
L 78.915063 49.559358 
L 78.933104 49.569555 
L 79.137267 49.686027 
L 79.317418 49.79176 
L 79.359471 49.816682 
L 79.581676 49.951664 
L 79.681634 50.013964 
L 79.80388 50.090951 
L 80.026085 50.234573 
L 80.028499 50.236169 
L 80.248289 50.382984 
L 80.358403 50.458373 
L 80.470493 50.536004 
L 80.674304 50.680577 
L 80.692698 50.693783 
L 80.914902 50.856728 
L 80.976335 50.902782 
L 81.137107 51.024844 
L 81.266142 51.124986 
L 81.359311 51.198253 
L 81.544716 51.347191 
L 81.581516 51.37716 
L 81.80372 51.561839 
L 81.812641 51.569395 
L 82.025924 51.752656 
L 82.070372 51.791599 
L 82.248129 51.949687 
L 82.318876 52.013804 
L 82.470333 52.153212 
L 82.558657 52.236008 
L 82.692538 52.36354 
L 82.790181 52.458213 
L 82.914742 52.581007 
L 83.013873 52.680417 
L 83.136946 52.805976 
L 83.230126 52.902621 
L 83.359151 53.038846 
L 83.439298 53.124826 
L 83.581355 53.280048 
L 83.64172 53.34703 
L 83.80356 53.530053 
L 83.837696 53.569235 
L 84.025764 53.789374 
L 84.027503 53.791439 
L 84.211174 54.013644 
L 84.247968 54.059087 
L 84.389149 54.235848 
L 84.470173 54.339485 
L 84.561662 54.458052 
L 84.692377 54.631234 
L 84.728915 54.680257 
L 84.890976 54.902461 
L 84.914582 54.935539 
L 85.04795 55.124666 
L 85.136786 55.253707 
L 85.200193 55.34687 
L 85.3478 55.569074 
L 85.35899 55.586305 
L 85.490686 55.791279 
L 85.581195 55.935888 
L 85.629263 56.013483 
L 85.763499 56.235688 
L 85.803399 56.30344 
L 85.893484 56.457892 
L 86.019477 56.680096 
L 86.025604 56.691176 
L 86.141302 56.902301 
L 86.247808 57.102609 
L 86.259351 57.124505 
L 86.373435 57.34671 
L 86.470013 57.540823 
L 86.483878 57.568914 
L 86.59053 57.791118 
L 86.692217 58.010141 
L 86.693684 58.013323 
L 86.793168 58.235527 
L 86.889262 58.457732 
L 86.914421 58.51781 
L 86.981871 58.679936 
L 87.071135 58.902141 
L 87.136626 59.071175 
L 87.157103 59.124345 
L 87.239749 59.346549 
L 87.319218 59.568754 
L 87.35883 59.683863 
L 87.395492 59.790958 
L 87.468613 60.013163 
L 87.538663 60.235367 
L 87.581035 60.375698 
L 87.605644 60.457571 
L 87.669578 60.679776 
L 87.730533 60.90198 
L 87.788537 61.124185 
L 87.803239 61.183376 
L 87.843583 61.346389 
L 87.895722 61.568593 
L 87.944985 61.790798 
L 87.991394 62.013002 
L 88.025443 62.186556 
L 88.034962 62.235207 
L 88.075703 62.457411 
L 88.113649 62.679615 
L 88.148816 62.90182 
L 88.181219 63.124024 
L 88.210873 63.346229 
L 88.237789 63.568433 
L 88.247648 63.658926 
L 88.261977 63.790638 
L 88.283451 64.012842 
L 88.30222 64.235046 
L 88.318294 64.457251 
L 88.331677 64.679455 
L 88.342377 64.90166 
L 88.350398 65.123864 
L 88.355744 65.346068 
L 88.358416 65.568273 
L 88.358416 65.790477 
L 88.355744 66.012682 
L 88.350398 66.234886 
L 88.342377 66.45709 
L 88.331677 66.679295 
L 88.318294 66.901499 
L 88.30222 67.123704 
L 88.283451 67.345908 
L 88.261977 67.568112 
L 88.247648 67.699824 
L 88.237789 67.790317 
L 88.210873 68.012521 
L 88.181219 68.234726 
L 88.148816 68.45693 
L 88.113649 68.679135 
L 88.075703 68.901339 
L 88.034962 69.123543 
L 88.025443 69.172194 
L 87.991394 69.345748 
L 87.944985 69.567952 
L 87.895722 69.790157 
L 87.843583 70.012361 
L 87.803239 70.175374 
L 87.788537 70.234565 
L 87.730533 70.45677 
L 87.669578 70.678974 
L 87.605644 70.901179 
L 87.581035 70.983052 
L 87.538663 71.123383 
L 87.468613 71.345587 
L 87.395492 71.567792 
L 87.35883 71.674887 
L 87.319218 71.789996 
L 87.239749 72.012201 
L 87.157103 72.234405 
L 87.136626 72.287575 
L 87.071135 72.456609 
L 86.981871 72.678814 
L 86.914421 72.84094 
L 86.889262 72.901018 
L 86.793168 73.123223 
L 86.693684 73.345427 
L 86.692217 73.348609 
L 86.59053 73.567632 
L 86.483878 73.789836 
L 86.470013 73.817927 
L 86.373435 74.01204 
L 86.259351 74.234245 
L 86.247808 74.256141 
L 86.141302 74.456449 
L 86.025604 74.667574 
L 86.019477 74.678654 
L 85.893484 74.900858 
L 85.803399 75.05531 
L 85.763499 75.123062 
L 85.629263 75.345267 
L 85.581195 75.422862 
L 85.490686 75.567471 
L 85.35899 75.772445 
L 85.3478 75.789676 
L 85.200193 76.01188 
L 85.136786 76.105043 
L 85.04795 76.234084 
L 84.914582 76.423211 
L 84.890976 76.456289 
L 84.728915 76.678493 
L 84.692377 76.727516 
L 84.561662 76.900698 
L 84.470173 77.019265 
L 84.389149 77.122902 
L 84.247968 77.299663 
L 84.211174 77.345106 
L 84.027503 77.567311 
L 84.025764 77.569376 
L 83.837696 77.789515 
L 83.80356 77.828697 
L 83.64172 78.01172 
L 83.581355 78.078702 
L 83.439298 78.233924 
L 83.359151 78.319904 
L 83.230126 78.456129 
L 83.136946 78.552774 
L 83.013873 78.678333 
L 82.914742 78.777743 
L 82.790181 78.900537 
L 82.692538 78.99521 
L 82.558657 79.122742 
L 82.470333 79.205538 
L 82.318876 79.344946 
L 82.248129 79.409063 
L 82.070372 79.567151 
L 82.025924 79.606094 
L 81.812641 79.789355 
L 81.80372 79.796911 
L 81.581516 79.98159 
L 81.544716 80.011559 
L 81.359311 80.160497 
L 81.266142 80.233764 
L 81.137107 80.333906 
L 80.976335 80.455968 
L 80.914902 80.502022 
L 80.692698 80.664967 
L 80.674304 80.678173 
L 80.470493 80.822746 
L 80.358403 80.900377 
L 80.248289 80.975766 
L 80.028499 81.122581 
L 80.026085 81.124177 
L 79.80388 81.267799 
L 79.681634 81.344786 
L 79.581676 81.407086 
L 79.359471 81.542068 
L 79.317418 81.56699 
L 79.137267 81.672723 
L 78.933104 81.789195 
L 78.915063 81.799392 
L 78.692858 81.921887 
L 78.525613 82.011399 
L 78.470654 82.04056 
L 78.248449 82.155303 
L 78.092134 82.233603 
L 78.026245 82.266344 
L 77.804041 82.373627 
L 77.628266 82.455808 
L 77.581836 82.477355 
L 77.359632 82.577446 
L 77.137427 82.674135 
L 77.128237 82.678012 
L 76.915223 82.767287 
L 76.693019 82.857125 
L 76.582651 82.900217 
L 76.470814 82.943619 
L 76.24861 83.02682 
L 76.026405 83.106835 
L 75.98149 83.122421 
L 75.804201 83.183615 
L 75.581996 83.257266 
L 75.359792 83.327839 
L 75.304697 83.344626 
L 75.137588 83.395309 
L 74.915383 83.459752 
L 74.693179 83.521211 
L 74.520023 83.56683 
L 74.470974 83.579702 
L 74.24877 83.63523 
L 74.026566 83.687857 
L 73.804361 83.737602 
L 73.582157 83.784489 
L 73.559273 83.789034 
L 73.359952 83.828518 
L 73.137748 83.869729 
L 72.915544 83.908142 
L 72.693339 83.943773 
L 72.471135 83.976637 
L 72.24893 84.006749 
L 72.212526 84.011239 
L 72.026726 84.034117 
L 71.804522 84.058758 
L 71.582317 84.080684 
L 71.360113 84.099904 
L 71.137908 84.116426 
L 70.915704 84.130258 
L 70.693499 84.141405 
L 70.471295 84.149873 
L 70.249091 84.155664 
L 70.026886 84.158781 
L 69.804682 84.159227 
L 69.582477 84.157 
L 69.360273 84.1521 
L 69.138069 84.144525 
L 68.915864 84.134272 
L 68.69366 84.121336 
L 68.471455 84.105711 
L 68.249251 84.087391 
L 68.027047 84.066368 
L 67.804842 84.042633 
L 67.582638 84.016175 
z
" clip-path="url(#p657be4ca39)" style="fill: none; stroke: #00cd6c"/>
   </g>
   <g id="PathCollection_4">
    <path d="M 32.91875 33.671124 
L 35.362998 32.379313 
L 38.029451 31.222128 
L 40.695904 30.302973 
L 43.510289 29.571159 
L 46.251015 29.079617 
L 49.139672 28.78848 
L 52.028329 28.724738 
L 54.916986 28.887208 
L 57.805644 29.278922 
L 60.694301 29.907409 
L 63.360754 30.708651 
L 66.027207 31.737537 
L 68.69366 33.015557 
L 71.181701 34.459656 
L 73.582157 36.117006 
L 75.804201 37.923108 
L 77.804041 39.818214 
L 79.80388 42.032218 
L 81.581516 44.347848 
L 83.136946 46.739433 
L 84.470173 49.177391 
L 85.650316 51.791599 
L 86.614123 54.458052 
L 87.35883 57.140576 
L 87.92183 60.013163 
L 88.254235 62.90182 
L 88.358583 65.790477 
L 88.236815 68.679135 
L 87.886664 71.567792 
L 87.301452 74.456449 
L 86.542544 77.122902 
L 85.559391 79.789355 
L 84.331872 82.455808 
L 82.914742 84.986765 
L 81.34322 87.344305 
L 79.581676 89.590909 
L 77.558997 91.788393 
L 75.359792 93.820226 
L 73.137748 95.57013 
L 70.693499 97.203193 
L 68.249251 98.574658 
L 65.582798 99.809329 
L 62.916345 100.798962 
L 60.243776 101.565387 
L 57.361235 102.155259 
L 54.472578 102.511333 
L 51.58392 102.638911 
L 48.695263 102.540367 
L 45.806606 102.213872 
L 42.917948 101.653212 
L 40.190422 100.898774 
L 37.585043 99.960885 
L 34.91859 98.761751 
L 32.91875 97.687626 
L 32.91875 97.687626 
" clip-path="url(#p657be4ca39)" style="fill: none; stroke: #00cd6c"/>
   </g>
   <g id="patch_3">
    <path d="M 32.91875 121.119375 
L 32.91875 10.239375 
" style="fill: none; stroke: #000000; stroke-width: 0.6; stroke-linejoin: miter; stroke-linecap: square"/>
   </g>
   <g id="patch_4">
    <path d="M 32.91875 121.119375 
L 143.79875 121.119375 
" style="fill: none; stroke: #000000; stroke-width: 0.6; stroke-linejoin: miter; stroke-linecap: square"/>
   </g>
   <g id="text_17">
    <!-- $h=1$ -->
    <g transform="translate(59.11875 60.135375)scale(0.08 -0.08)">
     <defs>
      <path id="DejaVuSans-Oblique-68" d="M 3566 2113 
L 3156 0 
L 2578 0 
L 2988 2091 
Q 3016 2238 3031 2350 
Q 3047 2463 3047 2528 
Q 3047 2791 2881 2937 
Q 2716 3084 2419 3084 
Q 1956 3084 1617 2771 
Q 1278 2459 1178 1941 
L 800 0 
L 225 0 
L 1172 4863 
L 1747 4863 
L 1375 2950 
Q 1594 3244 1934 3414 
Q 2275 3584 2650 3584 
Q 3113 3584 3367 3334 
Q 3622 3084 3622 2631 
Q 3622 2519 3608 2391 
Q 3594 2263 3566 2113 
z
" transform="scale(0.015625)"/>
      <path id="DejaVuSans-3d" d="M 678 2906 
L 4684 2906 
L 4684 2381 
L 678 2381 
L 678 2906 
z
M 678 1631 
L 4684 1631 
L 4684 1100 
L 678 1100 
L 678 1631 
z
" transform="scale(0.015625)"/>
     </defs>
     <use xlink:href="#DejaVuSans-Oblique-68" transform="translate(0 0.015625)"/>
     <use xlink:href="#DejaVuSans-3d" transform="translate(82.861328 0.015625)"/>
     <use xlink:href="#DejaVuSans-31" transform="translate(186.132812 0.015625)"/>
    </g>
   </g>
   <g id="text_18">
    <!-- $h=0.5$ -->
    <g transform="translate(40.35075 41.655375)scale(0.08 -0.08)">
     <defs>
      <path id="DejaVuSans-2e" d="M 684 794 
L 1344 794 
L 1344 0 
L 684 0 
L 684 794 
z
" transform="scale(0.015625)"/>
      <path id="DejaVuSans-35" d="M 691 4666 
L 3169 4666 
L 3169 4134 
L 1269 4134 
L 1269 2991 
Q 1406 3038 1543 3061 
Q 1681 3084 1819 3084 
Q 2600 3084 3056 2656 
Q 3513 2228 3513 1497 
Q 3513 744 3044 326 
Q 2575 -91 1722 -91 
Q 1428 -91 1123 -41 
Q 819 9 494 109 
L 494 744 
Q 775 591 1075 516 
Q 1375 441 1709 441 
Q 2250 441 2565 725 
Q 2881 1009 2881 1497 
Q 2881 1984 2565 2268 
Q 2250 2553 1709 2553 
Q 1456 2553 1204 2497 
Q 953 2441 691 2322 
L 691 4666 
z
" transform="scale(0.015625)"/>
     </defs>
     <use xlink:href="#DejaVuSans-Oblique-68" transform="translate(0 0.015625)"/>
     <use xlink:href="#DejaVuSans-3d" transform="translate(82.861328 0.015625)"/>
     <use xlink:href="#DejaVuSans-30" transform="translate(186.132812 0.015625)"/>
     <use xlink:href="#DejaVuSans-2e" transform="translate(249.755859 0.015625)"/>
     <use xlink:href="#DejaVuSans-35" transform="translate(281.542969 0.015625)"/>
    </g>
   </g>
  </g>
 </g>
 <defs>
  <clipPath id="p657be4ca39">
   <rect x="32.91875" y="10.239375" width="110.88" height="110.88"/>
  </clipPath>
 </defs>
</svg>
