<?xml version="1.0" encoding="utf-8" standalone="no"?>
<!DOCTYPE svg PUBLIC "-//W3C//DTD SVG 1.1//EN"
  "http://www.w3.org/Graphics/SVG/1.1/DTD/svg11.dtd">
<svg xmlns:xlink="http://www.w3.org/1999/xlink" width="153.54375pt" height="153.804375pt" viewBox="0 0 153.54375 153.804375" xmlns="http://www.w3.org/2000/svg" version="1.1">
 <metadata>
  <rdf:RDF xmlns:dc="http://purl.org/dc/elements/1.1/" xmlns:cc="http://creativecommons.org/ns#" xmlns:rdf="http://www.w3.org/1999/02/22-rdf-syntax-ns#">
   <cc:Work>
    <dc:type rdf:resource="http://purl.org/dc/dcmitype/StillImage"/>
    <dc:format>image/svg+xml</dc:format>
    <dc:creator>
     <cc:Agent>
      <dc:title>Matplotlib v3.5.2, https://matplotlib.org/</dc:title>
     </cc:Agent>
    </dc:creator>
   </cc:Work>
  </rdf:RDF>
 </metadata>
 <defs>
  <style type="text/css">*{stroke-linejoin: round; stroke-linecap: butt}</style>
 </defs>
 <g id="figure_1">
  <g id="patch_1">
   <path d="M 0 153.804375 
L 153.54375 153.804375 
L 153.54375 0 
L 0 0 
L 0 153.804375 
z
" style="fill: none"/>
  </g>
  <g id="axes_1">
   <g id="patch_2">
    <path d="M 32.91875 121.119375 
L 143.79875 121.119375 
L 143.79875 10.239375 
L 32.91875 10.239375 
L 32.91875 121.119375 
z
" style="fill: none"/>
   </g>
   <g id="line2d_1">
    <path d="M 88.35875 121.119375 
L 88.35875 10.239375 
" clip-path="url(#p657be4ca39)" style="fill: none; stroke: #000000; stroke-width: 0.5; stroke-linecap: square"/>
   </g>
   <g id="line2d_2">
    <path d="M 32.91875 65.679375 
L 143.79875 65.679375 
" clip-path="url(#p657be4ca39)" style="fill: none; stroke: #000000; stroke-width: 0.5; stroke-linecap: square"/>
   </g>
   <g id="PathCollection_1">
    <path d="M 67.582638 84.016175 
L 67.804842 84.042633 
L 68.027047 84.066368 
L 68.249251 84.087391 
L 68.471455 84.105711 
L 68.69366 84.121336 
L 68.915864 84.134272 
L 69.138069 84.144525 
L 69.360273 84.1521 
L 69.582477 84.157 
L 69.804682 84.159227 
L 70.026886 84.158781 
L 70.249091 84.155664 
L 70.471295 84.149873 
L 70.693499 84.141405 
L 70.915704 84.130258 
L 71.137908 84.116426 
L 71.360113 84.099904 
L 71.582317 84.080684 
L 71.804522 84.058758 
L 72.026726 84.034117 
L 72.212526 84.011239 
L 72.24893 84.006749 
L 72.471135 83.976637 
L 72.693339 83.943773 
L 72.915544 83.908142 
L 73.137748 83.869729 
L 73.359952 83.828518 
L 73.559273 83.789034 
L 73.582157 83.784489 
L 73.804361 83.737602 
L 74.026566 83.687857 
L 74.24877 83.63523 
L 74.470974 83.579702 
L 74.520023 83.56683 
L 74.693179 83.521211 
L 74.915383 83.459752 
L 75.137588 83.395309 
L 75.304697 83.344626 
L 75.359792 83.327839 
L 75.581996 83.257266 
L 75.804201 83.183615 
L 75.98149 83.122421 
L 76.026405 83.106835 
L 76.24861 83.02682 
L 76.470814 82.943619 
L 76.582651 82.900217 
L 76.693019 82.857125 
L 76.915223 82.767287 
L 77.128237 82.678012 
L 77.137427 82.674135 
L 77.359632 82.577446 
L 77.581836 82.477355 
L 77.628266 82.455808 
L 77.804041 82.373627 
L 78.026245 82.266344 
L 78.092134 82.233603 
L 78.248449 82.155303 
L 78.470654 82.04056 
L 78.525613 82.011399 
L 78.692858 81.921887 
L 78.915063 81.799392 
L 78.933104 81.789195 
L 79.137267 81.672723 
L 79.317418 81.56699 
L 79.359471 81.542068 
L 79.581676 81.407086 
L 79.681634 81.344786 
L 79.80388 81.267799 
L 80.026085 81.124177 
L 80.028499 81.122581 
L 80.248289 80.975766 
L 80.358403 80.900377 
L 80.470493 80.822746 
L 80.674304 80.678173 
L 80.692698 80.664967 
L 80.914902 80.502022 
L 80.976335 80.455968 
L 81.137107 80.333906 
L 81.266142 80.233764 
L 81.359311 80.160497 
L 81.544716 80.011559 
L 81.581516 79.98159 
L 81.80372 79.796911 
L 81.812641 79.789355 
L 82.025924 79.606094 
L 82.070372 79.567151 
L 82.248129 79.409063 
L 82.318876 79.344946 
L 82.470333 79.205538 
L 82.558657 79.122742 
L 82.692538 78.99521 
L 82.790181 78.900537 
L 82.914742 78.777743 
L 83.013873 78.678333 
L 83.136946 78.552774 
L 83.230126 78.456129 
L 83.359151 78.319904 
L 83.439298 78.233924 
L 83.581355 78.078702 
L 83.64172 78.01172 
L 83.80356 77.828697 
L 83.837696 77.789515 
L 84.025764 77.569376 
L 84.027503 77.567311 
L 84.211174 77.345106 
L 84.247968 77.299663 
L 84.389149 77.122902 
L 84.470173 77.019265 
L 84.561662 76.900698 
L 84.692377 76.727516 
L 84.728915 76.678493 
L 84.890976 76.456289 
L 84.914582 76.423211 
L 85.04795 76.234084 
L 85.136786 76.105043 
L 85.200193 76.01188 
L 85.3478 75.789676 
L 85.35899 75.772445 
L 85.490686 75.567471 
L 85.581195 75.422862 
L 85.629263 75.345267 
L 85.763499 75.123062 
L 85.803399 75.05531 
L 85.893484 74.900858 
L 86.019477 74.678654 
L 86.025604 74.667574 
L 86.141302 74.456449 
L 86.247808 74.256141 
L 86.259351 74.234245 
L 86.373435 74.01204 
L 86.470013 73.817927 
L 86.483878 73.789836 
L 86.59053 73.567632 
L 86.692217 73.348609 
L 86.693684 73.345427 
L 86.793168 73.123223 
L 86.889262 72.901018 
L 86.914421 72.84094 
L 86.981871 72.678814 
L 87.071135 72.456609 
L 87.136626 72.287575 
L 87.157103 72.234405 
L 87.239749 72.012201 
L 87.319218 71.789996 
L 87.35883 71.674887 
L 87.395492 71.567792 
L 87.468613 71.345587 
L 87.538663 71.123383 
L 87.581035 70.983052 
L 87.605644 70.901179 
L 87.669578 70.678974 
L 87.730533 70.45677 
L 87.788537 70.234565 
L 87.803239 70.175374 
L 87.843583 70.012361 
L 87.895722 69.790157 
L 87.944985 69.567952 
L 87.991394 69.345748 
L 88.025443 69.172194 
L 88.034962 69.123543 
L 88.075703 68.901339 
L 88.113649 68.679135 
L 88.148816 68.45693 
L 88.181219 68.234726 
L 88.210873 68.012521 
L 88.237789 67.790317 
L 88.247648 67.699824 
L 88.261977 67.568112 
L 88.283451 67.345908 
L 88.30222 67.123704 
L 88.318294 66.901499 
L 88.331677 66.679295 
L 88.342377 66.45709 
L 88.350398 66.234886 
L 88.355744 66.012682 
L 88.358416 65.790477 
L 88.358416 65.568273 
L 88.355744 65.346068 
L 88.350398 65.123864 
L 88.342377 64.90166 
L 88.331677 64.679455 
L 88.318294 64.457251 
L 88.30222 64.235046 
L 88.283451 64.012842 
L 88.261977 63.790638 
L 88.247648 63.658926 
L 88.237789 63.568433 
L 88.210873 63.346229 
L 88.181219 63.124024 
L 88.148816 62.90182 
L 88.113649 62.679615 
L 88.075703 62.457411 
L 88.034962 62.235207 
L 88.025443 62.186556 
L 87.991394 62.013002 
L 87.944985 61.790798 
L 87.895722 61.568593 
L 87.843583 61.346389 
L 87.803239 61.183376 
L 87.788537 61.124185 
L 87.730533 60.90198 
L 87.669578 60.679776 
L 87.605644 60.457571 
L 87.581035 60.375698 
L 87.538663 60.235367 
L 87.468613 60.013163 
L 87.395492 59.790958 
L 87.35883 59.683863 
L 87.319218 59.568754 
L 87.239749 59.346549 
L 87.157103 59.124345 
L 87.136626 59.071175 
L 87.071135 58.902141 
L 86.981871 58.679936 
L 86.914421 58.51781 
L 86.889262 58.457732 
L 86.793168 58.235527 
L 86.693684 58.013323 
L 86.692217 58.010141 
L 86.59053 57.791118 
L 86.483878 57.568914 
L 86.470013 57.540823 
L 86.373435 57.34671 
L 86.259351 57.124505 
L 86.247808 57.102609 
L 86.141302 56.902301 
L 86.025604 56.691176 
L 86.019477 56.680096 
L 85.893484 56.457892 
L 85.803399 56.30344 
L 85.763499 56.235688 
L 85.629263 56.013483 
L 85.581195 55.935888 
L 85.490686 55.791279 
L 85.35899 55.586305 
L 85.3478 55.569074 
L 85.200193 55.34687 
L 85.136786 55.253707 
L 85.04795 55.124666 
L 84.914582 54.935539 
L 84.890976 54.902461 
L 84.728915 54.680257 
L 84.692377 54.631234 
L 84.561662 54.458052 
L 84.470173 54.339485 
L 84.389149 54.235848 
L 84.247968 54.059087 
L 84.211174 54.013644 
L 84.027503 53.791439 
L 84.025764 53.789374 
L 83.837696 53.569235 
L 83.80356 53.530053 
L 83.64172 53.34703 
L 83.581355 53.280048 
L 83.439298 53.124826 
L 83.359151 53.038846 
L 83.230126 52.902621 
L 83.136946 52.805976 
L 83.013873 52.680417 
L 82.914742 52.581007 
L 82.790181 52.458213 
L 82.692538 52.36354 
L 82.558657 52.236008 
L 82.470333 52.153212 
L 82.318876 52.013804 
L 82.248129 51.949687 
L 82.070372 51.791599 
L 82.025924 51.752656 
L 81.812641 51.569395 
L 81.80372 51.561839 
L 81.581516 51.37716 
L 81.544716 51.347191 
L 81.359311 51.198253 
L 81.266142 51.124986 
L 81.137107 51.024844 
L 80.976335 50.902782 
L 80.914902 50.856728 
L 80.692698 50.693783 
L 80.674304 50.680577 
L 80.470493 50.536004 
L 80.358403 50.458373 
L 80.248289 50.382984 
L 80.028499 50.236169 
L 80.026085 50.234573 
L 79.80388 50.090951 
L 79.681634 50.013964 
L 79.581676 49.951664 
L 79.359471 49.816682 
L 79.317418 49.79176 
L 79.137267 49.686027 
L 78.933104 49.569555 
L 78.915063 49.559358 
L 78.692858 49.436863 
L 78.525613 49.347351 
L 78.470654 49.31819 
L 78.248449 49.203447 
L 78.092134 49.125147 
L 78.026245 49.092406 
L 77.804041 48.985123 
L 77.628266 48.902942 
L 77.581836 48.881395 
L 77.359632 48.781304 
L 77.137427 48.684615 
L 77.128237 48.680738 
L 76.915223 48.591463 
L 76.693019 48.501625 
L 76.582651 48.458533 
L 76.470814 48.415131 
L 76.24861 48.33193 
L 76.026405 48.251915 
L 75.98149 48.236329 
L 75.804201 48.175135 
L 75.581996 48.101484 
L 75.359792 48.030911 
L 75.304697 48.014124 
L 75.137588 47.963441 
L 74.915383 47.898998 
L 74.693179 47.837539 
L 74.520023 47.79192 
L 74.470974 47.779048 
L 74.24877 47.72352 
L 74.026566 47.670893 
L 73.804361 47.621148 
L 73.582157 47.574261 
L 73.559273 47.569716 
L 73.359952 47.530232 
L 73.137748 47.489021 
L 72.915544 47.450608 
L 72.693339 47.414977 
L 72.471135 47.382113 
L 72.24893 47.352001 
L 72.212526 47.347511 
L 72.026726 47.324633 
L 71.804522 47.299992 
L 71.582317 47.278066 
L 71.360113 47.258846 
L 71.137908 47.242324 
L 70.915704 47.228492 
L 70.693499 47.217345 
L 70.471295 47.208877 
L 70.249091 47.203086 
L 70.026886 47.199969 
L 69.804682 47.199523 
L 69.582477 47.20175 
L 69.360273 47.20665 
L 69.138069 47.214225 
L 68.915864 47.224478 
L 68.69366 47.237414 
L 68.471455 47.253039 
L 68.249251 47.271359 
L 68.027047 47.292382 
L 67.804842 47.316117 
L 67.582638 47.342575 
L 67.54501 47.347511 
L 67.360433 47.37177 
L 67.138229 47.403715 
L 66.916025 47.438422 
L 66.69382 47.475907 
L 66.471616 47.516183 
L 66.249411 47.55927 
L 66.198763 47.569716 
L 66.027207 47.605202 
L 65.805003 47.653992 
L 65.582798 47.705656 
L 65.360594 47.760215 
L 65.237854 47.79192 
L 65.138389 47.817711 
L 64.916185 47.878181 
L 64.69398 47.941627 
L 64.471776 48.008073 
L 64.452357 48.014124 
L 64.249572 48.077619 
L 64.027367 48.150241 
L 63.805163 48.22596 
L 63.775839 48.236329 
L 63.582958 48.304906 
L 63.360754 48.387042 
L 63.174484 48.458533 
L 63.13855 48.472408 
L 62.916345 48.561151 
L 62.694141 48.65319 
L 62.62974 48.680738 
L 62.471936 48.748698 
L 62.249732 48.847651 
L 62.129454 48.902942 
L 62.027528 48.950143 
L 61.805323 49.056253 
L 61.665427 49.125147 
L 61.583119 49.166005 
L 61.360914 49.279538 
L 61.232017 49.347351 
L 61.13871 49.396864 
L 60.916506 49.518109 
L 60.824744 49.569555 
L 60.694301 49.643366 
L 60.472097 49.772638 
L 60.440022 49.79176 
L 60.249892 49.906228 
L 60.075727 50.013964 
L 60.027688 50.043988 
L 59.805483 50.186242 
L 59.729364 50.236169 
L 59.583279 50.333043 
L 59.398924 50.458373 
L 59.361075 50.484401 
L 59.13887 50.64066 
L 59.083362 50.680577 
L 58.916666 50.801915 
L 58.78122 50.902782 
L 58.694461 50.968212 
L 58.491135 51.124986 
L 58.472257 51.139735 
L 58.250053 51.316871 
L 58.212784 51.347191 
L 58.027848 51.499736 
L 57.945094 51.569395 
L 57.805644 51.688476 
L 57.687231 51.791599 
L 57.583439 51.883345 
L 57.438637 52.013804 
L 57.361235 52.084623 
L 57.1988 52.236008 
L 57.139031 52.29261 
L 56.967251 52.458213 
L 56.916826 52.507636 
L 56.743558 52.680417 
L 56.694622 52.730059 
L 56.527325 52.902621 
L 56.472417 52.96027 
L 56.318188 53.124826 
L 56.250213 53.198694 
L 56.115814 53.34703 
L 56.028009 53.445794 
L 55.919896 53.569235 
L 55.805804 53.702075 
L 55.730153 53.791439 
L 55.5836 53.968086 
L 55.546326 54.013644 
L 55.368219 54.235848 
L 55.361395 54.244531 
L 55.195806 54.458052 
L 55.139191 54.532682 
L 55.028652 54.680257 
L 54.916986 54.832759 
L 54.866568 54.902461 
L 54.709455 55.124666 
L 54.694782 55.145875 
L 54.557324 55.34687 
L 54.472578 55.473893 
L 54.409773 55.569074 
L 54.266736 55.791279 
L 54.250373 55.817298 
L 54.128271 56.013483 
L 54.028169 56.178713 
L 53.993993 56.235688 
L 53.863998 56.457892 
L 53.805964 56.559798 
L 53.73809 56.680096 
L 53.616156 56.902301 
L 53.58376 56.96295 
L 53.49821 57.124505 
L 53.384018 57.34671 
L 53.361556 57.391655 
L 53.273674 57.568914 
L 53.166933 57.791118 
L 53.139351 57.850263 
L 53.063871 58.013323 
L 52.964313 58.235527 
L 52.917147 58.344253 
L 52.868254 58.457732 
L 52.775633 58.679936 
L 52.694942 58.880593 
L 52.686332 58.902141 
L 52.600426 59.124345 
L 52.517737 59.346549 
L 52.472738 59.47209 
L 52.43828 59.568754 
L 52.362024 59.790958 
L 52.288873 60.013163 
L 52.250534 60.134535 
L 52.218833 60.235367 
L 52.151872 60.457571 
L 52.087918 60.679776 
L 52.028329 60.896922 
L 52.026947 60.90198 
L 51.968975 61.124185 
L 51.913925 61.346389 
L 51.861774 61.568593 
L 51.812502 61.790798 
L 51.806125 61.821264 
L 51.766107 62.013002 
L 51.722547 62.235207 
L 51.6818 62.457411 
L 51.64385 62.679615 
L 51.608679 62.90182 
L 51.58392 63.071525 
L 51.576276 63.124024 
L 51.546627 63.346229 
L 51.519714 63.568433 
L 51.495525 63.790638 
L 51.47405 64.012842 
L 51.45528 64.235046 
L 51.439207 64.457251 
L 51.425823 64.679455 
L 51.415122 64.90166 
L 51.407101 65.123864 
L 51.401756 65.346068 
L 51.399084 65.568273 
L 51.399084 65.790477 
L 51.401756 66.012682 
L 51.407101 66.234886 
L 51.415122 66.45709 
L 51.425823 66.679295 
L 51.439207 66.901499 
L 51.45528 67.123704 
L 51.47405 67.345908 
L 51.495525 67.568112 
L 51.519714 67.790317 
L 51.546627 68.012521 
L 51.576276 68.234726 
L 51.58392 68.287225 
L 51.608679 68.45693 
L 51.64385 68.679135 
L 51.6818 68.901339 
L 51.722547 69.123543 
L 51.766107 69.345748 
L 51.806125 69.537486 
L 51.812502 69.567952 
L 51.861774 69.790157 
L 51.913925 70.012361 
L 51.968975 70.234565 
L 52.026947 70.45677 
L 52.028329 70.461828 
L 52.087918 70.678974 
L 52.151872 70.901179 
L 52.218833 71.123383 
L 52.250534 71.224215 
L 52.288873 71.345587 
L 52.362024 71.567792 
L 52.43828 71.789996 
L 52.472738 71.88666 
L 52.517737 72.012201 
L 52.600426 72.234405 
L 52.686332 72.456609 
L 52.694942 72.478157 
L 52.775633 72.678814 
L 52.868254 72.901018 
L 52.917147 73.014497 
L 52.964313 73.123223 
L 53.063871 73.345427 
L 53.139351 73.508487 
L 53.166933 73.567632 
L 53.273674 73.789836 
L 53.361556 73.967095 
L 53.384018 74.01204 
L 53.49821 74.234245 
L 53.58376 74.3958 
L 53.616156 74.456449 
L 53.73809 74.678654 
L 53.805964 74.798952 
L 53.863998 74.900858 
L 53.993993 75.123062 
L 54.028169 75.180037 
L 54.128271 75.345267 
L 54.250373 75.541452 
L 54.266736 75.567471 
L 54.409773 75.789676 
L 54.472578 75.884857 
L 54.557324 76.01188 
L 54.694782 76.212875 
L 54.709455 76.234084 
L 54.866568 76.456289 
L 54.916986 76.525991 
L 55.028652 76.678493 
L 55.139191 76.826068 
L 55.195806 76.900698 
L 55.361395 77.114219 
L 55.368219 77.122902 
L 55.546326 77.345106 
L 55.5836 77.390664 
L 55.730153 77.567311 
L 55.805804 77.656675 
L 55.919896 77.789515 
L 56.028009 77.912956 
L 56.115814 78.01172 
L 56.250213 78.160056 
L 56.318188 78.233924 
L 56.472417 78.39848 
L 56.527325 78.456129 
L 56.694622 78.628691 
L 56.743558 78.678333 
L 56.916826 78.851114 
L 56.967251 78.900537 
L 57.139031 79.06614 
L 57.1988 79.122742 
L 57.361235 79.274127 
L 57.438637 79.344946 
L 57.583439 79.475405 
L 57.687231 79.567151 
L 57.805644 79.670274 
L 57.945094 79.789355 
L 58.027848 79.859014 
L 58.212784 80.011559 
L 58.250053 80.041879 
L 58.472257 80.219015 
L 58.491135 80.233764 
L 58.694461 80.390538 
L 58.78122 80.455968 
L 58.916666 80.556835 
L 59.083362 80.678173 
L 59.13887 80.71809 
L 59.361075 80.874349 
L 59.398924 80.900377 
L 59.583279 81.025707 
L 59.729364 81.122581 
L 59.805483 81.172508 
L 60.027688 81.314762 
L 60.075727 81.344786 
L 60.249892 81.452522 
L 60.440022 81.56699 
L 60.472097 81.586112 
L 60.694301 81.715384 
L 60.824744 81.789195 
L 60.916506 81.840641 
L 61.13871 81.961886 
L 61.232017 82.011399 
L 61.360914 82.079212 
L 61.583119 82.192745 
L 61.665427 82.233603 
L 61.805323 82.302497 
L 62.027528 82.408607 
L 62.129454 82.455808 
L 62.249732 82.511099 
L 62.471936 82.610052 
L 62.62974 82.678012 
L 62.694141 82.70556 
L 62.916345 82.797599 
L 63.13855 82.886342 
L 63.174484 82.900217 
L 63.360754 82.971708 
L 63.582958 83.053844 
L 63.775839 83.122421 
L 63.805163 83.13279 
L 64.027367 83.208509 
L 64.249572 83.281131 
L 64.452357 83.344626 
L 64.471776 83.350677 
L 64.69398 83.417123 
L 64.916185 83.480569 
L 65.138389 83.541039 
L 65.237854 83.56683 
L 65.360594 83.598535 
L 65.582798 83.653094 
L 65.805003 83.704758 
L 66.027207 83.753548 
L 66.198763 83.789034 
L 66.249411 83.79948 
L 66.471616 83.842567 
L 66.69382 83.882843 
L 66.916025 83.920328 
L 67.138229 83.955035 
L 67.360433 83.98698 
L 67.54501 84.011239 
z
" clip-path="url(#p657be4ca39)" style="fill: #00cd6c; fill-opacity: 0.1"/>
   </g>
   <g id="matplotlib.axis_1">
    <g id="xtick_1">
     <g id="line2d_3">
      <defs>
       <path id="m4cd371f86f" d="M 0 0 
L 0 2.5 
" style="stroke: #000000; stroke-width: 0.6"/>
      </defs>
      <g>
       <use xlink:href="#m4cd371f86f" x="32.91875" y="121.119375" style="stroke: #000000; stroke-width: 0.6"/>
      </g>
     </g>
     <g id="text_1">
      <!-- -3 -->
      <g transform="translate(28.930625 133.198125)scale(0.08 -0.08)">
       <defs>
        <path id="DejaVuSans-2d" d="M 313 2009 
L 1997 2009 
L 1997 1497 
L 313 1497 
L 313 2009 
z
" transform="scale(0.015625)"/>
        <path id="DejaVuSans-33" d="M 2597 2516 
Q 3050 2419 3304 2112 
Q 3559 1806 3559 1356 
Q 3559 666 3084 287 
Q 2609 -91 1734 -91 
Q 1441 -91 1130 -33 
Q 819 25 488 141 
L 488 750 
Q 750 597 1062 519 
Q 1375 441 1716 441 
Q 2309 441 2620 675 
Q 2931 909 2931 1356 
Q 2931 1769 2642 2001 
Q 2353 2234 1838 2234 
L 1294 2234 
L 1294 2753 
L 1863 2753 
Q 2328 2753 2575 2939 
Q 2822 3125 2822 3475 
Q 2822 3834 2567 4026 
Q 2313 4219 1838 4219 
Q 1578 4219 1281 4162 
Q 984 4106 628 3988 
L 628 4550 
Q 988 4650 1302 4700 
Q 1616 4750 1894 4750 
Q 2613 4750 3031 4423 
Q 3450 4097 3450 3541 
Q 3450 3153 3228 2886 
Q 3006 2619 2597 2516 
z
" transform="scale(0.015625)"/>
       </defs>
       <use xlink:href="#DejaVuSans-2d"/>
       <use xlink:href="#DejaVuSans-33" x="36.083984"/>
      </g>
     </g>
    </g>
    <g id="xtick_2">
     <g id="line2d_4">
      <g>
       <use xlink:href="#m4cd371f86f" x="51.39875" y="121.119375" style="stroke: #000000; stroke-width: 0.6"/>
      </g>
     </g>
     <g id="text_2">
      <!-- -2 -->
      <g transform="translate(47.410625 133.198125)scale(0.08 -0.08)">
       <defs>
        <path id="DejaVuSans-32" d="M 1228 531 
L 3431 531 
L 3431 0 
L 469 0 
L 469 531 
Q 828 903 1448 1529 
Q 2069 2156 2228 2338 
Q 2531 2678 2651 2914 
Q 2772 3150 2772 3378 
Q 2772 3750 2511 3984 
Q 2250 4219 1831 4219 
Q 1534 4219 1204 4116 
Q 875 4013 500 3803 
L 500 4441 
Q 881 4594 1212 4672 
Q 1544 4750 1819 4750 
Q 2544 4750 2975 4387 
Q 3406 4025 3406 3419 
Q 3406 3131 3298 2873 
Q 3191 2616 2906 2266 
Q 2828 2175 2409 1742 
Q 1991 1309 1228 531 
z
" transform="scale(0.015625)"/>
       </defs>
       <use xlink:href="#DejaVuSans-2d"/>
       <use xlink:href="#DejaVuSans-32" x="36.083984"/>
      </g>
     </g>
    </g>
    <g id="xtick_3">
     <g id="line2d_5">
      <g>
       <use xlink:href="#m4cd371f86f" x="69.87875" y="121.119375" style="stroke: #000000; stroke-width: 0.6"/>
      </g>
     </g>
     <g id="text_3">
      <!-- -1 -->
      <g transform="translate(65.890625 133.198125)scale(0.08 -0.08)">
       <defs>
        <path id="DejaVuSans-31" d="M 794 531 
L 1825 531 
L 1825 4091 
L 703 3866 
L 703 4441 
L 1819 4666 
L 2450 4666 
L 2450 531 
L 3481 531 
L 3481 0 
L 794 0 
L 794 531 
z
" transform="scale(0.015625)"/>
       </defs>
       <use xlink:href="#DejaVuSans-2d"/>
       <use xlink:href="#DejaVuSans-31" x="36.083984"/>
      </g>
     </g>
    </g>
    <g id="xtick_4">
     <g id="line2d_6">
      <g>
       <use xlink:href="#m4cd371f86f" x="88.35875" y="121.119375" style="stroke: #000000; stroke-width: 0.6"/>
      </g>
     </g>
     <g id="text_4">
      <!-- 0 -->
      <g transform="translate(85.81375 133.198125)scale(0.08 -0.08)">
       <defs>
        <path id="DejaVuSans-30" d="M 2034 4250 
Q 1547 4250 1301 3770 
Q 1056 3291 1056 2328 
Q 1056 1369 1301 889 
Q 1547 409 2034 409 
Q 2525 409 2770 889 
Q 3016 1369 3016 2328 
Q 3016 3291 2770 3770 
Q 2525 4250 2034 4250 
z
M 2034 4750 
Q 2819 4750 3233 4129 
Q 3647 3509 3647 2328 
Q 3647 1150 3233 529 
Q 2819 -91 2034 -91 
Q 1250 -91 836 529 
Q 422 1150 422 2328 
Q 422 3509 836 4129 
Q 1250 4750 2034 4750 
z
" transform="scale(0.015625)"/>
       </defs>
       <use xlink:href="#DejaVuSans-30"/>
      </g>
     </g>
    </g>
    <g id="xtick_5">
     <g id="line2d_7">
      <g>
       <use xlink:href="#m4cd371f86f" x="106.83875" y="121.119375" style="stroke: #000000; stroke-width: 0.6"/>
      </g>
     </g>
     <g id="text_5">
      <!-- 1 -->
      <g transform="translate(104.29375 133.198125)scale(0.08 -0.08)">
       <use xlink:href="#DejaVuSans-31"/>
      </g>
     </g>
    </g>
    <g id="xtick_6">
     <g id="line2d_8">
      <g>
       <use xlink:href="#m4cd371f86f" x="125.31875" y="121.119375" style="stroke: #000000; stroke-width: 0.6"/>
      </g>
     </g>
     <g id="text_6">
      <!-- 2 -->
      <g transform="translate(122.77375 133.198125)scale(0.08 -0.08)">
       <use xlink:href="#DejaVuSans-32"/>
      </g>
     </g>
    </g>
    <g id="xtick_7">
     <g id="line2d_9">
      <g>
       <use xlink:href="#m4cd371f86f" x="143.79875" y="121.119375" style="stroke: #000000; stroke-width: 0.6"/>
      </g>
     </g>
     <g id="text_7">
      <!-- 3 -->
      <g transform="translate(141.25375 133.198125)scale(0.08 -0.08)">
       <use xlink:href="#DejaVuSans-33"/>
      </g>
     </g>
    </g>
    <g id="text_8">
     <!-- $\mathrm{Re}(h\lambda)$ -->
     <g transform="translate(75.07875 144.940625)scale(0.08 -0.08)">
      <defs>
       <path id="DejaVuSans-52" d="M 2841 2188 
Q 3044 2119 3236 1894 
Q 3428 1669 3622 1275 
L 4263 0 
L 3584 0 
L 2988 1197 
Q 2756 1666 2539 1819 
Q 2322 1972 1947 1972 
L 1259 1972 
L 1259 0 
L 628 0 
L 628 4666 
L 2053 4666 
Q 2853 4666 3247 4331 
Q 3641 3997 3641 3322 
Q 3641 2881 3436 2590 
Q 3231 2300 2841 2188 
z
M 1259 4147 
L 1259 2491 
L 2053 2491 
Q 2509 2491 2742 2702 
Q 2975 2913 2975 3322 
Q 2975 3731 2742 3939 
Q 2509 4147 2053 4147 
L 1259 4147 
z
" transform="scale(0.015625)"/>
       <path id="DejaVuSans-65" d="M 3597 1894 
L 3597 1613 
L 953 1613 
Q 991 1019 1311 708 
Q 1631 397 2203 397 
Q 2534 397 2845 478 
Q 3156 559 3463 722 
L 3463 178 
Q 3153 47 2828 -22 
Q 2503 -91 2169 -91 
Q 1331 -91 842 396 
Q 353 884 353 1716 
Q 353 2575 817 3079 
Q 1281 3584 2069 3584 
Q 2775 3584 3186 3129 
Q 3597 2675 3597 1894 
z
M 3022 2063 
Q 3016 2534 2758 2815 
Q 2500 3097 2075 3097 
Q 1594 3097 1305 2825 
Q 1016 2553 972 2059 
L 3022 2063 
z
" transform="scale(0.015625)"/>
       <path id="DejaVuSans-28" d="M 1984 4856 
Q 1566 4138 1362 3434 
Q 1159 2731 1159 2009 
Q 1159 1288 1364 580 
Q 1569 -128 1984 -844 
L 1484 -844 
Q 1016 -109 783 600 
Q 550 1309 550 2009 
Q 550 2706 781 3412 
Q 1013 4119 1484 4856 
L 1984 4856 
z
" transform="scale(0.015625)"/>
       <path id="DejaVuSans-Oblique-68" d="M 3566 2113 
L 3156 0 
L 2578 0 
L 2988 2091 
Q 3016 2238 3031 2350 
Q 3047 2463 3047 2528 
Q 3047 2791 2881 2937 
Q 2716 3084 2419 3084 
Q 1956 3084 1617 2771 
Q 1278 2459 1178 1941 
L 800 0 
L 225 0 
L 1172 4863 
L 1747 4863 
L 1375 2950 
Q 1594 3244 1934 3414 
Q 2275 3584 2650 3584 
Q 3113 3584 3367 3334 
Q 3622 3084 3622 2631 
Q 3622 2519 3608 2391 
Q 3594 2263 3566 2113 
z
" transform="scale(0.015625)"/>
       <path id="DejaVuSans-Oblique-3bb" d="M 2350 4316 
L 3125 0 
L 2516 0 
L 2038 2588 
L 328 0 
L -281 0 
L 1903 3356 
L 1794 3975 
Q 1725 4369 1391 4369 
L 1091 4369 
L 1184 4863 
L 1550 4856 
Q 2253 4847 2350 4316 
z
" transform="scale(0.015625)"/>
       <path id="DejaVuSans-29" d="M 513 4856 
L 1013 4856 
Q 1481 4119 1714 3412 
Q 1947 2706 1947 2009 
Q 1947 1309 1714 600 
Q 1481 -109 1013 -844 
L 513 -844 
Q 928 -128 1133 580 
Q 1338 1288 1338 2009 
Q 1338 2731 1133 3434 
Q 928 4138 513 4856 
z
" transform="scale(0.015625)"/>
      </defs>
      <use xlink:href="#DejaVuSans-52" transform="translate(0 0.015625)"/>
      <use xlink:href="#DejaVuSans-65" transform="translate(69.482422 0.015625)"/>
      <use xlink:href="#DejaVuSans-28" transform="translate(131.005859 0.015625)"/>
      <use xlink:href="#DejaVuSans-Oblique-68" transform="translate(170.019531 0.015625)"/>
      <use xlink:href="#DejaVuSans-Oblique-3bb" transform="translate(233.398438 0.015625)"/>
      <use xlink:href="#DejaVuSans-29" transform="translate(292.578125 0.015625)"/>
     </g>
    </g>
   </g>
   <g id="matplotlib.axis_2">
    <g id="ytick_1">
     <g id="line2d_10">
      <defs>
       <path id="m56f3a9ced1" d="M 0 0 
L -2.5 0 
" style="stroke: #000000; stroke-width: 0.6"/>
      </defs>
      <g>
       <use xlink:href="#m56f3a9ced1" x="32.91875" y="121.119375" style="stroke: #000000; stroke-width: 0.6"/>
      </g>
     </g>
     <g id="text_9">
      <!-- -3 -->
      <g transform="translate(18.9425 124.15875)scale(0.08 -0.08)">
       <use xlink:href="#DejaVuSans-2d"/>
       <use xlink:href="#DejaVuSans-33" x="36.083984"/>
      </g>
     </g>
    </g>
    <g id="ytick_2">
     <g id="line2d_11">
      <g>
       <use xlink:href="#m56f3a9ced1" x="32.91875" y="102.639375" style="stroke: #000000; stroke-width: 0.6"/>
      </g>
     </g>
     <g id="text_10">
      <!-- -2 -->
      <g transform="translate(18.9425 105.67875)scale(0.08 -0.08)">
       <use xlink:href="#DejaVuSans-2d"/>
       <use xlink:href="#DejaVuSans-32" x="36.083984"/>
      </g>
     </g>
    </g>
    <g id="ytick_3">
     <g id="line2d_12">
      <g>
       <use xlink:href="#m56f3a9ced1" x="32.91875" y="84.159375" style="stroke: #000000; stroke-width: 0.6"/>
      </g>
     </g>
     <g id="text_11">
      <!-- -1 -->
      <g transform="translate(18.9425 87.19875)scale(0.08 -0.08)">
       <use xlink:href="#DejaVuSans-2d"/>
       <use xlink:href="#DejaVuSans-31" x="36.083984"/>
      </g>
     </g>
    </g>
    <g id="ytick_4">
     <g id="line2d_13">
      <g>
       <use xlink:href="#m56f3a9ced1" x="32.91875" y="65.679375" style="stroke: #000000; stroke-width: 0.6"/>
      </g>
     </g>
     <g id="text_12">
      <!-- 0 -->
      <g transform="translate(21.82875 68.71875)scale(0.08 -0.08)">
       <use xlink:href="#DejaVuSans-30"/>
      </g>
     </g>
    </g>
    <g id="ytick_5">
     <g id="line2d_14">
      <g>
       <use xlink:href="#m56f3a9ced1" x="32.91875" y="47.199375" style="stroke: #000000; stroke-width: 0.6"/>
      </g>
     </g>
     <g id="text_13">
      <!-- 1 -->
      <g transform="translate(21.82875 50.23875)scale(0.08 -0.08)">
       <use xlink:href="#DejaVuSans-31"/>
      </g>
     </g>
    </g>
    <g id="ytick_6">
     <g id="line2d_15">
      <g>
       <use xlink:href="#m56f3a9ced1" x="32.91875" y="28.719375" style="stroke: #000000; stroke-width: 0.6"/>
      </g>
     </g>
     <g id="text_14">
      <!-- 2 -->
      <g transform="translate(21.82875 31.75875)scale(0.08 -0.08)">
       <use xlink:href="#DejaVuSans-32"/>
      </g>
     </g>
    </g>
    <g id="ytick_7">
     <g id="line2d_16">
      <g>
       <use xlink:href="#m56f3a9ced1" x="32.91875" y="10.239375" style="stroke: #000000; stroke-width: 0.6"/>
      </g>
     </g>
     <g id="text_15">
      <!-- 3 -->
      <g transform="translate(21.82875 13.27875)scale(0.08 -0.08)">
       <use xlink:href="#DejaVuSans-33"/>
      </g>
     </g>
    </g>
    <g id="text_16">
     <!-- $\mathrm{Im}(h\lambda)$ -->
     <g transform="translate(13.27875 78.639375)rotate(-90)scale(0.08 -0.08)">
      <defs>
       <path id="DejaVuSans-49" d="M 628 4666 
L 1259 4666 
L 1259 0 
L 628 0 
L 628 4666 
z
" transform="scale(0.015625)"/>
       <path id="DejaVuSans-6d" d="M 3328 2828 
Q 3544 3216 3844 3400 
Q 4144 3584 4550 3584 
Q 5097 3584 5394 3201 
Q 5691 2819 5691 2113 
L 5691 0 
L 5113 0 
L 5113 2094 
Q 5113 2597 4934 2840 
Q 4756 3084 4391 3084 
Q 3944 3084 3684 2787 
Q 3425 2491 3425 1978 
L 3425 0 
L 2847 0 
L 2847 2094 
Q 2847 2600 2669 2842 
Q 2491 3084 2119 3084 
Q 1678 3084 1418 2786 
Q 1159 2488 1159 1978 
L 1159 0 
L 581 0 
L 581 3500 
L 1159 3500 
L 1159 2956 
Q 1356 3278 1631 3431 
Q 1906 3584 2284 3584 
Q 2666 3584 2933 3390 
Q 3200 3197 3328 2828 
z
" transform="scale(0.015625)"/>
      </defs>
      <use xlink:href="#DejaVuSans-49" transform="translate(0 0.015625)"/>
      <use xlink:href="#DejaVuSans-6d" transform="translate(25.867188 0.015625)"/>
      <use xlink:href="#DejaVuSans-28" transform="translate(123.279297 0.015625)"/>
      <use xlink:href="#DejaVuSans-Oblique-68" transform="translate(162.292969 0.015625)"/>
      <use xlink:href="#DejaVuSans-Oblique-3bb" transform="translate(225.671875 0.015625)"/>
      <use xlink:href="#DejaVuSans-29" transform="translate(284.851562 0.015625)"/>
     </g>
    </g>
   </g>
   <g id="PathCollection_2">
    <path d="M 67.582638 84.016175 
L 67.54501 84.011239 
L 67.360433 83.98698 
L 67.138229 83.955035 
L 66.916025 83.920328 
L 66.69382 83.882843 
L 66.471616 83.842567 
L 66.249411 83.79948 
L 66.198763 83.789034 
L 66.027207 83.753548 
L 65.805003 83.704758 
L 65.582798 83.653094 
L 65.360594 83.598535 
L 65.237854 83.56683 
L 65.138389 83.541039 
L 64.916185 83.480569 
L 64.69398 83.417123 
L 64.471776 83.350677 
L 64.452357 83.344626 
L 64.249572 83.281131 
L 64.027367 83.208509 
L 63.805163 83.13279 
L 63.775839 83.122421 
L 63.582958 83.053844 
L 63.360754 82.971708 
L 63.174484 82.900217 
L 63.13855 82.886342 
L 62.916345 82.797599 
L 62.694141 82.70556 
L 62.62974 82.678012 
L 62.471936 82.610052 
L 62.249732 82.511099 
L 62.129454 82.455808 
L 62.027528 82.408607 
L 61.805323 82.302497 
L 61.665427 82.233603 
L 61.583119 82.192745 
L 61.360914 82.079212 
L 61.232017 82.011399 
L 61.13871 81.961886 
L 60.916506 81.840641 
L 60.824744 81.789195 
L 60.694301 81.715384 
L 60.472097 81.586112 
L 60.440022 81.56699 
L 60.249892 81.452522 
L 60.075727 81.344786 
L 60.027688 81.314762 
L 59.805483 81.172508 
L 59.729364 81.122581 
L 59.583279 81.025707 
L 59.398924 80.900377 
L 59.361075 80.874349 
L 59.13887 80.71809 
L 59.083362 80.678173 
L 58.916666 80.556835 
L 58.78122 80.455968 
L 58.694461 80.390538 
L 58.491135 80.233764 
L 58.472257 80.219015 
L 58.250053 80.041879 
L 58.212784 80.011559 
L 58.027848 79.859014 
L 57.945094 79.789355 
L 57.805644 79.670274 
L 57.687231 79.567151 
L 57.583439 79.475405 
L 57.438637 79.344946 
L 57.361235 79.274127 
L 57.1988 79.122742 
L 57.139031 79.06614 
L 56.967251 78.900537 
L 56.916826 78.851114 
L 56.743558 78.678333 
L 56.694622 78.628691 
L 56.527325 78.456129 
L 56.472417 78.39848 
L 56.318188 78.233924 
L 56.250213 78.160056 
L 56.115814 78.01172 
L 56.028009 77.912956 
L 55.919896 77.789515 
L 55.805804 77.656675 
L 55.730153 77.567311 
L 55.5836 77.390664 
L 55.546326 77.345106 
L 55.368219 77.122902 
L 55.361395 77.114219 
L 55.195806 76.900698 
L 55.139191 76.826068 
L 55.028652 76.678493 
L 54.916986 76.525991 
L 54.866568 76.456289 
L 54.709455 76.234084 
L 54.694782 76.212875 
L 54.557324 76.01188 
L 54.472578 75.884857 
L 54.409773 75.789676 
L 54.266736 75.567471 
L 54.250373 75.541452 
L 54.128271 75.345267 
L 54.028169 75.180037 
L 53.993993 75.123062 
L 53.863998 74.900858 
L 53.805964 74.798952 
L 53.73809 74.678654 
L 53.616156 74.456449 
L 53.58376 74.3958 
L 53.49821 74.234245 
L 53.384018 74.01204 
L 53.361556 73.967095 
L 53.273674 73.789836 
L 53.166933 73.567632 
L 53.139351 73.508487 
L 53.063871 73.345427 
L 52.964313 73.123223 
L 52.917147 73.014497 
L 52.868254 72.901018 
L 52.775633 72.678814 
L 52.694942 72.478157 
L 52.686332 72.456609 
L 52.600426 72.234405 
L 52.517737 72.012201 
L 52.472738 71.88666 
L 52.43828 71.789996 
L 52.362024 71.567792 
L 52.288873 71.345587 
L 52.250534 71.224215 
L 52.218833 71.123383 
L 52.151872 70.901179 
L 52.087918 70.678974 
L 52.028329 70.461828 
L 52.026947 70.45677 
L 51.968975 70.234565 
L 51.913925 70.012361 
L 51.861774 69.790157 
L 51.812502 69.567952 
L 51.806125 69.537486 
L 51.766107 69.345748 
L 51.722547 69.123543 
L 51.6818 68.901339 
L 51.64385 68.679135 
L 51.608679 68.45693 
L 51.58392 68.287225 
L 51.576276 68.234726 
L 51.546627 68.012521 
L 51.519714 67.790317 
L 51.495525 67.568112 
L 51.47405 67.345908 
L 51.45528 67.123704 
L 51.439207 66.901499 
L 51.425823 66.679295 
L 51.415122 66.45709 
L 51.407101 66.234886 
L 51.401756 66.012682 
L 51.399084 65.790477 
L 51.399084 65.568273 
L 51.401756 65.346068 
L 51.407101 65.123864 
L 51.415122 64.90166 
L 51.425823 64.679455 
L 51.439207 64.457251 
L 51.45528 64.235046 
L 51.47405 64.012842 
L 51.495525 63.790638 
L 51.519714 63.568433 
L 51.546627 63.346229 
L 51.576276 63.124024 
L 51.58392 63.071525 
L 51.608679 62.90182 
L 51.64385 62.679615 
L 51.6818 62.457411 
L 51.722547 62.235207 
L 51.766107 62.013002 
L 51.806125 61.821264 
L 51.812502 61.790798 
L 51.861774 61.568593 
L 51.913925 61.346389 
L 51.968975 61.124185 
L 52.026947 60.90198 
L 52.028329 60.896922 
L 52.087918 60.679776 
L 52.151872 60.457571 
L 52.218833 60.235367 
L 52.250534 60.134535 
L 52.288873 60.013163 
L 52.362024 59.790958 
L 52.43828 59.568754 
L 52.472738 59.47209 
L 52.517737 59.346549 
L 52.600426 59.124345 
L 52.686332 58.902141 
L 52.694942 58.880593 
L 52.775633 58.679936 
L 52.868254 58.457732 
L 52.917147 58.344253 
L 52.964313 58.235527 
L 53.063871 58.013323 
L 53.139351 57.850263 
L 53.166933 57.791118 
L 53.273674 57.568914 
L 53.361556 57.391655 
L 53.384018 57.34671 
L 53.49821 57.124505 
L 53.58376 56.96295 
L 53.616156 56.902301 
L 53.73809 56.680096 
L 53.805964 56.559798 
L 53.863998 56.457892 
L 53.993993 56.235688 
L 54.028169 56.178713 
L 54.128271 56.013483 
L 54.250373 55.817298 
L 54.266736 55.791279 
L 54.409773 55.569074 
L 54.472578 55.473893 
L 54.557324 55.34687 
L 54.694782 55.145875 
L 54.709455 55.124666 
L 54.866568 54.902461 
L 54.916986 54.832759 
L 55.028652 54.680257 
L 55.139191 54.532682 
L 55.195806 54.458052 
L 55.361395 54.244531 
L 55.368219 54.235848 
L 55.546326 54.013644 
L 55.5836 53.968086 
L 55.730153 53.791439 
L 55.805804 53.702075 
L 55.919896 53.569235 
L 56.028009 53.445794 
L 56.115814 53.34703 
L 56.250213 53.198694 
L 56.318188 53.124826 
L 56.472417 52.96027 
L 56.527325 52.902621 
L 56.694622 52.730059 
L 56.743558 52.680417 
L 56.916826 52.507636 
L 56.967251 52.458213 
L 57.139031 52.29261 
L 57.1988 52.236008 
L 57.361235 52.084623 
L 57.438637 52.013804 
L 57.583439 51.883345 
L 57.687231 51.791599 
L 57.805644 51.688476 
L 57.945094 51.569395 
L 58.027848 51.499736 
L 58.212784 51.347191 
L 58.250053 51.316871 
L 58.472257 51.139735 
L 58.491135 51.124986 
L 58.694461 50.968212 
L 58.78122 50.902782 
L 58.916666 50.801915 
L 59.083362 50.680577 
L 59.13887 50.64066 
L 59.361075 50.484401 
L 59.398924 50.458373 
L 59.583279 50.333043 
L 59.729364 50.236169 
L 59.805483 50.186242 
L 60.027688 50.043988 
L 60.075727 50.013964 
L 60.249892 49.906228 
L 60.440022 49.79176 
L 60.472097 49.772638 
L 60.694301 49.643366 
L 60.824744 49.569555 
L 60.916506 49.518109 
L 61.13871 49.396864 
L 61.232017 49.347351 
L 61.360914 49.279538 
L 61.583119 49.166005 
L 61.665427 49.125147 
L 61.805323 49.056253 
L 62.027528 48.950143 
L 62.129454 48.902942 
L 62.249732 48.847651 
L 62.471936 48.748698 
L 62.62974 48.680738 
L 62.694141 48.65319 
L 62.916345 48.561151 
L 63.13855 48.472408 
L 63.174484 48.458533 
L 63.360754 48.387042 
L 63.582958 48.304906 
L 63.775839 48.236329 
L 63.805163 48.22596 
L 64.027367 48.150241 
L 64.249572 48.077619 
L 64.452357 48.014124 
L 64.471776 48.008073 
L 64.69398 47.941627 
L 64.916185 47.878181 
L 65.138389 47.817711 
L 65.237854 47.79192 
L 65.360594 47.760215 
L 65.582798 47.705656 
L 65.805003 47.653992 
L 66.027207 47.605202 
L 66.198763 47.569716 
L 66.249411 47.55927 
L 66.471616 47.516183 
L 66.69382 47.475907 
L 66.916025 47.438422 
L 67.138229 47.403715 
L 67.360433 47.37177 
L 67.54501 47.347511 
L 67.582638 47.342575 
L 67.804842 47.316117 
L 68.027047 47.292382 
L 68.249251 47.271359 
L 68.471455 47.253039 
L 68.69366 47.237414 
L 68.915864 47.224478 
L 69.138069 47.214225 
L 69.360273 47.20665 
L 69.582477 47.20175 
L 69.804682 47.199523 
L 70.026886 47.199969 
L 70.249091 47.203086 
L 70.471295 47.208877 
L 70.693499 47.217345 
L 70.915704 47.228492 
L 71.137908 47.242324 
L 71.360113 47.258846 
L 71.582317 47.278066 
L 71.804522 47.299992 
L 72.026726 47.324633 
L 72.212526 47.347511 
L 72.24893 47.352001 
L 72.471135 47.382113 
L 72.693339 47.414977 
L 72.915544 47.450608 
L 73.137748 47.489021 
L 73.359952 47.530232 
L 73.559273 47.569716 
L 73.582157 47.574261 
L 73.804361 47.621148 
L 74.026566 47.670893 
L 74.24877 47.72352 
L 74.470974 47.779048 
L 74.520023 47.79192 
L 74.693179 47.837539 
L 74.915383 47.898998 
L 75.137588 47.963441 
L 75.304697 48.014124 
L 75.359792 48.030911 
L 75.581996 48.101484 
L 75.804201 48.175135 
L 75.98149 48.236329 
L 76.026405 48.251915 
L 76.24861 48.33193 
L 76.470814 48.415131 
L 76.582651 48.458533 
L 76.693019 48.501625 
L 76.915223 48.591463 
L 77.128237 48.680738 
L 77.137427 48.684615 
L 77.359632 48.781304 
L 77.581836 48.881395 
L 77.628266 48.902942 
L 77.804041 48.985123 
L 78.026245 49.092406 
L 78.092134 49.125147 
L 78.248449 49.203447 
L 78.470654 49.31819 
L 78.525613 49.347351 
L 78.692858 49.436863 
L 78.915063 49.559358 
L 78.933104 49.569555 
L 79.137267 49.686027 
L 79.317418 49.79176 
L 79.359471 49.816682 
L 79.581676 49.951664 
L 79.681634 50.013964 
L 79.80388 50.090951 
L 80.026085 50.234573 
L 80.028499 50.236169 
L 80.248289 50.382984 
L 80.358403 50.458373 
L 80.470493 50.536004 
L 80.674304 50.680577 
L 80.692698 50.693783 
L 80.914902 50.856728 
L 80.976335 50.902782 
L 81.137107 51.024844 
L 81.266142 51.124986 
L 81.359311 51.198253 
L 81.544716 51.347191 
L 81.581516 51.37716 
L 81.80372 51.561839 
L 81.812641 51.569395 
L 82.025924 51.752656 
L 82.070372 51.791599 
L 82.248129 51.949687 
L 82.318876 52.013804 
L 82.470333 52.153212 
L 82.558657 52.236008 
L 82.692538 52.36354 
L 82.790181 52.458213 
L 82.914742 52.581007 
L 83.013873 52.680417 
L 83.136946 52.805976 
L 83.230126 52.902621 
L 83.359151 53.038846 
L 83.439298 53.124826 
L 83.581355 53.280048 
L 83.64172 53.34703 
L 83.80356 53.530053 
L 83.837696 53.569235 
L 84.025764 53.789374 
L 84.027503 53.791439 
L 84.211174 54.013644 
L 84.247968 54.059087 
L 84.389149 54.235848 
L 84.470173 54.339485 
L 84.561662 54.458052 
L 84.692377 54.631234 
L 84.728915 54.680257 
L 84.890976 54.902461 
L 84.914582 54.935539 
L 85.04795 55.124666 
L 85.136786 55.253707 
L 85.200193 55.34687 
L 85.3478 55.569074 
L 85.35899 55.586305 
L 85.490686 55.791279 
L 85.581195 55.935888 
L 85.629263 56.013483 
L 85.763499 56.235688 
L 85.803399 56.30344 
L 85.893484 56.457892 
L 86.019477 56.680096 
L 86.025604 56.691176 
L 86.141302 56.902301 
L 86.247808 57.102609 
L 86.259351 57.124505 
L 86.373435 57.34671 
L 86.470013 57.540823 
L 86.483878 57.568914 
L 86.59053 57.791118 
L 86.692217 58.010141 
L 86.693684 58.013323 
L 86.793168 58.235527 
L 86.889262 58.457732 
L 86.914421 58.51781 
L 86.981871 58.679936 
L 87.071135 58.902141 
L 87.136626 59.071175 
L 87.157103 59.124345 
L 87.239749 59.346549 
L 87.319218 59.568754 
L 87.35883 59.683863 
L 87.395492 59.790958 
L 87.468613 60.013163 
L 87.538663 60.235367 
L 87.581035 60.375698 
L 87.605644 60.457571 
L 87.669578 60.679776 
L 87.730533 60.90198 
L 87.788537 61.124185 
L 87.803239 61.183376 
L 87.843583 61.346389 
L 87.895722 61.568593 
L 87.944985 61.790798 
L 87.991394 62.013002 
L 88.025443 62.186556 
L 88.034962 62.235207 
L 88.075703 62.457411 
L 88.113649 62.679615 
L 88.148816 62.90182 
L 88.181219 63.124024 
L 88.210873 63.346229 
L 88.237789 63.568433 
L 88.247648 63.658926 
L 88.261977 63.790638 
L 88.283451 64.012842 
L 88.30222 64.235046 
L 88.318294 64.457251 
L 88.331677 64.679455 
L 88.342377 64.90166 
L 88.350398 65.123864 
L 88.355744 65.346068 
L 88.358416 65.568273 
L 88.358416 65.790477 
L 88.355744 66.012682 
L 88.350398 66.234886 
L 88.342377 66.45709 
L 88.331677 66.679295 
L 88.318294 66.901499 
L 88.30222 67.123704 
L 88.283451 67.345908 
L 88.261977 67.568112 
L 88.247648 67.699824 
L 88.237789 67.790317 
L 88.210873 68.012521 
L 88.181219 68.234726 
L 88.148816 68.45693 
L 88.113649 68.679135 
L 88.075703 68.901339 
L 88.034962 69.123543 
L 88.025443 69.172194 
L 87.991394 69.345748 
L 87.944985 69.567952 
L 87.895722 69.790157 
L 87.843583 70.012361 
L 87.803239 70.175374 
L 87.788537 70.234565 
L 87.730533 70.45677 
L 87.669578 70.678974 
L 87.605644 70.901179 
L 87.581035 70.983052 
L 87.538663 71.123383 
L 87.468613 71.345587 
L 87.395492 71.567792 
L 87.35883 71.674887 
L 87.319218 71.789996 
L 87.239749 72.012201 
L 87.157103 72.234405 
L 87.136626 72.287575 
L 87.071135 72.456609 
L 86.981871 72.678814 
L 86.914421 72.84094 
L 86.889262 72.901018 
L 86.793168 73.123223 
L 86.693684 73.345427 
L 86.692217 73.348609 
L 86.59053 73.567632 
L 86.483878 73.789836 
L 86.470013 73.817927 
L 86.373435 74.01204 
L 86.259351 74.234245 
L 86.247808 74.256141 
L 86.141302 74.456449 
L 86.025604 74.667574 
L 86.019477 74.678654 
L 85.893484 74.900858 
L 85.803399 75.05531 
L 85.763499 75.123062 
L 85.629263 75.345267 
L 85.581195 75.422862 
L 85.490686 75.567471 
L 85.35899 75.772445 
L 85.3478 75.789676 
L 85.200193 76.01188 
L 85.136786 76.105043 
L 85.04795 76.234084 
L 84.914582 76.423211 
L 84.890976 76.456289 
L 84.728915 76.678493 
L 84.692377 76.727516 
L 84.561662 76.900698 
L 84.470173 77.019265 
L 84.389149 77.122902 
L 84.247968 77.299663 
L 84.211174 77.345106 
L 84.027503 77.567311 
L 84.025764 77.569376 
L 83.837696 77.789515 
L 83.80356 77.828697 
L 83.64172 78.01172 
L 83.581355 78.078702 
L 83.439298 78.233924 
L 83.359151 78.319904 
L 83.230126 78.456129 
L 83.136946 78.552774 
L 83.013873 78.678333 
L 82.914742 78.777743 
L 82.790181 78.900537 
L 82.692538 78.99521 
L 82.558657 79.122742 
L 82.470333 79.205538 
L 82.318876 79.344946 
L 82.248129 79.409063 
L 82.070372 79.567151 
L 82.025924 79.606094 
L 81.812641 79.789355 
L 81.80372 79.796911 
L 81.581516 79.98159 
L 81.544716 80.011559 
L 81.359311 80.160497 
L 81.266142 80.233764 
L 81.137107 80.333906 
L 80.976335 80.455968 
L 80.914902 80.502022 
L 80.692698 80.664967 
L 80.674304 80.678173 
L 80.470493 80.822746 
L 80.358403 80.900377 
L 80.248289 80.975766 
L 80.028499 81.122581 
L 80.026085 81.124177 
L 79.80388 81.267799 
L 79.681634 81.344786 
L 79.581676 81.407086 
L 79.359471 81.542068 
L 79.317418 81.56699 
L 79.137267 81.672723 
L 78.933104 81.789195 
L 78.915063 81.799392 
L 78.692858 81.921887 
L 78.525613 82.011399 
L 78.470654 82.04056 
L 78.248449 82.155303 
L 78.092134 82.233603 
L 78.026245 82.266344 
L 77.804041 82.373627 
L 77.628266 82.455808 
L 77.581836 82.477355 
L 77.359632 82.577446 
L 77.137427 82.674135 
L 77.128237 82.678012 
L 76.915223 82.767287 
L 76.693019 82.857125 
L 76.582651 82.900217 
L 76.470814 82.943619 
L 76.24861 83.02682 
L 76.026405 83.106835 
L 75.98149 83.122421 
L 75.804201 83.183615 
L 75.581996 83.257266 
L 75.359792 83.327839 
L 75.304697 83.344626 
L 75.137588 83.395309 
L 74.915383 83.459752 
L 74.693179 83.521211 
L 74.520023 83.56683 
L 74.470974 83.579702 
L 74.24877 83.63523 
L 74.026566 83.687857 
L 73.804361 83.737602 
L 73.582157 83.784489 
L 73.559273 83.789034 
L 73.359952 83.828518 
L 73.137748 83.869729 
L 72.915544 83.908142 
L 72.693339 83.943773 
L 72.471135 83.976637 
L 72.24893 84.006749 
L 72.212526 84.011239 
L 72.026726 84.034117 
L 71.804522 84.058758 
L 71.582317 84.080684 
L 71.360113 84.099904 
L 71.137908 84.116426 
L 70.915704 84.130258 
L 70.693499 84.141405 
L 70.471295 84.149873 
L 70.249091 84.155664 
L 70.026886 84.158781 
L 69.804682 84.159227 
L 69.582477 84.157 
L 69.360273 84.1521 
L 69.138069 84.144525 
L 68.915864 84.134272 
L 68.69366 84.121336 
L 68.471455 84.105711 
L 68.249251 84.087391 
L 68.027047 84.066368 
L 67.804842 84.042633 
L 67.582638 84.016175 
z
" clip-path="url(#p657be4ca39)" style="fill: none; stroke: #00cd6c"/>
   </g>
   <g id="patch_3">
    <path d="M 32.91875 121.119375 
L 32.91875 10.239375 
" style="fill: none; stroke: #000000; stroke-width: 0.6; stroke-linejoin: miter; stroke-linecap: square"/>
   </g>
   <g id="patch_4">
    <path d="M 32.91875 121.119375 
L 143.79875 121.119375 
" style="fill: none; stroke: #000000; stroke-width: 0.6; stroke-linejoin: miter; stroke-linecap: square"/>
   </g>
  </g>
 </g>
 <defs>
  <clipPath id="p657be4ca39">
   <rect x="32.91875" y="10.239375" width="110.88" height="110.88"/>
  </clipPath>
 </defs>
</svg>
