<?xml version="1.0" encoding="utf-8" standalone="no"?>
<!DOCTYPE svg PUBLIC "-//W3C//DTD SVG 1.1//EN"
  "http://www.w3.org/Graphics/SVG/1.1/DTD/svg11.dtd">
<svg xmlns:xlink="http://www.w3.org/1999/xlink" width="153.54375pt" height="153.804375pt" viewBox="0 0 153.54375 153.804375" xmlns="http://www.w3.org/2000/svg" version="1.1">
 <metadata>
  <rdf:RDF xmlns:dc="http://purl.org/dc/elements/1.1/" xmlns:cc="http://creativecommons.org/ns#" xmlns:rdf="http://www.w3.org/1999/02/22-rdf-syntax-ns#">
   <cc:Work>
    <dc:type rdf:resource="http://purl.org/dc/dcmitype/StillImage"/>
    <dc:format>image/svg+xml</dc:format>
    <dc:creator>
     <cc:Agent>
      <dc:title>Matplotlib v3.5.2, https://matplotlib.org/</dc:title>
     </cc:Agent>
    </dc:creator>
   </cc:Work>
  </rdf:RDF>
 </metadata>
 <defs>
  <style type="text/css">*{stroke-linejoin: round; stroke-linecap: butt}</style>
 </defs>
 <g id="figure_1">
  <g id="patch_1">
   <path d="M 0 153.804375 
L 153.54375 153.804375 
L 153.54375 0 
L 0 0 
L 0 153.804375 
z
" style="fill: none"/>
  </g>
  <g id="axes_1">
   <g id="patch_2">
    <path d="M 32.91875 121.119375 
L 143.79875 121.119375 
L 143.79875 10.239375 
L 32.91875 10.239375 
L 32.91875 121.119375 
z
" style="fill: none"/>
   </g>
   <g id="line2d_1">
    <path d="M 88.35875 121.119375 
L 88.35875 10.239375 
" clip-path="url(#p657be4ca39)" style="fill: none; stroke: #000000; stroke-width: 0.5; stroke-linecap: square"/>
   </g>
   <g id="line2d_2">
    <path d="M 32.91875 65.679375 
L 143.79875 65.679375 
" clip-path="url(#p657be4ca39)" style="fill: none; stroke: #000000; stroke-width: 0.5; stroke-linecap: square"/>
   </g>
   <g id="PathCollection_1">
    <path d="M 33.140954 121.119375 
L 33.363159 121.119375 
L 33.585363 121.119375 
L 33.807568 121.119375 
L 34.029772 121.119375 
L 34.251976 121.119375 
L 34.474181 121.119375 
L 34.696385 121.119375 
L 34.91859 121.119375 
L 35.140794 121.119375 
L 35.362998 121.119375 
L 35.585203 121.119375 
L 35.807407 121.119375 
L 36.029612 121.119375 
L 36.251816 121.119375 
L 36.474021 121.119375 
L 36.696225 121.119375 
L 36.918429 121.119375 
L 37.140634 121.119375 
L 37.362838 121.119375 
L 37.585043 121.119375 
L 37.807247 121.119375 
L 38.029451 121.119375 
L 38.251656 121.119375 
L 38.47386 121.119375 
L 38.696065 121.119375 
L 38.918269 121.119375 
L 39.140473 121.119375 
L 39.362678 121.119375 
L 39.584882 121.119375 
L 39.807087 121.119375 
L 40.029291 121.119375 
L 40.251495 121.119375 
L 40.4737 121.119375 
L 40.695904 121.119375 
L 40.918109 121.119375 
L 41.140313 121.119375 
L 41.362518 121.119375 
L 41.584722 121.119375 
L 41.806926 121.119375 
L 42.029131 121.119375 
L 42.251335 121.119375 
L 42.47354 121.119375 
L 42.695744 121.119375 
L 42.917948 121.119375 
L 43.140153 121.119375 
L 43.362357 121.119375 
L 43.584562 121.119375 
L 43.806766 121.119375 
L 44.02897 121.119375 
L 44.251175 121.119375 
L 44.473379 121.119375 
L 44.695584 121.119375 
L 44.917788 121.119375 
L 45.139992 121.119375 
L 45.362197 121.119375 
L 45.584401 121.119375 
L 45.806606 121.119375 
L 46.02881 121.119375 
L 46.251015 121.119375 
L 46.473219 121.119375 
L 46.695423 121.119375 
L 46.917628 121.119375 
L 47.139832 121.119375 
L 47.362037 121.119375 
L 47.584241 121.119375 
L 47.806445 121.119375 
L 48.02865 121.119375 
L 48.250854 121.119375 
L 48.473059 121.119375 
L 48.695263 121.119375 
L 48.917467 121.119375 
L 49.139672 121.119375 
L 49.361876 121.119375 
L 49.584081 121.119375 
L 49.806285 121.119375 
L 50.028489 121.119375 
L 50.250694 121.119375 
L 50.472898 121.119375 
L 50.695103 121.119375 
L 50.917307 121.119375 
L 51.139512 121.119375 
L 51.361716 121.119375 
L 51.58392 121.119375 
L 51.806125 121.119375 
L 52.028329 121.119375 
L 52.250534 121.119375 
L 52.472738 121.119375 
L 52.694942 121.119375 
L 52.917147 121.119375 
L 53.139351 121.119375 
L 53.361556 121.119375 
L 53.58376 121.119375 
L 53.805964 121.119375 
L 54.028169 121.119375 
L 54.250373 121.119375 
L 54.472578 121.119375 
L 54.694782 121.119375 
L 54.916986 121.119375 
L 55.139191 121.119375 
L 55.361395 121.119375 
L 55.5836 121.119375 
L 55.805804 121.119375 
L 56.028009 121.119375 
L 56.250213 121.119375 
L 56.472417 121.119375 
L 56.694622 121.119375 
L 56.916826 121.119375 
L 57.139031 121.119375 
L 57.361235 121.119375 
L 57.583439 121.119375 
L 57.805644 121.119375 
L 58.027848 121.119375 
L 58.250053 121.119375 
L 58.472257 121.119375 
L 58.694461 121.119375 
L 58.916666 121.119375 
L 59.13887 121.119375 
L 59.361075 121.119375 
L 59.583279 121.119375 
L 59.805483 121.119375 
L 60.027688 121.119375 
L 60.249892 121.119375 
L 60.472097 121.119375 
L 60.694301 121.119375 
L 60.916506 121.119375 
L 61.13871 121.119375 
L 61.360914 121.119375 
L 61.583119 121.119375 
L 61.805323 121.119375 
L 62.027528 121.119375 
L 62.249732 121.119375 
L 62.471936 121.119375 
L 62.694141 121.119375 
L 62.916345 121.119375 
L 63.13855 121.119375 
L 63.360754 121.119375 
L 63.582958 121.119375 
L 63.805163 121.119375 
L 64.027367 121.119375 
L 64.249572 121.119375 
L 64.471776 121.119375 
L 64.69398 121.119375 
L 64.916185 121.119375 
L 65.138389 121.119375 
L 65.360594 121.119375 
L 65.582798 121.119375 
L 65.805003 121.119375 
L 66.027207 121.119375 
L 66.249411 121.119375 
L 66.471616 121.119375 
L 66.69382 121.119375 
L 66.916025 121.119375 
L 67.138229 121.119375 
L 67.360433 121.119375 
L 67.582638 121.119375 
L 67.804842 121.119375 
L 68.027047 121.119375 
L 68.249251 121.119375 
L 68.471455 121.119375 
L 68.69366 121.119375 
L 68.915864 121.119375 
L 69.138069 121.119375 
L 69.360273 121.119375 
L 69.582477 121.119375 
L 69.804682 121.119375 
L 70.026886 121.119375 
L 70.249091 121.119375 
L 70.471295 121.119375 
L 70.693499 121.119375 
L 70.915704 121.119375 
L 71.137908 121.119375 
L 71.360113 121.119375 
L 71.582317 121.119375 
L 71.804522 121.119375 
L 72.026726 121.119375 
L 72.24893 121.119375 
L 72.471135 121.119375 
L 72.693339 121.119375 
L 72.915544 121.119375 
L 73.137748 121.119375 
L 73.359952 121.119375 
L 73.582157 121.119375 
L 73.804361 121.119375 
L 74.026566 121.119375 
L 74.24877 121.119375 
L 74.470974 121.119375 
L 74.693179 121.119375 
L 74.915383 121.119375 
L 75.137588 121.119375 
L 75.359792 121.119375 
L 75.581996 121.119375 
L 75.804201 121.119375 
L 76.026405 121.119375 
L 76.24861 121.119375 
L 76.470814 121.119375 
L 76.693019 121.119375 
L 76.915223 121.119375 
L 77.137427 121.119375 
L 77.359632 121.119375 
L 77.581836 121.119375 
L 77.804041 121.119375 
L 78.026245 121.119375 
L 78.248449 121.119375 
L 78.470654 121.119375 
L 78.692858 121.119375 
L 78.915063 121.119375 
L 79.137267 121.119375 
L 79.359471 121.119375 
L 79.581676 121.119375 
L 79.80388 121.119375 
L 80.026085 121.119375 
L 80.248289 121.119375 
L 80.470493 121.119375 
L 80.692698 121.119375 
L 80.914902 121.119375 
L 81.137107 121.119375 
L 81.359311 121.119375 
L 81.581516 121.119375 
L 81.80372 121.119375 
L 82.025924 121.119375 
L 82.248129 121.119375 
L 82.470333 121.119375 
L 82.692538 121.119375 
L 82.914742 121.119375 
L 83.136946 121.119375 
L 83.359151 121.119375 
L 83.581355 121.119375 
L 83.80356 121.119375 
L 84.025764 121.119375 
L 84.247968 121.119375 
L 84.470173 121.119375 
L 84.692377 121.119375 
L 84.914582 121.119375 
L 85.136786 121.119375 
L 85.35899 121.119375 
L 85.581195 121.119375 
L 85.803399 121.119375 
L 86.025604 121.119375 
L 86.247808 121.119375 
L 86.470013 121.119375 
L 86.692217 121.119375 
L 86.914421 121.119375 
L 87.136626 121.119375 
L 87.35883 121.119375 
L 87.581035 121.119375 
L 87.803239 121.119375 
L 88.025443 121.119375 
L 88.247648 121.119375 
L 88.469852 121.119375 
L 88.692057 121.119375 
L 88.914261 121.119375 
L 89.136465 121.119375 
L 89.35867 121.119375 
L 89.580874 121.119375 
L 89.803079 121.119375 
L 90.025283 121.119375 
L 90.247487 121.119375 
L 90.469692 121.119375 
L 90.691896 121.119375 
L 90.914101 121.119375 
L 91.136305 121.119375 
L 91.35851 121.119375 
L 91.580714 121.119375 
L 91.802918 121.119375 
L 92.025123 121.119375 
L 92.247327 121.119375 
L 92.469532 121.119375 
L 92.691736 121.119375 
L 92.91394 121.119375 
L 93.136145 121.119375 
L 93.358349 121.119375 
L 93.580554 121.119375 
L 93.802758 121.119375 
L 94.024962 121.119375 
L 94.247167 121.119375 
L 94.469371 121.119375 
L 94.691576 121.119375 
L 94.91378 121.119375 
L 95.135984 121.119375 
L 95.358189 121.119375 
L 95.580393 121.119375 
L 95.802598 121.119375 
L 96.024802 121.119375 
L 96.247007 121.119375 
L 96.469211 121.119375 
L 96.691415 121.119375 
L 96.91362 121.119375 
L 97.135824 121.119375 
L 97.358029 121.119375 
L 97.580233 121.119375 
L 97.802437 121.119375 
L 98.024642 121.119375 
L 98.246846 121.119375 
L 98.469051 121.119375 
L 98.691255 121.119375 
L 98.913459 121.119375 
L 99.135664 121.119375 
L 99.357868 121.119375 
L 99.580073 121.119375 
L 99.802277 121.119375 
L 100.024481 121.119375 
L 100.246686 121.119375 
L 100.46889 121.119375 
L 100.691095 121.119375 
L 100.913299 121.119375 
L 101.135504 121.119375 
L 101.357708 121.119375 
L 101.579912 121.119375 
L 101.802117 121.119375 
L 102.024321 121.119375 
L 102.246526 121.119375 
L 102.46873 121.119375 
L 102.690934 121.119375 
L 102.913139 121.119375 
L 103.135343 121.119375 
L 103.357548 121.119375 
L 103.579752 121.119375 
L 103.801956 121.119375 
L 104.024161 121.119375 
L 104.246365 121.119375 
L 104.46857 121.119375 
L 104.690774 121.119375 
L 104.912978 121.119375 
L 105.135183 121.119375 
L 105.357387 121.119375 
L 105.579592 121.119375 
L 105.801796 121.119375 
L 106.024001 121.119375 
L 106.246205 121.119375 
L 106.468409 121.119375 
L 106.690614 121.119375 
L 106.912818 121.119375 
L 107.135023 121.119375 
L 107.357227 121.119375 
L 107.579431 121.119375 
L 107.801636 121.119375 
L 108.02384 121.119375 
L 108.246045 121.119375 
L 108.468249 121.119375 
L 108.690453 121.119375 
L 108.912658 121.119375 
L 109.134862 121.119375 
L 109.357067 121.119375 
L 109.579271 121.119375 
L 109.801475 121.119375 
L 110.02368 121.119375 
L 110.245884 121.119375 
L 110.468089 121.119375 
L 110.690293 121.119375 
L 110.912497 121.119375 
L 111.134702 121.119375 
L 111.356906 121.119375 
L 111.579111 121.119375 
L 111.801315 121.119375 
L 112.02352 121.119375 
L 112.245724 121.119375 
L 112.467928 121.119375 
L 112.690133 121.119375 
L 112.912337 121.119375 
L 113.134542 121.119375 
L 113.356746 121.119375 
L 113.57895 121.119375 
L 113.801155 121.119375 
L 114.023359 121.119375 
L 114.245564 121.119375 
L 114.467768 121.119375 
L 114.689972 121.119375 
L 114.912177 121.119375 
L 115.134381 121.119375 
L 115.356586 121.119375 
L 115.57879 121.119375 
L 115.800994 121.119375 
L 116.023199 121.119375 
L 116.245403 121.119375 
L 116.467608 121.119375 
L 116.689812 121.119375 
L 116.912017 121.119375 
L 117.134221 121.119375 
L 117.356425 121.119375 
L 117.57863 121.119375 
L 117.800834 121.119375 
L 118.023039 121.119375 
L 118.245243 121.119375 
L 118.467447 121.119375 
L 118.689652 121.119375 
L 118.911856 121.119375 
L 119.134061 121.119375 
L 119.356265 121.119375 
L 119.578469 121.119375 
L 119.800674 121.119375 
L 120.022878 121.119375 
L 120.245083 121.119375 
L 120.467287 121.119375 
L 120.689491 121.119375 
L 120.911696 121.119375 
L 121.1339 121.119375 
L 121.356105 121.119375 
L 121.578309 121.119375 
L 121.800514 121.119375 
L 122.022718 121.119375 
L 122.244922 121.119375 
L 122.467127 121.119375 
L 122.689331 121.119375 
L 122.911536 121.119375 
L 123.13374 121.119375 
L 123.355944 121.119375 
L 123.578149 121.119375 
L 123.800353 121.119375 
L 124.022558 121.119375 
L 124.244762 121.119375 
L 124.466966 121.119375 
L 124.689171 121.119375 
L 124.911375 121.119375 
L 125.13358 121.119375 
L 125.355784 121.119375 
L 125.577988 121.119375 
L 125.800193 121.119375 
L 126.022397 121.119375 
L 126.244602 121.119375 
L 126.466806 121.119375 
L 126.689011 121.119375 
L 126.911215 121.119375 
L 127.133419 121.119375 
L 127.355624 121.119375 
L 127.577828 121.119375 
L 127.800033 121.119375 
L 128.022237 121.119375 
L 128.244441 121.119375 
L 128.466646 121.119375 
L 128.68885 121.119375 
L 128.911055 121.119375 
L 129.133259 121.119375 
L 129.355463 121.119375 
L 129.577668 121.119375 
L 129.799872 121.119375 
L 130.022077 121.119375 
L 130.244281 121.119375 
L 130.466485 121.119375 
L 130.68869 121.119375 
L 130.910894 121.119375 
L 131.133099 121.119375 
L 131.355303 121.119375 
L 131.577508 121.119375 
L 131.799712 121.119375 
L 132.021916 121.119375 
L 132.244121 121.119375 
L 132.466325 121.119375 
L 132.68853 121.119375 
L 132.910734 121.119375 
L 133.132938 121.119375 
L 133.355143 121.119375 
L 133.577347 121.119375 
L 133.799552 121.119375 
L 134.021756 121.119375 
L 134.24396 121.119375 
L 134.466165 121.119375 
L 134.688369 121.119375 
L 134.910574 121.119375 
L 135.132778 121.119375 
L 135.354982 121.119375 
L 135.577187 121.119375 
L 135.799391 121.119375 
L 136.021596 121.119375 
L 136.2438 121.119375 
L 136.466005 121.119375 
L 136.688209 121.119375 
L 136.910413 121.119375 
L 137.132618 121.119375 
L 137.354822 121.119375 
L 137.577027 121.119375 
L 137.799231 121.119375 
L 138.021435 121.119375 
L 138.24364 121.119375 
L 138.465844 121.119375 
L 138.688049 121.119375 
L 138.910253 121.119375 
L 139.132457 121.119375 
L 139.354662 121.119375 
L 139.576866 121.119375 
L 139.799071 121.119375 
L 140.021275 121.119375 
L 140.243479 121.119375 
L 140.465684 121.119375 
L 140.687888 121.119375 
L 140.910093 121.119375 
L 141.132297 121.119375 
L 141.354502 121.119375 
L 141.576706 121.119375 
L 141.79891 121.119375 
L 142.021115 121.119375 
L 142.243319 121.119375 
L 142.465524 121.119375 
L 142.687728 121.119375 
L 142.909932 121.119375 
L 143.132137 121.119375 
L 143.354341 121.119375 
L 143.576546 121.119375 
L 143.79875 121.119375 
L 143.79875 120.897171 
L 143.79875 120.674966 
L 143.79875 120.452762 
L 143.79875 120.230557 
L 143.79875 120.008353 
L 143.79875 119.786149 
L 143.79875 119.563944 
L 143.79875 119.34174 
L 143.79875 119.119535 
L 143.79875 118.897331 
L 143.79875 118.675127 
L 143.79875 118.452922 
L 143.79875 118.230718 
L 143.79875 118.008513 
L 143.79875 117.786309 
L 143.79875 117.564104 
L 143.79875 117.3419 
L 143.79875 117.119696 
L 143.79875 116.897491 
L 143.79875 116.675287 
L 143.79875 116.453082 
L 143.79875 116.230878 
L 143.79875 116.008674 
L 143.79875 115.786469 
L 143.79875 115.564265 
L 143.79875 115.34206 
L 143.79875 115.119856 
L 143.79875 114.897652 
L 143.79875 114.675447 
L 143.79875 114.453243 
L 143.79875 114.231038 
L 143.79875 114.008834 
L 143.79875 113.78663 
L 143.79875 113.564425 
L 143.79875 113.342221 
L 143.79875 113.120016 
L 143.79875 112.897812 
L 143.79875 112.675607 
L 143.79875 112.453403 
L 143.79875 112.231199 
L 143.79875 112.008994 
L 143.79875 111.78679 
L 143.79875 111.564585 
L 143.79875 111.342381 
L 143.79875 111.120177 
L 143.79875 110.897972 
L 143.79875 110.675768 
L 143.79875 110.453563 
L 143.79875 110.231359 
L 143.79875 110.009155 
L 143.79875 109.78695 
L 143.79875 109.564746 
L 143.79875 109.342541 
L 143.79875 109.120337 
L 143.79875 108.898133 
L 143.79875 108.675928 
L 143.79875 108.453724 
L 143.79875 108.231519 
L 143.79875 108.009315 
L 143.79875 107.78711 
L 143.79875 107.564906 
L 143.79875 107.342702 
L 143.79875 107.120497 
L 143.79875 106.898293 
L 143.79875 106.676088 
L 143.79875 106.453884 
L 143.79875 106.23168 
L 143.79875 106.009475 
L 143.79875 105.787271 
L 143.79875 105.565066 
L 143.79875 105.342862 
L 143.79875 105.120658 
L 143.79875 104.898453 
L 143.79875 104.676249 
L 143.79875 104.454044 
L 143.79875 104.23184 
L 143.79875 104.009636 
L 143.79875 103.787431 
L 143.79875 103.565227 
L 143.79875 103.343022 
L 143.79875 103.120818 
L 143.79875 102.898613 
L 143.79875 102.676409 
L 143.79875 102.454205 
L 143.79875 102.232 
L 143.79875 102.009796 
L 143.79875 101.787591 
L 143.79875 101.565387 
L 143.79875 101.343183 
L 143.79875 101.120978 
L 143.79875 100.898774 
L 143.79875 100.676569 
L 143.79875 100.454365 
L 143.79875 100.232161 
L 143.79875 100.009956 
L 143.79875 99.787752 
L 143.79875 99.565547 
L 143.79875 99.343343 
L 143.79875 99.121139 
L 143.79875 98.898934 
L 143.79875 98.67673 
L 143.79875 98.454525 
L 143.79875 98.232321 
L 143.79875 98.010116 
L 143.79875 97.787912 
L 143.79875 97.565708 
L 143.79875 97.343503 
L 143.79875 97.121299 
L 143.79875 96.899094 
L 143.79875 96.67689 
L 143.79875 96.454686 
L 143.79875 96.232481 
L 143.79875 96.010277 
L 143.79875 95.788072 
L 143.79875 95.565868 
L 143.79875 95.343664 
L 143.79875 95.121459 
L 143.79875 94.899255 
L 143.79875 94.67705 
L 143.79875 94.454846 
L 143.79875 94.232642 
L 143.79875 94.010437 
L 143.79875 93.788233 
L 143.79875 93.566028 
L 143.79875 93.343824 
L 143.79875 93.121619 
L 143.79875 92.899415 
L 143.79875 92.677211 
L 143.79875 92.455006 
L 143.79875 92.232802 
L 143.79875 92.010597 
L 143.79875 91.788393 
L 143.79875 91.566189 
L 143.79875 91.343984 
L 143.79875 91.12178 
L 143.79875 90.899575 
L 143.79875 90.677371 
L 143.79875 90.455167 
L 143.79875 90.232962 
L 143.79875 90.010758 
L 143.79875 89.788553 
L 143.79875 89.566349 
L 143.79875 89.344145 
L 143.79875 89.12194 
L 143.79875 88.899736 
L 143.79875 88.677531 
L 143.79875 88.455327 
L 143.79875 88.233122 
L 143.79875 88.010918 
L 143.79875 87.788714 
L 143.79875 87.566509 
L 143.79875 87.344305 
L 143.79875 87.1221 
L 143.79875 86.899896 
L 143.79875 86.677692 
L 143.79875 86.455487 
L 143.79875 86.233283 
L 143.79875 86.011078 
L 143.79875 85.788874 
L 143.79875 85.56667 
L 143.79875 85.344465 
L 143.79875 85.122261 
L 143.79875 84.900056 
L 143.79875 84.677852 
L 143.79875 84.455648 
L 143.79875 84.233443 
L 143.79875 84.011239 
L 143.79875 83.789034 
L 143.79875 83.56683 
L 143.79875 83.344626 
L 143.79875 83.122421 
L 143.79875 82.900217 
L 143.79875 82.678012 
L 143.79875 82.455808 
L 143.79875 82.233603 
L 143.79875 82.011399 
L 143.79875 81.789195 
L 143.79875 81.56699 
L 143.79875 81.344786 
L 143.79875 81.122581 
L 143.79875 80.900377 
L 143.79875 80.678173 
L 143.79875 80.455968 
L 143.79875 80.233764 
L 143.79875 80.011559 
L 143.79875 79.789355 
L 143.79875 79.567151 
L 143.79875 79.344946 
L 143.79875 79.122742 
L 143.79875 78.900537 
L 143.79875 78.678333 
L 143.79875 78.456129 
L 143.79875 78.233924 
L 143.79875 78.01172 
L 143.79875 77.789515 
L 143.79875 77.567311 
L 143.79875 77.345106 
L 143.79875 77.122902 
L 143.79875 76.900698 
L 143.79875 76.678493 
L 143.79875 76.456289 
L 143.79875 76.234084 
L 143.79875 76.01188 
L 143.79875 75.789676 
L 143.79875 75.567471 
L 143.79875 75.345267 
L 143.79875 75.123062 
L 143.79875 74.900858 
L 143.79875 74.678654 
L 143.79875 74.456449 
L 143.79875 74.234245 
L 143.79875 74.01204 
L 143.79875 73.789836 
L 143.79875 73.567632 
L 143.79875 73.345427 
L 143.79875 73.123223 
L 143.79875 72.901018 
L 143.79875 72.678814 
L 143.79875 72.456609 
L 143.79875 72.234405 
L 143.79875 72.012201 
L 143.79875 71.789996 
L 143.79875 71.567792 
L 143.79875 71.345587 
L 143.79875 71.123383 
L 143.79875 70.901179 
L 143.79875 70.678974 
L 143.79875 70.45677 
L 143.79875 70.234565 
L 143.79875 70.012361 
L 143.79875 69.790157 
L 143.79875 69.567952 
L 143.79875 69.345748 
L 143.79875 69.123543 
L 143.79875 68.901339 
L 143.79875 68.679135 
L 143.79875 68.45693 
L 143.79875 68.234726 
L 143.79875 68.012521 
L 143.79875 67.790317 
L 143.79875 67.568112 
L 143.79875 67.345908 
L 143.79875 67.123704 
L 143.79875 66.901499 
L 143.79875 66.679295 
L 143.79875 66.45709 
L 143.79875 66.234886 
L 143.79875 66.012682 
L 143.79875 65.790477 
L 143.79875 65.568273 
L 143.79875 65.346068 
L 143.79875 65.123864 
L 143.79875 64.90166 
L 143.79875 64.679455 
L 143.79875 64.457251 
L 143.79875 64.235046 
L 143.79875 64.012842 
L 143.79875 63.790638 
L 143.79875 63.568433 
L 143.79875 63.346229 
L 143.79875 63.124024 
L 143.79875 62.90182 
L 143.79875 62.679615 
L 143.79875 62.457411 
L 143.79875 62.235207 
L 143.79875 62.013002 
L 143.79875 61.790798 
L 143.79875 61.568593 
L 143.79875 61.346389 
L 143.79875 61.124185 
L 143.79875 60.90198 
L 143.79875 60.679776 
L 143.79875 60.457571 
L 143.79875 60.235367 
L 143.79875 60.013163 
L 143.79875 59.790958 
L 143.79875 59.568754 
L 143.79875 59.346549 
L 143.79875 59.124345 
L 143.79875 58.902141 
L 143.79875 58.679936 
L 143.79875 58.457732 
L 143.79875 58.235527 
L 143.79875 58.013323 
L 143.79875 57.791118 
L 143.79875 57.568914 
L 143.79875 57.34671 
L 143.79875 57.124505 
L 143.79875 56.902301 
L 143.79875 56.680096 
L 143.79875 56.457892 
L 143.79875 56.235688 
L 143.79875 56.013483 
L 143.79875 55.791279 
L 143.79875 55.569074 
L 143.79875 55.34687 
L 143.79875 55.124666 
L 143.79875 54.902461 
L 143.79875 54.680257 
L 143.79875 54.458052 
L 143.79875 54.235848 
L 143.79875 54.013644 
L 143.79875 53.791439 
L 143.79875 53.569235 
L 143.79875 53.34703 
L 143.79875 53.124826 
L 143.79875 52.902621 
L 143.79875 52.680417 
L 143.79875 52.458213 
L 143.79875 52.236008 
L 143.79875 52.013804 
L 143.79875 51.791599 
L 143.79875 51.569395 
L 143.79875 51.347191 
L 143.79875 51.124986 
L 143.79875 50.902782 
L 143.79875 50.680577 
L 143.79875 50.458373 
L 143.79875 50.236169 
L 143.79875 50.013964 
L 143.79875 49.79176 
L 143.79875 49.569555 
L 143.79875 49.347351 
L 143.79875 49.125147 
L 143.79875 48.902942 
L 143.79875 48.680738 
L 143.79875 48.458533 
L 143.79875 48.236329 
L 143.79875 48.014124 
L 143.79875 47.79192 
L 143.79875 47.569716 
L 143.79875 47.347511 
L 143.79875 47.125307 
L 143.79875 46.903102 
L 143.79875 46.680898 
L 143.79875 46.458694 
L 143.79875 46.236489 
L 143.79875 46.014285 
L 143.79875 45.79208 
L 143.79875 45.569876 
L 143.79875 45.347672 
L 143.79875 45.125467 
L 143.79875 44.903263 
L 143.79875 44.681058 
L 143.79875 44.458854 
L 143.79875 44.23665 
L 143.79875 44.014445 
L 143.79875 43.792241 
L 143.79875 43.570036 
L 143.79875 43.347832 
L 143.79875 43.125628 
L 143.79875 42.903423 
L 143.79875 42.681219 
L 143.79875 42.459014 
L 143.79875 42.23681 
L 143.79875 42.014605 
L 143.79875 41.792401 
L 143.79875 41.570197 
L 143.79875 41.347992 
L 143.79875 41.125788 
L 143.79875 40.903583 
L 143.79875 40.681379 
L 143.79875 40.459175 
L 143.79875 40.23697 
L 143.79875 40.014766 
L 143.79875 39.792561 
L 143.79875 39.570357 
L 143.79875 39.348153 
L 143.79875 39.125948 
L 143.79875 38.903744 
L 143.79875 38.681539 
L 143.79875 38.459335 
L 143.79875 38.237131 
L 143.79875 38.014926 
L 143.79875 37.792722 
L 143.79875 37.570517 
L 143.79875 37.348313 
L 143.79875 37.126108 
L 143.79875 36.903904 
L 143.79875 36.6817 
L 143.79875 36.459495 
L 143.79875 36.237291 
L 143.79875 36.015086 
L 143.79875 35.792882 
L 143.79875 35.570678 
L 143.79875 35.348473 
L 143.79875 35.126269 
L 143.79875 34.904064 
L 143.79875 34.68186 
L 143.79875 34.459656 
L 143.79875 34.237451 
L 143.79875 34.015247 
L 143.79875 33.793042 
L 143.79875 33.570838 
L 143.79875 33.348634 
L 143.79875 33.126429 
L 143.79875 32.904225 
L 143.79875 32.68202 
L 143.79875 32.459816 
L 143.79875 32.237611 
L 143.79875 32.015407 
L 143.79875 31.793203 
L 143.79875 31.570998 
L 143.79875 31.348794 
L 143.79875 31.126589 
L 143.79875 30.904385 
L 143.79875 30.682181 
L 143.79875 30.459976 
L 143.79875 30.237772 
L 143.79875 30.015567 
L 143.79875 29.793363 
L 143.79875 29.571159 
L 143.79875 29.348954 
L 143.79875 29.12675 
L 143.79875 28.904545 
L 143.79875 28.682341 
L 143.79875 28.460137 
L 143.79875 28.237932 
L 143.79875 28.015728 
L 143.79875 27.793523 
L 143.79875 27.571319 
L 143.79875 27.349114 
L 143.79875 27.12691 
L 143.79875 26.904706 
L 143.79875 26.682501 
L 143.79875 26.460297 
L 143.79875 26.238092 
L 143.79875 26.015888 
L 143.79875 25.793684 
L 143.79875 25.571479 
L 143.79875 25.349275 
L 143.79875 25.12707 
L 143.79875 24.904866 
L 143.79875 24.682662 
L 143.79875 24.460457 
L 143.79875 24.238253 
L 143.79875 24.016048 
L 143.79875 23.793844 
L 143.79875 23.57164 
L 143.79875 23.349435 
L 143.79875 23.127231 
L 143.79875 22.905026 
L 143.79875 22.682822 
L 143.79875 22.460617 
L 143.79875 22.238413 
L 143.79875 22.016209 
L 143.79875 21.794004 
L 143.79875 21.5718 
L 143.79875 21.349595 
L 143.79875 21.127391 
L 143.79875 20.905187 
L 143.79875 20.682982 
L 143.79875 20.460778 
L 143.79875 20.238573 
L 143.79875 20.016369 
L 143.79875 19.794165 
L 143.79875 19.57196 
L 143.79875 19.349756 
L 143.79875 19.127551 
L 143.79875 18.905347 
L 143.79875 18.683143 
L 143.79875 18.460938 
L 143.79875 18.238734 
L 143.79875 18.016529 
L 143.79875 17.794325 
L 143.79875 17.57212 
L 143.79875 17.349916 
L 143.79875 17.127712 
L 143.79875 16.905507 
L 143.79875 16.683303 
L 143.79875 16.461098 
L 143.79875 16.238894 
L 143.79875 16.01669 
L 143.79875 15.794485 
L 143.79875 15.572281 
L 143.79875 15.350076 
L 143.79875 15.127872 
L 143.79875 14.905668 
L 143.79875 14.683463 
L 143.79875 14.461259 
L 143.79875 14.239054 
L 143.79875 14.01685 
L 143.79875 13.794646 
L 143.79875 13.572441 
L 143.79875 13.350237 
L 143.79875 13.128032 
L 143.79875 12.905828 
L 143.79875 12.683623 
L 143.79875 12.461419 
L 143.79875 12.239215 
L 143.79875 12.01701 
L 143.79875 11.794806 
L 143.79875 11.572601 
L 143.79875 11.350397 
L 143.79875 11.128193 
L 143.79875 10.905988 
L 143.79875 10.683784 
L 143.79875 10.461579 
L 143.79875 10.239375 
L 143.576546 10.239375 
L 143.354341 10.239375 
L 143.132137 10.239375 
L 142.909932 10.239375 
L 142.687728 10.239375 
L 142.465524 10.239375 
L 142.243319 10.239375 
L 142.021115 10.239375 
L 141.79891 10.239375 
L 141.576706 10.239375 
L 141.354502 10.239375 
L 141.132297 10.239375 
L 140.910093 10.239375 
L 140.687888 10.239375 
L 140.465684 10.239375 
L 140.243479 10.239375 
L 140.021275 10.239375 
L 139.799071 10.239375 
L 139.576866 10.239375 
L 139.354662 10.239375 
L 139.132457 10.239375 
L 138.910253 10.239375 
L 138.688049 10.239375 
L 138.465844 10.239375 
L 138.24364 10.239375 
L 138.021435 10.239375 
L 137.799231 10.239375 
L 137.577027 10.239375 
L 137.354822 10.239375 
L 137.132618 10.239375 
L 136.910413 10.239375 
L 136.688209 10.239375 
L 136.466005 10.239375 
L 136.2438 10.239375 
L 136.021596 10.239375 
L 135.799391 10.239375 
L 135.577187 10.239375 
L 135.354982 10.239375 
L 135.132778 10.239375 
L 134.910574 10.239375 
L 134.688369 10.239375 
L 134.466165 10.239375 
L 134.24396 10.239375 
L 134.021756 10.239375 
L 133.799552 10.239375 
L 133.577347 10.239375 
L 133.355143 10.239375 
L 133.132938 10.239375 
L 132.910734 10.239375 
L 132.68853 10.239375 
L 132.466325 10.239375 
L 132.244121 10.239375 
L 132.021916 10.239375 
L 131.799712 10.239375 
L 131.577508 10.239375 
L 131.355303 10.239375 
L 131.133099 10.239375 
L 130.910894 10.239375 
L 130.68869 10.239375 
L 130.466485 10.239375 
L 130.244281 10.239375 
L 130.022077 10.239375 
L 129.799872 10.239375 
L 129.577668 10.239375 
L 129.355463 10.239375 
L 129.133259 10.239375 
L 128.911055 10.239375 
L 128.68885 10.239375 
L 128.466646 10.239375 
L 128.244441 10.239375 
L 128.022237 10.239375 
L 127.800033 10.239375 
L 127.577828 10.239375 
L 127.355624 10.239375 
L 127.133419 10.239375 
L 126.911215 10.239375 
L 126.689011 10.239375 
L 126.466806 10.239375 
L 126.244602 10.239375 
L 126.022397 10.239375 
L 125.800193 10.239375 
L 125.577988 10.239375 
L 125.355784 10.239375 
L 125.13358 10.239375 
L 124.911375 10.239375 
L 124.689171 10.239375 
L 124.466966 10.239375 
L 124.244762 10.239375 
L 124.022558 10.239375 
L 123.800353 10.239375 
L 123.578149 10.239375 
L 123.355944 10.239375 
L 123.13374 10.239375 
L 122.911536 10.239375 
L 122.689331 10.239375 
L 122.467127 10.239375 
L 122.244922 10.239375 
L 122.022718 10.239375 
L 121.800514 10.239375 
L 121.578309 10.239375 
L 121.356105 10.239375 
L 121.1339 10.239375 
L 120.911696 10.239375 
L 120.689491 10.239375 
L 120.467287 10.239375 
L 120.245083 10.239375 
L 120.022878 10.239375 
L 119.800674 10.239375 
L 119.578469 10.239375 
L 119.356265 10.239375 
L 119.134061 10.239375 
L 118.911856 10.239375 
L 118.689652 10.239375 
L 118.467447 10.239375 
L 118.245243 10.239375 
L 118.023039 10.239375 
L 117.800834 10.239375 
L 117.57863 10.239375 
L 117.356425 10.239375 
L 117.134221 10.239375 
L 116.912017 10.239375 
L 116.689812 10.239375 
L 116.467608 10.239375 
L 116.245403 10.239375 
L 116.023199 10.239375 
L 115.800994 10.239375 
L 115.57879 10.239375 
L 115.356586 10.239375 
L 115.134381 10.239375 
L 114.912177 10.239375 
L 114.689972 10.239375 
L 114.467768 10.239375 
L 114.245564 10.239375 
L 114.023359 10.239375 
L 113.801155 10.239375 
L 113.57895 10.239375 
L 113.356746 10.239375 
L 113.134542 10.239375 
L 112.912337 10.239375 
L 112.690133 10.239375 
L 112.467928 10.239375 
L 112.245724 10.239375 
L 112.02352 10.239375 
L 111.801315 10.239375 
L 111.579111 10.239375 
L 111.356906 10.239375 
L 111.134702 10.239375 
L 110.912497 10.239375 
L 110.690293 10.239375 
L 110.468089 10.239375 
L 110.245884 10.239375 
L 110.02368 10.239375 
L 109.801475 10.239375 
L 109.579271 10.239375 
L 109.357067 10.239375 
L 109.134862 10.239375 
L 108.912658 10.239375 
L 108.690453 10.239375 
L 108.468249 10.239375 
L 108.246045 10.239375 
L 108.02384 10.239375 
L 107.801636 10.239375 
L 107.579431 10.239375 
L 107.357227 10.239375 
L 107.135023 10.239375 
L 106.912818 10.239375 
L 106.690614 10.239375 
L 106.468409 10.239375 
L 106.246205 10.239375 
L 106.024001 10.239375 
L 105.801796 10.239375 
L 105.579592 10.239375 
L 105.357387 10.239375 
L 105.135183 10.239375 
L 104.912978 10.239375 
L 104.690774 10.239375 
L 104.46857 10.239375 
L 104.246365 10.239375 
L 104.024161 10.239375 
L 103.801956 10.239375 
L 103.579752 10.239375 
L 103.357548 10.239375 
L 103.135343 10.239375 
L 102.913139 10.239375 
L 102.690934 10.239375 
L 102.46873 10.239375 
L 102.246526 10.239375 
L 102.024321 10.239375 
L 101.802117 10.239375 
L 101.579912 10.239375 
L 101.357708 10.239375 
L 101.135504 10.239375 
L 100.913299 10.239375 
L 100.691095 10.239375 
L 100.46889 10.239375 
L 100.246686 10.239375 
L 100.024481 10.239375 
L 99.802277 10.239375 
L 99.580073 10.239375 
L 99.357868 10.239375 
L 99.135664 10.239375 
L 98.913459 10.239375 
L 98.691255 10.239375 
L 98.469051 10.239375 
L 98.246846 10.239375 
L 98.024642 10.239375 
L 97.802437 10.239375 
L 97.580233 10.239375 
L 97.358029 10.239375 
L 97.135824 10.239375 
L 96.91362 10.239375 
L 96.691415 10.239375 
L 96.469211 10.239375 
L 96.247007 10.239375 
L 96.024802 10.239375 
L 95.802598 10.239375 
L 95.580393 10.239375 
L 95.358189 10.239375 
L 95.135984 10.239375 
L 94.91378 10.239375 
L 94.691576 10.239375 
L 94.469371 10.239375 
L 94.247167 10.239375 
L 94.024962 10.239375 
L 93.802758 10.239375 
L 93.580554 10.239375 
L 93.358349 10.239375 
L 93.136145 10.239375 
L 92.91394 10.239375 
L 92.691736 10.239375 
L 92.469532 10.239375 
L 92.247327 10.239375 
L 92.025123 10.239375 
L 91.802918 10.239375 
L 91.580714 10.239375 
L 91.35851 10.239375 
L 91.136305 10.239375 
L 90.914101 10.239375 
L 90.691896 10.239375 
L 90.469692 10.239375 
L 90.247487 10.239375 
L 90.025283 10.239375 
L 89.803079 10.239375 
L 89.580874 10.239375 
L 89.35867 10.239375 
L 89.136465 10.239375 
L 88.914261 10.239375 
L 88.692057 10.239375 
L 88.469852 10.239375 
L 88.247648 10.239375 
L 88.025443 10.239375 
L 87.803239 10.239375 
L 87.581035 10.239375 
L 87.35883 10.239375 
L 87.136626 10.239375 
L 86.914421 10.239375 
L 86.692217 10.239375 
L 86.470013 10.239375 
L 86.247808 10.239375 
L 86.025604 10.239375 
L 85.803399 10.239375 
L 85.581195 10.239375 
L 85.35899 10.239375 
L 85.136786 10.239375 
L 84.914582 10.239375 
L 84.692377 10.239375 
L 84.470173 10.239375 
L 84.247968 10.239375 
L 84.025764 10.239375 
L 83.80356 10.239375 
L 83.581355 10.239375 
L 83.359151 10.239375 
L 83.136946 10.239375 
L 82.914742 10.239375 
L 82.692538 10.239375 
L 82.470333 10.239375 
L 82.248129 10.239375 
L 82.025924 10.239375 
L 81.80372 10.239375 
L 81.581516 10.239375 
L 81.359311 10.239375 
L 81.137107 10.239375 
L 80.914902 10.239375 
L 80.692698 10.239375 
L 80.470493 10.239375 
L 80.248289 10.239375 
L 80.026085 10.239375 
L 79.80388 10.239375 
L 79.581676 10.239375 
L 79.359471 10.239375 
L 79.137267 10.239375 
L 78.915063 10.239375 
L 78.692858 10.239375 
L 78.470654 10.239375 
L 78.248449 10.239375 
L 78.026245 10.239375 
L 77.804041 10.239375 
L 77.581836 10.239375 
L 77.359632 10.239375 
L 77.137427 10.239375 
L 76.915223 10.239375 
L 76.693019 10.239375 
L 76.470814 10.239375 
L 76.24861 10.239375 
L 76.026405 10.239375 
L 75.804201 10.239375 
L 75.581996 10.239375 
L 75.359792 10.239375 
L 75.137588 10.239375 
L 74.915383 10.239375 
L 74.693179 10.239375 
L 74.470974 10.239375 
L 74.24877 10.239375 
L 74.026566 10.239375 
L 73.804361 10.239375 
L 73.582157 10.239375 
L 73.359952 10.239375 
L 73.137748 10.239375 
L 72.915544 10.239375 
L 72.693339 10.239375 
L 72.471135 10.239375 
L 72.24893 10.239375 
L 72.026726 10.239375 
L 71.804522 10.239375 
L 71.582317 10.239375 
L 71.360113 10.239375 
L 71.137908 10.239375 
L 70.915704 10.239375 
L 70.693499 10.239375 
L 70.471295 10.239375 
L 70.249091 10.239375 
L 70.026886 10.239375 
L 69.804682 10.239375 
L 69.582477 10.239375 
L 69.360273 10.239375 
L 69.138069 10.239375 
L 68.915864 10.239375 
L 68.69366 10.239375 
L 68.471455 10.239375 
L 68.249251 10.239375 
L 68.027047 10.239375 
L 67.804842 10.239375 
L 67.582638 10.239375 
L 67.360433 10.239375 
L 67.138229 10.239375 
L 66.916025 10.239375 
L 66.69382 10.239375 
L 66.471616 10.239375 
L 66.249411 10.239375 
L 66.027207 10.239375 
L 65.805003 10.239375 
L 65.582798 10.239375 
L 65.360594 10.239375 
L 65.138389 10.239375 
L 64.916185 10.239375 
L 64.69398 10.239375 
L 64.471776 10.239375 
L 64.249572 10.239375 
L 64.027367 10.239375 
L 63.805163 10.239375 
L 63.582958 10.239375 
L 63.360754 10.239375 
L 63.13855 10.239375 
L 62.916345 10.239375 
L 62.694141 10.239375 
L 62.471936 10.239375 
L 62.249732 10.239375 
L 62.027528 10.239375 
L 61.805323 10.239375 
L 61.583119 10.239375 
L 61.360914 10.239375 
L 61.13871 10.239375 
L 60.916506 10.239375 
L 60.694301 10.239375 
L 60.472097 10.239375 
L 60.249892 10.239375 
L 60.027688 10.239375 
L 59.805483 10.239375 
L 59.583279 10.239375 
L 59.361075 10.239375 
L 59.13887 10.239375 
L 58.916666 10.239375 
L 58.694461 10.239375 
L 58.472257 10.239375 
L 58.250053 10.239375 
L 58.027848 10.239375 
L 57.805644 10.239375 
L 57.583439 10.239375 
L 57.361235 10.239375 
L 57.139031 10.239375 
L 56.916826 10.239375 
L 56.694622 10.239375 
L 56.472417 10.239375 
L 56.250213 10.239375 
L 56.028009 10.239375 
L 55.805804 10.239375 
L 55.5836 10.239375 
L 55.361395 10.239375 
L 55.139191 10.239375 
L 54.916986 10.239375 
L 54.694782 10.239375 
L 54.472578 10.239375 
L 54.250373 10.239375 
L 54.028169 10.239375 
L 53.805964 10.239375 
L 53.58376 10.239375 
L 53.361556 10.239375 
L 53.139351 10.239375 
L 52.917147 10.239375 
L 52.694942 10.239375 
L 52.472738 10.239375 
L 52.250534 10.239375 
L 52.028329 10.239375 
L 51.806125 10.239375 
L 51.58392 10.239375 
L 51.361716 10.239375 
L 51.139512 10.239375 
L 50.917307 10.239375 
L 50.695103 10.239375 
L 50.472898 10.239375 
L 50.250694 10.239375 
L 50.028489 10.239375 
L 49.806285 10.239375 
L 49.584081 10.239375 
L 49.361876 10.239375 
L 49.139672 10.239375 
L 48.917467 10.239375 
L 48.695263 10.239375 
L 48.473059 10.239375 
L 48.250854 10.239375 
L 48.02865 10.239375 
L 47.806445 10.239375 
L 47.584241 10.239375 
L 47.362037 10.239375 
L 47.139832 10.239375 
L 46.917628 10.239375 
L 46.695423 10.239375 
L 46.473219 10.239375 
L 46.251015 10.239375 
L 46.02881 10.239375 
L 45.806606 10.239375 
L 45.584401 10.239375 
L 45.362197 10.239375 
L 45.139992 10.239375 
L 44.917788 10.239375 
L 44.695584 10.239375 
L 44.473379 10.239375 
L 44.251175 10.239375 
L 44.02897 10.239375 
L 43.806766 10.239375 
L 43.584562 10.239375 
L 43.362357 10.239375 
L 43.140153 10.239375 
L 42.917948 10.239375 
L 42.695744 10.239375 
L 42.47354 10.239375 
L 42.251335 10.239375 
L 42.029131 10.239375 
L 41.806926 10.239375 
L 41.584722 10.239375 
L 41.362518 10.239375 
L 41.140313 10.239375 
L 40.918109 10.239375 
L 40.695904 10.239375 
L 40.4737 10.239375 
L 40.251495 10.239375 
L 40.029291 10.239375 
L 39.807087 10.239375 
L 39.584882 10.239375 
L 39.362678 10.239375 
L 39.140473 10.239375 
L 38.918269 10.239375 
L 38.696065 10.239375 
L 38.47386 10.239375 
L 38.251656 10.239375 
L 38.029451 10.239375 
L 37.807247 10.239375 
L 37.585043 10.239375 
L 37.362838 10.239375 
L 37.140634 10.239375 
L 36.918429 10.239375 
L 36.696225 10.239375 
L 36.474021 10.239375 
L 36.251816 10.239375 
L 36.029612 10.239375 
L 35.807407 10.239375 
L 35.585203 10.239375 
L 35.362998 10.239375 
L 35.140794 10.239375 
L 34.91859 10.239375 
L 34.696385 10.239375 
L 34.474181 10.239375 
L 34.251976 10.239375 
L 34.029772 10.239375 
L 33.807568 10.239375 
L 33.585363 10.239375 
L 33.363159 10.239375 
L 33.140954 10.239375 
L 32.91875 10.239375 
L 32.91875 10.461579 
L 32.91875 10.683784 
L 32.91875 10.905988 
L 32.91875 11.128193 
L 32.91875 11.350397 
L 32.91875 11.572601 
L 32.91875 11.794806 
L 32.91875 12.01701 
L 32.91875 12.239215 
L 32.91875 12.461419 
L 32.91875 12.683623 
L 32.91875 12.905828 
L 32.91875 13.128032 
L 32.91875 13.350237 
L 32.91875 13.572441 
L 32.91875 13.794646 
L 32.91875 14.01685 
L 32.91875 14.239054 
L 32.91875 14.461259 
L 32.91875 14.683463 
L 32.91875 14.905668 
L 32.91875 15.127872 
L 32.91875 15.350076 
L 32.91875 15.572281 
L 32.91875 15.794485 
L 32.91875 16.01669 
L 32.91875 16.238894 
L 32.91875 16.461098 
L 32.91875 16.683303 
L 32.91875 16.905507 
L 32.91875 17.127712 
L 32.91875 17.349916 
L 32.91875 17.57212 
L 32.91875 17.794325 
L 32.91875 18.016529 
L 32.91875 18.238734 
L 32.91875 18.460938 
L 32.91875 18.683143 
L 32.91875 18.905347 
L 32.91875 19.127551 
L 32.91875 19.349756 
L 32.91875 19.57196 
L 32.91875 19.794165 
L 32.91875 20.016369 
L 32.91875 20.238573 
L 32.91875 20.460778 
L 32.91875 20.682982 
L 32.91875 20.905187 
L 32.91875 21.127391 
L 32.91875 21.349595 
L 32.91875 21.5718 
L 32.91875 21.794004 
L 32.91875 22.016209 
L 32.91875 22.238413 
L 32.91875 22.460617 
L 32.91875 22.682822 
L 32.91875 22.905026 
L 32.91875 23.127231 
L 32.91875 23.349435 
L 32.91875 23.57164 
L 32.91875 23.793844 
L 32.91875 24.016048 
L 32.91875 24.238253 
L 32.91875 24.460457 
L 32.91875 24.682662 
L 32.91875 24.904866 
L 32.91875 25.12707 
L 32.91875 25.349275 
L 32.91875 25.571479 
L 32.91875 25.793684 
L 32.91875 26.015888 
L 32.91875 26.238092 
L 32.91875 26.460297 
L 32.91875 26.682501 
L 32.91875 26.904706 
L 32.91875 27.12691 
L 32.91875 27.349114 
L 32.91875 27.571319 
L 32.91875 27.793523 
L 32.91875 28.015728 
L 32.91875 28.237932 
L 32.91875 28.460137 
L 32.91875 28.682341 
L 32.91875 28.904545 
L 32.91875 29.12675 
L 32.91875 29.348954 
L 32.91875 29.571159 
L 32.91875 29.793363 
L 32.91875 30.015567 
L 32.91875 30.237772 
L 32.91875 30.459976 
L 32.91875 30.682181 
L 32.91875 30.904385 
L 32.91875 31.126589 
L 32.91875 31.348794 
L 32.91875 31.570998 
L 32.91875 31.793203 
L 32.91875 32.015407 
L 32.91875 32.237611 
L 32.91875 32.459816 
L 32.91875 32.68202 
L 32.91875 32.904225 
L 32.91875 33.126429 
L 32.91875 33.348634 
L 32.91875 33.570838 
L 32.91875 33.793042 
L 32.91875 34.015247 
L 32.91875 34.237451 
L 32.91875 34.459656 
L 32.91875 34.68186 
L 32.91875 34.904064 
L 32.91875 35.126269 
L 32.91875 35.348473 
L 32.91875 35.570678 
L 32.91875 35.792882 
L 32.91875 36.015086 
L 32.91875 36.237291 
L 32.91875 36.459495 
L 32.91875 36.6817 
L 32.91875 36.903904 
L 32.91875 37.126108 
L 32.91875 37.348313 
L 32.91875 37.570517 
L 32.91875 37.792722 
L 32.91875 38.014926 
L 32.91875 38.237131 
L 32.91875 38.459335 
L 32.91875 38.681539 
L 32.91875 38.903744 
L 32.91875 39.125948 
L 32.91875 39.348153 
L 32.91875 39.570357 
L 32.91875 39.792561 
L 32.91875 40.014766 
L 32.91875 40.23697 
L 32.91875 40.459175 
L 32.91875 40.681379 
L 32.91875 40.903583 
L 32.91875 41.125788 
L 32.91875 41.347992 
L 32.91875 41.570197 
L 32.91875 41.792401 
L 32.91875 42.014605 
L 32.91875 42.23681 
L 32.91875 42.459014 
L 32.91875 42.681219 
L 32.91875 42.903423 
L 32.91875 43.125628 
L 32.91875 43.347832 
L 32.91875 43.570036 
L 32.91875 43.792241 
L 32.91875 44.014445 
L 32.91875 44.23665 
L 32.91875 44.458854 
L 32.91875 44.681058 
L 32.91875 44.903263 
L 32.91875 45.125467 
L 32.91875 45.347672 
L 32.91875 45.569876 
L 32.91875 45.79208 
L 32.91875 46.014285 
L 32.91875 46.236489 
L 32.91875 46.458694 
L 32.91875 46.680898 
L 32.91875 46.903102 
L 32.91875 47.125307 
L 32.91875 47.347511 
L 32.91875 47.569716 
L 32.91875 47.79192 
L 32.91875 48.014124 
L 32.91875 48.236329 
L 32.91875 48.458533 
L 32.91875 48.680738 
L 32.91875 48.902942 
L 32.91875 49.125147 
L 32.91875 49.347351 
L 32.91875 49.569555 
L 32.91875 49.79176 
L 32.91875 50.013964 
L 32.91875 50.236169 
L 32.91875 50.458373 
L 32.91875 50.680577 
L 32.91875 50.902782 
L 32.91875 51.124986 
L 32.91875 51.347191 
L 32.91875 51.569395 
L 32.91875 51.791599 
L 32.91875 52.013804 
L 32.91875 52.236008 
L 32.91875 52.458213 
L 32.91875 52.680417 
L 32.91875 52.902621 
L 32.91875 53.124826 
L 32.91875 53.34703 
L 32.91875 53.569235 
L 32.91875 53.791439 
L 32.91875 54.013644 
L 32.91875 54.235848 
L 32.91875 54.458052 
L 32.91875 54.680257 
L 32.91875 54.902461 
L 32.91875 55.124666 
L 32.91875 55.34687 
L 32.91875 55.569074 
L 32.91875 55.791279 
L 32.91875 56.013483 
L 32.91875 56.235688 
L 32.91875 56.457892 
L 32.91875 56.680096 
L 32.91875 56.902301 
L 32.91875 57.124505 
L 32.91875 57.34671 
L 32.91875 57.568914 
L 32.91875 57.791118 
L 32.91875 58.013323 
L 32.91875 58.235527 
L 32.91875 58.457732 
L 32.91875 58.679936 
L 32.91875 58.902141 
L 32.91875 59.124345 
L 32.91875 59.346549 
L 32.91875 59.568754 
L 32.91875 59.790958 
L 32.91875 60.013163 
L 32.91875 60.235367 
L 32.91875 60.457571 
L 32.91875 60.679776 
L 32.91875 60.90198 
L 32.91875 61.124185 
L 32.91875 61.346389 
L 32.91875 61.568593 
L 32.91875 61.790798 
L 32.91875 62.013002 
L 32.91875 62.235207 
L 32.91875 62.457411 
L 32.91875 62.679615 
L 32.91875 62.90182 
L 32.91875 63.124024 
L 32.91875 63.346229 
L 32.91875 63.568433 
L 32.91875 63.790638 
L 32.91875 64.012842 
L 32.91875 64.235046 
L 32.91875 64.457251 
L 32.91875 64.679455 
L 32.91875 64.90166 
L 32.91875 65.123864 
L 32.91875 65.346068 
L 32.91875 65.568273 
L 32.91875 65.790477 
L 32.91875 66.012682 
L 32.91875 66.234886 
L 32.91875 66.45709 
L 32.91875 66.679295 
L 32.91875 66.901499 
L 32.91875 67.123704 
L 32.91875 67.345908 
L 32.91875 67.568112 
L 32.91875 67.790317 
L 32.91875 68.012521 
L 32.91875 68.234726 
L 32.91875 68.45693 
L 32.91875 68.679135 
L 32.91875 68.901339 
L 32.91875 69.123543 
L 32.91875 69.345748 
L 32.91875 69.567952 
L 32.91875 69.790157 
L 32.91875 70.012361 
L 32.91875 70.234565 
L 32.91875 70.45677 
L 32.91875 70.678974 
L 32.91875 70.901179 
L 32.91875 71.123383 
L 32.91875 71.345587 
L 32.91875 71.567792 
L 32.91875 71.789996 
L 32.91875 72.012201 
L 32.91875 72.234405 
L 32.91875 72.456609 
L 32.91875 72.678814 
L 32.91875 72.901018 
L 32.91875 73.123223 
L 32.91875 73.345427 
L 32.91875 73.567632 
L 32.91875 73.789836 
L 32.91875 74.01204 
L 32.91875 74.234245 
L 32.91875 74.456449 
L 32.91875 74.678654 
L 32.91875 74.900858 
L 32.91875 75.123062 
L 32.91875 75.345267 
L 32.91875 75.567471 
L 32.91875 75.789676 
L 32.91875 76.01188 
L 32.91875 76.234084 
L 32.91875 76.456289 
L 32.91875 76.678493 
L 32.91875 76.900698 
L 32.91875 77.122902 
L 32.91875 77.345106 
L 32.91875 77.567311 
L 32.91875 77.789515 
L 32.91875 78.01172 
L 32.91875 78.233924 
L 32.91875 78.456129 
L 32.91875 78.678333 
L 32.91875 78.900537 
L 32.91875 79.122742 
L 32.91875 79.344946 
L 32.91875 79.567151 
L 32.91875 79.789355 
L 32.91875 80.011559 
L 32.91875 80.233764 
L 32.91875 80.455968 
L 32.91875 80.678173 
L 32.91875 80.900377 
L 32.91875 81.122581 
L 32.91875 81.344786 
L 32.91875 81.56699 
L 32.91875 81.789195 
L 32.91875 82.011399 
L 32.91875 82.233603 
L 32.91875 82.455808 
L 32.91875 82.678012 
L 32.91875 82.900217 
L 32.91875 83.122421 
L 32.91875 83.344626 
L 32.91875 83.56683 
L 32.91875 83.789034 
L 32.91875 84.011239 
L 32.91875 84.233443 
L 32.91875 84.455648 
L 32.91875 84.677852 
L 32.91875 84.900056 
L 32.91875 85.122261 
L 32.91875 85.344465 
L 32.91875 85.56667 
L 32.91875 85.788874 
L 32.91875 86.011078 
L 32.91875 86.233283 
L 32.91875 86.455487 
L 32.91875 86.677692 
L 32.91875 86.899896 
L 32.91875 87.1221 
L 32.91875 87.344305 
L 32.91875 87.566509 
L 32.91875 87.788714 
L 32.91875 88.010918 
L 32.91875 88.233122 
L 32.91875 88.455327 
L 32.91875 88.677531 
L 32.91875 88.899736 
L 32.91875 89.12194 
L 32.91875 89.344145 
L 32.91875 89.566349 
L 32.91875 89.788553 
L 32.91875 90.010758 
L 32.91875 90.232962 
L 32.91875 90.455167 
L 32.91875 90.677371 
L 32.91875 90.899575 
L 32.91875 91.12178 
L 32.91875 91.343984 
L 32.91875 91.566189 
L 32.91875 91.788393 
L 32.91875 92.010597 
L 32.91875 92.232802 
L 32.91875 92.455006 
L 32.91875 92.677211 
L 32.91875 92.899415 
L 32.91875 93.121619 
L 32.91875 93.343824 
L 32.91875 93.566028 
L 32.91875 93.788233 
L 32.91875 94.010437 
L 32.91875 94.232642 
L 32.91875 94.454846 
L 32.91875 94.67705 
L 32.91875 94.899255 
L 32.91875 95.121459 
L 32.91875 95.343664 
L 32.91875 95.565868 
L 32.91875 95.788072 
L 32.91875 96.010277 
L 32.91875 96.232481 
L 32.91875 96.454686 
L 32.91875 96.67689 
L 32.91875 96.899094 
L 32.91875 97.121299 
L 32.91875 97.343503 
L 32.91875 97.565708 
L 32.91875 97.787912 
L 32.91875 98.010116 
L 32.91875 98.232321 
L 32.91875 98.454525 
L 32.91875 98.67673 
L 32.91875 98.898934 
L 32.91875 99.121139 
L 32.91875 99.343343 
L 32.91875 99.565547 
L 32.91875 99.787752 
L 32.91875 100.009956 
L 32.91875 100.232161 
L 32.91875 100.454365 
L 32.91875 100.676569 
L 32.91875 100.898774 
L 32.91875 101.120978 
L 32.91875 101.343183 
L 32.91875 101.565387 
L 32.91875 101.787591 
L 32.91875 102.009796 
L 32.91875 102.232 
L 32.91875 102.454205 
L 32.91875 102.676409 
L 32.91875 102.898613 
L 32.91875 103.120818 
L 32.91875 103.343022 
L 32.91875 103.565227 
L 32.91875 103.787431 
L 32.91875 104.009636 
L 32.91875 104.23184 
L 32.91875 104.454044 
L 32.91875 104.676249 
L 32.91875 104.898453 
L 32.91875 105.120658 
L 32.91875 105.342862 
L 32.91875 105.565066 
L 32.91875 105.787271 
L 32.91875 106.009475 
L 32.91875 106.23168 
L 32.91875 106.453884 
L 32.91875 106.676088 
L 32.91875 106.898293 
L 32.91875 107.120497 
L 32.91875 107.342702 
L 32.91875 107.564906 
L 32.91875 107.78711 
L 32.91875 108.009315 
L 32.91875 108.231519 
L 32.91875 108.453724 
L 32.91875 108.675928 
L 32.91875 108.898133 
L 32.91875 109.120337 
L 32.91875 109.342541 
L 32.91875 109.564746 
L 32.91875 109.78695 
L 32.91875 110.009155 
L 32.91875 110.231359 
L 32.91875 110.453563 
L 32.91875 110.675768 
L 32.91875 110.897972 
L 32.91875 111.120177 
L 32.91875 111.342381 
L 32.91875 111.564585 
L 32.91875 111.78679 
L 32.91875 112.008994 
L 32.91875 112.231199 
L 32.91875 112.453403 
L 32.91875 112.675607 
L 32.91875 112.897812 
L 32.91875 113.120016 
L 32.91875 113.342221 
L 32.91875 113.564425 
L 32.91875 113.78663 
L 32.91875 114.008834 
L 32.91875 114.231038 
L 32.91875 114.453243 
L 32.91875 114.675447 
L 32.91875 114.897652 
L 32.91875 115.119856 
L 32.91875 115.34206 
L 32.91875 115.564265 
L 32.91875 115.786469 
L 32.91875 116.008674 
L 32.91875 116.230878 
L 32.91875 116.453082 
L 32.91875 116.675287 
L 32.91875 116.897491 
L 32.91875 117.119696 
L 32.91875 117.3419 
L 32.91875 117.564104 
L 32.91875 117.786309 
L 32.91875 118.008513 
L 32.91875 118.230718 
L 32.91875 118.452922 
L 32.91875 118.675127 
L 32.91875 118.897331 
L 32.91875 119.119535 
L 32.91875 119.34174 
L 32.91875 119.563944 
L 32.91875 119.786149 
L 32.91875 120.008353 
L 32.91875 120.230557 
L 32.91875 120.452762 
L 32.91875 120.674966 
L 32.91875 120.897171 
L 32.91875 121.119375 
z
M 104.504929 84.011239 
L 104.46857 84.006801 
L 104.246365 83.976985 
L 104.024161 83.944332 
L 103.801956 83.908798 
L 103.579752 83.870337 
L 103.357548 83.828901 
L 103.158179 83.789034 
L 103.135343 83.784541 
L 102.913139 83.738067 
L 102.690934 83.688502 
L 102.46873 83.635783 
L 102.246526 83.579843 
L 102.19736 83.56683 
L 102.024321 83.521632 
L 101.802117 83.460394 
L 101.579912 83.39576 
L 101.412658 83.344626 
L 101.357708 83.328017 
L 101.135504 83.257872 
L 100.913299 83.18412 
L 100.735869 83.122421 
L 100.691095 83.107 
L 100.46889 83.027435 
L 100.246686 82.944011 
L 100.134606 82.900217 
L 100.024481 82.857513 
L 99.802277 82.767881 
L 99.589222 82.678012 
L 99.580073 82.674177 
L 99.357868 82.578051 
L 99.135664 82.477567 
L 99.089048 82.455808 
L 98.913459 82.374189 
L 98.691255 82.266645 
L 98.625117 82.233603 
L 98.469051 82.155847 
L 98.246846 82.04083 
L 98.191654 82.011399 
L 98.024642 81.922452 
L 97.802437 81.799494 
L 97.784298 81.789195 
L 97.580233 81.6733 
L 97.399873 81.56699 
L 97.358029 81.542296 
L 97.135824 81.407545 
L 97.035515 81.344786 
L 96.91362 81.268309 
L 96.691415 81.124192 
L 96.688985 81.122581 
L 96.469211 80.976262 
L 96.358718 80.900377 
L 96.247007 80.823243 
L 96.043078 80.678173 
L 96.024802 80.665088 
L 95.802598 80.502375 
L 95.740843 80.455968 
L 95.580393 80.33443 
L 95.450957 80.233764 
L 95.358189 80.160959 
L 95.172552 80.011559 
L 95.135984 79.981831 
L 94.91378 79.796978 
L 94.904792 79.789355 
L 94.691576 79.606385 
L 94.646845 79.567151 
L 94.469371 79.409472 
L 94.398233 79.344946 
L 94.247167 79.205996 
L 94.158403 79.122742 
L 94.024962 78.995681 
L 93.926859 78.900537 
L 93.802758 78.778211 
L 93.703157 78.678333 
L 93.580554 78.553231 
L 93.486904 78.456129 
L 93.358349 78.320338 
L 93.27775 78.233924 
L 93.136145 78.07908 
L 93.075386 78.01172 
L 92.91394 77.828953 
L 92.879541 77.789515 
L 92.691736 77.569392 
L 92.689981 77.567311 
L 92.50604 77.345106 
L 92.469532 77.299935 
L 92.327865 77.122902 
L 92.247327 77.019673 
L 92.155323 76.900698 
L 92.025123 76.727791 
L 91.988289 76.678493 
L 91.826319 76.456289 
L 91.802918 76.423407 
L 91.669024 76.234084 
L 91.580714 76.10541 
L 91.516855 76.01188 
L 91.369593 75.789676 
L 91.35851 75.772549 
L 91.22627 75.567471 
L 91.136305 75.423183 
L 91.087851 75.345267 
L 90.953663 75.123062 
L 90.914101 75.055596 
L 90.823458 74.900858 
L 90.697961 74.678654 
L 90.691896 74.667635 
L 90.575612 74.456449 
L 90.469692 74.256252 
L 90.458032 74.234245 
L 90.34348 74.01204 
L 90.247487 73.818058 
L 90.233481 73.789836 
L 90.126371 73.567632 
L 90.025283 73.348625 
L 90.023801 73.345427 
L 89.923725 73.123223 
L 89.827992 72.901018 
L 89.803079 72.841143 
L 89.735106 72.678814 
L 89.645848 72.456609 
L 89.580874 72.28775 
L 89.560188 72.234405 
L 89.477127 72.012201 
L 89.397913 71.789996 
L 89.35867 71.675104 
L 89.321659 71.567792 
L 89.248251 71.345587 
L 89.178444 71.123383 
L 89.136465 70.983231 
L 89.111603 70.901179 
L 89.047306 70.678974 
L 88.986399 70.45677 
L 88.928804 70.234565 
L 88.914261 70.175499 
L 88.873531 70.012361 
L 88.821145 69.790157 
L 88.771911 69.567952 
L 88.725767 69.345748 
L 88.692057 69.172282 
L 88.68243 69.123543 
L 88.641337 68.901339 
L 88.60322 68.679135 
L 88.568032 68.45693 
L 88.535726 68.234726 
L 88.506261 68.012521 
L 88.479599 67.790317 
L 88.469852 67.699894 
L 88.455363 67.568112 
L 88.433689 67.345908 
L 88.414786 67.123704 
L 88.398628 66.901499 
L 88.385195 66.679295 
L 88.37447 66.45709 
L 88.366438 66.234886 
L 88.361089 66.012682 
L 88.358416 65.790477 
L 88.358416 65.568273 
L 88.361089 65.346068 
L 88.366438 65.123864 
L 88.37447 64.90166 
L 88.385195 64.679455 
L 88.398628 64.457251 
L 88.414786 64.235046 
L 88.433689 64.012842 
L 88.455363 63.790638 
L 88.469852 63.658856 
L 88.479599 63.568433 
L 88.506261 63.346229 
L 88.535726 63.124024 
L 88.568032 62.90182 
L 88.60322 62.679615 
L 88.641337 62.457411 
L 88.68243 62.235207 
L 88.692057 62.186468 
L 88.725767 62.013002 
L 88.771911 61.790798 
L 88.821145 61.568593 
L 88.873531 61.346389 
L 88.914261 61.183251 
L 88.928804 61.124185 
L 88.986399 60.90198 
L 89.047306 60.679776 
L 89.111603 60.457571 
L 89.136465 60.375519 
L 89.178444 60.235367 
L 89.248251 60.013163 
L 89.321659 59.790958 
L 89.35867 59.683646 
L 89.397913 59.568754 
L 89.477127 59.346549 
L 89.560188 59.124345 
L 89.580874 59.071 
L 89.645848 58.902141 
L 89.735106 58.679936 
L 89.803079 58.517607 
L 89.827992 58.457732 
L 89.923725 58.235527 
L 90.023801 58.013323 
L 90.025283 58.010125 
L 90.126371 57.791118 
L 90.233481 57.568914 
L 90.247487 57.540692 
L 90.34348 57.34671 
L 90.458032 57.124505 
L 90.469692 57.102498 
L 90.575612 56.902301 
L 90.691896 56.691115 
L 90.697961 56.680096 
L 90.823458 56.457892 
L 90.914101 56.303154 
L 90.953663 56.235688 
L 91.087851 56.013483 
L 91.136305 55.935567 
L 91.22627 55.791279 
L 91.35851 55.586201 
L 91.369593 55.569074 
L 91.516855 55.34687 
L 91.580714 55.25334 
L 91.669024 55.124666 
L 91.802918 54.935343 
L 91.826319 54.902461 
L 91.988289 54.680257 
L 92.025123 54.630959 
L 92.155323 54.458052 
L 92.247327 54.339077 
L 92.327865 54.235848 
L 92.469532 54.058815 
L 92.50604 54.013644 
L 92.689981 53.791439 
L 92.691736 53.789358 
L 92.879541 53.569235 
L 92.91394 53.529797 
L 93.075386 53.34703 
L 93.136145 53.27967 
L 93.27775 53.124826 
L 93.358349 53.038412 
L 93.486904 52.902621 
L 93.580554 52.805519 
L 93.703157 52.680417 
L 93.802758 52.580539 
L 93.926859 52.458213 
L 94.024962 52.363069 
L 94.158403 52.236008 
L 94.247167 52.152754 
L 94.398233 52.013804 
L 94.469371 51.949278 
L 94.646845 51.791599 
L 94.691576 51.752365 
L 94.904792 51.569395 
L 94.91378 51.561772 
L 95.135984 51.376919 
L 95.172552 51.347191 
L 95.358189 51.197791 
L 95.450957 51.124986 
L 95.580393 51.02432 
L 95.740843 50.902782 
L 95.802598 50.856375 
L 96.024802 50.693662 
L 96.043078 50.680577 
L 96.247007 50.535507 
L 96.358718 50.458373 
L 96.469211 50.382488 
L 96.688985 50.236169 
L 96.691415 50.234558 
L 96.91362 50.090441 
L 97.035515 50.013964 
L 97.135824 49.951205 
L 97.358029 49.816454 
L 97.399873 49.79176 
L 97.580233 49.68545 
L 97.784298 49.569555 
L 97.802437 49.559256 
L 98.024642 49.436298 
L 98.191654 49.347351 
L 98.246846 49.31792 
L 98.469051 49.202903 
L 98.625117 49.125147 
L 98.691255 49.092105 
L 98.913459 48.984561 
L 99.089048 48.902942 
L 99.135664 48.881183 
L 99.357868 48.780699 
L 99.580073 48.684573 
L 99.589222 48.680738 
L 99.802277 48.590869 
L 100.024481 48.501237 
L 100.134606 48.458533 
L 100.246686 48.414739 
L 100.46889 48.331315 
L 100.691095 48.25175 
L 100.735869 48.236329 
L 100.913299 48.17463 
L 101.135504 48.100878 
L 101.357708 48.030733 
L 101.412658 48.014124 
L 101.579912 47.96299 
L 101.802117 47.898356 
L 102.024321 47.837118 
L 102.19736 47.79192 
L 102.246526 47.778907 
L 102.46873 47.722967 
L 102.690934 47.670248 
L 102.913139 47.620683 
L 103.135343 47.574209 
L 103.158179 47.569716 
L 103.357548 47.529849 
L 103.579752 47.488413 
L 103.801956 47.449952 
L 104.024161 47.414418 
L 104.246365 47.381765 
L 104.46857 47.351949 
L 104.504929 47.347511 
L 104.690774 47.324388 
L 104.912978 47.299545 
L 105.135183 47.277494 
L 105.357387 47.258207 
L 105.579592 47.241659 
L 105.801796 47.227828 
L 106.024001 47.216697 
L 106.246205 47.208251 
L 106.468409 47.202479 
L 106.690614 47.199373 
L 106.912818 47.198929 
L 107.135023 47.201147 
L 107.357227 47.20603 
L 107.579431 47.213584 
L 107.801636 47.223819 
L 108.02384 47.236748 
L 108.246045 47.252388 
L 108.468249 47.27076 
L 108.690453 47.291886 
L 108.912658 47.315795 
L 109.134862 47.342517 
L 109.172539 47.347511 
L 109.357067 47.371513 
L 109.579271 47.403216 
L 109.801475 47.437785 
L 110.02368 47.475264 
L 110.245884 47.515703 
L 110.468089 47.559152 
L 110.518832 47.569716 
L 110.690293 47.604851 
L 110.912497 47.653379 
L 111.134702 47.705039 
L 111.356906 47.759898 
L 111.479811 47.79192 
L 111.579111 47.817446 
L 111.801315 47.87757 
L 112.02352 47.941063 
L 112.245724 48.008005 
L 112.265206 48.014124 
L 112.467928 48.0771 
L 112.690133 48.149639 
L 112.912337 48.225847 
L 112.941763 48.236329 
L 113.134542 48.30437 
L 113.356746 48.386496 
L 113.543146 48.458533 
L 113.57895 48.472263 
L 113.801155 48.560536 
L 114.023359 48.652922 
L 114.087977 48.680738 
L 114.245564 48.748179 
L 114.467768 48.847196 
L 114.588324 48.902942 
L 114.689972 48.949739 
L 114.912177 49.055739 
L 115.052349 49.125147 
L 115.134381 49.165647 
L 115.356586 49.279035 
L 115.485787 49.347351 
L 115.57879 49.396456 
L 115.800994 49.517693 
L 115.893074 49.569555 
L 116.023199 49.642852 
L 116.245403 49.772457 
L 116.277648 49.79176 
L 116.467608 49.905659 
L 116.642013 50.013964 
L 116.689812 50.043724 
L 116.912017 50.185852 
L 116.988467 50.236169 
L 117.134221 50.332498 
L 117.318789 50.458373 
L 117.356425 50.484174 
L 117.57863 50.640339 
L 117.634431 50.680577 
L 117.800834 50.801382 
L 117.936661 50.902782 
L 118.023039 50.967771 
L 118.226492 51.124986 
L 118.245243 51.139605 
L 118.467447 51.316626 
L 118.504952 51.347191 
L 118.689652 51.499294 
L 118.77281 51.569395 
L 118.911856 51.687972 
L 119.030708 51.791599 
L 119.134061 51.882862 
L 119.279271 52.013804 
L 119.356265 52.084197 
L 119.51906 52.236008 
L 119.578469 52.292243 
L 119.750576 52.458213 
L 119.800674 52.507307 
L 119.974268 52.680417 
L 120.022878 52.729735 
L 120.190534 52.902621 
L 120.245083 52.959917 
L 120.399728 53.124826 
L 120.467287 53.198294 
L 120.602161 53.34703 
L 120.689491 53.445357 
L 120.798108 53.569235 
L 120.911696 53.701658 
L 120.987807 53.791439 
L 121.1339 53.967809 
L 121.171464 54.013644 
L 121.349344 54.235848 
L 121.356105 54.244469 
L 121.522097 54.458052 
L 121.578309 54.532323 
L 121.689385 54.680257 
L 121.800514 54.83242 
L 121.851313 54.902461 
L 122.00818 55.124666 
L 122.022718 55.145744 
L 122.160698 55.34687 
L 122.244922 55.473532 
L 122.308181 55.569074 
L 122.450918 55.791279 
L 122.467127 55.817151 
L 122.589793 56.013483 
L 122.689331 56.17845 
L 122.723806 56.235688 
L 122.853948 56.457892 
L 122.911536 56.559471 
L 122.979906 56.680096 
L 123.101637 56.902301 
L 123.13374 56.962701 
L 123.219851 57.124505 
L 123.333698 57.34671 
L 123.355944 57.391463 
L 123.4444 57.568914 
L 123.550829 57.791118 
L 123.578149 57.850043 
L 123.654174 58.013323 
L 123.753596 58.235527 
L 123.800353 58.343988 
L 123.849669 58.457732 
L 123.942439 58.679936 
L 124.022558 58.880506 
L 124.031261 58.902141 
L 124.117684 59.124345 
L 124.200168 59.346549 
L 124.244762 59.471869 
L 124.279551 59.568754 
L 124.356109 59.790958 
L 124.42899 60.013163 
L 124.466966 60.134336 
L 124.498979 60.235367 
L 124.56626 60.457571 
L 124.630086 60.679776 
L 124.689171 60.896907 
L 124.690569 60.90198 
L 124.749032 61.124185 
L 124.804224 61.346389 
L 124.856215 61.568593 
L 124.905071 61.790798 
L 124.911375 61.821199 
L 124.951779 62.013002 
L 124.995569 62.235207 
L 125.036348 62.457411 
L 125.074169 62.679615 
L 125.109082 62.90182 
L 125.13358 63.071455 
L 125.141312 63.124024 
L 125.171243 63.346229 
L 125.198331 63.568433 
L 125.222611 63.790638 
L 125.244115 64.012842 
L 125.262869 64.235046 
L 125.278899 64.457251 
L 125.292225 64.679455 
L 125.302865 64.90166 
L 125.310833 65.123864 
L 125.316139 65.346068 
L 125.31879 65.568273 
L 125.31879 65.790477 
L 125.316139 66.012682 
L 125.310833 66.234886 
L 125.302865 66.45709 
L 125.292225 66.679295 
L 125.278899 66.901499 
L 125.262869 67.123704 
L 125.244115 67.345908 
L 125.222611 67.568112 
L 125.198331 67.790317 
L 125.171243 68.012521 
L 125.141312 68.234726 
L 125.13358 68.287295 
L 125.109082 68.45693 
L 125.074169 68.679135 
L 125.036348 68.901339 
L 124.995569 69.123543 
L 124.951779 69.345748 
L 124.911375 69.537551 
L 124.905071 69.567952 
L 124.856215 69.790157 
L 124.804224 70.012361 
L 124.749032 70.234565 
L 124.690569 70.45677 
L 124.689171 70.461843 
L 124.630086 70.678974 
L 124.56626 70.901179 
L 124.498979 71.123383 
L 124.466966 71.224414 
L 124.42899 71.345587 
L 124.356109 71.567792 
L 124.279551 71.789996 
L 124.244762 71.886881 
L 124.200168 72.012201 
L 124.117684 72.234405 
L 124.031261 72.456609 
L 124.022558 72.478244 
L 123.942439 72.678814 
L 123.849669 72.901018 
L 123.800353 73.014762 
L 123.753596 73.123223 
L 123.654174 73.345427 
L 123.578149 73.508707 
L 123.550829 73.567632 
L 123.4444 73.789836 
L 123.355944 73.967287 
L 123.333698 74.01204 
L 123.219851 74.234245 
L 123.13374 74.396049 
L 123.101637 74.456449 
L 122.979906 74.678654 
L 122.911536 74.799279 
L 122.853948 74.900858 
L 122.723806 75.123062 
L 122.689331 75.1803 
L 122.589793 75.345267 
L 122.467127 75.541599 
L 122.450918 75.567471 
L 122.308181 75.789676 
L 122.244922 75.885218 
L 122.160698 76.01188 
L 122.022718 76.213006 
L 122.00818 76.234084 
L 121.851313 76.456289 
L 121.800514 76.52633 
L 121.689385 76.678493 
L 121.578309 76.826427 
L 121.522097 76.900698 
L 121.356105 77.114281 
L 121.349344 77.122902 
L 121.171464 77.345106 
L 121.1339 77.390941 
L 120.987807 77.567311 
L 120.911696 77.657092 
L 120.798108 77.789515 
L 120.689491 77.913393 
L 120.602161 78.01172 
L 120.467287 78.160456 
L 120.399728 78.233924 
L 120.245083 78.398833 
L 120.190534 78.456129 
L 120.022878 78.629015 
L 119.974268 78.678333 
L 119.800674 78.851443 
L 119.750576 78.900537 
L 119.578469 79.066507 
L 119.51906 79.122742 
L 119.356265 79.274553 
L 119.279271 79.344946 
L 119.134061 79.475888 
L 119.030708 79.567151 
L 118.911856 79.670778 
L 118.77281 79.789355 
L 118.689652 79.859456 
L 118.504952 80.011559 
L 118.467447 80.042124 
L 118.245243 80.219145 
L 118.226492 80.233764 
L 118.023039 80.390979 
L 117.936661 80.455968 
L 117.800834 80.557368 
L 117.634431 80.678173 
L 117.57863 80.718411 
L 117.356425 80.874576 
L 117.318789 80.900377 
L 117.134221 81.026252 
L 116.988467 81.122581 
L 116.912017 81.172898 
L 116.689812 81.315026 
L 116.642013 81.344786 
L 116.467608 81.453091 
L 116.277648 81.56699 
L 116.245403 81.586293 
L 116.023199 81.715898 
L 115.893074 81.789195 
L 115.800994 81.841057 
L 115.57879 81.962294 
L 115.485787 82.011399 
L 115.356586 82.079715 
L 115.134381 82.193103 
L 115.052349 82.233603 
L 114.912177 82.303011 
L 114.689972 82.409011 
L 114.588324 82.455808 
L 114.467768 82.511554 
L 114.245564 82.610571 
L 114.087977 82.678012 
L 114.023359 82.705828 
L 113.801155 82.798214 
L 113.57895 82.886487 
L 113.543146 82.900217 
L 113.356746 82.972254 
L 113.134542 83.05438 
L 112.941763 83.122421 
L 112.912337 83.132903 
L 112.690133 83.209111 
L 112.467928 83.28165 
L 112.265206 83.344626 
L 112.245724 83.350745 
L 112.02352 83.417687 
L 111.801315 83.48118 
L 111.579111 83.541304 
L 111.479811 83.56683 
L 111.356906 83.598852 
L 111.134702 83.653711 
L 110.912497 83.705371 
L 110.690293 83.753899 
L 110.518832 83.789034 
L 110.468089 83.799598 
L 110.245884 83.843047 
L 110.02368 83.883486 
L 109.801475 83.920965 
L 109.579271 83.955534 
L 109.357067 83.987237 
L 109.172539 84.011239 
L 109.134862 84.016233 
L 108.912658 84.042955 
L 108.690453 84.066864 
L 108.468249 84.08799 
L 108.246045 84.106362 
L 108.02384 84.122002 
L 107.801636 84.134931 
L 107.579431 84.145166 
L 107.357227 84.15272 
L 107.135023 84.157603 
L 106.912818 84.159821 
L 106.690614 84.159377 
L 106.468409 84.156271 
L 106.246205 84.150499 
L 106.024001 84.142053 
L 105.801796 84.130922 
L 105.579592 84.117091 
L 105.357387 84.100543 
L 105.135183 84.081256 
L 104.912978 84.059205 
L 104.690774 84.034362 
z
" clip-path="url(#p657be4ca39)" style="fill: #00cd6c; fill-opacity: 0.1"/>
   </g>
   <g id="matplotlib.axis_1">
    <g id="xtick_1">
     <g id="line2d_3">
      <defs>
       <path id="m4cd371f86f" d="M 0 0 
L 0 2.5 
" style="stroke: #000000; stroke-width: 0.6"/>
      </defs>
      <g>
       <use xlink:href="#m4cd371f86f" x="32.91875" y="121.119375" style="stroke: #000000; stroke-width: 0.6"/>
      </g>
     </g>
     <g id="text_1">
      <!-- -3 -->
      <g transform="translate(28.930625 133.198125)scale(0.08 -0.08)">
       <defs>
        <path id="DejaVuSans-2d" d="M 313 2009 
L 1997 2009 
L 1997 1497 
L 313 1497 
L 313 2009 
z
" transform="scale(0.015625)"/>
        <path id="DejaVuSans-33" d="M 2597 2516 
Q 3050 2419 3304 2112 
Q 3559 1806 3559 1356 
Q 3559 666 3084 287 
Q 2609 -91 1734 -91 
Q 1441 -91 1130 -33 
Q 819 25 488 141 
L 488 750 
Q 750 597 1062 519 
Q 1375 441 1716 441 
Q 2309 441 2620 675 
Q 2931 909 2931 1356 
Q 2931 1769 2642 2001 
Q 2353 2234 1838 2234 
L 1294 2234 
L 1294 2753 
L 1863 2753 
Q 2328 2753 2575 2939 
Q 2822 3125 2822 3475 
Q 2822 3834 2567 4026 
Q 2313 4219 1838 4219 
Q 1578 4219 1281 4162 
Q 984 4106 628 3988 
L 628 4550 
Q 988 4650 1302 4700 
Q 1616 4750 1894 4750 
Q 2613 4750 3031 4423 
Q 3450 4097 3450 3541 
Q 3450 3153 3228 2886 
Q 3006 2619 2597 2516 
z
" transform="scale(0.015625)"/>
       </defs>
       <use xlink:href="#DejaVuSans-2d"/>
       <use xlink:href="#DejaVuSans-33" x="36.083984"/>
      </g>
     </g>
    </g>
    <g id="xtick_2">
     <g id="line2d_4">
      <g>
       <use xlink:href="#m4cd371f86f" x="51.39875" y="121.119375" style="stroke: #000000; stroke-width: 0.6"/>
      </g>
     </g>
     <g id="text_2">
      <!-- -2 -->
      <g transform="translate(47.410625 133.198125)scale(0.08 -0.08)">
       <defs>
        <path id="DejaVuSans-32" d="M 1228 531 
L 3431 531 
L 3431 0 
L 469 0 
L 469 531 
Q 828 903 1448 1529 
Q 2069 2156 2228 2338 
Q 2531 2678 2651 2914 
Q 2772 3150 2772 3378 
Q 2772 3750 2511 3984 
Q 2250 4219 1831 4219 
Q 1534 4219 1204 4116 
Q 875 4013 500 3803 
L 500 4441 
Q 881 4594 1212 4672 
Q 1544 4750 1819 4750 
Q 2544 4750 2975 4387 
Q 3406 4025 3406 3419 
Q 3406 3131 3298 2873 
Q 3191 2616 2906 2266 
Q 2828 2175 2409 1742 
Q 1991 1309 1228 531 
z
" transform="scale(0.015625)"/>
       </defs>
       <use xlink:href="#DejaVuSans-2d"/>
       <use xlink:href="#DejaVuSans-32" x="36.083984"/>
      </g>
     </g>
    </g>
    <g id="xtick_3">
     <g id="line2d_5">
      <g>
       <use xlink:href="#m4cd371f86f" x="69.87875" y="121.119375" style="stroke: #000000; stroke-width: 0.6"/>
      </g>
     </g>
     <g id="text_3">
      <!-- -1 -->
      <g transform="translate(65.890625 133.198125)scale(0.08 -0.08)">
       <defs>
        <path id="DejaVuSans-31" d="M 794 531 
L 1825 531 
L 1825 4091 
L 703 3866 
L 703 4441 
L 1819 4666 
L 2450 4666 
L 2450 531 
L 3481 531 
L 3481 0 
L 794 0 
L 794 531 
z
" transform="scale(0.015625)"/>
       </defs>
       <use xlink:href="#DejaVuSans-2d"/>
       <use xlink:href="#DejaVuSans-31" x="36.083984"/>
      </g>
     </g>
    </g>
    <g id="xtick_4">
     <g id="line2d_6">
      <g>
       <use xlink:href="#m4cd371f86f" x="88.35875" y="121.119375" style="stroke: #000000; stroke-width: 0.6"/>
      </g>
     </g>
     <g id="text_4">
      <!-- 0 -->
      <g transform="translate(85.81375 133.198125)scale(0.08 -0.08)">
       <defs>
        <path id="DejaVuSans-30" d="M 2034 4250 
Q 1547 4250 1301 3770 
Q 1056 3291 1056 2328 
Q 1056 1369 1301 889 
Q 1547 409 2034 409 
Q 2525 409 2770 889 
Q 3016 1369 3016 2328 
Q 3016 3291 2770 3770 
Q 2525 4250 2034 4250 
z
M 2034 4750 
Q 2819 4750 3233 4129 
Q 3647 3509 3647 2328 
Q 3647 1150 3233 529 
Q 2819 -91 2034 -91 
Q 1250 -91 836 529 
Q 422 1150 422 2328 
Q 422 3509 836 4129 
Q 1250 4750 2034 4750 
z
" transform="scale(0.015625)"/>
       </defs>
       <use xlink:href="#DejaVuSans-30"/>
      </g>
     </g>
    </g>
    <g id="xtick_5">
     <g id="line2d_7">
      <g>
       <use xlink:href="#m4cd371f86f" x="106.83875" y="121.119375" style="stroke: #000000; stroke-width: 0.6"/>
      </g>
     </g>
     <g id="text_5">
      <!-- 1 -->
      <g transform="translate(104.29375 133.198125)scale(0.08 -0.08)">
       <use xlink:href="#DejaVuSans-31"/>
      </g>
     </g>
    </g>
    <g id="xtick_6">
     <g id="line2d_8">
      <g>
       <use xlink:href="#m4cd371f86f" x="125.31875" y="121.119375" style="stroke: #000000; stroke-width: 0.6"/>
      </g>
     </g>
     <g id="text_6">
      <!-- 2 -->
      <g transform="translate(122.77375 133.198125)scale(0.08 -0.08)">
       <use xlink:href="#DejaVuSans-32"/>
      </g>
     </g>
    </g>
    <g id="xtick_7">
     <g id="line2d_9">
      <g>
       <use xlink:href="#m4cd371f86f" x="143.79875" y="121.119375" style="stroke: #000000; stroke-width: 0.6"/>
      </g>
     </g>
     <g id="text_7">
      <!-- 3 -->
      <g transform="translate(141.25375 133.198125)scale(0.08 -0.08)">
       <use xlink:href="#DejaVuSans-33"/>
      </g>
     </g>
    </g>
    <g id="text_8">
     <!-- $\mathrm{Re}(h\lambda)$ -->
     <g transform="translate(75.07875 144.940625)scale(0.08 -0.08)">
      <defs>
       <path id="DejaVuSans-52" d="M 2841 2188 
Q 3044 2119 3236 1894 
Q 3428 1669 3622 1275 
L 4263 0 
L 3584 0 
L 2988 1197 
Q 2756 1666 2539 1819 
Q 2322 1972 1947 1972 
L 1259 1972 
L 1259 0 
L 628 0 
L 628 4666 
L 2053 4666 
Q 2853 4666 3247 4331 
Q 3641 3997 3641 3322 
Q 3641 2881 3436 2590 
Q 3231 2300 2841 2188 
z
M 1259 4147 
L 1259 2491 
L 2053 2491 
Q 2509 2491 2742 2702 
Q 2975 2913 2975 3322 
Q 2975 3731 2742 3939 
Q 2509 4147 2053 4147 
L 1259 4147 
z
" transform="scale(0.015625)"/>
       <path id="DejaVuSans-65" d="M 3597 1894 
L 3597 1613 
L 953 1613 
Q 991 1019 1311 708 
Q 1631 397 2203 397 
Q 2534 397 2845 478 
Q 3156 559 3463 722 
L 3463 178 
Q 3153 47 2828 -22 
Q 2503 -91 2169 -91 
Q 1331 -91 842 396 
Q 353 884 353 1716 
Q 353 2575 817 3079 
Q 1281 3584 2069 3584 
Q 2775 3584 3186 3129 
Q 3597 2675 3597 1894 
z
M 3022 2063 
Q 3016 2534 2758 2815 
Q 2500 3097 2075 3097 
Q 1594 3097 1305 2825 
Q 1016 2553 972 2059 
L 3022 2063 
z
" transform="scale(0.015625)"/>
       <path id="DejaVuSans-28" d="M 1984 4856 
Q 1566 4138 1362 3434 
Q 1159 2731 1159 2009 
Q 1159 1288 1364 580 
Q 1569 -128 1984 -844 
L 1484 -844 
Q 1016 -109 783 600 
Q 550 1309 550 2009 
Q 550 2706 781 3412 
Q 1013 4119 1484 4856 
L 1984 4856 
z
" transform="scale(0.015625)"/>
       <path id="DejaVuSans-Oblique-68" d="M 3566 2113 
L 3156 0 
L 2578 0 
L 2988 2091 
Q 3016 2238 3031 2350 
Q 3047 2463 3047 2528 
Q 3047 2791 2881 2937 
Q 2716 3084 2419 3084 
Q 1956 3084 1617 2771 
Q 1278 2459 1178 1941 
L 800 0 
L 225 0 
L 1172 4863 
L 1747 4863 
L 1375 2950 
Q 1594 3244 1934 3414 
Q 2275 3584 2650 3584 
Q 3113 3584 3367 3334 
Q 3622 3084 3622 2631 
Q 3622 2519 3608 2391 
Q 3594 2263 3566 2113 
z
" transform="scale(0.015625)"/>
       <path id="DejaVuSans-Oblique-3bb" d="M 2350 4316 
L 3125 0 
L 2516 0 
L 2038 2588 
L 328 0 
L -281 0 
L 1903 3356 
L 1794 3975 
Q 1725 4369 1391 4369 
L 1091 4369 
L 1184 4863 
L 1550 4856 
Q 2253 4847 2350 4316 
z
" transform="scale(0.015625)"/>
       <path id="DejaVuSans-29" d="M 513 4856 
L 1013 4856 
Q 1481 4119 1714 3412 
Q 1947 2706 1947 2009 
Q 1947 1309 1714 600 
Q 1481 -109 1013 -844 
L 513 -844 
Q 928 -128 1133 580 
Q 1338 1288 1338 2009 
Q 1338 2731 1133 3434 
Q 928 4138 513 4856 
z
" transform="scale(0.015625)"/>
      </defs>
      <use xlink:href="#DejaVuSans-52" transform="translate(0 0.015625)"/>
      <use xlink:href="#DejaVuSans-65" transform="translate(69.482422 0.015625)"/>
      <use xlink:href="#DejaVuSans-28" transform="translate(131.005859 0.015625)"/>
      <use xlink:href="#DejaVuSans-Oblique-68" transform="translate(170.019531 0.015625)"/>
      <use xlink:href="#DejaVuSans-Oblique-3bb" transform="translate(233.398438 0.015625)"/>
      <use xlink:href="#DejaVuSans-29" transform="translate(292.578125 0.015625)"/>
     </g>
    </g>
   </g>
   <g id="matplotlib.axis_2">
    <g id="ytick_1">
     <g id="line2d_10">
      <defs>
       <path id="m56f3a9ced1" d="M 0 0 
L -2.5 0 
" style="stroke: #000000; stroke-width: 0.6"/>
      </defs>
      <g>
       <use xlink:href="#m56f3a9ced1" x="32.91875" y="121.119375" style="stroke: #000000; stroke-width: 0.6"/>
      </g>
     </g>
     <g id="text_9">
      <!-- -3 -->
      <g transform="translate(18.9425 124.15875)scale(0.08 -0.08)">
       <use xlink:href="#DejaVuSans-2d"/>
       <use xlink:href="#DejaVuSans-33" x="36.083984"/>
      </g>
     </g>
    </g>
    <g id="ytick_2">
     <g id="line2d_11">
      <g>
       <use xlink:href="#m56f3a9ced1" x="32.91875" y="102.639375" style="stroke: #000000; stroke-width: 0.6"/>
      </g>
     </g>
     <g id="text_10">
      <!-- -2 -->
      <g transform="translate(18.9425 105.67875)scale(0.08 -0.08)">
       <use xlink:href="#DejaVuSans-2d"/>
       <use xlink:href="#DejaVuSans-32" x="36.083984"/>
      </g>
     </g>
    </g>
    <g id="ytick_3">
     <g id="line2d_12">
      <g>
       <use xlink:href="#m56f3a9ced1" x="32.91875" y="84.159375" style="stroke: #000000; stroke-width: 0.6"/>
      </g>
     </g>
     <g id="text_11">
      <!-- -1 -->
      <g transform="translate(18.9425 87.19875)scale(0.08 -0.08)">
       <use xlink:href="#DejaVuSans-2d"/>
       <use xlink:href="#DejaVuSans-31" x="36.083984"/>
      </g>
     </g>
    </g>
    <g id="ytick_4">
     <g id="line2d_13">
      <g>
       <use xlink:href="#m56f3a9ced1" x="32.91875" y="65.679375" style="stroke: #000000; stroke-width: 0.6"/>
      </g>
     </g>
     <g id="text_12">
      <!-- 0 -->
      <g transform="translate(21.82875 68.71875)scale(0.08 -0.08)">
       <use xlink:href="#DejaVuSans-30"/>
      </g>
     </g>
    </g>
    <g id="ytick_5">
     <g id="line2d_14">
      <g>
       <use xlink:href="#m56f3a9ced1" x="32.91875" y="47.199375" style="stroke: #000000; stroke-width: 0.6"/>
      </g>
     </g>
     <g id="text_13">
      <!-- 1 -->
      <g transform="translate(21.82875 50.23875)scale(0.08 -0.08)">
       <use xlink:href="#DejaVuSans-31"/>
      </g>
     </g>
    </g>
    <g id="ytick_6">
     <g id="line2d_15">
      <g>
       <use xlink:href="#m56f3a9ced1" x="32.91875" y="28.719375" style="stroke: #000000; stroke-width: 0.6"/>
      </g>
     </g>
     <g id="text_14">
      <!-- 2 -->
      <g transform="translate(21.82875 31.75875)scale(0.08 -0.08)">
       <use xlink:href="#DejaVuSans-32"/>
      </g>
     </g>
    </g>
    <g id="ytick_7">
     <g id="line2d_16">
      <g>
       <use xlink:href="#m56f3a9ced1" x="32.91875" y="10.239375" style="stroke: #000000; stroke-width: 0.6"/>
      </g>
     </g>
     <g id="text_15">
      <!-- 3 -->
      <g transform="translate(21.82875 13.27875)scale(0.08 -0.08)">
       <use xlink:href="#DejaVuSans-33"/>
      </g>
     </g>
    </g>
    <g id="text_16">
     <!-- $\mathrm{Im}(h\lambda)$ -->
     <g transform="translate(13.27875 78.639375)rotate(-90)scale(0.08 -0.08)">
      <defs>
       <path id="DejaVuSans-49" d="M 628 4666 
L 1259 4666 
L 1259 0 
L 628 0 
L 628 4666 
z
" transform="scale(0.015625)"/>
       <path id="DejaVuSans-6d" d="M 3328 2828 
Q 3544 3216 3844 3400 
Q 4144 3584 4550 3584 
Q 5097 3584 5394 3201 
Q 5691 2819 5691 2113 
L 5691 0 
L 5113 0 
L 5113 2094 
Q 5113 2597 4934 2840 
Q 4756 3084 4391 3084 
Q 3944 3084 3684 2787 
Q 3425 2491 3425 1978 
L 3425 0 
L 2847 0 
L 2847 2094 
Q 2847 2600 2669 2842 
Q 2491 3084 2119 3084 
Q 1678 3084 1418 2786 
Q 1159 2488 1159 1978 
L 1159 0 
L 581 0 
L 581 3500 
L 1159 3500 
L 1159 2956 
Q 1356 3278 1631 3431 
Q 1906 3584 2284 3584 
Q 2666 3584 2933 3390 
Q 3200 3197 3328 2828 
z
" transform="scale(0.015625)"/>
      </defs>
      <use xlink:href="#DejaVuSans-49" transform="translate(0 0.015625)"/>
      <use xlink:href="#DejaVuSans-6d" transform="translate(25.867188 0.015625)"/>
      <use xlink:href="#DejaVuSans-28" transform="translate(123.279297 0.015625)"/>
      <use xlink:href="#DejaVuSans-Oblique-68" transform="translate(162.292969 0.015625)"/>
      <use xlink:href="#DejaVuSans-Oblique-3bb" transform="translate(225.671875 0.015625)"/>
      <use xlink:href="#DejaVuSans-29" transform="translate(284.851562 0.015625)"/>
     </g>
    </g>
   </g>
   <g id="PathCollection_2">
    <path d="M 104.690774 84.034362 
L 104.912978 84.059205 
L 105.135183 84.081256 
L 105.357387 84.100543 
L 105.579592 84.117091 
L 105.801796 84.130922 
L 106.024001 84.142053 
L 106.246205 84.150499 
L 106.468409 84.156271 
L 106.690614 84.159377 
L 106.912818 84.159821 
L 107.135023 84.157603 
L 107.357227 84.15272 
L 107.579431 84.145166 
L 107.801636 84.134931 
L 108.02384 84.122002 
L 108.246045 84.106362 
L 108.468249 84.08799 
L 108.690453 84.066864 
L 108.912658 84.042955 
L 109.134862 84.016233 
L 109.172539 84.011239 
L 109.357067 83.987237 
L 109.579271 83.955534 
L 109.801475 83.920965 
L 110.02368 83.883486 
L 110.245884 83.843047 
L 110.468089 83.799598 
L 110.518832 83.789034 
L 110.690293 83.753899 
L 110.912497 83.705371 
L 111.134702 83.653711 
L 111.356906 83.598852 
L 111.479811 83.56683 
L 111.579111 83.541304 
L 111.801315 83.48118 
L 112.02352 83.417687 
L 112.245724 83.350745 
L 112.265206 83.344626 
L 112.467928 83.28165 
L 112.690133 83.209111 
L 112.912337 83.132903 
L 112.941763 83.122421 
L 113.134542 83.05438 
L 113.356746 82.972254 
L 113.543146 82.900217 
L 113.57895 82.886487 
L 113.801155 82.798214 
L 114.023359 82.705828 
L 114.087977 82.678012 
L 114.245564 82.610571 
L 114.467768 82.511554 
L 114.588324 82.455808 
L 114.689972 82.409011 
L 114.912177 82.303011 
L 115.052349 82.233603 
L 115.134381 82.193103 
L 115.356586 82.079715 
L 115.485787 82.011399 
L 115.57879 81.962294 
L 115.800994 81.841057 
L 115.893074 81.789195 
L 116.023199 81.715898 
L 116.245403 81.586293 
L 116.277648 81.56699 
L 116.467608 81.453091 
L 116.642013 81.344786 
L 116.689812 81.315026 
L 116.912017 81.172898 
L 116.988467 81.122581 
L 117.134221 81.026252 
L 117.318789 80.900377 
L 117.356425 80.874576 
L 117.57863 80.718411 
L 117.634431 80.678173 
L 117.800834 80.557368 
L 117.936661 80.455968 
L 118.023039 80.390979 
L 118.226492 80.233764 
L 118.245243 80.219145 
L 118.467447 80.042124 
L 118.504952 80.011559 
L 118.689652 79.859456 
L 118.77281 79.789355 
L 118.911856 79.670778 
L 119.030708 79.567151 
L 119.134061 79.475888 
L 119.279271 79.344946 
L 119.356265 79.274553 
L 119.51906 79.122742 
L 119.578469 79.066507 
L 119.750576 78.900537 
L 119.800674 78.851443 
L 119.974268 78.678333 
L 120.022878 78.629015 
L 120.190534 78.456129 
L 120.245083 78.398833 
L 120.399728 78.233924 
L 120.467287 78.160456 
L 120.602161 78.01172 
L 120.689491 77.913393 
L 120.798108 77.789515 
L 120.911696 77.657092 
L 120.987807 77.567311 
L 121.1339 77.390941 
L 121.171464 77.345106 
L 121.349344 77.122902 
L 121.356105 77.114281 
L 121.522097 76.900698 
L 121.578309 76.826427 
L 121.689385 76.678493 
L 121.800514 76.52633 
L 121.851313 76.456289 
L 122.00818 76.234084 
L 122.022718 76.213006 
L 122.160698 76.01188 
L 122.244922 75.885218 
L 122.308181 75.789676 
L 122.450918 75.567471 
L 122.467127 75.541599 
L 122.589793 75.345267 
L 122.689331 75.1803 
L 122.723806 75.123062 
L 122.853948 74.900858 
L 122.911536 74.799279 
L 122.979906 74.678654 
L 123.101637 74.456449 
L 123.13374 74.396049 
L 123.219851 74.234245 
L 123.333698 74.01204 
L 123.355944 73.967287 
L 123.4444 73.789836 
L 123.550829 73.567632 
L 123.578149 73.508707 
L 123.654174 73.345427 
L 123.753596 73.123223 
L 123.800353 73.014762 
L 123.849669 72.901018 
L 123.942439 72.678814 
L 124.022558 72.478244 
L 124.031261 72.456609 
L 124.117684 72.234405 
L 124.200168 72.012201 
L 124.244762 71.886881 
L 124.279551 71.789996 
L 124.356109 71.567792 
L 124.42899 71.345587 
L 124.466966 71.224414 
L 124.498979 71.123383 
L 124.56626 70.901179 
L 124.630086 70.678974 
L 124.689171 70.461843 
L 124.690569 70.45677 
L 124.749032 70.234565 
L 124.804224 70.012361 
L 124.856215 69.790157 
L 124.905071 69.567952 
L 124.911375 69.537551 
L 124.951779 69.345748 
L 124.995569 69.123543 
L 125.036348 68.901339 
L 125.074169 68.679135 
L 125.109082 68.45693 
L 125.13358 68.287295 
L 125.141312 68.234726 
L 125.171243 68.012521 
L 125.198331 67.790317 
L 125.222611 67.568112 
L 125.244115 67.345908 
L 125.262869 67.123704 
L 125.278899 66.901499 
L 125.292225 66.679295 
L 125.302865 66.45709 
L 125.310833 66.234886 
L 125.316139 66.012682 
L 125.31879 65.790477 
L 125.31879 65.568273 
L 125.316139 65.346068 
L 125.310833 65.123864 
L 125.302865 64.90166 
L 125.292225 64.679455 
L 125.278899 64.457251 
L 125.262869 64.235046 
L 125.244115 64.012842 
L 125.222611 63.790638 
L 125.198331 63.568433 
L 125.171243 63.346229 
L 125.141312 63.124024 
L 125.13358 63.071455 
L 125.109082 62.90182 
L 125.074169 62.679615 
L 125.036348 62.457411 
L 124.995569 62.235207 
L 124.951779 62.013002 
L 124.911375 61.821199 
L 124.905071 61.790798 
L 124.856215 61.568593 
L 124.804224 61.346389 
L 124.749032 61.124185 
L 124.690569 60.90198 
L 124.689171 60.896907 
L 124.630086 60.679776 
L 124.56626 60.457571 
L 124.498979 60.235367 
L 124.466966 60.134336 
L 124.42899 60.013163 
L 124.356109 59.790958 
L 124.279551 59.568754 
L 124.244762 59.471869 
L 124.200168 59.346549 
L 124.117684 59.124345 
L 124.031261 58.902141 
L 124.022558 58.880506 
L 123.942439 58.679936 
L 123.849669 58.457732 
L 123.800353 58.343988 
L 123.753596 58.235527 
L 123.654174 58.013323 
L 123.578149 57.850043 
L 123.550829 57.791118 
L 123.4444 57.568914 
L 123.355944 57.391463 
L 123.333698 57.34671 
L 123.219851 57.124505 
L 123.13374 56.962701 
L 123.101637 56.902301 
L 122.979906 56.680096 
L 122.911536 56.559471 
L 122.853948 56.457892 
L 122.723806 56.235688 
L 122.689331 56.17845 
L 122.589793 56.013483 
L 122.467127 55.817151 
L 122.450918 55.791279 
L 122.308181 55.569074 
L 122.244922 55.473532 
L 122.160698 55.34687 
L 122.022718 55.145744 
L 122.00818 55.124666 
L 121.851313 54.902461 
L 121.800514 54.83242 
L 121.689385 54.680257 
L 121.578309 54.532323 
L 121.522097 54.458052 
L 121.356105 54.244469 
L 121.349344 54.235848 
L 121.171464 54.013644 
L 121.1339 53.967809 
L 120.987807 53.791439 
L 120.911696 53.701658 
L 120.798108 53.569235 
L 120.689491 53.445357 
L 120.602161 53.34703 
L 120.467287 53.198294 
L 120.399728 53.124826 
L 120.245083 52.959917 
L 120.190534 52.902621 
L 120.022878 52.729735 
L 119.974268 52.680417 
L 119.800674 52.507307 
L 119.750576 52.458213 
L 119.578469 52.292243 
L 119.51906 52.236008 
L 119.356265 52.084197 
L 119.279271 52.013804 
L 119.134061 51.882862 
L 119.030708 51.791599 
L 118.911856 51.687972 
L 118.77281 51.569395 
L 118.689652 51.499294 
L 118.504952 51.347191 
L 118.467447 51.316626 
L 118.245243 51.139605 
L 118.226492 51.124986 
L 118.023039 50.967771 
L 117.936661 50.902782 
L 117.800834 50.801382 
L 117.634431 50.680577 
L 117.57863 50.640339 
L 117.356425 50.484174 
L 117.318789 50.458373 
L 117.134221 50.332498 
L 116.988467 50.236169 
L 116.912017 50.185852 
L 116.689812 50.043724 
L 116.642013 50.013964 
L 116.467608 49.905659 
L 116.277648 49.79176 
L 116.245403 49.772457 
L 116.023199 49.642852 
L 115.893074 49.569555 
L 115.800994 49.517693 
L 115.57879 49.396456 
L 115.485787 49.347351 
L 115.356586 49.279035 
L 115.134381 49.165647 
L 115.052349 49.125147 
L 114.912177 49.055739 
L 114.689972 48.949739 
L 114.588324 48.902942 
L 114.467768 48.847196 
L 114.245564 48.748179 
L 114.087977 48.680738 
L 114.023359 48.652922 
L 113.801155 48.560536 
L 113.57895 48.472263 
L 113.543146 48.458533 
L 113.356746 48.386496 
L 113.134542 48.30437 
L 112.941763 48.236329 
L 112.912337 48.225847 
L 112.690133 48.149639 
L 112.467928 48.0771 
L 112.265206 48.014124 
L 112.245724 48.008005 
L 112.02352 47.941063 
L 111.801315 47.87757 
L 111.579111 47.817446 
L 111.479811 47.79192 
L 111.356906 47.759898 
L 111.134702 47.705039 
L 110.912497 47.653379 
L 110.690293 47.604851 
L 110.518832 47.569716 
L 110.468089 47.559152 
L 110.245884 47.515703 
L 110.02368 47.475264 
L 109.801475 47.437785 
L 109.579271 47.403216 
L 109.357067 47.371513 
L 109.172539 47.347511 
L 109.134862 47.342517 
L 108.912658 47.315795 
L 108.690453 47.291886 
L 108.468249 47.27076 
L 108.246045 47.252388 
L 108.02384 47.236748 
L 107.801636 47.223819 
L 107.579431 47.213584 
L 107.357227 47.20603 
L 107.135023 47.201147 
L 106.912818 47.198929 
L 106.690614 47.199373 
L 106.468409 47.202479 
L 106.246205 47.208251 
L 106.024001 47.216697 
L 105.801796 47.227828 
L 105.579592 47.241659 
L 105.357387 47.258207 
L 105.135183 47.277494 
L 104.912978 47.299545 
L 104.690774 47.324388 
L 104.504929 47.347511 
L 104.46857 47.351949 
L 104.246365 47.381765 
L 104.024161 47.414418 
L 103.801956 47.449952 
L 103.579752 47.488413 
L 103.357548 47.529849 
L 103.158179 47.569716 
L 103.135343 47.574209 
L 102.913139 47.620683 
L 102.690934 47.670248 
L 102.46873 47.722967 
L 102.246526 47.778907 
L 102.19736 47.79192 
L 102.024321 47.837118 
L 101.802117 47.898356 
L 101.579912 47.96299 
L 101.412658 48.014124 
L 101.357708 48.030733 
L 101.135504 48.100878 
L 100.913299 48.17463 
L 100.735869 48.236329 
L 100.691095 48.25175 
L 100.46889 48.331315 
L 100.246686 48.414739 
L 100.134606 48.458533 
L 100.024481 48.501237 
L 99.802277 48.590869 
L 99.589222 48.680738 
L 99.580073 48.684573 
L 99.357868 48.780699 
L 99.135664 48.881183 
L 99.089048 48.902942 
L 98.913459 48.984561 
L 98.691255 49.092105 
L 98.625117 49.125147 
L 98.469051 49.202903 
L 98.246846 49.31792 
L 98.191654 49.347351 
L 98.024642 49.436298 
L 97.802437 49.559256 
L 97.784298 49.569555 
L 97.580233 49.68545 
L 97.399873 49.79176 
L 97.358029 49.816454 
L 97.135824 49.951205 
L 97.035515 50.013964 
L 96.91362 50.090441 
L 96.691415 50.234558 
L 96.688985 50.236169 
L 96.469211 50.382488 
L 96.358718 50.458373 
L 96.247007 50.535507 
L 96.043078 50.680577 
L 96.024802 50.693662 
L 95.802598 50.856375 
L 95.740843 50.902782 
L 95.580393 51.02432 
L 95.450957 51.124986 
L 95.358189 51.197791 
L 95.172552 51.347191 
L 95.135984 51.376919 
L 94.91378 51.561772 
L 94.904792 51.569395 
L 94.691576 51.752365 
L 94.646845 51.791599 
L 94.469371 51.949278 
L 94.398233 52.013804 
L 94.247167 52.152754 
L 94.158403 52.236008 
L 94.024962 52.363069 
L 93.926859 52.458213 
L 93.802758 52.580539 
L 93.703157 52.680417 
L 93.580554 52.805519 
L 93.486904 52.902621 
L 93.358349 53.038412 
L 93.27775 53.124826 
L 93.136145 53.27967 
L 93.075386 53.34703 
L 92.91394 53.529797 
L 92.879541 53.569235 
L 92.691736 53.789358 
L 92.689981 53.791439 
L 92.50604 54.013644 
L 92.469532 54.058815 
L 92.327865 54.235848 
L 92.247327 54.339077 
L 92.155323 54.458052 
L 92.025123 54.630959 
L 91.988289 54.680257 
L 91.826319 54.902461 
L 91.802918 54.935343 
L 91.669024 55.124666 
L 91.580714 55.25334 
L 91.516855 55.34687 
L 91.369593 55.569074 
L 91.35851 55.586201 
L 91.22627 55.791279 
L 91.136305 55.935567 
L 91.087851 56.013483 
L 90.953663 56.235688 
L 90.914101 56.303154 
L 90.823458 56.457892 
L 90.697961 56.680096 
L 90.691896 56.691115 
L 90.575612 56.902301 
L 90.469692 57.102498 
L 90.458032 57.124505 
L 90.34348 57.34671 
L 90.247487 57.540692 
L 90.233481 57.568914 
L 90.126371 57.791118 
L 90.025283 58.010125 
L 90.023801 58.013323 
L 89.923725 58.235527 
L 89.827992 58.457732 
L 89.803079 58.517607 
L 89.735106 58.679936 
L 89.645848 58.902141 
L 89.580874 59.071 
L 89.560188 59.124345 
L 89.477127 59.346549 
L 89.397913 59.568754 
L 89.35867 59.683646 
L 89.321659 59.790958 
L 89.248251 60.013163 
L 89.178444 60.235367 
L 89.136465 60.375519 
L 89.111603 60.457571 
L 89.047306 60.679776 
L 88.986399 60.90198 
L 88.928804 61.124185 
L 88.914261 61.183251 
L 88.873531 61.346389 
L 88.821145 61.568593 
L 88.771911 61.790798 
L 88.725767 62.013002 
L 88.692057 62.186468 
L 88.68243 62.235207 
L 88.641337 62.457411 
L 88.60322 62.679615 
L 88.568032 62.90182 
L 88.535726 63.124024 
L 88.506261 63.346229 
L 88.479599 63.568433 
L 88.469852 63.658856 
L 88.455363 63.790638 
L 88.433689 64.012842 
L 88.414786 64.235046 
L 88.398628 64.457251 
L 88.385195 64.679455 
L 88.37447 64.90166 
L 88.366438 65.123864 
L 88.361089 65.346068 
L 88.358416 65.568273 
L 88.358416 65.790477 
L 88.361089 66.012682 
L 88.366438 66.234886 
L 88.37447 66.45709 
L 88.385195 66.679295 
L 88.398628 66.901499 
L 88.414786 67.123704 
L 88.433689 67.345908 
L 88.455363 67.568112 
L 88.469852 67.699894 
L 88.479599 67.790317 
L 88.506261 68.012521 
L 88.535726 68.234726 
L 88.568032 68.45693 
L 88.60322 68.679135 
L 88.641337 68.901339 
L 88.68243 69.123543 
L 88.692057 69.172282 
L 88.725767 69.345748 
L 88.771911 69.567952 
L 88.821145 69.790157 
L 88.873531 70.012361 
L 88.914261 70.175499 
L 88.928804 70.234565 
L 88.986399 70.45677 
L 89.047306 70.678974 
L 89.111603 70.901179 
L 89.136465 70.983231 
L 89.178444 71.123383 
L 89.248251 71.345587 
L 89.321659 71.567792 
L 89.35867 71.675104 
L 89.397913 71.789996 
L 89.477127 72.012201 
L 89.560188 72.234405 
L 89.580874 72.28775 
L 89.645848 72.456609 
L 89.735106 72.678814 
L 89.803079 72.841143 
L 89.827992 72.901018 
L 89.923725 73.123223 
L 90.023801 73.345427 
L 90.025283 73.348625 
L 90.126371 73.567632 
L 90.233481 73.789836 
L 90.247487 73.818058 
L 90.34348 74.01204 
L 90.458032 74.234245 
L 90.469692 74.256252 
L 90.575612 74.456449 
L 90.691896 74.667635 
L 90.697961 74.678654 
L 90.823458 74.900858 
L 90.914101 75.055596 
L 90.953663 75.123062 
L 91.087851 75.345267 
L 91.136305 75.423183 
L 91.22627 75.567471 
L 91.35851 75.772549 
L 91.369593 75.789676 
L 91.516855 76.01188 
L 91.580714 76.10541 
L 91.669024 76.234084 
L 91.802918 76.423407 
L 91.826319 76.456289 
L 91.988289 76.678493 
L 92.025123 76.727791 
L 92.155323 76.900698 
L 92.247327 77.019673 
L 92.327865 77.122902 
L 92.469532 77.299935 
L 92.50604 77.345106 
L 92.689981 77.567311 
L 92.691736 77.569392 
L 92.879541 77.789515 
L 92.91394 77.828953 
L 93.075386 78.01172 
L 93.136145 78.07908 
L 93.27775 78.233924 
L 93.358349 78.320338 
L 93.486904 78.456129 
L 93.580554 78.553231 
L 93.703157 78.678333 
L 93.802758 78.778211 
L 93.926859 78.900537 
L 94.024962 78.995681 
L 94.158403 79.122742 
L 94.247167 79.205996 
L 94.398233 79.344946 
L 94.469371 79.409472 
L 94.646845 79.567151 
L 94.691576 79.606385 
L 94.904792 79.789355 
L 94.91378 79.796978 
L 95.135984 79.981831 
L 95.172552 80.011559 
L 95.358189 80.160959 
L 95.450957 80.233764 
L 95.580393 80.33443 
L 95.740843 80.455968 
L 95.802598 80.502375 
L 96.024802 80.665088 
L 96.043078 80.678173 
L 96.247007 80.823243 
L 96.358718 80.900377 
L 96.469211 80.976262 
L 96.688985 81.122581 
L 96.691415 81.124192 
L 96.91362 81.268309 
L 97.035515 81.344786 
L 97.135824 81.407545 
L 97.358029 81.542296 
L 97.399873 81.56699 
L 97.580233 81.6733 
L 97.784298 81.789195 
L 97.802437 81.799494 
L 98.024642 81.922452 
L 98.191654 82.011399 
L 98.246846 82.04083 
L 98.469051 82.155847 
L 98.625117 82.233603 
L 98.691255 82.266645 
L 98.913459 82.374189 
L 99.089048 82.455808 
L 99.135664 82.477567 
L 99.357868 82.578051 
L 99.580073 82.674177 
L 99.589222 82.678012 
L 99.802277 82.767881 
L 100.024481 82.857513 
L 100.134606 82.900217 
L 100.246686 82.944011 
L 100.46889 83.027435 
L 100.691095 83.107 
L 100.735869 83.122421 
L 100.913299 83.18412 
L 101.135504 83.257872 
L 101.357708 83.328017 
L 101.412658 83.344626 
L 101.579912 83.39576 
L 101.802117 83.460394 
L 102.024321 83.521632 
L 102.19736 83.56683 
L 102.246526 83.579843 
L 102.46873 83.635783 
L 102.690934 83.688502 
L 102.913139 83.738067 
L 103.135343 83.784541 
L 103.158179 83.789034 
L 103.357548 83.828901 
L 103.579752 83.870337 
L 103.801956 83.908798 
L 104.024161 83.944332 
L 104.246365 83.976985 
L 104.46857 84.006801 
L 104.504929 84.011239 
L 104.690774 84.034362 
z
" clip-path="url(#p657be4ca39)" style="fill: none; stroke: #00cd6c"/>
   </g>
   <g id="patch_3">
    <path d="M 32.91875 121.119375 
L 32.91875 10.239375 
" style="fill: none; stroke: #000000; stroke-width: 0.6; stroke-linejoin: miter; stroke-linecap: square"/>
   </g>
   <g id="patch_4">
    <path d="M 32.91875 121.119375 
L 143.79875 121.119375 
" style="fill: none; stroke: #000000; stroke-width: 0.6; stroke-linejoin: miter; stroke-linecap: square"/>
   </g>
  </g>
 </g>
 <defs>
  <clipPath id="p657be4ca39">
   <rect x="32.91875" y="10.239375" width="110.88" height="110.88"/>
  </clipPath>
 </defs>
</svg>
