<?xml version="1.0" encoding="utf-8" standalone="no"?>
<!DOCTYPE svg PUBLIC "-//W3C//DTD SVG 1.1//EN"
  "http://www.w3.org/Graphics/SVG/1.1/DTD/svg11.dtd">
<svg xmlns:xlink="http://www.w3.org/1999/xlink" width="153.54375pt" height="153.804375pt" viewBox="0 0 153.54375 153.804375" xmlns="http://www.w3.org/2000/svg" version="1.1">
 <metadata>
  <rdf:RDF xmlns:dc="http://purl.org/dc/elements/1.1/" xmlns:cc="http://creativecommons.org/ns#" xmlns:rdf="http://www.w3.org/1999/02/22-rdf-syntax-ns#">
   <cc:Work>
    <dc:type rdf:resource="http://purl.org/dc/dcmitype/StillImage"/>
    <dc:format>image/svg+xml</dc:format>
    <dc:creator>
     <cc:Agent>
      <dc:title>Matplotlib v3.5.2, https://matplotlib.org/</dc:title>
     </cc:Agent>
    </dc:creator>
   </cc:Work>
  </rdf:RDF>
 </metadata>
 <defs>
  <style type="text/css">*{stroke-linejoin: round; stroke-linecap: butt}</style>
 </defs>
 <g id="figure_1">
  <g id="patch_1">
   <path d="M 0 153.804375 
L 153.54375 153.804375 
L 153.54375 0 
L 0 0 
L 0 153.804375 
z
" style="fill: none"/>
  </g>
  <g id="axes_1">
   <g id="patch_2">
    <path d="M 32.91875 121.119375 
L 143.79875 121.119375 
L 143.79875 10.239375 
L 32.91875 10.239375 
L 32.91875 121.119375 
z
" style="fill: none"/>
   </g>
   <g id="line2d_1">
    <path d="M 88.35875 121.119375 
L 88.35875 10.239375 
" clip-path="url(#p657be4ca39)" style="fill: none; stroke: #000000; stroke-width: 0.5; stroke-linecap: square"/>
   </g>
   <g id="line2d_2">
    <path d="M 32.91875 65.679375 
L 143.79875 65.679375 
" clip-path="url(#p657be4ca39)" style="fill: none; stroke: #000000; stroke-width: 0.5; stroke-linecap: square"/>
   </g>
   <g id="PathCollection_1">
    <path d="M 33.140954 121.119375 
L 33.363159 121.119375 
L 33.585363 121.119375 
L 33.807568 121.119375 
L 34.029772 121.119375 
L 34.251976 121.119375 
L 34.474181 121.119375 
L 34.696385 121.119375 
L 34.91859 121.119375 
L 35.140794 121.119375 
L 35.362998 121.119375 
L 35.585203 121.119375 
L 35.807407 121.119375 
L 36.029612 121.119375 
L 36.251816 121.119375 
L 36.474021 121.119375 
L 36.696225 121.119375 
L 36.918429 121.119375 
L 37.140634 121.119375 
L 37.362838 121.119375 
L 37.585043 121.119375 
L 37.807247 121.119375 
L 38.029451 121.119375 
L 38.251656 121.119375 
L 38.47386 121.119375 
L 38.696065 121.119375 
L 38.918269 121.119375 
L 39.140473 121.119375 
L 39.362678 121.119375 
L 39.584882 121.119375 
L 39.807087 121.119375 
L 40.029291 121.119375 
L 40.251495 121.119375 
L 40.4737 121.119375 
L 40.695904 121.119375 
L 40.918109 121.119375 
L 41.140313 121.119375 
L 41.362518 121.119375 
L 41.584722 121.119375 
L 41.806926 121.119375 
L 42.029131 121.119375 
L 42.251335 121.119375 
L 42.47354 121.119375 
L 42.695744 121.119375 
L 42.917948 121.119375 
L 43.140153 121.119375 
L 43.362357 121.119375 
L 43.584562 121.119375 
L 43.806766 121.119375 
L 44.02897 121.119375 
L 44.251175 121.119375 
L 44.473379 121.119375 
L 44.695584 121.119375 
L 44.917788 121.119375 
L 45.139992 121.119375 
L 45.362197 121.119375 
L 45.584401 121.119375 
L 45.806606 121.119375 
L 46.02881 121.119375 
L 46.251015 121.119375 
L 46.473219 121.119375 
L 46.695423 121.119375 
L 46.917628 121.119375 
L 47.139832 121.119375 
L 47.362037 121.119375 
L 47.584241 121.119375 
L 47.806445 121.119375 
L 48.02865 121.119375 
L 48.250854 121.119375 
L 48.473059 121.119375 
L 48.695263 121.119375 
L 48.917467 121.119375 
L 49.139672 121.119375 
L 49.361876 121.119375 
L 49.584081 121.119375 
L 49.806285 121.119375 
L 50.028489 121.119375 
L 50.250694 121.119375 
L 50.472898 121.119375 
L 50.695103 121.119375 
L 50.917307 121.119375 
L 51.139512 121.119375 
L 51.361716 121.119375 
L 51.58392 121.119375 
L 51.806125 121.119375 
L 52.028329 121.119375 
L 52.250534 121.119375 
L 52.472738 121.119375 
L 52.694942 121.119375 
L 52.917147 121.119375 
L 53.139351 121.119375 
L 53.361556 121.119375 
L 53.58376 121.119375 
L 53.805964 121.119375 
L 54.028169 121.119375 
L 54.250373 121.119375 
L 54.472578 121.119375 
L 54.694782 121.119375 
L 54.916986 121.119375 
L 55.139191 121.119375 
L 55.361395 121.119375 
L 55.5836 121.119375 
L 55.805804 121.119375 
L 56.028009 121.119375 
L 56.250213 121.119375 
L 56.472417 121.119375 
L 56.694622 121.119375 
L 56.916826 121.119375 
L 57.139031 121.119375 
L 57.361235 121.119375 
L 57.583439 121.119375 
L 57.805644 121.119375 
L 58.027848 121.119375 
L 58.250053 121.119375 
L 58.472257 121.119375 
L 58.694461 121.119375 
L 58.916666 121.119375 
L 59.13887 121.119375 
L 59.361075 121.119375 
L 59.583279 121.119375 
L 59.805483 121.119375 
L 60.027688 121.119375 
L 60.249892 121.119375 
L 60.472097 121.119375 
L 60.694301 121.119375 
L 60.916506 121.119375 
L 61.13871 121.119375 
L 61.360914 121.119375 
L 61.583119 121.119375 
L 61.805323 121.119375 
L 62.027528 121.119375 
L 62.249732 121.119375 
L 62.471936 121.119375 
L 62.694141 121.119375 
L 62.916345 121.119375 
L 63.13855 121.119375 
L 63.360754 121.119375 
L 63.582958 121.119375 
L 63.805163 121.119375 
L 64.027367 121.119375 
L 64.249572 121.119375 
L 64.471776 121.119375 
L 64.69398 121.119375 
L 64.916185 121.119375 
L 65.138389 121.119375 
L 65.360594 121.119375 
L 65.582798 121.119375 
L 65.805003 121.119375 
L 66.027207 121.119375 
L 66.249411 121.119375 
L 66.471616 121.119375 
L 66.69382 121.119375 
L 66.916025 121.119375 
L 67.138229 121.119375 
L 67.360433 121.119375 
L 67.582638 121.119375 
L 67.804842 121.119375 
L 68.027047 121.119375 
L 68.249251 121.119375 
L 68.471455 121.119375 
L 68.69366 121.119375 
L 68.915864 121.119375 
L 69.138069 121.119375 
L 69.360273 121.119375 
L 69.582477 121.119375 
L 69.804682 121.119375 
L 70.026886 121.119375 
L 70.249091 121.119375 
L 70.471295 121.119375 
L 70.693499 121.119375 
L 70.915704 121.119375 
L 71.137908 121.119375 
L 71.360113 121.119375 
L 71.582317 121.119375 
L 71.804522 121.119375 
L 72.026726 121.119375 
L 72.24893 121.119375 
L 72.471135 121.119375 
L 72.693339 121.119375 
L 72.915544 121.119375 
L 73.137748 121.119375 
L 73.359952 121.119375 
L 73.582157 121.119375 
L 73.804361 121.119375 
L 74.026566 121.119375 
L 74.24877 121.119375 
L 74.470974 121.119375 
L 74.693179 121.119375 
L 74.915383 121.119375 
L 75.137588 121.119375 
L 75.359792 121.119375 
L 75.581996 121.119375 
L 75.804201 121.119375 
L 76.026405 121.119375 
L 76.24861 121.119375 
L 76.470814 121.119375 
L 76.693019 121.119375 
L 76.915223 121.119375 
L 77.137427 121.119375 
L 77.359632 121.119375 
L 77.581836 121.119375 
L 77.804041 121.119375 
L 78.026245 121.119375 
L 78.248449 121.119375 
L 78.470654 121.119375 
L 78.692858 121.119375 
L 78.915063 121.119375 
L 79.137267 121.119375 
L 79.359471 121.119375 
L 79.581676 121.119375 
L 79.80388 121.119375 
L 80.026085 121.119375 
L 80.248289 121.119375 
L 80.470493 121.119375 
L 80.692698 121.119375 
L 80.914902 121.119375 
L 81.137107 121.119375 
L 81.359311 121.119375 
L 81.581516 121.119375 
L 81.80372 121.119375 
L 82.025924 121.119375 
L 82.248129 121.119375 
L 82.470333 121.119375 
L 82.692538 121.119375 
L 82.914742 121.119375 
L 83.136946 121.119375 
L 83.359151 121.119375 
L 83.581355 121.119375 
L 83.80356 121.119375 
L 84.025764 121.119375 
L 84.247968 121.119375 
L 84.470173 121.119375 
L 84.692377 121.119375 
L 84.914582 121.119375 
L 85.136786 121.119375 
L 85.35899 121.119375 
L 85.581195 121.119375 
L 85.803399 121.119375 
L 86.025604 121.119375 
L 86.247808 121.119375 
L 86.470013 121.119375 
L 86.692217 121.119375 
L 86.914421 121.119375 
L 87.136626 121.119375 
L 87.35883 121.119375 
L 87.581035 121.119375 
L 87.803239 121.119375 
L 88.025443 121.119375 
L 88.247648 121.119375 
L 88.35875 121.119375 
L 88.35875 120.897171 
L 88.35875 120.674966 
L 88.35875 120.452762 
L 88.358748 120.230557 
L 88.35875 120.008353 
L 88.35875 119.786149 
L 88.35875 119.563944 
L 88.35875 119.34174 
L 88.35875 119.119535 
L 88.35875 118.897331 
L 88.35875 118.675127 
L 88.35875 118.452922 
L 88.358748 118.230718 
L 88.35875 118.008513 
L 88.35875 117.786309 
L 88.35875 117.564104 
L 88.35875 117.3419 
L 88.35875 117.119696 
L 88.35875 116.897491 
L 88.35875 116.675287 
L 88.35875 116.453082 
L 88.35875 116.230878 
L 88.35875 116.008674 
L 88.358748 115.786469 
L 88.358749 115.564265 
L 88.35875 115.34206 
L 88.358749 115.119856 
L 88.35875 114.897652 
L 88.35875 114.675447 
L 88.358749 114.453243 
L 88.35875 114.231038 
L 88.35875 114.008834 
L 88.35875 113.78663 
L 88.35875 113.564425 
L 88.35875 113.342221 
L 88.35875 113.120016 
L 88.358749 112.897812 
L 88.358749 112.675607 
L 88.35875 112.453403 
L 88.35875 112.231199 
L 88.35875 112.008994 
L 88.35875 111.78679 
L 88.358749 111.564585 
L 88.35875 111.342381 
L 88.35875 111.120177 
L 88.35875 110.897972 
L 88.35875 110.675768 
L 88.35875 110.453563 
L 88.35875 110.231359 
L 88.358749 110.009155 
L 88.35875 109.78695 
L 88.35875 109.564746 
L 88.35875 109.342541 
L 88.358749 109.120337 
L 88.35875 108.898133 
L 88.35875 108.675928 
L 88.35875 108.453724 
L 88.35875 108.231519 
L 88.358749 108.009315 
L 88.358749 107.78711 
L 88.35875 107.564906 
L 88.35875 107.342702 
L 88.35875 107.120497 
L 88.35875 106.898293 
L 88.358749 106.676088 
L 88.35875 106.453884 
L 88.35875 106.23168 
L 88.35875 106.009475 
L 88.35875 105.787271 
L 88.35875 105.565066 
L 88.35875 105.342862 
L 88.35875 105.120658 
L 88.358749 104.898453 
L 88.358749 104.676249 
L 88.358749 104.454044 
L 88.358749 104.23184 
L 88.35875 104.009636 
L 88.35875 103.787431 
L 88.35875 103.565227 
L 88.35875 103.343022 
L 88.35875 103.120818 
L 88.35875 102.898613 
L 88.358749 102.676409 
L 88.35875 102.454205 
L 88.35875 102.232 
L 88.35875 102.009796 
L 88.35875 101.787591 
L 88.35875 101.565387 
L 88.358749 101.343183 
L 88.35875 101.120978 
L 88.35875 100.898774 
L 88.35875 100.676569 
L 88.35875 100.454365 
L 88.35875 100.232161 
L 88.358749 100.009956 
L 88.35875 99.787752 
L 88.35875 99.565547 
L 88.358749 99.343343 
L 88.35875 99.121139 
L 88.35875 98.898934 
L 88.35875 98.67673 
L 88.35875 98.454525 
L 88.35875 98.232321 
L 88.35875 98.010116 
L 88.35875 97.787912 
L 88.35875 97.565708 
L 88.35875 97.343503 
L 88.35875 97.121299 
L 88.358749 96.899094 
L 88.35875 96.67689 
L 88.35875 96.454686 
L 88.35875 96.232481 
L 88.35875 96.010277 
L 88.35875 95.788072 
L 88.35875 95.565868 
L 88.35875 95.343664 
L 88.35875 95.121459 
L 88.35875 94.899255 
L 88.358749 94.67705 
L 88.35875 94.454846 
L 88.35875 94.232642 
L 88.35875 94.010437 
L 88.35875 93.788233 
L 88.35875 93.566028 
L 88.35875 93.343824 
L 88.35875 93.121619 
L 88.35875 92.899415 
L 88.35875 92.677211 
L 88.35875 92.455006 
L 88.35875 92.232802 
L 88.35875 92.010597 
L 88.35875 91.788393 
L 88.35875 91.566189 
L 88.35875 91.343984 
L 88.35875 91.12178 
L 88.35875 90.899575 
L 88.35875 90.677371 
L 88.35875 90.455167 
L 88.35875 90.232962 
L 88.35875 90.010758 
L 88.35875 89.788553 
L 88.35875 89.566349 
L 88.35875 89.344145 
L 88.35875 89.12194 
L 88.35875 88.899736 
L 88.35875 88.677531 
L 88.35875 88.455327 
L 88.35875 88.233122 
L 88.35875 88.010918 
L 88.35875 87.788714 
L 88.35875 87.566509 
L 88.35875 87.344305 
L 88.35875 87.1221 
L 88.35875 86.899896 
L 88.35875 86.677692 
L 88.35875 86.455487 
L 88.35875 86.233283 
L 88.35875 86.011078 
L 88.35875 85.788874 
L 88.35875 85.56667 
L 88.35875 85.344465 
L 88.35875 85.122261 
L 88.35875 84.900056 
L 88.35875 84.677852 
L 88.35875 84.455648 
L 88.35875 84.233443 
L 88.35875 84.011239 
L 88.35875 83.789034 
L 88.35875 83.56683 
L 88.35875 83.344626 
L 88.35875 83.122421 
L 88.35875 82.900217 
L 88.35875 82.678012 
L 88.35875 82.455808 
L 88.35875 82.233603 
L 88.35875 82.011399 
L 88.35875 81.789195 
L 88.35875 81.56699 
L 88.35875 81.344786 
L 88.35875 81.122581 
L 88.35875 80.900377 
L 88.35875 80.678173 
L 88.35875 80.455968 
L 88.35875 80.233764 
L 88.35875 80.011559 
L 88.35875 79.789355 
L 88.35875 79.567151 
L 88.35875 79.344946 
L 88.35875 79.122742 
L 88.35875 78.900537 
L 88.35875 78.678333 
L 88.35875 78.456129 
L 88.35875 78.233924 
L 88.35875 78.01172 
L 88.35875 77.789515 
L 88.35875 77.567311 
L 88.35875 77.345106 
L 88.35875 77.122902 
L 88.35875 76.900698 
L 88.35875 76.678493 
L 88.35875 76.456289 
L 88.35875 76.234084 
L 88.35875 76.01188 
L 88.35875 75.789676 
L 88.35875 75.567471 
L 88.35875 75.345267 
L 88.35875 75.123062 
L 88.35875 74.900858 
L 88.35875 74.678654 
L 88.35875 74.456449 
L 88.35875 74.234245 
L 88.35875 74.01204 
L 88.35875 73.789836 
L 88.35875 73.567632 
L 88.35875 73.345427 
L 88.35875 73.123223 
L 88.35875 72.901018 
L 88.35875 72.678814 
L 88.35875 72.456609 
L 88.35875 72.234405 
L 88.35875 72.012201 
L 88.35875 71.789996 
L 88.35875 71.567792 
L 88.35875 71.345587 
L 88.35875 71.123383 
L 88.35875 70.901179 
L 88.35875 70.678974 
L 88.35875 70.45677 
L 88.35875 70.234565 
L 88.35875 70.012361 
L 88.35875 69.790157 
L 88.35875 69.567952 
L 88.35875 69.345748 
L 88.35875 69.123543 
L 88.35875 68.901339 
L 88.35875 68.679135 
L 88.35875 68.45693 
L 88.35875 68.234726 
L 88.35875 68.012521 
L 88.35875 67.790317 
L 88.35875 67.568112 
L 88.35875 67.345908 
L 88.35875 67.123704 
L 88.35875 66.901499 
L 88.35875 66.679295 
L 88.35875 66.45709 
L 88.35875 66.234886 
L 88.35875 66.012682 
L 88.35875 65.790477 
L 88.35875 65.568273 
L 88.35875 65.346068 
L 88.35875 65.123864 
L 88.35875 64.90166 
L 88.35875 64.679455 
L 88.35875 64.457251 
L 88.35875 64.235046 
L 88.35875 64.012842 
L 88.35875 63.790638 
L 88.35875 63.568433 
L 88.35875 63.346229 
L 88.35875 63.124024 
L 88.35875 62.90182 
L 88.35875 62.679615 
L 88.35875 62.457411 
L 88.35875 62.235207 
L 88.35875 62.013002 
L 88.35875 61.790798 
L 88.35875 61.568593 
L 88.35875 61.346389 
L 88.35875 61.124185 
L 88.35875 60.90198 
L 88.35875 60.679776 
L 88.35875 60.457571 
L 88.35875 60.235367 
L 88.35875 60.013163 
L 88.35875 59.790958 
L 88.35875 59.568754 
L 88.35875 59.346549 
L 88.35875 59.124345 
L 88.35875 58.902141 
L 88.35875 58.679936 
L 88.35875 58.457732 
L 88.35875 58.235527 
L 88.35875 58.013323 
L 88.35875 57.791118 
L 88.35875 57.568914 
L 88.35875 57.34671 
L 88.35875 57.124505 
L 88.35875 56.902301 
L 88.35875 56.680096 
L 88.35875 56.457892 
L 88.35875 56.235688 
L 88.35875 56.013483 
L 88.35875 55.791279 
L 88.35875 55.569074 
L 88.35875 55.34687 
L 88.35875 55.124666 
L 88.35875 54.902461 
L 88.35875 54.680257 
L 88.35875 54.458052 
L 88.35875 54.235848 
L 88.35875 54.013644 
L 88.35875 53.791439 
L 88.35875 53.569235 
L 88.35875 53.34703 
L 88.35875 53.124826 
L 88.35875 52.902621 
L 88.35875 52.680417 
L 88.35875 52.458213 
L 88.35875 52.236008 
L 88.35875 52.013804 
L 88.35875 51.791599 
L 88.35875 51.569395 
L 88.35875 51.347191 
L 88.35875 51.124986 
L 88.35875 50.902782 
L 88.35875 50.680577 
L 88.35875 50.458373 
L 88.35875 50.236169 
L 88.35875 50.013964 
L 88.35875 49.79176 
L 88.35875 49.569555 
L 88.35875 49.347351 
L 88.35875 49.125147 
L 88.35875 48.902942 
L 88.35875 48.680738 
L 88.35875 48.458533 
L 88.35875 48.236329 
L 88.35875 48.014124 
L 88.35875 47.79192 
L 88.35875 47.569716 
L 88.35875 47.347511 
L 88.35875 47.125307 
L 88.35875 46.903102 
L 88.35875 46.680898 
L 88.35875 46.458694 
L 88.35875 46.236489 
L 88.35875 46.014285 
L 88.35875 45.79208 
L 88.35875 45.569876 
L 88.35875 45.347672 
L 88.35875 45.125467 
L 88.35875 44.903263 
L 88.35875 44.681058 
L 88.35875 44.458854 
L 88.35875 44.23665 
L 88.35875 44.014445 
L 88.35875 43.792241 
L 88.35875 43.570036 
L 88.35875 43.347832 
L 88.35875 43.125628 
L 88.35875 42.903423 
L 88.35875 42.681219 
L 88.35875 42.459014 
L 88.35875 42.23681 
L 88.35875 42.014605 
L 88.35875 41.792401 
L 88.35875 41.570197 
L 88.35875 41.347992 
L 88.35875 41.125788 
L 88.35875 40.903583 
L 88.35875 40.681379 
L 88.35875 40.459175 
L 88.35875 40.23697 
L 88.35875 40.014766 
L 88.35875 39.792561 
L 88.35875 39.570357 
L 88.35875 39.348153 
L 88.35875 39.125948 
L 88.35875 38.903744 
L 88.35875 38.681539 
L 88.35875 38.459335 
L 88.35875 38.237131 
L 88.35875 38.014926 
L 88.35875 37.792722 
L 88.35875 37.570517 
L 88.35875 37.348313 
L 88.35875 37.126108 
L 88.35875 36.903904 
L 88.358749 36.6817 
L 88.35875 36.459495 
L 88.35875 36.237291 
L 88.35875 36.015086 
L 88.35875 35.792882 
L 88.35875 35.570678 
L 88.35875 35.348473 
L 88.35875 35.126269 
L 88.35875 34.904064 
L 88.35875 34.68186 
L 88.358749 34.459656 
L 88.35875 34.237451 
L 88.35875 34.015247 
L 88.35875 33.793042 
L 88.35875 33.570838 
L 88.35875 33.348634 
L 88.35875 33.126429 
L 88.35875 32.904225 
L 88.35875 32.68202 
L 88.35875 32.459816 
L 88.35875 32.237611 
L 88.358749 32.015407 
L 88.35875 31.793203 
L 88.35875 31.570998 
L 88.358749 31.348794 
L 88.35875 31.126589 
L 88.35875 30.904385 
L 88.35875 30.682181 
L 88.35875 30.459976 
L 88.35875 30.237772 
L 88.358749 30.015567 
L 88.35875 29.793363 
L 88.35875 29.571159 
L 88.35875 29.348954 
L 88.35875 29.12675 
L 88.35875 28.904545 
L 88.358749 28.682341 
L 88.35875 28.460137 
L 88.35875 28.237932 
L 88.35875 28.015728 
L 88.35875 27.793523 
L 88.35875 27.571319 
L 88.35875 27.349114 
L 88.358749 27.12691 
L 88.358749 26.904706 
L 88.358749 26.682501 
L 88.358749 26.460297 
L 88.35875 26.238092 
L 88.35875 26.015888 
L 88.35875 25.793684 
L 88.35875 25.571479 
L 88.35875 25.349275 
L 88.35875 25.12707 
L 88.35875 24.904866 
L 88.358749 24.682662 
L 88.35875 24.460457 
L 88.35875 24.238253 
L 88.35875 24.016048 
L 88.35875 23.793844 
L 88.358749 23.57164 
L 88.358749 23.349435 
L 88.35875 23.127231 
L 88.35875 22.905026 
L 88.35875 22.682822 
L 88.35875 22.460617 
L 88.358749 22.238413 
L 88.35875 22.016209 
L 88.35875 21.794004 
L 88.35875 21.5718 
L 88.358749 21.349595 
L 88.35875 21.127391 
L 88.35875 20.905187 
L 88.35875 20.682982 
L 88.35875 20.460778 
L 88.35875 20.238573 
L 88.35875 20.016369 
L 88.358749 19.794165 
L 88.35875 19.57196 
L 88.35875 19.349756 
L 88.35875 19.127551 
L 88.35875 18.905347 
L 88.358749 18.683143 
L 88.358749 18.460938 
L 88.35875 18.238734 
L 88.35875 18.016529 
L 88.35875 17.794325 
L 88.35875 17.57212 
L 88.35875 17.349916 
L 88.35875 17.127712 
L 88.358749 16.905507 
L 88.35875 16.683303 
L 88.35875 16.461098 
L 88.358749 16.238894 
L 88.35875 16.01669 
L 88.358749 15.794485 
L 88.358748 15.572281 
L 88.35875 15.350076 
L 88.35875 15.127872 
L 88.35875 14.905668 
L 88.35875 14.683463 
L 88.35875 14.461259 
L 88.35875 14.239054 
L 88.35875 14.01685 
L 88.35875 13.794646 
L 88.35875 13.572441 
L 88.35875 13.350237 
L 88.358748 13.128032 
L 88.35875 12.905828 
L 88.35875 12.683623 
L 88.35875 12.461419 
L 88.35875 12.239215 
L 88.35875 12.01701 
L 88.35875 11.794806 
L 88.35875 11.572601 
L 88.35875 11.350397 
L 88.358748 11.128193 
L 88.35875 10.905988 
L 88.35875 10.683784 
L 88.35875 10.461579 
L 88.35875 10.239375 
L 88.247648 10.239375 
L 88.025443 10.239375 
L 87.803239 10.239375 
L 87.581035 10.239375 
L 87.35883 10.239375 
L 87.136626 10.239375 
L 86.914421 10.239375 
L 86.692217 10.239375 
L 86.470013 10.239375 
L 86.247808 10.239375 
L 86.025604 10.239375 
L 85.803399 10.239375 
L 85.581195 10.239375 
L 85.35899 10.239375 
L 85.136786 10.239375 
L 84.914582 10.239375 
L 84.692377 10.239375 
L 84.470173 10.239375 
L 84.247968 10.239375 
L 84.025764 10.239375 
L 83.80356 10.239375 
L 83.581355 10.239375 
L 83.359151 10.239375 
L 83.136946 10.239375 
L 82.914742 10.239375 
L 82.692538 10.239375 
L 82.470333 10.239375 
L 82.248129 10.239375 
L 82.025924 10.239375 
L 81.80372 10.239375 
L 81.581516 10.239375 
L 81.359311 10.239375 
L 81.137107 10.239375 
L 80.914902 10.239375 
L 80.692698 10.239375 
L 80.470493 10.239375 
L 80.248289 10.239375 
L 80.026085 10.239375 
L 79.80388 10.239375 
L 79.581676 10.239375 
L 79.359471 10.239375 
L 79.137267 10.239375 
L 78.915063 10.239375 
L 78.692858 10.239375 
L 78.470654 10.239375 
L 78.248449 10.239375 
L 78.026245 10.239375 
L 77.804041 10.239375 
L 77.581836 10.239375 
L 77.359632 10.239375 
L 77.137427 10.239375 
L 76.915223 10.239375 
L 76.693019 10.239375 
L 76.470814 10.239375 
L 76.24861 10.239375 
L 76.026405 10.239375 
L 75.804201 10.239375 
L 75.581996 10.239375 
L 75.359792 10.239375 
L 75.137588 10.239375 
L 74.915383 10.239375 
L 74.693179 10.239375 
L 74.470974 10.239375 
L 74.24877 10.239375 
L 74.026566 10.239375 
L 73.804361 10.239375 
L 73.582157 10.239375 
L 73.359952 10.239375 
L 73.137748 10.239375 
L 72.915544 10.239375 
L 72.693339 10.239375 
L 72.471135 10.239375 
L 72.24893 10.239375 
L 72.026726 10.239375 
L 71.804522 10.239375 
L 71.582317 10.239375 
L 71.360113 10.239375 
L 71.137908 10.239375 
L 70.915704 10.239375 
L 70.693499 10.239375 
L 70.471295 10.239375 
L 70.249091 10.239375 
L 70.026886 10.239375 
L 69.804682 10.239375 
L 69.582477 10.239375 
L 69.360273 10.239375 
L 69.138069 10.239375 
L 68.915864 10.239375 
L 68.69366 10.239375 
L 68.471455 10.239375 
L 68.249251 10.239375 
L 68.027047 10.239375 
L 67.804842 10.239375 
L 67.582638 10.239375 
L 67.360433 10.239375 
L 67.138229 10.239375 
L 66.916025 10.239375 
L 66.69382 10.239375 
L 66.471616 10.239375 
L 66.249411 10.239375 
L 66.027207 10.239375 
L 65.805003 10.239375 
L 65.582798 10.239375 
L 65.360594 10.239375 
L 65.138389 10.239375 
L 64.916185 10.239375 
L 64.69398 10.239375 
L 64.471776 10.239375 
L 64.249572 10.239375 
L 64.027367 10.239375 
L 63.805163 10.239375 
L 63.582958 10.239375 
L 63.360754 10.239375 
L 63.13855 10.239375 
L 62.916345 10.239375 
L 62.694141 10.239375 
L 62.471936 10.239375 
L 62.249732 10.239375 
L 62.027528 10.239375 
L 61.805323 10.239375 
L 61.583119 10.239375 
L 61.360914 10.239375 
L 61.13871 10.239375 
L 60.916506 10.239375 
L 60.694301 10.239375 
L 60.472097 10.239375 
L 60.249892 10.239375 
L 60.027688 10.239375 
L 59.805483 10.239375 
L 59.583279 10.239375 
L 59.361075 10.239375 
L 59.13887 10.239375 
L 58.916666 10.239375 
L 58.694461 10.239375 
L 58.472257 10.239375 
L 58.250053 10.239375 
L 58.027848 10.239375 
L 57.805644 10.239375 
L 57.583439 10.239375 
L 57.361235 10.239375 
L 57.139031 10.239375 
L 56.916826 10.239375 
L 56.694622 10.239375 
L 56.472417 10.239375 
L 56.250213 10.239375 
L 56.028009 10.239375 
L 55.805804 10.239375 
L 55.5836 10.239375 
L 55.361395 10.239375 
L 55.139191 10.239375 
L 54.916986 10.239375 
L 54.694782 10.239375 
L 54.472578 10.239375 
L 54.250373 10.239375 
L 54.028169 10.239375 
L 53.805964 10.239375 
L 53.58376 10.239375 
L 53.361556 10.239375 
L 53.139351 10.239375 
L 52.917147 10.239375 
L 52.694942 10.239375 
L 52.472738 10.239375 
L 52.250534 10.239375 
L 52.028329 10.239375 
L 51.806125 10.239375 
L 51.58392 10.239375 
L 51.361716 10.239375 
L 51.139512 10.239375 
L 50.917307 10.239375 
L 50.695103 10.239375 
L 50.472898 10.239375 
L 50.250694 10.239375 
L 50.028489 10.239375 
L 49.806285 10.239375 
L 49.584081 10.239375 
L 49.361876 10.239375 
L 49.139672 10.239375 
L 48.917467 10.239375 
L 48.695263 10.239375 
L 48.473059 10.239375 
L 48.250854 10.239375 
L 48.02865 10.239375 
L 47.806445 10.239375 
L 47.584241 10.239375 
L 47.362037 10.239375 
L 47.139832 10.239375 
L 46.917628 10.239375 
L 46.695423 10.239375 
L 46.473219 10.239375 
L 46.251015 10.239375 
L 46.02881 10.239375 
L 45.806606 10.239375 
L 45.584401 10.239375 
L 45.362197 10.239375 
L 45.139992 10.239375 
L 44.917788 10.239375 
L 44.695584 10.239375 
L 44.473379 10.239375 
L 44.251175 10.239375 
L 44.02897 10.239375 
L 43.806766 10.239375 
L 43.584562 10.239375 
L 43.362357 10.239375 
L 43.140153 10.239375 
L 42.917948 10.239375 
L 42.695744 10.239375 
L 42.47354 10.239375 
L 42.251335 10.239375 
L 42.029131 10.239375 
L 41.806926 10.239375 
L 41.584722 10.239375 
L 41.362518 10.239375 
L 41.140313 10.239375 
L 40.918109 10.239375 
L 40.695904 10.239375 
L 40.4737 10.239375 
L 40.251495 10.239375 
L 40.029291 10.239375 
L 39.807087 10.239375 
L 39.584882 10.239375 
L 39.362678 10.239375 
L 39.140473 10.239375 
L 38.918269 10.239375 
L 38.696065 10.239375 
L 38.47386 10.239375 
L 38.251656 10.239375 
L 38.029451 10.239375 
L 37.807247 10.239375 
L 37.585043 10.239375 
L 37.362838 10.239375 
L 37.140634 10.239375 
L 36.918429 10.239375 
L 36.696225 10.239375 
L 36.474021 10.239375 
L 36.251816 10.239375 
L 36.029612 10.239375 
L 35.807407 10.239375 
L 35.585203 10.239375 
L 35.362998 10.239375 
L 35.140794 10.239375 
L 34.91859 10.239375 
L 34.696385 10.239375 
L 34.474181 10.239375 
L 34.251976 10.239375 
L 34.029772 10.239375 
L 33.807568 10.239375 
L 33.585363 10.239375 
L 33.363159 10.239375 
L 33.140954 10.239375 
L 32.91875 10.239375 
L 32.91875 10.461579 
L 32.91875 10.683784 
L 32.91875 10.905988 
L 32.91875 11.128193 
L 32.91875 11.350397 
L 32.91875 11.572601 
L 32.91875 11.794806 
L 32.91875 12.01701 
L 32.91875 12.239215 
L 32.91875 12.461419 
L 32.91875 12.683623 
L 32.91875 12.905828 
L 32.91875 13.128032 
L 32.91875 13.350237 
L 32.91875 13.572441 
L 32.91875 13.794646 
L 32.91875 14.01685 
L 32.91875 14.239054 
L 32.91875 14.461259 
L 32.91875 14.683463 
L 32.91875 14.905668 
L 32.91875 15.127872 
L 32.91875 15.350076 
L 32.91875 15.572281 
L 32.91875 15.794485 
L 32.91875 16.01669 
L 32.91875 16.238894 
L 32.91875 16.461098 
L 32.91875 16.683303 
L 32.91875 16.905507 
L 32.91875 17.127712 
L 32.91875 17.349916 
L 32.91875 17.57212 
L 32.91875 17.794325 
L 32.91875 18.016529 
L 32.91875 18.238734 
L 32.91875 18.460938 
L 32.91875 18.683143 
L 32.91875 18.905347 
L 32.91875 19.127551 
L 32.91875 19.349756 
L 32.91875 19.57196 
L 32.91875 19.794165 
L 32.91875 20.016369 
L 32.91875 20.238573 
L 32.91875 20.460778 
L 32.91875 20.682982 
L 32.91875 20.905187 
L 32.91875 21.127391 
L 32.91875 21.349595 
L 32.91875 21.5718 
L 32.91875 21.794004 
L 32.91875 22.016209 
L 32.91875 22.238413 
L 32.91875 22.460617 
L 32.91875 22.682822 
L 32.91875 22.905026 
L 32.91875 23.127231 
L 32.91875 23.349435 
L 32.91875 23.57164 
L 32.91875 23.793844 
L 32.91875 24.016048 
L 32.91875 24.238253 
L 32.91875 24.460457 
L 32.91875 24.682662 
L 32.91875 24.904866 
L 32.91875 25.12707 
L 32.91875 25.349275 
L 32.91875 25.571479 
L 32.91875 25.793684 
L 32.91875 26.015888 
L 32.91875 26.238092 
L 32.91875 26.460297 
L 32.91875 26.682501 
L 32.91875 26.904706 
L 32.91875 27.12691 
L 32.91875 27.349114 
L 32.91875 27.571319 
L 32.91875 27.793523 
L 32.91875 28.015728 
L 32.91875 28.237932 
L 32.91875 28.460137 
L 32.91875 28.682341 
L 32.91875 28.904545 
L 32.91875 29.12675 
L 32.91875 29.348954 
L 32.91875 29.571159 
L 32.91875 29.793363 
L 32.91875 30.015567 
L 32.91875 30.237772 
L 32.91875 30.459976 
L 32.91875 30.682181 
L 32.91875 30.904385 
L 32.91875 31.126589 
L 32.91875 31.348794 
L 32.91875 31.570998 
L 32.91875 31.793203 
L 32.91875 32.015407 
L 32.91875 32.237611 
L 32.91875 32.459816 
L 32.91875 32.68202 
L 32.91875 32.904225 
L 32.91875 33.126429 
L 32.91875 33.348634 
L 32.91875 33.570838 
L 32.91875 33.793042 
L 32.91875 34.015247 
L 32.91875 34.237451 
L 32.91875 34.459656 
L 32.91875 34.68186 
L 32.91875 34.904064 
L 32.91875 35.126269 
L 32.91875 35.348473 
L 32.91875 35.570678 
L 32.91875 35.792882 
L 32.91875 36.015086 
L 32.91875 36.237291 
L 32.91875 36.459495 
L 32.91875 36.6817 
L 32.91875 36.903904 
L 32.91875 37.126108 
L 32.91875 37.348313 
L 32.91875 37.570517 
L 32.91875 37.792722 
L 32.91875 38.014926 
L 32.91875 38.237131 
L 32.91875 38.459335 
L 32.91875 38.681539 
L 32.91875 38.903744 
L 32.91875 39.125948 
L 32.91875 39.348153 
L 32.91875 39.570357 
L 32.91875 39.792561 
L 32.91875 40.014766 
L 32.91875 40.23697 
L 32.91875 40.459175 
L 32.91875 40.681379 
L 32.91875 40.903583 
L 32.91875 41.125788 
L 32.91875 41.347992 
L 32.91875 41.570197 
L 32.91875 41.792401 
L 32.91875 42.014605 
L 32.91875 42.23681 
L 32.91875 42.459014 
L 32.91875 42.681219 
L 32.91875 42.903423 
L 32.91875 43.125628 
L 32.91875 43.347832 
L 32.91875 43.570036 
L 32.91875 43.792241 
L 32.91875 44.014445 
L 32.91875 44.23665 
L 32.91875 44.458854 
L 32.91875 44.681058 
L 32.91875 44.903263 
L 32.91875 45.125467 
L 32.91875 45.347672 
L 32.91875 45.569876 
L 32.91875 45.79208 
L 32.91875 46.014285 
L 32.91875 46.236489 
L 32.91875 46.458694 
L 32.91875 46.680898 
L 32.91875 46.903102 
L 32.91875 47.125307 
L 32.91875 47.347511 
L 32.91875 47.569716 
L 32.91875 47.79192 
L 32.91875 48.014124 
L 32.91875 48.236329 
L 32.91875 48.458533 
L 32.91875 48.680738 
L 32.91875 48.902942 
L 32.91875 49.125147 
L 32.91875 49.347351 
L 32.91875 49.569555 
L 32.91875 49.79176 
L 32.91875 50.013964 
L 32.91875 50.236169 
L 32.91875 50.458373 
L 32.91875 50.680577 
L 32.91875 50.902782 
L 32.91875 51.124986 
L 32.91875 51.347191 
L 32.91875 51.569395 
L 32.91875 51.791599 
L 32.91875 52.013804 
L 32.91875 52.236008 
L 32.91875 52.458213 
L 32.91875 52.680417 
L 32.91875 52.902621 
L 32.91875 53.124826 
L 32.91875 53.34703 
L 32.91875 53.569235 
L 32.91875 53.791439 
L 32.91875 54.013644 
L 32.91875 54.235848 
L 32.91875 54.458052 
L 32.91875 54.680257 
L 32.91875 54.902461 
L 32.91875 55.124666 
L 32.91875 55.34687 
L 32.91875 55.569074 
L 32.91875 55.791279 
L 32.91875 56.013483 
L 32.91875 56.235688 
L 32.91875 56.457892 
L 32.91875 56.680096 
L 32.91875 56.902301 
L 32.91875 57.124505 
L 32.91875 57.34671 
L 32.91875 57.568914 
L 32.91875 57.791118 
L 32.91875 58.013323 
L 32.91875 58.235527 
L 32.91875 58.457732 
L 32.91875 58.679936 
L 32.91875 58.902141 
L 32.91875 59.124345 
L 32.91875 59.346549 
L 32.91875 59.568754 
L 32.91875 59.790958 
L 32.91875 60.013163 
L 32.91875 60.235367 
L 32.91875 60.457571 
L 32.91875 60.679776 
L 32.91875 60.90198 
L 32.91875 61.124185 
L 32.91875 61.346389 
L 32.91875 61.568593 
L 32.91875 61.790798 
L 32.91875 62.013002 
L 32.91875 62.235207 
L 32.91875 62.457411 
L 32.91875 62.679615 
L 32.91875 62.90182 
L 32.91875 63.124024 
L 32.91875 63.346229 
L 32.91875 63.568433 
L 32.91875 63.790638 
L 32.91875 64.012842 
L 32.91875 64.235046 
L 32.91875 64.457251 
L 32.91875 64.679455 
L 32.91875 64.90166 
L 32.91875 65.123864 
L 32.91875 65.346068 
L 32.91875 65.568273 
L 32.91875 65.790477 
L 32.91875 66.012682 
L 32.91875 66.234886 
L 32.91875 66.45709 
L 32.91875 66.679295 
L 32.91875 66.901499 
L 32.91875 67.123704 
L 32.91875 67.345908 
L 32.91875 67.568112 
L 32.91875 67.790317 
L 32.91875 68.012521 
L 32.91875 68.234726 
L 32.91875 68.45693 
L 32.91875 68.679135 
L 32.91875 68.901339 
L 32.91875 69.123543 
L 32.91875 69.345748 
L 32.91875 69.567952 
L 32.91875 69.790157 
L 32.91875 70.012361 
L 32.91875 70.234565 
L 32.91875 70.45677 
L 32.91875 70.678974 
L 32.91875 70.901179 
L 32.91875 71.123383 
L 32.91875 71.345587 
L 32.91875 71.567792 
L 32.91875 71.789996 
L 32.91875 72.012201 
L 32.91875 72.234405 
L 32.91875 72.456609 
L 32.91875 72.678814 
L 32.91875 72.901018 
L 32.91875 73.123223 
L 32.91875 73.345427 
L 32.91875 73.567632 
L 32.91875 73.789836 
L 32.91875 74.01204 
L 32.91875 74.234245 
L 32.91875 74.456449 
L 32.91875 74.678654 
L 32.91875 74.900858 
L 32.91875 75.123062 
L 32.91875 75.345267 
L 32.91875 75.567471 
L 32.91875 75.789676 
L 32.91875 76.01188 
L 32.91875 76.234084 
L 32.91875 76.456289 
L 32.91875 76.678493 
L 32.91875 76.900698 
L 32.91875 77.122902 
L 32.91875 77.345106 
L 32.91875 77.567311 
L 32.91875 77.789515 
L 32.91875 78.01172 
L 32.91875 78.233924 
L 32.91875 78.456129 
L 32.91875 78.678333 
L 32.91875 78.900537 
L 32.91875 79.122742 
L 32.91875 79.344946 
L 32.91875 79.567151 
L 32.91875 79.789355 
L 32.91875 80.011559 
L 32.91875 80.233764 
L 32.91875 80.455968 
L 32.91875 80.678173 
L 32.91875 80.900377 
L 32.91875 81.122581 
L 32.91875 81.344786 
L 32.91875 81.56699 
L 32.91875 81.789195 
L 32.91875 82.011399 
L 32.91875 82.233603 
L 32.91875 82.455808 
L 32.91875 82.678012 
L 32.91875 82.900217 
L 32.91875 83.122421 
L 32.91875 83.344626 
L 32.91875 83.56683 
L 32.91875 83.789034 
L 32.91875 84.011239 
L 32.91875 84.233443 
L 32.91875 84.455648 
L 32.91875 84.677852 
L 32.91875 84.900056 
L 32.91875 85.122261 
L 32.91875 85.344465 
L 32.91875 85.56667 
L 32.91875 85.788874 
L 32.91875 86.011078 
L 32.91875 86.233283 
L 32.91875 86.455487 
L 32.91875 86.677692 
L 32.91875 86.899896 
L 32.91875 87.1221 
L 32.91875 87.344305 
L 32.91875 87.566509 
L 32.91875 87.788714 
L 32.91875 88.010918 
L 32.91875 88.233122 
L 32.91875 88.455327 
L 32.91875 88.677531 
L 32.91875 88.899736 
L 32.91875 89.12194 
L 32.91875 89.344145 
L 32.91875 89.566349 
L 32.91875 89.788553 
L 32.91875 90.010758 
L 32.91875 90.232962 
L 32.91875 90.455167 
L 32.91875 90.677371 
L 32.91875 90.899575 
L 32.91875 91.12178 
L 32.91875 91.343984 
L 32.91875 91.566189 
L 32.91875 91.788393 
L 32.91875 92.010597 
L 32.91875 92.232802 
L 32.91875 92.455006 
L 32.91875 92.677211 
L 32.91875 92.899415 
L 32.91875 93.121619 
L 32.91875 93.343824 
L 32.91875 93.566028 
L 32.91875 93.788233 
L 32.91875 94.010437 
L 32.91875 94.232642 
L 32.91875 94.454846 
L 32.91875 94.67705 
L 32.91875 94.899255 
L 32.91875 95.121459 
L 32.91875 95.343664 
L 32.91875 95.565868 
L 32.91875 95.788072 
L 32.91875 96.010277 
L 32.91875 96.232481 
L 32.91875 96.454686 
L 32.91875 96.67689 
L 32.91875 96.899094 
L 32.91875 97.121299 
L 32.91875 97.343503 
L 32.91875 97.565708 
L 32.91875 97.787912 
L 32.91875 98.010116 
L 32.91875 98.232321 
L 32.91875 98.454525 
L 32.91875 98.67673 
L 32.91875 98.898934 
L 32.91875 99.121139 
L 32.91875 99.343343 
L 32.91875 99.565547 
L 32.91875 99.787752 
L 32.91875 100.009956 
L 32.91875 100.232161 
L 32.91875 100.454365 
L 32.91875 100.676569 
L 32.91875 100.898774 
L 32.91875 101.120978 
L 32.91875 101.343183 
L 32.91875 101.565387 
L 32.91875 101.787591 
L 32.91875 102.009796 
L 32.91875 102.232 
L 32.91875 102.454205 
L 32.91875 102.676409 
L 32.91875 102.898613 
L 32.91875 103.120818 
L 32.91875 103.343022 
L 32.91875 103.565227 
L 32.91875 103.787431 
L 32.91875 104.009636 
L 32.91875 104.23184 
L 32.91875 104.454044 
L 32.91875 104.676249 
L 32.91875 104.898453 
L 32.91875 105.120658 
L 32.91875 105.342862 
L 32.91875 105.565066 
L 32.91875 105.787271 
L 32.91875 106.009475 
L 32.91875 106.23168 
L 32.91875 106.453884 
L 32.91875 106.676088 
L 32.91875 106.898293 
L 32.91875 107.120497 
L 32.91875 107.342702 
L 32.91875 107.564906 
L 32.91875 107.78711 
L 32.91875 108.009315 
L 32.91875 108.231519 
L 32.91875 108.453724 
L 32.91875 108.675928 
L 32.91875 108.898133 
L 32.91875 109.120337 
L 32.91875 109.342541 
L 32.91875 109.564746 
L 32.91875 109.78695 
L 32.91875 110.009155 
L 32.91875 110.231359 
L 32.91875 110.453563 
L 32.91875 110.675768 
L 32.91875 110.897972 
L 32.91875 111.120177 
L 32.91875 111.342381 
L 32.91875 111.564585 
L 32.91875 111.78679 
L 32.91875 112.008994 
L 32.91875 112.231199 
L 32.91875 112.453403 
L 32.91875 112.675607 
L 32.91875 112.897812 
L 32.91875 113.120016 
L 32.91875 113.342221 
L 32.91875 113.564425 
L 32.91875 113.78663 
L 32.91875 114.008834 
L 32.91875 114.231038 
L 32.91875 114.453243 
L 32.91875 114.675447 
L 32.91875 114.897652 
L 32.91875 115.119856 
L 32.91875 115.34206 
L 32.91875 115.564265 
L 32.91875 115.786469 
L 32.91875 116.008674 
L 32.91875 116.230878 
L 32.91875 116.453082 
L 32.91875 116.675287 
L 32.91875 116.897491 
L 32.91875 117.119696 
L 32.91875 117.3419 
L 32.91875 117.564104 
L 32.91875 117.786309 
L 32.91875 118.008513 
L 32.91875 118.230718 
L 32.91875 118.452922 
L 32.91875 118.675127 
L 32.91875 118.897331 
L 32.91875 119.119535 
L 32.91875 119.34174 
L 32.91875 119.563944 
L 32.91875 119.786149 
L 32.91875 120.008353 
L 32.91875 120.230557 
L 32.91875 120.452762 
L 32.91875 120.674966 
L 32.91875 120.897171 
L 32.91875 121.119375 
z
" clip-path="url(#p657be4ca39)" style="fill: #00cd6c; fill-opacity: 0.1"/>
   </g>
   <g id="matplotlib.axis_1">
    <g id="xtick_1">
     <g id="line2d_3">
      <defs>
       <path id="m4cd371f86f" d="M 0 0 
L 0 2.5 
" style="stroke: #000000; stroke-width: 0.6"/>
      </defs>
      <g>
       <use xlink:href="#m4cd371f86f" x="32.91875" y="121.119375" style="stroke: #000000; stroke-width: 0.6"/>
      </g>
     </g>
     <g id="text_1">
      <!-- -3 -->
      <g transform="translate(28.930625 133.198125)scale(0.08 -0.08)">
       <defs>
        <path id="DejaVuSans-2d" d="M 313 2009 
L 1997 2009 
L 1997 1497 
L 313 1497 
L 313 2009 
z
" transform="scale(0.015625)"/>
        <path id="DejaVuSans-33" d="M 2597 2516 
Q 3050 2419 3304 2112 
Q 3559 1806 3559 1356 
Q 3559 666 3084 287 
Q 2609 -91 1734 -91 
Q 1441 -91 1130 -33 
Q 819 25 488 141 
L 488 750 
Q 750 597 1062 519 
Q 1375 441 1716 441 
Q 2309 441 2620 675 
Q 2931 909 2931 1356 
Q 2931 1769 2642 2001 
Q 2353 2234 1838 2234 
L 1294 2234 
L 1294 2753 
L 1863 2753 
Q 2328 2753 2575 2939 
Q 2822 3125 2822 3475 
Q 2822 3834 2567 4026 
Q 2313 4219 1838 4219 
Q 1578 4219 1281 4162 
Q 984 4106 628 3988 
L 628 4550 
Q 988 4650 1302 4700 
Q 1616 4750 1894 4750 
Q 2613 4750 3031 4423 
Q 3450 4097 3450 3541 
Q 3450 3153 3228 2886 
Q 3006 2619 2597 2516 
z
" transform="scale(0.015625)"/>
       </defs>
       <use xlink:href="#DejaVuSans-2d"/>
       <use xlink:href="#DejaVuSans-33" x="36.083984"/>
      </g>
     </g>
    </g>
    <g id="xtick_2">
     <g id="line2d_4">
      <g>
       <use xlink:href="#m4cd371f86f" x="51.39875" y="121.119375" style="stroke: #000000; stroke-width: 0.6"/>
      </g>
     </g>
     <g id="text_2">
      <!-- -2 -->
      <g transform="translate(47.410625 133.198125)scale(0.08 -0.08)">
       <defs>
        <path id="DejaVuSans-32" d="M 1228 531 
L 3431 531 
L 3431 0 
L 469 0 
L 469 531 
Q 828 903 1448 1529 
Q 2069 2156 2228 2338 
Q 2531 2678 2651 2914 
Q 2772 3150 2772 3378 
Q 2772 3750 2511 3984 
Q 2250 4219 1831 4219 
Q 1534 4219 1204 4116 
Q 875 4013 500 3803 
L 500 4441 
Q 881 4594 1212 4672 
Q 1544 4750 1819 4750 
Q 2544 4750 2975 4387 
Q 3406 4025 3406 3419 
Q 3406 3131 3298 2873 
Q 3191 2616 2906 2266 
Q 2828 2175 2409 1742 
Q 1991 1309 1228 531 
z
" transform="scale(0.015625)"/>
       </defs>
       <use xlink:href="#DejaVuSans-2d"/>
       <use xlink:href="#DejaVuSans-32" x="36.083984"/>
      </g>
     </g>
    </g>
    <g id="xtick_3">
     <g id="line2d_5">
      <g>
       <use xlink:href="#m4cd371f86f" x="69.87875" y="121.119375" style="stroke: #000000; stroke-width: 0.6"/>
      </g>
     </g>
     <g id="text_3">
      <!-- -1 -->
      <g transform="translate(65.890625 133.198125)scale(0.08 -0.08)">
       <defs>
        <path id="DejaVuSans-31" d="M 794 531 
L 1825 531 
L 1825 4091 
L 703 3866 
L 703 4441 
L 1819 4666 
L 2450 4666 
L 2450 531 
L 3481 531 
L 3481 0 
L 794 0 
L 794 531 
z
" transform="scale(0.015625)"/>
       </defs>
       <use xlink:href="#DejaVuSans-2d"/>
       <use xlink:href="#DejaVuSans-31" x="36.083984"/>
      </g>
     </g>
    </g>
    <g id="xtick_4">
     <g id="line2d_6">
      <g>
       <use xlink:href="#m4cd371f86f" x="88.35875" y="121.119375" style="stroke: #000000; stroke-width: 0.6"/>
      </g>
     </g>
     <g id="text_4">
      <!-- 0 -->
      <g transform="translate(85.81375 133.198125)scale(0.08 -0.08)">
       <defs>
        <path id="DejaVuSans-30" d="M 2034 4250 
Q 1547 4250 1301 3770 
Q 1056 3291 1056 2328 
Q 1056 1369 1301 889 
Q 1547 409 2034 409 
Q 2525 409 2770 889 
Q 3016 1369 3016 2328 
Q 3016 3291 2770 3770 
Q 2525 4250 2034 4250 
z
M 2034 4750 
Q 2819 4750 3233 4129 
Q 3647 3509 3647 2328 
Q 3647 1150 3233 529 
Q 2819 -91 2034 -91 
Q 1250 -91 836 529 
Q 422 1150 422 2328 
Q 422 3509 836 4129 
Q 1250 4750 2034 4750 
z
" transform="scale(0.015625)"/>
       </defs>
       <use xlink:href="#DejaVuSans-30"/>
      </g>
     </g>
    </g>
    <g id="xtick_5">
     <g id="line2d_7">
      <g>
       <use xlink:href="#m4cd371f86f" x="106.83875" y="121.119375" style="stroke: #000000; stroke-width: 0.6"/>
      </g>
     </g>
     <g id="text_5">
      <!-- 1 -->
      <g transform="translate(104.29375 133.198125)scale(0.08 -0.08)">
       <use xlink:href="#DejaVuSans-31"/>
      </g>
     </g>
    </g>
    <g id="xtick_6">
     <g id="line2d_8">
      <g>
       <use xlink:href="#m4cd371f86f" x="125.31875" y="121.119375" style="stroke: #000000; stroke-width: 0.6"/>
      </g>
     </g>
     <g id="text_6">
      <!-- 2 -->
      <g transform="translate(122.77375 133.198125)scale(0.08 -0.08)">
       <use xlink:href="#DejaVuSans-32"/>
      </g>
     </g>
    </g>
    <g id="xtick_7">
     <g id="line2d_9">
      <g>
       <use xlink:href="#m4cd371f86f" x="143.79875" y="121.119375" style="stroke: #000000; stroke-width: 0.6"/>
      </g>
     </g>
     <g id="text_7">
      <!-- 3 -->
      <g transform="translate(141.25375 133.198125)scale(0.08 -0.08)">
       <use xlink:href="#DejaVuSans-33"/>
      </g>
     </g>
    </g>
    <g id="text_8">
     <!-- $\mathrm{Re}(\lambda)$ -->
     <g transform="translate(77.59875 144.940625)scale(0.08 -0.08)">
      <defs>
       <path id="DejaVuSans-52" d="M 2841 2188 
Q 3044 2119 3236 1894 
Q 3428 1669 3622 1275 
L 4263 0 
L 3584 0 
L 2988 1197 
Q 2756 1666 2539 1819 
Q 2322 1972 1947 1972 
L 1259 1972 
L 1259 0 
L 628 0 
L 628 4666 
L 2053 4666 
Q 2853 4666 3247 4331 
Q 3641 3997 3641 3322 
Q 3641 2881 3436 2590 
Q 3231 2300 2841 2188 
z
M 1259 4147 
L 1259 2491 
L 2053 2491 
Q 2509 2491 2742 2702 
Q 2975 2913 2975 3322 
Q 2975 3731 2742 3939 
Q 2509 4147 2053 4147 
L 1259 4147 
z
" transform="scale(0.015625)"/>
       <path id="DejaVuSans-65" d="M 3597 1894 
L 3597 1613 
L 953 1613 
Q 991 1019 1311 708 
Q 1631 397 2203 397 
Q 2534 397 2845 478 
Q 3156 559 3463 722 
L 3463 178 
Q 3153 47 2828 -22 
Q 2503 -91 2169 -91 
Q 1331 -91 842 396 
Q 353 884 353 1716 
Q 353 2575 817 3079 
Q 1281 3584 2069 3584 
Q 2775 3584 3186 3129 
Q 3597 2675 3597 1894 
z
M 3022 2063 
Q 3016 2534 2758 2815 
Q 2500 3097 2075 3097 
Q 1594 3097 1305 2825 
Q 1016 2553 972 2059 
L 3022 2063 
z
" transform="scale(0.015625)"/>
       <path id="DejaVuSans-28" d="M 1984 4856 
Q 1566 4138 1362 3434 
Q 1159 2731 1159 2009 
Q 1159 1288 1364 580 
Q 1569 -128 1984 -844 
L 1484 -844 
Q 1016 -109 783 600 
Q 550 1309 550 2009 
Q 550 2706 781 3412 
Q 1013 4119 1484 4856 
L 1984 4856 
z
" transform="scale(0.015625)"/>
       <path id="DejaVuSans-Oblique-3bb" d="M 2350 4316 
L 3125 0 
L 2516 0 
L 2038 2588 
L 328 0 
L -281 0 
L 1903 3356 
L 1794 3975 
Q 1725 4369 1391 4369 
L 1091 4369 
L 1184 4863 
L 1550 4856 
Q 2253 4847 2350 4316 
z
" transform="scale(0.015625)"/>
       <path id="DejaVuSans-29" d="M 513 4856 
L 1013 4856 
Q 1481 4119 1714 3412 
Q 1947 2706 1947 2009 
Q 1947 1309 1714 600 
Q 1481 -109 1013 -844 
L 513 -844 
Q 928 -128 1133 580 
Q 1338 1288 1338 2009 
Q 1338 2731 1133 3434 
Q 928 4138 513 4856 
z
" transform="scale(0.015625)"/>
      </defs>
      <use xlink:href="#DejaVuSans-52" transform="translate(0 0.015625)"/>
      <use xlink:href="#DejaVuSans-65" transform="translate(69.482422 0.015625)"/>
      <use xlink:href="#DejaVuSans-28" transform="translate(131.005859 0.015625)"/>
      <use xlink:href="#DejaVuSans-Oblique-3bb" transform="translate(170.019531 0.015625)"/>
      <use xlink:href="#DejaVuSans-29" transform="translate(229.199219 0.015625)"/>
     </g>
    </g>
   </g>
   <g id="matplotlib.axis_2">
    <g id="ytick_1">
     <g id="line2d_10">
      <defs>
       <path id="m56f3a9ced1" d="M 0 0 
L -2.5 0 
" style="stroke: #000000; stroke-width: 0.6"/>
      </defs>
      <g>
       <use xlink:href="#m56f3a9ced1" x="32.91875" y="121.119375" style="stroke: #000000; stroke-width: 0.6"/>
      </g>
     </g>
     <g id="text_9">
      <!-- -3 -->
      <g transform="translate(18.9425 124.15875)scale(0.08 -0.08)">
       <use xlink:href="#DejaVuSans-2d"/>
       <use xlink:href="#DejaVuSans-33" x="36.083984"/>
      </g>
     </g>
    </g>
    <g id="ytick_2">
     <g id="line2d_11">
      <g>
       <use xlink:href="#m56f3a9ced1" x="32.91875" y="102.639375" style="stroke: #000000; stroke-width: 0.6"/>
      </g>
     </g>
     <g id="text_10">
      <!-- -2 -->
      <g transform="translate(18.9425 105.67875)scale(0.08 -0.08)">
       <use xlink:href="#DejaVuSans-2d"/>
       <use xlink:href="#DejaVuSans-32" x="36.083984"/>
      </g>
     </g>
    </g>
    <g id="ytick_3">
     <g id="line2d_12">
      <g>
       <use xlink:href="#m56f3a9ced1" x="32.91875" y="84.159375" style="stroke: #000000; stroke-width: 0.6"/>
      </g>
     </g>
     <g id="text_11">
      <!-- -1 -->
      <g transform="translate(18.9425 87.19875)scale(0.08 -0.08)">
       <use xlink:href="#DejaVuSans-2d"/>
       <use xlink:href="#DejaVuSans-31" x="36.083984"/>
      </g>
     </g>
    </g>
    <g id="ytick_4">
     <g id="line2d_13">
      <g>
       <use xlink:href="#m56f3a9ced1" x="32.91875" y="65.679375" style="stroke: #000000; stroke-width: 0.6"/>
      </g>
     </g>
     <g id="text_12">
      <!-- 0 -->
      <g transform="translate(21.82875 68.71875)scale(0.08 -0.08)">
       <use xlink:href="#DejaVuSans-30"/>
      </g>
     </g>
    </g>
    <g id="ytick_5">
     <g id="line2d_14">
      <g>
       <use xlink:href="#m56f3a9ced1" x="32.91875" y="47.199375" style="stroke: #000000; stroke-width: 0.6"/>
      </g>
     </g>
     <g id="text_13">
      <!-- 1 -->
      <g transform="translate(21.82875 50.23875)scale(0.08 -0.08)">
       <use xlink:href="#DejaVuSans-31"/>
      </g>
     </g>
    </g>
    <g id="ytick_6">
     <g id="line2d_15">
      <g>
       <use xlink:href="#m56f3a9ced1" x="32.91875" y="28.719375" style="stroke: #000000; stroke-width: 0.6"/>
      </g>
     </g>
     <g id="text_14">
      <!-- 2 -->
      <g transform="translate(21.82875 31.75875)scale(0.08 -0.08)">
       <use xlink:href="#DejaVuSans-32"/>
      </g>
     </g>
    </g>
    <g id="ytick_7">
     <g id="line2d_16">
      <g>
       <use xlink:href="#m56f3a9ced1" x="32.91875" y="10.239375" style="stroke: #000000; stroke-width: 0.6"/>
      </g>
     </g>
     <g id="text_15">
      <!-- 3 -->
      <g transform="translate(21.82875 13.27875)scale(0.08 -0.08)">
       <use xlink:href="#DejaVuSans-33"/>
      </g>
     </g>
    </g>
    <g id="text_16">
     <!-- $\mathrm{Im}(\lambda)$ -->
     <g transform="translate(13.27875 76.119375)rotate(-90)scale(0.08 -0.08)">
      <defs>
       <path id="DejaVuSans-49" d="M 628 4666 
L 1259 4666 
L 1259 0 
L 628 0 
L 628 4666 
z
" transform="scale(0.015625)"/>
       <path id="DejaVuSans-6d" d="M 3328 2828 
Q 3544 3216 3844 3400 
Q 4144 3584 4550 3584 
Q 5097 3584 5394 3201 
Q 5691 2819 5691 2113 
L 5691 0 
L 5113 0 
L 5113 2094 
Q 5113 2597 4934 2840 
Q 4756 3084 4391 3084 
Q 3944 3084 3684 2787 
Q 3425 2491 3425 1978 
L 3425 0 
L 2847 0 
L 2847 2094 
Q 2847 2600 2669 2842 
Q 2491 3084 2119 3084 
Q 1678 3084 1418 2786 
Q 1159 2488 1159 1978 
L 1159 0 
L 581 0 
L 581 3500 
L 1159 3500 
L 1159 2956 
Q 1356 3278 1631 3431 
Q 1906 3584 2284 3584 
Q 2666 3584 2933 3390 
Q 3200 3197 3328 2828 
z
" transform="scale(0.015625)"/>
      </defs>
      <use xlink:href="#DejaVuSans-49" transform="translate(0 0.015625)"/>
      <use xlink:href="#DejaVuSans-6d" transform="translate(25.867188 0.015625)"/>
      <use xlink:href="#DejaVuSans-28" transform="translate(123.279297 0.015625)"/>
      <use xlink:href="#DejaVuSans-Oblique-3bb" transform="translate(162.292969 0.015625)"/>
      <use xlink:href="#DejaVuSans-29" transform="translate(221.472656 0.015625)"/>
     </g>
    </g>
   </g>
   <g id="PathCollection_2">
    <path d="M 88.35875 10.239375 
L 88.35875 121.119375 
L 88.35875 121.119375 
" clip-path="url(#p657be4ca39)" style="fill: none; stroke: #00cd6c"/>
   </g>
   <g id="patch_3">
    <path d="M 32.91875 121.119375 
L 32.91875 10.239375 
" style="fill: none; stroke: #000000; stroke-width: 0.6; stroke-linejoin: miter; stroke-linecap: square"/>
   </g>
   <g id="patch_4">
    <path d="M 32.91875 121.119375 
L 143.79875 121.119375 
" style="fill: none; stroke: #000000; stroke-width: 0.6; stroke-linejoin: miter; stroke-linecap: square"/>
   </g>
  </g>
 </g>
 <defs>
  <clipPath id="p657be4ca39">
   <rect x="32.91875" y="10.239375" width="110.88" height="110.88"/>
  </clipPath>
 </defs>
</svg>
