<?xml version="1.0" encoding="utf-8" standalone="no"?>
<!DOCTYPE svg PUBLIC "-//W3C//DTD SVG 1.1//EN"
  "http://www.w3.org/Graphics/SVG/1.1/DTD/svg11.dtd">
<svg xmlns:xlink="http://www.w3.org/1999/xlink" width="207.46875pt" height="161.853pt" viewBox="0 0 207.46875 161.853" xmlns="http://www.w3.org/2000/svg" version="1.1">
 <metadata>
  <rdf:RDF xmlns:dc="http://purl.org/dc/elements/1.1/" xmlns:cc="http://creativecommons.org/ns#" xmlns:rdf="http://www.w3.org/1999/02/22-rdf-syntax-ns#">
   <cc:Work>
    <dc:type rdf:resource="http://purl.org/dc/dcmitype/StillImage"/>
    <dc:format>image/svg+xml</dc:format>
    <dc:creator>
     <cc:Agent>
      <dc:title>Matplotlib v3.5.2, https://matplotlib.org/</dc:title>
     </cc:Agent>
    </dc:creator>
   </cc:Work>
  </rdf:RDF>
 </metadata>
 <defs>
  <style type="text/css">*{stroke-linejoin: round; stroke-linecap: butt}</style>
 </defs>
 <g id="figure_1">
  <g id="patch_1">
   <path d="M 0 161.853 
L 207.46875 161.853 
L 207.46875 0 
L 0 0 
L 0 161.853 
z
" style="fill: none"/>
  </g>
  <g id="axes_1">
   <g id="patch_2">
    <path d="M 35.1225 129.168 
L 191.3625 129.168 
L 191.3625 7.2 
L 35.1225 7.2 
L 35.1225 129.168 
z
" style="fill: none"/>
   </g>
   <g id="PathCollection_1">
    <path d="M 35.435606 129.168 
L 35.748712 129.168 
L 36.061819 129.168 
L 36.374925 129.168 
L 36.688031 129.168 
L 37.001137 129.168 
L 37.314243 129.168 
L 37.62735 129.168 
L 37.940456 129.168 
L 38.253562 129.168 
L 38.566668 129.168 
L 38.879775 129.168 
L 39.192881 129.168 
L 39.505987 129.168 
L 39.819093 129.168 
L 40.132199 129.168 
L 40.445306 129.168 
L 40.758412 129.168 
L 41.071518 129.168 
L 41.384624 129.168 
L 41.69773 129.168 
L 42.010837 129.168 
L 42.323943 129.168 
L 42.637049 129.168 
L 42.950155 129.168 
L 43.263262 129.168 
L 43.576368 129.168 
L 43.889474 129.168 
L 44.20258 129.168 
L 44.515686 129.168 
L 44.828793 129.168 
L 45.141899 129.168 
L 45.455005 129.168 
L 45.768111 129.168 
L 46.081217 129.168 
L 46.394324 129.168 
L 46.70743 129.168 
L 47.020536 129.168 
L 47.333642 129.168 
L 47.646748 129.168 
L 47.959855 129.168 
L 48.272961 129.168 
L 48.586067 129.168 
L 48.899173 129.168 
L 49.21228 129.168 
L 49.525386 129.168 
L 49.838492 129.168 
L 50.151598 129.168 
L 50.464704 129.168 
L 50.777811 129.168 
L 51.090917 129.168 
L 51.404023 129.168 
L 51.717129 129.168 
L 52.030235 129.168 
L 52.343342 129.168 
L 52.656448 129.168 
L 52.969554 129.168 
L 53.28266 129.168 
L 53.595767 129.168 
L 53.908873 129.168 
L 54.221979 129.168 
L 54.535085 129.168 
L 54.848191 129.168 
L 55.161298 129.168 
L 55.474404 129.168 
L 55.78751 129.168 
L 56.100616 129.168 
L 56.413722 129.168 
L 56.726829 129.168 
L 57.039935 129.168 
L 57.353041 129.168 
L 57.666147 129.168 
L 57.979254 129.168 
L 58.29236 129.168 
L 58.605466 129.168 
L 58.918572 129.168 
L 59.231678 129.168 
L 59.544785 129.168 
L 59.857891 129.168 
L 60.170997 129.168 
L 60.484103 129.168 
L 60.797209 129.168 
L 61.110316 129.168 
L 61.423422 129.168 
L 61.736528 129.168 
L 62.049634 129.168 
L 62.36274 129.168 
L 62.675847 129.168 
L 62.988953 129.168 
L 63.302059 129.168 
L 63.615165 129.168 
L 63.928272 129.168 
L 64.241378 129.168 
L 64.554484 129.168 
L 64.86759 129.168 
L 65.180696 129.168 
L 65.493803 129.168 
L 65.806909 129.168 
L 66.120015 129.168 
L 66.433121 129.168 
L 66.746227 129.168 
L 67.059334 129.168 
L 67.37244 129.168 
L 67.685546 129.168 
L 67.998652 129.168 
L 68.311759 129.168 
L 68.624865 129.168 
L 68.937971 129.168 
L 69.251077 129.168 
L 69.564183 129.168 
L 69.87729 129.168 
L 70.190396 129.168 
L 70.503502 129.168 
L 70.816608 129.168 
L 71.129714 129.168 
L 71.442821 129.168 
L 71.755927 129.168 
L 72.069033 129.168 
L 72.382139 129.168 
L 72.695245 129.168 
L 73.008352 129.168 
L 73.321458 129.168 
L 73.634564 129.168 
L 73.94767 129.168 
L 74.260777 129.168 
L 74.573883 129.168 
L 74.886989 129.168 
L 75.200095 129.168 
L 75.513201 129.168 
L 75.826308 129.168 
L 76.139414 129.168 
L 76.45252 129.168 
L 76.765626 129.168 
L 77.078732 129.168 
L 77.391839 129.168 
L 77.704945 129.168 
L 78.018051 129.168 
L 78.331157 129.168 
L 78.644264 129.168 
L 78.95737 129.168 
L 79.270476 129.168 
L 79.583582 129.168 
L 79.896688 129.168 
L 80.209795 129.168 
L 80.522901 129.168 
L 80.836007 129.168 
L 81.149113 129.168 
L 81.462219 129.168 
L 81.775326 129.168 
L 82.088432 129.168 
L 82.401538 129.168 
L 82.714644 129.168 
L 83.027751 129.168 
L 83.340857 129.168 
L 83.653963 129.168 
L 83.967069 129.168 
L 84.280175 129.168 
L 84.593282 129.168 
L 84.906388 129.168 
L 85.219494 129.168 
L 85.5326 129.168 
L 85.845706 129.168 
L 86.158813 129.168 
L 86.471919 129.168 
L 86.785025 129.168 
L 87.098131 129.168 
L 87.411237 129.168 
L 87.724344 129.168 
L 88.03745 129.168 
L 88.350556 129.168 
L 88.663662 129.168 
L 88.976769 129.168 
L 89.289875 129.168 
L 89.602981 129.168 
L 89.916087 129.168 
L 90.229193 129.168 
L 90.5423 129.168 
L 90.855406 129.168 
L 91.168512 129.168 
L 91.481618 129.168 
L 91.794724 129.168 
L 92.107831 129.168 
L 92.420937 129.168 
L 92.734043 129.168 
L 93.047149 129.168 
L 93.360256 129.168 
L 93.673362 129.168 
L 93.986468 129.168 
L 94.299574 129.168 
L 94.61268 129.168 
L 94.925787 129.168 
L 95.238893 129.168 
L 95.551999 129.168 
L 95.865105 129.168 
L 96.178211 129.168 
L 96.491318 129.168 
L 96.804424 129.168 
L 97.11753 129.168 
L 97.430636 129.168 
L 97.743742 129.168 
L 98.056849 129.168 
L 98.369955 129.168 
L 98.683061 129.168 
L 98.996167 129.168 
L 99.309274 129.168 
L 99.62238 129.168 
L 99.935486 129.168 
L 100.248592 129.168 
L 100.561698 129.168 
L 100.874805 129.168 
L 101.187911 129.168 
L 101.501017 129.168 
L 101.814123 129.168 
L 102.127229 129.168 
L 102.440336 129.168 
L 102.753442 129.168 
L 103.066548 129.168 
L 103.379654 129.168 
L 103.692761 129.168 
L 104.005867 129.168 
L 104.318973 129.168 
L 104.632079 129.168 
L 104.945185 129.168 
L 105.258292 129.168 
L 105.571398 129.168 
L 105.884504 129.168 
L 106.19761 129.168 
L 106.510716 129.168 
L 106.823823 129.168 
L 107.136929 129.168 
L 107.450035 129.168 
L 107.763141 129.168 
L 108.076247 129.168 
L 108.389354 129.168 
L 108.70246 129.168 
L 109.015566 129.168 
L 109.328672 129.168 
L 109.641779 129.168 
L 109.954885 129.168 
L 110.267991 129.168 
L 110.581097 129.168 
L 110.894203 129.168 
L 111.20731 129.168 
L 111.520416 129.168 
L 111.833522 129.168 
L 112.146628 129.168 
L 112.459734 129.168 
L 112.772841 129.168 
L 113.085947 129.168 
L 113.399053 129.168 
L 113.712159 129.168 
L 114.025266 129.168 
L 114.338372 129.168 
L 114.651478 129.168 
L 114.964584 129.168 
L 115.27769 129.168 
L 115.590797 129.168 
L 115.903903 129.168 
L 116.217009 129.168 
L 116.530115 129.168 
L 116.843221 129.168 
L 117.156328 129.168 
L 117.469434 129.168 
L 117.78254 129.168 
L 118.095646 129.168 
L 118.408753 129.168 
L 118.721859 129.168 
L 119.034965 129.168 
L 119.348071 129.168 
L 119.661177 129.168 
L 119.974284 129.168 
L 120.28739 129.168 
L 120.600496 129.168 
L 120.913602 129.168 
L 121.226708 129.168 
L 121.539815 129.168 
L 121.852921 129.168 
L 122.166027 129.168 
L 122.479133 129.168 
L 122.792239 129.168 
L 123.105346 129.168 
L 123.418452 129.168 
L 123.731558 129.168 
L 124.044664 129.168 
L 124.357771 129.168 
L 124.670877 129.168 
L 124.983983 129.168 
L 125.297089 129.168 
L 125.610195 129.168 
L 125.923302 129.168 
L 126.236408 129.168 
L 126.549514 129.168 
L 126.86262 129.168 
L 127.175726 129.168 
L 127.488833 129.168 
L 127.801939 129.168 
L 128.115045 129.168 
L 128.428151 129.168 
L 128.741258 129.168 
L 129.054364 129.168 
L 129.36747 129.168 
L 129.680576 129.168 
L 129.993682 129.168 
L 130.306789 129.168 
L 130.619895 129.168 
L 130.933001 129.168 
L 131.246107 129.168 
L 131.559213 129.168 
L 131.87232 129.168 
L 132.185426 129.168 
L 132.498532 129.168 
L 132.811638 129.168 
L 133.124744 129.168 
L 133.437851 129.168 
L 133.750957 129.168 
L 134.064063 129.168 
L 134.377169 129.168 
L 134.690276 129.168 
L 135.003382 129.168 
L 135.316488 129.168 
L 135.629594 129.168 
L 135.9427 129.168 
L 136.255807 129.168 
L 136.568913 129.168 
L 136.882019 129.168 
L 137.195125 129.168 
L 137.508231 129.168 
L 137.821338 129.168 
L 138.134444 129.168 
L 138.44755 129.168 
L 138.760656 129.168 
L 139.073763 129.168 
L 139.386869 129.168 
L 139.699975 129.168 
L 140.013081 129.168 
L 140.326187 129.168 
L 140.639294 129.168 
L 140.9524 129.168 
L 141.265506 129.168 
L 141.578612 129.168 
L 141.891718 129.168 
L 142.204825 129.168 
L 142.517931 129.168 
L 142.831037 129.168 
L 143.144143 129.168 
L 143.457249 129.168 
L 143.770356 129.168 
L 144.083462 129.168 
L 144.396568 129.168 
L 144.709674 129.168 
L 145.022781 129.168 
L 145.335887 129.168 
L 145.648993 129.168 
L 145.962099 129.168 
L 146.275205 129.168 
L 146.588312 129.168 
L 146.901418 129.168 
L 147.214524 129.168 
L 147.52763 129.168 
L 147.840736 129.168 
L 148.153843 129.168 
L 148.466949 129.168 
L 148.780055 129.168 
L 149.093161 129.168 
L 149.406268 129.168 
L 149.719374 129.168 
L 150.03248 129.168 
L 150.345586 129.168 
L 150.658692 129.168 
L 150.971799 129.168 
L 151.284905 129.168 
L 151.598011 129.168 
L 151.911117 129.168 
L 152.224223 129.168 
L 152.53733 129.168 
L 152.850436 129.168 
L 153.163542 129.168 
L 153.476648 129.168 
L 153.789755 129.168 
L 154.102861 129.168 
L 154.415967 129.168 
L 154.729073 129.168 
L 155.042179 129.168 
L 155.355286 129.168 
L 155.668392 129.168 
L 155.981498 129.168 
L 156.294604 129.168 
L 156.60771 129.168 
L 156.920817 129.168 
L 157.233923 129.168 
L 157.547029 129.168 
L 157.860135 129.168 
L 158.173241 129.168 
L 158.486348 129.168 
L 158.799454 129.168 
L 159.11256 129.168 
L 159.425666 129.168 
L 159.738773 129.168 
L 160.051879 129.168 
L 160.364985 129.168 
L 160.678091 129.168 
L 160.991197 129.168 
L 161.304304 129.168 
L 161.61741 129.168 
L 161.930516 129.168 
L 162.243622 129.168 
L 162.556728 129.168 
L 162.869835 129.168 
L 163.182941 129.168 
L 163.496047 129.168 
L 163.809153 129.168 
L 164.12226 129.168 
L 164.435366 129.168 
L 164.748472 129.168 
L 165.061578 129.168 
L 165.374684 129.168 
L 165.687791 129.168 
L 166.000897 129.168 
L 166.314003 129.168 
L 166.627109 129.168 
L 166.940215 129.168 
L 167.253322 129.168 
L 167.566428 129.168 
L 167.879534 129.168 
L 168.19264 129.168 
L 168.505746 129.168 
L 168.818853 129.168 
L 169.131959 129.168 
L 169.445065 129.168 
L 169.758171 129.168 
L 170.071278 129.168 
L 170.384384 129.168 
L 170.69749 129.168 
L 171.010596 129.168 
L 171.323702 129.168 
L 171.636809 129.168 
L 171.949915 129.168 
L 172.263021 129.168 
L 172.576127 129.168 
L 172.889233 129.168 
L 173.20234 129.168 
L 173.515446 129.168 
L 173.828552 129.168 
L 174.141658 129.168 
L 174.454765 129.168 
L 174.767871 129.168 
L 175.080977 129.168 
L 175.394083 129.168 
L 175.707189 129.168 
L 176.020296 129.168 
L 176.333402 129.168 
L 176.646508 129.168 
L 176.959614 129.168 
L 177.27272 129.168 
L 177.585827 129.168 
L 177.898933 129.168 
L 178.212039 129.168 
L 178.525145 129.168 
L 178.838252 129.168 
L 179.151358 129.168 
L 179.464464 129.168 
L 179.77757 129.168 
L 180.090676 129.168 
L 180.403783 129.168 
L 180.716889 129.168 
L 181.029995 129.168 
L 181.343101 129.168 
L 181.656207 129.168 
L 181.969314 129.168 
L 182.28242 129.168 
L 182.595526 129.168 
L 182.908632 129.168 
L 183.221738 129.168 
L 183.534845 129.168 
L 183.847951 129.168 
L 184.161057 129.168 
L 184.474163 129.168 
L 184.78727 129.168 
L 185.100376 129.168 
L 185.413482 129.168 
L 185.726588 129.168 
L 186.039694 129.168 
L 186.352801 129.168 
L 186.665907 129.168 
L 186.979013 129.168 
L 187.292119 129.168 
L 187.605225 129.168 
L 187.918332 129.168 
L 188.231438 129.168 
L 188.544544 129.168 
L 188.85765 129.168 
L 189.170757 129.168 
L 189.483863 129.168 
L 189.796969 129.168 
L 190.110075 129.168 
L 190.423181 129.168 
L 190.736288 129.168 
L 191.049394 129.168 
L 191.3625 129.168 
L 191.3625 128.923575 
L 191.3625 128.67915 
L 191.3625 128.434725 
L 191.3625 128.190301 
L 191.3625 127.945876 
L 191.3625 127.701451 
L 191.3625 127.457026 
L 191.3625 127.212601 
L 191.3625 126.968176 
L 191.3625 126.723752 
L 191.3625 126.479327 
L 191.3625 126.234902 
L 191.3625 125.990477 
L 191.3625 125.746052 
L 191.3625 125.501627 
L 191.3625 125.257202 
L 191.3625 125.012778 
L 191.3625 124.768353 
L 191.3625 124.523928 
L 191.3625 124.279503 
L 191.3625 124.035078 
L 191.3625 123.790653 
L 191.3625 123.546228 
L 191.3625 123.301804 
L 191.3625 123.057379 
L 191.3625 122.812954 
L 191.3625 122.568529 
L 191.3625 122.324104 
L 191.3625 122.079679 
L 191.3625 121.835255 
L 191.3625 121.59083 
L 191.3625 121.346405 
L 191.3625 121.10198 
L 191.3625 120.857555 
L 191.3625 120.61313 
L 191.3625 120.368705 
L 191.3625 120.124281 
L 191.3625 119.879856 
L 191.3625 119.635431 
L 191.3625 119.391006 
L 191.3625 119.146581 
L 191.3625 118.902156 
L 191.3625 118.657731 
L 191.3625 118.413307 
L 191.3625 118.168882 
L 191.3625 117.924457 
L 191.3625 117.680032 
L 191.3625 117.435607 
L 191.3625 117.191182 
L 191.3625 116.946758 
L 191.3625 116.702333 
L 191.3625 116.457908 
L 191.3625 116.213483 
L 191.3625 115.969058 
L 191.3625 115.724633 
L 191.3625 115.480208 
L 191.3625 115.235784 
L 191.3625 114.991359 
L 191.3625 114.746934 
L 191.3625 114.502509 
L 191.3625 114.258084 
L 191.3625 114.013659 
L 191.3625 113.769234 
L 191.3625 113.52481 
L 191.3625 113.280385 
L 191.3625 113.03596 
L 191.3625 112.791535 
L 191.3625 112.54711 
L 191.3625 112.302685 
L 191.3625 112.058261 
L 191.3625 111.813836 
L 191.3625 111.569411 
L 191.3625 111.324986 
L 191.3625 111.080561 
L 191.3625 110.836136 
L 191.3625 110.591711 
L 191.3625 110.347287 
L 191.3625 110.102862 
L 191.3625 109.858437 
L 191.3625 109.614012 
L 191.3625 109.369587 
L 191.3625 109.125162 
L 191.3625 108.880737 
L 191.3625 108.636313 
L 191.3625 108.391888 
L 191.3625 108.147463 
L 191.3625 107.903038 
L 191.3625 107.658613 
L 191.3625 107.414188 
L 191.3625 107.169764 
L 191.3625 106.925339 
L 191.3625 106.680914 
L 191.3625 106.436489 
L 191.3625 106.192064 
L 191.3625 105.947639 
L 191.3625 105.703214 
L 191.3625 105.45879 
L 191.3625 105.214365 
L 191.3625 104.96994 
L 191.3625 104.725515 
L 191.3625 104.48109 
L 191.3625 104.236665 
L 191.3625 103.99224 
L 191.3625 103.747816 
L 191.3625 103.503391 
L 191.3625 103.258966 
L 191.3625 103.014541 
L 191.3625 102.770116 
L 191.3625 102.525691 
L 191.3625 102.281267 
L 191.3625 102.036842 
L 191.3625 101.792417 
L 191.3625 101.547992 
L 191.3625 101.303567 
L 191.3625 101.059142 
L 191.3625 100.814717 
L 191.3625 100.570293 
L 191.3625 100.325868 
L 191.3625 100.081443 
L 191.3625 99.837018 
L 191.3625 99.592593 
L 191.3625 99.348168 
L 191.3625 99.103743 
L 191.3625 98.859319 
L 191.3625 98.614894 
L 191.3625 98.370469 
L 191.3625 98.126044 
L 191.3625 97.881619 
L 191.3625 97.637194 
L 191.3625 97.39277 
L 191.3625 97.148345 
L 191.3625 96.90392 
L 191.3625 96.659495 
L 191.3625 96.41507 
L 191.3625 96.170645 
L 191.3625 95.92622 
L 191.3625 95.681796 
L 191.3625 95.437371 
L 191.3625 95.192946 
L 191.3625 94.948521 
L 191.3625 94.704096 
L 191.3625 94.459671 
L 191.3625 94.215246 
L 191.3625 93.970822 
L 191.3625 93.726397 
L 191.3625 93.481972 
L 191.3625 93.237547 
L 191.3625 92.993122 
L 191.3625 92.748697 
L 191.3625 92.504273 
L 191.3625 92.259848 
L 191.3625 92.015423 
L 191.3625 91.770998 
L 191.3625 91.526573 
L 191.3625 91.282148 
L 191.3625 91.037723 
L 191.3625 90.793299 
L 191.3625 90.548874 
L 191.3625 90.304449 
L 191.3625 90.060024 
L 191.3625 89.815599 
L 191.3625 89.571174 
L 191.3625 89.326749 
L 191.3625 89.082325 
L 191.3625 88.8379 
L 191.3625 88.593475 
L 191.3625 88.34905 
L 191.3625 88.104625 
L 191.3625 87.8602 
L 191.3625 87.615776 
L 191.3625 87.371351 
L 191.3625 87.126926 
L 191.3625 86.882501 
L 191.3625 86.638076 
L 191.3625 86.393651 
L 191.3625 86.149226 
L 191.3625 85.904802 
L 191.3625 85.660377 
L 191.3625 85.415952 
L 191.3625 85.171527 
L 191.3625 84.927102 
L 191.3625 84.682677 
L 191.3625 84.438253 
L 191.3625 84.193828 
L 191.3625 83.949403 
L 191.3625 83.704978 
L 191.3625 83.460553 
L 191.3625 83.216128 
L 191.3625 82.971703 
L 191.3625 82.727279 
L 191.3625 82.482854 
L 191.3625 82.238429 
L 191.3625 81.994004 
L 191.3625 81.749579 
L 191.3625 81.505154 
L 191.3625 81.260729 
L 191.3625 81.016305 
L 191.3625 80.77188 
L 191.3625 80.527455 
L 191.3625 80.28303 
L 191.3625 80.038605 
L 191.3625 79.79418 
L 191.3625 79.549756 
L 191.3625 79.305331 
L 191.3625 79.060906 
L 191.3625 78.816481 
L 191.3625 78.572056 
L 191.3625 78.327631 
L 191.3625 78.083206 
L 191.3625 77.838782 
L 191.3625 77.594357 
L 191.3625 77.349932 
L 191.3625 77.105507 
L 191.3625 76.861082 
L 191.3625 76.616657 
L 191.3625 76.372232 
L 191.3625 76.127808 
L 191.3625 75.883383 
L 191.3625 75.638958 
L 191.3625 75.394533 
L 191.3625 75.150108 
L 191.3625 74.905683 
L 191.3625 74.661259 
L 191.3625 74.416834 
L 191.3625 74.172409 
L 191.3625 73.927984 
L 191.3625 73.683559 
L 191.3625 73.439134 
L 191.3625 73.194709 
L 191.3625 72.950285 
L 191.3625 72.70586 
L 191.3625 72.461435 
L 191.3625 72.21701 
L 191.3625 71.972585 
L 191.3625 71.72816 
L 191.3625 71.483735 
L 191.3625 71.239311 
L 191.3625 70.994886 
L 191.3625 70.750461 
L 191.3625 70.506036 
L 191.3625 70.261611 
L 191.3625 70.017186 
L 191.3625 69.772762 
L 191.3625 69.528337 
L 191.3625 69.283912 
L 191.3625 69.039487 
L 191.3625 68.795062 
L 191.3625 68.550637 
L 191.3625 68.306212 
L 191.3625 68.061788 
L 191.3625 67.817363 
L 191.3625 67.572938 
L 191.3625 67.328513 
L 191.3625 67.084088 
L 191.3625 66.839663 
L 191.3625 66.595238 
L 191.3625 66.350814 
L 191.3625 66.106389 
L 191.3625 65.861964 
L 191.3625 65.617539 
L 191.3625 65.373114 
L 191.3625 65.128689 
L 191.3625 64.884265 
L 191.3625 64.63984 
L 191.3625 64.395415 
L 191.3625 64.15099 
L 191.3625 63.906565 
L 191.3625 63.66214 
L 191.3625 63.417715 
L 191.3625 63.173291 
L 191.3625 62.928866 
L 191.3625 62.684441 
L 191.3625 62.440016 
L 191.3625 62.195591 
L 191.3625 61.951166 
L 191.3625 61.706741 
L 191.3625 61.462317 
L 191.3625 61.217892 
L 191.3625 60.973467 
L 191.3625 60.729042 
L 191.3625 60.484617 
L 191.3625 60.240192 
L 191.3625 59.995768 
L 191.3625 59.751343 
L 191.3625 59.506918 
L 191.3625 59.262493 
L 191.3625 59.018068 
L 191.3625 58.773643 
L 191.3625 58.529218 
L 191.3625 58.284794 
L 191.3625 58.040369 
L 191.3625 57.795944 
L 191.3625 57.551519 
L 191.3625 57.307094 
L 191.3625 57.062669 
L 191.3625 56.818244 
L 191.3625 56.57382 
L 191.3625 56.329395 
L 191.3625 56.08497 
L 191.3625 55.840545 
L 191.3625 55.59612 
L 191.3625 55.351695 
L 191.3625 55.107271 
L 191.3625 54.862846 
L 191.3625 54.618421 
L 191.3625 54.373996 
L 191.3625 54.129571 
L 191.3625 53.885146 
L 191.3625 53.640721 
L 191.3625 53.396297 
L 191.3625 53.151872 
L 191.3625 52.907447 
L 191.3625 52.663022 
L 191.3625 52.418597 
L 191.3625 52.174172 
L 191.3625 51.929747 
L 191.3625 51.685323 
L 191.3625 51.440898 
L 191.3625 51.196473 
L 191.3625 50.952048 
L 191.3625 50.707623 
L 191.3625 50.463198 
L 191.3625 50.218774 
L 191.3625 49.974349 
L 191.3625 49.729924 
L 191.3625 49.485499 
L 191.3625 49.241074 
L 191.3625 48.996649 
L 191.3625 48.752224 
L 191.3625 48.5078 
L 191.3625 48.263375 
L 191.3625 48.01895 
L 191.3625 47.774525 
L 191.3625 47.5301 
L 191.3625 47.285675 
L 191.3625 47.041251 
L 191.3625 46.796826 
L 191.3625 46.552401 
L 191.3625 46.307976 
L 191.3625 46.063551 
L 191.3625 45.819126 
L 191.3625 45.574701 
L 191.3625 45.330277 
L 191.3625 45.085852 
L 191.3625 44.841427 
L 191.3625 44.597002 
L 191.3625 44.352577 
L 191.3625 44.108152 
L 191.3625 43.863727 
L 191.3625 43.619303 
L 191.3625 43.374878 
L 191.3625 43.130453 
L 191.3625 42.886028 
L 191.3625 42.641603 
L 191.3625 42.397178 
L 191.3625 42.152754 
L 191.3625 41.908329 
L 191.3625 41.663904 
L 191.3625 41.419479 
L 191.3625 41.175054 
L 191.3625 40.930629 
L 191.3625 40.686204 
L 191.3625 40.44178 
L 191.3625 40.197355 
L 191.3625 39.95293 
L 191.3625 39.708505 
L 191.3625 39.46408 
L 191.3625 39.219655 
L 191.3625 38.97523 
L 191.3625 38.730806 
L 191.3625 38.486381 
L 191.3625 38.241956 
L 191.3625 37.997531 
L 191.3625 37.753106 
L 191.3625 37.508681 
L 191.3625 37.264257 
L 191.3625 37.019832 
L 191.3625 36.775407 
L 191.3625 36.530982 
L 191.3625 36.286557 
L 191.3625 36.042132 
L 191.3625 35.797707 
L 191.3625 35.553283 
L 191.3625 35.308858 
L 191.3625 35.064433 
L 191.3625 34.820008 
L 191.3625 34.575583 
L 191.3625 34.331158 
L 191.3625 34.086733 
L 191.3625 33.842309 
L 191.3625 33.597884 
L 191.3625 33.353459 
L 191.3625 33.109034 
L 191.3625 32.864609 
L 191.3625 32.620184 
L 191.3625 32.37576 
L 191.3625 32.131335 
L 191.3625 31.88691 
L 191.3625 31.642485 
L 191.3625 31.39806 
L 191.3625 31.153635 
L 191.3625 30.90921 
L 191.3625 30.664786 
L 191.3625 30.420361 
L 191.3625 30.175936 
L 191.3625 29.931511 
L 191.3625 29.687086 
L 191.3625 29.442661 
L 191.3625 29.198236 
L 191.3625 28.953812 
L 191.3625 28.709387 
L 191.3625 28.464962 
L 191.3625 28.220537 
L 191.3625 27.976112 
L 191.3625 27.731687 
L 191.3625 27.487263 
L 191.3625 27.242838 
L 191.3625 26.998413 
L 191.3625 26.753988 
L 191.3625 26.509563 
L 191.3625 26.265138 
L 191.3625 26.020713 
L 191.3625 25.776289 
L 191.3625 25.531864 
L 191.3625 25.287439 
L 191.3625 25.043014 
L 191.3625 24.798589 
L 191.3625 24.554164 
L 191.3625 24.309739 
L 191.3625 24.065315 
L 191.3625 23.82089 
L 191.3625 23.576465 
L 191.3625 23.33204 
L 191.3625 23.087615 
L 191.3625 22.84319 
L 191.3625 22.598766 
L 191.3625 22.354341 
L 191.3625 22.109916 
L 191.3625 21.865491 
L 191.3625 21.621066 
L 191.3625 21.376641 
L 191.3625 21.132216 
L 191.3625 20.887792 
L 191.3625 20.643367 
L 191.3625 20.398942 
L 191.3625 20.154517 
L 191.3625 19.910092 
L 191.3625 19.665667 
L 191.3625 19.421242 
L 191.3625 19.176818 
L 191.3625 18.932393 
L 191.3625 18.687968 
L 191.3625 18.443543 
L 191.3625 18.199118 
L 191.3625 17.954693 
L 191.3625 17.710269 
L 191.3625 17.465844 
L 191.3625 17.221419 
L 191.3625 16.976994 
L 191.3625 16.732569 
L 191.3625 16.488144 
L 191.3625 16.243719 
L 191.3625 15.999295 
L 191.3625 15.75487 
L 191.3625 15.510445 
L 191.3625 15.26602 
L 191.3625 15.021595 
L 191.3625 14.77717 
L 191.3625 14.532745 
L 191.3625 14.288321 
L 191.3625 14.043896 
L 191.3625 13.799471 
L 191.3625 13.555046 
L 191.3625 13.310621 
L 191.3625 13.066196 
L 191.3625 12.821772 
L 191.3625 12.577347 
L 191.3625 12.332922 
L 191.3625 12.088497 
L 191.3625 11.844072 
L 191.3625 11.599647 
L 191.3625 11.355222 
L 191.3625 11.110798 
L 191.3625 10.866373 
L 191.3625 10.621948 
L 191.3625 10.377523 
L 191.3625 10.133098 
L 191.3625 9.888673 
L 191.3625 9.644248 
L 191.3625 9.399824 
L 191.3625 9.155399 
L 191.3625 8.910974 
L 191.3625 8.666549 
L 191.3625 8.422124 
L 191.3625 8.177699 
L 191.3625 7.933275 
L 191.3625 7.68885 
L 191.3625 7.444425 
L 191.3625 7.2 
L 191.049394 7.2 
L 190.736288 7.2 
L 190.423181 7.2 
L 190.110075 7.2 
L 189.796969 7.2 
L 189.483863 7.2 
L 189.170757 7.2 
L 188.85765 7.2 
L 188.544544 7.2 
L 188.231438 7.2 
L 187.918332 7.2 
L 187.605225 7.2 
L 187.292119 7.2 
L 186.979013 7.2 
L 186.665907 7.2 
L 186.352801 7.2 
L 186.039694 7.2 
L 185.726588 7.2 
L 185.413482 7.2 
L 185.100376 7.2 
L 184.78727 7.2 
L 184.474163 7.2 
L 184.161057 7.2 
L 183.847951 7.2 
L 183.534845 7.2 
L 183.221738 7.2 
L 182.908632 7.2 
L 182.595526 7.2 
L 182.28242 7.2 
L 181.969314 7.2 
L 181.656207 7.2 
L 181.343101 7.2 
L 181.029995 7.2 
L 180.716889 7.2 
L 180.403783 7.2 
L 180.090676 7.2 
L 179.77757 7.2 
L 179.464464 7.2 
L 179.151358 7.2 
L 178.838252 7.2 
L 178.525145 7.2 
L 178.212039 7.2 
L 177.898933 7.2 
L 177.585827 7.2 
L 177.27272 7.2 
L 176.959614 7.2 
L 176.646508 7.2 
L 176.333402 7.2 
L 176.020296 7.2 
L 175.707189 7.2 
L 175.394083 7.2 
L 175.080977 7.2 
L 174.767871 7.2 
L 174.454765 7.2 
L 174.141658 7.2 
L 173.828552 7.2 
L 173.515446 7.2 
L 173.20234 7.2 
L 172.889233 7.2 
L 172.576127 7.2 
L 172.263021 7.2 
L 171.949915 7.2 
L 171.636809 7.2 
L 171.323702 7.2 
L 171.010596 7.2 
L 170.69749 7.2 
L 170.384384 7.2 
L 170.071278 7.2 
L 169.758171 7.2 
L 169.445065 7.2 
L 169.131959 7.2 
L 168.818853 7.2 
L 168.505746 7.2 
L 168.19264 7.2 
L 167.879534 7.2 
L 167.566428 7.2 
L 167.253322 7.2 
L 166.940215 7.2 
L 166.627109 7.2 
L 166.314003 7.2 
L 166.000897 7.2 
L 165.687791 7.2 
L 165.374684 7.2 
L 165.061578 7.2 
L 164.748472 7.2 
L 164.435366 7.2 
L 164.12226 7.2 
L 163.809153 7.2 
L 163.496047 7.2 
L 163.182941 7.2 
L 162.869835 7.2 
L 162.556728 7.2 
L 162.243622 7.2 
L 161.930516 7.2 
L 161.61741 7.2 
L 161.304304 7.2 
L 160.991197 7.2 
L 160.678091 7.2 
L 160.364985 7.2 
L 160.051879 7.2 
L 159.738773 7.2 
L 159.425666 7.2 
L 159.11256 7.2 
L 158.799454 7.2 
L 158.486348 7.2 
L 158.173241 7.2 
L 157.860135 7.2 
L 157.547029 7.2 
L 157.233923 7.2 
L 156.920817 7.2 
L 156.60771 7.2 
L 156.294604 7.2 
L 155.981498 7.2 
L 155.668392 7.2 
L 155.355286 7.2 
L 155.042179 7.2 
L 154.729073 7.2 
L 154.415967 7.2 
L 154.102861 7.2 
L 153.789755 7.2 
L 153.476648 7.2 
L 153.163542 7.2 
L 152.850436 7.2 
L 152.53733 7.2 
L 152.224223 7.2 
L 151.911117 7.2 
L 151.598011 7.2 
L 151.284905 7.2 
L 150.971799 7.2 
L 150.658692 7.2 
L 150.345586 7.2 
L 150.03248 7.2 
L 149.719374 7.2 
L 149.406268 7.2 
L 149.093161 7.2 
L 148.780055 7.2 
L 148.466949 7.2 
L 148.153843 7.2 
L 147.840736 7.2 
L 147.52763 7.2 
L 147.214524 7.2 
L 146.901418 7.2 
L 146.588312 7.2 
L 146.275205 7.2 
L 145.962099 7.2 
L 145.648993 7.2 
L 145.335887 7.2 
L 145.022781 7.2 
L 144.709674 7.2 
L 144.396568 7.2 
L 144.083462 7.2 
L 143.770356 7.2 
L 143.457249 7.2 
L 143.144143 7.2 
L 142.831037 7.2 
L 142.517931 7.2 
L 142.204825 7.2 
L 141.891718 7.2 
L 141.578612 7.2 
L 141.265506 7.2 
L 140.9524 7.2 
L 140.639294 7.2 
L 140.326187 7.2 
L 140.013081 7.2 
L 139.699975 7.2 
L 139.386869 7.2 
L 139.073763 7.2 
L 138.760656 7.2 
L 138.44755 7.2 
L 138.134444 7.2 
L 137.821338 7.2 
L 137.508231 7.2 
L 137.195125 7.2 
L 136.882019 7.2 
L 136.568913 7.2 
L 136.255807 7.2 
L 135.9427 7.2 
L 135.629594 7.2 
L 135.316488 7.2 
L 135.003382 7.2 
L 134.690276 7.2 
L 134.377169 7.2 
L 134.064063 7.2 
L 133.750957 7.2 
L 133.437851 7.2 
L 133.124744 7.2 
L 132.811638 7.2 
L 132.498532 7.2 
L 132.185426 7.2 
L 131.87232 7.2 
L 131.559213 7.2 
L 131.246107 7.2 
L 130.933001 7.2 
L 130.619895 7.2 
L 130.306789 7.2 
L 129.993682 7.2 
L 129.680576 7.2 
L 129.36747 7.2 
L 129.054364 7.2 
L 128.741258 7.2 
L 128.428151 7.2 
L 128.115045 7.2 
L 127.801939 7.2 
L 127.488833 7.2 
L 127.175726 7.2 
L 126.86262 7.2 
L 126.549514 7.2 
L 126.236408 7.2 
L 125.923302 7.2 
L 125.610195 7.2 
L 125.297089 7.2 
L 124.983983 7.2 
L 124.670877 7.2 
L 124.357771 7.2 
L 124.044664 7.2 
L 123.731558 7.2 
L 123.418452 7.2 
L 123.105346 7.2 
L 122.792239 7.2 
L 122.479133 7.2 
L 122.166027 7.2 
L 121.852921 7.2 
L 121.539815 7.2 
L 121.226708 7.2 
L 120.913602 7.2 
L 120.600496 7.2 
L 120.28739 7.2 
L 119.974284 7.2 
L 119.661177 7.2 
L 119.348071 7.2 
L 119.034965 7.2 
L 118.721859 7.2 
L 118.408753 7.2 
L 118.095646 7.2 
L 117.78254 7.2 
L 117.469434 7.2 
L 117.156328 7.2 
L 116.843221 7.2 
L 116.530115 7.2 
L 116.217009 7.2 
L 115.903903 7.2 
L 115.590797 7.2 
L 115.27769 7.2 
L 114.964584 7.2 
L 114.651478 7.2 
L 114.338372 7.2 
L 114.025266 7.2 
L 113.712159 7.2 
L 113.399053 7.2 
L 113.085947 7.2 
L 112.772841 7.2 
L 112.459734 7.2 
L 112.146628 7.2 
L 111.833522 7.2 
L 111.520416 7.2 
L 111.20731 7.2 
L 110.894203 7.2 
L 110.581097 7.2 
L 110.267991 7.2 
L 109.984689 7.2 
L 109.978669 7.444425 
L 109.972648 7.68885 
L 109.966627 7.933275 
L 109.960607 8.177699 
L 109.954885 8.41 
L 109.954523 8.422124 
L 109.947235 8.666549 
L 109.939947 8.910974 
L 109.932659 9.155399 
L 109.925371 9.399824 
L 109.918082 9.644248 
L 109.910794 9.888673 
L 109.903506 10.133098 
L 109.896218 10.377523 
L 109.88893 10.621948 
L 109.881641 10.866373 
L 109.874353 11.110798 
L 109.867065 11.355222 
L 109.859777 11.599647 
L 109.852489 11.844072 
L 109.845201 12.088497 
L 109.837912 12.332922 
L 109.830624 12.577347 
L 109.823336 12.821772 
L 109.816048 13.066196 
L 109.80876 13.310621 
L 109.801472 13.555046 
L 109.794183 13.799471 
L 109.786895 14.043896 
L 109.779607 14.288321 
L 109.772319 14.532745 
L 109.765031 14.77717 
L 109.757742 15.021595 
L 109.750454 15.26602 
L 109.743166 15.510445 
L 109.735878 15.75487 
L 109.72859 15.999295 
L 109.721302 16.243719 
L 109.714013 16.488144 
L 109.706725 16.732569 
L 109.699437 16.976994 
L 109.692149 17.221419 
L 109.684861 17.465844 
L 109.677572 17.710269 
L 109.670284 17.954693 
L 109.662996 18.199118 
L 109.655708 18.443543 
L 109.64842 18.687968 
L 109.641779 18.910696 
L 109.641008 18.932393 
L 109.632332 19.176818 
L 109.623656 19.421242 
L 109.614979 19.665667 
L 109.606303 19.910092 
L 109.597626 20.154517 
L 109.58895 20.398942 
L 109.580274 20.643367 
L 109.571597 20.887792 
L 109.562921 21.132216 
L 109.554244 21.376641 
L 109.545568 21.621066 
L 109.536892 21.865491 
L 109.528215 22.109916 
L 109.519539 22.354341 
L 109.510862 22.598766 
L 109.502186 22.84319 
L 109.49351 23.087615 
L 109.484833 23.33204 
L 109.476157 23.576465 
L 109.46748 23.82089 
L 109.458804 24.065315 
L 109.450128 24.309739 
L 109.441451 24.554164 
L 109.432775 24.798589 
L 109.424098 25.043014 
L 109.415422 25.287439 
L 109.406746 25.531864 
L 109.398069 25.776289 
L 109.389393 26.020713 
L 109.380716 26.265138 
L 109.37204 26.509563 
L 109.363363 26.753988 
L 109.354687 26.998413 
L 109.346011 27.242838 
L 109.337334 27.487263 
L 109.328672 27.73128 
L 109.328655 27.731687 
L 109.31847 27.976112 
L 109.308285 28.220537 
L 109.298099 28.464962 
L 109.287914 28.709387 
L 109.277729 28.953812 
L 109.267543 29.198236 
L 109.257358 29.442661 
L 109.247173 29.687086 
L 109.236987 29.931511 
L 109.226802 30.175936 
L 109.216617 30.420361 
L 109.206431 30.664786 
L 109.196246 30.90921 
L 109.186061 31.153635 
L 109.175875 31.39806 
L 109.16569 31.642485 
L 109.155505 31.88691 
L 109.145319 32.131335 
L 109.135134 32.37576 
L 109.124949 32.620184 
L 109.114763 32.864609 
L 109.104578 33.109034 
L 109.094393 33.353459 
L 109.084207 33.597884 
L 109.074022 33.842309 
L 109.063836 34.086733 
L 109.053651 34.331158 
L 109.043466 34.575583 
L 109.03328 34.820008 
L 109.023095 35.064433 
L 109.015566 35.245111 
L 109.012485 35.308858 
L 109.00067 35.553283 
L 108.988855 35.797707 
L 108.97704 36.042132 
L 108.965225 36.286557 
L 108.95341 36.530982 
L 108.941595 36.775407 
L 108.92978 37.019832 
L 108.917965 37.264257 
L 108.90615 37.508681 
L 108.894335 37.753106 
L 108.88252 37.997531 
L 108.870705 38.241956 
L 108.85889 38.486381 
L 108.847075 38.730806 
L 108.83526 38.97523 
L 108.823445 39.219655 
L 108.81163 39.46408 
L 108.799815 39.708505 
L 108.788 39.95293 
L 108.776185 40.197355 
L 108.76437 40.44178 
L 108.752555 40.686204 
L 108.74074 40.930629 
L 108.728925 41.175054 
L 108.71711 41.419479 
L 108.705295 41.663904 
L 108.70246 41.722552 
L 108.692149 41.908329 
L 108.678584 42.152754 
L 108.665019 42.397178 
L 108.651453 42.641603 
L 108.637888 42.886028 
L 108.624323 43.130453 
L 108.610757 43.374878 
L 108.597192 43.619303 
L 108.583627 43.863727 
L 108.570061 44.108152 
L 108.556496 44.352577 
L 108.54293 44.597002 
L 108.529365 44.841427 
L 108.5158 45.085852 
L 108.502234 45.330277 
L 108.488669 45.574701 
L 108.475104 45.819126 
L 108.461538 46.063551 
L 108.447973 46.307976 
L 108.434407 46.552401 
L 108.420842 46.796826 
L 108.407277 47.041251 
L 108.393711 47.285675 
L 108.389354 47.364194 
L 108.378876 47.5301 
L 108.36344 47.774525 
L 108.348003 48.01895 
L 108.332567 48.263375 
L 108.31713 48.5078 
L 108.301694 48.752224 
L 108.286257 48.996649 
L 108.270821 49.241074 
L 108.255384 49.485499 
L 108.239948 49.729924 
L 108.224511 49.974349 
L 108.209075 50.218774 
L 108.193639 50.463198 
L 108.178202 50.707623 
L 108.162766 50.952048 
L 108.147329 51.196473 
L 108.131893 51.440898 
L 108.116456 51.685323 
L 108.10102 51.929747 
L 108.085583 52.174172 
L 108.076247 52.322 
L 108.06936 52.418597 
L 108.051932 52.663022 
L 108.034503 52.907447 
L 108.017075 53.151872 
L 107.999647 53.396297 
L 107.982219 53.640721 
L 107.96479 53.885146 
L 107.947362 54.129571 
L 107.929934 54.373996 
L 107.912506 54.618421 
L 107.895077 54.862846 
L 107.877649 55.107271 
L 107.860221 55.351695 
L 107.842793 55.59612 
L 107.825364 55.840545 
L 107.807936 56.08497 
L 107.790508 56.329395 
L 107.77308 56.57382 
L 107.763141 56.7132 
L 107.754743 56.818244 
L 107.735203 57.062669 
L 107.715662 57.307094 
L 107.696121 57.551519 
L 107.67658 57.795944 
L 107.65704 58.040369 
L 107.637499 58.284794 
L 107.617958 58.529218 
L 107.598417 58.773643 
L 107.578877 59.018068 
L 107.559336 59.262493 
L 107.539795 59.506918 
L 107.520254 59.751343 
L 107.500713 59.995768 
L 107.481173 60.240192 
L 107.461632 60.484617 
L 107.450035 60.629676 
L 107.441183 60.729042 
L 107.419409 60.973467 
L 107.397635 61.217892 
L 107.375861 61.462317 
L 107.354087 61.706741 
L 107.332313 61.951166 
L 107.310539 62.195591 
L 107.288765 62.440016 
L 107.266991 62.684441 
L 107.245217 62.928866 
L 107.223443 63.173291 
L 107.201669 63.417715 
L 107.179895 63.66214 
L 107.158121 63.906565 
L 107.136929 64.144462 
L 107.136284 64.15099 
L 107.112156 64.395415 
L 107.088029 64.63984 
L 107.063901 64.884265 
L 107.039773 65.128689 
L 107.015645 65.373114 
L 106.991517 65.617539 
L 106.967389 65.861964 
L 106.943261 66.106389 
L 106.919133 66.350814 
L 106.895005 66.595238 
L 106.870877 66.839663 
L 106.846749 67.084088 
L 106.823823 67.316341 
L 106.822498 67.328513 
L 106.795895 67.572938 
L 106.769293 67.817363 
L 106.74269 68.061788 
L 106.716088 68.306212 
L 106.689485 68.550637 
L 106.662882 68.795062 
L 106.63628 69.039487 
L 106.609677 69.283912 
L 106.583074 69.528337 
L 106.556472 69.772762 
L 106.529869 70.017186 
L 106.510716 70.193163 
L 106.50254 70.261611 
L 106.473342 70.506036 
L 106.444144 70.750461 
L 106.414946 70.994886 
L 106.385748 71.239311 
L 106.35655 71.483735 
L 106.327352 71.72816 
L 106.298154 71.972585 
L 106.268956 72.21701 
L 106.239758 72.461435 
L 106.21056 72.70586 
L 106.19761 72.814267 
L 106.179851 72.950285 
L 106.147937 73.194709 
L 106.116022 73.439134 
L 106.084108 73.683559 
L 106.052194 73.927984 
L 106.02028 74.172409 
L 105.988366 74.416834 
L 105.956452 74.661259 
L 105.924538 74.905683 
L 105.892624 75.150108 
L 105.884504 75.212298 
L 105.858595 75.394533 
L 105.823844 75.638958 
L 105.789093 75.883383 
L 105.754342 76.127808 
L 105.719591 76.372232 
L 105.68484 76.616657 
L 105.65009 76.861082 
L 105.615339 77.105507 
L 105.580588 77.349932 
L 105.571398 77.414571 
L 105.543662 77.594357 
L 105.505953 77.838782 
L 105.468245 78.083206 
L 105.430536 78.327631 
L 105.392828 78.572056 
L 105.35512 78.816481 
L 105.317411 79.060906 
L 105.279703 79.305331 
L 105.258292 79.444118 
L 105.240664 79.549756 
L 105.199877 79.79418 
L 105.159091 80.038605 
L 105.118304 80.28303 
L 105.077517 80.527455 
L 105.036731 80.77188 
L 104.995944 81.016305 
L 104.955158 81.260729 
L 104.945185 81.320491 
L 104.911954 81.505154 
L 104.867969 81.749579 
L 104.823983 81.994004 
L 104.779997 82.238429 
L 104.736012 82.482854 
L 104.692026 82.727279 
L 104.648041 82.971703 
L 104.632079 83.0604 
L 104.60194 83.216128 
L 104.554635 83.460553 
L 104.507329 83.704978 
L 104.460024 83.949403 
L 104.412719 84.193828 
L 104.365414 84.438253 
L 104.318973 84.678211 
L 104.318046 84.682677 
L 104.2673 84.927102 
L 104.216554 85.171527 
L 104.165809 85.415952 
L 104.115063 85.660377 
L 104.064317 85.904802 
L 104.013572 86.149226 
L 104.005867 86.186339 
L 103.959806 86.393651 
L 103.905499 86.638076 
L 103.851192 86.882501 
L 103.796886 87.126926 
L 103.742579 87.371351 
L 103.692761 87.595574 
L 103.687968 87.615776 
L 103.629979 87.8602 
L 103.571991 88.104625 
L 103.514002 88.34905 
L 103.456014 88.593475 
L 103.398025 88.8379 
L 103.379654 88.915333 
L 103.337439 89.082325 
L 103.275648 89.326749 
L 103.213856 89.571174 
L 103.152065 89.815599 
L 103.090274 90.060024 
L 103.066548 90.153877 
L 103.026066 90.304449 
L 102.960352 90.548874 
L 102.894638 90.793299 
L 102.828923 91.037723 
L 102.763209 91.282148 
L 102.753442 91.318478 
L 102.694052 91.526573 
L 102.624294 91.770998 
L 102.554535 92.015423 
L 102.484777 92.259848 
L 102.440336 92.415565 
L 102.413507 92.504273 
L 102.339584 92.748697 
L 102.265661 92.993122 
L 102.191739 93.237547 
L 102.127229 93.450845 
L 102.11727 93.481972 
L 102.039061 93.726397 
L 101.960853 93.970822 
L 101.882645 94.215246 
L 101.814123 94.429397 
L 101.803891 94.459671 
L 101.721276 94.704096 
L 101.638662 94.948521 
L 101.556047 95.192946 
L 101.501017 95.35576 
L 101.471922 95.437371 
L 101.38478 95.681796 
L 101.297639 95.92622 
L 101.210498 96.170645 
L 101.187911 96.234 
L 101.119914 96.41507 
L 101.028125 96.659495 
L 100.936336 96.90392 
L 100.874805 97.067772 
L 100.842975 97.148345 
L 100.746418 97.39277 
L 100.649861 97.637194 
L 100.561698 97.86037 
L 100.552879 97.881619 
L 100.451433 98.126044 
L 100.349987 98.370469 
L 100.248592 98.614771 
L 100.248539 98.614894 
L 100.142083 98.859319 
L 100.035627 99.103743 
L 99.935486 99.333671 
L 99.928867 99.348168 
L 99.817281 99.592593 
L 99.705695 99.837018 
L 99.62238 100.019517 
L 99.592779 100.081443 
L 99.475942 100.325868 
L 99.359104 100.570293 
L 99.309274 100.674539 
L 99.239186 100.814717 
L 99.116977 101.059142 
L 98.996167 101.300769 
L 98.994706 101.303567 
L 98.867004 101.547992 
L 98.739302 101.792417 
L 98.683061 101.900065 
L 98.60846 102.036842 
L 98.475145 102.281267 
L 98.369955 102.474126 
L 98.34062 102.525691 
L 98.201572 102.770116 
L 98.062523 103.014541 
L 98.056849 103.024515 
L 97.917858 103.258966 
L 97.772955 103.503391 
L 97.743742 103.552667 
L 97.623281 103.747816 
L 97.472402 103.99224 
L 97.430636 104.059901 
L 97.317114 104.236665 
L 97.160139 104.48109 
L 97.11753 104.547437 
L 96.998635 104.725515 
L 96.835443 104.96994 
L 96.804424 105.0164 
L 96.667119 105.214365 
L 96.497589 105.45879 
L 96.491318 105.467832 
L 96.32184 105.703214 
L 96.178211 105.902697 
L 96.144643 105.947639 
L 95.962077 106.192064 
L 95.865105 106.321892 
L 95.776369 106.436489 
L 95.587103 106.680914 
L 95.551999 106.726248 
L 95.392281 106.925339 
L 95.238893 107.116539 
L 95.194683 107.169764 
L 94.991655 107.414188 
L 94.925787 107.493487 
L 94.783856 107.658613 
L 94.61268 107.857765 
L 94.572436 107.903038 
L 94.355164 108.147463 
L 94.299574 108.21 
L 94.132457 108.391888 
L 93.986468 108.55078 
L 93.905284 108.636313 
L 93.673362 108.880656 
L 93.673282 108.880737 
L 93.433738 109.125162 
L 93.360256 109.200142 
L 93.18888 109.369587 
L 93.047149 109.509721 
L 92.938348 109.614012 
L 92.734043 109.809847 
L 92.68178 109.858437 
L 92.420937 110.100947 
L 92.418815 110.102862 
L 92.147885 110.347287 
L 92.107831 110.383422 
L 91.870011 110.591711 
L 91.794724 110.65765 
L 91.584894 110.836136 
L 91.481618 110.923986 
L 91.292173 111.080561 
L 91.168512 111.182766 
L 90.991484 111.324986 
L 90.855406 111.434308 
L 90.682466 111.569411 
L 90.5423 111.67891 
L 90.364756 111.813836 
L 90.229193 111.916857 
L 90.037993 112.058261 
L 89.916087 112.148416 
L 89.701813 112.302685 
L 89.602981 112.373841 
L 89.355856 112.54711 
L 89.289875 112.593373 
L 88.999759 112.791535 
L 88.976769 112.807239 
L 88.663662 113.015656 
L 88.632373 113.03596 
L 88.350556 113.21883 
L 88.253279 113.280385 
L 88.03745 113.416957 
L 87.862718 113.52481 
L 87.724344 113.610221 
L 87.460326 113.769234 
L 87.411237 113.7988 
L 87.098131 113.982862 
L 87.044473 114.013659 
L 86.785025 114.162568 
L 86.614619 114.258084 
L 86.471919 114.33807 
L 86.171607 114.502509 
L 86.158813 114.509514 
L 85.845706 114.67704 
L 85.712054 114.746934 
L 85.5326 114.84078 
L 85.238078 114.991359 
L 85.219494 115.00086 
L 84.906388 115.157403 
L 84.746114 115.235784 
L 84.593282 115.310525 
L 84.280175 115.460335 
L 84.237732 115.480208 
L 83.967069 115.606941 
L 83.71028 115.724633 
L 83.653963 115.750444 
L 83.340857 115.890942 
L 83.163088 115.969058 
L 83.027751 116.028528 
L 82.714644 116.163292 
L 82.595616 116.213483 
L 82.401538 116.29532 
L 82.088432 116.424693 
L 82.006415 116.457908 
L 81.775326 116.551493 
L 81.462219 116.675793 
L 81.394037 116.702333 
L 81.149113 116.797668 
L 80.836007 116.917188 
L 80.757034 116.946758 
L 80.522901 117.034421 
L 80.209795 117.149431 
L 80.093955 117.191182 
L 79.896688 117.262282 
L 79.583582 117.373033 
L 79.403354 117.435607 
L 79.270476 117.481742 
L 78.95737 117.588466 
L 78.683781 117.680032 
L 78.644264 117.693258 
L 78.331157 117.79617 
L 78.018051 117.897253 
L 77.932276 117.924457 
L 77.704945 117.996555 
L 77.391839 118.094122 
L 77.147698 118.168882 
L 77.078732 118.19 
L 76.765626 118.284232 
L 76.45252 118.37686 
L 76.327204 118.413307 
L 76.139414 118.467924 
L 75.826308 118.557464 
L 75.513201 118.645519 
L 75.469048 118.657731 
L 75.200095 118.732123 
L 74.886989 118.817314 
L 74.573883 118.901126 
L 74.569969 118.902156 
L 74.260777 118.98359 
L 73.94767 119.064741 
L 73.634564 119.144609 
L 73.626708 119.146581 
L 73.321458 119.223224 
L 73.008352 119.300615 
L 72.695245 119.376811 
L 72.636006 119.391006 
L 72.382139 119.451839 
L 72.069033 119.525726 
L 71.755927 119.598498 
L 71.594604 119.635431 
L 71.442821 119.67018 
L 71.129714 119.740796 
L 70.816608 119.810369 
L 70.503502 119.878923 
L 70.49918 119.879856 
L 70.190396 119.94648 
L 69.87729 120.013061 
L 69.564183 120.078688 
L 69.34352 120.124281 
L 69.251077 120.143381 
L 68.937971 120.207159 
L 68.624865 120.270042 
L 68.311759 120.332049 
L 68.124061 120.368705 
L 67.998652 120.393197 
L 67.685546 120.453505 
L 67.37244 120.51299 
L 67.059334 120.571668 
L 66.835069 120.61313 
L 66.746227 120.629556 
L 66.433121 120.686669 
L 66.120015 120.743023 
L 65.806909 120.798634 
L 65.493803 120.853515 
L 65.470447 120.857555 
L 65.180696 120.907681 
L 64.86759 120.961146 
L 64.554484 121.013923 
L 64.241378 121.066026 
L 64.022534 121.10198 
L 63.928272 121.117467 
L 63.615165 121.168259 
L 63.302059 121.218414 
L 62.988953 121.267944 
L 62.675847 121.316861 
L 62.484384 121.346405 
L 62.36274 121.365175 
L 62.049634 121.412899 
L 61.736528 121.460043 
L 61.423422 121.506616 
L 61.110316 121.552631 
L 60.847248 121.59083 
L 60.797209 121.598096 
L 60.484103 121.643021 
L 60.170997 121.687416 
L 59.857891 121.73129 
L 59.544785 121.774653 
L 59.231678 121.817513 
L 59.10056 121.835255 
L 58.918572 121.859879 
L 58.605466 121.901759 
L 58.29236 121.943162 
L 57.979254 121.984096 
L 57.666147 122.024569 
L 57.353041 122.064588 
L 57.233639 122.079679 
L 57.039935 122.104162 
L 56.726829 122.143296 
L 56.413722 122.182 
L 56.100616 122.220279 
L 55.78751 122.258142 
L 55.474404 122.295593 
L 55.233449 122.324104 
L 55.161298 122.332642 
L 54.848191 122.369292 
L 54.535085 122.405552 
L 54.221979 122.441427 
L 53.908873 122.476923 
L 53.595767 122.512047 
L 53.28266 122.546804 
L 53.084898 122.568529 
L 52.969554 122.5812 
L 52.656448 122.61524 
L 52.343342 122.648931 
L 52.030235 122.682276 
L 51.717129 122.715282 
L 51.404023 122.747954 
L 51.090917 122.780297 
L 50.777811 122.812316 
L 50.771508 122.812954 
L 50.464704 122.844015 
L 50.151598 122.8754 
L 49.838492 122.906474 
L 49.525386 122.937243 
L 49.21228 122.967711 
L 48.899173 122.997883 
L 48.586067 123.027763 
L 48.272961 123.057354 
L 48.272699 123.057379 
L 47.959855 123.086662 
L 47.646748 123.11569 
L 47.333642 123.144442 
L 47.020536 123.172922 
L 46.70743 123.201134 
L 46.394324 123.229082 
L 46.081217 123.256769 
L 45.768111 123.2842 
L 45.565294 123.301804 
L 45.455005 123.311376 
L 45.141899 123.338303 
L 44.828793 123.364984 
L 44.515686 123.391421 
L 44.20258 123.417619 
L 43.889474 123.44358 
L 43.576368 123.469308 
L 43.263262 123.494805 
L 42.950155 123.520076 
L 42.637049 123.545122 
L 42.623093 123.546228 
L 42.323943 123.569947 
L 42.010837 123.594554 
L 41.69773 123.618945 
L 41.384624 123.643124 
L 41.071518 123.667093 
L 40.758412 123.690855 
L 40.445306 123.714413 
L 40.132199 123.737769 
L 39.819093 123.760925 
L 39.505987 123.783885 
L 39.412905 123.790653 
L 39.192881 123.806651 
L 38.879775 123.829225 
L 38.566668 123.85161 
L 38.253562 123.873808 
L 37.940456 123.895821 
L 37.62735 123.917652 
L 37.314243 123.939303 
L 37.001137 123.960776 
L 36.688031 123.982074 
L 36.374925 124.003198 
L 36.061819 124.02415 
L 35.897184 124.035078 
L 35.748712 124.044933 
L 35.435606 124.065549 
L 35.1225 124.086 
L 35.1225 124.279503 
L 35.1225 124.523928 
L 35.1225 124.768353 
L 35.1225 125.012778 
L 35.1225 125.257202 
L 35.1225 125.501627 
L 35.1225 125.746052 
L 35.1225 125.990477 
L 35.1225 126.234902 
L 35.1225 126.479327 
L 35.1225 126.723752 
L 35.1225 126.968176 
L 35.1225 127.212601 
L 35.1225 127.457026 
L 35.1225 127.701451 
L 35.1225 127.945876 
L 35.1225 128.190301 
L 35.1225 128.434725 
L 35.1225 128.67915 
L 35.1225 128.923575 
L 35.1225 129.168 
z
" clip-path="url(#p63f0e24070)" style="fill: #00cd6c"/>
   </g>
   <g id="matplotlib.axis_1">
    <g id="xtick_1">
     <g id="line2d_1">
      <defs>
       <path id="m4cd371f86f" d="M 0 0 
L 0 2.5 
" style="stroke: #000000; stroke-width: 0.6"/>
      </defs>
      <g>
       <use xlink:href="#m4cd371f86f" x="35.1225" y="129.168" style="stroke: #000000; stroke-width: 0.6"/>
      </g>
     </g>
     <g id="text_1">
      <!-- 0.00 -->
      <g transform="translate(26.21625 141.24675)scale(0.08 -0.08)">
       <defs>
        <path id="DejaVuSans-30" d="M 2034 4250 
Q 1547 4250 1301 3770 
Q 1056 3291 1056 2328 
Q 1056 1369 1301 889 
Q 1547 409 2034 409 
Q 2525 409 2770 889 
Q 3016 1369 3016 2328 
Q 3016 3291 2770 3770 
Q 2525 4250 2034 4250 
z
M 2034 4750 
Q 2819 4750 3233 4129 
Q 3647 3509 3647 2328 
Q 3647 1150 3233 529 
Q 2819 -91 2034 -91 
Q 1250 -91 836 529 
Q 422 1150 422 2328 
Q 422 3509 836 4129 
Q 1250 4750 2034 4750 
z
" transform="scale(0.015625)"/>
        <path id="DejaVuSans-2e" d="M 684 794 
L 1344 794 
L 1344 0 
L 684 0 
L 684 794 
z
" transform="scale(0.015625)"/>
       </defs>
       <use xlink:href="#DejaVuSans-30"/>
       <use xlink:href="#DejaVuSans-2e" x="63.623047"/>
       <use xlink:href="#DejaVuSans-30" x="95.410156"/>
       <use xlink:href="#DejaVuSans-30" x="159.033203"/>
      </g>
     </g>
    </g>
    <g id="xtick_2">
     <g id="line2d_2">
      <g>
       <use xlink:href="#m4cd371f86f" x="74.1825" y="129.168" style="stroke: #000000; stroke-width: 0.6"/>
      </g>
     </g>
     <g id="text_2">
      <!-- 0.25 -->
      <g transform="translate(65.27625 141.24675)scale(0.08 -0.08)">
       <defs>
        <path id="DejaVuSans-32" d="M 1228 531 
L 3431 531 
L 3431 0 
L 469 0 
L 469 531 
Q 828 903 1448 1529 
Q 2069 2156 2228 2338 
Q 2531 2678 2651 2914 
Q 2772 3150 2772 3378 
Q 2772 3750 2511 3984 
Q 2250 4219 1831 4219 
Q 1534 4219 1204 4116 
Q 875 4013 500 3803 
L 500 4441 
Q 881 4594 1212 4672 
Q 1544 4750 1819 4750 
Q 2544 4750 2975 4387 
Q 3406 4025 3406 3419 
Q 3406 3131 3298 2873 
Q 3191 2616 2906 2266 
Q 2828 2175 2409 1742 
Q 1991 1309 1228 531 
z
" transform="scale(0.015625)"/>
        <path id="DejaVuSans-35" d="M 691 4666 
L 3169 4666 
L 3169 4134 
L 1269 4134 
L 1269 2991 
Q 1406 3038 1543 3061 
Q 1681 3084 1819 3084 
Q 2600 3084 3056 2656 
Q 3513 2228 3513 1497 
Q 3513 744 3044 326 
Q 2575 -91 1722 -91 
Q 1428 -91 1123 -41 
Q 819 9 494 109 
L 494 744 
Q 775 591 1075 516 
Q 1375 441 1709 441 
Q 2250 441 2565 725 
Q 2881 1009 2881 1497 
Q 2881 1984 2565 2268 
Q 2250 2553 1709 2553 
Q 1456 2553 1204 2497 
Q 953 2441 691 2322 
L 691 4666 
z
" transform="scale(0.015625)"/>
       </defs>
       <use xlink:href="#DejaVuSans-30"/>
       <use xlink:href="#DejaVuSans-2e" x="63.623047"/>
       <use xlink:href="#DejaVuSans-32" x="95.410156"/>
       <use xlink:href="#DejaVuSans-35" x="159.033203"/>
      </g>
     </g>
    </g>
    <g id="xtick_3">
     <g id="line2d_3">
      <g>
       <use xlink:href="#m4cd371f86f" x="113.2425" y="129.168" style="stroke: #000000; stroke-width: 0.6"/>
      </g>
     </g>
     <g id="text_3">
      <!-- 0.50 -->
      <g transform="translate(104.33625 141.24675)scale(0.08 -0.08)">
       <use xlink:href="#DejaVuSans-30"/>
       <use xlink:href="#DejaVuSans-2e" x="63.623047"/>
       <use xlink:href="#DejaVuSans-35" x="95.410156"/>
       <use xlink:href="#DejaVuSans-30" x="159.033203"/>
      </g>
     </g>
    </g>
    <g id="xtick_4">
     <g id="line2d_4">
      <g>
       <use xlink:href="#m4cd371f86f" x="152.3025" y="129.168" style="stroke: #000000; stroke-width: 0.6"/>
      </g>
     </g>
     <g id="text_4">
      <!-- 0.75 -->
      <g transform="translate(143.39625 141.24675)scale(0.08 -0.08)">
       <defs>
        <path id="DejaVuSans-37" d="M 525 4666 
L 3525 4666 
L 3525 4397 
L 1831 0 
L 1172 0 
L 2766 4134 
L 525 4134 
L 525 4666 
z
" transform="scale(0.015625)"/>
       </defs>
       <use xlink:href="#DejaVuSans-30"/>
       <use xlink:href="#DejaVuSans-2e" x="63.623047"/>
       <use xlink:href="#DejaVuSans-37" x="95.410156"/>
       <use xlink:href="#DejaVuSans-35" x="159.033203"/>
      </g>
     </g>
    </g>
    <g id="xtick_5">
     <g id="line2d_5">
      <g>
       <use xlink:href="#m4cd371f86f" x="191.3625" y="129.168" style="stroke: #000000; stroke-width: 0.6"/>
      </g>
     </g>
     <g id="text_5">
      <!-- 1.00 -->
      <g transform="translate(182.45625 141.24675)scale(0.08 -0.08)">
       <defs>
        <path id="DejaVuSans-31" d="M 794 531 
L 1825 531 
L 1825 4091 
L 703 3866 
L 703 4441 
L 1819 4666 
L 2450 4666 
L 2450 531 
L 3481 531 
L 3481 0 
L 794 0 
L 794 531 
z
" transform="scale(0.015625)"/>
       </defs>
       <use xlink:href="#DejaVuSans-31"/>
       <use xlink:href="#DejaVuSans-2e" x="63.623047"/>
       <use xlink:href="#DejaVuSans-30" x="95.410156"/>
       <use xlink:href="#DejaVuSans-30" x="159.033203"/>
      </g>
     </g>
    </g>
    <g id="text_6">
     <!-- $\theta$ -->
     <g transform="translate(110.7625 152.98925)scale(0.08 -0.08)">
      <defs>
       <path id="DejaVuSans-Oblique-3b8" d="M 2913 2219 
L 925 2219 
Q 791 1284 928 888 
Q 1100 400 1566 400 
Q 2034 400 2391 891 
Q 2703 1322 2913 2219 
z
M 3009 2750 
Q 3094 3638 2984 3950 
Q 2813 4444 2353 4444 
Q 1875 4444 1525 3956 
Q 1250 3563 1034 2750 
L 3009 2750 
z
M 2444 4913 
Q 3194 4913 3494 4250 
Q 3794 3591 3566 2422 
Q 3341 1256 2781 594 
Q 2225 -72 1475 -72 
Q 722 -72 425 594 
Q 128 1256 353 2422 
Q 581 3591 1134 4250 
Q 1691 4913 2444 4913 
z
" transform="scale(0.015625)"/>
      </defs>
      <use xlink:href="#DejaVuSans-Oblique-3b8" transform="translate(0 0.234375)"/>
     </g>
    </g>
   </g>
   <g id="matplotlib.axis_2">
    <g id="ytick_1">
     <g id="line2d_6">
      <defs>
       <path id="m56f3a9ced1" d="M 0 0 
L -2.5 0 
" style="stroke: #000000; stroke-width: 0.6"/>
      </defs>
      <g>
       <use xlink:href="#m56f3a9ced1" x="35.1225" y="129.168" style="stroke: #000000; stroke-width: 0.6"/>
      </g>
     </g>
     <g id="text_7">
      <!-- 0 -->
      <g transform="translate(24.0325 132.207375)scale(0.08 -0.08)">
       <use xlink:href="#DejaVuSans-30"/>
      </g>
     </g>
    </g>
    <g id="ytick_2">
     <g id="line2d_7">
      <g>
       <use xlink:href="#m56f3a9ced1" x="35.1225" y="108.84" style="stroke: #000000; stroke-width: 0.6"/>
      </g>
     </g>
     <g id="text_8">
      <!-- 2 -->
      <g transform="translate(24.0325 111.879375)scale(0.08 -0.08)">
       <use xlink:href="#DejaVuSans-32"/>
      </g>
     </g>
    </g>
    <g id="ytick_3">
     <g id="line2d_8">
      <g>
       <use xlink:href="#m56f3a9ced1" x="35.1225" y="88.512" style="stroke: #000000; stroke-width: 0.6"/>
      </g>
     </g>
     <g id="text_9">
      <!-- 4 -->
      <g transform="translate(24.0325 91.551375)scale(0.08 -0.08)">
       <defs>
        <path id="DejaVuSans-34" d="M 2419 4116 
L 825 1625 
L 2419 1625 
L 2419 4116 
z
M 2253 4666 
L 3047 4666 
L 3047 1625 
L 3713 1625 
L 3713 1100 
L 3047 1100 
L 3047 0 
L 2419 0 
L 2419 1100 
L 313 1100 
L 313 1709 
L 2253 4666 
z
" transform="scale(0.015625)"/>
       </defs>
       <use xlink:href="#DejaVuSans-34"/>
      </g>
     </g>
    </g>
    <g id="ytick_4">
     <g id="line2d_9">
      <g>
       <use xlink:href="#m56f3a9ced1" x="35.1225" y="68.184" style="stroke: #000000; stroke-width: 0.6"/>
      </g>
     </g>
     <g id="text_10">
      <!-- 6 -->
      <g transform="translate(24.0325 71.223375)scale(0.08 -0.08)">
       <defs>
        <path id="DejaVuSans-36" d="M 2113 2584 
Q 1688 2584 1439 2293 
Q 1191 2003 1191 1497 
Q 1191 994 1439 701 
Q 1688 409 2113 409 
Q 2538 409 2786 701 
Q 3034 994 3034 1497 
Q 3034 2003 2786 2293 
Q 2538 2584 2113 2584 
z
M 3366 4563 
L 3366 3988 
Q 3128 4100 2886 4159 
Q 2644 4219 2406 4219 
Q 1781 4219 1451 3797 
Q 1122 3375 1075 2522 
Q 1259 2794 1537 2939 
Q 1816 3084 2150 3084 
Q 2853 3084 3261 2657 
Q 3669 2231 3669 1497 
Q 3669 778 3244 343 
Q 2819 -91 2113 -91 
Q 1303 -91 875 529 
Q 447 1150 447 2328 
Q 447 3434 972 4092 
Q 1497 4750 2381 4750 
Q 2619 4750 2861 4703 
Q 3103 4656 3366 4563 
z
" transform="scale(0.015625)"/>
       </defs>
       <use xlink:href="#DejaVuSans-36"/>
      </g>
     </g>
    </g>
    <g id="ytick_5">
     <g id="line2d_10">
      <g>
       <use xlink:href="#m56f3a9ced1" x="35.1225" y="47.856" style="stroke: #000000; stroke-width: 0.6"/>
      </g>
     </g>
     <g id="text_11">
      <!-- 8 -->
      <g transform="translate(24.0325 50.895375)scale(0.08 -0.08)">
       <defs>
        <path id="DejaVuSans-38" d="M 2034 2216 
Q 1584 2216 1326 1975 
Q 1069 1734 1069 1313 
Q 1069 891 1326 650 
Q 1584 409 2034 409 
Q 2484 409 2743 651 
Q 3003 894 3003 1313 
Q 3003 1734 2745 1975 
Q 2488 2216 2034 2216 
z
M 1403 2484 
Q 997 2584 770 2862 
Q 544 3141 544 3541 
Q 544 4100 942 4425 
Q 1341 4750 2034 4750 
Q 2731 4750 3128 4425 
Q 3525 4100 3525 3541 
Q 3525 3141 3298 2862 
Q 3072 2584 2669 2484 
Q 3125 2378 3379 2068 
Q 3634 1759 3634 1313 
Q 3634 634 3220 271 
Q 2806 -91 2034 -91 
Q 1263 -91 848 271 
Q 434 634 434 1313 
Q 434 1759 690 2068 
Q 947 2378 1403 2484 
z
M 1172 3481 
Q 1172 3119 1398 2916 
Q 1625 2713 2034 2713 
Q 2441 2713 2670 2916 
Q 2900 3119 2900 3481 
Q 2900 3844 2670 4047 
Q 2441 4250 2034 4250 
Q 1625 4250 1398 4047 
Q 1172 3844 1172 3481 
z
" transform="scale(0.015625)"/>
       </defs>
       <use xlink:href="#DejaVuSans-38"/>
      </g>
     </g>
    </g>
    <g id="ytick_6">
     <g id="line2d_11">
      <g>
       <use xlink:href="#m56f3a9ced1" x="35.1225" y="27.528" style="stroke: #000000; stroke-width: 0.6"/>
      </g>
     </g>
     <g id="text_12">
      <!-- 10 -->
      <g transform="translate(18.9425 30.567375)scale(0.08 -0.08)">
       <use xlink:href="#DejaVuSans-31"/>
       <use xlink:href="#DejaVuSans-30" x="63.623047"/>
      </g>
     </g>
    </g>
    <g id="text_13">
     <!-- $\mu$ -->
     <g transform="translate(13.2625 70.744)rotate(-90)scale(0.08 -0.08)">
      <defs>
       <path id="DejaVuSans-Oblique-3bc" d="M -84 -1331 
L 856 3500 
L 1434 3500 
L 1009 1322 
Q 997 1256 987 1175 
Q 978 1094 978 1013 
Q 978 722 1161 565 
Q 1344 409 1684 409 
Q 2147 409 2431 671 
Q 2716 934 2816 1459 
L 3213 3500 
L 3788 3500 
L 3266 809 
Q 3253 750 3248 706 
Q 3244 663 3244 628 
Q 3244 531 3283 486 
Q 3322 441 3406 441 
Q 3438 441 3492 456 
Q 3547 472 3647 513 
L 3559 50 
Q 3422 -19 3297 -55 
Q 3172 -91 3053 -91 
Q 2847 -91 2730 40 
Q 2613 172 2613 403 
Q 2438 153 2195 31 
Q 1953 -91 1625 -91 
Q 1334 -91 1117 43 
Q 900 178 831 397 
L 494 -1331 
L -84 -1331 
z
" transform="scale(0.015625)"/>
      </defs>
      <use xlink:href="#DejaVuSans-Oblique-3bc" transform="translate(0 0.3125)"/>
     </g>
    </g>
   </g>
   <g id="line2d_12">
    <path d="M 113.2425 129.168 
L 113.2425 7.2 
" clip-path="url(#p63f0e24070)" style="fill: none; stroke-dasharray: 3.7,1.6; stroke-dashoffset: 0; stroke: #000000"/>
   </g>
   <g id="patch_3">
    <path d="M 35.1225 129.168 
L 35.1225 7.2 
" style="fill: none; stroke: #000000; stroke-width: 0.6; stroke-linejoin: miter; stroke-linecap: square"/>
   </g>
   <g id="patch_4">
    <path d="M 35.1225 129.168 
L 191.3625 129.168 
" style="fill: none; stroke: #000000; stroke-width: 0.6; stroke-linejoin: miter; stroke-linecap: square"/>
   </g>
  </g>
 </g>
 <defs>
  <clipPath id="p63f0e24070">
   <rect x="35.1225" y="7.2" width="156.24" height="121.968"/>
  </clipPath>
 </defs>
</svg>
