<?xml version="1.0" encoding="utf-8" standalone="no"?>
<!DOCTYPE svg PUBLIC "-//W3C//DTD SVG 1.1//EN"
  "http://www.w3.org/Graphics/SVG/1.1/DTD/svg11.dtd">
<svg xmlns:xlink="http://www.w3.org/1999/xlink" width="226.485pt" height="164.892375pt" viewBox="0 0 226.485 164.892375" xmlns="http://www.w3.org/2000/svg" version="1.1">
 <metadata>
  <rdf:RDF xmlns:dc="http://purl.org/dc/elements/1.1/" xmlns:cc="http://creativecommons.org/ns#" xmlns:rdf="http://www.w3.org/1999/02/22-rdf-syntax-ns#">
   <cc:Work>
    <dc:type rdf:resource="http://purl.org/dc/dcmitype/StillImage"/>
    <dc:date>2022-11-01T13:20:34.068279</dc:date>
    <dc:format>image/svg+xml</dc:format>
    <dc:creator>
     <cc:Agent>
      <dc:title>Matplotlib v3.5.2, https://matplotlib.org/</dc:title>
     </cc:Agent>
    </dc:creator>
   </cc:Work>
  </rdf:RDF>
 </metadata>
 <defs>
  <style type="text/css">*{stroke-linejoin: round; stroke-linecap: butt}</style>
 </defs>
 <g id="figure_1">
  <g id="patch_1">
   <path d="M 0 164.892375 
L 226.485 164.892375 
L 226.485 0 
L 0 0 
L 0 164.892375 
z
" style="fill: none"/>
  </g>
  <g id="axes_1">
   <g id="matplotlib.axis_1">
    <g id="ytick_1">
     <g id="line2d_1">
      <defs>
       <path id="m40c493c81d" d="M 0 0 
L 2.5 0 
" style="stroke: #000000; stroke-width: 0.6"/>
      </defs>
      <g>
       <use xlink:href="#m40c493c81d" x="186.2725" y="132.207375" style="stroke: #000000; stroke-width: 0.6"/>
      </g>
     </g>
     <g id="text_1">
      <!-- 0 -->
      <g transform="translate(192.2725 135.24675)scale(0.08 -0.08)">
       <defs>
        <path id="DejaVuSans-30" d="M 2034 4250 
Q 1547 4250 1301 3770 
Q 1056 3291 1056 2328 
Q 1056 1369 1301 889 
Q 1547 409 2034 409 
Q 2525 409 2770 889 
Q 3016 1369 3016 2328 
Q 3016 3291 2770 3770 
Q 2525 4250 2034 4250 
z
M 2034 4750 
Q 2819 4750 3233 4129 
Q 3647 3509 3647 2328 
Q 3647 1150 3233 529 
Q 2819 -91 2034 -91 
Q 1250 -91 836 529 
Q 422 1150 422 2328 
Q 422 3509 836 4129 
Q 1250 4750 2034 4750 
z
" transform="scale(0.015625)"/>
       </defs>
       <use xlink:href="#DejaVuSans-30"/>
      </g>
     </g>
    </g>
    <g id="ytick_2">
     <g id="line2d_2">
      <g>
       <use xlink:href="#m40c493c81d" x="186.2725" y="101.715375" style="stroke: #000000; stroke-width: 0.6"/>
      </g>
     </g>
     <g id="text_2">
      <!-- 50 -->
      <g transform="translate(192.2725 104.75475)scale(0.08 -0.08)">
       <defs>
        <path id="DejaVuSans-35" d="M 691 4666 
L 3169 4666 
L 3169 4134 
L 1269 4134 
L 1269 2991 
Q 1406 3038 1543 3061 
Q 1681 3084 1819 3084 
Q 2600 3084 3056 2656 
Q 3513 2228 3513 1497 
Q 3513 744 3044 326 
Q 2575 -91 1722 -91 
Q 1428 -91 1123 -41 
Q 819 9 494 109 
L 494 744 
Q 775 591 1075 516 
Q 1375 441 1709 441 
Q 2250 441 2565 725 
Q 2881 1009 2881 1497 
Q 2881 1984 2565 2268 
Q 2250 2553 1709 2553 
Q 1456 2553 1204 2497 
Q 953 2441 691 2322 
L 691 4666 
z
" transform="scale(0.015625)"/>
       </defs>
       <use xlink:href="#DejaVuSans-35"/>
       <use xlink:href="#DejaVuSans-30" x="63.623047"/>
      </g>
     </g>
    </g>
    <g id="ytick_3">
     <g id="line2d_3">
      <g>
       <use xlink:href="#m40c493c81d" x="186.2725" y="71.223375" style="stroke: #000000; stroke-width: 0.6"/>
      </g>
     </g>
     <g id="text_3">
      <!-- 100 -->
      <g transform="translate(192.2725 74.26275)scale(0.08 -0.08)">
       <defs>
        <path id="DejaVuSans-31" d="M 794 531 
L 1825 531 
L 1825 4091 
L 703 3866 
L 703 4441 
L 1819 4666 
L 2450 4666 
L 2450 531 
L 3481 531 
L 3481 0 
L 794 0 
L 794 531 
z
" transform="scale(0.015625)"/>
       </defs>
       <use xlink:href="#DejaVuSans-31"/>
       <use xlink:href="#DejaVuSans-30" x="63.623047"/>
       <use xlink:href="#DejaVuSans-30" x="127.246094"/>
      </g>
     </g>
    </g>
    <g id="ytick_4">
     <g id="line2d_4">
      <g>
       <use xlink:href="#m40c493c81d" x="186.2725" y="40.731375" style="stroke: #000000; stroke-width: 0.6"/>
      </g>
     </g>
     <g id="text_4">
      <!-- 150 -->
      <g transform="translate(192.2725 43.77075)scale(0.08 -0.08)">
       <use xlink:href="#DejaVuSans-31"/>
       <use xlink:href="#DejaVuSans-35" x="63.623047"/>
       <use xlink:href="#DejaVuSans-30" x="127.246094"/>
      </g>
     </g>
    </g>
    <g id="ytick_5">
     <g id="line2d_5">
      <g>
       <use xlink:href="#m40c493c81d" x="186.2725" y="10.239375" style="stroke: #000000; stroke-width: 0.6"/>
      </g>
     </g>
     <g id="text_5">
      <!-- 200 -->
      <g transform="translate(192.2725 13.27875)scale(0.08 -0.08)">
       <defs>
        <path id="DejaVuSans-32" d="M 1228 531 
L 3431 531 
L 3431 0 
L 469 0 
L 469 531 
Q 828 903 1448 1529 
Q 2069 2156 2228 2338 
Q 2531 2678 2651 2914 
Q 2772 3150 2772 3378 
Q 2772 3750 2511 3984 
Q 2250 4219 1831 4219 
Q 1534 4219 1204 4116 
Q 875 4013 500 3803 
L 500 4441 
Q 881 4594 1212 4672 
Q 1544 4750 1819 4750 
Q 2544 4750 2975 4387 
Q 3406 4025 3406 3419 
Q 3406 3131 3298 2873 
Q 3191 2616 2906 2266 
Q 2828 2175 2409 1742 
Q 1991 1309 1228 531 
z
" transform="scale(0.015625)"/>
       </defs>
       <use xlink:href="#DejaVuSans-32"/>
       <use xlink:href="#DejaVuSans-30" x="63.623047"/>
       <use xlink:href="#DejaVuSans-30" x="127.246094"/>
      </g>
     </g>
    </g>
    <g id="text_6">
     <!-- force frequency [Hz] -->
     <g style="fill: #00cd6c" transform="translate(217.62125 112.1265)rotate(-90)scale(0.08 -0.08)">
      <defs>
       <path id="DejaVuSans-66" d="M 2375 4863 
L 2375 4384 
L 1825 4384 
Q 1516 4384 1395 4259 
Q 1275 4134 1275 3809 
L 1275 3500 
L 2222 3500 
L 2222 3053 
L 1275 3053 
L 1275 0 
L 697 0 
L 697 3053 
L 147 3053 
L 147 3500 
L 697 3500 
L 697 3744 
Q 697 4328 969 4595 
Q 1241 4863 1831 4863 
L 2375 4863 
z
" transform="scale(0.015625)"/>
       <path id="DejaVuSans-6f" d="M 1959 3097 
Q 1497 3097 1228 2736 
Q 959 2375 959 1747 
Q 959 1119 1226 758 
Q 1494 397 1959 397 
Q 2419 397 2687 759 
Q 2956 1122 2956 1747 
Q 2956 2369 2687 2733 
Q 2419 3097 1959 3097 
z
M 1959 3584 
Q 2709 3584 3137 3096 
Q 3566 2609 3566 1747 
Q 3566 888 3137 398 
Q 2709 -91 1959 -91 
Q 1206 -91 779 398 
Q 353 888 353 1747 
Q 353 2609 779 3096 
Q 1206 3584 1959 3584 
z
" transform="scale(0.015625)"/>
       <path id="DejaVuSans-72" d="M 2631 2963 
Q 2534 3019 2420 3045 
Q 2306 3072 2169 3072 
Q 1681 3072 1420 2755 
Q 1159 2438 1159 1844 
L 1159 0 
L 581 0 
L 581 3500 
L 1159 3500 
L 1159 2956 
Q 1341 3275 1631 3429 
Q 1922 3584 2338 3584 
Q 2397 3584 2469 3576 
Q 2541 3569 2628 3553 
L 2631 2963 
z
" transform="scale(0.015625)"/>
       <path id="DejaVuSans-63" d="M 3122 3366 
L 3122 2828 
Q 2878 2963 2633 3030 
Q 2388 3097 2138 3097 
Q 1578 3097 1268 2742 
Q 959 2388 959 1747 
Q 959 1106 1268 751 
Q 1578 397 2138 397 
Q 2388 397 2633 464 
Q 2878 531 3122 666 
L 3122 134 
Q 2881 22 2623 -34 
Q 2366 -91 2075 -91 
Q 1284 -91 818 406 
Q 353 903 353 1747 
Q 353 2603 823 3093 
Q 1294 3584 2113 3584 
Q 2378 3584 2631 3529 
Q 2884 3475 3122 3366 
z
" transform="scale(0.015625)"/>
       <path id="DejaVuSans-65" d="M 3597 1894 
L 3597 1613 
L 953 1613 
Q 991 1019 1311 708 
Q 1631 397 2203 397 
Q 2534 397 2845 478 
Q 3156 559 3463 722 
L 3463 178 
Q 3153 47 2828 -22 
Q 2503 -91 2169 -91 
Q 1331 -91 842 396 
Q 353 884 353 1716 
Q 353 2575 817 3079 
Q 1281 3584 2069 3584 
Q 2775 3584 3186 3129 
Q 3597 2675 3597 1894 
z
M 3022 2063 
Q 3016 2534 2758 2815 
Q 2500 3097 2075 3097 
Q 1594 3097 1305 2825 
Q 1016 2553 972 2059 
L 3022 2063 
z
" transform="scale(0.015625)"/>
       <path id="DejaVuSans-20" transform="scale(0.015625)"/>
       <path id="DejaVuSans-71" d="M 947 1747 
Q 947 1113 1208 752 
Q 1469 391 1925 391 
Q 2381 391 2643 752 
Q 2906 1113 2906 1747 
Q 2906 2381 2643 2742 
Q 2381 3103 1925 3103 
Q 1469 3103 1208 2742 
Q 947 2381 947 1747 
z
M 2906 525 
Q 2725 213 2448 61 
Q 2172 -91 1784 -91 
Q 1150 -91 751 415 
Q 353 922 353 1747 
Q 353 2572 751 3078 
Q 1150 3584 1784 3584 
Q 2172 3584 2448 3432 
Q 2725 3281 2906 2969 
L 2906 3500 
L 3481 3500 
L 3481 -1331 
L 2906 -1331 
L 2906 525 
z
" transform="scale(0.015625)"/>
       <path id="DejaVuSans-75" d="M 544 1381 
L 544 3500 
L 1119 3500 
L 1119 1403 
Q 1119 906 1312 657 
Q 1506 409 1894 409 
Q 2359 409 2629 706 
Q 2900 1003 2900 1516 
L 2900 3500 
L 3475 3500 
L 3475 0 
L 2900 0 
L 2900 538 
Q 2691 219 2414 64 
Q 2138 -91 1772 -91 
Q 1169 -91 856 284 
Q 544 659 544 1381 
z
M 1991 3584 
L 1991 3584 
z
" transform="scale(0.015625)"/>
       <path id="DejaVuSans-6e" d="M 3513 2113 
L 3513 0 
L 2938 0 
L 2938 2094 
Q 2938 2591 2744 2837 
Q 2550 3084 2163 3084 
Q 1697 3084 1428 2787 
Q 1159 2491 1159 1978 
L 1159 0 
L 581 0 
L 581 3500 
L 1159 3500 
L 1159 2956 
Q 1366 3272 1645 3428 
Q 1925 3584 2291 3584 
Q 2894 3584 3203 3211 
Q 3513 2838 3513 2113 
z
" transform="scale(0.015625)"/>
       <path id="DejaVuSans-79" d="M 2059 -325 
Q 1816 -950 1584 -1140 
Q 1353 -1331 966 -1331 
L 506 -1331 
L 506 -850 
L 844 -850 
Q 1081 -850 1212 -737 
Q 1344 -625 1503 -206 
L 1606 56 
L 191 3500 
L 800 3500 
L 1894 763 
L 2988 3500 
L 3597 3500 
L 2059 -325 
z
" transform="scale(0.015625)"/>
       <path id="DejaVuSans-5b" d="M 550 4863 
L 1875 4863 
L 1875 4416 
L 1125 4416 
L 1125 -397 
L 1875 -397 
L 1875 -844 
L 550 -844 
L 550 4863 
z
" transform="scale(0.015625)"/>
       <path id="DejaVuSans-48" d="M 628 4666 
L 1259 4666 
L 1259 2753 
L 3553 2753 
L 3553 4666 
L 4184 4666 
L 4184 0 
L 3553 0 
L 3553 2222 
L 1259 2222 
L 1259 0 
L 628 0 
L 628 4666 
z
" transform="scale(0.015625)"/>
       <path id="DejaVuSans-7a" d="M 353 3500 
L 3084 3500 
L 3084 2975 
L 922 459 
L 3084 459 
L 3084 0 
L 275 0 
L 275 525 
L 2438 3041 
L 353 3041 
L 353 3500 
z
" transform="scale(0.015625)"/>
       <path id="DejaVuSans-5d" d="M 1947 4863 
L 1947 -844 
L 622 -844 
L 622 -397 
L 1369 -397 
L 1369 4416 
L 622 4416 
L 622 4863 
L 1947 4863 
z
" transform="scale(0.015625)"/>
      </defs>
      <use xlink:href="#DejaVuSans-66"/>
      <use xlink:href="#DejaVuSans-6f" x="35.205078"/>
      <use xlink:href="#DejaVuSans-72" x="96.386719"/>
      <use xlink:href="#DejaVuSans-63" x="135.25"/>
      <use xlink:href="#DejaVuSans-65" x="190.230469"/>
      <use xlink:href="#DejaVuSans-20" x="251.753906"/>
      <use xlink:href="#DejaVuSans-66" x="283.541016"/>
      <use xlink:href="#DejaVuSans-72" x="318.746094"/>
      <use xlink:href="#DejaVuSans-65" x="357.609375"/>
      <use xlink:href="#DejaVuSans-71" x="419.132812"/>
      <use xlink:href="#DejaVuSans-75" x="482.609375"/>
      <use xlink:href="#DejaVuSans-65" x="545.988281"/>
      <use xlink:href="#DejaVuSans-6e" x="607.511719"/>
      <use xlink:href="#DejaVuSans-63" x="670.890625"/>
      <use xlink:href="#DejaVuSans-79" x="725.871094"/>
      <use xlink:href="#DejaVuSans-20" x="785.050781"/>
      <use xlink:href="#DejaVuSans-5b" x="816.837891"/>
      <use xlink:href="#DejaVuSans-48" x="855.851562"/>
      <use xlink:href="#DejaVuSans-7a" x="931.046875"/>
      <use xlink:href="#DejaVuSans-5d" x="983.537109"/>
     </g>
    </g>
   </g>
   <g id="line2d_6">
    <path d="M 30.0325 92.447728 
L 186.2725 92.447728 
" clip-path="url(#p3e45bd1a04)" style="fill: none; stroke-dasharray: 1.85,0.8; stroke-dashoffset: 0; stroke: #00cd6c; stroke-width: 0.5"/>
   </g>
   <g id="line2d_7">
    <path d="M 35.832259 132.207375 
L 35.832259 10.239375 
" clip-path="url(#p3e45bd1a04)" style="fill: none; stroke-dasharray: 1.85,0.8; stroke-dashoffset: 0; stroke: #000000; stroke-width: 0.5"/>
   </g>
   <g id="line2d_8">
    <path d="M 30.0325 79.194512 
L 186.2725 79.194512 
" clip-path="url(#p3e45bd1a04)" style="fill: none; stroke-dasharray: 1.85,0.8; stroke-dashoffset: 0; stroke: #00cd6c; stroke-width: 0.5"/>
   </g>
   <g id="line2d_9">
    <path d="M 60.085264 132.207375 
L 60.085264 10.239375 
" clip-path="url(#p3e45bd1a04)" style="fill: none; stroke-dasharray: 1.85,0.8; stroke-dashoffset: 0; stroke: #000000; stroke-width: 0.5"/>
   </g>
   <g id="line2d_10">
    <path d="M 30.0325 65.941296 
L 186.2725 65.941296 
" clip-path="url(#p3e45bd1a04)" style="fill: none; stroke-dasharray: 1.85,0.8; stroke-dashoffset: 0; stroke: #00cd6c; stroke-width: 0.5"/>
   </g>
   <g id="line2d_11">
    <path d="M 84.338594 132.207375 
L 84.338594 10.239375 
" clip-path="url(#p3e45bd1a04)" style="fill: none; stroke-dasharray: 1.85,0.8; stroke-dashoffset: 0; stroke: #000000; stroke-width: 0.5"/>
   </g>
   <g id="line2d_12">
    <path d="M 30.0325 52.688081 
L 186.2725 52.688081 
" clip-path="url(#p3e45bd1a04)" style="fill: none; stroke-dasharray: 1.85,0.8; stroke-dashoffset: 0; stroke: #00cd6c; stroke-width: 0.5"/>
   </g>
   <g id="line2d_13">
    <path d="M 108.591925 132.207375 
L 108.591925 10.239375 
" clip-path="url(#p3e45bd1a04)" style="fill: none; stroke-dasharray: 1.85,0.8; stroke-dashoffset: 0; stroke: #000000; stroke-width: 0.5"/>
   </g>
   <g id="line2d_14">
    <path d="M 30.0325 39.434865 
L 186.2725 39.434865 
" clip-path="url(#p3e45bd1a04)" style="fill: none; stroke-dasharray: 1.85,0.8; stroke-dashoffset: 0; stroke: #00cd6c; stroke-width: 0.5"/>
   </g>
   <g id="line2d_15">
    <path d="M 132.845256 132.207375 
L 132.845256 10.239375 
" clip-path="url(#p3e45bd1a04)" style="fill: none; stroke-dasharray: 1.85,0.8; stroke-dashoffset: 0; stroke: #000000; stroke-width: 0.5"/>
   </g>
   <g id="line2d_16">
    <path d="M 30.0325 26.181649 
L 186.2725 26.181649 
" clip-path="url(#p3e45bd1a04)" style="fill: none; stroke-dasharray: 1.85,0.8; stroke-dashoffset: 0; stroke: #00cd6c; stroke-width: 0.5"/>
   </g>
   <g id="line2d_17">
    <path d="M 157.098261 132.207375 
L 157.098261 10.239375 
" clip-path="url(#p3e45bd1a04)" style="fill: none; stroke-dasharray: 1.85,0.8; stroke-dashoffset: 0; stroke: #000000; stroke-width: 0.5"/>
   </g>
   <g id="line2d_18">
    <path d="M 30.0325 12.928433 
L 186.2725 12.928433 
" clip-path="url(#p3e45bd1a04)" style="fill: none; stroke-dasharray: 1.85,0.8; stroke-dashoffset: 0; stroke: #00cd6c; stroke-width: 0.5"/>
   </g>
   <g id="line2d_19">
    <path d="M 181.351591 132.207375 
L 181.351591 10.239375 
" clip-path="url(#p3e45bd1a04)" style="fill: none; stroke-dasharray: 1.85,0.8; stroke-dashoffset: 0; stroke: #000000; stroke-width: 0.5"/>
   </g>
   <g id="patch_2">
    <path d="M 30.0325 132.207375 
L 30.0325 10.239375 
" style="fill: none; stroke: #000000; stroke-width: 0.6; stroke-linejoin: miter; stroke-linecap: square"/>
   </g>
   <g id="patch_3">
    <path d="M 186.2725 132.207375 
L 186.2725 10.239375 
" style="fill: none; stroke: #000000; stroke-width: 0.6; stroke-linejoin: miter; stroke-linecap: square"/>
   </g>
   <g id="patch_4">
    <path d="M 30.0325 132.207375 
L 186.2725 132.207375 
" style="fill: none; stroke: #000000; stroke-width: 0.6; stroke-linejoin: miter; stroke-linecap: square"/>
   </g>
   <g id="line2d_20">
    <path d="M 30.184834 95.533732 
L 186.036513 10.368331 
L 186.036513 10.368331 
" clip-path="url(#p3e45bd1a04)" style="fill: none; stroke: #00cd6c; stroke-linecap: square"/>
   </g>
  </g>
  <g id="axes_2">
   <g id="patch_5">
    <path d="M 30.0325 132.207375 
L 186.2725 132.207375 
L 186.2725 10.239375 
L 30.0325 10.239375 
L 30.0325 132.207375 
z
" style="fill: none"/>
   </g>
   <g id="matplotlib.axis_2">
    <g id="xtick_1">
     <g id="line2d_21">
      <defs>
       <path id="m4cd371f86f" d="M 0 0 
L 0 2.5 
" style="stroke: #000000; stroke-width: 0.6"/>
      </defs>
      <g>
       <use xlink:href="#m4cd371f86f" x="30.0325" y="132.207375" style="stroke: #000000; stroke-width: 0.6"/>
      </g>
     </g>
     <g id="text_7">
      <!-- 0 -->
      <g transform="translate(27.4875 144.286125)scale(0.08 -0.08)">
       <use xlink:href="#DejaVuSans-30"/>
      </g>
     </g>
    </g>
    <g id="xtick_2">
     <g id="line2d_22">
      <g>
       <use xlink:href="#m4cd371f86f" x="61.2805" y="132.207375" style="stroke: #000000; stroke-width: 0.6"/>
      </g>
     </g>
     <g id="text_8">
      <!-- 2 -->
      <g transform="translate(58.7355 144.286125)scale(0.08 -0.08)">
       <use xlink:href="#DejaVuSans-32"/>
      </g>
     </g>
    </g>
    <g id="xtick_3">
     <g id="line2d_23">
      <g>
       <use xlink:href="#m4cd371f86f" x="92.5285" y="132.207375" style="stroke: #000000; stroke-width: 0.6"/>
      </g>
     </g>
     <g id="text_9">
      <!-- 4 -->
      <g transform="translate(89.9835 144.286125)scale(0.08 -0.08)">
       <defs>
        <path id="DejaVuSans-34" d="M 2419 4116 
L 825 1625 
L 2419 1625 
L 2419 4116 
z
M 2253 4666 
L 3047 4666 
L 3047 1625 
L 3713 1625 
L 3713 1100 
L 3047 1100 
L 3047 0 
L 2419 0 
L 2419 1100 
L 313 1100 
L 313 1709 
L 2253 4666 
z
" transform="scale(0.015625)"/>
       </defs>
       <use xlink:href="#DejaVuSans-34"/>
      </g>
     </g>
    </g>
    <g id="xtick_4">
     <g id="line2d_24">
      <g>
       <use xlink:href="#m4cd371f86f" x="123.7765" y="132.207375" style="stroke: #000000; stroke-width: 0.6"/>
      </g>
     </g>
     <g id="text_10">
      <!-- 6 -->
      <g transform="translate(121.2315 144.286125)scale(0.08 -0.08)">
       <defs>
        <path id="DejaVuSans-36" d="M 2113 2584 
Q 1688 2584 1439 2293 
Q 1191 2003 1191 1497 
Q 1191 994 1439 701 
Q 1688 409 2113 409 
Q 2538 409 2786 701 
Q 3034 994 3034 1497 
Q 3034 2003 2786 2293 
Q 2538 2584 2113 2584 
z
M 3366 4563 
L 3366 3988 
Q 3128 4100 2886 4159 
Q 2644 4219 2406 4219 
Q 1781 4219 1451 3797 
Q 1122 3375 1075 2522 
Q 1259 2794 1537 2939 
Q 1816 3084 2150 3084 
Q 2853 3084 3261 2657 
Q 3669 2231 3669 1497 
Q 3669 778 3244 343 
Q 2819 -91 2113 -91 
Q 1303 -91 875 529 
Q 447 1150 447 2328 
Q 447 3434 972 4092 
Q 1497 4750 2381 4750 
Q 2619 4750 2861 4703 
Q 3103 4656 3366 4563 
z
" transform="scale(0.015625)"/>
       </defs>
       <use xlink:href="#DejaVuSans-36"/>
      </g>
     </g>
    </g>
    <g id="xtick_5">
     <g id="line2d_25">
      <g>
       <use xlink:href="#m4cd371f86f" x="155.0245" y="132.207375" style="stroke: #000000; stroke-width: 0.6"/>
      </g>
     </g>
     <g id="text_11">
      <!-- 8 -->
      <g transform="translate(152.4795 144.286125)scale(0.08 -0.08)">
       <defs>
        <path id="DejaVuSans-38" d="M 2034 2216 
Q 1584 2216 1326 1975 
Q 1069 1734 1069 1313 
Q 1069 891 1326 650 
Q 1584 409 2034 409 
Q 2484 409 2743 651 
Q 3003 894 3003 1313 
Q 3003 1734 2745 1975 
Q 2488 2216 2034 2216 
z
M 1403 2484 
Q 997 2584 770 2862 
Q 544 3141 544 3541 
Q 544 4100 942 4425 
Q 1341 4750 2034 4750 
Q 2731 4750 3128 4425 
Q 3525 4100 3525 3541 
Q 3525 3141 3298 2862 
Q 3072 2584 2669 2484 
Q 3125 2378 3379 2068 
Q 3634 1759 3634 1313 
Q 3634 634 3220 271 
Q 2806 -91 2034 -91 
Q 1263 -91 848 271 
Q 434 634 434 1313 
Q 434 1759 690 2068 
Q 947 2378 1403 2484 
z
M 1172 3481 
Q 1172 3119 1398 2916 
Q 1625 2713 2034 2713 
Q 2441 2713 2670 2916 
Q 2900 3119 2900 3481 
Q 2900 3844 2670 4047 
Q 2441 4250 2034 4250 
Q 1625 4250 1398 4047 
Q 1172 3844 1172 3481 
z
" transform="scale(0.015625)"/>
       </defs>
       <use xlink:href="#DejaVuSans-38"/>
      </g>
     </g>
    </g>
    <g id="xtick_6">
     <g id="line2d_26">
      <g>
       <use xlink:href="#m4cd371f86f" x="186.2725" y="132.207375" style="stroke: #000000; stroke-width: 0.6"/>
      </g>
     </g>
     <g id="text_12">
      <!-- 10 -->
      <g transform="translate(181.1825 144.286125)scale(0.08 -0.08)">
       <use xlink:href="#DejaVuSans-31"/>
       <use xlink:href="#DejaVuSans-30" x="63.623047"/>
      </g>
     </g>
    </g>
    <g id="text_13">
     <!-- t [s] -->
     <g transform="translate(100.108125 156.028625)scale(0.08 -0.08)">
      <defs>
       <path id="DejaVuSans-74" d="M 1172 4494 
L 1172 3500 
L 2356 3500 
L 2356 3053 
L 1172 3053 
L 1172 1153 
Q 1172 725 1289 603 
Q 1406 481 1766 481 
L 2356 481 
L 2356 0 
L 1766 0 
Q 1100 0 847 248 
Q 594 497 594 1153 
L 594 3053 
L 172 3053 
L 172 3500 
L 594 3500 
L 594 4494 
L 1172 4494 
z
" transform="scale(0.015625)"/>
       <path id="DejaVuSans-73" d="M 2834 3397 
L 2834 2853 
Q 2591 2978 2328 3040 
Q 2066 3103 1784 3103 
Q 1356 3103 1142 2972 
Q 928 2841 928 2578 
Q 928 2378 1081 2264 
Q 1234 2150 1697 2047 
L 1894 2003 
Q 2506 1872 2764 1633 
Q 3022 1394 3022 966 
Q 3022 478 2636 193 
Q 2250 -91 1575 -91 
Q 1294 -91 989 -36 
Q 684 19 347 128 
L 347 722 
Q 666 556 975 473 
Q 1284 391 1588 391 
Q 1994 391 2212 530 
Q 2431 669 2431 922 
Q 2431 1156 2273 1281 
Q 2116 1406 1581 1522 
L 1381 1569 
Q 847 1681 609 1914 
Q 372 2147 372 2553 
Q 372 3047 722 3315 
Q 1072 3584 1716 3584 
Q 2034 3584 2315 3537 
Q 2597 3491 2834 3397 
z
" transform="scale(0.015625)"/>
      </defs>
      <use xlink:href="#DejaVuSans-74"/>
      <use xlink:href="#DejaVuSans-20" x="39.208984"/>
      <use xlink:href="#DejaVuSans-5b" x="70.996094"/>
      <use xlink:href="#DejaVuSans-73" x="110.009766"/>
      <use xlink:href="#DejaVuSans-5d" x="162.109375"/>
     </g>
    </g>
   </g>
   <g id="matplotlib.axis_3">
    <g id="ytick_6">
     <g id="line2d_27">
      <defs>
       <path id="m56f3a9ced1" d="M 0 0 
L -2.5 0 
" style="stroke: #000000; stroke-width: 0.6"/>
      </defs>
      <g>
       <use xlink:href="#m56f3a9ced1" x="30.0325" y="132.207375" style="stroke: #000000; stroke-width: 0.6"/>
      </g>
     </g>
     <g id="text_14">
      <!-- 0 -->
      <g transform="translate(18.9425 135.24675)scale(0.08 -0.08)">
       <use xlink:href="#DejaVuSans-30"/>
      </g>
     </g>
    </g>
    <g id="ytick_7">
     <g id="line2d_28">
      <g>
       <use xlink:href="#m56f3a9ced1" x="30.0325" y="101.715375" style="stroke: #000000; stroke-width: 0.6"/>
      </g>
     </g>
     <g id="text_15">
      <!-- 1 -->
      <g transform="translate(18.9425 104.75475)scale(0.08 -0.08)">
       <use xlink:href="#DejaVuSans-31"/>
      </g>
     </g>
    </g>
    <g id="ytick_8">
     <g id="line2d_29">
      <g>
       <use xlink:href="#m56f3a9ced1" x="30.0325" y="71.223375" style="stroke: #000000; stroke-width: 0.6"/>
      </g>
     </g>
     <g id="text_16">
      <!-- 2 -->
      <g transform="translate(18.9425 74.26275)scale(0.08 -0.08)">
       <use xlink:href="#DejaVuSans-32"/>
      </g>
     </g>
    </g>
    <g id="ytick_9">
     <g id="line2d_30">
      <g>
       <use xlink:href="#m56f3a9ced1" x="30.0325" y="40.731375" style="stroke: #000000; stroke-width: 0.6"/>
      </g>
     </g>
     <g id="text_17">
      <!-- 3 -->
      <g transform="translate(18.9425 43.77075)scale(0.08 -0.08)">
       <defs>
        <path id="DejaVuSans-33" d="M 2597 2516 
Q 3050 2419 3304 2112 
Q 3559 1806 3559 1356 
Q 3559 666 3084 287 
Q 2609 -91 1734 -91 
Q 1441 -91 1130 -33 
Q 819 25 488 141 
L 488 750 
Q 750 597 1062 519 
Q 1375 441 1716 441 
Q 2309 441 2620 675 
Q 2931 909 2931 1356 
Q 2931 1769 2642 2001 
Q 2353 2234 1838 2234 
L 1294 2234 
L 1294 2753 
L 1863 2753 
Q 2328 2753 2575 2939 
Q 2822 3125 2822 3475 
Q 2822 3834 2567 4026 
Q 2313 4219 1838 4219 
Q 1578 4219 1281 4162 
Q 984 4106 628 3988 
L 628 4550 
Q 988 4650 1302 4700 
Q 1616 4750 1894 4750 
Q 2613 4750 3031 4423 
Q 3450 4097 3450 3541 
Q 3450 3153 3228 2886 
Q 3006 2619 2597 2516 
z
" transform="scale(0.015625)"/>
       </defs>
       <use xlink:href="#DejaVuSans-33"/>
      </g>
     </g>
    </g>
    <g id="ytick_10">
     <g id="line2d_31">
      <g>
       <use xlink:href="#m56f3a9ced1" x="30.0325" y="10.239375" style="stroke: #000000; stroke-width: 0.6"/>
      </g>
     </g>
     <g id="text_18">
      <!-- 4 -->
      <g transform="translate(18.9425 13.27875)scale(0.08 -0.08)">
       <use xlink:href="#DejaVuSans-34"/>
      </g>
     </g>
    </g>
    <g id="text_19">
     <!-- energy (a.u.) -->
     <g style="fill: #ff1f5b" transform="translate(13.27875 97.083375)rotate(-90)scale(0.08 -0.08)">
      <defs>
       <path id="DejaVuSans-67" d="M 2906 1791 
Q 2906 2416 2648 2759 
Q 2391 3103 1925 3103 
Q 1463 3103 1205 2759 
Q 947 2416 947 1791 
Q 947 1169 1205 825 
Q 1463 481 1925 481 
Q 2391 481 2648 825 
Q 2906 1169 2906 1791 
z
M 3481 434 
Q 3481 -459 3084 -895 
Q 2688 -1331 1869 -1331 
Q 1566 -1331 1297 -1286 
Q 1028 -1241 775 -1147 
L 775 -588 
Q 1028 -725 1275 -790 
Q 1522 -856 1778 -856 
Q 2344 -856 2625 -561 
Q 2906 -266 2906 331 
L 2906 616 
Q 2728 306 2450 153 
Q 2172 0 1784 0 
Q 1141 0 747 490 
Q 353 981 353 1791 
Q 353 2603 747 3093 
Q 1141 3584 1784 3584 
Q 2172 3584 2450 3431 
Q 2728 3278 2906 2969 
L 2906 3500 
L 3481 3500 
L 3481 434 
z
" transform="scale(0.015625)"/>
       <path id="DejaVuSans-28" d="M 1984 4856 
Q 1566 4138 1362 3434 
Q 1159 2731 1159 2009 
Q 1159 1288 1364 580 
Q 1569 -128 1984 -844 
L 1484 -844 
Q 1016 -109 783 600 
Q 550 1309 550 2009 
Q 550 2706 781 3412 
Q 1013 4119 1484 4856 
L 1984 4856 
z
" transform="scale(0.015625)"/>
       <path id="DejaVuSans-61" d="M 2194 1759 
Q 1497 1759 1228 1600 
Q 959 1441 959 1056 
Q 959 750 1161 570 
Q 1363 391 1709 391 
Q 2188 391 2477 730 
Q 2766 1069 2766 1631 
L 2766 1759 
L 2194 1759 
z
M 3341 1997 
L 3341 0 
L 2766 0 
L 2766 531 
Q 2569 213 2275 61 
Q 1981 -91 1556 -91 
Q 1019 -91 701 211 
Q 384 513 384 1019 
Q 384 1609 779 1909 
Q 1175 2209 1959 2209 
L 2766 2209 
L 2766 2266 
Q 2766 2663 2505 2880 
Q 2244 3097 1772 3097 
Q 1472 3097 1187 3025 
Q 903 2953 641 2809 
L 641 3341 
Q 956 3463 1253 3523 
Q 1550 3584 1831 3584 
Q 2591 3584 2966 3190 
Q 3341 2797 3341 1997 
z
" transform="scale(0.015625)"/>
       <path id="DejaVuSans-2e" d="M 684 794 
L 1344 794 
L 1344 0 
L 684 0 
L 684 794 
z
" transform="scale(0.015625)"/>
       <path id="DejaVuSans-29" d="M 513 4856 
L 1013 4856 
Q 1481 4119 1714 3412 
Q 1947 2706 1947 2009 
Q 1947 1309 1714 600 
Q 1481 -109 1013 -844 
L 513 -844 
Q 928 -128 1133 580 
Q 1338 1288 1338 2009 
Q 1338 2731 1133 3434 
Q 928 4138 513 4856 
z
" transform="scale(0.015625)"/>
      </defs>
      <use xlink:href="#DejaVuSans-65"/>
      <use xlink:href="#DejaVuSans-6e" x="61.523438"/>
      <use xlink:href="#DejaVuSans-65" x="124.902344"/>
      <use xlink:href="#DejaVuSans-72" x="186.425781"/>
      <use xlink:href="#DejaVuSans-67" x="225.789062"/>
      <use xlink:href="#DejaVuSans-79" x="289.265625"/>
      <use xlink:href="#DejaVuSans-20" x="348.445312"/>
      <use xlink:href="#DejaVuSans-28" x="380.232422"/>
      <use xlink:href="#DejaVuSans-61" x="419.246094"/>
      <use xlink:href="#DejaVuSans-2e" x="480.525391"/>
      <use xlink:href="#DejaVuSans-75" x="512.3125"/>
      <use xlink:href="#DejaVuSans-2e" x="575.691406"/>
      <use xlink:href="#DejaVuSans-29" x="607.478516"/>
     </g>
    </g>
   </g>
   <g id="patch_6">
    <path d="M 30.0325 132.207375 
L 30.0325 10.239375 
" style="fill: none; stroke: #000000; stroke-width: 0.6; stroke-linejoin: miter; stroke-linecap: square"/>
   </g>
   <g id="patch_7">
    <path d="M 30.0325 132.207375 
L 186.2725 132.207375 
" style="fill: none; stroke: #000000; stroke-width: 0.6; stroke-linejoin: miter; stroke-linecap: square"/>
   </g>
   <g id="line2d_32">
    <path d="M 30.184834 131.364473 
L 30.489828 129.625995 
L 30.794821 131.317913 
L 31.099815 131.341878 
L 31.404808 129.839987 
L 31.709802 131.67321 
L 32.014795 130.605561 
L 32.319789 130.604456 
L 32.624782 131.449046 
L 32.929776 130.131185 
L 33.234769 131.861617 
L 33.539763 130.258829 
L 33.844756 131.522459 
L 34.14975 130.851032 
L 34.454743 130.982244 
L 34.759737 130.790378 
L 35.06473 131.319658 
L 35.369724 130.857809 
L 35.674717 131.195018 
L 35.979711 130.823042 
L 36.284704 131.262285 
L 36.589697 130.630295 
L 36.894691 131.68207 
L 37.199685 130.440359 
L 37.504678 131.174857 
L 38.419659 131.050443 
L 38.724652 130.506499 
L 39.029646 131.379413 
L 39.334639 131.144875 
L 39.639633 130.539753 
L 39.944626 130.913147 
L 40.554613 130.505653 
L 40.859607 130.966018 
L 41.1646 131.166088 
L 41.469594 130.272392 
L 41.774587 129.993617 
L 42.079581 130.247727 
L 42.384574 129.458895 
L 42.689568 129.044136 
L 42.994561 129.088115 
L 43.299555 129.28731 
L 44.214535 126.517719 
L 44.519529 124.891438 
L 44.824522 121.351689 
L 45.129516 119.510024 
L 45.434509 114.811151 
L 45.739503 106.232938 
L 46.044496 103.215031 
L 46.654483 81.581744 
L 46.959477 76.387583 
L 47.26447 60.592789 
L 47.569464 68.993184 
L 47.874457 60.724007 
L 48.179451 75.911168 
L 48.484444 84.813534 
L 48.789438 88.923623 
L 49.094431 95.768169 
L 49.704418 74.153567 
L 50.009411 75.539033 
L 50.314405 74.966799 
L 50.619399 91.751604 
L 50.924392 86.922863 
L 51.229386 77.538185 
L 51.534379 78.569877 
L 51.839373 77.979113 
L 52.144366 91.363864 
L 52.754353 74.078671 
L 53.059347 87.198457 
L 53.36434 82.624339 
L 53.974327 79.517434 
L 54.279321 84.363034 
L 54.584314 84.159448 
L 54.889308 75.618843 
L 55.194301 88.017538 
L 55.499295 79.917782 
L 55.804288 78.941832 
L 56.109282 88.759744 
L 56.414275 74.692711 
L 56.719269 86.155491 
L 57.329256 78.78096 
L 57.634249 86.972267 
L 57.939243 77.065318 
L 58.244236 84.695715 
L 58.54923 81.901411 
L 58.854223 80.302198 
L 59.159217 84.020576 
L 59.46421 82.018471 
L 59.769204 79.246771 
L 60.074197 87.176793 
L 60.379191 75.885499 
L 60.684184 86.928323 
L 60.989178 79.709494 
L 61.294171 80.647311 
L 61.599165 86.409561 
L 61.904158 76.0916 
L 62.209152 86.970156 
L 62.514145 80.062251 
L 62.819139 80.033409 
L 63.124132 86.884717 
L 63.429126 76.494489 
L 63.734119 85.179834 
L 64.039113 82.620518 
L 64.344106 78.02752 
L 64.6491 86.815757 
L 64.954093 78.382279 
L 65.259086 82.73787 
L 65.56408 82.647556 
L 65.869074 79.006516 
L 66.174067 85.8646 
L 66.479061 77.565504 
L 66.784054 82.614373 
L 67.089047 83.912443 
L 67.394041 77.197511 
L 67.699035 84.16578 
L 68.004028 77.172395 
L 68.309022 80.41327 
L 68.614015 82.134695 
L 68.919009 73.696954 
L 69.224002 80.411104 
L 69.528996 72.505222 
L 69.833989 71.490962 
L 70.138983 72.896659 
L 70.443976 61.593299 
L 70.74897 65.03074 
L 71.053963 55.529066 
L 71.358957 50.790975 
L 71.66395 53.907007 
L 71.968944 46.185768 
L 72.273937 56.183789 
L 72.578931 57.489776 
L 72.883924 59.472669 
L 73.188918 68.202348 
L 73.493911 58.438419 
L 73.798905 59.923671 
L 74.103898 54.723575 
L 74.408892 51.988362 
L 74.713885 63.828222 
L 75.018878 58.66466 
L 75.323872 60.986656 
L 75.933859 53.38688 
L 76.238853 65.643345 
L 76.543846 57.527381 
L 76.84884 57.362954 
L 77.153833 59.370735 
L 77.458827 57.013707 
L 77.76382 62.833288 
L 78.068814 53.898284 
L 78.373807 59.432296 
L 78.678801 62.293928 
L 78.983794 52.470304 
L 79.288788 64.255806 
L 79.593781 58.297687 
L 79.898775 56.193305 
L 80.203768 63.871364 
L 80.508762 53.676211 
L 80.813755 61.673817 
L 81.118749 58.790754 
L 81.423742 54.702914 
L 81.728735 63.845765 
L 82.033729 53.593373 
L 82.338723 62.408119 
L 82.643716 58.217577 
L 82.94871 57.11973 
L 83.253703 63.17986 
L 83.558697 55.06076 
L 83.86369 60.714188 
L 84.168684 59.680059 
L 84.473677 54.661073 
L 84.778671 63.542265 
L 85.083664 53.812362 
L 85.388658 60.976011 
L 85.693651 59.72788 
L 85.998645 55.697689 
L 86.303638 63.498656 
L 86.608632 55.843678 
L 86.913625 59.835812 
L 87.218619 60.576007 
L 87.523612 55.056097 
L 87.828606 62.313887 
L 88.133599 55.944505 
L 88.438592 57.848787 
L 88.743586 62.200178 
L 89.04858 53.684244 
L 89.353573 62.868356 
L 89.658567 58.023427 
L 89.96356 56.97855 
L 90.268554 62.706523 
L 90.573547 54.409231 
L 90.878541 61.660979 
L 91.183534 57.283803 
L 91.488528 55.37377 
L 91.793521 62.25796 
L 92.098515 53.693133 
L 92.403508 60.295983 
L 92.708502 57.911647 
L 93.013495 53.853163 
L 93.318489 61.087557 
L 93.623482 52.073922 
L 93.928476 55.611264 
L 94.233469 53.827813 
L 94.538462 46.942308 
L 94.843456 51.852257 
L 95.14845 41.806612 
L 95.453443 44.254351 
L 95.758437 44.392312 
L 96.06343 37.323773 
L 96.368424 45.96961 
L 96.673417 41.412165 
L 97.283404 51.903792 
L 97.588397 44.077561 
L 97.893391 49.548371 
L 98.198385 41.774695 
L 98.503378 42.394645 
L 98.808372 48.575751 
L 99.113365 42.819919 
L 99.418358 50.753478 
L 99.723352 44.537262 
L 100.028346 42.921629 
L 100.333339 50.626988 
L 100.638333 43.02869 
L 100.943326 48.042351 
L 101.24832 44.486802 
L 101.553313 43.74165 
L 101.858307 50.396207 
L 102.1633 40.130333 
L 102.468294 47.508708 
L 102.773287 48.430877 
L 103.078281 42.369699 
L 103.383274 50.047257 
L 103.688268 43.274637 
L 103.993261 46.340012 
L 104.298255 48.180219 
L 104.603248 42.472404 
L 104.908242 48.475872 
L 105.213235 42.886347 
L 105.823222 48.700544 
L 106.128215 41.710328 
L 106.433209 49.671973 
L 106.738202 44.508741 
L 107.043196 45.292723 
L 107.34819 49.890968 
L 107.653183 41.026467 
L 107.958177 49.397281 
L 108.26317 43.721384 
L 108.568163 45.018859 
L 108.873157 48.554406 
L 109.178151 41.412795 
L 109.483144 48.944082 
L 109.788138 45.563575 
L 110.093131 44.634367 
L 110.398125 49.82987 
L 110.703118 42.032615 
L 111.008112 47.933409 
L 111.313105 46.478427 
L 111.618099 42.98037 
L 111.923092 49.077829 
L 112.228086 41.481961 
L 112.533079 47.871849 
L 112.838073 46.851678 
L 113.143066 42.799505 
L 113.44806 50.266885 
L 113.753053 42.681655 
L 114.058047 46.901696 
L 114.36304 48.379148 
L 114.668034 41.572386 
L 114.973027 48.877824 
L 115.278021 42.739354 
L 115.888008 48.292311 
L 116.193001 40.555181 
L 116.497995 49.171342 
L 116.802988 43.695638 
L 117.107982 44.739537 
L 117.412975 48.014894 
L 117.717969 39.43588 
L 118.022962 46.247537 
L 118.327956 41.037291 
L 118.632949 39.477463 
L 118.937943 42.955125 
L 119.242936 33.622377 
L 119.54793 39.311769 
L 119.852923 36.254438 
L 120.157917 32.063832 
L 120.46291 39.47069 
L 120.767903 31.448295 
L 121.072897 39.95139 
L 121.377891 39.611929 
L 121.682884 36.260011 
L 121.987878 41.917056 
L 122.292871 32.92611 
L 122.597865 37.504652 
L 122.902858 38.397526 
L 123.207852 34.210402 
L 123.512845 43.294696 
L 123.817839 35.2887 
L 124.427825 39.74492 
L 124.732819 33.966093 
L 125.037813 41.841377 
L 125.342806 33.95415 
L 125.952793 40.750787 
L 126.257786 32.917115 
L 126.56278 40.607753 
L 126.867774 37.517911 
L 127.172767 36.634442 
L 127.477761 41.078413 
L 127.782754 33.494641 
L 128.087748 41.077668 
L 128.392741 36.228679 
L 128.697735 36.087562 
L 129.002728 40.115418 
L 129.307722 33.194812 
L 129.612715 40.439826 
L 130.222702 35.301918 
L 130.527696 41.685381 
L 130.832689 34.346238 
L 131.137683 39.569121 
L 131.442676 39.275954 
L 131.74767 33.402084 
L 132.052663 41.64174 
L 132.357657 33.496471 
L 132.66265 39.123942 
L 132.967644 38.824627 
L 133.272637 33.982037 
L 133.577631 41.42576 
L 133.882624 36.146785 
L 134.187618 37.692401 
L 134.492611 40.880874 
L 134.797605 32.849869 
L 135.102598 41.372682 
L 135.407591 35.491767 
L 135.712585 36.941046 
L 136.017579 39.883912 
L 136.322572 32.997668 
L 136.627566 41.092718 
L 136.932559 37.054896 
L 137.237553 36.377132 
L 137.542546 41.443851 
L 137.84754 33.133401 
L 138.152533 41.100992 
L 138.76252 34.671207 
L 139.067514 40.800221 
L 139.372507 32.954541 
L 139.677501 40.129845 
L 140.287487 34.345951 
L 140.592481 41.521649 
L 140.897475 34.202399 
L 141.202468 38.735411 
L 141.507462 38.49498 
L 141.812455 31.915521 
L 142.117449 40.178913 
L 142.422442 31.7688 
L 142.727436 35.550538 
L 143.032429 35.275251 
L 143.337423 28.316512 
L 143.642416 35.940401 
L 143.94741 29.048356 
L 144.252403 29.977076 
L 144.557397 32.786988 
L 144.86239 25.799527 
L 145.167384 35.275914 
L 145.472377 30.869021 
L 145.777371 31.643334 
L 146.082364 35.590247 
L 146.387358 26.822299 
L 146.692351 34.713056 
L 146.997345 30.372654 
L 147.302338 30.275061 
L 147.607332 36.603331 
L 147.912325 28.575822 
L 148.217319 34.181503 
L 148.827306 28.945658 
L 149.132299 36.374797 
L 149.437293 26.921528 
L 149.742286 33.72638 
L 150.04728 32.716873 
L 150.352273 28.691286 
L 150.657267 35.805694 
L 150.96226 29.584408 
L 151.267254 33.663652 
L 151.572247 33.275317 
L 151.877241 27.62224 
L 152.182234 36.394187 
L 152.487228 28.534968 
L 152.792221 32.384301 
L 153.097215 33.624601 
L 153.402208 26.846256 
L 153.707202 36.669624 
L 154.012195 30.019933 
L 154.317189 31.9647 
L 154.622182 34.799159 
L 154.927176 27.960464 
L 155.232169 35.49404 
L 155.537162 30.723335 
L 155.842156 29.873621 
L 156.14715 35.035353 
L 156.452143 26.927361 
L 156.757137 35.482413 
L 157.06213 31.114665 
L 157.367123 29.764304 
L 157.672117 35.974359 
L 157.977111 28.803461 
L 158.282104 34.361371 
L 158.587098 32.647698 
L 158.892091 28.024721 
L 159.197085 35.991109 
L 159.502078 27.899592 
L 159.807072 33.569822 
L 160.112065 32.62735 
L 160.417059 27.798296 
L 160.722052 36.506887 
L 161.027046 29.492127 
L 161.332039 33.09125 
L 161.637033 33.7703 
L 161.942026 27.944323 
L 162.247019 35.89648 
L 162.552013 29.278531 
L 162.857007 31.153684 
L 163.162 34.314172 
L 163.466994 26.750313 
L 163.771987 36.261061 
L 164.076981 29.879192 
L 164.381974 31.103542 
L 164.686968 34.922178 
L 164.991961 28.026068 
L 165.296955 34.891076 
L 165.601948 30.402911 
L 165.906942 28.43532 
L 166.211935 34.249424 
L 166.516929 25.766402 
L 166.821922 33.069496 
L 167.431909 25.6638 
L 167.736903 32.212539 
L 168.041896 23.798857 
L 168.34689 29.110442 
L 168.651883 26.821169 
L 168.956877 22.829799 
L 169.26187 30.922383 
L 169.566864 24.323898 
L 169.871857 29.390714 
L 170.176851 29.832111 
L 170.481844 23.550135 
L 170.786838 32.136313 
L 171.091831 24.230904 
L 171.396825 28.253595 
L 171.701818 30.353879 
L 172.006811 24.57481 
L 172.311805 31.576111 
L 172.616799 24.974292 
L 172.921792 26.357593 
L 173.226786 30.761373 
L 173.531779 22.852185 
L 173.836772 31.568614 
L 174.141766 26.306625 
L 174.44676 26.580736 
L 174.751753 31.099142 
L 175.056747 24.007051 
L 175.36174 31.769998 
L 175.666734 26.68412 
L 175.971727 24.937843 
L 176.276721 31.421427 
L 176.581714 23.160712 
L 176.886708 30.128948 
L 177.191701 27.928528 
L 177.496694 24.118109 
L 177.801688 32.879906 
L 178.106682 24.02549 
L 178.411675 30.05157 
L 178.716668 28.491647 
L 179.021662 24.451818 
L 179.326656 32.039298 
L 179.631649 24.362748 
L 179.936642 27.887969 
L 180.241636 28.912584 
L 180.54663 23.417762 
L 180.851623 32.556911 
L 181.156617 25.316604 
L 181.766604 30.381093 
L 182.071597 24.121704 
L 182.376591 31.906677 
L 182.681584 25.654886 
L 182.986578 26.100152 
L 183.291571 30.386772 
L 183.596564 23.159122 
L 183.901558 31.336769 
L 184.206552 26.680781 
L 184.511545 25.459481 
L 184.816539 32.110221 
L 185.121532 23.838518 
L 185.426525 31.120129 
L 185.731519 26.969283 
L 186.036513 25.378853 
L 186.036513 25.378853 
" clip-path="url(#p3e45bd1a04)" style="fill: none; stroke: #ff1f5b; stroke-linecap: square"/>
   </g>
  </g>
 </g>
 <defs>
  <clipPath id="p3e45bd1a04">
   <rect x="30.0325" y="10.239375" width="156.24" height="121.968"/>
  </clipPath>
 </defs>
</svg>
