<?xml version="1.0" encoding="utf-8" standalone="no"?>
<!DOCTYPE svg PUBLIC "-//W3C//DTD SVG 1.1//EN"
  "http://www.w3.org/Graphics/SVG/1.1/DTD/svg11.dtd">
<svg xmlns:xlink="http://www.w3.org/1999/xlink" width="119.02pt" height="111.957pt" viewBox="0 0 119.02 111.957" xmlns="http://www.w3.org/2000/svg" version="1.1">
 <metadata>
  <rdf:RDF xmlns:dc="http://purl.org/dc/elements/1.1/" xmlns:cc="http://creativecommons.org/ns#" xmlns:rdf="http://www.w3.org/1999/02/22-rdf-syntax-ns#">
   <cc:Work>
    <dc:type rdf:resource="http://purl.org/dc/dcmitype/StillImage"/>
    <dc:format>image/svg+xml</dc:format>
    <dc:creator>
     <cc:Agent>
      <dc:title>Matplotlib v3.5.2, https://matplotlib.org/</dc:title>
     </cc:Agent>
    </dc:creator>
   </cc:Work>
  </rdf:RDF>
 </metadata>
 <defs>
  <style type="text/css">*{stroke-linejoin: round; stroke-linecap: butt}</style>
 </defs>
 <g id="figure_1">
  <g id="patch_1">
   <path d="M 0 111.957 
L 119.02 111.957 
L 119.02 0 
L 0 0 
L 0 111.957 
z
" style="fill: none"/>
  </g>
  <g id="axes_1">
   <g id="patch_2">
    <path d="M 32.91875 79.272 
L 105.45875 79.272 
L 105.45875 7.2 
L 32.91875 7.2 
L 32.91875 79.272 
z
" style="fill: none"/>
   </g>
   <g id="matplotlib.axis_1">
    <g id="xtick_1">
     <g id="line2d_1">
      <defs>
       <path id="m4cd371f86f" d="M 0 0 
L 0 2.5 
" style="stroke: #000000; stroke-width: 0.6"/>
      </defs>
      <g>
       <use xlink:href="#m4cd371f86f" x="32.91875" y="79.272" style="stroke: #000000; stroke-width: 0.6"/>
      </g>
     </g>
     <g id="text_1">
      <!-- 0.0 -->
      <g transform="translate(26.5575 91.35075)scale(0.08 -0.08)">
       <defs>
        <path id="DejaVuSans-30" d="M 2034 4250 
Q 1547 4250 1301 3770 
Q 1056 3291 1056 2328 
Q 1056 1369 1301 889 
Q 1547 409 2034 409 
Q 2525 409 2770 889 
Q 3016 1369 3016 2328 
Q 3016 3291 2770 3770 
Q 2525 4250 2034 4250 
z
M 2034 4750 
Q 2819 4750 3233 4129 
Q 3647 3509 3647 2328 
Q 3647 1150 3233 529 
Q 2819 -91 2034 -91 
Q 1250 -91 836 529 
Q 422 1150 422 2328 
Q 422 3509 836 4129 
Q 1250 4750 2034 4750 
z
" transform="scale(0.015625)"/>
        <path id="DejaVuSans-2e" d="M 684 794 
L 1344 794 
L 1344 0 
L 684 0 
L 684 794 
z
" transform="scale(0.015625)"/>
       </defs>
       <use xlink:href="#DejaVuSans-30"/>
       <use xlink:href="#DejaVuSans-2e" x="63.623047"/>
       <use xlink:href="#DejaVuSans-30" x="95.410156"/>
      </g>
     </g>
    </g>
    <g id="xtick_2">
     <g id="line2d_2">
      <g>
       <use xlink:href="#m4cd371f86f" x="69.18875" y="79.272" style="stroke: #000000; stroke-width: 0.6"/>
      </g>
     </g>
     <g id="text_2">
      <!-- 0.5 -->
      <g transform="translate(62.8275 91.35075)scale(0.08 -0.08)">
       <defs>
        <path id="DejaVuSans-35" d="M 691 4666 
L 3169 4666 
L 3169 4134 
L 1269 4134 
L 1269 2991 
Q 1406 3038 1543 3061 
Q 1681 3084 1819 3084 
Q 2600 3084 3056 2656 
Q 3513 2228 3513 1497 
Q 3513 744 3044 326 
Q 2575 -91 1722 -91 
Q 1428 -91 1123 -41 
Q 819 9 494 109 
L 494 744 
Q 775 591 1075 516 
Q 1375 441 1709 441 
Q 2250 441 2565 725 
Q 2881 1009 2881 1497 
Q 2881 1984 2565 2268 
Q 2250 2553 1709 2553 
Q 1456 2553 1204 2497 
Q 953 2441 691 2322 
L 691 4666 
z
" transform="scale(0.015625)"/>
       </defs>
       <use xlink:href="#DejaVuSans-30"/>
       <use xlink:href="#DejaVuSans-2e" x="63.623047"/>
       <use xlink:href="#DejaVuSans-35" x="95.410156"/>
      </g>
     </g>
    </g>
    <g id="xtick_3">
     <g id="line2d_3">
      <g>
       <use xlink:href="#m4cd371f86f" x="105.45875" y="79.272" style="stroke: #000000; stroke-width: 0.6"/>
      </g>
     </g>
     <g id="text_3">
      <!-- 1.0 -->
      <g transform="translate(99.0975 91.35075)scale(0.08 -0.08)">
       <defs>
        <path id="DejaVuSans-31" d="M 794 531 
L 1825 531 
L 1825 4091 
L 703 3866 
L 703 4441 
L 1819 4666 
L 2450 4666 
L 2450 531 
L 3481 531 
L 3481 0 
L 794 0 
L 794 531 
z
" transform="scale(0.015625)"/>
       </defs>
       <use xlink:href="#DejaVuSans-31"/>
       <use xlink:href="#DejaVuSans-2e" x="63.623047"/>
       <use xlink:href="#DejaVuSans-30" x="95.410156"/>
      </g>
     </g>
    </g>
    <g id="text_4">
     <!-- $x$ -->
     <g transform="translate(66.78875 103.09325)scale(0.08 -0.08)">
      <defs>
       <path id="DejaVuSans-Oblique-78" d="M 3841 3500 
L 2234 1784 
L 3219 0 
L 2559 0 
L 1819 1388 
L 531 0 
L -166 0 
L 1556 1844 
L 641 3500 
L 1300 3500 
L 1972 2234 
L 3144 3500 
L 3841 3500 
z
" transform="scale(0.015625)"/>
      </defs>
      <use xlink:href="#DejaVuSans-Oblique-78" transform="translate(0 0.3125)"/>
     </g>
    </g>
   </g>
   <g id="matplotlib.axis_2">
    <g id="ytick_1">
     <g id="line2d_4">
      <defs>
       <path id="m56f3a9ced1" d="M 0 0 
L -2.5 0 
" style="stroke: #000000; stroke-width: 0.6"/>
      </defs>
      <g>
       <use xlink:href="#m56f3a9ced1" x="32.91875" y="75.996" style="stroke: #000000; stroke-width: 0.6"/>
      </g>
     </g>
     <g id="text_5">
      <!-- -1 -->
      <g transform="translate(18.9425 79.035375)scale(0.08 -0.08)">
       <defs>
        <path id="DejaVuSans-2d" d="M 313 2009 
L 1997 2009 
L 1997 1497 
L 313 1497 
L 313 2009 
z
" transform="scale(0.015625)"/>
       </defs>
       <use xlink:href="#DejaVuSans-2d"/>
       <use xlink:href="#DejaVuSans-31" x="36.083984"/>
      </g>
     </g>
    </g>
    <g id="ytick_2">
     <g id="line2d_5">
      <g>
       <use xlink:href="#m56f3a9ced1" x="32.91875" y="43.236" style="stroke: #000000; stroke-width: 0.6"/>
      </g>
     </g>
     <g id="text_6">
      <!-- 0 -->
      <g transform="translate(21.82875 46.275375)scale(0.08 -0.08)">
       <use xlink:href="#DejaVuSans-30"/>
      </g>
     </g>
    </g>
    <g id="ytick_3">
     <g id="line2d_6">
      <g>
       <use xlink:href="#m56f3a9ced1" x="32.91875" y="10.476" style="stroke: #000000; stroke-width: 0.6"/>
      </g>
     </g>
     <g id="text_7">
      <!-- 1 -->
      <g transform="translate(21.82875 13.515375)scale(0.08 -0.08)">
       <use xlink:href="#DejaVuSans-31"/>
      </g>
     </g>
    </g>
    <g id="text_8">
     <!-- $u$ -->
     <g transform="translate(13.27875 45.796)rotate(-90)scale(0.08 -0.08)">
      <defs>
       <path id="DejaVuSans-Oblique-75" d="M 428 1388 
L 838 3500 
L 1416 3500 
L 1006 1409 
Q 975 1256 961 1147 
Q 947 1038 947 966 
Q 947 700 1109 554 
Q 1272 409 1569 409 
Q 2031 409 2368 721 
Q 2706 1034 2809 1563 
L 3194 3500 
L 3769 3500 
L 3091 0 
L 2516 0 
L 2631 550 
Q 2388 244 2052 76 
Q 1716 -91 1338 -91 
Q 878 -91 622 161 
Q 366 413 366 863 
Q 366 956 381 1097 
Q 397 1238 428 1388 
z
" transform="scale(0.015625)"/>
      </defs>
      <use xlink:href="#DejaVuSans-Oblique-75" transform="translate(0 0.3125)"/>
     </g>
    </g>
   </g>
   <g id="line2d_7">
    <path d="M 32.91875 43.236 
L 36.262277 29.448168 
L 38.006726 23.122959 
L 39.460433 18.62557 
L 40.623399 15.65122 
L 41.640994 13.562328 
L 42.513219 12.182943 
L 43.385443 11.201925 
L 44.112297 10.697955 
L 44.839151 10.483953 
L 45.420634 10.522897 
L 46.002117 10.748469 
L 46.72897 11.290818 
L 47.455824 12.117852 
L 48.328049 13.475523 
L 49.345644 15.540509 
L 50.50861 18.489927 
L 51.816946 22.478197 
L 53.416025 28.152328 
L 55.451215 36.276942 
L 61.411415 60.646656 
L 63.010493 65.996305 
L 64.31883 69.654278 
L 65.481796 72.269303 
L 66.499391 74.016409 
L 67.371616 75.087224 
L 68.098469 75.667866 
L 68.825323 75.959486 
L 69.406806 75.982854 
L 69.988289 75.8194 
L 70.715143 75.353889 
L 71.441996 74.602155 
L 72.314221 73.331867 
L 73.331816 71.363315 
L 74.349411 68.903818 
L 75.657748 65.090219 
L 77.111455 60.11945 
L 79.001275 52.788891 
L 82.635544 37.490873 
L 85.106846 27.605789 
L 86.851295 21.535863 
L 88.159632 17.696849 
L 89.322598 14.899445 
L 90.340193 12.979582 
L 91.212417 11.753292 
L 91.939271 11.039388 
L 92.666125 10.61241 
L 93.392978 10.476162 
L 93.974461 10.577393 
L 94.701315 10.965771 
L 95.428169 11.64173 
L 96.300393 12.823828 
L 97.172618 14.396072 
L 98.190213 16.696281 
L 99.353179 19.8896 
L 100.806886 24.619671 
L 102.551335 31.153231 
L 105.022638 41.380746 
L 105.45875 43.236 
L 105.45875 43.236 
" clip-path="url(#p57dd54592a)" style="fill: none; stroke: #ff1f5b; stroke-linecap: square"/>
   </g>
   <g id="patch_3">
    <path d="M 32.91875 79.272 
L 32.91875 7.2 
" style="fill: none; stroke: #000000; stroke-width: 0.6; stroke-linejoin: miter; stroke-linecap: square"/>
   </g>
   <g id="patch_4">
    <path d="M 32.91875 79.272 
L 105.45875 79.272 
" style="fill: none; stroke: #000000; stroke-width: 0.6; stroke-linejoin: miter; stroke-linecap: square"/>
   </g>
   <g id="PathCollection_1">
    <defs>
     <path id="mfc9ce253cb" d="M 0 1 
C 0.265203 1 0.51958 0.894634 0.707107 0.707107 
C 0.894634 0.51958 1 0.265203 1 0 
C 1 -0.265203 0.894634 -0.51958 0.707107 -0.707107 
C 0.51958 -0.894634 0.265203 -1 0 -1 
C -0.265203 -1 -0.51958 -0.894634 -0.707107 -0.707107 
C -0.894634 -0.51958 -1 -0.265203 -1 0 
C -1 0.265203 -0.894634 0.51958 -0.707107 0.707107 
C -0.51958 0.894634 -0.265203 1 0 1 
z
" style="stroke: #000000"/>
    </defs>
    <g>
     <use xlink:href="#mfc9ce253cb" x="32.91875" y="43.236" style="stroke: #000000"/>
     <use xlink:href="#mfc9ce253cb" x="105.45875" y="43.236" style="stroke: #000000"/>
    </g>
   </g>
  </g>
 </g>
 <defs>
  <clipPath id="p57dd54592a">
   <rect x="32.91875" y="7.2" width="72.54" height="72.072"/>
  </clipPath>
 </defs>
</svg>
