<?xml version="1.0" encoding="utf-8" standalone="no"?>
<!DOCTYPE svg PUBLIC "-//W3C//DTD SVG 1.1//EN"
  "http://www.w3.org/Graphics/SVG/1.1/DTD/svg11.dtd">
<svg xmlns:xlink="http://www.w3.org/1999/xlink" width="280.9395pt" height="164.892375pt" viewBox="0 0 280.9395 164.892375" xmlns="http://www.w3.org/2000/svg" version="1.1">
 <metadata>
  <rdf:RDF xmlns:dc="http://purl.org/dc/elements/1.1/" xmlns:cc="http://creativecommons.org/ns#" xmlns:rdf="http://www.w3.org/1999/02/22-rdf-syntax-ns#">
   <cc:Work>
    <dc:type rdf:resource="http://purl.org/dc/dcmitype/StillImage"/>
    <dc:format>image/svg+xml</dc:format>
    <dc:creator>
     <cc:Agent>
      <dc:title>Matplotlib v3.5.2, https://matplotlib.org/</dc:title>
     </cc:Agent>
    </dc:creator>
   </cc:Work>
  </rdf:RDF>
 </metadata>
 <defs>
  <style type="text/css">*{stroke-linejoin: round; stroke-linecap: butt}</style>
 </defs>
 <g id="figure_1">
  <g id="patch_1">
   <path d="M 0 164.892375 
L 280.9395 164.892375 
L 280.9395 -0 
L 0 -0 
L 0 164.892375 
z
" style="fill: none"/>
  </g>
  <g id="axes_1">
   <g id="patch_2">
    <path d="M 47.2625 132.207375 
L 203.5025 132.207375 
L 203.5025 10.239375 
L 47.2625 10.239375 
L 47.2625 132.207375 
z
" style="fill: none"/>
   </g>
   <g id="matplotlib.axis_1">
    <g id="xtick_1">
     <g id="line2d_1">
      <defs>
       <path id="m4cd371f86f" d="M 0 0 
L 0 2.5 
" style="stroke: #000000; stroke-width: 0.6"/>
      </defs>
      <g>
       <use xlink:href="#m4cd371f86f" x="47.2625" y="132.207375" style="stroke: #000000; stroke-width: 0.6"/>
      </g>
     </g>
     <g id="text_1">
      <!-- 0 -->
      <g transform="translate(44.7175 144.286125)scale(0.08 -0.08)">
       <defs>
        <path id="DejaVuSans-30" d="M 2034 4250 
Q 1547 4250 1301 3770 
Q 1056 3291 1056 2328 
Q 1056 1369 1301 889 
Q 1547 409 2034 409 
Q 2525 409 2770 889 
Q 3016 1369 3016 2328 
Q 3016 3291 2770 3770 
Q 2525 4250 2034 4250 
z
M 2034 4750 
Q 2819 4750 3233 4129 
Q 3647 3509 3647 2328 
Q 3647 1150 3233 529 
Q 2819 -91 2034 -91 
Q 1250 -91 836 529 
Q 422 1150 422 2328 
Q 422 3509 836 4129 
Q 1250 4750 2034 4750 
z
" transform="scale(0.015625)"/>
       </defs>
       <use xlink:href="#DejaVuSans-30"/>
      </g>
     </g>
    </g>
    <g id="xtick_2">
     <g id="line2d_2">
      <g>
       <use xlink:href="#m4cd371f86f" x="78.5105" y="132.207375" style="stroke: #000000; stroke-width: 0.6"/>
      </g>
     </g>
     <g id="text_2">
      <!-- 10 -->
      <g transform="translate(73.4205 144.286125)scale(0.08 -0.08)">
       <defs>
        <path id="DejaVuSans-31" d="M 794 531 
L 1825 531 
L 1825 4091 
L 703 3866 
L 703 4441 
L 1819 4666 
L 2450 4666 
L 2450 531 
L 3481 531 
L 3481 0 
L 794 0 
L 794 531 
z
" transform="scale(0.015625)"/>
       </defs>
       <use xlink:href="#DejaVuSans-31"/>
       <use xlink:href="#DejaVuSans-30" x="63.623047"/>
      </g>
     </g>
    </g>
    <g id="xtick_3">
     <g id="line2d_3">
      <g>
       <use xlink:href="#m4cd371f86f" x="109.7585" y="132.207375" style="stroke: #000000; stroke-width: 0.6"/>
      </g>
     </g>
     <g id="text_3">
      <!-- 20 -->
      <g transform="translate(104.6685 144.286125)scale(0.08 -0.08)">
       <defs>
        <path id="DejaVuSans-32" d="M 1228 531 
L 3431 531 
L 3431 0 
L 469 0 
L 469 531 
Q 828 903 1448 1529 
Q 2069 2156 2228 2338 
Q 2531 2678 2651 2914 
Q 2772 3150 2772 3378 
Q 2772 3750 2511 3984 
Q 2250 4219 1831 4219 
Q 1534 4219 1204 4116 
Q 875 4013 500 3803 
L 500 4441 
Q 881 4594 1212 4672 
Q 1544 4750 1819 4750 
Q 2544 4750 2975 4387 
Q 3406 4025 3406 3419 
Q 3406 3131 3298 2873 
Q 3191 2616 2906 2266 
Q 2828 2175 2409 1742 
Q 1991 1309 1228 531 
z
" transform="scale(0.015625)"/>
       </defs>
       <use xlink:href="#DejaVuSans-32"/>
       <use xlink:href="#DejaVuSans-30" x="63.623047"/>
      </g>
     </g>
    </g>
    <g id="xtick_4">
     <g id="line2d_4">
      <g>
       <use xlink:href="#m4cd371f86f" x="141.0065" y="132.207375" style="stroke: #000000; stroke-width: 0.6"/>
      </g>
     </g>
     <g id="text_4">
      <!-- 30 -->
      <g transform="translate(135.9165 144.286125)scale(0.08 -0.08)">
       <defs>
        <path id="DejaVuSans-33" d="M 2597 2516 
Q 3050 2419 3304 2112 
Q 3559 1806 3559 1356 
Q 3559 666 3084 287 
Q 2609 -91 1734 -91 
Q 1441 -91 1130 -33 
Q 819 25 488 141 
L 488 750 
Q 750 597 1062 519 
Q 1375 441 1716 441 
Q 2309 441 2620 675 
Q 2931 909 2931 1356 
Q 2931 1769 2642 2001 
Q 2353 2234 1838 2234 
L 1294 2234 
L 1294 2753 
L 1863 2753 
Q 2328 2753 2575 2939 
Q 2822 3125 2822 3475 
Q 2822 3834 2567 4026 
Q 2313 4219 1838 4219 
Q 1578 4219 1281 4162 
Q 984 4106 628 3988 
L 628 4550 
Q 988 4650 1302 4700 
Q 1616 4750 1894 4750 
Q 2613 4750 3031 4423 
Q 3450 4097 3450 3541 
Q 3450 3153 3228 2886 
Q 3006 2619 2597 2516 
z
" transform="scale(0.015625)"/>
       </defs>
       <use xlink:href="#DejaVuSans-33"/>
       <use xlink:href="#DejaVuSans-30" x="63.623047"/>
      </g>
     </g>
    </g>
    <g id="xtick_5">
     <g id="line2d_5">
      <g>
       <use xlink:href="#m4cd371f86f" x="172.2545" y="132.207375" style="stroke: #000000; stroke-width: 0.6"/>
      </g>
     </g>
     <g id="text_5">
      <!-- 40 -->
      <g transform="translate(167.1645 144.286125)scale(0.08 -0.08)">
       <defs>
        <path id="DejaVuSans-34" d="M 2419 4116 
L 825 1625 
L 2419 1625 
L 2419 4116 
z
M 2253 4666 
L 3047 4666 
L 3047 1625 
L 3713 1625 
L 3713 1100 
L 3047 1100 
L 3047 0 
L 2419 0 
L 2419 1100 
L 313 1100 
L 313 1709 
L 2253 4666 
z
" transform="scale(0.015625)"/>
       </defs>
       <use xlink:href="#DejaVuSans-34"/>
       <use xlink:href="#DejaVuSans-30" x="63.623047"/>
      </g>
     </g>
    </g>
    <g id="xtick_6">
     <g id="line2d_6">
      <g>
       <use xlink:href="#m4cd371f86f" x="203.5025" y="132.207375" style="stroke: #000000; stroke-width: 0.6"/>
      </g>
     </g>
     <g id="text_6">
      <!-- 50 -->
      <g transform="translate(198.4125 144.286125)scale(0.08 -0.08)">
       <defs>
        <path id="DejaVuSans-35" d="M 691 4666 
L 3169 4666 
L 3169 4134 
L 1269 4134 
L 1269 2991 
Q 1406 3038 1543 3061 
Q 1681 3084 1819 3084 
Q 2600 3084 3056 2656 
Q 3513 2228 3513 1497 
Q 3513 744 3044 326 
Q 2575 -91 1722 -91 
Q 1428 -91 1123 -41 
Q 819 9 494 109 
L 494 744 
Q 775 591 1075 516 
Q 1375 441 1709 441 
Q 2250 441 2565 725 
Q 2881 1009 2881 1497 
Q 2881 1984 2565 2268 
Q 2250 2553 1709 2553 
Q 1456 2553 1204 2497 
Q 953 2441 691 2322 
L 691 4666 
z
" transform="scale(0.015625)"/>
       </defs>
       <use xlink:href="#DejaVuSans-35"/>
       <use xlink:href="#DejaVuSans-30" x="63.623047"/>
      </g>
     </g>
    </g>
    <g id="text_7">
     <!-- k -->
     <g transform="translate(123.06625 156.028625)scale(0.08 -0.08)">
      <defs>
       <path id="DejaVuSans-6b" d="M 581 4863 
L 1159 4863 
L 1159 1991 
L 2875 3500 
L 3609 3500 
L 1753 1863 
L 3688 0 
L 2938 0 
L 1159 1709 
L 1159 0 
L 581 0 
L 581 4863 
z
" transform="scale(0.015625)"/>
      </defs>
      <use xlink:href="#DejaVuSans-6b"/>
     </g>
    </g>
   </g>
   <g id="matplotlib.axis_2">
    <g id="ytick_1">
     <g id="line2d_7">
      <defs>
       <path id="m56f3a9ced1" d="M 0 0 
L -2.5 0 
" style="stroke: #000000; stroke-width: 0.6"/>
      </defs>
      <g>
       <use xlink:href="#m56f3a9ced1" x="47.2625" y="132.207375" style="stroke: #000000; stroke-width: 0.6"/>
      </g>
     </g>
     <g id="text_8">
      <!-- $\mathdefault{10^{-16}}$ -->
      <g transform="translate(18.9425 135.24675)scale(0.08 -0.08)">
       <defs>
        <path id="DejaVuSans-2212" d="M 678 2272 
L 4684 2272 
L 4684 1741 
L 678 1741 
L 678 2272 
z
" transform="scale(0.015625)"/>
        <path id="DejaVuSans-36" d="M 2113 2584 
Q 1688 2584 1439 2293 
Q 1191 2003 1191 1497 
Q 1191 994 1439 701 
Q 1688 409 2113 409 
Q 2538 409 2786 701 
Q 3034 994 3034 1497 
Q 3034 2003 2786 2293 
Q 2538 2584 2113 2584 
z
M 3366 4563 
L 3366 3988 
Q 3128 4100 2886 4159 
Q 2644 4219 2406 4219 
Q 1781 4219 1451 3797 
Q 1122 3375 1075 2522 
Q 1259 2794 1537 2939 
Q 1816 3084 2150 3084 
Q 2853 3084 3261 2657 
Q 3669 2231 3669 1497 
Q 3669 778 3244 343 
Q 2819 -91 2113 -91 
Q 1303 -91 875 529 
Q 447 1150 447 2328 
Q 447 3434 972 4092 
Q 1497 4750 2381 4750 
Q 2619 4750 2861 4703 
Q 3103 4656 3366 4563 
z
" transform="scale(0.015625)"/>
       </defs>
       <use xlink:href="#DejaVuSans-31" transform="translate(0 0.765625)"/>
       <use xlink:href="#DejaVuSans-30" transform="translate(63.623047 0.765625)"/>
       <use xlink:href="#DejaVuSans-2212" transform="translate(128.203125 39.046875)scale(0.7)"/>
       <use xlink:href="#DejaVuSans-31" transform="translate(186.855469 39.046875)scale(0.7)"/>
       <use xlink:href="#DejaVuSans-36" transform="translate(231.391602 39.046875)scale(0.7)"/>
      </g>
     </g>
    </g>
    <g id="ytick_2">
     <g id="line2d_8">
      <g>
       <use xlink:href="#m56f3a9ced1" x="47.2625" y="111.879375" style="stroke: #000000; stroke-width: 0.6"/>
      </g>
     </g>
     <g id="text_9">
      <!-- $\mathdefault{10^{-13}}$ -->
      <g transform="translate(18.9425 114.91875)scale(0.08 -0.08)">
       <use xlink:href="#DejaVuSans-31" transform="translate(0 0.765625)"/>
       <use xlink:href="#DejaVuSans-30" transform="translate(63.623047 0.765625)"/>
       <use xlink:href="#DejaVuSans-2212" transform="translate(128.203125 39.046875)scale(0.7)"/>
       <use xlink:href="#DejaVuSans-31" transform="translate(186.855469 39.046875)scale(0.7)"/>
       <use xlink:href="#DejaVuSans-33" transform="translate(231.391602 39.046875)scale(0.7)"/>
      </g>
     </g>
    </g>
    <g id="ytick_3">
     <g id="line2d_9">
      <g>
       <use xlink:href="#m56f3a9ced1" x="47.2625" y="91.551375" style="stroke: #000000; stroke-width: 0.6"/>
      </g>
     </g>
     <g id="text_10">
      <!-- $\mathdefault{10^{-10}}$ -->
      <g transform="translate(18.9425 94.59075)scale(0.08 -0.08)">
       <use xlink:href="#DejaVuSans-31" transform="translate(0 0.765625)"/>
       <use xlink:href="#DejaVuSans-30" transform="translate(63.623047 0.765625)"/>
       <use xlink:href="#DejaVuSans-2212" transform="translate(128.203125 39.046875)scale(0.7)"/>
       <use xlink:href="#DejaVuSans-31" transform="translate(186.855469 39.046875)scale(0.7)"/>
       <use xlink:href="#DejaVuSans-30" transform="translate(231.391602 39.046875)scale(0.7)"/>
      </g>
     </g>
    </g>
    <g id="ytick_4">
     <g id="line2d_10">
      <g>
       <use xlink:href="#m56f3a9ced1" x="47.2625" y="71.223375" style="stroke: #000000; stroke-width: 0.6"/>
      </g>
     </g>
     <g id="text_11">
      <!-- $\mathdefault{10^{-7}}$ -->
      <g transform="translate(22.4625 74.26275)scale(0.08 -0.08)">
       <defs>
        <path id="DejaVuSans-37" d="M 525 4666 
L 3525 4666 
L 3525 4397 
L 1831 0 
L 1172 0 
L 2766 4134 
L 525 4134 
L 525 4666 
z
" transform="scale(0.015625)"/>
       </defs>
       <use xlink:href="#DejaVuSans-31" transform="translate(0 0.684375)"/>
       <use xlink:href="#DejaVuSans-30" transform="translate(63.623047 0.684375)"/>
       <use xlink:href="#DejaVuSans-2212" transform="translate(128.203125 38.965625)scale(0.7)"/>
       <use xlink:href="#DejaVuSans-37" transform="translate(186.855469 38.965625)scale(0.7)"/>
      </g>
     </g>
    </g>
    <g id="ytick_5">
     <g id="line2d_11">
      <g>
       <use xlink:href="#m56f3a9ced1" x="47.2625" y="50.895375" style="stroke: #000000; stroke-width: 0.6"/>
      </g>
     </g>
     <g id="text_12">
      <!-- $\mathdefault{10^{-4}}$ -->
      <g transform="translate(22.4625 53.93475)scale(0.08 -0.08)">
       <use xlink:href="#DejaVuSans-31" transform="translate(0 0.684375)"/>
       <use xlink:href="#DejaVuSans-30" transform="translate(63.623047 0.684375)"/>
       <use xlink:href="#DejaVuSans-2212" transform="translate(128.203125 38.965625)scale(0.7)"/>
       <use xlink:href="#DejaVuSans-34" transform="translate(186.855469 38.965625)scale(0.7)"/>
      </g>
     </g>
    </g>
    <g id="ytick_6">
     <g id="line2d_12">
      <g>
       <use xlink:href="#m56f3a9ced1" x="47.2625" y="30.567375" style="stroke: #000000; stroke-width: 0.6"/>
      </g>
     </g>
     <g id="text_13">
      <!-- $\mathdefault{10^{-1}}$ -->
      <g transform="translate(22.4625 33.60675)scale(0.08 -0.08)">
       <use xlink:href="#DejaVuSans-31" transform="translate(0 0.684375)"/>
       <use xlink:href="#DejaVuSans-30" transform="translate(63.623047 0.684375)"/>
       <use xlink:href="#DejaVuSans-2212" transform="translate(128.203125 38.965625)scale(0.7)"/>
       <use xlink:href="#DejaVuSans-31" transform="translate(186.855469 38.965625)scale(0.7)"/>
      </g>
     </g>
    </g>
    <g id="ytick_7">
     <g id="line2d_13">
      <g>
       <use xlink:href="#m56f3a9ced1" x="47.2625" y="10.239375" style="stroke: #000000; stroke-width: 0.6"/>
      </g>
     </g>
     <g id="text_14">
      <!-- $\mathdefault{10^{2}}$ -->
      <g transform="translate(27.1825 13.27875)scale(0.08 -0.08)">
       <use xlink:href="#DejaVuSans-31" transform="translate(0 0.765625)"/>
       <use xlink:href="#DejaVuSans-30" transform="translate(63.623047 0.765625)"/>
       <use xlink:href="#DejaVuSans-32" transform="translate(128.203125 39.046875)scale(0.7)"/>
      </g>
     </g>
    </g>
    <g id="text_15">
     <!-- residual -->
     <g transform="translate(13.27875 87.070875)rotate(-90)scale(0.08 -0.08)">
      <defs>
       <path id="DejaVuSans-72" d="M 2631 2963 
Q 2534 3019 2420 3045 
Q 2306 3072 2169 3072 
Q 1681 3072 1420 2755 
Q 1159 2438 1159 1844 
L 1159 0 
L 581 0 
L 581 3500 
L 1159 3500 
L 1159 2956 
Q 1341 3275 1631 3429 
Q 1922 3584 2338 3584 
Q 2397 3584 2469 3576 
Q 2541 3569 2628 3553 
L 2631 2963 
z
" transform="scale(0.015625)"/>
       <path id="DejaVuSans-65" d="M 3597 1894 
L 3597 1613 
L 953 1613 
Q 991 1019 1311 708 
Q 1631 397 2203 397 
Q 2534 397 2845 478 
Q 3156 559 3463 722 
L 3463 178 
Q 3153 47 2828 -22 
Q 2503 -91 2169 -91 
Q 1331 -91 842 396 
Q 353 884 353 1716 
Q 353 2575 817 3079 
Q 1281 3584 2069 3584 
Q 2775 3584 3186 3129 
Q 3597 2675 3597 1894 
z
M 3022 2063 
Q 3016 2534 2758 2815 
Q 2500 3097 2075 3097 
Q 1594 3097 1305 2825 
Q 1016 2553 972 2059 
L 3022 2063 
z
" transform="scale(0.015625)"/>
       <path id="DejaVuSans-73" d="M 2834 3397 
L 2834 2853 
Q 2591 2978 2328 3040 
Q 2066 3103 1784 3103 
Q 1356 3103 1142 2972 
Q 928 2841 928 2578 
Q 928 2378 1081 2264 
Q 1234 2150 1697 2047 
L 1894 2003 
Q 2506 1872 2764 1633 
Q 3022 1394 3022 966 
Q 3022 478 2636 193 
Q 2250 -91 1575 -91 
Q 1294 -91 989 -36 
Q 684 19 347 128 
L 347 722 
Q 666 556 975 473 
Q 1284 391 1588 391 
Q 1994 391 2212 530 
Q 2431 669 2431 922 
Q 2431 1156 2273 1281 
Q 2116 1406 1581 1522 
L 1381 1569 
Q 847 1681 609 1914 
Q 372 2147 372 2553 
Q 372 3047 722 3315 
Q 1072 3584 1716 3584 
Q 2034 3584 2315 3537 
Q 2597 3491 2834 3397 
z
" transform="scale(0.015625)"/>
       <path id="DejaVuSans-69" d="M 603 3500 
L 1178 3500 
L 1178 0 
L 603 0 
L 603 3500 
z
M 603 4863 
L 1178 4863 
L 1178 4134 
L 603 4134 
L 603 4863 
z
" transform="scale(0.015625)"/>
       <path id="DejaVuSans-64" d="M 2906 2969 
L 2906 4863 
L 3481 4863 
L 3481 0 
L 2906 0 
L 2906 525 
Q 2725 213 2448 61 
Q 2172 -91 1784 -91 
Q 1150 -91 751 415 
Q 353 922 353 1747 
Q 353 2572 751 3078 
Q 1150 3584 1784 3584 
Q 2172 3584 2448 3432 
Q 2725 3281 2906 2969 
z
M 947 1747 
Q 947 1113 1208 752 
Q 1469 391 1925 391 
Q 2381 391 2643 752 
Q 2906 1113 2906 1747 
Q 2906 2381 2643 2742 
Q 2381 3103 1925 3103 
Q 1469 3103 1208 2742 
Q 947 2381 947 1747 
z
" transform="scale(0.015625)"/>
       <path id="DejaVuSans-75" d="M 544 1381 
L 544 3500 
L 1119 3500 
L 1119 1403 
Q 1119 906 1312 657 
Q 1506 409 1894 409 
Q 2359 409 2629 706 
Q 2900 1003 2900 1516 
L 2900 3500 
L 3475 3500 
L 3475 0 
L 2900 0 
L 2900 538 
Q 2691 219 2414 64 
Q 2138 -91 1772 -91 
Q 1169 -91 856 284 
Q 544 659 544 1381 
z
M 1991 3584 
L 1991 3584 
z
" transform="scale(0.015625)"/>
       <path id="DejaVuSans-61" d="M 2194 1759 
Q 1497 1759 1228 1600 
Q 959 1441 959 1056 
Q 959 750 1161 570 
Q 1363 391 1709 391 
Q 2188 391 2477 730 
Q 2766 1069 2766 1631 
L 2766 1759 
L 2194 1759 
z
M 3341 1997 
L 3341 0 
L 2766 0 
L 2766 531 
Q 2569 213 2275 61 
Q 1981 -91 1556 -91 
Q 1019 -91 701 211 
Q 384 513 384 1019 
Q 384 1609 779 1909 
Q 1175 2209 1959 2209 
L 2766 2209 
L 2766 2266 
Q 2766 2663 2505 2880 
Q 2244 3097 1772 3097 
Q 1472 3097 1187 3025 
Q 903 2953 641 2809 
L 641 3341 
Q 956 3463 1253 3523 
Q 1550 3584 1831 3584 
Q 2591 3584 2966 3190 
Q 3341 2797 3341 1997 
z
" transform="scale(0.015625)"/>
       <path id="DejaVuSans-6c" d="M 603 4863 
L 1178 4863 
L 1178 0 
L 603 0 
L 603 4863 
z
" transform="scale(0.015625)"/>
      </defs>
      <use xlink:href="#DejaVuSans-72"/>
      <use xlink:href="#DejaVuSans-65" x="38.863281"/>
      <use xlink:href="#DejaVuSans-73" x="100.386719"/>
      <use xlink:href="#DejaVuSans-69" x="152.486328"/>
      <use xlink:href="#DejaVuSans-64" x="180.269531"/>
      <use xlink:href="#DejaVuSans-75" x="243.746094"/>
      <use xlink:href="#DejaVuSans-61" x="307.125"/>
      <use xlink:href="#DejaVuSans-6c" x="368.404297"/>
     </g>
    </g>
   </g>
   <g id="line2d_14">
    <path d="M 47.2625 22.28039 
L 50.3873 23.39353 
L 53.5121 24.504172 
L 56.6369 25.579882 
L 59.7617 26.574374 
L 62.8865 27.427547 
L 66.0113 28.093522 
L 69.1361 28.571143 
L 72.2609 28.900685 
L 75.3857 29.133151 
L 78.5105 29.308481 
L 81.6353 29.451959 
L 84.7601 29.578214 
L 87.8849 29.695424 
L 91.0097 29.808077 
L 94.1345 29.91857 
L 97.2593 30.028136 
L 100.3841 30.13737 
L 103.5089 30.246539 
L 106.6337 30.355748 
L 109.7585 30.46503 
L 112.8833 30.574391 
L 116.0081 30.683828 
L 119.1329 30.793337 
L 122.2577 30.902915 
L 125.3825 31.012559 
L 128.5073 31.122271 
L 131.6321 31.232049 
L 134.7569 31.341893 
L 137.8817 31.451802 
L 141.0065 31.561776 
L 144.1313 31.671814 
L 147.2561 31.781913 
L 150.3809 31.892072 
L 153.5057 32.002289 
L 156.6305 32.112561 
L 159.7553 32.222886 
L 162.8801 32.333261 
L 166.0049 32.443683 
L 169.1297 32.554151 
L 172.2545 32.66466 
L 175.3793 32.775209 
L 178.5041 32.885793 
L 181.6289 32.996411 
L 184.7537 33.107057 
L 187.8785 33.21773 
L 191.0033 33.328425 
L 194.1281 33.439139 
L 197.2529 33.549868 
L 200.3777 33.660608 
" clip-path="url(#p2e0caee5a5)" style="fill: none; stroke: #ff1f5b; stroke-linecap: square"/>
   </g>
   <g id="line2d_15">
    <path d="M 47.2625 22.28039 
L 50.3873 24.842527 
L 53.5121 28.104309 
L 56.6369 29.401026 
L 59.7617 30.241682 
L 62.8865 30.770795 
L 66.0113 31.289486 
L 69.1361 31.801308 
L 72.2609 32.314707 
L 75.3857 32.830564 
L 78.5105 33.348479 
L 81.6353 33.867163 
L 84.7601 34.385277 
L 87.8849 34.901311 
L 91.0097 35.413517 
L 94.1345 35.919907 
L 97.2593 36.418304 
L 100.3841 36.906434 
L 103.5089 37.382047 
L 106.6337 37.843077 
L 109.7585 38.287813 
L 112.8833 38.71506 
L 116.0081 39.124257 
L 119.1329 39.515521 
L 122.2577 39.889611 
L 125.3825 40.247818 
L 128.5073 40.591804 
L 131.6321 40.923425 
L 134.7569 41.244574 
L 137.8817 41.557047 
L 141.0065 41.86245 
L 144.1313 42.162148 
L 147.2561 42.457239 
L 150.3809 42.748551 
L 153.5057 43.036656 
L 156.6305 43.321883 
L 159.7553 43.60434 
L 162.8801 43.883934 
L 166.0049 44.16039 
L 169.1297 44.433263 
L 172.2545 44.701962 
L 175.3793 44.965759 
L 178.5041 45.223818 
L 181.6289 45.475212 
L 184.7537 45.718956 
L 187.8785 45.954046 
L 191.0033 46.179496 
L 194.1281 46.394392 
L 197.2529 46.597939 
L 200.3777 46.789505 
" clip-path="url(#p2e0caee5a5)" style="fill: none; stroke: #00cd6c; stroke-linecap: square"/>
   </g>
   <g id="line2d_16">
    <path d="M 47.2625 22.28039 
L 50.3873 24.896236 
L 53.5121 29.446095 
L 56.6369 31.759601 
L 59.7617 34.469968 
L 62.8865 36.392816 
L 66.0113 37.776765 
L 69.1361 38.95367 
L 72.2609 40.055662 
L 75.3857 41.158221 
L 78.5105 42.276563 
L 81.6353 43.369238 
L 84.7601 44.364705 
L 87.8849 45.184591 
L 91.0097 45.795335 
L 94.1345 46.228847 
L 97.2593 46.546336 
L 100.3841 46.797822 
L 103.5089 47.012505 
L 106.6337 47.205107 
L 109.7585 47.382989 
L 112.8833 47.550273 
L 116.0081 47.7097 
L 119.1329 47.863343 
L 122.2577 48.012854 
L 125.3825 48.15954 
L 128.5073 48.304413 
L 131.6321 48.448231 
L 134.7569 48.591542 
L 137.8817 48.734727 
L 141.0065 48.87804 
L 144.1313 49.021642 
L 147.2561 49.165626 
L 150.3809 49.310036 
L 153.5057 49.454886 
L 156.6305 49.600167 
L 159.7553 49.745857 
L 162.8801 49.89193 
L 166.0049 50.03835 
L 169.1297 50.185086 
L 172.2545 50.332104 
L 175.3793 50.479372 
L 178.5041 50.626862 
L 181.6289 50.774547 
L 184.7537 50.922402 
L 187.8785 51.070405 
L 191.0033 51.218539 
L 194.1281 51.366785 
L 197.2529 51.515129 
L 200.3777 51.663558 
" clip-path="url(#p2e0caee5a5)" style="fill: none; stroke: #009ade; stroke-linecap: square"/>
   </g>
   <g id="line2d_17">
    <path d="M 47.2625 22.28039 
L 50.3873 24.924299 
L 53.5121 29.790325 
L 56.6369 32.379017 
L 59.7617 36.376923 
L 62.8865 40.376755 
L 66.0113 42.678713 
L 69.1361 44.908656 
L 72.2609 45.824886 
L 75.3857 46.446177 
L 78.5105 47.013915 
L 81.6353 47.589919 
L 84.7601 48.176773 
L 87.8849 48.770508 
L 91.0097 49.368614 
L 94.1345 49.969067 
L 97.2593 50.57081 
L 100.3841 51.173239 
L 103.5089 51.776039 
L 106.6337 52.379035 
L 109.7585 52.982136 
L 112.8833 53.585294 
L 116.0081 54.188482 
L 119.1329 54.791686 
L 122.2577 55.394899 
L 125.3825 55.998116 
L 128.5073 56.601336 
L 131.6321 57.204557 
L 134.7569 57.807778 
L 137.8817 58.411001 
L 141.0065 59.014223 
L 144.1313 59.617445 
L 147.2561 60.220668 
L 150.3809 60.82389 
L 153.5057 61.427113 
L 156.6305 62.030335 
L 159.7553 62.633558 
L 162.8801 63.23678 
L 166.0049 63.840003 
L 169.1297 64.443225 
L 172.2545 65.046448 
L 175.3793 65.64967 
L 178.5041 66.252893 
L 181.6289 66.856115 
L 184.7537 67.459338 
L 187.8785 68.06256 
L 191.0033 68.665783 
L 194.1281 69.269005 
L 197.2529 69.872228 
L 200.3777 70.47545 
" clip-path="url(#p2e0caee5a5)" style="fill: none; stroke: #af58ba; stroke-linecap: square"/>
   </g>
   <g id="line2d_18">
    <path d="M 47.2625 22.28039 
L 50.3873 24.924299 
L 53.5121 29.790868 
L 56.6369 32.407495 
L 59.7617 36.433792 
L 62.8865 40.58837 
L 66.0113 43.162786 
L 69.1361 46.872351 
L 72.2609 49.975492 
L 75.3857 53.31206 
L 78.5105 56.469049 
L 81.6353 59.319564 
L 84.7601 62.491068 
L 87.8849 64.986042 
L 91.0097 67.678447 
L 94.1345 70.219798 
L 97.2593 72.74408 
L 100.3841 75.222238 
L 103.5089 77.708373 
L 106.6337 80.191934 
L 109.7585 82.667553 
L 112.8833 85.132073 
L 116.0081 87.599244 
L 119.1329 90.059279 
L 122.2577 92.519058 
L 125.3825 94.973578 
L 128.5073 97.431497 
L 131.6321 99.886859 
L 134.7569 102.341682 
L 137.8817 104.793274 
L 141.0065 107.246816 
L 144.1313 109.700734 
L 147.2561 112.155973 
L 150.3809 114.612354 
L 153.5057 117.061617 
L 156.6305 119.50957 
L 159.7553 121.955991 
L 162.8801 124.172498 
L 166.0049 125.448562 
L 169.1297 125.725339 
L 172.2545 126.025225 
L 175.3793 125.695198 
L 178.5041 126.021835 
L 181.6289 126.116232 
L 184.7537 126.57177 
L 187.8785 126.188382 
L 191.0033 127.109287 
L 194.1281 126.846942 
L 197.2529 125.89536 
L 200.3777 127.533762 
" clip-path="url(#p2e0caee5a5)" style="fill: none; stroke: #ffc61e; stroke-linecap: square"/>
   </g>
   <g id="line2d_19">
    <path d="M 47.2625 22.28039 
L 50.3873 24.924299 
L 53.5121 29.794058 
L 56.6369 32.405031 
L 59.7617 36.414318 
L 62.8865 40.587889 
L 66.0113 43.182109 
L 69.1361 46.965523 
L 72.2609 50.099966 
L 75.3857 53.564903 
L 78.5105 56.977984 
L 81.6353 60.062908 
L 84.7601 63.833165 
L 87.8849 66.688947 
L 91.0097 70.339348 
L 94.1345 73.599162 
L 97.2593 76.908979 
L 100.3841 80.45698 
L 103.5089 83.432016 
L 106.6337 87.150309 
L 109.7585 90.371123 
L 112.8833 93.942391 
L 116.0081 97.145608 
L 119.1329 100.395727 
L 122.2577 104.292561 
L 125.3825 107.345329 
L 128.5073 110.858423 
L 131.6321 114.634753 
L 134.7569 118.585517 
L 137.8817 122.345807 
L 141.0065 126.234608 
L 144.1313 126.107232 
L 147.2561 126.110826 
L 150.3809 126.369768 
L 153.5057 125.82557 
L 156.6305 126.211313 
L 159.7553 126.29451 
L 162.8801 126.852887 
L 166.0049 126.619279 
L 169.1297 126.242455 
L 172.2545 127.167138 
L 175.3793 126.75495 
L 178.5041 126.387028 
L 181.6289 126.520986 
L 184.7537 126.252324 
L 187.8785 126.846942 
L 191.0033 126.219037 
L 194.1281 126.752166 
L 197.2529 125.914124 
L 200.3777 126.823399 
" clip-path="url(#p2e0caee5a5)" style="fill: none; stroke: #f28522; stroke-linecap: square"/>
   </g>
   <g id="patch_3">
    <path d="M 47.2625 132.207375 
L 47.2625 10.239375 
" style="fill: none; stroke: #000000; stroke-width: 0.6; stroke-linejoin: miter; stroke-linecap: square"/>
   </g>
   <g id="patch_4">
    <path d="M 47.2625 132.207375 
L 203.5025 132.207375 
" style="fill: none; stroke: #000000; stroke-width: 0.6; stroke-linejoin: miter; stroke-linecap: square"/>
   </g>
   <g id="legend_1">
    <g id="line2d_20">
     <path d="M 218.5145 32.914925 
L 225.9145 32.914925 
L 233.3145 32.914925 
" style="fill: none; stroke: #ff1f5b; stroke-linecap: square"/>
    </g>
    <g id="text_16">
     <!-- 0 levels -->
     <g transform="translate(239.7145 35.714925)scale(0.08 -0.08)">
      <defs>
       <path id="DejaVuSans-20" transform="scale(0.015625)"/>
       <path id="DejaVuSans-76" d="M 191 3500 
L 800 3500 
L 1894 563 
L 2988 3500 
L 3597 3500 
L 2284 0 
L 1503 0 
L 191 3500 
z
" transform="scale(0.015625)"/>
      </defs>
      <use xlink:href="#DejaVuSans-30"/>
      <use xlink:href="#DejaVuSans-20" x="63.623047"/>
      <use xlink:href="#DejaVuSans-6c" x="95.410156"/>
      <use xlink:href="#DejaVuSans-65" x="123.193359"/>
      <use xlink:href="#DejaVuSans-76" x="184.716797"/>
      <use xlink:href="#DejaVuSans-65" x="243.896484"/>
      <use xlink:href="#DejaVuSans-6c" x="305.419922"/>
      <use xlink:href="#DejaVuSans-73" x="333.203125"/>
     </g>
    </g>
    <g id="line2d_21">
     <path d="M 218.5145 44.657425 
L 225.9145 44.657425 
L 233.3145 44.657425 
" style="fill: none; stroke: #00cd6c; stroke-linecap: square"/>
    </g>
    <g id="text_17">
     <!-- 1 levels -->
     <g transform="translate(239.7145 47.457425)scale(0.08 -0.08)">
      <use xlink:href="#DejaVuSans-31"/>
      <use xlink:href="#DejaVuSans-20" x="63.623047"/>
      <use xlink:href="#DejaVuSans-6c" x="95.410156"/>
      <use xlink:href="#DejaVuSans-65" x="123.193359"/>
      <use xlink:href="#DejaVuSans-76" x="184.716797"/>
      <use xlink:href="#DejaVuSans-65" x="243.896484"/>
      <use xlink:href="#DejaVuSans-6c" x="305.419922"/>
      <use xlink:href="#DejaVuSans-73" x="333.203125"/>
     </g>
    </g>
    <g id="line2d_22">
     <path d="M 218.5145 56.399925 
L 225.9145 56.399925 
L 233.3145 56.399925 
" style="fill: none; stroke: #009ade; stroke-linecap: square"/>
    </g>
    <g id="text_18">
     <!-- 2 levels -->
     <g transform="translate(239.7145 59.199925)scale(0.08 -0.08)">
      <use xlink:href="#DejaVuSans-32"/>
      <use xlink:href="#DejaVuSans-20" x="63.623047"/>
      <use xlink:href="#DejaVuSans-6c" x="95.410156"/>
      <use xlink:href="#DejaVuSans-65" x="123.193359"/>
      <use xlink:href="#DejaVuSans-76" x="184.716797"/>
      <use xlink:href="#DejaVuSans-65" x="243.896484"/>
      <use xlink:href="#DejaVuSans-6c" x="305.419922"/>
      <use xlink:href="#DejaVuSans-73" x="333.203125"/>
     </g>
    </g>
    <g id="line2d_23">
     <path d="M 218.5145 68.142425 
L 225.9145 68.142425 
L 233.3145 68.142425 
" style="fill: none; stroke: #af58ba; stroke-linecap: square"/>
    </g>
    <g id="text_19">
     <!-- 3 levels -->
     <g transform="translate(239.7145 70.942425)scale(0.08 -0.08)">
      <use xlink:href="#DejaVuSans-33"/>
      <use xlink:href="#DejaVuSans-20" x="63.623047"/>
      <use xlink:href="#DejaVuSans-6c" x="95.410156"/>
      <use xlink:href="#DejaVuSans-65" x="123.193359"/>
      <use xlink:href="#DejaVuSans-76" x="184.716797"/>
      <use xlink:href="#DejaVuSans-65" x="243.896484"/>
      <use xlink:href="#DejaVuSans-6c" x="305.419922"/>
      <use xlink:href="#DejaVuSans-73" x="333.203125"/>
     </g>
    </g>
    <g id="line2d_24">
     <path d="M 218.5145 79.884925 
L 225.9145 79.884925 
L 233.3145 79.884925 
" style="fill: none; stroke: #ffc61e; stroke-linecap: square"/>
    </g>
    <g id="text_20">
     <!-- 4 levels -->
     <g transform="translate(239.7145 82.684925)scale(0.08 -0.08)">
      <use xlink:href="#DejaVuSans-34"/>
      <use xlink:href="#DejaVuSans-20" x="63.623047"/>
      <use xlink:href="#DejaVuSans-6c" x="95.410156"/>
      <use xlink:href="#DejaVuSans-65" x="123.193359"/>
      <use xlink:href="#DejaVuSans-76" x="184.716797"/>
      <use xlink:href="#DejaVuSans-65" x="243.896484"/>
      <use xlink:href="#DejaVuSans-6c" x="305.419922"/>
      <use xlink:href="#DejaVuSans-73" x="333.203125"/>
     </g>
    </g>
    <g id="line2d_25">
     <path d="M 218.5145 91.627425 
L 225.9145 91.627425 
L 233.3145 91.627425 
" style="fill: none; stroke: #f28522; stroke-linecap: square"/>
    </g>
    <g id="text_21">
     <!-- 5 levels -->
     <g transform="translate(239.7145 94.427425)scale(0.08 -0.08)">
      <use xlink:href="#DejaVuSans-35"/>
      <use xlink:href="#DejaVuSans-20" x="63.623047"/>
      <use xlink:href="#DejaVuSans-6c" x="95.410156"/>
      <use xlink:href="#DejaVuSans-65" x="123.193359"/>
      <use xlink:href="#DejaVuSans-76" x="184.716797"/>
      <use xlink:href="#DejaVuSans-65" x="243.896484"/>
      <use xlink:href="#DejaVuSans-6c" x="305.419922"/>
      <use xlink:href="#DejaVuSans-73" x="333.203125"/>
     </g>
    </g>
   </g>
  </g>
 </g>
 <defs>
  <clipPath id="p2e0caee5a5">
   <rect x="47.2625" y="10.239375" width="156.24" height="121.968"/>
  </clipPath>
 </defs>
</svg>
