<?xml version="1.0" encoding="utf-8" standalone="no"?>
<!DOCTYPE svg PUBLIC "-//W3C//DTD SVG 1.1//EN"
  "http://www.w3.org/Graphics/SVG/1.1/DTD/svg11.dtd">
<svg xmlns:xlink="http://www.w3.org/1999/xlink" width="277.4195pt" height="164.892375pt" viewBox="0 0 277.4195 164.892375" xmlns="http://www.w3.org/2000/svg" version="1.1">
 <metadata>
  <rdf:RDF xmlns:dc="http://purl.org/dc/elements/1.1/" xmlns:cc="http://creativecommons.org/ns#" xmlns:rdf="http://www.w3.org/1999/02/22-rdf-syntax-ns#">
   <cc:Work>
    <dc:type rdf:resource="http://purl.org/dc/dcmitype/StillImage"/>
    <dc:format>image/svg+xml</dc:format>
    <dc:creator>
     <cc:Agent>
      <dc:title>Matplotlib v3.5.2, https://matplotlib.org/</dc:title>
     </cc:Agent>
    </dc:creator>
   </cc:Work>
  </rdf:RDF>
 </metadata>
 <defs>
  <style type="text/css">*{stroke-linejoin: round; stroke-linecap: butt}</style>
 </defs>
 <g id="figure_1">
  <g id="patch_1">
   <path d="M 0 164.892375 
L 277.4195 164.892375 
L 277.4195 0 
L 0 0 
L 0 164.892375 
z
" style="fill: none"/>
  </g>
  <g id="axes_1">
   <g id="patch_2">
    <path d="M 43.7425 132.207375 
L 199.9825 132.207375 
L 199.9825 10.239375 
L 43.7425 10.239375 
L 43.7425 132.207375 
z
" style="fill: none"/>
   </g>
   <g id="matplotlib.axis_1">
    <g id="xtick_1">
     <g id="line2d_1">
      <defs>
       <path id="m4cd371f86f" d="M 0 0 
L 0 2.5 
" style="stroke: #000000; stroke-width: 0.6"/>
      </defs>
      <g>
       <use xlink:href="#m4cd371f86f" x="43.7425" y="132.207375" style="stroke: #000000; stroke-width: 0.6"/>
      </g>
     </g>
     <g id="text_1">
      <!-- 0 -->
      <g transform="translate(41.1975 144.286125)scale(0.08 -0.08)">
       <defs>
        <path id="DejaVuSans-30" d="M 2034 4250 
Q 1547 4250 1301 3770 
Q 1056 3291 1056 2328 
Q 1056 1369 1301 889 
Q 1547 409 2034 409 
Q 2525 409 2770 889 
Q 3016 1369 3016 2328 
Q 3016 3291 2770 3770 
Q 2525 4250 2034 4250 
z
M 2034 4750 
Q 2819 4750 3233 4129 
Q 3647 3509 3647 2328 
Q 3647 1150 3233 529 
Q 2819 -91 2034 -91 
Q 1250 -91 836 529 
Q 422 1150 422 2328 
Q 422 3509 836 4129 
Q 1250 4750 2034 4750 
z
" transform="scale(0.015625)"/>
       </defs>
       <use xlink:href="#DejaVuSans-30"/>
      </g>
     </g>
    </g>
    <g id="xtick_2">
     <g id="line2d_2">
      <g>
       <use xlink:href="#m4cd371f86f" x="74.9905" y="132.207375" style="stroke: #000000; stroke-width: 0.6"/>
      </g>
     </g>
     <g id="text_2">
      <!-- 10 -->
      <g transform="translate(69.9005 144.286125)scale(0.08 -0.08)">
       <defs>
        <path id="DejaVuSans-31" d="M 794 531 
L 1825 531 
L 1825 4091 
L 703 3866 
L 703 4441 
L 1819 4666 
L 2450 4666 
L 2450 531 
L 3481 531 
L 3481 0 
L 794 0 
L 794 531 
z
" transform="scale(0.015625)"/>
       </defs>
       <use xlink:href="#DejaVuSans-31"/>
       <use xlink:href="#DejaVuSans-30" x="63.623047"/>
      </g>
     </g>
    </g>
    <g id="xtick_3">
     <g id="line2d_3">
      <g>
       <use xlink:href="#m4cd371f86f" x="106.2385" y="132.207375" style="stroke: #000000; stroke-width: 0.6"/>
      </g>
     </g>
     <g id="text_3">
      <!-- 20 -->
      <g transform="translate(101.1485 144.286125)scale(0.08 -0.08)">
       <defs>
        <path id="DejaVuSans-32" d="M 1228 531 
L 3431 531 
L 3431 0 
L 469 0 
L 469 531 
Q 828 903 1448 1529 
Q 2069 2156 2228 2338 
Q 2531 2678 2651 2914 
Q 2772 3150 2772 3378 
Q 2772 3750 2511 3984 
Q 2250 4219 1831 4219 
Q 1534 4219 1204 4116 
Q 875 4013 500 3803 
L 500 4441 
Q 881 4594 1212 4672 
Q 1544 4750 1819 4750 
Q 2544 4750 2975 4387 
Q 3406 4025 3406 3419 
Q 3406 3131 3298 2873 
Q 3191 2616 2906 2266 
Q 2828 2175 2409 1742 
Q 1991 1309 1228 531 
z
" transform="scale(0.015625)"/>
       </defs>
       <use xlink:href="#DejaVuSans-32"/>
       <use xlink:href="#DejaVuSans-30" x="63.623047"/>
      </g>
     </g>
    </g>
    <g id="xtick_4">
     <g id="line2d_4">
      <g>
       <use xlink:href="#m4cd371f86f" x="137.4865" y="132.207375" style="stroke: #000000; stroke-width: 0.6"/>
      </g>
     </g>
     <g id="text_4">
      <!-- 30 -->
      <g transform="translate(132.3965 144.286125)scale(0.08 -0.08)">
       <defs>
        <path id="DejaVuSans-33" d="M 2597 2516 
Q 3050 2419 3304 2112 
Q 3559 1806 3559 1356 
Q 3559 666 3084 287 
Q 2609 -91 1734 -91 
Q 1441 -91 1130 -33 
Q 819 25 488 141 
L 488 750 
Q 750 597 1062 519 
Q 1375 441 1716 441 
Q 2309 441 2620 675 
Q 2931 909 2931 1356 
Q 2931 1769 2642 2001 
Q 2353 2234 1838 2234 
L 1294 2234 
L 1294 2753 
L 1863 2753 
Q 2328 2753 2575 2939 
Q 2822 3125 2822 3475 
Q 2822 3834 2567 4026 
Q 2313 4219 1838 4219 
Q 1578 4219 1281 4162 
Q 984 4106 628 3988 
L 628 4550 
Q 988 4650 1302 4700 
Q 1616 4750 1894 4750 
Q 2613 4750 3031 4423 
Q 3450 4097 3450 3541 
Q 3450 3153 3228 2886 
Q 3006 2619 2597 2516 
z
" transform="scale(0.015625)"/>
       </defs>
       <use xlink:href="#DejaVuSans-33"/>
       <use xlink:href="#DejaVuSans-30" x="63.623047"/>
      </g>
     </g>
    </g>
    <g id="xtick_5">
     <g id="line2d_5">
      <g>
       <use xlink:href="#m4cd371f86f" x="168.7345" y="132.207375" style="stroke: #000000; stroke-width: 0.6"/>
      </g>
     </g>
     <g id="text_5">
      <!-- 40 -->
      <g transform="translate(163.6445 144.286125)scale(0.08 -0.08)">
       <defs>
        <path id="DejaVuSans-34" d="M 2419 4116 
L 825 1625 
L 2419 1625 
L 2419 4116 
z
M 2253 4666 
L 3047 4666 
L 3047 1625 
L 3713 1625 
L 3713 1100 
L 3047 1100 
L 3047 0 
L 2419 0 
L 2419 1100 
L 313 1100 
L 313 1709 
L 2253 4666 
z
" transform="scale(0.015625)"/>
       </defs>
       <use xlink:href="#DejaVuSans-34"/>
       <use xlink:href="#DejaVuSans-30" x="63.623047"/>
      </g>
     </g>
    </g>
    <g id="xtick_6">
     <g id="line2d_6">
      <g>
       <use xlink:href="#m4cd371f86f" x="199.9825" y="132.207375" style="stroke: #000000; stroke-width: 0.6"/>
      </g>
     </g>
     <g id="text_6">
      <!-- 50 -->
      <g transform="translate(194.8925 144.286125)scale(0.08 -0.08)">
       <defs>
        <path id="DejaVuSans-35" d="M 691 4666 
L 3169 4666 
L 3169 4134 
L 1269 4134 
L 1269 2991 
Q 1406 3038 1543 3061 
Q 1681 3084 1819 3084 
Q 2600 3084 3056 2656 
Q 3513 2228 3513 1497 
Q 3513 744 3044 326 
Q 2575 -91 1722 -91 
Q 1428 -91 1123 -41 
Q 819 9 494 109 
L 494 744 
Q 775 591 1075 516 
Q 1375 441 1709 441 
Q 2250 441 2565 725 
Q 2881 1009 2881 1497 
Q 2881 1984 2565 2268 
Q 2250 2553 1709 2553 
Q 1456 2553 1204 2497 
Q 953 2441 691 2322 
L 691 4666 
z
" transform="scale(0.015625)"/>
       </defs>
       <use xlink:href="#DejaVuSans-35"/>
       <use xlink:href="#DejaVuSans-30" x="63.623047"/>
      </g>
     </g>
    </g>
    <g id="text_7">
     <!-- k -->
     <g transform="translate(119.54625 156.028625)scale(0.08 -0.08)">
      <defs>
       <path id="DejaVuSans-6b" d="M 581 4863 
L 1159 4863 
L 1159 1991 
L 2875 3500 
L 3609 3500 
L 1753 1863 
L 3688 0 
L 2938 0 
L 1159 1709 
L 1159 0 
L 581 0 
L 581 4863 
z
" transform="scale(0.015625)"/>
      </defs>
      <use xlink:href="#DejaVuSans-6b"/>
     </g>
    </g>
   </g>
   <g id="matplotlib.axis_2">
    <g id="ytick_1">
     <g id="line2d_7">
      <defs>
       <path id="m56f3a9ced1" d="M 0 0 
L -2.5 0 
" style="stroke: #000000; stroke-width: 0.6"/>
      </defs>
      <g>
       <use xlink:href="#m56f3a9ced1" x="43.7425" y="132.207375" style="stroke: #000000; stroke-width: 0.6"/>
      </g>
     </g>
     <g id="text_8">
      <!-- $\mathdefault{10^{-3}}$ -->
      <g transform="translate(18.9425 135.24675)scale(0.08 -0.08)">
       <defs>
        <path id="DejaVuSans-2212" d="M 678 2272 
L 4684 2272 
L 4684 1741 
L 678 1741 
L 678 2272 
z
" transform="scale(0.015625)"/>
       </defs>
       <use xlink:href="#DejaVuSans-31" transform="translate(0 0.765625)"/>
       <use xlink:href="#DejaVuSans-30" transform="translate(63.623047 0.765625)"/>
       <use xlink:href="#DejaVuSans-2212" transform="translate(128.203125 39.046875)scale(0.7)"/>
       <use xlink:href="#DejaVuSans-33" transform="translate(186.855469 39.046875)scale(0.7)"/>
      </g>
     </g>
    </g>
    <g id="ytick_2">
     <g id="line2d_8">
      <g>
       <use xlink:href="#m56f3a9ced1" x="43.7425" y="101.715375" style="stroke: #000000; stroke-width: 0.6"/>
      </g>
     </g>
     <g id="text_9">
      <!-- $\mathdefault{10^{-2}}$ -->
      <g transform="translate(18.9425 104.75475)scale(0.08 -0.08)">
       <use xlink:href="#DejaVuSans-31" transform="translate(0 0.765625)"/>
       <use xlink:href="#DejaVuSans-30" transform="translate(63.623047 0.765625)"/>
       <use xlink:href="#DejaVuSans-2212" transform="translate(128.203125 39.046875)scale(0.7)"/>
       <use xlink:href="#DejaVuSans-32" transform="translate(186.855469 39.046875)scale(0.7)"/>
      </g>
     </g>
    </g>
    <g id="ytick_3">
     <g id="line2d_9">
      <g>
       <use xlink:href="#m56f3a9ced1" x="43.7425" y="71.223375" style="stroke: #000000; stroke-width: 0.6"/>
      </g>
     </g>
     <g id="text_10">
      <!-- $\mathdefault{10^{-1}}$ -->
      <g transform="translate(18.9425 74.26275)scale(0.08 -0.08)">
       <use xlink:href="#DejaVuSans-31" transform="translate(0 0.684375)"/>
       <use xlink:href="#DejaVuSans-30" transform="translate(63.623047 0.684375)"/>
       <use xlink:href="#DejaVuSans-2212" transform="translate(128.203125 38.965625)scale(0.7)"/>
       <use xlink:href="#DejaVuSans-31" transform="translate(186.855469 38.965625)scale(0.7)"/>
      </g>
     </g>
    </g>
    <g id="ytick_4">
     <g id="line2d_10">
      <g>
       <use xlink:href="#m56f3a9ced1" x="43.7425" y="40.731375" style="stroke: #000000; stroke-width: 0.6"/>
      </g>
     </g>
     <g id="text_11">
      <!-- $\mathdefault{10^{0}}$ -->
      <g transform="translate(23.6625 43.77075)scale(0.08 -0.08)">
       <use xlink:href="#DejaVuSans-31" transform="translate(0 0.765625)"/>
       <use xlink:href="#DejaVuSans-30" transform="translate(63.623047 0.765625)"/>
       <use xlink:href="#DejaVuSans-30" transform="translate(128.203125 39.046875)scale(0.7)"/>
      </g>
     </g>
    </g>
    <g id="ytick_5">
     <g id="line2d_11">
      <g>
       <use xlink:href="#m56f3a9ced1" x="43.7425" y="10.239375" style="stroke: #000000; stroke-width: 0.6"/>
      </g>
     </g>
     <g id="text_12">
      <!-- $\mathdefault{10^{1}}$ -->
      <g transform="translate(23.6625 13.27875)scale(0.08 -0.08)">
       <use xlink:href="#DejaVuSans-31" transform="translate(0 0.684375)"/>
       <use xlink:href="#DejaVuSans-30" transform="translate(63.623047 0.684375)"/>
       <use xlink:href="#DejaVuSans-31" transform="translate(128.203125 38.965625)scale(0.7)"/>
      </g>
     </g>
    </g>
    <g id="ytick_6">
     <g id="line2d_12">
      <defs>
       <path id="mf6152e7c63" d="M 0 0 
L -1.5 0 
" style="stroke: #000000; stroke-width: 0.4"/>
      </defs>
      <g>
       <use xlink:href="#mf6152e7c63" x="43.7425" y="123.028368" style="stroke: #000000; stroke-width: 0.4"/>
      </g>
     </g>
    </g>
    <g id="ytick_7">
     <g id="line2d_13">
      <g>
       <use xlink:href="#mf6152e7c63" x="43.7425" y="117.658994" style="stroke: #000000; stroke-width: 0.4"/>
      </g>
     </g>
    </g>
    <g id="ytick_8">
     <g id="line2d_14">
      <g>
       <use xlink:href="#mf6152e7c63" x="43.7425" y="113.849362" style="stroke: #000000; stroke-width: 0.4"/>
      </g>
     </g>
    </g>
    <g id="ytick_9">
     <g id="line2d_15">
      <g>
       <use xlink:href="#mf6152e7c63" x="43.7425" y="110.894382" style="stroke: #000000; stroke-width: 0.4"/>
      </g>
     </g>
    </g>
    <g id="ytick_10">
     <g id="line2d_16">
      <g>
       <use xlink:href="#mf6152e7c63" x="43.7425" y="108.479987" style="stroke: #000000; stroke-width: 0.4"/>
      </g>
     </g>
    </g>
    <g id="ytick_11">
     <g id="line2d_17">
      <g>
       <use xlink:href="#mf6152e7c63" x="43.7425" y="106.438646" style="stroke: #000000; stroke-width: 0.4"/>
      </g>
     </g>
    </g>
    <g id="ytick_12">
     <g id="line2d_18">
      <g>
       <use xlink:href="#mf6152e7c63" x="43.7425" y="104.670355" style="stroke: #000000; stroke-width: 0.4"/>
      </g>
     </g>
    </g>
    <g id="ytick_13">
     <g id="line2d_19">
      <g>
       <use xlink:href="#mf6152e7c63" x="43.7425" y="103.110612" style="stroke: #000000; stroke-width: 0.4"/>
      </g>
     </g>
    </g>
    <g id="ytick_14">
     <g id="line2d_20">
      <g>
       <use xlink:href="#mf6152e7c63" x="43.7425" y="92.536368" style="stroke: #000000; stroke-width: 0.4"/>
      </g>
     </g>
    </g>
    <g id="ytick_15">
     <g id="line2d_21">
      <g>
       <use xlink:href="#mf6152e7c63" x="43.7425" y="87.166994" style="stroke: #000000; stroke-width: 0.4"/>
      </g>
     </g>
    </g>
    <g id="ytick_16">
     <g id="line2d_22">
      <g>
       <use xlink:href="#mf6152e7c63" x="43.7425" y="83.357362" style="stroke: #000000; stroke-width: 0.4"/>
      </g>
     </g>
    </g>
    <g id="ytick_17">
     <g id="line2d_23">
      <g>
       <use xlink:href="#mf6152e7c63" x="43.7425" y="80.402382" style="stroke: #000000; stroke-width: 0.4"/>
      </g>
     </g>
    </g>
    <g id="ytick_18">
     <g id="line2d_24">
      <g>
       <use xlink:href="#mf6152e7c63" x="43.7425" y="77.987987" style="stroke: #000000; stroke-width: 0.4"/>
      </g>
     </g>
    </g>
    <g id="ytick_19">
     <g id="line2d_25">
      <g>
       <use xlink:href="#mf6152e7c63" x="43.7425" y="75.946646" style="stroke: #000000; stroke-width: 0.4"/>
      </g>
     </g>
    </g>
    <g id="ytick_20">
     <g id="line2d_26">
      <g>
       <use xlink:href="#mf6152e7c63" x="43.7425" y="74.178355" style="stroke: #000000; stroke-width: 0.4"/>
      </g>
     </g>
    </g>
    <g id="ytick_21">
     <g id="line2d_27">
      <g>
       <use xlink:href="#mf6152e7c63" x="43.7425" y="72.618612" style="stroke: #000000; stroke-width: 0.4"/>
      </g>
     </g>
    </g>
    <g id="ytick_22">
     <g id="line2d_28">
      <g>
       <use xlink:href="#mf6152e7c63" x="43.7425" y="62.044368" style="stroke: #000000; stroke-width: 0.4"/>
      </g>
     </g>
    </g>
    <g id="ytick_23">
     <g id="line2d_29">
      <g>
       <use xlink:href="#mf6152e7c63" x="43.7425" y="56.674994" style="stroke: #000000; stroke-width: 0.4"/>
      </g>
     </g>
    </g>
    <g id="ytick_24">
     <g id="line2d_30">
      <g>
       <use xlink:href="#mf6152e7c63" x="43.7425" y="52.865362" style="stroke: #000000; stroke-width: 0.4"/>
      </g>
     </g>
    </g>
    <g id="ytick_25">
     <g id="line2d_31">
      <g>
       <use xlink:href="#mf6152e7c63" x="43.7425" y="49.910382" style="stroke: #000000; stroke-width: 0.4"/>
      </g>
     </g>
    </g>
    <g id="ytick_26">
     <g id="line2d_32">
      <g>
       <use xlink:href="#mf6152e7c63" x="43.7425" y="47.495987" style="stroke: #000000; stroke-width: 0.4"/>
      </g>
     </g>
    </g>
    <g id="ytick_27">
     <g id="line2d_33">
      <g>
       <use xlink:href="#mf6152e7c63" x="43.7425" y="45.454646" style="stroke: #000000; stroke-width: 0.4"/>
      </g>
     </g>
    </g>
    <g id="ytick_28">
     <g id="line2d_34">
      <g>
       <use xlink:href="#mf6152e7c63" x="43.7425" y="43.686355" style="stroke: #000000; stroke-width: 0.4"/>
      </g>
     </g>
    </g>
    <g id="ytick_29">
     <g id="line2d_35">
      <g>
       <use xlink:href="#mf6152e7c63" x="43.7425" y="42.126612" style="stroke: #000000; stroke-width: 0.4"/>
      </g>
     </g>
    </g>
    <g id="ytick_30">
     <g id="line2d_36">
      <g>
       <use xlink:href="#mf6152e7c63" x="43.7425" y="31.552368" style="stroke: #000000; stroke-width: 0.4"/>
      </g>
     </g>
    </g>
    <g id="ytick_31">
     <g id="line2d_37">
      <g>
       <use xlink:href="#mf6152e7c63" x="43.7425" y="26.182994" style="stroke: #000000; stroke-width: 0.4"/>
      </g>
     </g>
    </g>
    <g id="ytick_32">
     <g id="line2d_38">
      <g>
       <use xlink:href="#mf6152e7c63" x="43.7425" y="22.373362" style="stroke: #000000; stroke-width: 0.4"/>
      </g>
     </g>
    </g>
    <g id="ytick_33">
     <g id="line2d_39">
      <g>
       <use xlink:href="#mf6152e7c63" x="43.7425" y="19.418382" style="stroke: #000000; stroke-width: 0.4"/>
      </g>
     </g>
    </g>
    <g id="ytick_34">
     <g id="line2d_40">
      <g>
       <use xlink:href="#mf6152e7c63" x="43.7425" y="17.003987" style="stroke: #000000; stroke-width: 0.4"/>
      </g>
     </g>
    </g>
    <g id="ytick_35">
     <g id="line2d_41">
      <g>
       <use xlink:href="#mf6152e7c63" x="43.7425" y="14.962646" style="stroke: #000000; stroke-width: 0.4"/>
      </g>
     </g>
    </g>
    <g id="ytick_36">
     <g id="line2d_42">
      <g>
       <use xlink:href="#mf6152e7c63" x="43.7425" y="13.194355" style="stroke: #000000; stroke-width: 0.4"/>
      </g>
     </g>
    </g>
    <g id="ytick_37">
     <g id="line2d_43">
      <g>
       <use xlink:href="#mf6152e7c63" x="43.7425" y="11.634612" style="stroke: #000000; stroke-width: 0.4"/>
      </g>
     </g>
    </g>
    <g id="text_13">
     <!-- residual -->
     <g transform="translate(13.27875 87.070875)rotate(-90)scale(0.08 -0.08)">
      <defs>
       <path id="DejaVuSans-72" d="M 2631 2963 
Q 2534 3019 2420 3045 
Q 2306 3072 2169 3072 
Q 1681 3072 1420 2755 
Q 1159 2438 1159 1844 
L 1159 0 
L 581 0 
L 581 3500 
L 1159 3500 
L 1159 2956 
Q 1341 3275 1631 3429 
Q 1922 3584 2338 3584 
Q 2397 3584 2469 3576 
Q 2541 3569 2628 3553 
L 2631 2963 
z
" transform="scale(0.015625)"/>
       <path id="DejaVuSans-65" d="M 3597 1894 
L 3597 1613 
L 953 1613 
Q 991 1019 1311 708 
Q 1631 397 2203 397 
Q 2534 397 2845 478 
Q 3156 559 3463 722 
L 3463 178 
Q 3153 47 2828 -22 
Q 2503 -91 2169 -91 
Q 1331 -91 842 396 
Q 353 884 353 1716 
Q 353 2575 817 3079 
Q 1281 3584 2069 3584 
Q 2775 3584 3186 3129 
Q 3597 2675 3597 1894 
z
M 3022 2063 
Q 3016 2534 2758 2815 
Q 2500 3097 2075 3097 
Q 1594 3097 1305 2825 
Q 1016 2553 972 2059 
L 3022 2063 
z
" transform="scale(0.015625)"/>
       <path id="DejaVuSans-73" d="M 2834 3397 
L 2834 2853 
Q 2591 2978 2328 3040 
Q 2066 3103 1784 3103 
Q 1356 3103 1142 2972 
Q 928 2841 928 2578 
Q 928 2378 1081 2264 
Q 1234 2150 1697 2047 
L 1894 2003 
Q 2506 1872 2764 1633 
Q 3022 1394 3022 966 
Q 3022 478 2636 193 
Q 2250 -91 1575 -91 
Q 1294 -91 989 -36 
Q 684 19 347 128 
L 347 722 
Q 666 556 975 473 
Q 1284 391 1588 391 
Q 1994 391 2212 530 
Q 2431 669 2431 922 
Q 2431 1156 2273 1281 
Q 2116 1406 1581 1522 
L 1381 1569 
Q 847 1681 609 1914 
Q 372 2147 372 2553 
Q 372 3047 722 3315 
Q 1072 3584 1716 3584 
Q 2034 3584 2315 3537 
Q 2597 3491 2834 3397 
z
" transform="scale(0.015625)"/>
       <path id="DejaVuSans-69" d="M 603 3500 
L 1178 3500 
L 1178 0 
L 603 0 
L 603 3500 
z
M 603 4863 
L 1178 4863 
L 1178 4134 
L 603 4134 
L 603 4863 
z
" transform="scale(0.015625)"/>
       <path id="DejaVuSans-64" d="M 2906 2969 
L 2906 4863 
L 3481 4863 
L 3481 0 
L 2906 0 
L 2906 525 
Q 2725 213 2448 61 
Q 2172 -91 1784 -91 
Q 1150 -91 751 415 
Q 353 922 353 1747 
Q 353 2572 751 3078 
Q 1150 3584 1784 3584 
Q 2172 3584 2448 3432 
Q 2725 3281 2906 2969 
z
M 947 1747 
Q 947 1113 1208 752 
Q 1469 391 1925 391 
Q 2381 391 2643 752 
Q 2906 1113 2906 1747 
Q 2906 2381 2643 2742 
Q 2381 3103 1925 3103 
Q 1469 3103 1208 2742 
Q 947 2381 947 1747 
z
" transform="scale(0.015625)"/>
       <path id="DejaVuSans-75" d="M 544 1381 
L 544 3500 
L 1119 3500 
L 1119 1403 
Q 1119 906 1312 657 
Q 1506 409 1894 409 
Q 2359 409 2629 706 
Q 2900 1003 2900 1516 
L 2900 3500 
L 3475 3500 
L 3475 0 
L 2900 0 
L 2900 538 
Q 2691 219 2414 64 
Q 2138 -91 1772 -91 
Q 1169 -91 856 284 
Q 544 659 544 1381 
z
M 1991 3584 
L 1991 3584 
z
" transform="scale(0.015625)"/>
       <path id="DejaVuSans-61" d="M 2194 1759 
Q 1497 1759 1228 1600 
Q 959 1441 959 1056 
Q 959 750 1161 570 
Q 1363 391 1709 391 
Q 2188 391 2477 730 
Q 2766 1069 2766 1631 
L 2766 1759 
L 2194 1759 
z
M 3341 1997 
L 3341 0 
L 2766 0 
L 2766 531 
Q 2569 213 2275 61 
Q 1981 -91 1556 -91 
Q 1019 -91 701 211 
Q 384 513 384 1019 
Q 384 1609 779 1909 
Q 1175 2209 1959 2209 
L 2766 2209 
L 2766 2266 
Q 2766 2663 2505 2880 
Q 2244 3097 1772 3097 
Q 1472 3097 1187 3025 
Q 903 2953 641 2809 
L 641 3341 
Q 956 3463 1253 3523 
Q 1550 3584 1831 3584 
Q 2591 3584 2966 3190 
Q 3341 2797 3341 1997 
z
" transform="scale(0.015625)"/>
       <path id="DejaVuSans-6c" d="M 603 4863 
L 1178 4863 
L 1178 0 
L 603 0 
L 603 4863 
z
" transform="scale(0.015625)"/>
      </defs>
      <use xlink:href="#DejaVuSans-72"/>
      <use xlink:href="#DejaVuSans-65" x="38.863281"/>
      <use xlink:href="#DejaVuSans-73" x="100.386719"/>
      <use xlink:href="#DejaVuSans-69" x="152.486328"/>
      <use xlink:href="#DejaVuSans-64" x="180.269531"/>
      <use xlink:href="#DejaVuSans-75" x="243.746094"/>
      <use xlink:href="#DejaVuSans-61" x="307.125"/>
      <use xlink:href="#DejaVuSans-6c" x="368.404297"/>
     </g>
    </g>
   </g>
   <g id="line2d_44">
    <path d="M 43.7425 33.931942 
L 46.8673 38.41872 
L 49.9921 42.814965 
L 53.1169 47.047816 
L 56.2417 51.000905 
L 59.3665 54.515241 
L 62.4913 57.427134 
L 65.6161 59.645616 
L 68.7409 61.210287 
L 71.8657 62.264908 
L 74.9905 62.97782 
L 78.1153 63.484774 
L 81.2401 63.875489 
L 84.3649 64.203039 
L 87.4897 64.496975 
L 90.6145 64.77322 
L 93.7393 65.040211 
L 96.8641 65.302376 
L 99.9889 65.562027 
L 103.1137 65.82037 
L 106.2385 66.078034 
L 109.3633 66.335344 
L 112.4881 66.592471 
L 115.6129 66.849502 
L 118.7377 67.106483 
L 121.8625 67.363438 
L 124.9873 67.62038 
L 128.1121 67.877315 
L 131.2369 68.134246 
L 134.3617 68.391176 
L 137.4865 68.648104 
L 140.6113 68.905032 
L 143.7361 69.16196 
L 146.8609 69.418888 
L 149.9857 69.675815 
L 153.1105 69.932743 
L 156.2353 70.18967 
L 159.3601 70.446598 
L 162.4849 70.703525 
L 165.6097 70.960453 
L 168.7345 71.21738 
L 171.8593 71.474307 
L 174.9841 71.731235 
L 178.1089 71.988162 
L 181.2337 72.24509 
L 184.3585 72.502017 
L 187.4833 72.758945 
L 190.6081 73.015872 
L 193.7329 73.2728 
L 196.8577 73.529727 
" clip-path="url(#pe6980352a7)" style="fill: none; stroke: #ff1f5b; stroke-linecap: square"/>
   </g>
   <g id="line2d_45">
    <path d="M 43.7425 33.931942 
L 46.8673 40.292311 
L 49.9921 48.943272 
L 53.1169 56.614481 
L 56.2417 62.436812 
L 59.3665 66.015144 
L 62.4913 68.268386 
L 65.6161 69.79652 
L 68.7409 71.253522 
L 71.8657 72.493357 
L 74.9905 73.875799 
L 78.1153 75.073852 
L 81.2401 76.45998 
L 84.3649 77.637537 
L 87.4897 79.03589 
L 90.6145 80.1918 
L 93.7393 81.604375 
L 96.8641 82.734809 
L 99.9889 84.162893 
L 103.1137 85.263084 
L 106.2385 86.707662 
L 109.3633 87.771976 
L 112.4881 89.233575 
L 115.6129 90.255451 
L 118.7377 91.73386 
L 121.8625 92.705782 
L 124.9873 94.199681 
L 128.1121 95.113257 
L 131.2369 96.619751 
L 134.3617 97.465946 
L 137.4865 98.980052 
L 140.6113 99.749661 
L 143.7361 101.263816 
L 146.8609 101.948226 
L 149.9857 103.45197 
L 153.1105 104.04423 
L 156.2353 105.524253 
L 159.3601 106.020338 
L 162.4849 107.461097 
L 165.6097 107.86111 
L 168.7345 109.246102 
L 171.8593 109.555051 
L 174.9841 110.868616 
L 178.1089 111.096394 
L 181.2337 112.325634 
L 184.3585 112.486072 
L 187.4833 113.622375 
L 190.6081 113.731559 
L 193.7329 114.771296 
L 196.8577 114.845628 
" clip-path="url(#pe6980352a7)" style="fill: none; stroke: #00cd6c; stroke-linecap: square"/>
   </g>
   <g id="line2d_46">
    <path d="M 43.7425 33.931942 
L 46.8673 40.377269 
L 49.9921 49.485277 
L 53.1169 58.259855 
L 56.2417 67.090086 
L 59.3665 73.942142 
L 62.4913 80.452743 
L 65.6161 82.169214 
L 68.7409 84.6319 
L 71.8657 84.459376 
L 74.9905 85.471759 
L 78.1153 85.429528 
L 81.2401 86.019637 
L 84.3649 86.157246 
L 87.4897 86.58717 
L 90.6145 86.817376 
L 93.7393 87.179374 
L 96.8641 87.452528 
L 99.9889 87.784749 
L 103.1137 88.077346 
L 106.2385 88.396367 
L 109.3633 88.697698 
L 112.4881 89.010841 
L 115.6129 89.316083 
L 118.7377 89.626604 
L 121.8625 89.933595 
L 124.9873 90.242945 
L 128.1121 90.550718 
L 131.2369 90.859545 
L 134.3617 91.167667 
L 137.4865 91.476261 
L 140.6113 91.784539 
L 143.7361 92.093028 
L 146.8609 92.401376 
L 149.9857 92.709819 
L 153.1105 93.018198 
L 156.2353 93.32662 
L 159.3601 93.635013 
L 162.4849 93.943425 
L 165.6097 94.251825 
L 168.7345 94.560233 
L 171.8593 94.868635 
L 174.9841 95.177042 
L 178.1089 95.485445 
L 181.2337 95.793851 
L 184.3585 96.102255 
L 187.4833 96.41066 
L 190.6081 96.719064 
L 193.7329 97.027469 
L 196.8577 97.335874 
" clip-path="url(#pe6980352a7)" style="fill: none; stroke: #009ade; stroke-linecap: square"/>
   </g>
   <g id="line2d_47">
    <path d="M 43.7425 33.931942 
L 46.8673 40.276849 
L 49.9921 49.050475 
L 53.1169 56.824614 
L 56.2417 62.404858 
L 59.3665 65.378356 
L 62.4913 66.708729 
L 65.6161 67.407829 
L 68.7409 67.919973 
L 71.8657 68.381955 
L 74.9905 68.832123 
L 78.1153 69.28089 
L 81.2401 69.730723 
L 84.3649 70.181935 
L 87.4897 70.634328 
L 90.6145 71.087627 
L 93.7393 71.541592 
L 96.8641 71.996036 
L 99.9889 72.450822 
L 103.1137 72.905848 
L 106.2385 73.361045 
L 109.3633 73.816361 
L 112.4881 74.27176 
L 115.6129 74.727218 
L 118.7377 75.182718 
L 121.8625 75.638246 
L 124.9873 76.093794 
L 128.1121 76.549356 
L 131.2369 77.004928 
L 134.3617 77.460507 
L 137.4865 77.91609 
L 140.6113 78.371677 
L 143.7361 78.827266 
L 146.8609 79.282857 
L 149.9857 79.738449 
L 153.1105 80.194042 
L 156.2353 80.649636 
L 159.3601 81.105229 
L 162.4849 81.560823 
L 165.6097 82.016418 
L 168.7345 82.472012 
L 171.8593 82.927607 
L 174.9841 83.383201 
L 178.1089 83.838796 
L 181.2337 84.29439 
L 184.3585 84.749985 
L 187.4833 85.20558 
L 190.6081 85.661174 
L 193.7329 86.116769 
L 196.8577 86.572364 
" clip-path="url(#pe6980352a7)" style="fill: none; stroke: #af58ba; stroke-linecap: square"/>
   </g>
   <g id="line2d_48">
    <path d="M 43.7425 33.931942 
L 46.8673 40.276849 
L 49.9921 49.050475 
L 53.1169 56.824614 
L 56.2417 62.404858 
L 59.3665 65.378356 
L 62.4913 66.708729 
L 65.6161 67.407829 
L 68.7409 67.919973 
L 71.8657 68.381955 
L 74.9905 68.832123 
L 78.1153 69.28089 
L 81.2401 69.730723 
L 84.3649 70.181935 
L 87.4897 70.634328 
L 90.6145 71.087627 
L 93.7393 71.541592 
L 96.8641 71.996036 
L 99.9889 72.450822 
L 103.1137 72.905848 
L 106.2385 73.361045 
L 109.3633 73.816361 
L 112.4881 74.27176 
L 115.6129 74.727218 
L 118.7377 75.182718 
L 121.8625 75.638246 
L 124.9873 76.093794 
L 128.1121 76.549356 
L 131.2369 77.004928 
L 134.3617 77.460507 
L 137.4865 77.91609 
L 140.6113 78.371677 
L 143.7361 78.827266 
L 146.8609 79.282857 
L 149.9857 79.738449 
L 153.1105 80.194042 
L 156.2353 80.649636 
L 159.3601 81.105229 
L 162.4849 81.560823 
L 165.6097 82.016418 
L 168.7345 82.472012 
L 171.8593 82.927607 
L 174.9841 83.383201 
L 178.1089 83.838796 
L 181.2337 84.29439 
L 184.3585 84.749985 
L 187.4833 85.20558 
L 190.6081 85.661174 
L 193.7329 86.116769 
L 196.8577 86.572364 
" clip-path="url(#pe6980352a7)" style="fill: none; stroke: #ffc61e; stroke-linecap: square"/>
   </g>
   <g id="line2d_49">
    <path d="M 43.7425 33.931942 
L 46.8673 40.276849 
L 49.9921 49.050475 
L 53.1169 56.824614 
L 56.2417 62.404858 
L 59.3665 65.378356 
L 62.4913 66.708729 
L 65.6161 67.407829 
L 68.7409 67.919973 
L 71.8657 68.381955 
L 74.9905 68.832123 
L 78.1153 69.28089 
L 81.2401 69.730723 
L 84.3649 70.181935 
L 87.4897 70.634328 
L 90.6145 71.087627 
L 93.7393 71.541592 
L 96.8641 71.996036 
L 99.9889 72.450822 
L 103.1137 72.905848 
L 106.2385 73.361045 
L 109.3633 73.816361 
L 112.4881 74.27176 
L 115.6129 74.727218 
L 118.7377 75.182718 
L 121.8625 75.638246 
L 124.9873 76.093794 
L 128.1121 76.549356 
L 131.2369 77.004928 
L 134.3617 77.460507 
L 137.4865 77.91609 
L 140.6113 78.371677 
L 143.7361 78.827266 
L 146.8609 79.282857 
L 149.9857 79.738449 
L 153.1105 80.194042 
L 156.2353 80.649636 
L 159.3601 81.105229 
L 162.4849 81.560823 
L 165.6097 82.016418 
L 168.7345 82.472012 
L 171.8593 82.927607 
L 174.9841 83.383201 
L 178.1089 83.838796 
L 181.2337 84.29439 
L 184.3585 84.749985 
L 187.4833 85.20558 
L 190.6081 85.661174 
L 193.7329 86.116769 
L 196.8577 86.572364 
" clip-path="url(#pe6980352a7)" style="fill: none; stroke: #f28522; stroke-linecap: square"/>
   </g>
   <g id="patch_3">
    <path d="M 43.7425 132.207375 
L 43.7425 10.239375 
" style="fill: none; stroke: #000000; stroke-width: 0.6; stroke-linejoin: miter; stroke-linecap: square"/>
   </g>
   <g id="patch_4">
    <path d="M 43.7425 132.207375 
L 199.9825 132.207375 
" style="fill: none; stroke: #000000; stroke-width: 0.6; stroke-linejoin: miter; stroke-linecap: square"/>
   </g>
   <g id="legend_1">
    <g id="line2d_50">
     <path d="M 214.9945 32.914925 
L 222.3945 32.914925 
L 229.7945 32.914925 
" style="fill: none; stroke: #ff1f5b; stroke-linecap: square"/>
    </g>
    <g id="text_14">
     <!-- 0 levels -->
     <g transform="translate(236.1945 35.714925)scale(0.08 -0.08)">
      <defs>
       <path id="DejaVuSans-20" transform="scale(0.015625)"/>
       <path id="DejaVuSans-76" d="M 191 3500 
L 800 3500 
L 1894 563 
L 2988 3500 
L 3597 3500 
L 2284 0 
L 1503 0 
L 191 3500 
z
" transform="scale(0.015625)"/>
      </defs>
      <use xlink:href="#DejaVuSans-30"/>
      <use xlink:href="#DejaVuSans-20" x="63.623047"/>
      <use xlink:href="#DejaVuSans-6c" x="95.410156"/>
      <use xlink:href="#DejaVuSans-65" x="123.193359"/>
      <use xlink:href="#DejaVuSans-76" x="184.716797"/>
      <use xlink:href="#DejaVuSans-65" x="243.896484"/>
      <use xlink:href="#DejaVuSans-6c" x="305.419922"/>
      <use xlink:href="#DejaVuSans-73" x="333.203125"/>
     </g>
    </g>
    <g id="line2d_51">
     <path d="M 214.9945 44.657425 
L 222.3945 44.657425 
L 229.7945 44.657425 
" style="fill: none; stroke: #00cd6c; stroke-linecap: square"/>
    </g>
    <g id="text_15">
     <!-- 1 levels -->
     <g transform="translate(236.1945 47.457425)scale(0.08 -0.08)">
      <use xlink:href="#DejaVuSans-31"/>
      <use xlink:href="#DejaVuSans-20" x="63.623047"/>
      <use xlink:href="#DejaVuSans-6c" x="95.410156"/>
      <use xlink:href="#DejaVuSans-65" x="123.193359"/>
      <use xlink:href="#DejaVuSans-76" x="184.716797"/>
      <use xlink:href="#DejaVuSans-65" x="243.896484"/>
      <use xlink:href="#DejaVuSans-6c" x="305.419922"/>
      <use xlink:href="#DejaVuSans-73" x="333.203125"/>
     </g>
    </g>
    <g id="line2d_52">
     <path d="M 214.9945 56.399925 
L 222.3945 56.399925 
L 229.7945 56.399925 
" style="fill: none; stroke: #009ade; stroke-linecap: square"/>
    </g>
    <g id="text_16">
     <!-- 2 levels -->
     <g transform="translate(236.1945 59.199925)scale(0.08 -0.08)">
      <use xlink:href="#DejaVuSans-32"/>
      <use xlink:href="#DejaVuSans-20" x="63.623047"/>
      <use xlink:href="#DejaVuSans-6c" x="95.410156"/>
      <use xlink:href="#DejaVuSans-65" x="123.193359"/>
      <use xlink:href="#DejaVuSans-76" x="184.716797"/>
      <use xlink:href="#DejaVuSans-65" x="243.896484"/>
      <use xlink:href="#DejaVuSans-6c" x="305.419922"/>
      <use xlink:href="#DejaVuSans-73" x="333.203125"/>
     </g>
    </g>
    <g id="line2d_53">
     <path d="M 214.9945 68.142425 
L 222.3945 68.142425 
L 229.7945 68.142425 
" style="fill: none; stroke: #af58ba; stroke-linecap: square"/>
    </g>
    <g id="text_17">
     <!-- 3 levels -->
     <g transform="translate(236.1945 70.942425)scale(0.08 -0.08)">
      <use xlink:href="#DejaVuSans-33"/>
      <use xlink:href="#DejaVuSans-20" x="63.623047"/>
      <use xlink:href="#DejaVuSans-6c" x="95.410156"/>
      <use xlink:href="#DejaVuSans-65" x="123.193359"/>
      <use xlink:href="#DejaVuSans-76" x="184.716797"/>
      <use xlink:href="#DejaVuSans-65" x="243.896484"/>
      <use xlink:href="#DejaVuSans-6c" x="305.419922"/>
      <use xlink:href="#DejaVuSans-73" x="333.203125"/>
     </g>
    </g>
    <g id="line2d_54">
     <path d="M 214.9945 79.884925 
L 222.3945 79.884925 
L 229.7945 79.884925 
" style="fill: none; stroke: #ffc61e; stroke-linecap: square"/>
    </g>
    <g id="text_18">
     <!-- 4 levels -->
     <g transform="translate(236.1945 82.684925)scale(0.08 -0.08)">
      <use xlink:href="#DejaVuSans-34"/>
      <use xlink:href="#DejaVuSans-20" x="63.623047"/>
      <use xlink:href="#DejaVuSans-6c" x="95.410156"/>
      <use xlink:href="#DejaVuSans-65" x="123.193359"/>
      <use xlink:href="#DejaVuSans-76" x="184.716797"/>
      <use xlink:href="#DejaVuSans-65" x="243.896484"/>
      <use xlink:href="#DejaVuSans-6c" x="305.419922"/>
      <use xlink:href="#DejaVuSans-73" x="333.203125"/>
     </g>
    </g>
    <g id="line2d_55">
     <path d="M 214.9945 91.627425 
L 222.3945 91.627425 
L 229.7945 91.627425 
" style="fill: none; stroke: #f28522; stroke-linecap: square"/>
    </g>
    <g id="text_19">
     <!-- 5 levels -->
     <g transform="translate(236.1945 94.427425)scale(0.08 -0.08)">
      <use xlink:href="#DejaVuSans-35"/>
      <use xlink:href="#DejaVuSans-20" x="63.623047"/>
      <use xlink:href="#DejaVuSans-6c" x="95.410156"/>
      <use xlink:href="#DejaVuSans-65" x="123.193359"/>
      <use xlink:href="#DejaVuSans-76" x="184.716797"/>
      <use xlink:href="#DejaVuSans-65" x="243.896484"/>
      <use xlink:href="#DejaVuSans-6c" x="305.419922"/>
      <use xlink:href="#DejaVuSans-73" x="333.203125"/>
     </g>
    </g>
   </g>
  </g>
 </g>
 <defs>
  <clipPath id="pe6980352a7">
   <rect x="43.7425" y="10.239375" width="156.24" height="121.968"/>
  </clipPath>
 </defs>
</svg>
