<?xml version="1.0" encoding="utf-8" standalone="no"?>
<!DOCTYPE svg PUBLIC "-//W3C//DTD SVG 1.1//EN"
  "http://www.w3.org/Graphics/SVG/1.1/DTD/svg11.dtd">
<svg xmlns:xlink="http://www.w3.org/1999/xlink" width="207.46625pt" height="164.892375pt" viewBox="0 0 207.46625 164.892375" xmlns="http://www.w3.org/2000/svg" version="1.1">
 <metadata>
  <rdf:RDF xmlns:dc="http://purl.org/dc/elements/1.1/" xmlns:cc="http://creativecommons.org/ns#" xmlns:rdf="http://www.w3.org/1999/02/22-rdf-syntax-ns#">
   <cc:Work>
    <dc:type rdf:resource="http://purl.org/dc/dcmitype/StillImage"/>
    <dc:format>image/svg+xml</dc:format>
    <dc:creator>
     <cc:Agent>
      <dc:title>Matplotlib v3.5.2, https://matplotlib.org/</dc:title>
     </cc:Agent>
    </dc:creator>
   </cc:Work>
  </rdf:RDF>
 </metadata>
 <defs>
  <style type="text/css">*{stroke-linejoin: round; stroke-linecap: butt}</style>
 </defs>
 <g id="figure_1">
  <g id="patch_1">
   <path d="M 0 164.892375 
L 207.46625 164.892375 
L 207.46625 -0 
L 0 -0 
L 0 164.892375 
z
" style="fill: none"/>
  </g>
  <g id="axes_1">
   <g id="patch_2">
    <path d="M 37.665 132.207375 
L 193.905 132.207375 
L 193.905 10.239375 
L 37.665 10.239375 
L 37.665 132.207375 
z
" style="fill: none"/>
   </g>
   <g id="matplotlib.axis_1">
    <g id="xtick_1">
     <g id="line2d_1">
      <defs>
       <path id="m4cd371f86f" d="M 0 0 
L 0 2.5 
" style="stroke: #000000; stroke-width: 0.6"/>
      </defs>
      <g>
       <use xlink:href="#m4cd371f86f" x="37.665" y="132.207375" style="stroke: #000000; stroke-width: 0.6"/>
      </g>
     </g>
     <g id="text_1">
      <!-- -1.0 -->
      <g transform="translate(29.860625 144.286125)scale(0.08 -0.08)">
       <defs>
        <path id="DejaVuSans-2d" d="M 313 2009 
L 1997 2009 
L 1997 1497 
L 313 1497 
L 313 2009 
z
" transform="scale(0.015625)"/>
        <path id="DejaVuSans-31" d="M 794 531 
L 1825 531 
L 1825 4091 
L 703 3866 
L 703 4441 
L 1819 4666 
L 2450 4666 
L 2450 531 
L 3481 531 
L 3481 0 
L 794 0 
L 794 531 
z
" transform="scale(0.015625)"/>
        <path id="DejaVuSans-2e" d="M 684 794 
L 1344 794 
L 1344 0 
L 684 0 
L 684 794 
z
" transform="scale(0.015625)"/>
        <path id="DejaVuSans-30" d="M 2034 4250 
Q 1547 4250 1301 3770 
Q 1056 3291 1056 2328 
Q 1056 1369 1301 889 
Q 1547 409 2034 409 
Q 2525 409 2770 889 
Q 3016 1369 3016 2328 
Q 3016 3291 2770 3770 
Q 2525 4250 2034 4250 
z
M 2034 4750 
Q 2819 4750 3233 4129 
Q 3647 3509 3647 2328 
Q 3647 1150 3233 529 
Q 2819 -91 2034 -91 
Q 1250 -91 836 529 
Q 422 1150 422 2328 
Q 422 3509 836 4129 
Q 1250 4750 2034 4750 
z
" transform="scale(0.015625)"/>
       </defs>
       <use xlink:href="#DejaVuSans-2d"/>
       <use xlink:href="#DejaVuSans-31" x="36.083984"/>
       <use xlink:href="#DejaVuSans-2e" x="99.707031"/>
       <use xlink:href="#DejaVuSans-30" x="131.494141"/>
      </g>
     </g>
    </g>
    <g id="xtick_2">
     <g id="line2d_2">
      <g>
       <use xlink:href="#m4cd371f86f" x="76.725" y="132.207375" style="stroke: #000000; stroke-width: 0.6"/>
      </g>
     </g>
     <g id="text_2">
      <!-- -0.5 -->
      <g transform="translate(68.920625 144.286125)scale(0.08 -0.08)">
       <defs>
        <path id="DejaVuSans-35" d="M 691 4666 
L 3169 4666 
L 3169 4134 
L 1269 4134 
L 1269 2991 
Q 1406 3038 1543 3061 
Q 1681 3084 1819 3084 
Q 2600 3084 3056 2656 
Q 3513 2228 3513 1497 
Q 3513 744 3044 326 
Q 2575 -91 1722 -91 
Q 1428 -91 1123 -41 
Q 819 9 494 109 
L 494 744 
Q 775 591 1075 516 
Q 1375 441 1709 441 
Q 2250 441 2565 725 
Q 2881 1009 2881 1497 
Q 2881 1984 2565 2268 
Q 2250 2553 1709 2553 
Q 1456 2553 1204 2497 
Q 953 2441 691 2322 
L 691 4666 
z
" transform="scale(0.015625)"/>
       </defs>
       <use xlink:href="#DejaVuSans-2d"/>
       <use xlink:href="#DejaVuSans-30" x="36.083984"/>
       <use xlink:href="#DejaVuSans-2e" x="99.707031"/>
       <use xlink:href="#DejaVuSans-35" x="131.494141"/>
      </g>
     </g>
    </g>
    <g id="xtick_3">
     <g id="line2d_3">
      <g>
       <use xlink:href="#m4cd371f86f" x="115.785" y="132.207375" style="stroke: #000000; stroke-width: 0.6"/>
      </g>
     </g>
     <g id="text_3">
      <!-- 0.0 -->
      <g transform="translate(109.42375 144.286125)scale(0.08 -0.08)">
       <use xlink:href="#DejaVuSans-30"/>
       <use xlink:href="#DejaVuSans-2e" x="63.623047"/>
       <use xlink:href="#DejaVuSans-30" x="95.410156"/>
      </g>
     </g>
    </g>
    <g id="xtick_4">
     <g id="line2d_4">
      <g>
       <use xlink:href="#m4cd371f86f" x="154.845" y="132.207375" style="stroke: #000000; stroke-width: 0.6"/>
      </g>
     </g>
     <g id="text_4">
      <!-- 0.5 -->
      <g transform="translate(148.48375 144.286125)scale(0.08 -0.08)">
       <use xlink:href="#DejaVuSans-30"/>
       <use xlink:href="#DejaVuSans-2e" x="63.623047"/>
       <use xlink:href="#DejaVuSans-35" x="95.410156"/>
      </g>
     </g>
    </g>
    <g id="xtick_5">
     <g id="line2d_5">
      <g>
       <use xlink:href="#m4cd371f86f" x="193.905" y="132.207375" style="stroke: #000000; stroke-width: 0.6"/>
      </g>
     </g>
     <g id="text_5">
      <!-- 1.0 -->
      <g transform="translate(187.54375 144.286125)scale(0.08 -0.08)">
       <use xlink:href="#DejaVuSans-31"/>
       <use xlink:href="#DejaVuSans-2e" x="63.623047"/>
       <use xlink:href="#DejaVuSans-30" x="95.410156"/>
      </g>
     </g>
    </g>
    <g id="text_6">
     <!-- $x$ -->
     <g transform="translate(113.385 156.028625)scale(0.08 -0.08)">
      <defs>
       <path id="DejaVuSans-Oblique-78" d="M 3841 3500 
L 2234 1784 
L 3219 0 
L 2559 0 
L 1819 1388 
L 531 0 
L -166 0 
L 1556 1844 
L 641 3500 
L 1300 3500 
L 1972 2234 
L 3144 3500 
L 3841 3500 
z
" transform="scale(0.015625)"/>
      </defs>
      <use xlink:href="#DejaVuSans-Oblique-78" transform="translate(0 0.3125)"/>
     </g>
    </g>
   </g>
   <g id="matplotlib.axis_2">
    <g id="ytick_1">
     <g id="line2d_6">
      <defs>
       <path id="m56f3a9ced1" d="M 0 0 
L -2.5 0 
" style="stroke: #000000; stroke-width: 0.6"/>
      </defs>
      <g>
       <use xlink:href="#m56f3a9ced1" x="37.665" y="132.207375" style="stroke: #000000; stroke-width: 0.6"/>
      </g>
     </g>
     <g id="text_7">
      <!-- 0.0 -->
      <g transform="translate(18.9425 135.24675)scale(0.08 -0.08)">
       <use xlink:href="#DejaVuSans-30"/>
       <use xlink:href="#DejaVuSans-2e" x="63.623047"/>
       <use xlink:href="#DejaVuSans-30" x="95.410156"/>
      </g>
     </g>
    </g>
    <g id="ytick_2">
     <g id="line2d_7">
      <g>
       <use xlink:href="#m56f3a9ced1" x="37.665" y="111.879375" style="stroke: #000000; stroke-width: 0.6"/>
      </g>
     </g>
     <g id="text_8">
      <!-- 0.5 -->
      <g transform="translate(18.9425 114.91875)scale(0.08 -0.08)">
       <use xlink:href="#DejaVuSans-30"/>
       <use xlink:href="#DejaVuSans-2e" x="63.623047"/>
       <use xlink:href="#DejaVuSans-35" x="95.410156"/>
      </g>
     </g>
    </g>
    <g id="ytick_3">
     <g id="line2d_8">
      <g>
       <use xlink:href="#m56f3a9ced1" x="37.665" y="91.551375" style="stroke: #000000; stroke-width: 0.6"/>
      </g>
     </g>
     <g id="text_9">
      <!-- 1.0 -->
      <g transform="translate(18.9425 94.59075)scale(0.08 -0.08)">
       <use xlink:href="#DejaVuSans-31"/>
       <use xlink:href="#DejaVuSans-2e" x="63.623047"/>
       <use xlink:href="#DejaVuSans-30" x="95.410156"/>
      </g>
     </g>
    </g>
    <g id="ytick_4">
     <g id="line2d_9">
      <g>
       <use xlink:href="#m56f3a9ced1" x="37.665" y="71.223375" style="stroke: #000000; stroke-width: 0.6"/>
      </g>
     </g>
     <g id="text_10">
      <!-- 1.5 -->
      <g transform="translate(18.9425 74.26275)scale(0.08 -0.08)">
       <use xlink:href="#DejaVuSans-31"/>
       <use xlink:href="#DejaVuSans-2e" x="63.623047"/>
       <use xlink:href="#DejaVuSans-35" x="95.410156"/>
      </g>
     </g>
    </g>
    <g id="ytick_5">
     <g id="line2d_10">
      <g>
       <use xlink:href="#m56f3a9ced1" x="37.665" y="50.895375" style="stroke: #000000; stroke-width: 0.6"/>
      </g>
     </g>
     <g id="text_11">
      <!-- 2.0 -->
      <g transform="translate(18.9425 53.93475)scale(0.08 -0.08)">
       <defs>
        <path id="DejaVuSans-32" d="M 1228 531 
L 3431 531 
L 3431 0 
L 469 0 
L 469 531 
Q 828 903 1448 1529 
Q 2069 2156 2228 2338 
Q 2531 2678 2651 2914 
Q 2772 3150 2772 3378 
Q 2772 3750 2511 3984 
Q 2250 4219 1831 4219 
Q 1534 4219 1204 4116 
Q 875 4013 500 3803 
L 500 4441 
Q 881 4594 1212 4672 
Q 1544 4750 1819 4750 
Q 2544 4750 2975 4387 
Q 3406 4025 3406 3419 
Q 3406 3131 3298 2873 
Q 3191 2616 2906 2266 
Q 2828 2175 2409 1742 
Q 1991 1309 1228 531 
z
" transform="scale(0.015625)"/>
       </defs>
       <use xlink:href="#DejaVuSans-32"/>
       <use xlink:href="#DejaVuSans-2e" x="63.623047"/>
       <use xlink:href="#DejaVuSans-30" x="95.410156"/>
      </g>
     </g>
    </g>
    <g id="ytick_6">
     <g id="line2d_11">
      <g>
       <use xlink:href="#m56f3a9ced1" x="37.665" y="30.567375" style="stroke: #000000; stroke-width: 0.6"/>
      </g>
     </g>
     <g id="text_12">
      <!-- 2.5 -->
      <g transform="translate(18.9425 33.60675)scale(0.08 -0.08)">
       <use xlink:href="#DejaVuSans-32"/>
       <use xlink:href="#DejaVuSans-2e" x="63.623047"/>
       <use xlink:href="#DejaVuSans-35" x="95.410156"/>
      </g>
     </g>
    </g>
    <g id="ytick_7">
     <g id="line2d_12">
      <g>
       <use xlink:href="#m56f3a9ced1" x="37.665" y="10.239375" style="stroke: #000000; stroke-width: 0.6"/>
      </g>
     </g>
     <g id="text_13">
      <!-- 3.0 -->
      <g transform="translate(18.9425 13.27875)scale(0.08 -0.08)">
       <defs>
        <path id="DejaVuSans-33" d="M 2597 2516 
Q 3050 2419 3304 2112 
Q 3559 1806 3559 1356 
Q 3559 666 3084 287 
Q 2609 -91 1734 -91 
Q 1441 -91 1130 -33 
Q 819 25 488 141 
L 488 750 
Q 750 597 1062 519 
Q 1375 441 1716 441 
Q 2309 441 2620 675 
Q 2931 909 2931 1356 
Q 2931 1769 2642 2001 
Q 2353 2234 1838 2234 
L 1294 2234 
L 1294 2753 
L 1863 2753 
Q 2328 2753 2575 2939 
Q 2822 3125 2822 3475 
Q 2822 3834 2567 4026 
Q 2313 4219 1838 4219 
Q 1578 4219 1281 4162 
Q 984 4106 628 3988 
L 628 4550 
Q 988 4650 1302 4700 
Q 1616 4750 1894 4750 
Q 2613 4750 3031 4423 
Q 3450 4097 3450 3541 
Q 3450 3153 3228 2886 
Q 3006 2619 2597 2516 
z
" transform="scale(0.015625)"/>
       </defs>
       <use xlink:href="#DejaVuSans-33"/>
       <use xlink:href="#DejaVuSans-2e" x="63.623047"/>
       <use xlink:href="#DejaVuSans-30" x="95.410156"/>
      </g>
     </g>
    </g>
    <g id="text_14">
     <!-- $f(x)$ -->
     <g transform="translate(13.27875 78.143375)rotate(-90)scale(0.08 -0.08)">
      <defs>
       <path id="DejaVuSans-Oblique-66" d="M 3059 4863 
L 2969 4384 
L 2419 4384 
Q 2106 4384 1964 4261 
Q 1822 4138 1753 3809 
L 1691 3500 
L 2638 3500 
L 2553 3053 
L 1606 3053 
L 1013 0 
L 434 0 
L 1031 3053 
L 481 3053 
L 563 3500 
L 1113 3500 
L 1159 3744 
Q 1278 4363 1576 4613 
Q 1875 4863 2516 4863 
L 3059 4863 
z
" transform="scale(0.015625)"/>
       <path id="DejaVuSans-28" d="M 1984 4856 
Q 1566 4138 1362 3434 
Q 1159 2731 1159 2009 
Q 1159 1288 1364 580 
Q 1569 -128 1984 -844 
L 1484 -844 
Q 1016 -109 783 600 
Q 550 1309 550 2009 
Q 550 2706 781 3412 
Q 1013 4119 1484 4856 
L 1984 4856 
z
" transform="scale(0.015625)"/>
       <path id="DejaVuSans-29" d="M 513 4856 
L 1013 4856 
Q 1481 4119 1714 3412 
Q 1947 2706 1947 2009 
Q 1947 1309 1714 600 
Q 1481 -109 1013 -844 
L 513 -844 
Q 928 -128 1133 580 
Q 1338 1288 1338 2009 
Q 1338 2731 1133 3434 
Q 928 4138 513 4856 
z
" transform="scale(0.015625)"/>
      </defs>
      <use xlink:href="#DejaVuSans-Oblique-66" transform="translate(0 0.015625)"/>
      <use xlink:href="#DejaVuSans-28" transform="translate(35.205078 0.015625)"/>
      <use xlink:href="#DejaVuSans-Oblique-78" transform="translate(74.21875 0.015625)"/>
      <use xlink:href="#DejaVuSans-29" transform="translate(133.398438 0.015625)"/>
     </g>
    </g>
   </g>
   <g id="line2d_13">
    <path d="M 37.665 8.105953 
L 38.291212 6.512106 
L 38.604319 5.985523 
L 38.917425 5.704389 
L 39.230531 5.705682 
L 39.543637 6.014967 
L 39.856743 6.645379 
L 40.482956 8.857326 
L 41.109168 12.190921 
L 42.361593 20.775761 
L 43.300912 26.977693 
L 43.927124 30.113437 
L 44.553337 32.072062 
L 44.866443 32.564106 
L 45.179549 32.732353 
L 45.492655 32.593702 
L 45.805762 32.177229 
L 46.431974 30.680599 
L 48.310611 25.080752 
L 48.623717 24.626274 
L 48.936824 24.442401 
L 49.24993 24.558872 
L 49.563036 24.993295 
L 49.876142 25.750452 
L 50.502355 28.187299 
L 51.128567 31.656665 
L 53.633417 47.181543 
L 54.259629 49.198683 
L 54.572735 49.724788 
L 54.885842 49.924181 
L 55.198948 49.809273 
L 55.512054 49.404949 
L 56.138267 47.883533 
L 58.33001 41.071783 
L 58.643116 40.706464 
L 58.956222 40.632322 
L 59.269329 40.871354 
L 59.582435 41.43292 
L 60.208647 43.496163 
L 60.83486 46.642845 
L 63.652816 62.891376 
L 64.279028 64.334405 
L 64.592134 64.566496 
L 64.90524 64.478443 
L 65.218347 64.090814 
L 65.844559 62.557236 
L 66.783878 59.126929 
L 67.723196 55.824742 
L 68.349409 54.496724 
L 68.662515 54.23472 
L 68.975621 54.279531 
L 69.288727 54.645049 
L 69.601834 55.332225 
L 70.228046 57.610932 
L 71.167365 62.758294 
L 72.732896 72.212653 
L 73.359108 74.887989 
L 73.985321 76.392795 
L 74.298427 76.658568 
L 74.611533 76.599942 
L 74.924639 76.233067 
L 75.550852 74.699197 
L 76.49017 71.120987 
L 77.429489 67.469196 
L 78.055701 65.811851 
L 78.368808 65.36527 
L 78.681914 65.217598 
L 78.99502 65.387187 
L 79.308126 65.87959 
L 79.934339 67.79021 
L 80.560551 70.742269 
L 83.065401 84.337433 
L 83.691613 85.900002 
L 84.004719 86.199864 
L 84.317826 86.172684 
L 84.630932 85.830112 
L 84.944038 85.196315 
L 85.570251 83.208054 
L 87.761994 74.650338 
L 88.0751 74.022985 
L 88.388206 73.685123 
L 88.701313 73.659478 
L 89.014419 73.956174 
L 89.327525 74.572327 
L 89.953737 76.68765 
L 90.893056 81.490385 
L 92.458587 90.009107 
L 93.0848 92.200361 
L 93.397906 92.85627 
L 93.711012 93.190054 
L 94.024118 93.195777 
L 94.337224 92.880529 
L 94.650331 92.264145 
L 95.276543 90.265768 
L 96.528968 84.664556 
L 97.468287 81.010508 
L 98.094499 79.681477 
L 98.407605 79.461863 
L 98.720711 79.562491 
L 99.033818 79.985084 
L 99.346924 80.718373 
L 99.973136 83.010219 
L 100.912455 87.838922 
L 102.16488 94.363485 
L 102.791092 96.578137 
L 103.104198 97.262047 
L 103.417305 97.629011 
L 103.730411 97.668523 
L 104.043517 97.38308 
L 104.356623 96.788081 
L 104.982836 94.79133 
L 105.922154 90.494634 
L 106.861473 86.09049 
L 107.487685 83.915013 
L 107.800792 83.205831 
L 108.113898 82.79408 
L 108.427004 82.698855 
L 108.74011 82.926479 
L 109.053216 83.470244 
L 109.679429 85.416362 
L 110.618747 89.860025 
L 111.871172 96.180879 
L 112.497385 98.408955 
L 112.810491 99.11798 
L 113.123597 99.51681 
L 113.436703 99.590424 
L 113.74981 99.336712 
L 114.062916 98.76656 
L 114.689128 96.782356 
L 115.628447 92.364435 
L 116.880872 86.288392 
L 117.507084 84.257164 
L 117.82019 83.655663 
L 118.133297 83.365377 
L 118.446403 83.397192 
L 118.759509 83.748999 
L 119.072615 84.405775 
L 119.698828 86.51368 
L 120.638146 90.949934 
L 121.577465 95.463542 
L 122.203677 97.694193 
L 122.516784 98.424914 
L 122.82989 98.853732 
L 123.142996 98.961184 
L 123.456102 98.740563 
L 123.769208 98.198191 
L 124.395421 96.236582 
L 125.334739 91.719627 
L 126.587164 85.201983 
L 127.213377 82.834268 
L 127.526483 82.045949 
L 127.839589 81.561963 
L 128.152695 81.397706 
L 128.465802 81.555676 
L 128.778908 82.025368 
L 129.40512 83.795908 
L 130.344439 87.865587 
L 131.596864 93.430199 
L 132.223076 95.183885 
L 132.536182 95.640257 
L 132.849289 95.780709 
L 133.162395 95.59397 
L 133.475501 95.081765 
L 134.101713 93.151876 
L 134.727926 90.249317 
L 136.919669 78.935752 
L 137.545882 77.288316 
L 137.858988 76.928299 
L 138.172094 76.891119 
L 138.4852 77.170839 
L 138.798307 77.748735 
L 139.424519 79.665186 
L 140.676944 85.101197 
L 141.616263 88.634295 
L 142.242475 89.877068 
L 142.555581 90.049109 
L 142.868687 89.896468 
L 143.181794 89.416261 
L 143.808006 87.526248 
L 144.434218 84.605351 
L 146.625962 72.560051 
L 147.252174 70.543938 
L 147.565281 69.989049 
L 147.878387 69.755976 
L 148.191493 69.843384 
L 148.504599 70.237002 
L 149.130812 71.825058 
L 150.07013 75.505427 
L 151.009449 79.296999 
L 151.635661 81.063018 
L 151.948768 81.565039 
L 152.261874 81.766698 
L 152.57498 81.647794 
L 152.888086 81.200852 
L 153.201192 80.431423 
L 153.827405 78.010587 
L 154.766723 72.783219 
L 156.332255 63.705434 
L 156.958467 61.328132 
L 157.271573 60.579827 
L 157.584679 60.150694 
L 157.897786 60.044005 
L 158.210892 60.250017 
L 158.523998 60.746368 
L 159.15021 62.463375 
L 161.341954 70.186164 
L 161.65506 70.705241 
L 161.968166 70.933992 
L 162.281273 70.84789 
L 162.594379 70.434906 
L 162.907485 69.695991 
L 163.533697 67.308314 
L 164.473016 62.006907 
L 166.038547 52.37001 
L 166.66476 49.640005 
L 167.290972 48.075519 
L 167.604078 47.773515 
L 167.917184 47.789124 
L 168.230291 48.104364 
L 168.856503 49.502522 
L 169.795822 52.77789 
L 170.73514 55.996616 
L 171.361353 57.298928 
L 171.674459 57.551703 
L 171.987565 57.4969 
L 172.300671 57.117994 
L 172.613778 56.411329 
L 173.23999 54.064799 
L 173.866202 50.678103 
L 176.371052 35.478472 
L 176.997265 33.530493 
L 177.310371 33.032528 
L 177.623477 32.855485 
L 177.936583 32.985853 
L 178.249689 33.397708 
L 178.875902 34.906829 
L 180.754539 40.808337 
L 181.067645 41.347535 
L 181.380752 41.620743 
L 181.693858 41.595171 
L 182.006964 41.249885 
L 182.32007 40.576641 
L 182.946283 38.27823 
L 183.572495 34.887431 
L 186.390451 17.528022 
L 187.016663 15.821457 
L 187.32977 15.450074 
L 187.642876 15.392327 
L 187.955982 15.626584 
L 188.269088 16.119417 
L 188.895301 17.696592 
L 190.460832 22.311317 
L 190.773938 22.85267 
L 191.087044 23.14221 
L 191.40015 23.143253 
L 191.713257 22.830556 
L 192.026363 22.191331 
L 192.652575 19.946959 
L 193.278788 16.563393 
L 193.905 12.372797 
L 193.905 12.372797 
" clip-path="url(#p944a106b20)" style="fill: none; stroke: #ff1f5b; stroke-linecap: square"/>
   </g>
   <g id="patch_3">
    <path d="M 37.665 132.207375 
L 37.665 10.239375 
" style="fill: none; stroke: #000000; stroke-width: 0.6; stroke-linejoin: miter; stroke-linecap: square"/>
   </g>
   <g id="patch_4">
    <path d="M 37.665 132.207375 
L 193.905 132.207375 
" style="fill: none; stroke: #000000; stroke-width: 0.6; stroke-linejoin: miter; stroke-linecap: square"/>
   </g>
  </g>
 </g>
 <defs>
  <clipPath id="p944a106b20">
   <rect x="37.665" y="10.239375" width="156.24" height="121.968"/>
  </clipPath>
 </defs>
</svg>
