<?xml version="1.0" encoding="utf-8" standalone="no"?>
<!DOCTYPE svg PUBLIC "-//W3C//DTD SVG 1.1//EN"
  "http://www.w3.org/Graphics/SVG/1.1/DTD/svg11.dtd">
<svg xmlns:xlink="http://www.w3.org/1999/xlink" width="181.26375pt" height="181.524375pt" viewBox="0 0 181.26375 181.524375" xmlns="http://www.w3.org/2000/svg" version="1.1">
 <metadata>
  <rdf:RDF xmlns:dc="http://purl.org/dc/elements/1.1/" xmlns:cc="http://creativecommons.org/ns#" xmlns:rdf="http://www.w3.org/1999/02/22-rdf-syntax-ns#">
   <cc:Work>
    <dc:type rdf:resource="http://purl.org/dc/dcmitype/StillImage"/>
    <dc:format>image/svg+xml</dc:format>
    <dc:creator>
     <cc:Agent>
      <dc:title>Matplotlib v3.5.2, https://matplotlib.org/</dc:title>
     </cc:Agent>
    </dc:creator>
   </cc:Work>
  </rdf:RDF>
 </metadata>
 <defs>
  <style type="text/css">*{stroke-linejoin: round; stroke-linecap: butt}</style>
 </defs>
 <g id="figure_1">
  <g id="patch_1">
   <path d="M 0 181.524375 
L 181.26375 181.524375 
L 181.26375 0 
L 0 0 
L 0 181.524375 
z
" style="fill: none"/>
  </g>
  <g id="axes_1">
   <g id="patch_2">
    <path d="M 32.91875 148.839375 
L 171.51875 148.839375 
L 171.51875 10.239375 
L 32.91875 10.239375 
L 32.91875 148.839375 
z
" style="fill: none"/>
   </g>
   <g id="PolyCollection_1">
    <path d="M 32.91875 426.039375 
L 32.91875 79.539375 
L 33.196506 79.400497 
L 33.474261 79.261619 
L 33.752017 79.122742 
L 34.029772 78.983864 
L 34.307528 78.844986 
L 34.585283 78.706108 
L 34.863039 78.567231 
L 35.140794 78.428353 
L 35.41855 78.289475 
L 35.696305 78.150597 
L 35.974061 78.01172 
L 36.251816 77.872842 
L 36.529572 77.733964 
L 36.807327 77.595086 
L 37.085083 77.456209 
L 37.362838 77.317331 
L 37.640594 77.178453 
L 37.918349 77.039575 
L 38.196105 76.900698 
L 38.47386 76.76182 
L 38.751616 76.622942 
L 39.029371 76.484064 
L 39.307127 76.345187 
L 39.584882 76.206309 
L 39.862638 76.067431 
L 40.140393 75.928553 
L 40.418149 75.789676 
L 40.695904 75.650798 
L 40.97366 75.51192 
L 41.251415 75.373042 
L 41.529171 75.234165 
L 41.806926 75.095287 
L 42.084682 74.956409 
L 42.362437 74.817531 
L 42.640193 74.678654 
L 42.917948 74.539776 
L 43.195704 74.400898 
L 43.473459 74.26202 
L 43.751215 74.123143 
L 44.02897 73.984265 
L 44.306726 73.845387 
L 44.584481 73.706509 
L 44.862237 73.567632 
L 45.139992 73.428754 
L 45.417748 73.289876 
L 45.695504 73.150998 
L 45.973259 73.01212 
L 46.251015 72.873243 
L 46.52877 72.734365 
L 46.806526 72.595487 
L 47.084281 72.456609 
L 47.362037 72.317732 
L 47.639792 72.178854 
L 47.917548 72.039976 
L 48.195303 71.901098 
L 48.473059 71.762221 
L 48.750814 71.623343 
L 49.02857 71.484465 
L 49.306325 71.345587 
L 49.584081 71.20671 
L 49.861836 71.067832 
L 50.139592 70.928954 
L 50.417347 70.790076 
L 50.695103 70.651199 
L 50.972858 70.512321 
L 51.250614 70.373443 
L 51.528369 70.234565 
L 51.806125 70.095688 
L 52.08388 69.95681 
L 52.361636 69.817932 
L 52.639391 69.679054 
L 52.917147 69.540177 
L 53.194902 69.401299 
L 53.472658 69.262421 
L 53.750413 69.123543 
L 54.028169 68.984666 
L 54.305924 68.845788 
L 54.58368 68.70691 
L 54.861435 68.568032 
L 55.139191 68.429155 
L 55.416946 68.290277 
L 55.694702 68.151399 
L 55.972457 68.012521 
L 56.250213 67.873644 
L 56.527968 67.734766 
L 56.805724 67.595888 
L 57.083479 67.45701 
L 57.361235 67.318133 
L 57.63899 67.179255 
L 57.916746 67.040377 
L 58.194502 66.901499 
L 58.472257 66.762621 
L 58.750013 66.623744 
L 59.027768 66.484866 
L 59.305524 66.345988 
L 59.583279 66.20711 
L 59.861035 66.068233 
L 60.13879 65.929355 
L 60.416546 65.790477 
L 60.694301 65.651599 
L 60.972057 65.512722 
L 61.249812 65.373844 
L 61.527568 65.234966 
L 61.805323 65.096088 
L 62.083079 64.957211 
L 62.360834 64.818333 
L 62.63859 64.679455 
L 62.916345 64.540577 
L 63.194101 64.4017 
L 63.471856 64.262822 
L 63.749612 64.123944 
L 64.027367 63.985066 
L 64.305123 63.846189 
L 64.582878 63.707311 
L 64.860634 63.568433 
L 65.138389 63.429555 
L 65.416145 63.290678 
L 65.6939 63.1518 
L 65.971656 63.012922 
L 66.249411 62.874044 
L 66.527167 62.735167 
L 66.804922 62.596289 
L 67.082678 62.457411 
L 67.360433 62.318533 
L 67.638189 62.179656 
L 67.915944 62.040778 
L 68.1937 61.9019 
L 68.471455 61.763022 
L 68.749211 61.624145 
L 69.026966 61.485267 
L 69.304722 61.346389 
L 69.582477 61.207511 
L 69.860233 61.068634 
L 70.137988 60.929756 
L 70.415744 60.790878 
L 70.693499 60.652 
L 70.971255 60.513122 
L 71.249011 60.374245 
L 71.526766 60.235367 
L 71.804522 60.096489 
L 72.082277 59.957611 
L 72.360033 59.818734 
L 72.637788 59.679856 
L 72.915544 59.540978 
L 73.193299 59.4021 
L 73.471055 59.263223 
L 73.74881 59.124345 
L 74.026566 58.985467 
L 74.304321 58.846589 
L 74.582077 58.707712 
L 74.859832 58.568834 
L 75.137588 58.429956 
L 75.415343 58.291078 
L 75.693099 58.152201 
L 75.970854 58.013323 
L 76.24861 57.874445 
L 76.526365 57.735567 
L 76.804121 57.59669 
L 77.081876 57.457812 
L 77.359632 57.318934 
L 77.637387 57.180056 
L 77.915143 57.041179 
L 78.192898 56.902301 
L 78.470654 56.763423 
L 78.748409 56.624545 
L 79.026165 56.485668 
L 79.30392 56.34679 
L 79.581676 56.207912 
L 79.859431 56.069034 
L 80.137187 55.930157 
L 80.414942 55.791279 
L 80.692698 55.652401 
L 80.970453 55.513523 
L 81.248209 55.374646 
L 81.525964 55.235768 
L 81.80372 55.09689 
L 82.081475 54.958012 
L 82.359231 54.819135 
L 82.636986 54.680257 
L 82.914742 54.541379 
L 83.192497 54.402501 
L 83.470253 54.263623 
L 83.748009 54.124746 
L 84.025764 53.985868 
L 84.30352 53.84699 
L 84.581275 53.708112 
L 84.859031 53.569235 
L 85.136786 53.430357 
L 85.414542 53.291479 
L 85.692297 53.152601 
L 85.970053 53.013724 
L 86.247808 52.874846 
L 86.525564 52.735968 
L 86.803319 52.59709 
L 87.081075 52.458213 
L 87.35883 52.319335 
L 87.636586 52.180457 
L 87.914341 52.041579 
L 88.192097 51.902702 
L 88.469852 51.763824 
L 88.747608 51.624946 
L 89.025363 51.486068 
L 89.303119 51.347191 
L 89.580874 51.208313 
L 89.85863 51.069435 
L 90.136385 50.930557 
L 90.414141 50.79168 
L 90.691896 50.670162 
L 90.969652 50.7396 
L 91.247407 50.809039 
L 91.525163 50.878478 
L 91.802918 50.947917 
L 92.080674 51.017356 
L 92.358429 51.086795 
L 92.636185 51.156234 
L 92.91394 51.225673 
L 93.191696 51.295111 
L 93.469451 51.36455 
L 93.747207 51.433989 
L 94.024962 51.503428 
L 94.302718 51.572867 
L 94.580473 51.642306 
L 94.858229 51.711745 
L 95.135984 51.781184 
L 95.41374 51.850622 
L 95.691495 51.920061 
L 95.969251 51.9895 
L 96.247007 52.058939 
L 96.524762 52.128378 
L 96.802518 52.197817 
L 97.080273 52.267256 
L 97.358029 52.336695 
L 97.635784 52.406134 
L 97.91354 52.475572 
L 98.191295 52.545011 
L 98.469051 52.61445 
L 98.746806 52.683889 
L 99.024562 52.753328 
L 99.302317 52.822767 
L 99.580073 52.892206 
L 99.857828 52.961645 
L 100.135584 53.031083 
L 100.413339 53.100522 
L 100.691095 53.169961 
L 100.96885 53.2394 
L 101.246606 53.308839 
L 101.524361 53.378278 
L 101.802117 53.447717 
L 102.079872 53.517156 
L 102.357628 53.586594 
L 102.635383 53.656033 
L 102.913139 53.725472 
L 103.190894 53.794911 
L 103.46865 53.86435 
L 103.746405 53.933789 
L 104.024161 54.003228 
L 104.301916 54.072667 
L 104.579672 54.142105 
L 104.857427 54.211544 
L 105.135183 54.280983 
L 105.412938 54.350422 
L 105.690694 54.419861 
L 105.968449 54.4893 
L 106.246205 54.558739 
L 106.52396 54.628178 
L 106.801716 54.697616 
L 107.079471 54.767055 
L 107.357227 54.836494 
L 107.634982 54.905933 
L 107.912738 54.975372 
L 108.190493 55.044811 
L 108.468249 55.11425 
L 108.746005 55.183689 
L 109.02376 55.253128 
L 109.301516 55.322566 
L 109.579271 55.392005 
L 109.857027 55.461444 
L 110.134782 55.530883 
L 110.412538 55.600322 
L 110.690293 55.669761 
L 110.968049 55.7392 
L 111.245804 55.808639 
L 111.52356 55.878077 
L 111.801315 55.947516 
L 112.079071 56.016955 
L 112.356826 56.086394 
L 112.634582 56.155833 
L 112.912337 56.225272 
L 113.190093 56.294711 
L 113.467848 56.36415 
L 113.745604 56.433588 
L 114.023359 56.693984 
L 114.301115 56.97174 
L 114.57887 57.249495 
L 114.856626 57.527251 
L 115.134381 57.805006 
L 115.412137 58.082762 
L 115.689892 58.360517 
L 115.967648 58.638273 
L 116.245403 58.916028 
L 116.523159 59.193784 
L 116.800914 59.471539 
L 117.07867 59.749295 
L 117.356425 60.02705 
L 117.634181 60.304806 
L 117.911936 60.582561 
L 118.189692 60.860317 
L 118.467447 61.138072 
L 118.745203 61.415828 
L 119.022958 61.693583 
L 119.300714 61.971339 
L 119.578469 62.249094 
L 119.856225 62.52685 
L 120.13398 62.804605 
L 120.411736 63.082361 
L 120.689491 63.360116 
L 120.967247 63.637872 
L 121.245003 63.915628 
L 121.522758 64.193383 
L 121.800514 64.471139 
L 122.078269 64.748894 
L 122.356025 65.02665 
L 122.63378 65.304405 
L 122.911536 65.582161 
L 123.189291 65.859916 
L 123.467047 66.137672 
L 123.744802 66.415427 
L 124.022558 66.693183 
L 124.300313 66.970938 
L 124.578069 67.248694 
L 124.855824 67.526449 
L 125.13358 67.804205 
L 125.411335 68.08196 
L 125.689091 68.359716 
L 125.966846 68.637471 
L 126.244602 68.915227 
L 126.522357 69.192982 
L 126.800113 69.470738 
L 127.077868 69.748493 
L 127.355624 70.026249 
L 127.633379 70.304004 
L 127.911135 70.58176 
L 128.18889 70.859515 
L 128.466646 71.137271 
L 128.744401 71.415026 
L 129.022157 71.692782 
L 129.299912 71.970537 
L 129.577668 72.248293 
L 129.855423 72.526048 
L 130.133179 72.803804 
L 130.410934 73.081559 
L 130.68869 73.359315 
L 130.966445 73.63707 
L 131.244201 73.914826 
L 131.521956 74.192581 
L 131.799712 74.470337 
L 132.077467 74.748092 
L 132.355223 75.025848 
L 132.632978 75.303603 
L 132.910734 75.581359 
L 133.188489 75.859114 
L 133.466245 76.13687 
L 133.744001 76.414626 
L 134.021756 76.692381 
L 134.299512 76.970137 
L 134.577267 77.247892 
L 134.855023 77.525648 
L 135.132778 77.803403 
L 135.410534 78.081159 
L 135.688289 78.358914 
L 135.966045 78.63667 
L 136.2438 78.914425 
L 136.521556 79.192181 
L 136.799311 79.469936 
L 137.077067 79.747692 
L 137.354822 80.025447 
L 137.632578 80.303203 
L 137.910333 80.580958 
L 138.188089 80.858714 
L 138.465844 81.136469 
L 138.7436 81.414225 
L 139.021355 81.69198 
L 139.299111 81.969736 
L 139.576866 82.247491 
L 139.854622 82.525247 
L 140.132377 82.803002 
L 140.410133 83.080758 
L 140.687888 83.358513 
L 140.965644 83.636269 
L 141.243399 83.914024 
L 141.521155 84.19178 
L 141.79891 84.469535 
L 142.076666 84.747291 
L 142.354421 85.025046 
L 142.632177 85.302802 
L 142.909932 85.580557 
L 143.187688 85.858313 
L 143.465443 86.136068 
L 143.743199 86.413824 
L 144.020954 86.691579 
L 144.29871 86.969335 
L 144.576465 87.24709 
L 144.854221 87.524846 
L 145.131976 87.802601 
L 145.409732 88.080357 
L 145.687487 88.358112 
L 145.965243 88.635868 
L 146.242998 88.913623 
L 146.520754 89.191379 
L 146.79851 89.469135 
L 147.076265 89.74689 
L 147.354021 90.024646 
L 147.631776 90.302401 
L 147.909532 90.580157 
L 148.187287 90.857912 
L 148.465043 91.135668 
L 148.742798 91.413423 
L 149.020554 91.691179 
L 149.298309 91.968934 
L 149.576065 92.24669 
L 149.85382 92.524445 
L 150.131576 92.802201 
L 150.409331 93.079956 
L 150.687087 93.357712 
L 150.964842 93.635467 
L 151.242598 93.913223 
L 151.520353 94.190978 
L 151.798109 94.468734 
L 152.075864 94.746489 
L 152.35362 95.024245 
L 152.631375 95.302 
L 152.909131 95.579756 
L 153.186886 95.857511 
L 153.464642 96.135267 
L 153.742397 96.413022 
L 154.020153 96.690778 
L 154.297908 96.968533 
L 154.575664 97.246289 
L 154.853419 97.524044 
L 155.131175 97.8018 
L 155.40893 98.079555 
L 155.686686 98.357311 
L 155.964441 98.635066 
L 156.242197 98.912822 
L 156.519952 99.190577 
L 156.797708 99.468333 
L 157.075463 99.746088 
L 157.353219 100.023844 
L 157.630974 100.301599 
L 157.90873 100.579355 
L 158.186485 100.85711 
L 158.464241 101.134866 
L 158.741996 101.412621 
L 159.019752 101.690377 
L 159.297508 101.968133 
L 159.575263 102.245888 
L 159.853019 102.523644 
L 160.130774 102.801399 
L 160.40853 103.079155 
L 160.686285 103.35691 
L 160.964041 103.634666 
L 161.241796 103.912421 
L 161.519552 104.190177 
L 161.797307 104.467932 
L 162.075063 104.745688 
L 162.352818 105.023443 
L 162.630574 105.301199 
L 162.908329 105.578954 
L 163.186085 105.85671 
L 163.46384 106.134465 
L 163.741596 106.412221 
L 164.019351 106.689976 
L 164.297107 106.967732 
L 164.574862 107.245487 
L 164.852618 107.523243 
L 165.130373 107.800998 
L 165.408129 108.078754 
L 165.685884 108.356509 
L 165.96364 108.634265 
L 166.241395 108.91202 
L 166.519151 109.189776 
L 166.796906 109.467531 
L 167.074662 109.745287 
L 167.352417 110.023042 
L 167.630173 110.300798 
L 167.907928 110.578553 
L 168.185684 110.856309 
L 168.463439 111.134064 
L 168.741195 111.41182 
L 169.01895 111.689575 
L 169.296706 111.967331 
L 169.574461 112.245086 
L 169.852217 112.522842 
L 170.129972 112.800597 
L 170.407728 113.078353 
L 170.685483 113.356108 
L 170.963239 113.633864 
L 171.240994 113.911619 
L 171.51875 114.189375 
L 171.51875 426.039375 
L 171.51875 426.039375 
L 171.240994 426.039375 
L 170.963239 426.039375 
L 170.685483 426.039375 
L 170.407728 426.039375 
L 170.129972 426.039375 
L 169.852217 426.039375 
L 169.574461 426.039375 
L 169.296706 426.039375 
L 169.01895 426.039375 
L 168.741195 426.039375 
L 168.463439 426.039375 
L 168.185684 426.039375 
L 167.907928 426.039375 
L 167.630173 426.039375 
L 167.352417 426.039375 
L 167.074662 426.039375 
L 166.796906 426.039375 
L 166.519151 426.039375 
L 166.241395 426.039375 
L 165.96364 426.039375 
L 165.685884 426.039375 
L 165.408129 426.039375 
L 165.130373 426.039375 
L 164.852618 426.039375 
L 164.574862 426.039375 
L 164.297107 426.039375 
L 164.019351 426.039375 
L 163.741596 426.039375 
L 163.46384 426.039375 
L 163.186085 426.039375 
L 162.908329 426.039375 
L 162.630574 426.039375 
L 162.352818 426.039375 
L 162.075063 426.039375 
L 161.797307 426.039375 
L 161.519552 426.039375 
L 161.241796 426.039375 
L 160.964041 426.039375 
L 160.686285 426.039375 
L 160.40853 426.039375 
L 160.130774 426.039375 
L 159.853019 426.039375 
L 159.575263 426.039375 
L 159.297508 426.039375 
L 159.019752 426.039375 
L 158.741996 426.039375 
L 158.464241 426.039375 
L 158.186485 426.039375 
L 157.90873 426.039375 
L 157.630974 426.039375 
L 157.353219 426.039375 
L 157.075463 426.039375 
L 156.797708 426.039375 
L 156.519952 426.039375 
L 156.242197 426.039375 
L 155.964441 426.039375 
L 155.686686 426.039375 
L 155.40893 426.039375 
L 155.131175 426.039375 
L 154.853419 426.039375 
L 154.575664 426.039375 
L 154.297908 426.039375 
L 154.020153 426.039375 
L 153.742397 426.039375 
L 153.464642 426.039375 
L 153.186886 426.039375 
L 152.909131 426.039375 
L 152.631375 426.039375 
L 152.35362 426.039375 
L 152.075864 426.039375 
L 151.798109 426.039375 
L 151.520353 426.039375 
L 151.242598 426.039375 
L 150.964842 426.039375 
L 150.687087 426.039375 
L 150.409331 426.039375 
L 150.131576 426.039375 
L 149.85382 426.039375 
L 149.576065 426.039375 
L 149.298309 426.039375 
L 149.020554 426.039375 
L 148.742798 426.039375 
L 148.465043 426.039375 
L 148.187287 426.039375 
L 147.909532 426.039375 
L 147.631776 426.039375 
L 147.354021 426.039375 
L 147.076265 426.039375 
L 146.79851 426.039375 
L 146.520754 426.039375 
L 146.242998 426.039375 
L 145.965243 426.039375 
L 145.687487 426.039375 
L 145.409732 426.039375 
L 145.131976 426.039375 
L 144.854221 426.039375 
L 144.576465 426.039375 
L 144.29871 426.039375 
L 144.020954 426.039375 
L 143.743199 426.039375 
L 143.465443 426.039375 
L 143.187688 426.039375 
L 142.909932 426.039375 
L 142.632177 426.039375 
L 142.354421 426.039375 
L 142.076666 426.039375 
L 141.79891 426.039375 
L 141.521155 426.039375 
L 141.243399 426.039375 
L 140.965644 426.039375 
L 140.687888 426.039375 
L 140.410133 426.039375 
L 140.132377 426.039375 
L 139.854622 426.039375 
L 139.576866 426.039375 
L 139.299111 426.039375 
L 139.021355 426.039375 
L 138.7436 426.039375 
L 138.465844 426.039375 
L 138.188089 426.039375 
L 137.910333 426.039375 
L 137.632578 426.039375 
L 137.354822 426.039375 
L 137.077067 426.039375 
L 136.799311 426.039375 
L 136.521556 426.039375 
L 136.2438 426.039375 
L 135.966045 426.039375 
L 135.688289 426.039375 
L 135.410534 426.039375 
L 135.132778 426.039375 
L 134.855023 426.039375 
L 134.577267 426.039375 
L 134.299512 426.039375 
L 134.021756 426.039375 
L 133.744001 426.039375 
L 133.466245 426.039375 
L 133.188489 426.039375 
L 132.910734 426.039375 
L 132.632978 426.039375 
L 132.355223 426.039375 
L 132.077467 426.039375 
L 131.799712 426.039375 
L 131.521956 426.039375 
L 131.244201 426.039375 
L 130.966445 426.039375 
L 130.68869 426.039375 
L 130.410934 426.039375 
L 130.133179 426.039375 
L 129.855423 426.039375 
L 129.577668 426.039375 
L 129.299912 426.039375 
L 129.022157 426.039375 
L 128.744401 426.039375 
L 128.466646 426.039375 
L 128.18889 426.039375 
L 127.911135 426.039375 
L 127.633379 426.039375 
L 127.355624 426.039375 
L 127.077868 426.039375 
L 126.800113 426.039375 
L 126.522357 426.039375 
L 126.244602 426.039375 
L 125.966846 426.039375 
L 125.689091 426.039375 
L 125.411335 426.039375 
L 125.13358 426.039375 
L 124.855824 426.039375 
L 124.578069 426.039375 
L 124.300313 426.039375 
L 124.022558 426.039375 
L 123.744802 426.039375 
L 123.467047 426.039375 
L 123.189291 426.039375 
L 122.911536 426.039375 
L 122.63378 426.039375 
L 122.356025 426.039375 
L 122.078269 426.039375 
L 121.800514 426.039375 
L 121.522758 426.039375 
L 121.245003 426.039375 
L 120.967247 426.039375 
L 120.689491 426.039375 
L 120.411736 426.039375 
L 120.13398 426.039375 
L 119.856225 426.039375 
L 119.578469 426.039375 
L 119.300714 426.039375 
L 119.022958 426.039375 
L 118.745203 426.039375 
L 118.467447 426.039375 
L 118.189692 426.039375 
L 117.911936 426.039375 
L 117.634181 426.039375 
L 117.356425 426.039375 
L 117.07867 426.039375 
L 116.800914 426.039375 
L 116.523159 426.039375 
L 116.245403 426.039375 
L 115.967648 426.039375 
L 115.689892 426.039375 
L 115.412137 426.039375 
L 115.134381 426.039375 
L 114.856626 426.039375 
L 114.57887 426.039375 
L 114.301115 426.039375 
L 114.023359 426.039375 
L 113.745604 426.039375 
L 113.467848 426.039375 
L 113.190093 426.039375 
L 112.912337 426.039375 
L 112.634582 426.039375 
L 112.356826 426.039375 
L 112.079071 426.039375 
L 111.801315 426.039375 
L 111.52356 426.039375 
L 111.245804 426.039375 
L 110.968049 426.039375 
L 110.690293 426.039375 
L 110.412538 426.039375 
L 110.134782 426.039375 
L 109.857027 426.039375 
L 109.579271 426.039375 
L 109.301516 426.039375 
L 109.02376 426.039375 
L 108.746005 426.039375 
L 108.468249 426.039375 
L 108.190493 426.039375 
L 107.912738 426.039375 
L 107.634982 426.039375 
L 107.357227 426.039375 
L 107.079471 426.039375 
L 106.801716 426.039375 
L 106.52396 426.039375 
L 106.246205 426.039375 
L 105.968449 426.039375 
L 105.690694 426.039375 
L 105.412938 426.039375 
L 105.135183 426.039375 
L 104.857427 426.039375 
L 104.579672 426.039375 
L 104.301916 426.039375 
L 104.024161 426.039375 
L 103.746405 426.039375 
L 103.46865 426.039375 
L 103.190894 426.039375 
L 102.913139 426.039375 
L 102.635383 426.039375 
L 102.357628 426.039375 
L 102.079872 426.039375 
L 101.802117 426.039375 
L 101.524361 426.039375 
L 101.246606 426.039375 
L 100.96885 426.039375 
L 100.691095 426.039375 
L 100.413339 426.039375 
L 100.135584 426.039375 
L 99.857828 426.039375 
L 99.580073 426.039375 
L 99.302317 426.039375 
L 99.024562 426.039375 
L 98.746806 426.039375 
L 98.469051 426.039375 
L 98.191295 426.039375 
L 97.91354 426.039375 
L 97.635784 426.039375 
L 97.358029 426.039375 
L 97.080273 426.039375 
L 96.802518 426.039375 
L 96.524762 426.039375 
L 96.247007 426.039375 
L 95.969251 426.039375 
L 95.691495 426.039375 
L 95.41374 426.039375 
L 95.135984 426.039375 
L 94.858229 426.039375 
L 94.580473 426.039375 
L 94.302718 426.039375 
L 94.024962 426.039375 
L 93.747207 426.039375 
L 93.469451 426.039375 
L 93.191696 426.039375 
L 92.91394 426.039375 
L 92.636185 426.039375 
L 92.358429 426.039375 
L 92.080674 426.039375 
L 91.802918 426.039375 
L 91.525163 426.039375 
L 91.247407 426.039375 
L 90.969652 426.039375 
L 90.691896 426.039375 
L 90.414141 426.039375 
L 90.136385 426.039375 
L 89.85863 426.039375 
L 89.580874 426.039375 
L 89.303119 426.039375 
L 89.025363 426.039375 
L 88.747608 426.039375 
L 88.469852 426.039375 
L 88.192097 426.039375 
L 87.914341 426.039375 
L 87.636586 426.039375 
L 87.35883 426.039375 
L 87.081075 426.039375 
L 86.803319 426.039375 
L 86.525564 426.039375 
L 86.247808 426.039375 
L 85.970053 426.039375 
L 85.692297 426.039375 
L 85.414542 426.039375 
L 85.136786 426.039375 
L 84.859031 426.039375 
L 84.581275 426.039375 
L 84.30352 426.039375 
L 84.025764 426.039375 
L 83.748009 426.039375 
L 83.470253 426.039375 
L 83.192497 426.039375 
L 82.914742 426.039375 
L 82.636986 426.039375 
L 82.359231 426.039375 
L 82.081475 426.039375 
L 81.80372 426.039375 
L 81.525964 426.039375 
L 81.248209 426.039375 
L 80.970453 426.039375 
L 80.692698 426.039375 
L 80.414942 426.039375 
L 80.137187 426.039375 
L 79.859431 426.039375 
L 79.581676 426.039375 
L 79.30392 426.039375 
L 79.026165 426.039375 
L 78.748409 426.039375 
L 78.470654 426.039375 
L 78.192898 426.039375 
L 77.915143 426.039375 
L 77.637387 426.039375 
L 77.359632 426.039375 
L 77.081876 426.039375 
L 76.804121 426.039375 
L 76.526365 426.039375 
L 76.24861 426.039375 
L 75.970854 426.039375 
L 75.693099 426.039375 
L 75.415343 426.039375 
L 75.137588 426.039375 
L 74.859832 426.039375 
L 74.582077 426.039375 
L 74.304321 426.039375 
L 74.026566 426.039375 
L 73.74881 426.039375 
L 73.471055 426.039375 
L 73.193299 426.039375 
L 72.915544 426.039375 
L 72.637788 426.039375 
L 72.360033 426.039375 
L 72.082277 426.039375 
L 71.804522 426.039375 
L 71.526766 426.039375 
L 71.249011 426.039375 
L 70.971255 426.039375 
L 70.693499 426.039375 
L 70.415744 426.039375 
L 70.137988 426.039375 
L 69.860233 426.039375 
L 69.582477 426.039375 
L 69.304722 426.039375 
L 69.026966 426.039375 
L 68.749211 426.039375 
L 68.471455 426.039375 
L 68.1937 426.039375 
L 67.915944 426.039375 
L 67.638189 426.039375 
L 67.360433 426.039375 
L 67.082678 426.039375 
L 66.804922 426.039375 
L 66.527167 426.039375 
L 66.249411 426.039375 
L 65.971656 426.039375 
L 65.6939 426.039375 
L 65.416145 426.039375 
L 65.138389 426.039375 
L 64.860634 426.039375 
L 64.582878 426.039375 
L 64.305123 426.039375 
L 64.027367 426.039375 
L 63.749612 426.039375 
L 63.471856 426.039375 
L 63.194101 426.039375 
L 62.916345 426.039375 
L 62.63859 426.039375 
L 62.360834 426.039375 
L 62.083079 426.039375 
L 61.805323 426.039375 
L 61.527568 426.039375 
L 61.249812 426.039375 
L 60.972057 426.039375 
L 60.694301 426.039375 
L 60.416546 426.039375 
L 60.13879 426.039375 
L 59.861035 426.039375 
L 59.583279 426.039375 
L 59.305524 426.039375 
L 59.027768 426.039375 
L 58.750013 426.039375 
L 58.472257 426.039375 
L 58.194502 426.039375 
L 57.916746 426.039375 
L 57.63899 426.039375 
L 57.361235 426.039375 
L 57.083479 426.039375 
L 56.805724 426.039375 
L 56.527968 426.039375 
L 56.250213 426.039375 
L 55.972457 426.039375 
L 55.694702 426.039375 
L 55.416946 426.039375 
L 55.139191 426.039375 
L 54.861435 426.039375 
L 54.58368 426.039375 
L 54.305924 426.039375 
L 54.028169 426.039375 
L 53.750413 426.039375 
L 53.472658 426.039375 
L 53.194902 426.039375 
L 52.917147 426.039375 
L 52.639391 426.039375 
L 52.361636 426.039375 
L 52.08388 426.039375 
L 51.806125 426.039375 
L 51.528369 426.039375 
L 51.250614 426.039375 
L 50.972858 426.039375 
L 50.695103 426.039375 
L 50.417347 426.039375 
L 50.139592 426.039375 
L 49.861836 426.039375 
L 49.584081 426.039375 
L 49.306325 426.039375 
L 49.02857 426.039375 
L 48.750814 426.039375 
L 48.473059 426.039375 
L 48.195303 426.039375 
L 47.917548 426.039375 
L 47.639792 426.039375 
L 47.362037 426.039375 
L 47.084281 426.039375 
L 46.806526 426.039375 
L 46.52877 426.039375 
L 46.251015 426.039375 
L 45.973259 426.039375 
L 45.695504 426.039375 
L 45.417748 426.039375 
L 45.139992 426.039375 
L 44.862237 426.039375 
L 44.584481 426.039375 
L 44.306726 426.039375 
L 44.02897 426.039375 
L 43.751215 426.039375 
L 43.473459 426.039375 
L 43.195704 426.039375 
L 42.917948 426.039375 
L 42.640193 426.039375 
L 42.362437 426.039375 
L 42.084682 426.039375 
L 41.806926 426.039375 
L 41.529171 426.039375 
L 41.251415 426.039375 
L 40.97366 426.039375 
L 40.695904 426.039375 
L 40.418149 426.039375 
L 40.140393 426.039375 
L 39.862638 426.039375 
L 39.584882 426.039375 
L 39.307127 426.039375 
L 39.029371 426.039375 
L 38.751616 426.039375 
L 38.47386 426.039375 
L 38.196105 426.039375 
L 37.918349 426.039375 
L 37.640594 426.039375 
L 37.362838 426.039375 
L 37.085083 426.039375 
L 36.807327 426.039375 
L 36.529572 426.039375 
L 36.251816 426.039375 
L 35.974061 426.039375 
L 35.696305 426.039375 
L 35.41855 426.039375 
L 35.140794 426.039375 
L 34.863039 426.039375 
L 34.585283 426.039375 
L 34.307528 426.039375 
L 34.029772 426.039375 
L 33.752017 426.039375 
L 33.474261 426.039375 
L 33.196506 426.039375 
L 32.91875 426.039375 
z
" clip-path="url(#pbc544da759)" style="fill: #a0b1ba"/>
   </g>
   <g id="matplotlib.axis_1">
    <g id="xtick_1">
     <g id="line2d_1">
      <defs>
       <path id="m4cd371f86f" d="M 0 0 
L 0 2.5 
" style="stroke: #000000; stroke-width: 0.6"/>
      </defs>
      <g>
       <use xlink:href="#m4cd371f86f" x="32.91875" y="148.839375" style="stroke: #000000; stroke-width: 0.6"/>
      </g>
     </g>
     <g id="text_1">
      <!-- -2 -->
      <g transform="translate(28.930625 160.918125)scale(0.08 -0.08)">
       <defs>
        <path id="DejaVuSans-2d" d="M 313 2009 
L 1997 2009 
L 1997 1497 
L 313 1497 
L 313 2009 
z
" transform="scale(0.015625)"/>
        <path id="DejaVuSans-32" d="M 1228 531 
L 3431 531 
L 3431 0 
L 469 0 
L 469 531 
Q 828 903 1448 1529 
Q 2069 2156 2228 2338 
Q 2531 2678 2651 2914 
Q 2772 3150 2772 3378 
Q 2772 3750 2511 3984 
Q 2250 4219 1831 4219 
Q 1534 4219 1204 4116 
Q 875 4013 500 3803 
L 500 4441 
Q 881 4594 1212 4672 
Q 1544 4750 1819 4750 
Q 2544 4750 2975 4387 
Q 3406 4025 3406 3419 
Q 3406 3131 3298 2873 
Q 3191 2616 2906 2266 
Q 2828 2175 2409 1742 
Q 1991 1309 1228 531 
z
" transform="scale(0.015625)"/>
       </defs>
       <use xlink:href="#DejaVuSans-2d"/>
       <use xlink:href="#DejaVuSans-32" x="36.083984"/>
      </g>
     </g>
    </g>
    <g id="xtick_2">
     <g id="line2d_2">
      <g>
       <use xlink:href="#m4cd371f86f" x="67.56875" y="148.839375" style="stroke: #000000; stroke-width: 0.6"/>
      </g>
     </g>
     <g id="text_2">
      <!-- -1 -->
      <g transform="translate(63.580625 160.918125)scale(0.08 -0.08)">
       <defs>
        <path id="DejaVuSans-31" d="M 794 531 
L 1825 531 
L 1825 4091 
L 703 3866 
L 703 4441 
L 1819 4666 
L 2450 4666 
L 2450 531 
L 3481 531 
L 3481 0 
L 794 0 
L 794 531 
z
" transform="scale(0.015625)"/>
       </defs>
       <use xlink:href="#DejaVuSans-2d"/>
       <use xlink:href="#DejaVuSans-31" x="36.083984"/>
      </g>
     </g>
    </g>
    <g id="xtick_3">
     <g id="line2d_3">
      <g>
       <use xlink:href="#m4cd371f86f" x="102.21875" y="148.839375" style="stroke: #000000; stroke-width: 0.6"/>
      </g>
     </g>
     <g id="text_3">
      <!-- 0 -->
      <g transform="translate(99.67375 160.918125)scale(0.08 -0.08)">
       <defs>
        <path id="DejaVuSans-30" d="M 2034 4250 
Q 1547 4250 1301 3770 
Q 1056 3291 1056 2328 
Q 1056 1369 1301 889 
Q 1547 409 2034 409 
Q 2525 409 2770 889 
Q 3016 1369 3016 2328 
Q 3016 3291 2770 3770 
Q 2525 4250 2034 4250 
z
M 2034 4750 
Q 2819 4750 3233 4129 
Q 3647 3509 3647 2328 
Q 3647 1150 3233 529 
Q 2819 -91 2034 -91 
Q 1250 -91 836 529 
Q 422 1150 422 2328 
Q 422 3509 836 4129 
Q 1250 4750 2034 4750 
z
" transform="scale(0.015625)"/>
       </defs>
       <use xlink:href="#DejaVuSans-30"/>
      </g>
     </g>
    </g>
    <g id="xtick_4">
     <g id="line2d_4">
      <g>
       <use xlink:href="#m4cd371f86f" x="136.86875" y="148.839375" style="stroke: #000000; stroke-width: 0.6"/>
      </g>
     </g>
     <g id="text_4">
      <!-- 1 -->
      <g transform="translate(134.32375 160.918125)scale(0.08 -0.08)">
       <use xlink:href="#DejaVuSans-31"/>
      </g>
     </g>
    </g>
    <g id="xtick_5">
     <g id="line2d_5">
      <g>
       <use xlink:href="#m4cd371f86f" x="171.51875" y="148.839375" style="stroke: #000000; stroke-width: 0.6"/>
      </g>
     </g>
     <g id="text_5">
      <!-- 2 -->
      <g transform="translate(168.97375 160.918125)scale(0.08 -0.08)">
       <use xlink:href="#DejaVuSans-32"/>
      </g>
     </g>
    </g>
    <g id="text_6">
     <!-- $x_1$ -->
     <g transform="translate(97.93875 172.660625)scale(0.08 -0.08)">
      <defs>
       <path id="DejaVuSans-Oblique-78" d="M 3841 3500 
L 2234 1784 
L 3219 0 
L 2559 0 
L 1819 1388 
L 531 0 
L -166 0 
L 1556 1844 
L 641 3500 
L 1300 3500 
L 1972 2234 
L 3144 3500 
L 3841 3500 
z
" transform="scale(0.015625)"/>
      </defs>
      <use xlink:href="#DejaVuSans-Oblique-78" transform="translate(0 0.3125)"/>
      <use xlink:href="#DejaVuSans-31" transform="translate(59.179688 -16.09375)scale(0.7)"/>
     </g>
    </g>
   </g>
   <g id="matplotlib.axis_2">
    <g id="ytick_1">
     <g id="line2d_6">
      <defs>
       <path id="m56f3a9ced1" d="M 0 0 
L -2.5 0 
" style="stroke: #000000; stroke-width: 0.6"/>
      </defs>
      <g>
       <use xlink:href="#m56f3a9ced1" x="32.91875" y="148.839375" style="stroke: #000000; stroke-width: 0.6"/>
      </g>
     </g>
     <g id="text_7">
      <!-- -2 -->
      <g transform="translate(18.9425 151.87875)scale(0.08 -0.08)">
       <use xlink:href="#DejaVuSans-2d"/>
       <use xlink:href="#DejaVuSans-32" x="36.083984"/>
      </g>
     </g>
    </g>
    <g id="ytick_2">
     <g id="line2d_7">
      <g>
       <use xlink:href="#m56f3a9ced1" x="32.91875" y="114.189375" style="stroke: #000000; stroke-width: 0.6"/>
      </g>
     </g>
     <g id="text_8">
      <!-- -1 -->
      <g transform="translate(18.9425 117.22875)scale(0.08 -0.08)">
       <use xlink:href="#DejaVuSans-2d"/>
       <use xlink:href="#DejaVuSans-31" x="36.083984"/>
      </g>
     </g>
    </g>
    <g id="ytick_3">
     <g id="line2d_8">
      <g>
       <use xlink:href="#m56f3a9ced1" x="32.91875" y="79.539375" style="stroke: #000000; stroke-width: 0.6"/>
      </g>
     </g>
     <g id="text_9">
      <!-- 0 -->
      <g transform="translate(21.82875 82.57875)scale(0.08 -0.08)">
       <use xlink:href="#DejaVuSans-30"/>
      </g>
     </g>
    </g>
    <g id="ytick_4">
     <g id="line2d_9">
      <g>
       <use xlink:href="#m56f3a9ced1" x="32.91875" y="44.889375" style="stroke: #000000; stroke-width: 0.6"/>
      </g>
     </g>
     <g id="text_10">
      <!-- 1 -->
      <g transform="translate(21.82875 47.92875)scale(0.08 -0.08)">
       <use xlink:href="#DejaVuSans-31"/>
      </g>
     </g>
    </g>
    <g id="ytick_5">
     <g id="line2d_10">
      <g>
       <use xlink:href="#m56f3a9ced1" x="32.91875" y="10.239375" style="stroke: #000000; stroke-width: 0.6"/>
      </g>
     </g>
     <g id="text_11">
      <!-- 2 -->
      <g transform="translate(21.82875 13.27875)scale(0.08 -0.08)">
       <use xlink:href="#DejaVuSans-32"/>
      </g>
     </g>
    </g>
    <g id="text_12">
     <!-- $x_2$ -->
     <g transform="translate(13.27875 83.819375)rotate(-90)scale(0.08 -0.08)">
      <use xlink:href="#DejaVuSans-Oblique-78" transform="translate(0 0.3125)"/>
      <use xlink:href="#DejaVuSans-32" transform="translate(59.179688 -16.09375)scale(0.7)"/>
     </g>
    </g>
   </g>
   <g id="line2d_11">
    <path d="M 32.91875 79.539375 
L 171.51875 10.239375 
L 171.51875 10.239375 
" clip-path="url(#pbc544da759)" style="fill: none; stroke: #ff1f5b; stroke-linecap: square"/>
   </g>
   <g id="line2d_12">
    <path d="M 32.91875 36.226875 
L 171.51875 70.876875 
L 171.51875 70.876875 
" clip-path="url(#pbc544da759)" style="fill: none; stroke: #00cd6c; stroke-linecap: square"/>
   </g>
   <g id="line2d_13">
    <path d="M 56.329375 -1 
L 171.51875 114.189375 
L 171.51875 114.189375 
" clip-path="url(#pbc544da759)" style="fill: none; stroke: #009ade; stroke-linecap: square"/>
   </g>
   <g id="patch_3">
    <path d="M 32.91875 148.839375 
L 32.91875 10.239375 
" style="fill: none; stroke: #000000; stroke-width: 0.6; stroke-linejoin: miter; stroke-linecap: square"/>
   </g>
   <g id="patch_4">
    <path d="M 32.91875 148.839375 
L 171.51875 148.839375 
" style="fill: none; stroke: #000000; stroke-width: 0.6; stroke-linejoin: miter; stroke-linecap: square"/>
   </g>
  </g>
 </g>
 <defs>
  <clipPath id="pbc544da759">
   <rect x="32.91875" y="10.239375" width="138.6" height="138.6"/>
  </clipPath>
 </defs>
</svg>
